<?xml version="1.0" encoding="UTF-8" standalone="no"?>
<!DOCTYPE svg PUBLIC "-//W3C//DTD SVG 1.1//EN"
 "http://www.w3.org/Graphics/SVG/1.1/DTD/svg11.dtd">
<!-- Generated by graphviz version 2.38.0 (20140413.2041)
 -->
<!-- Title: agent/src/capability/baseconfigstore.h Pages: 1 -->
<svg width="549pt" height="285pt"
 viewBox="0.00 0.00 549.00 285.00" xmlns="http://www.w3.org/2000/svg" xmlns:xlink="http://www.w3.org/1999/xlink">
<g id="graph0" class="graph" transform="scale(1 1) rotate(0) translate(4 281)">
<title>agent/src/capability/baseconfigstore.h</title>
<polygon fill="white" stroke="none" points="-4,4 -4,-281 545,-281 545,4 -4,4"/>
<!-- Node1 -->
<g id="node1" class="node"><title>Node1</title>
<polygon fill="#bfbfbf" stroke="black" points="210.5,-246.5 210.5,-276.5 311.5,-276.5 311.5,-246.5 210.5,-246.5"/>
<text text-anchor="start" x="218.5" y="-264.5" font-family="Helvetica,sans-Serif" font-size="10.00">agent/src/capability</text>
<text text-anchor="middle" x="261" y="-253.5" font-family="Helvetica,sans-Serif" font-size="10.00">/baseconfigstore.h</text>
</g>
<!-- Node2 -->
<g id="node2" class="node"><title>Node2</title>
<g id="a_node2"><a xlink:href="baseconfigstore_8cpp_source.html" target="_top" xlink:title="agent/src/capability\l/baseconfigstore.cpp">
<polygon fill="white" stroke="black" points="83.5,-179.5 83.5,-209.5 190.5,-209.5 190.5,-179.5 83.5,-179.5"/>
<text text-anchor="start" x="91.5" y="-197.5" font-family="Helvetica,sans-Serif" font-size="10.00">agent/src/capability</text>
<text text-anchor="middle" x="137" y="-186.5" font-family="Helvetica,sans-Serif" font-size="10.00">/baseconfigstore.cpp</text>
</a>
</g>
</g>
<!-- Node1&#45;&gt;Node2 -->
<g id="edge1" class="edge"><title>Node1&#45;&gt;Node2</title>
<path fill="none" stroke="midnightblue" d="M225.163,-241.714C205.606,-231.463 181.798,-218.983 163.854,-209.577"/>
<polygon fill="midnightblue" stroke="midnightblue" points="223.612,-244.853 234.094,-246.396 226.862,-238.653 223.612,-244.853"/>
</g>
<!-- Node3 -->
<g id="node3" class="node"><title>Node3</title>
<g id="a_node3"><a xlink:href="defaultconfigstore_8h_source.html" target="_top" xlink:title="agent/src/capability\l/defaultconfigstore.h">
<polygon fill="white" stroke="black" points="208.5,-179.5 208.5,-209.5 313.5,-209.5 313.5,-179.5 208.5,-179.5"/>
<text text-anchor="start" x="216.5" y="-197.5" font-family="Helvetica,sans-Serif" font-size="10.00">agent/src/capability</text>
<text text-anchor="middle" x="261" y="-186.5" font-family="Helvetica,sans-Serif" font-size="10.00">/defaultconfigstore.h</text>
</a>
</g>
</g>
<!-- Node1&#45;&gt;Node3 -->
<g id="edge2" class="edge"><title>Node1&#45;&gt;Node3</title>
<path fill="none" stroke="midnightblue" d="M261,-236.108C261,-227.154 261,-217.323 261,-209.577"/>
<polygon fill="midnightblue" stroke="midnightblue" points="257.5,-236.396 261,-246.396 264.5,-236.396 257.5,-236.396"/>
</g>
<!-- Node10 -->
<g id="node10" class="node"><title>Node10</title>
<g id="a_node10"><a xlink:href="filteredconfigstore_8h_source.html" target="_top" xlink:title="agent/src/capability\l/filteredconfigstore.h">
<polygon fill="white" stroke="black" points="331.5,-179.5 331.5,-209.5 436.5,-209.5 436.5,-179.5 331.5,-179.5"/>
<text text-anchor="start" x="339.5" y="-197.5" font-family="Helvetica,sans-Serif" font-size="10.00">agent/src/capability</text>
<text text-anchor="middle" x="384" y="-186.5" font-family="Helvetica,sans-Serif" font-size="10.00">/filteredconfigstore.h</text>
</a>
</g>
</g>
<!-- Node1&#45;&gt;Node10 -->
<g id="edge9" class="edge"><title>Node1&#45;&gt;Node10</title>
<path fill="none" stroke="midnightblue" d="M296.548,-241.714C315.947,-231.463 339.564,-218.983 357.363,-209.577"/>
<polygon fill="midnightblue" stroke="midnightblue" points="294.895,-238.629 287.689,-246.396 298.166,-244.818 294.895,-238.629"/>
</g>
<!-- Node4 -->
<g id="node4" class="node"><title>Node4</title>
<g id="a_node4"><a xlink:href="defaultconfigstore_8cpp_source.html" target="_top" xlink:title="agent/src/capability\l/defaultconfigstore.cpp">
<polygon fill="white" stroke="black" points="103,-112.5 103,-142.5 219,-142.5 219,-112.5 103,-112.5"/>
<text text-anchor="start" x="111" y="-130.5" font-family="Helvetica,sans-Serif" font-size="10.00">agent/src/capability</text>
<text text-anchor="middle" x="161" y="-119.5" font-family="Helvetica,sans-Serif" font-size="10.00">/defaultconfigstore.cpp</text>
</a>
</g>
</g>
<!-- Node3&#45;&gt;Node4 -->
<g id="edge3" class="edge"><title>Node3&#45;&gt;Node4</title>
<path fill="none" stroke="midnightblue" d="M230.59,-173.734C215.116,-163.676 196.669,-151.685 182.656,-142.577"/>
<polygon fill="midnightblue" stroke="midnightblue" points="229.01,-176.881 239.301,-179.396 232.825,-171.011 229.01,-176.881"/>
</g>
<!-- Node5 -->
<g id="node5" class="node"><title>Node5</title>
<g id="a_node5"><a xlink:href="softwarecontaineragent_8h.html" target="_top" xlink:title="Contains the softwarecontainer::SoftwareContainerAgent class. ">
<polygon fill="white" stroke="black" points="237,-118 237,-137 407,-137 407,-118 237,-118"/>
<text text-anchor="middle" x="322" y="-125" font-family="Helvetica,sans-Serif" font-size="10.00">agent/src/softwarecontaineragent.h</text>
</a>
</g>
</g>
<!-- Node3&#45;&gt;Node5 -->
<g id="edge4" class="edge"><title>Node3&#45;&gt;Node5</title>
<path fill="none" stroke="midnightblue" d="M281.18,-171.997C292.314,-160.132 305.529,-146.052 313.841,-137.195"/>
<polygon fill="midnightblue" stroke="midnightblue" points="278.527,-169.709 274.236,-179.396 283.631,-174.499 278.527,-169.709"/>
</g>
<!-- Node6 -->
<g id="node6" class="node"><title>Node6</title>
<g id="a_node6"><a xlink:href="softwarecontaineragentadaptor_8h_source.html" target="_top" xlink:title="agent/src/dbus/softwarecontaineragentadaptor.h">
<polygon fill="white" stroke="black" points="98,-56.5 98,-75.5 324,-75.5 324,-56.5 98,-56.5"/>
<text text-anchor="middle" x="211" y="-63.5" font-family="Helvetica,sans-Serif" font-size="10.00">agent/src/dbus/softwarecontaineragentadaptor.h</text>
</a>
</g>
</g>
<!-- Node5&#45;&gt;Node6 -->
<g id="edge5" class="edge"><title>Node5&#45;&gt;Node6</title>
<path fill="none" stroke="midnightblue" d="M297.21,-113.212C275.712,-101.688 245.242,-85.355 226.874,-75.5091"/>
<polygon fill="midnightblue" stroke="midnightblue" points="295.629,-116.335 306.096,-117.975 298.936,-110.166 295.629,-116.335"/>
</g>
<!-- Node9 -->
<g id="node9" class="node"><title>Node9</title>
<g id="a_node9"><a xlink:href="softwarecontaineragent_8cpp_source.html" target="_top" xlink:title="agent/src/softwarecontaineragent.cpp">
<polygon fill="white" stroke="black" points="342,-56.5 342,-75.5 522,-75.5 522,-56.5 342,-56.5"/>
<text text-anchor="middle" x="432" y="-63.5" font-family="Helvetica,sans-Serif" font-size="10.00">agent/src/softwarecontaineragent.cpp</text>
</a>
</g>
</g>
<!-- Node5&#45;&gt;Node9 -->
<g id="edge8" class="edge"><title>Node5&#45;&gt;Node9</title>
<path fill="none" stroke="midnightblue" d="M346.566,-113.212C367.871,-101.688 398.066,-85.355 416.269,-75.5091"/>
<polygon fill="midnightblue" stroke="midnightblue" points="344.891,-110.139 337.76,-117.975 348.221,-116.296 344.891,-110.139"/>
</g>
<!-- Node7 -->
<g id="node7" class="node"><title>Node7</title>
<g id="a_node7"><a xlink:href="softwarecontaineragentadaptor_8cpp_source.html" target="_top" xlink:title="agent/src/dbus/softwarecontaineragentadaptor.cpp">
<polygon fill="white" stroke="black" points="0,-0.5 0,-19.5 236,-19.5 236,-0.5 0,-0.5"/>
<text text-anchor="middle" x="118" y="-7.5" font-family="Helvetica,sans-Serif" font-size="10.00">agent/src/dbus/softwarecontaineragentadaptor.cpp</text>
</a>
</g>
</g>
<!-- Node6&#45;&gt;Node7 -->
<g id="edge6" class="edge"><title>Node6&#45;&gt;Node7</title>
<path fill="none" stroke="midnightblue" d="M187.194,-51.1774C170.081,-41.2407 147.535,-28.1492 132.905,-19.6545"/>
<polygon fill="midnightblue" stroke="midnightblue" points="185.653,-54.3293 196.058,-56.324 189.168,-48.2758 185.653,-54.3293"/>
</g>
<!-- Node8 -->
<g id="node8" class="node"><title>Node8</title>
<g id="a_node8"><a xlink:href="main_8cpp_source.html" target="_top" xlink:title="agent/src/main.cpp">
<polygon fill="white" stroke="black" points="254,-0.5 254,-19.5 354,-19.5 354,-0.5 254,-0.5"/>
<text text-anchor="middle" x="304" y="-7.5" font-family="Helvetica,sans-Serif" font-size="10.00">agent/src/main.cpp</text>
</a>
</g>
</g>
<!-- Node6&#45;&gt;Node8 -->
<g id="edge7" class="edge"><title>Node6&#45;&gt;Node8</title>
<path fill="none" stroke="midnightblue" d="M234.806,-51.1774C251.919,-41.2407 274.465,-28.1492 289.095,-19.6545"/>
<polygon fill="midnightblue" stroke="midnightblue" points="232.832,-48.2758 225.942,-56.324 236.347,-54.3293 232.832,-48.2758"/>
</g>
<!-- Node10&#45;&gt;Node5 -->
<g id="edge11" class="edge"><title>Node10&#45;&gt;Node5</title>
<path fill="none" stroke="midnightblue" d="M363.489,-171.997C352.172,-160.132 338.741,-146.052 330.293,-137.195"/>
<polygon fill="midnightblue" stroke="midnightblue" points="361.112,-174.576 370.547,-179.396 366.177,-169.744 361.112,-174.576"/>
</g>
<!-- Node11 -->
<g id="node11" class="node"><title>Node11</title>
<g id="a_node11"><a xlink:href="filteredconfigstore_8cpp_source.html" target="_top" xlink:title="agent/src/capability\l/filteredconfigstore.cpp">
<polygon fill="white" stroke="black" points="425,-112.5 425,-142.5 541,-142.5 541,-112.5 425,-112.5"/>
<text text-anchor="start" x="433" y="-130.5" font-family="Helvetica,sans-Serif" font-size="10.00">agent/src/capability</text>
<text text-anchor="middle" x="483" y="-119.5" font-family="Helvetica,sans-Serif" font-size="10.00">/filteredconfigstore.cpp</text>
</a>
</g>
</g>
<!-- Node10&#45;&gt;Node11 -->
<g id="edge10" class="edge"><title>Node10&#45;&gt;Node11</title>
<path fill="none" stroke="midnightblue" d="M414.106,-173.734C429.425,-163.676 447.688,-151.685 461.56,-142.577"/>
<polygon fill="midnightblue" stroke="midnightblue" points="411.92,-170.982 405.482,-179.396 415.762,-176.833 411.92,-170.982"/>
</g>
</g>
</svg>
