<?xml version="1.0" encoding="UTF-8" standalone="no"?>
<!DOCTYPE svg PUBLIC "-//W3C//DTD SVG 1.1//EN"
 "http://www.w3.org/Graphics/SVG/1.1/DTD/svg11.dtd">
<!-- Generated by graphviz version 2.38.0 (20140413.2041)
 -->
<!-- Title: agent/src/capability/baseconfigstore.h Pages: 1 -->
<svg width="581pt" height="263pt"
 viewBox="0.00 0.00 580.50 263.00" xmlns="http://www.w3.org/2000/svg" xmlns:xlink="http://www.w3.org/1999/xlink">
<g id="graph0" class="graph" transform="scale(1 1) rotate(0) translate(4 259)">
<title>agent/src/capability/baseconfigstore.h</title>
<polygon fill="white" stroke="none" points="-4,4 -4,-259 576.5,-259 576.5,4 -4,4"/>
<!-- Node1 -->
<g id="node1" class="node"><title>Node1</title>
<polygon fill="#bfbfbf" stroke="black" points="215.5,-224.5 215.5,-254.5 316.5,-254.5 316.5,-224.5 215.5,-224.5"/>
<text text-anchor="start" x="223.5" y="-242.5" font-family="Helvetica,sans-Serif" font-size="10.00">agent/src/capability</text>
<text text-anchor="middle" x="266" y="-231.5" font-family="Helvetica,sans-Serif" font-size="10.00">/baseconfigstore.h</text>
</g>
<!-- Node2 -->
<g id="node2" class="node"><title>Node2</title>
<g id="a_node2"><a xlink:href="softwarecontainer-common_8h_source.html" target="_top" xlink:title="softwarecontainer&#45;common.h">
<polygon fill="white" stroke="black" points="216.5,-112.5 216.5,-131.5 359.5,-131.5 359.5,-112.5 216.5,-112.5"/>
<text text-anchor="middle" x="288" y="-119.5" font-family="Helvetica,sans-Serif" font-size="10.00">softwarecontainer&#45;common.h</text>
</a>
</g>
</g>
<!-- Node1&#45;&gt;Node2 -->
<g id="edge1" class="edge"><title>Node1&#45;&gt;Node2</title>
<path fill="none" stroke="midnightblue" d="M268.698,-224.337C272.662,-203.527 280.064,-164.663 284.46,-141.583"/>
<polygon fill="midnightblue" stroke="midnightblue" points="287.916,-142.148 286.349,-131.669 281.039,-140.838 287.916,-142.148"/>
</g>
<!-- Node8 -->
<g id="node8" class="node"><title>Node8</title>
<g id="a_node8"><a xlink:href="gatewayconfig_8h_source.html" target="_top" xlink:title="gatewayconfig.h">
<polygon fill="white" stroke="black" points="146,-168.5 146,-187.5 234,-187.5 234,-168.5 146,-168.5"/>
<text text-anchor="middle" x="190" y="-175.5" font-family="Helvetica,sans-Serif" font-size="10.00">gatewayconfig.h</text>
</a>
</g>
</g>
<!-- Node1&#45;&gt;Node8 -->
<g id="edge7" class="edge"><title>Node1&#45;&gt;Node8</title>
<path fill="none" stroke="midnightblue" d="M247.989,-224.399C236.262,-215.218 220.985,-203.258 209.055,-193.918"/>
<polygon fill="midnightblue" stroke="midnightblue" points="211.09,-191.066 201.059,-187.658 206.775,-196.578 211.09,-191.066"/>
</g>
<!-- Node13 -->
<g id="node13" class="node"><title>Node13</title>
<g id="a_node13"><a xlink:href="configstoreerror_8h_source.html" target="_top" xlink:title="configstoreerror.h">
<polygon fill="white" stroke="black" points="24,-168.5 24,-187.5 116,-187.5 116,-168.5 24,-168.5"/>
<text text-anchor="middle" x="70" y="-175.5" font-family="Helvetica,sans-Serif" font-size="10.00">configstoreerror.h</text>
</a>
</g>
</g>
<!-- Node1&#45;&gt;Node13 -->
<g id="edge15" class="edge"><title>Node1&#45;&gt;Node13</title>
<path fill="none" stroke="midnightblue" d="M219.551,-224.399C185.535,-214.073 139.937,-200.231 108.067,-190.556"/>
<polygon fill="midnightblue" stroke="midnightblue" points="108.819,-187.127 98.2336,-187.571 106.786,-193.825 108.819,-187.127"/>
</g>
<!-- Node14 -->
<g id="node14" class="node"><title>Node14</title>
<g id="a_node14"><a xlink:href="servicemanifestloader_8h_source.html" target="_top" xlink:title="servicemanifestloader.h">
<polygon fill="white" stroke="black" points="294,-168.5 294,-187.5 414,-187.5 414,-168.5 294,-168.5"/>
<text text-anchor="middle" x="354" y="-175.5" font-family="Helvetica,sans-Serif" font-size="10.00">servicemanifestloader.h</text>
</a>
</g>
</g>
<!-- Node1&#45;&gt;Node14 -->
<g id="edge17" class="edge"><title>Node1&#45;&gt;Node14</title>
<path fill="none" stroke="midnightblue" d="M286.855,-224.399C300.697,-215.04 318.811,-202.792 332.736,-193.377"/>
<polygon fill="midnightblue" stroke="midnightblue" points="334.872,-196.158 341.195,-187.658 330.951,-190.36 334.872,-196.158"/>
</g>
<!-- Node15 -->
<g id="node15" class="node"><title>Node15</title>
<g id="a_node15"><a xlink:href="jsonparser_8h_source.html" target="_top" xlink:title="jsonparser.h">
<polygon fill="white" stroke="black" points="416,-112.5 416,-131.5 486,-131.5 486,-112.5 416,-112.5"/>
<text text-anchor="middle" x="451" y="-119.5" font-family="Helvetica,sans-Serif" font-size="10.00">jsonparser.h</text>
</a>
</g>
</g>
<!-- Node1&#45;&gt;Node15 -->
<g id="edge22" class="edge"><title>Node1&#45;&gt;Node15</title>
<path fill="none" stroke="midnightblue" d="M316.681,-233.141C350.42,-227.172 393.758,-214.574 423,-188 436.333,-175.884 443.578,-156.324 447.336,-141.821"/>
<polygon fill="midnightblue" stroke="midnightblue" points="450.782,-142.45 449.572,-131.924 443.954,-140.907 450.782,-142.45"/>
</g>
<!-- Node3 -->
<g id="node3" class="node"><title>Node3</title>
<g id="a_node3"><a xlink:href="softwarecontainer-log_8h_source.html" target="_top" xlink:title="softwarecontainer&#45;log.h">
<polygon fill="white" stroke="black" points="377,-56.5 377,-75.5 495,-75.5 495,-56.5 377,-56.5"/>
<text text-anchor="middle" x="436" y="-63.5" font-family="Helvetica,sans-Serif" font-size="10.00">softwarecontainer&#45;log.h</text>
</a>
</g>
</g>
<!-- Node2&#45;&gt;Node3 -->
<g id="edge2" class="edge"><title>Node2&#45;&gt;Node3</title>
<path fill="none" stroke="midnightblue" d="M311.451,-112.444C336.133,-103.438 375.185,-89.1891 402.977,-79.049"/>
<polygon fill="midnightblue" stroke="midnightblue" points="404.464,-82.2321 412.659,-75.5164 402.065,-75.6561 404.464,-82.2321"/>
</g>
<!-- Node5 -->
<g id="node5" class="node"><title>Node5</title>
<polygon fill="white" stroke="#bfbfbf" points="169.5,-56.5 169.5,-75.5 204.5,-75.5 204.5,-56.5 169.5,-56.5"/>
<text text-anchor="middle" x="187" y="-63.5" font-family="Helvetica,sans-Serif" font-size="10.00">map</text>
</g>
<!-- Node2&#45;&gt;Node5 -->
<g id="edge4" class="edge"><title>Node2&#45;&gt;Node5</title>
<path fill="none" stroke="midnightblue" d="M271.773,-112.324C255.649,-103.703 230.7,-90.3643 212.036,-80.3855"/>
<polygon fill="midnightblue" stroke="midnightblue" points="213.656,-77.283 203.187,-75.6545 210.356,-83.456 213.656,-77.283"/>
</g>
<!-- Node6 -->
<g id="node6" class="node"><title>Node6</title>
<polygon fill="white" stroke="#bfbfbf" points="303,-56.5 303,-75.5 359,-75.5 359,-56.5 303,-56.5"/>
<text text-anchor="middle" x="331" y="-63.5" font-family="Helvetica,sans-Serif" font-size="10.00">glibmm.h</text>
</g>
<!-- Node2&#45;&gt;Node6 -->
<g id="edge5" class="edge"><title>Node2&#45;&gt;Node6</title>
<path fill="none" stroke="midnightblue" d="M295.101,-112.083C301.237,-104.377 310.27,-93.0333 317.739,-83.6531"/>
<polygon fill="midnightblue" stroke="midnightblue" points="320.54,-85.7542 324.032,-75.7511 315.064,-81.3936 320.54,-85.7542"/>
</g>
<!-- Node7 -->
<g id="node7" class="node"><title>Node7</title>
<polygon fill="white" stroke="#bfbfbf" points="223,-56.5 223,-75.5 285,-75.5 285,-56.5 223,-56.5"/>
<text text-anchor="middle" x="254" y="-63.5" font-family="Helvetica,sans-Serif" font-size="10.00">sys/wait.h</text>
</g>
<!-- Node2&#45;&gt;Node7 -->
<g id="edge6" class="edge"><title>Node2&#45;&gt;Node7</title>
<path fill="none" stroke="midnightblue" d="M282.386,-112.083C277.633,-104.534 270.682,-93.4948 264.848,-84.2298"/>
<polygon fill="midnightblue" stroke="midnightblue" points="267.8,-82.3486 259.51,-75.7511 261.876,-86.0783 267.8,-82.3486"/>
</g>
<!-- Node4 -->
<g id="node4" class="node"><title>Node4</title>
<polygon fill="white" stroke="#bfbfbf" points="402,-0.5 402,-19.5 470,-19.5 470,-0.5 402,-0.5"/>
<text text-anchor="middle" x="436" y="-7.5" font-family="Helvetica,sans-Serif" font-size="10.00">ivi&#45;logging.h</text>
</g>
<!-- Node3&#45;&gt;Node4 -->
<g id="edge3" class="edge"><title>Node3&#45;&gt;Node4</title>
<path fill="none" stroke="midnightblue" d="M436,-56.083C436,-49.0059 436,-38.8611 436,-29.9865"/>
<polygon fill="midnightblue" stroke="midnightblue" points="439.5,-29.751 436,-19.7511 432.5,-29.7511 439.5,-29.751"/>
</g>
<!-- Node8&#45;&gt;Node2 -->
<g id="edge11" class="edge"><title>Node8&#45;&gt;Node2</title>
<path fill="none" stroke="midnightblue" d="M205.745,-168.324C221.319,-159.743 245.377,-146.486 263.459,-136.522"/>
<polygon fill="midnightblue" stroke="midnightblue" points="265.224,-139.546 272.294,-131.655 261.846,-133.415 265.224,-139.546"/>
</g>
<!-- Node8&#45;&gt;Node5 -->
<g id="edge9" class="edge"><title>Node8&#45;&gt;Node5</title>
<path fill="none" stroke="midnightblue" d="M189.765,-168.368C189.28,-150.617 188.164,-109.666 187.507,-85.5974"/>
<polygon fill="midnightblue" stroke="midnightblue" points="191.006,-85.4922 187.234,-75.5914 184.008,-85.6832 191.006,-85.4922"/>
</g>
<!-- Node9 -->
<g id="node9" class="node"><title>Node9</title>
<polygon fill="white" stroke="#bfbfbf" points="109.5,-56.5 109.5,-75.5 150.5,-75.5 150.5,-56.5 109.5,-56.5"/>
<text text-anchor="middle" x="130" y="-63.5" font-family="Helvetica,sans-Serif" font-size="10.00">string</text>
</g>
<!-- Node8&#45;&gt;Node9 -->
<g id="edge8" class="edge"><title>Node8&#45;&gt;Node9</title>
<path fill="none" stroke="midnightblue" d="M185.292,-168.368C175.478,-150.376 152.664,-108.55 139.615,-84.6267"/>
<polygon fill="midnightblue" stroke="midnightblue" points="142.547,-82.6944 134.686,-75.5914 136.402,-86.0464 142.547,-82.6944"/>
</g>
<!-- Node10 -->
<g id="node10" class="node"><title>Node10</title>
<polygon fill="white" stroke="#bfbfbf" points="513.5,-56.5 513.5,-75.5 572.5,-75.5 572.5,-56.5 513.5,-56.5"/>
<text text-anchor="middle" x="543" y="-63.5" font-family="Helvetica,sans-Serif" font-size="10.00">jansson.h</text>
</g>
<!-- Node8&#45;&gt;Node10 -->
<g id="edge10" class="edge"><title>Node8&#45;&gt;Node10</title>
<path fill="none" stroke="midnightblue" d="M234.005,-168.773C270.554,-161.257 323.563,-148.764 368,-132 386.226,-125.124 389.033,-119.526 407,-112 438.87,-98.6493 476.206,-86.5353 503.687,-78.2482"/>
<polygon fill="midnightblue" stroke="midnightblue" points="504.753,-81.5827 513.337,-75.3729 502.754,-74.8741 504.753,-81.5827"/>
</g>
<!-- Node11 -->
<g id="node11" class="node"><title>Node11</title>
<g id="a_node11"><a xlink:href="softwarecontainererror_8h_source.html" target="_top" xlink:title="softwarecontainererror.h">
<polygon fill="white" stroke="black" points="0,-112.5 0,-131.5 122,-131.5 122,-112.5 0,-112.5"/>
<text text-anchor="middle" x="61" y="-119.5" font-family="Helvetica,sans-Serif" font-size="10.00">softwarecontainererror.h</text>
</a>
</g>
</g>
<!-- Node8&#45;&gt;Node11 -->
<g id="edge12" class="edge"><title>Node8&#45;&gt;Node11</title>
<path fill="none" stroke="midnightblue" d="M169.56,-168.444C148.33,-159.557 114.901,-145.563 90.745,-135.451"/>
<polygon fill="midnightblue" stroke="midnightblue" points="91.9207,-132.149 81.3448,-131.516 89.2177,-138.606 91.9207,-132.149"/>
</g>
<!-- Node11&#45;&gt;Node9 -->
<g id="edge14" class="edge"><title>Node11&#45;&gt;Node9</title>
<path fill="none" stroke="midnightblue" d="M72.086,-112.324C82.486,-104.185 98.2606,-91.8395 110.722,-82.0874"/>
<polygon fill="midnightblue" stroke="midnightblue" points="112.994,-84.7533 118.712,-75.8339 108.68,-79.2407 112.994,-84.7533"/>
</g>
<!-- Node12 -->
<g id="node12" class="node"><title>Node12</title>
<polygon fill="white" stroke="#bfbfbf" points="31.5,-56.5 31.5,-75.5 90.5,-75.5 90.5,-56.5 31.5,-56.5"/>
<text text-anchor="middle" x="61" y="-63.5" font-family="Helvetica,sans-Serif" font-size="10.00">exception</text>
</g>
<!-- Node11&#45;&gt;Node12 -->
<g id="edge13" class="edge"><title>Node11&#45;&gt;Node12</title>
<path fill="none" stroke="midnightblue" d="M61,-112.083C61,-105.006 61,-94.8611 61,-85.9865"/>
<polygon fill="midnightblue" stroke="midnightblue" points="64.5001,-85.751 61,-75.7511 57.5001,-85.7511 64.5001,-85.751"/>
</g>
<!-- Node13&#45;&gt;Node11 -->
<g id="edge16" class="edge"><title>Node13&#45;&gt;Node11</title>
<path fill="none" stroke="midnightblue" d="M68.5138,-168.083C67.3212,-160.927 65.6059,-150.635 64.1152,-141.691"/>
<polygon fill="midnightblue" stroke="midnightblue" points="67.555,-141.04 62.4585,-131.751 60.6502,-142.19 67.555,-141.04"/>
</g>
<!-- Node14&#45;&gt;Node2 -->
<g id="edge18" class="edge"><title>Node14&#45;&gt;Node2</title>
<path fill="none" stroke="midnightblue" d="M343.396,-168.324C333.544,-160.263 318.649,-148.077 306.785,-138.369"/>
<polygon fill="midnightblue" stroke="midnightblue" points="308.753,-135.457 298.797,-131.834 304.32,-140.875 308.753,-135.457"/>
</g>
<!-- Node14&#45;&gt;Node15 -->
<g id="edge19" class="edge"><title>Node14&#45;&gt;Node15</title>
<path fill="none" stroke="midnightblue" d="M369.585,-168.324C384.999,-159.743 408.812,-146.486 426.71,-136.522"/>
<polygon fill="midnightblue" stroke="midnightblue" points="428.419,-139.577 435.454,-131.655 425.014,-133.461 428.419,-139.577"/>
</g>
<!-- Node15&#45;&gt;Node3 -->
<g id="edge20" class="edge"><title>Node15&#45;&gt;Node3</title>
<path fill="none" stroke="midnightblue" d="M448.523,-112.083C446.514,-104.849 443.614,-94.4087 441.11,-85.3968"/>
<polygon fill="midnightblue" stroke="midnightblue" points="444.48,-84.4495 438.431,-75.7511 437.735,-86.323 444.48,-84.4495"/>
</g>
<!-- Node15&#45;&gt;Node10 -->
<g id="edge21" class="edge"><title>Node15&#45;&gt;Node10</title>
<path fill="none" stroke="midnightblue" d="M465.781,-112.324C480.267,-103.822 502.573,-90.7288 519.493,-80.7975"/>
<polygon fill="midnightblue" stroke="midnightblue" points="521.403,-83.735 528.255,-75.6545 517.859,-77.6981 521.403,-83.735"/>
</g>
</g>
</svg>
