<?xml version="1.0" encoding="UTF-8" standalone="no"?>
<!DOCTYPE svg PUBLIC "-//W3C//DTD SVG 1.1//EN"
 "http://www.w3.org/Graphics/SVG/1.1/DTD/svg11.dtd">
<!-- Generated by graphviz version 2.38.0 (20140413.2041)
 -->
<!-- Title: agent/src/capability/baseconfigstore.h Pages: 1 -->
<svg width="521pt" height="263pt"
 viewBox="0.00 0.00 521.00 263.00" xmlns="http://www.w3.org/2000/svg" xmlns:xlink="http://www.w3.org/1999/xlink">
<g id="graph0" class="graph" transform="scale(1 1) rotate(0) translate(4 259)">
<title>agent/src/capability/baseconfigstore.h</title>
<polygon fill="white" stroke="none" points="-4,4 -4,-259 517,-259 517,4 -4,4"/>
<!-- Node1 -->
<g id="node1" class="node"><title>Node1</title>
<polygon fill="#bfbfbf" stroke="black" points="222.5,-224.5 222.5,-254.5 323.5,-254.5 323.5,-224.5 222.5,-224.5"/>
<text text-anchor="start" x="230.5" y="-242.5" font-family="Helvetica,sans-Serif" font-size="10.00">agent/src/capability</text>
<text text-anchor="middle" x="273" y="-231.5" font-family="Helvetica,sans-Serif" font-size="10.00">/baseconfigstore.h</text>
</g>
<!-- Node2 -->
<g id="node2" class="node"><title>Node2</title>
<g id="a_node2"><a xlink:href="softwarecontainer-common_8h_source.html" target="_top" xlink:title="softwarecontainer&#45;common.h">
<polygon fill="white" stroke="black" points="153.5,-112.5 153.5,-131.5 296.5,-131.5 296.5,-112.5 153.5,-112.5"/>
<text text-anchor="middle" x="225" y="-119.5" font-family="Helvetica,sans-Serif" font-size="10.00">softwarecontainer&#45;common.h</text>
</a>
</g>
</g>
<!-- Node1&#45;&gt;Node2 -->
<g id="edge1" class="edge"><title>Node1&#45;&gt;Node2</title>
<path fill="none" stroke="midnightblue" d="M267.114,-224.337C258.387,-203.338 242.02,-163.955 232.463,-140.958"/>
<polygon fill="midnightblue" stroke="midnightblue" points="235.673,-139.561 228.603,-131.669 229.209,-142.247 235.673,-139.561"/>
</g>
<!-- Node8 -->
<g id="node8" class="node"><title>Node8</title>
<g id="a_node8"><a xlink:href="gatewayconfig_8h_source.html" target="_top" xlink:title="gatewayconfig.h">
<polygon fill="white" stroke="black" points="271,-168.5 271,-187.5 359,-187.5 359,-168.5 271,-168.5"/>
<text text-anchor="middle" x="315" y="-175.5" font-family="Helvetica,sans-Serif" font-size="10.00">gatewayconfig.h</text>
</a>
</g>
</g>
<!-- Node1&#45;&gt;Node8 -->
<g id="edge7" class="edge"><title>Node1&#45;&gt;Node8</title>
<path fill="none" stroke="midnightblue" d="M282.953,-224.399C288.994,-215.842 296.738,-204.871 303.101,-195.857"/>
<polygon fill="midnightblue" stroke="midnightblue" points="305.981,-197.846 308.889,-187.658 300.262,-193.809 305.981,-197.846"/>
</g>
<!-- Node13 -->
<g id="node13" class="node"><title>Node13</title>
<g id="a_node13"><a xlink:href="configstoreerror_8h_source.html" target="_top" xlink:title="configstoreerror.h">
<polygon fill="white" stroke="black" points="400,-168.5 400,-187.5 492,-187.5 492,-168.5 400,-168.5"/>
<text text-anchor="middle" x="446" y="-175.5" font-family="Helvetica,sans-Serif" font-size="10.00">configstoreerror.h</text>
</a>
</g>
</g>
<!-- Node1&#45;&gt;Node13 -->
<g id="edge15" class="edge"><title>Node1&#45;&gt;Node13</title>
<path fill="none" stroke="midnightblue" d="M313.999,-224.399C343.632,-214.207 383.226,-200.59 411.298,-190.935"/>
<polygon fill="midnightblue" stroke="midnightblue" points="412.761,-194.133 421.08,-187.571 410.485,-187.514 412.761,-194.133"/>
</g>
<!-- Node14 -->
<g id="node14" class="node"><title>Node14</title>
<g id="a_node14"><a xlink:href="jsonparser_8h_source.html" target="_top" xlink:title="jsonparser.h">
<polygon fill="white" stroke="black" points="71,-168.5 71,-187.5 141,-187.5 141,-168.5 71,-168.5"/>
<text text-anchor="middle" x="106" y="-175.5" font-family="Helvetica,sans-Serif" font-size="10.00">jsonparser.h</text>
</a>
</g>
</g>
<!-- Node1&#45;&gt;Node14 -->
<g id="edge17" class="edge"><title>Node1&#45;&gt;Node14</title>
<path fill="none" stroke="midnightblue" d="M233.423,-224.399C204.903,-214.238 166.826,-200.672 139.743,-191.022"/>
<polygon fill="midnightblue" stroke="midnightblue" points="140.895,-187.717 130.3,-187.658 138.545,-194.311 140.895,-187.717"/>
</g>
<!-- Node3 -->
<g id="node3" class="node"><title>Node3</title>
<g id="a_node3"><a xlink:href="softwarecontainer-log_8h_source.html" target="_top" xlink:title="softwarecontainer&#45;log.h">
<polygon fill="white" stroke="black" points="0,-56.5 0,-75.5 118,-75.5 118,-56.5 0,-56.5"/>
<text text-anchor="middle" x="59" y="-63.5" font-family="Helvetica,sans-Serif" font-size="10.00">softwarecontainer&#45;log.h</text>
</a>
</g>
</g>
<!-- Node2&#45;&gt;Node3 -->
<g id="edge2" class="edge"><title>Node2&#45;&gt;Node3</title>
<path fill="none" stroke="midnightblue" d="M198.697,-112.444C170.649,-103.32 126.056,-88.8133 94.8158,-78.6509"/>
<polygon fill="midnightblue" stroke="midnightblue" points="95.7724,-75.2816 85.1801,-75.5164 93.6069,-81.9383 95.7724,-75.2816"/>
</g>
<!-- Node5 -->
<g id="node5" class="node"><title>Node5</title>
<polygon fill="white" stroke="#bfbfbf" points="297.5,-56.5 297.5,-75.5 332.5,-75.5 332.5,-56.5 297.5,-56.5"/>
<text text-anchor="middle" x="315" y="-63.5" font-family="Helvetica,sans-Serif" font-size="10.00">map</text>
</g>
<!-- Node2&#45;&gt;Node5 -->
<g id="edge4" class="edge"><title>Node2&#45;&gt;Node5</title>
<path fill="none" stroke="midnightblue" d="M239.46,-112.324C253.5,-103.9 275.048,-90.9709 291.543,-81.0741"/>
<polygon fill="midnightblue" stroke="midnightblue" points="293.802,-83.8007 300.576,-75.6545 290.2,-77.7983 293.802,-83.8007"/>
</g>
<!-- Node6 -->
<g id="node6" class="node"><title>Node6</title>
<polygon fill="white" stroke="#bfbfbf" points="141,-56.5 141,-75.5 197,-75.5 197,-56.5 141,-56.5"/>
<text text-anchor="middle" x="169" y="-63.5" font-family="Helvetica,sans-Serif" font-size="10.00">glibmm.h</text>
</g>
<!-- Node2&#45;&gt;Node6 -->
<g id="edge5" class="edge"><title>Node2&#45;&gt;Node6</title>
<path fill="none" stroke="midnightblue" d="M216.003,-112.324C207.806,-104.42 195.494,-92.5482 185.528,-82.9377"/>
<polygon fill="midnightblue" stroke="midnightblue" points="187.789,-80.2558 178.161,-75.8339 182.93,-85.2947 187.789,-80.2558"/>
</g>
<!-- Node7 -->
<g id="node7" class="node"><title>Node7</title>
<polygon fill="white" stroke="#bfbfbf" points="215,-56.5 215,-75.5 277,-75.5 277,-56.5 215,-56.5"/>
<text text-anchor="middle" x="246" y="-63.5" font-family="Helvetica,sans-Serif" font-size="10.00">sys/wait.h</text>
</g>
<!-- Node2&#45;&gt;Node7 -->
<g id="edge6" class="edge"><title>Node2&#45;&gt;Node7</title>
<path fill="none" stroke="midnightblue" d="M228.468,-112.083C231.312,-104.77 235.429,-94.1814 238.96,-85.1034"/>
<polygon fill="midnightblue" stroke="midnightblue" points="242.234,-86.3397 242.597,-75.7511 235.71,-83.8025 242.234,-86.3397"/>
</g>
<!-- Node4 -->
<g id="node4" class="node"><title>Node4</title>
<polygon fill="white" stroke="#bfbfbf" points="25,-0.5 25,-19.5 93,-19.5 93,-0.5 25,-0.5"/>
<text text-anchor="middle" x="59" y="-7.5" font-family="Helvetica,sans-Serif" font-size="10.00">ivi&#45;logging.h</text>
</g>
<!-- Node3&#45;&gt;Node4 -->
<g id="edge3" class="edge"><title>Node3&#45;&gt;Node4</title>
<path fill="none" stroke="midnightblue" d="M59,-56.083C59,-49.0059 59,-38.8611 59,-29.9865"/>
<polygon fill="midnightblue" stroke="midnightblue" points="62.5001,-29.751 59,-19.7511 55.5001,-29.7511 62.5001,-29.751"/>
</g>
<!-- Node8&#45;&gt;Node2 -->
<g id="edge11" class="edge"><title>Node8&#45;&gt;Node2</title>
<path fill="none" stroke="midnightblue" d="M300.54,-168.324C286.5,-159.9 264.952,-146.971 248.457,-137.074"/>
<polygon fill="midnightblue" stroke="midnightblue" points="249.8,-133.798 239.424,-131.655 246.198,-139.801 249.8,-133.798"/>
</g>
<!-- Node8&#45;&gt;Node5 -->
<g id="edge9" class="edge"><title>Node8&#45;&gt;Node5</title>
<path fill="none" stroke="midnightblue" d="M315,-168.368C315,-150.617 315,-109.666 315,-85.5974"/>
<polygon fill="midnightblue" stroke="midnightblue" points="318.5,-85.5914 315,-75.5914 311.5,-85.5915 318.5,-85.5914"/>
</g>
<!-- Node9 -->
<g id="node9" class="node"><title>Node9</title>
<polygon fill="white" stroke="#bfbfbf" points="351.5,-56.5 351.5,-75.5 392.5,-75.5 392.5,-56.5 351.5,-56.5"/>
<text text-anchor="middle" x="372" y="-63.5" font-family="Helvetica,sans-Serif" font-size="10.00">string</text>
</g>
<!-- Node8&#45;&gt;Node9 -->
<g id="edge8" class="edge"><title>Node8&#45;&gt;Node9</title>
<path fill="none" stroke="midnightblue" d="M319.473,-168.368C328.796,-150.376 350.469,-108.55 362.866,-84.6267"/>
<polygon fill="midnightblue" stroke="midnightblue" points="366.055,-86.0805 367.548,-75.5914 359.84,-82.8599 366.055,-86.0805"/>
</g>
<!-- Node10 -->
<g id="node10" class="node"><title>Node10</title>
<polygon fill="white" stroke="#bfbfbf" points="76.5,-112.5 76.5,-131.5 135.5,-131.5 135.5,-112.5 76.5,-112.5"/>
<text text-anchor="middle" x="106" y="-119.5" font-family="Helvetica,sans-Serif" font-size="10.00">jansson.h</text>
</g>
<!-- Node8&#45;&gt;Node10 -->
<g id="edge10" class="edge"><title>Node8&#45;&gt;Node10</title>
<path fill="none" stroke="midnightblue" d="M281.883,-168.444C244.824,-158.868 184.82,-143.365 145.385,-133.176"/>
<polygon fill="midnightblue" stroke="midnightblue" points="146.14,-129.756 135.583,-130.643 144.389,-136.534 146.14,-129.756"/>
</g>
<!-- Node11 -->
<g id="node11" class="node"><title>Node11</title>
<g id="a_node11"><a xlink:href="softwarecontainererror_8h_source.html" target="_top" xlink:title="softwarecontainererror.h">
<polygon fill="white" stroke="black" points="391,-112.5 391,-131.5 513,-131.5 513,-112.5 391,-112.5"/>
<text text-anchor="middle" x="452" y="-119.5" font-family="Helvetica,sans-Serif" font-size="10.00">softwarecontainererror.h</text>
</a>
</g>
</g>
<!-- Node8&#45;&gt;Node11 -->
<g id="edge12" class="edge"><title>Node8&#45;&gt;Node11</title>
<path fill="none" stroke="midnightblue" d="M336.708,-168.444C359.355,-159.517 395.072,-145.439 420.752,-135.317"/>
<polygon fill="midnightblue" stroke="midnightblue" points="422.374,-138.44 430.394,-131.516 419.807,-131.927 422.374,-138.44"/>
</g>
<!-- Node11&#45;&gt;Node9 -->
<g id="edge14" class="edge"><title>Node11&#45;&gt;Node9</title>
<path fill="none" stroke="midnightblue" d="M439.147,-112.324C426.784,-103.979 407.87,-91.2122 393.263,-81.3524"/>
<polygon fill="midnightblue" stroke="midnightblue" points="395.068,-78.3483 384.821,-75.6545 391.152,-84.1503 395.068,-78.3483"/>
</g>
<!-- Node12 -->
<g id="node12" class="node"><title>Node12</title>
<polygon fill="white" stroke="#bfbfbf" points="422.5,-56.5 422.5,-75.5 481.5,-75.5 481.5,-56.5 422.5,-56.5"/>
<text text-anchor="middle" x="452" y="-63.5" font-family="Helvetica,sans-Serif" font-size="10.00">exception</text>
</g>
<!-- Node11&#45;&gt;Node12 -->
<g id="edge13" class="edge"><title>Node11&#45;&gt;Node12</title>
<path fill="none" stroke="midnightblue" d="M452,-112.083C452,-105.006 452,-94.8611 452,-85.9865"/>
<polygon fill="midnightblue" stroke="midnightblue" points="455.5,-85.751 452,-75.7511 448.5,-85.7511 455.5,-85.751"/>
</g>
<!-- Node13&#45;&gt;Node11 -->
<g id="edge16" class="edge"><title>Node13&#45;&gt;Node11</title>
<path fill="none" stroke="midnightblue" d="M446.991,-168.083C447.786,-160.927 448.929,-150.635 449.923,-141.691"/>
<polygon fill="midnightblue" stroke="midnightblue" points="453.402,-142.076 451.028,-131.751 446.445,-141.303 453.402,-142.076"/>
</g>
<!-- Node14&#45;&gt;Node3 -->
<g id="edge18" class="edge"><title>Node14&#45;&gt;Node3</title>
<path fill="none" stroke="midnightblue" d="M95.4396,-168.19C86.2665,-159.878 73.4668,-146.548 67,-132 60.5705,-117.536 58.7681,-99.58 58.4616,-86.2082"/>
<polygon fill="midnightblue" stroke="midnightblue" points="61.9628,-85.8526 58.4986,-75.8401 54.9628,-85.8275 61.9628,-85.8526"/>
</g>
<!-- Node14&#45;&gt;Node10 -->
<g id="edge19" class="edge"><title>Node14&#45;&gt;Node10</title>
<path fill="none" stroke="midnightblue" d="M106,-168.083C106,-161.006 106,-150.861 106,-141.986"/>
<polygon fill="midnightblue" stroke="midnightblue" points="109.5,-141.751 106,-131.751 102.5,-141.751 109.5,-141.751"/>
</g>
</g>
</svg>
