<?xml version="1.0" encoding="UTF-8" standalone="no"?>
<!DOCTYPE svg PUBLIC "-//W3C//DTD SVG 1.1//EN"
 "http://www.w3.org/Graphics/SVG/1.1/DTD/svg11.dtd">
<!-- Generated by graphviz version 2.38.0 (20140413.2041)
 -->
<!-- Title: softwarecontainer::Gateway::hasContainer Pages: 1 -->
<svg width="642pt" height="168pt"
 viewBox="0.00 0.00 642.00 167.50" xmlns="http://www.w3.org/2000/svg" xmlns:xlink="http://www.w3.org/1999/xlink">
<g id="graph0" class="graph" transform="scale(1 1) rotate(0) translate(4 163.5)">
<title>softwarecontainer::Gateway::hasContainer</title>
<polygon fill="white" stroke="none" points="-4,4 -4,-163.5 638,-163.5 638,4 -4,4"/>
<!-- Node1 -->
<g id="node1" class="node"><title>Node1</title>
<polygon fill="#bfbfbf" stroke="black" points="0,-63 0,-93 119,-93 119,-63 0,-63"/>
<text text-anchor="start" x="8" y="-81" font-family="Helvetica,sans-Serif" font-size="10.00">softwarecontainer::</text>
<text text-anchor="middle" x="59.5" y="-70" font-family="Helvetica,sans-Serif" font-size="10.00">Gateway::hasContainer</text>
</g>
<!-- Node2 -->
<g id="node2" class="node"><title>Node2</title>
<g id="a_node2"><a xlink:href="classsoftwarecontainer_1_1_gateway.html#aa62fd6a17abb2762b8d62cc85c7750c7" target="_top" xlink:title="Applies any configuration set by setConfig() ">
<polygon fill="white" stroke="black" points="163.5,-129 163.5,-159 263.5,-159 263.5,-129 163.5,-129"/>
<text text-anchor="start" x="171.5" y="-147" font-family="Helvetica,sans-Serif" font-size="10.00">softwarecontainer::</text>
<text text-anchor="middle" x="213.5" y="-136" font-family="Helvetica,sans-Serif" font-size="10.00">Gateway::activate</text>
</a>
</g>
</g>
<!-- Node1&#45;&gt;Node2 -->
<g id="edge1" class="edge"><title>Node1&#45;&gt;Node2</title>
<path fill="none" stroke="midnightblue" d="M104.687,-97.1864C127.964,-107.293 156.099,-119.51 177.79,-128.929"/>
<polygon fill="midnightblue" stroke="midnightblue" points="105.939,-93.9142 95.3719,-93.1417 103.15,-100.335 105.939,-93.9142"/>
</g>
<!-- Node4 -->
<g id="node4" class="node"><title>Node4</title>
<g id="a_node4"><a xlink:href="classsoftwarecontainer_1_1_network_gateway.html#a8a08792ecd43b1694222ca286514ee21" target="_top" xlink:title="Implements Gateway::activateGateway. ">
<polygon fill="white" stroke="black" points="308,-72 308,-102 480,-102 480,-72 308,-72"/>
<text text-anchor="start" x="316" y="-90" font-family="Helvetica,sans-Serif" font-size="10.00">softwarecontainer::</text>
<text text-anchor="middle" x="394" y="-79" font-family="Helvetica,sans-Serif" font-size="10.00">NetworkGateway::activateGateway</text>
</a>
</g>
</g>
<!-- Node1&#45;&gt;Node4 -->
<g id="edge3" class="edge"><title>Node1&#45;&gt;Node4</title>
<path fill="none" stroke="midnightblue" d="M129.265,-79.8613C181.051,-81.263 252.348,-83.1929 307.757,-84.6927"/>
<polygon fill="midnightblue" stroke="midnightblue" points="129.27,-76.3603 119.179,-79.5883 129.081,-83.3577 129.27,-76.3603"/>
</g>
<!-- Node5 -->
<g id="node5" class="node"><title>Node5</title>
<g id="a_node5"><a xlink:href="classsoftwarecontainer_1_1_gateway.html#a6f0a60c9f29ea869916f7524085b3e5f" target="_top" xlink:title="Get a handle to the associated container. ">
<polygon fill="white" stroke="black" points="155,-41 155,-71 272,-71 272,-41 155,-41"/>
<text text-anchor="start" x="163" y="-59" font-family="Helvetica,sans-Serif" font-size="10.00">softwarecontainer::</text>
<text text-anchor="middle" x="213.5" y="-48" font-family="Helvetica,sans-Serif" font-size="10.00">Gateway::getContainer</text>
</a>
</g>
</g>
<!-- Node1&#45;&gt;Node5 -->
<g id="edge4" class="edge"><title>Node1&#45;&gt;Node5</title>
<path fill="none" stroke="midnightblue" d="M129.245,-68.05C137.816,-66.8095 146.512,-65.5509 154.89,-64.3383"/>
<polygon fill="midnightblue" stroke="midnightblue" points="128.663,-64.5978 119.267,-69.4942 129.665,-71.5256 128.663,-64.5978"/>
</g>
<!-- Node6 -->
<g id="node6" class="node"><title>Node6</title>
<g id="a_node6"><a xlink:href="classsoftwarecontainer_1_1_gateway.html#a20f57ddde85b938d67104625e774a714" target="_top" xlink:title="Set an environment variable in the associated container. ">
<polygon fill="white" stroke="black" points="311.5,-6 311.5,-36 476.5,-36 476.5,-6 311.5,-6"/>
<text text-anchor="start" x="319.5" y="-24" font-family="Helvetica,sans-Serif" font-size="10.00">softwarecontainer::</text>
<text text-anchor="middle" x="394" y="-13" font-family="Helvetica,sans-Serif" font-size="10.00">Gateway::setEnvironmentVariable</text>
</a>
</g>
</g>
<!-- Node1&#45;&gt;Node6 -->
<g id="edge8" class="edge"><title>Node1&#45;&gt;Node6</title>
<path fill="none" stroke="midnightblue" d="M92.6377,-57.7859C110.329,-47.7695 133.088,-36.6361 155,-31 205.866,-17.9163 264.838,-15.353 311.354,-16.0919"/>
<polygon fill="midnightblue" stroke="midnightblue" points="90.7591,-54.8297 83.8795,-62.8871 94.2822,-60.8785 90.7591,-54.8297"/>
</g>
<!-- Node3 -->
<g id="node3" class="node"><title>Node3</title>
<g id="a_node3"><a xlink:href="classsoftwarecontainer_1_1_d_bus_gateway.html#a7ba4cdcf870915d57f9f36ed68f7c33a" target="_top" xlink:title="Activates both dbus session instances. ">
<polygon fill="white" stroke="black" points="333.5,-129 333.5,-159 454.5,-159 454.5,-129 333.5,-129"/>
<text text-anchor="start" x="341.5" y="-147" font-family="Helvetica,sans-Serif" font-size="10.00">softwarecontainer::</text>
<text text-anchor="middle" x="394" y="-136" font-family="Helvetica,sans-Serif" font-size="10.00">DBusGateway::activate</text>
</a>
</g>
</g>
<!-- Node2&#45;&gt;Node3 -->
<g id="edge2" class="edge"><title>Node2&#45;&gt;Node3</title>
<path fill="none" stroke="midnightblue" d="M273.855,-144C293.018,-144 314.259,-144 333.437,-144"/>
<polygon fill="midnightblue" stroke="midnightblue" points="273.748,-140.5 263.748,-144 273.748,-147.5 273.748,-140.5"/>
</g>
<!-- Node5&#45;&gt;Node4 -->
<g id="edge5" class="edge"><title>Node5&#45;&gt;Node4</title>
<path fill="none" stroke="midnightblue" d="M282.424,-67.7963C290.721,-69.2373 299.279,-70.7236 307.788,-72.2013"/>
<polygon fill="midnightblue" stroke="midnightblue" points="282.905,-64.3276 272.454,-66.0648 281.707,-71.2244 282.905,-64.3276"/>
</g>
<!-- Node5&#45;&gt;Node6 -->
<g id="edge6" class="edge"><title>Node5&#45;&gt;Node6</title>
<path fill="none" stroke="midnightblue" d="M282.505,-42.6656C293.616,-40.487 305.194,-38.2169 316.493,-36.0014"/>
<polygon fill="midnightblue" stroke="midnightblue" points="281.593,-39.2777 272.454,-44.6365 282.94,-46.1469 281.593,-39.2777"/>
</g>
<!-- Node7 -->
<g id="node7" class="node"><title>Node7</title>
<g id="a_node7"><a xlink:href="classsoftwarecontainer_1_1_d_bus_gateway_instance.html#a8dc149286b57b259c95d53c130b9a129" target="_top" xlink:title="Implements Gateway::activateGateway. ">
<polygon fill="white" stroke="black" points="516,-0.5 516,-41.5 634,-41.5 634,-0.5 516,-0.5"/>
<text text-anchor="start" x="524" y="-29.5" font-family="Helvetica,sans-Serif" font-size="10.00">softwarecontainer::</text>
<text text-anchor="start" x="524" y="-18.5" font-family="Helvetica,sans-Serif" font-size="10.00">DBusGatewayInstance</text>
<text text-anchor="middle" x="575" y="-7.5" font-family="Helvetica,sans-Serif" font-size="10.00">::activateGateway</text>
</a>
</g>
</g>
<!-- Node6&#45;&gt;Node7 -->
<g id="edge7" class="edge"><title>Node6&#45;&gt;Node7</title>
<path fill="none" stroke="midnightblue" d="M486.938,-21C496.824,-21 506.669,-21 515.992,-21"/>
<polygon fill="midnightblue" stroke="midnightblue" points="486.643,-17.5001 476.643,-21 486.643,-24.5001 486.643,-17.5001"/>
</g>
</g>
</svg>
