<?xml version="1.0" encoding="UTF-8" standalone="no"?>
<!DOCTYPE svg PUBLIC "-//W3C//DTD SVG 1.1//EN"
 "http://www.w3.org/Graphics/SVG/1.1/DTD/svg11.dtd">
<!-- Generated by graphviz version 2.38.0 (20140413.2041)
 -->
<!-- Title: softwarecontainer::DBusGatewayInstance::activateGateway Pages: 1 -->
<svg width="635pt" height="67pt"
 viewBox="0.00 0.00 635.00 66.50" xmlns="http://www.w3.org/2000/svg" xmlns:xlink="http://www.w3.org/1999/xlink">
<g id="graph0" class="graph" transform="scale(1 1) rotate(0) translate(4 62.5)">
<title>softwarecontainer::DBusGatewayInstance::activateGateway</title>
<polygon fill="white" stroke="none" points="-4,4 -4,-62.5 631,-62.5 631,4 -4,4"/>
<!-- Node1 -->
<g id="node1" class="node"><title>Node1</title>
<polygon fill="#bfbfbf" stroke="black" points="0,-0.5 0,-41.5 118,-41.5 118,-0.5 0,-0.5"/>
<text text-anchor="start" x="8" y="-29.5" font-family="Helvetica,sans-Serif" font-size="10.00">softwarecontainer::</text>
<text text-anchor="start" x="8" y="-18.5" font-family="Helvetica,sans-Serif" font-size="10.00">DBusGatewayInstance</text>
<text text-anchor="middle" x="59" y="-7.5" font-family="Helvetica,sans-Serif" font-size="10.00">::activateGateway</text>
</g>
<!-- Node2 -->
<g id="node2" class="node"><title>Node2</title>
<g id="a_node2"><a xlink:href="classsoftwarecontainer_1_1_gateway.html#a20f57ddde85b938d67104625e774a714" target="_top" xlink:title="Set an environment variable in the associated container. ">
<polygon fill="white" stroke="black" points="154,-6 154,-36 319,-36 319,-6 154,-6"/>
<text text-anchor="start" x="162" y="-24" font-family="Helvetica,sans-Serif" font-size="10.00">softwarecontainer::</text>
<text text-anchor="middle" x="236.5" y="-13" font-family="Helvetica,sans-Serif" font-size="10.00">Gateway::setEnvironmentVariable</text>
</a>
</g>
</g>
<!-- Node1&#45;&gt;Node2 -->
<g id="edge1" class="edge"><title>Node1&#45;&gt;Node2</title>
<path fill="none" stroke="midnightblue" d="M118.439,-21C126.609,-21 135.162,-21 143.767,-21"/>
<polygon fill="midnightblue" stroke="midnightblue" points="143.871,-24.5001 153.871,-21 143.871,-17.5001 143.871,-24.5001"/>
</g>
<!-- Node3 -->
<g id="node3" class="node"><title>Node3</title>
<g id="a_node3"><a xlink:href="classsoftwarecontainer_1_1_gateway.html#a6f0a60c9f29ea869916f7524085b3e5f" target="_top" xlink:title="Get a handle to the associated container. ">
<polygon fill="white" stroke="black" points="355,-28 355,-58 472,-58 472,-28 355,-28"/>
<text text-anchor="start" x="363" y="-46" font-family="Helvetica,sans-Serif" font-size="10.00">softwarecontainer::</text>
<text text-anchor="middle" x="413.5" y="-35" font-family="Helvetica,sans-Serif" font-size="10.00">Gateway::getContainer</text>
</a>
</g>
</g>
<!-- Node2&#45;&gt;Node3 -->
<g id="edge2" class="edge"><title>Node2&#45;&gt;Node3</title>
<path fill="none" stroke="midnightblue" d="M319.108,-31.2593C327.724,-32.3424 336.416,-33.4351 344.848,-34.4952"/>
<polygon fill="midnightblue" stroke="midnightblue" points="344.624,-37.9945 354.983,-35.7692 345.497,-31.0492 344.624,-37.9945"/>
</g>
<!-- Node4 -->
<g id="node4" class="node"><title>Node4</title>
<g id="a_node4"><a xlink:href="classsoftwarecontainer_1_1_gateway.html#a5e1b860ea7c1ed7b69d2e5dd7021a527" target="_top" xlink:title="Check if the gateway has an associated container. ">
<polygon fill="white" stroke="black" points="508,-6 508,-36 627,-36 627,-6 508,-6"/>
<text text-anchor="start" x="516" y="-24" font-family="Helvetica,sans-Serif" font-size="10.00">softwarecontainer::</text>
<text text-anchor="middle" x="567.5" y="-13" font-family="Helvetica,sans-Serif" font-size="10.00">Gateway::hasContainer</text>
</a>
</g>
</g>
<!-- Node2&#45;&gt;Node4 -->
<g id="edge4" class="edge"><title>Node2&#45;&gt;Node4</title>
<path fill="none" stroke="midnightblue" d="M319.038,-19.4327C331.096,-19.253 343.371,-19.099 355,-19 406.998,-18.5575 420.003,-18.4498 472,-19 480.315,-19.088 489.04,-19.2195 497.688,-19.3738"/>
<polygon fill="midnightblue" stroke="midnightblue" points="497.711,-22.8748 507.775,-19.5643 497.843,-15.876 497.711,-22.8748"/>
</g>
<!-- Node3&#45;&gt;Node4 -->
<g id="edge3" class="edge"><title>Node3&#45;&gt;Node4</title>
<path fill="none" stroke="midnightblue" d="M472.398,-34.62C480.72,-33.4156 489.349,-32.1666 497.854,-30.9357"/>
<polygon fill="midnightblue" stroke="midnightblue" points="498.359,-34.399 507.755,-29.5026 497.357,-27.4712 498.359,-34.399"/>
</g>
</g>
</svg>
