<?xml version="1.0" encoding="UTF-8" standalone="no"?>
<!DOCTYPE svg PUBLIC "-//W3C//DTD SVG 1.1//EN"
 "http://www.w3.org/Graphics/SVG/1.1/DTD/svg11.dtd">
<!-- Generated by graphviz version 2.38.0 (20140413.2041)
 -->
<!-- Title: softwarecontainer::ObservableProperty&lt; Type &gt; Pages: 1 -->
<svg width="695pt" height="170pt"
 viewBox="0.00 0.00 695.00 170.00" xmlns="http://www.w3.org/2000/svg" xmlns:xlink="http://www.w3.org/1999/xlink">
<g id="graph0" class="graph" transform="scale(1 1) rotate(0) translate(4 166)">
<title>softwarecontainer::ObservableProperty&lt; Type &gt;</title>
<polygon fill="white" stroke="none" points="-4,4 -4,-166 691,-166 691,4 -4,4"/>
<!-- Node1 -->
<g id="node1" class="node"><title>Node1</title>
<polygon fill="#bfbfbf" stroke="black" points="0,-60.5 0,-101.5 119,-101.5 119,-60.5 0,-60.5"/>
<text text-anchor="start" x="8" y="-89.5" font-family="Helvetica,sans-Serif" font-size="10.00">softwarecontainer::</text>
<text text-anchor="start" x="8" y="-78.5" font-family="Helvetica,sans-Serif" font-size="10.00">ObservableProperty&lt;</text>
<text text-anchor="middle" x="59.5" y="-67.5" font-family="Helvetica,sans-Serif" font-size="10.00"> Type &gt;</text>
</g>
<!-- Node2 -->
<g id="node2" class="node"><title>Node2</title>
<g id="a_node2"><a xlink:href="classsoftwarecontainer_1_1_observable_writable_property.html" target="_top" xlink:title="softwarecontainer::\lObservableWritableProperty\l\&lt; Type \&gt;">
<polygon fill="white" stroke="black" points="254,-60.5 254,-101.5 403,-101.5 403,-60.5 254,-60.5"/>
<text text-anchor="start" x="262" y="-89.5" font-family="Helvetica,sans-Serif" font-size="10.00">softwarecontainer::</text>
<text text-anchor="start" x="262" y="-78.5" font-family="Helvetica,sans-Serif" font-size="10.00">ObservableWritableProperty</text>
<text text-anchor="middle" x="328.5" y="-67.5" font-family="Helvetica,sans-Serif" font-size="10.00">&lt; Type &gt;</text>
</a>
</g>
</g>
<!-- Node1&#45;&gt;Node2 -->
<g id="edge1" class="edge"><title>Node1&#45;&gt;Node2</title>
<path fill="none" stroke="midnightblue" d="M129.578,-81C167.666,-81 214.957,-81 253.76,-81"/>
<polygon fill="midnightblue" stroke="midnightblue" points="129.094,-77.5001 119.094,-81 129.094,-84.5001 129.094,-77.5001"/>
</g>
<!-- Node5 -->
<g id="node5" class="node"><title>Node5</title>
<g id="a_node5"><a xlink:href="classsoftwarecontainer_1_1_observable_property.html" target="_top" xlink:title="softwarecontainer::\lObservableProperty\&lt;\l ContainerState \&gt;">
<polygon fill="white" stroke="black" points="269,-120.5 269,-161.5 388,-161.5 388,-120.5 269,-120.5"/>
<text text-anchor="start" x="277" y="-149.5" font-family="Helvetica,sans-Serif" font-size="10.00">softwarecontainer::</text>
<text text-anchor="start" x="277" y="-138.5" font-family="Helvetica,sans-Serif" font-size="10.00">ObservableProperty&lt;</text>
<text text-anchor="middle" x="328.5" y="-127.5" font-family="Helvetica,sans-Serif" font-size="10.00"> ContainerState &gt;</text>
</a>
</g>
</g>
<!-- Node1&#45;&gt;Node5 -->
<g id="edge4" class="edge"><title>Node1&#45;&gt;Node5</title>
<path fill="none" stroke="orange" stroke-dasharray="5,2" d="M128.956,-96.3833C172.143,-106.088 227.35,-118.494 268.582,-127.76"/>
<polygon fill="orange" stroke="orange" points="129.618,-92.945 119.094,-94.1673 128.084,-99.7747 129.618,-92.945"/>
<text text-anchor="middle" x="186.5" y="-122" font-family="Helvetica,sans-Serif" font-size="10.00"> &lt; ContainerState &gt;</text>
</g>
<!-- Node6 -->
<g id="node6" class="node"><title>Node6</title>
<g id="a_node6"><a xlink:href="classsoftwarecontainer_1_1_observable_property.html" target="_top" xlink:title="softwarecontainer::\lObservableProperty\&lt;\l ProcessState \&gt;">
<polygon fill="white" stroke="black" points="269,-0.5 269,-41.5 388,-41.5 388,-0.5 269,-0.5"/>
<text text-anchor="start" x="277" y="-29.5" font-family="Helvetica,sans-Serif" font-size="10.00">softwarecontainer::</text>
<text text-anchor="start" x="277" y="-18.5" font-family="Helvetica,sans-Serif" font-size="10.00">ObservableProperty&lt;</text>
<text text-anchor="middle" x="328.5" y="-7.5" font-family="Helvetica,sans-Serif" font-size="10.00"> ProcessState &gt;</text>
</a>
</g>
</g>
<!-- Node1&#45;&gt;Node6 -->
<g id="edge6" class="edge"><title>Node1&#45;&gt;Node6</title>
<path fill="none" stroke="orange" stroke-dasharray="5,2" d="M128.956,-65.6167C172.143,-55.9116 227.35,-43.5055 268.582,-34.2401"/>
<polygon fill="orange" stroke="orange" points="128.084,-62.2253 119.094,-67.8327 129.618,-69.055 128.084,-62.2253"/>
<text text-anchor="middle" x="186.5" y="-67" font-family="Helvetica,sans-Serif" font-size="10.00"> &lt; ProcessState &gt;</text>
</g>
<!-- Node3 -->
<g id="node3" class="node"><title>Node3</title>
<g id="a_node3"><a xlink:href="classsoftwarecontainer_1_1_observable_writable_property.html" target="_top" xlink:title="softwarecontainer::\lObservableWritableProperty\l\&lt; ContainerState \&gt;">
<polygon fill="white" stroke="black" points="538,-104.5 538,-145.5 687,-145.5 687,-104.5 538,-104.5"/>
<text text-anchor="start" x="546" y="-133.5" font-family="Helvetica,sans-Serif" font-size="10.00">softwarecontainer::</text>
<text text-anchor="start" x="546" y="-122.5" font-family="Helvetica,sans-Serif" font-size="10.00">ObservableWritableProperty</text>
<text text-anchor="middle" x="612.5" y="-111.5" font-family="Helvetica,sans-Serif" font-size="10.00">&lt; ContainerState &gt;</text>
</a>
</g>
</g>
<!-- Node2&#45;&gt;Node3 -->
<g id="edge2" class="edge"><title>Node2&#45;&gt;Node3</title>
<path fill="none" stroke="orange" stroke-dasharray="5,2" d="M413.115,-94.0463C452.672,-100.218 499.496,-107.524 537.717,-113.488"/>
<polygon fill="orange" stroke="orange" points="413.644,-90.5866 403.224,-92.503 412.565,-97.5029 413.644,-90.5866"/>
<text text-anchor="middle" x="470.5" y="-113" font-family="Helvetica,sans-Serif" font-size="10.00"> &lt; ContainerState &gt;</text>
</g>
<!-- Node4 -->
<g id="node4" class="node"><title>Node4</title>
<g id="a_node4"><a xlink:href="classsoftwarecontainer_1_1_observable_writable_property.html" target="_top" xlink:title="softwarecontainer::\lObservableWritableProperty\l\&lt; ProcessState \&gt;">
<polygon fill="white" stroke="black" points="538,-36.5 538,-77.5 687,-77.5 687,-36.5 538,-36.5"/>
<text text-anchor="start" x="546" y="-65.5" font-family="Helvetica,sans-Serif" font-size="10.00">softwarecontainer::</text>
<text text-anchor="start" x="546" y="-54.5" font-family="Helvetica,sans-Serif" font-size="10.00">ObservableWritableProperty</text>
<text text-anchor="middle" x="612.5" y="-43.5" font-family="Helvetica,sans-Serif" font-size="10.00">&lt; ProcessState &gt;</text>
</a>
</g>
</g>
<!-- Node2&#45;&gt;Node4 -->
<g id="edge3" class="edge"><title>Node2&#45;&gt;Node4</title>
<path fill="none" stroke="orange" stroke-dasharray="5,2" d="M413.366,-73.8624C452.871,-70.5004 499.577,-66.5254 537.717,-63.2794"/>
<polygon fill="orange" stroke="orange" points="412.891,-70.3901 403.224,-74.7256 413.485,-77.3649 412.891,-70.3901"/>
<text text-anchor="middle" x="470.5" y="-76" font-family="Helvetica,sans-Serif" font-size="10.00"> &lt; ProcessState &gt;</text>
</g>
<!-- Node5&#45;&gt;Node3 -->
<g id="edge5" class="edge"><title>Node5&#45;&gt;Node3</title>
<path fill="none" stroke="midnightblue" d="M398.481,-137.086C440.773,-134.687 494.883,-131.617 537.983,-129.171"/>
<polygon fill="midnightblue" stroke="midnightblue" points="398.059,-133.604 388.273,-137.665 398.455,-140.593 398.059,-133.604"/>
</g>
<!-- Node6&#45;&gt;Node4 -->
<g id="edge7" class="edge"><title>Node6&#45;&gt;Node4</title>
<path fill="none" stroke="midnightblue" d="M398.213,-29.7718C440.544,-35.1759 494.792,-42.1011 537.983,-47.6149"/>
<polygon fill="midnightblue" stroke="midnightblue" points="398.636,-26.2975 388.273,-28.503 397.749,-33.2412 398.636,-26.2975"/>
</g>
</g>
</svg>
