<?xml version="1.0" encoding="UTF-8" standalone="no"?>
<!DOCTYPE svg PUBLIC "-//W3C//DTD SVG 1.1//EN"
 "http://www.w3.org/Graphics/SVG/1.1/DTD/svg11.dtd">
<!-- Generated by graphviz version 2.38.0 (20140413.2041)
 -->
<!-- Title: softwarecontainer::ObservableWritableProperty&lt; Type &gt; Pages: 1 -->
<svg width="555pt" height="110pt"
 viewBox="0.00 0.00 555.00 110.00" xmlns="http://www.w3.org/2000/svg" xmlns:xlink="http://www.w3.org/1999/xlink">
<g id="graph0" class="graph" transform="scale(1 1) rotate(0) translate(4 106)">
<title>softwarecontainer::ObservableWritableProperty&lt; Type &gt;</title>
<polygon fill="white" stroke="none" points="-4,4 -4,-106 551,-106 551,4 -4,4"/>
<!-- Node1 -->
<g id="node1" class="node"><title>Node1</title>
<polygon fill="#bfbfbf" stroke="black" points="146,-30.5 146,-71.5 285,-71.5 285,-30.5 146,-30.5"/>
<text text-anchor="start" x="154" y="-59.5" font-family="Helvetica,sans-Serif" font-size="10.00">softwarecontainer::</text>
<text text-anchor="start" x="154" y="-48.5" font-family="Helvetica,sans-Serif" font-size="10.00">ObservableWritableProperty</text>
<text text-anchor="middle" x="215.5" y="-37.5" font-family="Helvetica,sans-Serif" font-size="10.00">&lt; Type &gt;</text>
</g>
<!-- Node3 -->
<g id="node3" class="node"><title>Node3</title>
<g id="a_node3"><a xlink:href="classsoftwarecontainer_1_1_observable_writable_property.html" target="_top" xlink:title="softwarecontainer::\lObservableWritableProperty\l\&lt; ContainerState \&gt;">
<polygon fill="white" stroke="black" points="408,-60.5 408,-101.5 547,-101.5 547,-60.5 408,-60.5"/>
<text text-anchor="start" x="416" y="-89.5" font-family="Helvetica,sans-Serif" font-size="10.00">softwarecontainer::</text>
<text text-anchor="start" x="416" y="-78.5" font-family="Helvetica,sans-Serif" font-size="10.00">ObservableWritableProperty</text>
<text text-anchor="middle" x="477.5" y="-67.5" font-family="Helvetica,sans-Serif" font-size="10.00">&lt; ContainerState &gt;</text>
</a>
</g>
</g>
<!-- Node1&#45;&gt;Node3 -->
<g id="edge2" class="edge"><title>Node1&#45;&gt;Node3</title>
<path fill="none" stroke="orange" stroke-dasharray="5,2" d="M295.115,-60.071C331.068,-64.2193 373.269,-69.0887 407.914,-73.0863"/>
<polygon fill="orange" stroke="orange" points="295.487,-56.5908 285.152,-58.9214 294.685,-63.5446 295.487,-56.5908"/>
<text text-anchor="middle" x="346.5" y="-74" font-family="Helvetica,sans-Serif" font-size="10.00"> &lt; ContainerState &gt;</text>
</g>
<!-- Node4 -->
<g id="node4" class="node"><title>Node4</title>
<g id="a_node4"><a xlink:href="classsoftwarecontainer_1_1_observable_writable_property.html" target="_top" xlink:title="softwarecontainer::\lObservableWritableProperty\l\&lt; ProcessState \&gt;">
<polygon fill="white" stroke="black" points="408,-0.5 408,-41.5 547,-41.5 547,-0.5 408,-0.5"/>
<text text-anchor="start" x="416" y="-29.5" font-family="Helvetica,sans-Serif" font-size="10.00">softwarecontainer::</text>
<text text-anchor="start" x="416" y="-18.5" font-family="Helvetica,sans-Serif" font-size="10.00">ObservableWritableProperty</text>
<text text-anchor="middle" x="477.5" y="-7.5" font-family="Helvetica,sans-Serif" font-size="10.00">&lt; ProcessState &gt;</text>
</a>
</g>
</g>
<!-- Node1&#45;&gt;Node4 -->
<g id="edge3" class="edge"><title>Node1&#45;&gt;Node4</title>
<path fill="none" stroke="orange" stroke-dasharray="5,2" d="M295.115,-41.929C331.068,-37.7807 373.269,-32.9113 407.914,-28.9137"/>
<polygon fill="orange" stroke="orange" points="294.685,-38.4554 285.152,-43.0786 295.487,-45.4092 294.685,-38.4554"/>
<text text-anchor="middle" x="346.5" y="-44" font-family="Helvetica,sans-Serif" font-size="10.00"> &lt; ProcessState &gt;</text>
</g>
<!-- Node2 -->
<g id="node2" class="node"><title>Node2</title>
<g id="a_node2"><a xlink:href="classsoftwarecontainer_1_1_observable_property.html" target="_top" xlink:title="softwarecontainer::\lObservableProperty\&lt;\l Type \&gt;">
<polygon fill="white" stroke="black" points="0,-30.5 0,-71.5 109,-71.5 109,-30.5 0,-30.5"/>
<text text-anchor="start" x="8" y="-59.5" font-family="Helvetica,sans-Serif" font-size="10.00">softwarecontainer::</text>
<text text-anchor="start" x="8" y="-48.5" font-family="Helvetica,sans-Serif" font-size="10.00">ObservableProperty&lt;</text>
<text text-anchor="middle" x="54.5" y="-37.5" font-family="Helvetica,sans-Serif" font-size="10.00"> Type &gt;</text>
</a>
</g>
</g>
<!-- Node2&#45;&gt;Node1 -->
<g id="edge1" class="edge"><title>Node2&#45;&gt;Node1</title>
<path fill="none" stroke="midnightblue" d="M119.384,-51C128.071,-51 137.018,-51 145.786,-51"/>
<polygon fill="midnightblue" stroke="midnightblue" points="119.33,-47.5001 109.33,-51 119.33,-54.5001 119.33,-47.5001"/>
</g>
</g>
</svg>
