<?xml version="1.0" encoding="UTF-8" standalone="no"?>
<!DOCTYPE svg PUBLIC "-//W3C//DTD SVG 1.1//EN"
 "http://www.w3.org/Graphics/SVG/1.1/DTD/svg11.dtd">
<!-- Generated by graphviz version 2.38.0 (20140413.2041)
 -->
<!-- Title: OverlaySyncCleanupHandler::clean Pages: 1 -->
<svg width="328pt" height="66pt"
 viewBox="0.00 0.00 328.00 66.00" xmlns="http://www.w3.org/2000/svg" xmlns:xlink="http://www.w3.org/1999/xlink">
<g id="graph0" class="graph" transform="scale(1 1) rotate(0) translate(4 62)">
<title>OverlaySyncCleanupHandler::clean</title>
<polygon fill="white" stroke="none" points="-4,4 -4,-62 324,-62 324,4 -4,4"/>
<!-- Node1 -->
<g id="node1" class="node"><title>Node1</title>
<polygon fill="#bfbfbf" stroke="black" points="0,-14 0,-44 143,-44 143,-14 0,-14"/>
<text text-anchor="start" x="8" y="-32" font-family="Helvetica,sans-Serif" font-size="10.00">OverlaySyncCleanupHandler</text>
<text text-anchor="middle" x="71.5" y="-21" font-family="Helvetica,sans-Serif" font-size="10.00">::clean</text>
</g>
<!-- Node2 -->
<g id="node2" class="node"><title>Node2</title>
<g id="a_node2"><a xlink:href="class_recursive_copy.html#a0380f248366c2859b0ab39b155e13993" target="_top" xlink:title="copy Copy files from src to dst ">
<polygon fill="white" stroke="black" points="194,-38.5 194,-57.5 305,-57.5 305,-38.5 194,-38.5"/>
<text text-anchor="middle" x="249.5" y="-45.5" font-family="Helvetica,sans-Serif" font-size="10.00">RecursiveCopy::copy</text>
</a>
</g>
</g>
<!-- Node1&#45;&gt;Node2 -->
<g id="edge1" class="edge"><title>Node1&#45;&gt;Node2</title>
<path fill="none" stroke="midnightblue" d="M143.072,-36.6185C156.561,-38.0747 170.619,-39.5924 183.909,-41.0271"/>
<polygon fill="midnightblue" stroke="midnightblue" points="183.582,-44.512 193.899,-42.1056 184.333,-37.5524 183.582,-44.512"/>
</g>
<!-- Node3 -->
<g id="node3" class="node"><title>Node3</title>
<g id="a_node3"><a xlink:href="class_recursive_copy.html#a956c056e88a6d69e4088053d285d6b21" target="_top" xlink:title="getInstance Gets the RecursiveCopy instance. ">
<polygon fill="white" stroke="black" points="179,-0.5 179,-19.5 320,-19.5 320,-0.5 179,-0.5"/>
<text text-anchor="middle" x="249.5" y="-7.5" font-family="Helvetica,sans-Serif" font-size="10.00">RecursiveCopy::getInstance</text>
</a>
</g>
</g>
<!-- Node1&#45;&gt;Node3 -->
<g id="edge2" class="edge"><title>Node1&#45;&gt;Node3</title>
<path fill="none" stroke="midnightblue" d="M143.072,-21.3815C151.526,-20.4687 160.205,-19.5319 168.777,-18.6064"/>
<polygon fill="midnightblue" stroke="midnightblue" points="169.206,-22.0806 178.772,-17.5274 168.454,-15.121 169.206,-22.0806"/>
</g>
</g>
</svg>
