<?xml version="1.0" encoding="UTF-8" standalone="no"?>
<!DOCTYPE svg PUBLIC "-//W3C//DTD SVG 1.1//EN"
 "http://www.w3.org/Graphics/SVG/1.1/DTD/svg11.dtd">
<!-- Generated by graphviz version 2.38.0 (20140413.2041)
 -->
<!-- Title: softwarecontainer::ObservableWritableProperty&lt; Type &gt; Pages: 1 -->
<svg width="597pt" height="110pt"
 viewBox="0.00 0.00 597.00 110.00" xmlns="http://www.w3.org/2000/svg" xmlns:xlink="http://www.w3.org/1999/xlink">
<g id="graph0" class="graph" transform="scale(1 1) rotate(0) translate(4 106)">
<title>softwarecontainer::ObservableWritableProperty&lt; Type &gt;</title>
<polygon fill="white" stroke="none" points="-4,4 -4,-106 593,-106 593,4 -4,4"/>
<!-- Node1 -->
<g id="node1" class="node"><title>Node1</title>
<polygon fill="#bfbfbf" stroke="black" points="156,-30.5 156,-71.5 305,-71.5 305,-30.5 156,-30.5"/>
<text text-anchor="start" x="164" y="-59.5" font-family="Helvetica,sans-Serif" font-size="10.00">softwarecontainer::</text>
<text text-anchor="start" x="164" y="-48.5" font-family="Helvetica,sans-Serif" font-size="10.00">ObservableWritableProperty</text>
<text text-anchor="middle" x="230.5" y="-37.5" font-family="Helvetica,sans-Serif" font-size="10.00">&lt; Type &gt;</text>
</g>
<!-- Node3 -->
<g id="node3" class="node"><title>Node3</title>
<g id="a_node3"><a xlink:href="classsoftwarecontainer_1_1_observable_writable_property.html" target="_top" xlink:title="softwarecontainer::\lObservableWritableProperty\l\&lt; ContainerState \&gt;">
<polygon fill="white" stroke="black" points="440,-60.5 440,-101.5 589,-101.5 589,-60.5 440,-60.5"/>
<text text-anchor="start" x="448" y="-89.5" font-family="Helvetica,sans-Serif" font-size="10.00">softwarecontainer::</text>
<text text-anchor="start" x="448" y="-78.5" font-family="Helvetica,sans-Serif" font-size="10.00">ObservableWritableProperty</text>
<text text-anchor="middle" x="514.5" y="-67.5" font-family="Helvetica,sans-Serif" font-size="10.00">&lt; ContainerState &gt;</text>
</a>
</g>
</g>
<!-- Node1&#45;&gt;Node3 -->
<g id="edge2" class="edge"><title>Node1&#45;&gt;Node3</title>
<path fill="none" stroke="orange" stroke-dasharray="5,2" d="M315.366,-59.9219C354.871,-64.1246 401.577,-69.0933 439.717,-73.1508"/>
<polygon fill="orange" stroke="orange" points="315.538,-56.4205 305.224,-58.843 314.797,-63.3813 315.538,-56.4205"/>
<text text-anchor="middle" x="372.5" y="-74" font-family="Helvetica,sans-Serif" font-size="10.00"> &lt; ContainerState &gt;</text>
</g>
<!-- Node4 -->
<g id="node4" class="node"><title>Node4</title>
<g id="a_node4"><a xlink:href="classsoftwarecontainer_1_1_observable_writable_property.html" target="_top" xlink:title="softwarecontainer::\lObservableWritableProperty\l\&lt; ProcessState \&gt;">
<polygon fill="white" stroke="black" points="440,-0.5 440,-41.5 589,-41.5 589,-0.5 440,-0.5"/>
<text text-anchor="start" x="448" y="-29.5" font-family="Helvetica,sans-Serif" font-size="10.00">softwarecontainer::</text>
<text text-anchor="start" x="448" y="-18.5" font-family="Helvetica,sans-Serif" font-size="10.00">ObservableWritableProperty</text>
<text text-anchor="middle" x="514.5" y="-7.5" font-family="Helvetica,sans-Serif" font-size="10.00">&lt; ProcessState &gt;</text>
</a>
</g>
</g>
<!-- Node1&#45;&gt;Node4 -->
<g id="edge3" class="edge"><title>Node1&#45;&gt;Node4</title>
<path fill="none" stroke="orange" stroke-dasharray="5,2" d="M315.366,-42.0781C354.871,-37.8754 401.577,-32.9067 439.717,-28.8492"/>
<polygon fill="orange" stroke="orange" points="314.797,-38.6187 305.224,-43.157 315.538,-45.5795 314.797,-38.6187"/>
<text text-anchor="middle" x="372.5" y="-44" font-family="Helvetica,sans-Serif" font-size="10.00"> &lt; ProcessState &gt;</text>
</g>
<!-- Node2 -->
<g id="node2" class="node"><title>Node2</title>
<g id="a_node2"><a xlink:href="classsoftwarecontainer_1_1_observable_property.html" target="_top" xlink:title="softwarecontainer::\lObservableProperty\&lt;\l Type \&gt;">
<polygon fill="white" stroke="black" points="0,-30.5 0,-71.5 119,-71.5 119,-30.5 0,-30.5"/>
<text text-anchor="start" x="8" y="-59.5" font-family="Helvetica,sans-Serif" font-size="10.00">softwarecontainer::</text>
<text text-anchor="start" x="8" y="-48.5" font-family="Helvetica,sans-Serif" font-size="10.00">ObservableProperty&lt;</text>
<text text-anchor="middle" x="59.5" y="-37.5" font-family="Helvetica,sans-Serif" font-size="10.00"> Type &gt;</text>
</a>
</g>
</g>
<!-- Node2&#45;&gt;Node1 -->
<g id="edge1" class="edge"><title>Node2&#45;&gt;Node1</title>
<path fill="none" stroke="midnightblue" d="M129.262,-51C138.001,-51 146.973,-51 155.785,-51"/>
<polygon fill="midnightblue" stroke="midnightblue" points="129.134,-47.5001 119.134,-51 129.134,-54.5001 129.134,-47.5001"/>
</g>
</g>
</svg>
