<?xml version="1.0" encoding="UTF-8" standalone="no"?>
<!DOCTYPE svg PUBLIC "-//W3C//DTD SVG 1.1//EN"
 "http://www.w3.org/Graphics/SVG/1.1/DTD/svg11.dtd">
<!-- Generated by graphviz version 2.38.0 (20140413.2041)
 -->
<!-- Title: NetworkGateway::readConfigElement Pages: 1 -->
<svg width="506pt" height="39pt"
 viewBox="0.00 0.00 506.00 39.00" xmlns="http://www.w3.org/2000/svg" xmlns:xlink="http://www.w3.org/1999/xlink">
<g id="graph0" class="graph" transform="scale(1 1) rotate(0) translate(4 35)">
<title>NetworkGateway::readConfigElement</title>
<polygon fill="white" stroke="none" points="-4,4 -4,-35 502,-35 502,4 -4,4"/>
<!-- Node1 -->
<g id="node1" class="node"><title>Node1</title>
<polygon fill="#bfbfbf" stroke="black" points="0,-0.5 0,-30.5 146,-30.5 146,-0.5 0,-0.5"/>
<text text-anchor="start" x="8" y="-18.5" font-family="Helvetica,sans-Serif" font-size="10.00">NetworkGateway::readConfig</text>
<text text-anchor="middle" x="73" y="-7.5" font-family="Helvetica,sans-Serif" font-size="10.00">Element</text>
</g>
<!-- Node2 -->
<g id="node2" class="node"><title>Node2</title>
<g id="a_node2"><a xlink:href="class_network_gateway_parser.html#ad6e18790fde52761a094651adcfd2c36" target="_top" xlink:title="Parses NetworkGateway configuration into IPTableEntry. ">
<polygon fill="white" stroke="black" points="182,-0.5 182,-30.5 362,-30.5 362,-0.5 182,-0.5"/>
<text text-anchor="start" x="190" y="-18.5" font-family="Helvetica,sans-Serif" font-size="10.00">NetworkGatewayParser</text>
<text text-anchor="middle" x="272" y="-7.5" font-family="Helvetica,sans-Serif" font-size="10.00">::parseNetworkGatewayConfiguration</text>
</a>
</g>
</g>
<!-- Node1&#45;&gt;Node2 -->
<g id="edge1" class="edge"><title>Node1&#45;&gt;Node2</title>
<path fill="none" stroke="midnightblue" d="M146.237,-15.5C154.524,-15.5 163.079,-15.5 171.643,-15.5"/>
<polygon fill="midnightblue" stroke="midnightblue" points="171.684,-19.0001 181.684,-15.5 171.684,-12.0001 171.684,-19.0001"/>
</g>
<!-- Node3 -->
<g id="node3" class="node"><title>Node3</title>
<g id="a_node3"><a xlink:href="classsoftwarecontainer_1_1_j_s_o_n_parser.html#a7ea50df505b43684c4a1d82ca6cb6e82" target="_top" xlink:title="Reads a string from a JSON Object. ">
<polygon fill="white" stroke="black" points="398,-0.5 398,-30.5 498,-30.5 498,-0.5 398,-0.5"/>
<text text-anchor="start" x="406" y="-18.5" font-family="Helvetica,sans-Serif" font-size="10.00">softwarecontainer::</text>
<text text-anchor="middle" x="448" y="-7.5" font-family="Helvetica,sans-Serif" font-size="10.00">JSONParser::read</text>
</a>
</g>
</g>
<!-- Node2&#45;&gt;Node3 -->
<g id="edge2" class="edge"><title>Node2&#45;&gt;Node3</title>
<path fill="none" stroke="midnightblue" d="M362.039,-15.5C370.837,-15.5 379.606,-15.5 387.988,-15.5"/>
<polygon fill="midnightblue" stroke="midnightblue" points="387.996,-19.0001 397.996,-15.5 387.996,-12.0001 387.996,-19.0001"/>
</g>
</g>
</svg>
