<?xml version="1.0" encoding="UTF-8" standalone="no"?>
<!DOCTYPE svg PUBLIC "-//W3C//DTD SVG 1.1//EN"
 "http://www.w3.org/Graphics/SVG/1.1/DTD/svg11.dtd">
<!-- Generated by graphviz version 2.38.0 (20140413.2041)
 -->
<!-- Title: softwarecontainer::Gateway::isActivated Pages: 1 -->
<svg width="289pt" height="66pt"
 viewBox="0.00 0.00 289.00 66.00" xmlns="http://www.w3.org/2000/svg" xmlns:xlink="http://www.w3.org/1999/xlink">
<g id="graph0" class="graph" transform="scale(1 1) rotate(0) translate(4 62)">
<title>softwarecontainer::Gateway::isActivated</title>
<polygon fill="white" stroke="none" points="-4,4 -4,-62 285,-62 285,4 -4,4"/>
<!-- Node1 -->
<g id="node1" class="node"><title>Node1</title>
<polygon fill="#bfbfbf" stroke="black" points="0,-14 0,-44 110,-44 110,-14 0,-14"/>
<text text-anchor="start" x="8" y="-32" font-family="Helvetica,sans-Serif" font-size="10.00">softwarecontainer::</text>
<text text-anchor="middle" x="55" y="-21" font-family="Helvetica,sans-Serif" font-size="10.00">Gateway::isActivated</text>
</g>
<!-- Node2 -->
<g id="node2" class="node"><title>Node2</title>
<g id="a_node2"><a xlink:href="class_d_bus_gateway.html#ade3ebce4b88d1684aafd5fc27d94cbef" target="_top" xlink:title="Is the gateway activated or not? ">
<polygon fill="white" stroke="black" points="146,-38.5 146,-57.5 281,-57.5 281,-38.5 146,-38.5"/>
<text text-anchor="middle" x="213.5" y="-45.5" font-family="Helvetica,sans-Serif" font-size="10.00">DBusGateway::isActivated</text>
</a>
</g>
</g>
<!-- Node1&#45;&gt;Node2 -->
<g id="edge1" class="edge"><title>Node1&#45;&gt;Node2</title>
<path fill="none" stroke="midnightblue" d="M120.413,-36.8201C128.818,-37.8405 137.443,-38.8877 145.883,-39.9124"/>
<polygon fill="midnightblue" stroke="midnightblue" points="120.646,-33.3228 110.297,-35.592 119.802,-40.2717 120.646,-33.3228"/>
</g>
<!-- Node3 -->
<g id="node3" class="node"><title>Node3</title>
<g id="a_node3"><a xlink:href="class_d_bus_gateway.html#ab6ef6ea2b216e3a15bdd1ff3822283e9" target="_top" xlink:title="Restore system to the state prior to launching of gateway. ">
<polygon fill="white" stroke="black" points="150.5,-0.5 150.5,-19.5 276.5,-19.5 276.5,-0.5 150.5,-0.5"/>
<text text-anchor="middle" x="213.5" y="-7.5" font-family="Helvetica,sans-Serif" font-size="10.00">DBusGateway::teardown</text>
</a>
</g>
</g>
<!-- Node1&#45;&gt;Node3 -->
<g id="edge2" class="edge"><title>Node1&#45;&gt;Node3</title>
<path fill="none" stroke="midnightblue" d="M120.43,-21.1778C130.285,-19.9814 140.442,-18.7483 150.248,-17.5577"/>
<polygon fill="midnightblue" stroke="midnightblue" points="119.802,-17.7283 110.297,-22.408 120.646,-24.6772 119.802,-17.7283"/>
</g>
</g>
</svg>
