<?xml version="1.0" encoding="UTF-8" standalone="no"?>
<!DOCTYPE svg PUBLIC "-//W3C//DTD SVG 1.1//EN"
 "http://www.w3.org/Graphics/SVG/1.1/DTD/svg11.dtd">
<!-- Generated by graphviz version 2.38.0 (20140413.2041)
 -->
<!-- Title: softwarecontainer::Gateway::teardown Pages: 1 -->
<svg width="269pt" height="50pt"
 viewBox="0.00 0.00 269.00 50.00" xmlns="http://www.w3.org/2000/svg" xmlns:xlink="http://www.w3.org/1999/xlink">
<g id="graph0" class="graph" transform="scale(1 1) rotate(0) translate(4 46)">
<title>softwarecontainer::Gateway::teardown</title>
<polygon fill="white" stroke="none" points="-4,4 -4,-46 265,-46 265,4 -4,4"/>
<!-- Node1 -->
<g id="node1" class="node"><title>Node1</title>
<polygon fill="#bfbfbf" stroke="black" points="0,-6 0,-36 101,-36 101,-6 0,-6"/>
<text text-anchor="start" x="8" y="-24" font-family="Helvetica,sans-Serif" font-size="10.00">softwarecontainer::</text>
<text text-anchor="middle" x="50.5" y="-13" font-family="Helvetica,sans-Serif" font-size="10.00">Gateway::teardown</text>
</g>
<!-- Node2 -->
<g id="node2" class="node"><title>Node2</title>
<g id="a_node2"><a xlink:href="classsoftwarecontainer_1_1_d_bus_gateway_instance.html#a989f08074e0f55b7af0f81815cae18ad" target="_top" xlink:title="Spawn the proxy and use the supplied path for the socket. ">
<polygon fill="white" stroke="black" points="137,-0.5 137,-41.5 261,-41.5 261,-0.5 137,-0.5"/>
<text text-anchor="start" x="145" y="-29.5" font-family="Helvetica,sans-Serif" font-size="10.00">softwarecontainer::</text>
<text text-anchor="start" x="145" y="-18.5" font-family="Helvetica,sans-Serif" font-size="10.00">DBusGatewayInstance</text>
<text text-anchor="middle" x="199" y="-7.5" font-family="Helvetica,sans-Serif" font-size="10.00">::DBusGatewayInstance</text>
</a>
</g>
</g>
<!-- Node1&#45;&gt;Node2 -->
<g id="edge1" class="edge"><title>Node1&#45;&gt;Node2</title>
<path fill="none" stroke="midnightblue" d="M111.217,-21C119.64,-21 128.309,-21 136.759,-21"/>
<polygon fill="midnightblue" stroke="midnightblue" points="111.098,-17.5001 101.098,-21 111.098,-24.5001 111.098,-17.5001"/>
</g>
</g>
</svg>
