<?xml version="1.0" encoding="UTF-8" standalone="no"?>
<!DOCTYPE svg PUBLIC "-//W3C//DTD SVG 1.1//EN"
 "http://www.w3.org/Graphics/SVG/1.1/DTD/svg11.dtd">
<!-- Generated by graphviz version 2.38.0 (20140413.2041)
 -->
<!-- Title: Gateway Pages: 1 -->
<svg width="210pt" height="294pt"
 viewBox="0.00 0.00 210.00 294.00" xmlns="http://www.w3.org/2000/svg" xmlns:xlink="http://www.w3.org/1999/xlink">
<g id="graph0" class="graph" transform="scale(1 1) rotate(0) translate(4 290)">
<title>Gateway</title>
<polygon fill="white" stroke="none" points="-4,4 -4,-290 206,-290 206,4 -4,4"/>
<!-- Node1 -->
<g id="node1" class="node"><title>Node1</title>
<polygon fill="#bfbfbf" stroke="black" points="0,-133.5 0,-152.5 56,-152.5 56,-133.5 0,-133.5"/>
<text text-anchor="middle" x="28" y="-140.5" font-family="Helvetica,sans-Serif" font-size="10.00">Gateway</text>
</g>
<!-- Node2 -->
<g id="node2" class="node"><title>Node2</title>
<g id="a_node2"><a xlink:href="class_cgroups_gateway.html" target="_top" xlink:title="The cgroups gateway sets cgroups related settings for the container. ">
<polygon fill="white" stroke="black" points="101,-266.5 101,-285.5 193,-285.5 193,-266.5 101,-266.5"/>
<text text-anchor="middle" x="147" y="-273.5" font-family="Helvetica,sans-Serif" font-size="10.00">CgroupsGateway</text>
</a>
</g>
</g>
<!-- Node1&#45;&gt;Node2 -->
<g id="edge1" class="edge"><title>Node1&#45;&gt;Node2</title>
<path fill="none" stroke="midnightblue" d="M34.8562,-162.34C43.4414,-187.555 61.7877,-231.442 92,-257 96.5526,-260.851 101.937,-263.941 107.514,-266.414"/>
<polygon fill="midnightblue" stroke="midnightblue" points="38.1739,-161.225 31.7683,-152.786 31.5131,-163.377 38.1739,-161.225"/>
</g>
<!-- Node3 -->
<g id="node3" class="node"><title>Node3</title>
<g id="a_node3"><a xlink:href="class_d_bus_gateway.html" target="_top" xlink:title="DBus Gateway takes care of spawning and killing the DBus proxies. ">
<polygon fill="white" stroke="black" points="107,-228.5 107,-247.5 187,-247.5 187,-228.5 107,-228.5"/>
<text text-anchor="middle" x="147" y="-235.5" font-family="Helvetica,sans-Serif" font-size="10.00">DBusGateway</text>
</a>
</g>
</g>
<!-- Node1&#45;&gt;Node3 -->
<g id="edge2" class="edge"><title>Node1&#45;&gt;Node3</title>
<path fill="none" stroke="midnightblue" d="M39.9069,-161.151C51.0432,-178.269 69.8124,-203.543 92,-219 97.4636,-222.806 103.766,-225.922 110.094,-228.447"/>
<polygon fill="midnightblue" stroke="midnightblue" points="42.815,-159.201 34.5321,-152.595 36.8874,-162.924 42.815,-159.201"/>
</g>
<!-- Node4 -->
<g id="node4" class="node"><title>Node4</title>
<g id="a_node4"><a xlink:href="class_device_node_gateway.html" target="_top" xlink:title="This gateway is responsible for exposing device nodes in an LXC container. ">
<polygon fill="white" stroke="black" points="92,-190.5 92,-209.5 202,-209.5 202,-190.5 92,-190.5"/>
<text text-anchor="middle" x="147" y="-197.5" font-family="Helvetica,sans-Serif" font-size="10.00">DeviceNodeGateway</text>
</a>
</g>
</g>
<!-- Node1&#45;&gt;Node4 -->
<g id="edge3" class="edge"><title>Node1&#45;&gt;Node4</title>
<path fill="none" stroke="midnightblue" d="M51.729,-158.257C63.4418,-165.715 78.1429,-174.467 92,-181 99.3714,-184.475 107.561,-187.673 115.288,-190.416"/>
<polygon fill="midnightblue" stroke="midnightblue" points="53.3424,-155.131 43.0495,-152.62 49.5298,-161.002 53.3424,-155.131"/>
</g>
<!-- Node5 -->
<g id="node5" class="node"><title>Node5</title>
<g id="a_node5"><a xlink:href="class_environment_gateway.html" target="_top" xlink:title="Environment Gateway is used to define environment variables to the container. ">
<polygon fill="white" stroke="black" points="92,-152.5 92,-171.5 202,-171.5 202,-152.5 92,-152.5"/>
<text text-anchor="middle" x="147" y="-159.5" font-family="Helvetica,sans-Serif" font-size="10.00">EnvironmentGateway</text>
</a>
</g>
</g>
<!-- Node1&#45;&gt;Node5 -->
<g id="edge4" class="edge"><title>Node1&#45;&gt;Node5</title>
<path fill="none" stroke="midnightblue" d="M66.0993,-149.025C74.2847,-150.354 83.1186,-151.788 91.824,-153.202"/>
<polygon fill="midnightblue" stroke="midnightblue" points="66.568,-145.555 56.1362,-147.407 65.4459,-152.464 66.568,-145.555"/>
</g>
<!-- Node6 -->
<g id="node6" class="node"><title>Node6</title>
<g id="a_node6"><a xlink:href="class_file_gateway.html" target="_top" xlink:title="This gateway lets you map files (including socket files) or folders from the host into the container&#39;...">
<polygon fill="white" stroke="black" points="111.5,-114.5 111.5,-133.5 182.5,-133.5 182.5,-114.5 111.5,-114.5"/>
<text text-anchor="middle" x="147" y="-121.5" font-family="Helvetica,sans-Serif" font-size="10.00">FileGateway</text>
</a>
</g>
</g>
<!-- Node1&#45;&gt;Node6 -->
<g id="edge5" class="edge"><title>Node1&#45;&gt;Node6</title>
<path fill="none" stroke="midnightblue" d="M66.2651,-136.948C80.7473,-134.597 97.2383,-131.919 111.45,-129.611"/>
<polygon fill="midnightblue" stroke="midnightblue" points="65.4459,-133.536 56.1362,-138.593 66.568,-140.445 65.4459,-133.536"/>
</g>
<!-- Node7 -->
<g id="node7" class="node"><title>Node7</title>
<g id="a_node7"><a xlink:href="class_network_gateway.html" target="_top" xlink:title="Sets up and manages network access and routing to the container. ">
<polygon fill="white" stroke="black" points="101,-76.5 101,-95.5 193,-95.5 193,-76.5 101,-76.5"/>
<text text-anchor="middle" x="147" y="-83.5" font-family="Helvetica,sans-Serif" font-size="10.00">NetworkGateway</text>
</a>
</g>
</g>
<!-- Node1&#45;&gt;Node7 -->
<g id="edge6" class="edge"><title>Node1&#45;&gt;Node7</title>
<path fill="none" stroke="midnightblue" d="M51.729,-127.743C63.4418,-120.285 78.1429,-111.533 92,-105 99.3714,-101.525 107.561,-98.3266 115.288,-95.5843"/>
<polygon fill="midnightblue" stroke="midnightblue" points="49.5298,-124.998 43.0495,-133.38 53.3424,-130.869 49.5298,-124.998"/>
</g>
<!-- Node8 -->
<g id="node8" class="node"><title>Node8</title>
<g id="a_node8"><a xlink:href="class_pulse_gateway.html" target="_top" xlink:title="The PulseAudio Gateway is used to provide access to the host system PulseAudio server. ">
<polygon fill="white" stroke="black" points="107,-38.5 107,-57.5 187,-57.5 187,-38.5 107,-38.5"/>
<text text-anchor="middle" x="147" y="-45.5" font-family="Helvetica,sans-Serif" font-size="10.00">PulseGateway</text>
</a>
</g>
</g>
<!-- Node1&#45;&gt;Node8 -->
<g id="edge7" class="edge"><title>Node1&#45;&gt;Node8</title>
<path fill="none" stroke="midnightblue" d="M39.9069,-124.849C51.0432,-107.731 69.8124,-82.4574 92,-67 97.4636,-63.1937 103.766,-60.0783 110.094,-57.5529"/>
<polygon fill="midnightblue" stroke="midnightblue" points="36.8874,-123.076 34.5321,-133.405 42.815,-126.799 36.8874,-123.076"/>
</g>
<!-- Node9 -->
<g id="node9" class="node"><title>Node9</title>
<g id="a_node9"><a xlink:href="class_wayland_gateway.html" target="_top" xlink:title="WaylandGateway">
<polygon fill="white" stroke="black" points="100,-0.5 100,-19.5 194,-19.5 194,-0.5 100,-0.5"/>
<text text-anchor="middle" x="147" y="-7.5" font-family="Helvetica,sans-Serif" font-size="10.00">WaylandGateway</text>
</a>
</g>
</g>
<!-- Node1&#45;&gt;Node9 -->
<g id="edge8" class="edge"><title>Node1&#45;&gt;Node9</title>
<path fill="none" stroke="midnightblue" d="M34.8562,-123.66C43.4414,-98.4454 61.7877,-54.5576 92,-29 96.5526,-25.1488 101.937,-22.0592 107.514,-19.5856"/>
<polygon fill="midnightblue" stroke="midnightblue" points="31.5131,-122.623 31.7683,-133.214 38.1739,-124.775 31.5131,-122.623"/>
</g>
</g>
</svg>
