<?xml version="1.0" encoding="UTF-8" standalone="no"?>
<!DOCTYPE svg PUBLIC "-//W3C//DTD SVG 1.1//EN"
 "http://www.w3.org/Graphics/SVG/1.1/DTD/svg11.dtd">
<!-- Generated by graphviz version 2.38.0 (20140413.2041)
 -->
<!-- Title: softwarecontainer::Container::executeSync Pages: 1 -->
<svg width="439pt" height="284pt"
 viewBox="0.00 0.00 439.00 284.00" xmlns="http://www.w3.org/2000/svg" xmlns:xlink="http://www.w3.org/1999/xlink">
<g id="graph0" class="graph" transform="scale(1 1) rotate(0) translate(4 280)">
<title>softwarecontainer::Container::executeSync</title>
<polygon fill="white" stroke="none" points="-4,4 -4,-280 435,-280 435,4 -4,4"/>
<!-- Node1 -->
<g id="node1" class="node"><title>Node1</title>
<polygon fill="#bfbfbf" stroke="black" points="0,-146.5 0,-176.5 122,-176.5 122,-146.5 0,-146.5"/>
<text text-anchor="start" x="8" y="-164.5" font-family="Helvetica,sans-Serif" font-size="10.00">softwarecontainer::</text>
<text text-anchor="middle" x="61" y="-153.5" font-family="Helvetica,sans-Serif" font-size="10.00">Container::executeSync</text>
</g>
<!-- Node2 -->
<g id="node2" class="node"><title>Node2</title>
<g id="a_node2"><a xlink:href="classsoftwarecontainer_1_1_container.html#ae18efbb5f1588ed2211d7e876ede84ab" target="_top" xlink:title="Start a process from the given command line, with an environment consisting of the variables previous...">
<polygon fill="white" stroke="black" points="176,-171.5 176,-201.5 276,-201.5 276,-171.5 176,-171.5"/>
<text text-anchor="start" x="184" y="-189.5" font-family="Helvetica,sans-Serif" font-size="10.00">softwarecontainer::</text>
<text text-anchor="middle" x="226" y="-178.5" font-family="Helvetica,sans-Serif" font-size="10.00">Container::execute</text>
</a>
</g>
</g>
<!-- Node1&#45;&gt;Node2 -->
<g id="edge1" class="edge"><title>Node1&#45;&gt;Node2</title>
<path fill="none" stroke="midnightblue" d="M122.232,-170.738C136.462,-172.921 151.623,-175.246 165.807,-177.421"/>
<polygon fill="midnightblue" stroke="midnightblue" points="165.52,-180.918 175.935,-178.975 166.581,-173.999 165.52,-180.918"/>
</g>
<!-- Node3 -->
<g id="node3" class="node"><title>Node3</title>
<g id="a_node3"><a xlink:href="namespacesoftwarecontainer.html#aee26a680bb2961627889d39c9f874b2c" target="_top" xlink:title="waitForProcessTermination Waits for a process to terminate and then returns the status of the process...">
<polygon fill="white" stroke="black" points="158,-122.5 158,-152.5 294,-152.5 294,-122.5 158,-122.5"/>
<text text-anchor="start" x="166" y="-140.5" font-family="Helvetica,sans-Serif" font-size="10.00">softwarecontainer::</text>
<text text-anchor="middle" x="226" y="-129.5" font-family="Helvetica,sans-Serif" font-size="10.00">waitForProcessTermination</text>
</a>
</g>
</g>
<!-- Node1&#45;&gt;Node3 -->
<g id="edge2" class="edge"><title>Node1&#45;&gt;Node3</title>
<path fill="none" stroke="midnightblue" d="M122.232,-152.631C130.575,-151.403 139.239,-150.127 147.837,-148.861"/>
<polygon fill="midnightblue" stroke="midnightblue" points="148.495,-152.302 157.878,-147.383 147.475,-145.377 148.495,-152.302"/>
</g>
<!-- Node4 -->
<g id="node4" class="node"><title>Node4</title>
<g id="a_node4"><a xlink:href="namespacesoftwarecontainer.html#ae8835f968ab1d43b4a395b0097490734" target="_top" xlink:title="existsInFileSystem Check if path exists ">
<polygon fill="white" stroke="black" points="330,-245.5 330,-275.5 431,-275.5 431,-245.5 330,-245.5"/>
<text text-anchor="start" x="338" y="-263.5" font-family="Helvetica,sans-Serif" font-size="10.00">softwarecontainer::</text>
<text text-anchor="middle" x="380.5" y="-252.5" font-family="Helvetica,sans-Serif" font-size="10.00">existsInFileSystem</text>
</a>
</g>
</g>
<!-- Node3&#45;&gt;Node4 -->
<g id="edge3" class="edge"><title>Node3&#45;&gt;Node4</title>
<path fill="none" stroke="midnightblue" d="M279.755,-152.615C284.902,-155.392 289.773,-158.659 294,-162.5 321.069,-187.096 304.121,-210.655 330,-236.5 331.056,-237.555 332.167,-238.57 333.324,-239.546"/>
<polygon fill="midnightblue" stroke="midnightblue" points="331.335,-242.427 341.491,-245.444 335.433,-236.752 331.335,-242.427"/>
</g>
<!-- Node5 -->
<g id="node5" class="node"><title>Node5</title>
<g id="a_node5"><a xlink:href="namespacesoftwarecontainer.html#a44f64c34c09d1ffdb18428b41f0d9e91" target="_top" xlink:title="isDirectory Check if path is a directory ">
<polygon fill="white" stroke="black" points="330.5,-196.5 330.5,-226.5 430.5,-226.5 430.5,-196.5 330.5,-196.5"/>
<text text-anchor="start" x="338.5" y="-214.5" font-family="Helvetica,sans-Serif" font-size="10.00">softwarecontainer::</text>
<text text-anchor="middle" x="380.5" y="-203.5" font-family="Helvetica,sans-Serif" font-size="10.00">isDirectory</text>
</a>
</g>
</g>
<!-- Node3&#45;&gt;Node5 -->
<g id="edge4" class="edge"><title>Node3&#45;&gt;Node5</title>
<path fill="none" stroke="midnightblue" d="M272.007,-152.52C279.493,-155.518 287.07,-158.874 294,-162.5 311.26,-171.531 313.185,-177.665 330,-187.5 332.473,-188.947 335.047,-190.384 337.663,-191.794"/>
<polygon fill="midnightblue" stroke="midnightblue" points="336.151,-194.952 346.638,-196.457 339.378,-188.741 336.151,-194.952"/>
</g>
<!-- Node6 -->
<g id="node6" class="node"><title>Node6</title>
<g id="a_node6"><a xlink:href="namespacesoftwarecontainer.html#acaa3372166baaae42d0d55577b99308e" target="_top" xlink:title="isDirectoryEmpty Check if path is empty ">
<polygon fill="white" stroke="black" points="330.5,-147.5 330.5,-177.5 430.5,-177.5 430.5,-147.5 330.5,-147.5"/>
<text text-anchor="start" x="338.5" y="-165.5" font-family="Helvetica,sans-Serif" font-size="10.00">softwarecontainer::</text>
<text text-anchor="middle" x="380.5" y="-154.5" font-family="Helvetica,sans-Serif" font-size="10.00">isDirectoryEmpty</text>
</a>
</g>
</g>
<!-- Node3&#45;&gt;Node6 -->
<g id="edge5" class="edge"><title>Node3&#45;&gt;Node6</title>
<path fill="none" stroke="midnightblue" d="M294.333,-148.538C303.05,-149.967 311.924,-151.422 320.493,-152.827"/>
<polygon fill="midnightblue" stroke="midnightblue" points="319.948,-156.284 330.382,-154.448 321.08,-149.376 319.948,-156.284"/>
</g>
<!-- Node7 -->
<g id="node7" class="node"><title>Node7</title>
<g id="a_node7"><a xlink:href="namespacesoftwarecontainer.html#a3a71c6d06c86e4f62e7f2b6d7c926f66" target="_top" xlink:title="isFile Check if path is a file ">
<polygon fill="white" stroke="black" points="330.5,-98.5 330.5,-128.5 430.5,-128.5 430.5,-98.5 330.5,-98.5"/>
<text text-anchor="start" x="338.5" y="-116.5" font-family="Helvetica,sans-Serif" font-size="10.00">softwarecontainer::</text>
<text text-anchor="middle" x="380.5" y="-105.5" font-family="Helvetica,sans-Serif" font-size="10.00">isFile</text>
</a>
</g>
</g>
<!-- Node3&#45;&gt;Node7 -->
<g id="edge6" class="edge"><title>Node3&#45;&gt;Node7</title>
<path fill="none" stroke="midnightblue" d="M294.333,-126.903C303.05,-125.532 311.924,-124.135 320.493,-122.786"/>
<polygon fill="midnightblue" stroke="midnightblue" points="321.048,-126.242 330.382,-121.23 319.96,-119.327 321.048,-126.242"/>
</g>
<!-- Node8 -->
<g id="node8" class="node"><title>Node8</title>
<g id="a_node8"><a xlink:href="namespacesoftwarecontainer.html#acd78c8c457ea2f848b546ec21db98285" target="_top" xlink:title="isPipe Check if path is a pipe ">
<polygon fill="white" stroke="black" points="330.5,-49.5 330.5,-79.5 430.5,-79.5 430.5,-49.5 330.5,-49.5"/>
<text text-anchor="start" x="338.5" y="-67.5" font-family="Helvetica,sans-Serif" font-size="10.00">softwarecontainer::</text>
<text text-anchor="middle" x="380.5" y="-56.5" font-family="Helvetica,sans-Serif" font-size="10.00">isPipe</text>
</a>
</g>
</g>
<!-- Node3&#45;&gt;Node8 -->
<g id="edge7" class="edge"><title>Node3&#45;&gt;Node8</title>
<path fill="none" stroke="midnightblue" d="M258.598,-122.374C281.806,-111.265 313.535,-96.0768 338.665,-84.047"/>
<polygon fill="midnightblue" stroke="midnightblue" points="340.434,-87.081 347.942,-79.6063 337.411,-80.7671 340.434,-87.081"/>
</g>
<!-- Node9 -->
<g id="node9" class="node"><title>Node9</title>
<g id="a_node9"><a xlink:href="namespacesoftwarecontainer.html#a21a5de23f41d3f27cf7d31994f518cc0" target="_top" xlink:title="isSocket Check if path is a socket ">
<polygon fill="white" stroke="black" points="330.5,-0.5 330.5,-30.5 430.5,-30.5 430.5,-0.5 330.5,-0.5"/>
<text text-anchor="start" x="338.5" y="-18.5" font-family="Helvetica,sans-Serif" font-size="10.00">softwarecontainer::</text>
<text text-anchor="middle" x="380.5" y="-7.5" font-family="Helvetica,sans-Serif" font-size="10.00">isSocket</text>
</a>
</g>
</g>
<!-- Node3&#45;&gt;Node9 -->
<g id="edge8" class="edge"><title>Node3&#45;&gt;Node9</title>
<path fill="none" stroke="midnightblue" d="M240.519,-122.274C259.194,-101.861 294.604,-65.3206 330,-40.5 332.365,-38.8417 334.855,-37.2288 337.409,-35.6734"/>
<polygon fill="midnightblue" stroke="midnightblue" points="339.301,-38.6236 346.248,-30.624 335.829,-32.5455 339.301,-38.6236"/>
</g>
</g>
</svg>
