<?xml version="1.0" encoding="UTF-8" standalone="no"?>
<!DOCTYPE svg PUBLIC "-//W3C//DTD SVG 1.1//EN"
 "http://www.w3.org/Graphics/SVG/1.1/DTD/svg11.dtd">
<!-- Generated by graphviz version 2.38.0 (20140413.2041)
 -->
<!-- Title: softwarecontainer::FileToolkitWithUndo::syncOverlayMount Pages: 1 -->
<svg width="301pt" height="66pt"
 viewBox="0.00 0.00 301.00 66.00" xmlns="http://www.w3.org/2000/svg" xmlns:xlink="http://www.w3.org/1999/xlink">
<g id="graph0" class="graph" transform="scale(1 1) rotate(0) translate(4 62)">
<title>softwarecontainer::FileToolkitWithUndo::syncOverlayMount</title>
<polygon fill="white" stroke="none" points="-4,4 -4,-62 297,-62 297,4 -4,4"/>
<!-- Node1 -->
<g id="node1" class="node"><title>Node1</title>
<polygon fill="#bfbfbf" stroke="black" points="0,-8.5 0,-49.5 110,-49.5 110,-8.5 0,-8.5"/>
<text text-anchor="start" x="8" y="-37.5" font-family="Helvetica,sans-Serif" font-size="10.00">softwarecontainer::</text>
<text text-anchor="start" x="8" y="-26.5" font-family="Helvetica,sans-Serif" font-size="10.00">FileToolkitWithUndo</text>
<text text-anchor="middle" x="55" y="-15.5" font-family="Helvetica,sans-Serif" font-size="10.00">::syncOverlayMount</text>
</g>
<!-- Node2 -->
<g id="node2" class="node"><title>Node2</title>
<g id="a_node2"><a xlink:href="class_recursive_copy.html#a0380f248366c2859b0ab39b155e13993" target="_top" xlink:title="copy Copy files from src to dst ">
<polygon fill="white" stroke="black" points="163,-38.5 163,-57.5 276,-57.5 276,-38.5 163,-38.5"/>
<text text-anchor="middle" x="219.5" y="-45.5" font-family="Helvetica,sans-Serif" font-size="10.00">RecursiveCopy::copy</text>
</a>
</g>
</g>
<!-- Node1&#45;&gt;Node2 -->
<g id="edge1" class="edge"><title>Node1&#45;&gt;Node2</title>
<path fill="none" stroke="midnightblue" d="M110.11,-35.3267C123.78,-36.9251 138.608,-38.6588 152.782,-40.316"/>
<polygon fill="midnightblue" stroke="midnightblue" points="152.621,-43.821 162.96,-41.5061 153.434,-36.8684 152.621,-43.821"/>
</g>
<!-- Node3 -->
<g id="node3" class="node"><title>Node3</title>
<g id="a_node3"><a xlink:href="class_recursive_copy.html#a956c056e88a6d69e4088053d285d6b21" target="_top" xlink:title="getInstance Gets the RecursiveCopy instance. ">
<polygon fill="white" stroke="black" points="146,-0.5 146,-19.5 293,-19.5 293,-0.5 146,-0.5"/>
<text text-anchor="middle" x="219.5" y="-7.5" font-family="Helvetica,sans-Serif" font-size="10.00">RecursiveCopy::getInstance</text>
</a>
</g>
</g>
<!-- Node1&#45;&gt;Node3 -->
<g id="edge2" class="edge"><title>Node1&#45;&gt;Node3</title>
<path fill="none" stroke="midnightblue" d="M110.11,-22.6733C118.339,-21.7112 126.987,-20.7 135.659,-19.686"/>
<polygon fill="midnightblue" stroke="midnightblue" points="136.302,-23.1348 145.827,-18.4971 135.489,-16.1822 136.302,-23.1348"/>
</g>
</g>
</svg>
