<?xml version="1.0" encoding="UTF-8" standalone="no"?>
<!DOCTYPE svg PUBLIC "-//W3C//DTD SVG 1.1//EN"
 "http://www.w3.org/Graphics/SVG/1.1/DTD/svg11.dtd">
<!-- Generated by graphviz version 2.38.0 (20140413.2041)
 -->
<!-- Title: softwarecontainer::Gateway::isActivated Pages: 1 -->
<svg width="289pt" height="88pt"
 viewBox="0.00 0.00 289.00 88.00" xmlns="http://www.w3.org/2000/svg" xmlns:xlink="http://www.w3.org/1999/xlink">
<g id="graph0" class="graph" transform="scale(1 1) rotate(0) translate(4 84)">
<title>softwarecontainer::Gateway::isActivated</title>
<polygon fill="white" stroke="none" points="-4,4 -4,-84 285,-84 285,4 -4,4"/>
<!-- Node1 -->
<g id="node1" class="node"><title>Node1</title>
<polygon fill="#bfbfbf" stroke="black" points="0,-24.5 0,-54.5 110,-54.5 110,-24.5 0,-24.5"/>
<text text-anchor="start" x="8" y="-42.5" font-family="Helvetica,sans-Serif" font-size="10.00">softwarecontainer::</text>
<text text-anchor="middle" x="55" y="-31.5" font-family="Helvetica,sans-Serif" font-size="10.00">Gateway::isActivated</text>
</g>
<!-- Node2 -->
<g id="node2" class="node"><title>Node2</title>
<g id="a_node2"><a xlink:href="classsoftwarecontainer_1_1_d_bus_gateway.html#a22492aa4176566f87939ad0466c21756" target="_top" xlink:title="Is the gateway activated or not? ">
<polygon fill="white" stroke="black" points="146,-49.5 146,-79.5 281,-79.5 281,-49.5 146,-49.5"/>
<text text-anchor="start" x="154" y="-67.5" font-family="Helvetica,sans-Serif" font-size="10.00">softwarecontainer::</text>
<text text-anchor="middle" x="213.5" y="-56.5" font-family="Helvetica,sans-Serif" font-size="10.00">DBusGateway::isActivated</text>
</a>
</g>
</g>
<!-- Node1&#45;&gt;Node2 -->
<g id="edge1" class="edge"><title>Node1&#45;&gt;Node2</title>
<path fill="none" stroke="midnightblue" d="M120.413,-49.7896C128.818,-51.1323 137.443,-52.5101 145.883,-53.8584"/>
<polygon fill="midnightblue" stroke="midnightblue" points="120.724,-46.295 110.297,-48.1736 119.62,-53.2073 120.724,-46.295"/>
</g>
<!-- Node3 -->
<g id="node3" class="node"><title>Node3</title>
<g id="a_node3"><a xlink:href="classsoftwarecontainer_1_1_d_bus_gateway.html#acc3278f8b78471a72c908f16b7aa36c6" target="_top" xlink:title="Restore system to the state prior to launching of gateway. ">
<polygon fill="white" stroke="black" points="150.5,-0.5 150.5,-30.5 276.5,-30.5 276.5,-0.5 150.5,-0.5"/>
<text text-anchor="start" x="158.5" y="-18.5" font-family="Helvetica,sans-Serif" font-size="10.00">softwarecontainer::</text>
<text text-anchor="middle" x="213.5" y="-7.5" font-family="Helvetica,sans-Serif" font-size="10.00">DBusGateway::teardown</text>
</a>
</g>
</g>
<!-- Node1&#45;&gt;Node3 -->
<g id="edge2" class="edge"><title>Node1&#45;&gt;Node3</title>
<path fill="none" stroke="midnightblue" d="M120.43,-29.6194C130.285,-28.1081 140.442,-26.5505 150.248,-25.0466"/>
<polygon fill="midnightblue" stroke="midnightblue" points="119.651,-26.1979 110.297,-31.1733 120.712,-33.117 119.651,-26.1979"/>
</g>
</g>
</svg>
