<?xml version="1.0" encoding="UTF-8" standalone="no"?>
<!DOCTYPE svg PUBLIC "-//W3C//DTD SVG 1.1//EN"
 "http://www.w3.org/Graphics/SVG/1.1/DTD/svg11.dtd">
<!-- Generated by graphviz version 2.38.0 (20140413.2041)
 -->
<!-- Title: Config::getBooleanValue Pages: 1 -->
<svg width="298pt" height="50pt"
 viewBox="0.00 0.00 298.00 50.00" xmlns="http://www.w3.org/2000/svg" xmlns:xlink="http://www.w3.org/1999/xlink">
<g id="graph0" class="graph" transform="scale(1 1) rotate(0) translate(4 46)">
<title>Config::getBooleanValue</title>
<polygon fill="white" stroke="none" points="-4,4 -4,-46 294,-46 294,4 -4,4"/>
<!-- Node1 -->
<g id="node1" class="node"><title>Node1</title>
<polygon fill="#bfbfbf" stroke="black" points="0,-11.5 0,-30.5 125,-30.5 125,-11.5 0,-11.5"/>
<text text-anchor="middle" x="62.5" y="-18.5" font-family="Helvetica,sans-Serif" font-size="10.00">Config::getBooleanValue</text>
</g>
<!-- Node2 -->
<g id="node2" class="node"><title>Node2</title>
<g id="a_node2"><a xlink:href="classsoftwarecontainer_1_1_software_container_agent.html#acfd23dd497883e5c728fbdf2cbf8eca9" target="_top" xlink:title="creates a new agent object and runs some initialization ">
<polygon fill="white" stroke="black" points="161,-0.5 161,-41.5 290,-41.5 290,-0.5 161,-0.5"/>
<text text-anchor="start" x="169" y="-29.5" font-family="Helvetica,sans-Serif" font-size="10.00">softwarecontainer::</text>
<text text-anchor="start" x="169" y="-18.5" font-family="Helvetica,sans-Serif" font-size="10.00">SoftwareContainerAgent</text>
<text text-anchor="middle" x="225.5" y="-7.5" font-family="Helvetica,sans-Serif" font-size="10.00">::SoftwareContainerAgent</text>
</a>
</g>
</g>
<!-- Node1&#45;&gt;Node2 -->
<g id="edge1" class="edge"><title>Node1&#45;&gt;Node2</title>
<path fill="none" stroke="midnightblue" d="M135.473,-21C143.896,-21 152.445,-21 160.746,-21"/>
<polygon fill="midnightblue" stroke="midnightblue" points="135.286,-17.5001 125.286,-21 135.286,-24.5001 135.286,-17.5001"/>
</g>
</g>
</svg>
