<?xml version="1.0" encoding="UTF-8" standalone="no"?>
<!DOCTYPE svg PUBLIC "-//W3C//DTD SVG 1.1//EN"
 "http://www.w3.org/Graphics/SVG/1.1/DTD/svg11.dtd">
<!-- Generated by graphviz version 2.38.0 (20140413.2041)
 -->
<!-- Title: RecursiveCopy::copy Pages: 1 -->
<svg width="298pt" height="99pt"
 viewBox="0.00 0.00 298.00 98.50" xmlns="http://www.w3.org/2000/svg" xmlns:xlink="http://www.w3.org/1999/xlink">
<g id="graph0" class="graph" transform="scale(1 1) rotate(0) translate(4 94.5)">
<title>RecursiveCopy::copy</title>
<polygon fill="white" stroke="none" points="-4,4 -4,-94.5 294,-94.5 294,4 -4,4"/>
<!-- Node1 -->
<g id="node1" class="node"><title>Node1</title>
<polygon fill="#bfbfbf" stroke="black" points="0,-38.5 0,-57.5 111,-57.5 111,-38.5 0,-38.5"/>
<text text-anchor="middle" x="55.5" y="-45.5" font-family="Helvetica,sans-Serif" font-size="10.00">RecursiveCopy::copy</text>
</g>
<!-- Node2 -->
<g id="node2" class="node"><title>Node2</title>
<g id="a_node2"><a xlink:href="class_overlay_sync_cleanup_handler.html#a65e86b29438617c079a6aadfe6a0ff5c" target="_top" xlink:title="clean Performs the cleanup handling. ">
<polygon fill="white" stroke="black" points="147,-60 147,-90 290,-90 290,-60 147,-60"/>
<text text-anchor="start" x="155" y="-78" font-family="Helvetica,sans-Serif" font-size="10.00">OverlaySyncCleanupHandler</text>
<text text-anchor="middle" x="218.5" y="-67" font-family="Helvetica,sans-Serif" font-size="10.00">::clean</text>
</a>
</g>
</g>
<!-- Node1&#45;&gt;Node2 -->
<g id="edge1" class="edge"><title>Node1&#45;&gt;Node2</title>
<path fill="none" stroke="midnightblue" d="M121.147,-58.8415C129.58,-60.2557 138.255,-61.7104 146.781,-63.1402"/>
<polygon fill="midnightblue" stroke="midnightblue" points="121.448,-55.3432 111.007,-57.141 120.291,-62.2468 121.448,-55.3432"/>
</g>
<!-- Node3 -->
<g id="node3" class="node"><title>Node3</title>
<g id="a_node3"><a xlink:href="classsoftwarecontainer_1_1_file_toolkit_with_undo.html#a011797b9d1387882a5b013d0c97ccbfd" target="_top" xlink:title="syncOverlayMount Copy the directory structure from upper layer to the lower layer ...">
<polygon fill="white" stroke="black" points="166,-0.5 166,-41.5 271,-41.5 271,-0.5 166,-0.5"/>
<text text-anchor="start" x="174" y="-29.5" font-family="Helvetica,sans-Serif" font-size="10.00">softwarecontainer::</text>
<text text-anchor="start" x="174" y="-18.5" font-family="Helvetica,sans-Serif" font-size="10.00">FileToolkitWithUndo</text>
<text text-anchor="middle" x="218.5" y="-7.5" font-family="Helvetica,sans-Serif" font-size="10.00">::syncOverlayMount</text>
</a>
</g>
</g>
<!-- Node1&#45;&gt;Node3 -->
<g id="edge2" class="edge"><title>Node1&#45;&gt;Node3</title>
<path fill="none" stroke="midnightblue" d="M121.134,-37.1607C135.972,-34.6723 151.56,-32.0583 165.769,-29.6753"/>
<polygon fill="midnightblue" stroke="midnightblue" points="120.291,-33.7532 111.007,-38.859 121.448,-40.6568 120.291,-33.7532"/>
</g>
</g>
</svg>
