<?xml version="1.0" encoding="UTF-8" standalone="no"?>
<!DOCTYPE svg PUBLIC "-//W3C//DTD SVG 1.1//EN"
 "http://www.w3.org/Graphics/SVG/1.1/DTD/svg11.dtd">
<!-- Generated by graphviz version 2.38.0 (20140413.2041)
 -->
<!-- Title: Gateway::readConfigElement Pages: 1 -->
<svg width="485pt" height="50pt"
 viewBox="0.00 0.00 485.00 50.00" xmlns="http://www.w3.org/2000/svg" xmlns:xlink="http://www.w3.org/1999/xlink">
<g id="graph0" class="graph" transform="scale(1 1) rotate(0) translate(4 46)">
<title>Gateway::readConfigElement</title>
<polygon fill="white" stroke="none" points="-4,4 -4,-46 481,-46 481,4 -4,4"/>
<!-- Node1 -->
<g id="node1" class="node"><title>Node1</title>
<polygon fill="#bfbfbf" stroke="black" points="0,-11.5 0,-30.5 145,-30.5 145,-11.5 0,-11.5"/>
<text text-anchor="middle" x="72.5" y="-18.5" font-family="Helvetica,sans-Serif" font-size="10.00">Gateway::readConfigElement</text>
</g>
<!-- Node2 -->
<g id="node2" class="node"><title>Node2</title>
<g id="a_node2"><a xlink:href="class_gateway.html#a04d31b1ed232f5376c5cf79e30fa2593" target="_top" xlink:title="Configure this gateway according to the supplied JSON configuration string. ">
<polygon fill="white" stroke="black" points="181,-11.5 181,-30.5 285,-30.5 285,-11.5 181,-11.5"/>
<text text-anchor="middle" x="233" y="-18.5" font-family="Helvetica,sans-Serif" font-size="10.00">Gateway::setConfig</text>
</a>
</g>
</g>
<!-- Node1&#45;&gt;Node2 -->
<g id="edge1" class="edge"><title>Node1&#45;&gt;Node2</title>
<path fill="none" stroke="midnightblue" d="M155.45,-21C164.074,-21 172.656,-21 180.786,-21"/>
<polygon fill="midnightblue" stroke="midnightblue" points="155.33,-17.5001 145.33,-21 155.33,-24.5001 155.33,-17.5001"/>
</g>
<!-- Node3 -->
<g id="node3" class="node"><title>Node3</title>
<g id="a_node3"><a xlink:href="classsoftwarecontainer_1_1_software_container.html#af928f299cf15ecda5f625eaecd518f57" target="_top" xlink:title="Set the gateway configuration and activate them. ">
<polygon fill="white" stroke="black" points="321,-0.5 321,-41.5 477,-41.5 477,-0.5 321,-0.5"/>
<text text-anchor="start" x="329" y="-29.5" font-family="Helvetica,sans-Serif" font-size="10.00">softwarecontainer::</text>
<text text-anchor="start" x="329" y="-18.5" font-family="Helvetica,sans-Serif" font-size="10.00">SoftwareContainer::setGateway</text>
<text text-anchor="middle" x="399" y="-7.5" font-family="Helvetica,sans-Serif" font-size="10.00">Configs</text>
</a>
</g>
</g>
<!-- Node2&#45;&gt;Node3 -->
<g id="edge2" class="edge"><title>Node2&#45;&gt;Node3</title>
<path fill="none" stroke="midnightblue" d="M295.691,-21C303.928,-21 312.456,-21 320.915,-21"/>
<polygon fill="midnightblue" stroke="midnightblue" points="295.441,-17.5001 285.441,-21 295.441,-24.5001 295.441,-17.5001"/>
</g>
</g>
</svg>
