<?xml version="1.0" encoding="UTF-8" standalone="no"?>
<!DOCTYPE svg PUBLIC "-//W3C//DTD SVG 1.1//EN"
 "http://www.w3.org/Graphics/SVG/1.1/DTD/svg11.dtd">
<!-- Generated by graphviz version 2.38.0 (20140413.2041)
 -->
<!-- Title: Gateway::getContainer Pages: 1 -->
<svg width="522pt" height="78pt"
 viewBox="0.00 0.00 522.00 77.50" xmlns="http://www.w3.org/2000/svg" xmlns:xlink="http://www.w3.org/1999/xlink">
<g id="graph0" class="graph" transform="scale(1 1) rotate(0) translate(4 73.5)">
<title>Gateway::getContainer</title>
<polygon fill="white" stroke="none" points="-4,4 -4,-73.5 518,-73.5 518,4 -4,4"/>
<!-- Node1 -->
<g id="node1" class="node"><title>Node1</title>
<polygon fill="#bfbfbf" stroke="black" points="0,-22.5 0,-41.5 117,-41.5 117,-22.5 0,-22.5"/>
<text text-anchor="middle" x="58.5" y="-29.5" font-family="Helvetica,sans-Serif" font-size="10.00">Gateway::getContainer</text>
</g>
<!-- Node2 -->
<g id="node2" class="node"><title>Node2</title>
<g id="a_node2"><a xlink:href="class_gateway.html#a77348e5ce86b82302764b10e3203b42c" target="_top" xlink:title="Execute the given command in the container. ">
<polygon fill="white" stroke="black" points="162.5,-42.5 162.5,-61.5 308.5,-61.5 308.5,-42.5 162.5,-42.5"/>
<text text-anchor="middle" x="235.5" y="-49.5" font-family="Helvetica,sans-Serif" font-size="10.00">Gateway::executeInContainer</text>
</a>
</g>
</g>
<!-- Node1&#45;&gt;Node2 -->
<g id="edge1" class="edge"><title>Node1&#45;&gt;Node2</title>
<path fill="none" stroke="midnightblue" d="M127.265,-39.7446C138.786,-41.0613 150.789,-42.433 162.416,-43.7618"/>
<polygon fill="midnightblue" stroke="midnightblue" points="127.619,-36.2624 117.287,-38.6042 126.824,-43.2171 127.619,-36.2624"/>
</g>
<!-- Node4 -->
<g id="node4" class="node"><title>Node4</title>
<g id="a_node4"><a xlink:href="class_gateway.html#a828b2dfa811c7fcce82d34b502e65112" target="_top" xlink:title="Set an environment variable in the associated container. ">
<polygon fill="white" stroke="black" points="153,-3.5 153,-22.5 318,-22.5 318,-3.5 153,-3.5"/>
<text text-anchor="middle" x="235.5" y="-10.5" font-family="Helvetica,sans-Serif" font-size="10.00">Gateway::setEnvironmentVariable</text>
</a>
</g>
</g>
<!-- Node1&#45;&gt;Node4 -->
<g id="edge3" class="edge"><title>Node1&#45;&gt;Node4</title>
<path fill="none" stroke="midnightblue" d="M127.297,-24.6392C135.623,-23.7352 144.201,-22.8039 152.706,-21.8805"/>
<polygon fill="midnightblue" stroke="midnightblue" points="126.85,-21.167 117.287,-25.726 127.606,-28.1261 126.85,-21.167"/>
</g>
<!-- Node3 -->
<g id="node3" class="node"><title>Node3</title>
<g id="a_node3"><a xlink:href="class_network_gateway.html#ad19de4347291719074bde198fc61a94a" target="_top" xlink:title="Implements Gateway::activateGateway. ">
<polygon fill="white" stroke="black" points="367.5,-39 367.5,-69 500.5,-69 500.5,-39 367.5,-39"/>
<text text-anchor="start" x="375.5" y="-57" font-family="Helvetica,sans-Serif" font-size="10.00">NetworkGateway::activate</text>
<text text-anchor="middle" x="434" y="-46" font-family="Helvetica,sans-Serif" font-size="10.00">Gateway</text>
</a>
</g>
</g>
<!-- Node2&#45;&gt;Node3 -->
<g id="edge2" class="edge"><title>Node2&#45;&gt;Node3</title>
<path fill="none" stroke="midnightblue" d="M318.606,-52.8357C334.903,-53.0016 351.81,-53.1736 367.466,-53.333"/>
<polygon fill="midnightblue" stroke="midnightblue" points="318.589,-49.3354 308.554,-52.7334 318.517,-56.3351 318.589,-49.3354"/>
</g>
<!-- Node5 -->
<g id="node5" class="node"><title>Node5</title>
<g id="a_node5"><a xlink:href="class_d_bus_gateway.html#ab974b6b05b985d64ba5609c64e8b13fb" target="_top" xlink:title="Implements Gateway::activateGateway. ">
<polygon fill="white" stroke="black" points="354,-0.5 354,-19.5 514,-19.5 514,-0.5 354,-0.5"/>
<text text-anchor="middle" x="434" y="-7.5" font-family="Helvetica,sans-Serif" font-size="10.00">DBusGateway::activateGateway</text>
</a>
</g>
</g>
<!-- Node4&#45;&gt;Node5 -->
<g id="edge4" class="edge"><title>Node4&#45;&gt;Node5</title>
<path fill="none" stroke="midnightblue" d="M328.154,-11.6007C336.735,-11.4697 345.384,-11.3376 353.837,-11.2086"/>
<polygon fill="midnightblue" stroke="midnightblue" points="328.072,-8.10145 318.127,-11.7538 328.179,-15.1006 328.072,-8.10145"/>
</g>
</g>
</svg>
