<?xml version="1.0" encoding="UTF-8" standalone="no"?>
<!DOCTYPE svg PUBLIC "-//W3C//DTD SVG 1.1//EN"
 "http://www.w3.org/Graphics/SVG/1.1/DTD/svg11.dtd">
<!-- Generated by graphviz version 2.38.0 (20140413.2041)
 -->
<!-- Title: softwarecontainer::FileToolkitWithUndo::createSharedMountPoint Pages: 1 -->
<svg width="274pt" height="50pt"
 viewBox="0.00 0.00 274.00 50.00" xmlns="http://www.w3.org/2000/svg" xmlns:xlink="http://www.w3.org/1999/xlink">
<g id="graph0" class="graph" transform="scale(1 1) rotate(0) translate(4 46)">
<title>softwarecontainer::FileToolkitWithUndo::createSharedMountPoint</title>
<polygon fill="white" stroke="none" points="-4,4 -4,-46 270,-46 270,4 -4,4"/>
<!-- Node1 -->
<g id="node1" class="node"><title>Node1</title>
<polygon fill="#bfbfbf" stroke="black" points="0,-0.5 0,-41.5 130,-41.5 130,-0.5 0,-0.5"/>
<text text-anchor="start" x="8" y="-29.5" font-family="Helvetica,sans-Serif" font-size="10.00">softwarecontainer::</text>
<text text-anchor="start" x="8" y="-18.5" font-family="Helvetica,sans-Serif" font-size="10.00">FileToolkitWithUndo</text>
<text text-anchor="middle" x="65" y="-7.5" font-family="Helvetica,sans-Serif" font-size="10.00">::createSharedMountPoint</text>
</g>
<!-- Node2 -->
<g id="node2" class="node"><title>Node2</title>
<g id="a_node2"><a xlink:href="class_container.html#a0665ab6bbf3018c8cf478d3a0ee7f956" target="_top" xlink:title="Setup the container for preloading. ">
<polygon fill="white" stroke="black" points="166,-11.5 166,-30.5 266,-30.5 266,-11.5 166,-11.5"/>
<text text-anchor="middle" x="216" y="-18.5" font-family="Helvetica,sans-Serif" font-size="10.00">Container::initialize</text>
</a>
</g>
</g>
<!-- Node1&#45;&gt;Node2 -->
<g id="edge1" class="edge"><title>Node1&#45;&gt;Node2</title>
<path fill="none" stroke="midnightblue" d="M140.229,-21C148.922,-21 157.621,-21 165.851,-21"/>
<polygon fill="midnightblue" stroke="midnightblue" points="140.054,-17.5001 130.054,-21 140.054,-24.5001 140.054,-17.5001"/>
</g>
</g>
</svg>
