<?xml version="1.0" encoding="UTF-8" standalone="no"?>
<!DOCTYPE svg PUBLIC "-//W3C//DTD SVG 1.1//EN"
 "http://www.w3.org/Graphics/SVG/1.1/DTD/svg11.dtd">
<!-- Generated by graphviz version 2.38.0 (20140413.2041)
 -->
<!-- Title: softwarecontainer::Gateway::getContainer Pages: 1 -->
<svg width="534pt" height="99pt"
 viewBox="0.00 0.00 534.00 98.50" xmlns="http://www.w3.org/2000/svg" xmlns:xlink="http://www.w3.org/1999/xlink">
<g id="graph0" class="graph" transform="scale(1 1) rotate(0) translate(4 94.5)">
<title>softwarecontainer::Gateway::getContainer</title>
<polygon fill="white" stroke="none" points="-4,4 -4,-94.5 530,-94.5 530,4 -4,4"/>
<!-- Node1 -->
<g id="node1" class="node"><title>Node1</title>
<polygon fill="#bfbfbf" stroke="black" points="0,-33 0,-63 117,-63 117,-33 0,-33"/>
<text text-anchor="start" x="8" y="-51" font-family="Helvetica,sans-Serif" font-size="10.00">softwarecontainer::</text>
<text text-anchor="middle" x="58.5" y="-40" font-family="Helvetica,sans-Serif" font-size="10.00">Gateway::getContainer</text>
</g>
<!-- Node2 -->
<g id="node2" class="node"><title>Node2</title>
<g id="a_node2"><a xlink:href="classsoftwarecontainer_1_1_gateway.html#ae352621efe21b022c5829068e9019c44" target="_top" xlink:title="Execute the given command in the container. ">
<polygon fill="white" stroke="black" points="162.5,-58 162.5,-88 308.5,-88 308.5,-58 162.5,-58"/>
<text text-anchor="start" x="170.5" y="-76" font-family="Helvetica,sans-Serif" font-size="10.00">softwarecontainer::</text>
<text text-anchor="middle" x="235.5" y="-65" font-family="Helvetica,sans-Serif" font-size="10.00">Gateway::executeInContainer</text>
</a>
</g>
</g>
<!-- Node1&#45;&gt;Node2 -->
<g id="edge1" class="edge"><title>Node1&#45;&gt;Node2</title>
<path fill="none" stroke="midnightblue" d="M127.265,-57.6808C138.786,-59.3266 150.789,-61.0412 162.416,-62.7023"/>
<polygon fill="midnightblue" stroke="midnightblue" points="127.681,-54.2047 117.287,-56.2552 126.691,-61.1343 127.681,-54.2047"/>
</g>
<!-- Node4 -->
<g id="node4" class="node"><title>Node4</title>
<g id="a_node4"><a xlink:href="classsoftwarecontainer_1_1_gateway.html#a20f57ddde85b938d67104625e774a714" target="_top" xlink:title="Set an environment variable in the associated container. ">
<polygon fill="white" stroke="black" points="153,-8 153,-38 318,-38 318,-8 153,-8"/>
<text text-anchor="start" x="161" y="-26" font-family="Helvetica,sans-Serif" font-size="10.00">softwarecontainer::</text>
<text text-anchor="middle" x="235.5" y="-15" font-family="Helvetica,sans-Serif" font-size="10.00">Gateway::setEnvironmentVariable</text>
</a>
</g>
</g>
<!-- Node1&#45;&gt;Node4 -->
<g id="edge3" class="edge"><title>Node1&#45;&gt;Node4</title>
<path fill="none" stroke="midnightblue" d="M127.297,-38.3147C135.623,-37.1253 144.201,-35.8999 152.706,-34.6848"/>
<polygon fill="midnightblue" stroke="midnightblue" points="126.691,-34.8657 117.287,-39.7448 127.681,-41.7953 126.691,-34.8657"/>
</g>
<!-- Node3 -->
<g id="node3" class="node"><title>Node3</title>
<g id="a_node3"><a xlink:href="classsoftwarecontainer_1_1_network_gateway.html#a8a08792ecd43b1694222ca286514ee21" target="_top" xlink:title="Implements Gateway::activateGateway. ">
<polygon fill="white" stroke="black" points="354,-60 354,-90 526,-90 526,-60 354,-60"/>
<text text-anchor="start" x="362" y="-78" font-family="Helvetica,sans-Serif" font-size="10.00">softwarecontainer::</text>
<text text-anchor="middle" x="440" y="-67" font-family="Helvetica,sans-Serif" font-size="10.00">NetworkGateway::activateGateway</text>
</a>
</g>
</g>
<!-- Node2&#45;&gt;Node3 -->
<g id="edge2" class="edge"><title>Node2&#45;&gt;Node3</title>
<path fill="none" stroke="midnightblue" d="M318.829,-73.8131C330.417,-73.9276 342.348,-74.0454 353.985,-74.1603"/>
<polygon fill="midnightblue" stroke="midnightblue" points="318.784,-70.3126 308.75,-73.7136 318.714,-77.3123 318.784,-70.3126"/>
</g>
<!-- Node5 -->
<g id="node5" class="node"><title>Node5</title>
<g id="a_node5"><a xlink:href="classsoftwarecontainer_1_1_d_bus_gateway_instance.html#a8dc149286b57b259c95d53c130b9a129" target="_top" xlink:title="Implements Gateway::activateGateway. ">
<polygon fill="white" stroke="black" points="381,-0.5 381,-41.5 499,-41.5 499,-0.5 381,-0.5"/>
<text text-anchor="start" x="389" y="-29.5" font-family="Helvetica,sans-Serif" font-size="10.00">softwarecontainer::</text>
<text text-anchor="start" x="389" y="-18.5" font-family="Helvetica,sans-Serif" font-size="10.00">DBusGatewayInstance</text>
<text text-anchor="middle" x="440" y="-7.5" font-family="Helvetica,sans-Serif" font-size="10.00">::activateGateway</text>
</a>
</g>
</g>
<!-- Node4&#45;&gt;Node5 -->
<g id="edge4" class="edge"><title>Node4&#45;&gt;Node5</title>
<path fill="none" stroke="midnightblue" d="M328.677,-22.0896C346.435,-21.9142 364.569,-21.7351 380.869,-21.5741"/>
<polygon fill="midnightblue" stroke="midnightblue" points="328.246,-18.5936 318.281,-22.1923 328.315,-25.5933 328.246,-18.5936"/>
</g>
</g>
</svg>
