<?xml version="1.0" encoding="UTF-8" standalone="no"?>
<!DOCTYPE svg PUBLIC "-//W3C//DTD SVG 1.1//EN"
 "http://www.w3.org/Graphics/SVG/1.1/DTD/svg11.dtd">
<!-- Generated by graphviz version 2.38.0 (20140413.2041)
 -->
<!-- Title: softwarecontainer::DeviceNodeGateway::activateGateway Pages: 1 -->
<svg width="295pt" height="88pt"
 viewBox="0.00 0.00 295.00 88.00" xmlns="http://www.w3.org/2000/svg" xmlns:xlink="http://www.w3.org/1999/xlink">
<g id="graph0" class="graph" transform="scale(1 1) rotate(0) translate(4 84)">
<title>softwarecontainer::DeviceNodeGateway::activateGateway</title>
<polygon fill="white" stroke="none" points="-4,4 -4,-84 291,-84 291,4 -4,4"/>
<!-- Node1 -->
<g id="node1" class="node"><title>Node1</title>
<polygon fill="#bfbfbf" stroke="black" points="0,-19 0,-60 150,-60 150,-19 0,-19"/>
<text text-anchor="start" x="8" y="-48" font-family="Helvetica,sans-Serif" font-size="10.00">softwarecontainer::</text>
<text text-anchor="start" x="8" y="-37" font-family="Helvetica,sans-Serif" font-size="10.00">DeviceNodeGateway::activate</text>
<text text-anchor="middle" x="75" y="-26" font-family="Helvetica,sans-Serif" font-size="10.00">Gateway</text>
</g>
<!-- Node2 -->
<g id="node2" class="node"><title>Node2</title>
<g id="a_node2"><a xlink:href="namespacesoftwarecontainer.html#ae8835f968ab1d43b4a395b0097490734" target="_top" xlink:title="existsInFileSystem Check if path exists ">
<polygon fill="white" stroke="black" points="186,-49.5 186,-79.5 287,-79.5 287,-49.5 186,-49.5"/>
<text text-anchor="start" x="194" y="-67.5" font-family="Helvetica,sans-Serif" font-size="10.00">softwarecontainer::</text>
<text text-anchor="middle" x="236.5" y="-56.5" font-family="Helvetica,sans-Serif" font-size="10.00">existsInFileSystem</text>
</a>
</g>
</g>
<!-- Node1&#45;&gt;Node2 -->
<g id="edge1" class="edge"><title>Node1&#45;&gt;Node2</title>
<path fill="none" stroke="midnightblue" d="M150.147,-51.1217C158.706,-52.4634 167.353,-53.8186 175.689,-55.1252"/>
<polygon fill="midnightblue" stroke="midnightblue" points="175.254,-58.5997 185.676,-56.6905 176.338,-51.6842 175.254,-58.5997"/>
</g>
<!-- Node3 -->
<g id="node3" class="node"><title>Node3</title>
<g id="a_node3"><a xlink:href="namespacesoftwarecontainer.html#a44f64c34c09d1ffdb18428b41f0d9e91" target="_top" xlink:title="isDirectory Check if path is a directory ">
<polygon fill="white" stroke="black" points="186.5,-0.5 186.5,-30.5 286.5,-30.5 286.5,-0.5 186.5,-0.5"/>
<text text-anchor="start" x="194.5" y="-18.5" font-family="Helvetica,sans-Serif" font-size="10.00">softwarecontainer::</text>
<text text-anchor="middle" x="236.5" y="-7.5" font-family="Helvetica,sans-Serif" font-size="10.00">isDirectory</text>
</a>
</g>
</g>
<!-- Node1&#45;&gt;Node3 -->
<g id="edge2" class="edge"><title>Node1&#45;&gt;Node3</title>
<path fill="none" stroke="midnightblue" d="M150.147,-28.3431C158.822,-27.0377 167.586,-25.719 176.026,-24.449"/>
<polygon fill="midnightblue" stroke="midnightblue" points="176.764,-27.8774 186.132,-22.9284 175.723,-20.9554 176.764,-27.8774"/>
</g>
</g>
</svg>
