<?xml version="1.0" encoding="UTF-8" standalone="no"?>
<!DOCTYPE svg PUBLIC "-//W3C//DTD SVG 1.1//EN"
 "http://www.w3.org/Graphics/SVG/1.1/DTD/svg11.dtd">
<!-- Generated by graphviz version 2.38.0 (20140413.2041)
 -->
<!-- Title: softwarecontainer::FileToolkitWithUndo Pages: 1 -->
<svg width="324pt" height="106pt"
 viewBox="0.00 0.00 323.50 106.00" xmlns="http://www.w3.org/2000/svg" xmlns:xlink="http://www.w3.org/1999/xlink">
<g id="graph0" class="graph" transform="scale(1 1) rotate(0) translate(4 102)">
<title>softwarecontainer::FileToolkitWithUndo</title>
<polygon fill="white" stroke="none" points="-4,4 -4,-102 319.5,-102 319.5,4 -4,4"/>
<!-- Node1 -->
<g id="node1" class="node"><title>Node1</title>
<polygon fill="#bfbfbf" stroke="black" points="81.5,-67.5 81.5,-97.5 189.5,-97.5 189.5,-67.5 81.5,-67.5"/>
<text text-anchor="start" x="89.5" y="-85.5" font-family="Helvetica,sans-Serif" font-size="10.00">softwarecontainer::</text>
<text text-anchor="middle" x="135.5" y="-74.5" font-family="Helvetica,sans-Serif" font-size="10.00">FileToolkitWithUndo</text>
</g>
<!-- Node2 -->
<g id="node2" class="node"><title>Node2</title>
<g id="a_node2"><a xlink:href="class_container.html" target="_top" xlink:title="The Container class is an abstraction of the specific containment technology used. ">
<polygon fill="white" stroke="black" points="0,-6 0,-25 63,-25 63,-6 0,-6"/>
<text text-anchor="middle" x="31.5" y="-13" font-family="Helvetica,sans-Serif" font-size="10.00">Container</text>
</a>
</g>
</g>
<!-- Node1&#45;&gt;Node2 -->
<g id="edge1" class="edge"><title>Node1&#45;&gt;Node2</title>
<path fill="none" stroke="#8b1a1a" d="M104.26,-61.9747C84.5391,-49.6494 60.0527,-34.3455 45.1112,-25.007"/>
<polygon fill="#8b1a1a" stroke="#8b1a1a" points="102.599,-65.0639 112.934,-67.396 106.309,-59.1279 102.599,-65.0639"/>
</g>
<!-- Node3 -->
<g id="node3" class="node"><title>Node3</title>
<g id="a_node3"><a xlink:href="classsoftwarecontainer_1_1_software_container.html" target="_top" xlink:title="softwarecontainer::\lSoftwareContainer">
<polygon fill="white" stroke="black" points="81.5,-0.5 81.5,-30.5 189.5,-30.5 189.5,-0.5 81.5,-0.5"/>
<text text-anchor="start" x="89.5" y="-18.5" font-family="Helvetica,sans-Serif" font-size="10.00">softwarecontainer::</text>
<text text-anchor="middle" x="135.5" y="-7.5" font-family="Helvetica,sans-Serif" font-size="10.00">SoftwareContainer</text>
</a>
</g>
</g>
<!-- Node1&#45;&gt;Node3 -->
<g id="edge2" class="edge"><title>Node1&#45;&gt;Node3</title>
<path fill="none" stroke="#8b1a1a" d="M135.5,-57.1081C135.5,-48.1539 135.5,-38.3227 135.5,-30.5765"/>
<polygon fill="#8b1a1a" stroke="#8b1a1a" points="132,-57.3959 135.5,-67.396 139,-57.396 132,-57.3959"/>
</g>
<!-- Node4 -->
<g id="node4" class="node"><title>Node4</title>
<g id="a_node4"><a xlink:href="classsoftwarecontainer_1_1_workspace.html" target="_top" xlink:title="Holds information about the container workspace. ">
<polygon fill="white" stroke="black" points="207.5,-0.5 207.5,-30.5 315.5,-30.5 315.5,-0.5 207.5,-0.5"/>
<text text-anchor="start" x="215.5" y="-18.5" font-family="Helvetica,sans-Serif" font-size="10.00">softwarecontainer::</text>
<text text-anchor="middle" x="261.5" y="-7.5" font-family="Helvetica,sans-Serif" font-size="10.00">Workspace</text>
</a>
</g>
</g>
<!-- Node1&#45;&gt;Node4 -->
<g id="edge3" class="edge"><title>Node1&#45;&gt;Node4</title>
<path fill="none" stroke="#8b1a1a" d="M171.915,-62.7143C191.787,-52.4631 215.98,-39.9826 234.213,-30.5765"/>
<polygon fill="#8b1a1a" stroke="#8b1a1a" points="170.123,-59.7008 162.84,-67.396 173.332,-65.9218 170.123,-59.7008"/>
</g>
</g>
</svg>
