<?xml version="1.0" encoding="UTF-8" standalone="no"?>
<!DOCTYPE svg PUBLIC "-//W3C//DTD SVG 1.1//EN"
 "http://www.w3.org/Graphics/SVG/1.1/DTD/svg11.dtd">
<!-- Generated by graphviz version 2.38.0 (20140413.2041)
 -->
<!-- Title: softwarecontainer::Gateway::id Pages: 1 -->
<svg width="408pt" height="176pt"
 viewBox="0.00 0.00 408.00 176.00" xmlns="http://www.w3.org/2000/svg" xmlns:xlink="http://www.w3.org/1999/xlink">
<g id="graph0" class="graph" transform="scale(1 1) rotate(0) translate(4 172)">
<title>softwarecontainer::Gateway::id</title>
<polygon fill="white" stroke="none" points="-4,4 -4,-172 404,-172 404,4 -4,4"/>
<!-- Node1 -->
<g id="node1" class="node"><title>Node1</title>
<polygon fill="#bfbfbf" stroke="black" points="0,-71.5 0,-101.5 100,-101.5 100,-71.5 0,-71.5"/>
<text text-anchor="start" x="8" y="-89.5" font-family="Helvetica,sans-Serif" font-size="10.00">softwarecontainer::</text>
<text text-anchor="middle" x="50" y="-78.5" font-family="Helvetica,sans-Serif" font-size="10.00">Gateway::id</text>
</g>
<!-- Node2 -->
<g id="node2" class="node"><title>Node2</title>
<g id="a_node2"><a xlink:href="classsoftwarecontainer_1_1_gateway.html#abd136fffb30a625ca5ab4abe06adc680" target="_top" xlink:title="Applies any configuration set by setConfig() ">
<polygon fill="white" stroke="black" points="138,-137.5 138,-167.5 238,-167.5 238,-137.5 138,-137.5"/>
<text text-anchor="start" x="146" y="-155.5" font-family="Helvetica,sans-Serif" font-size="10.00">softwarecontainer::</text>
<text text-anchor="middle" x="188" y="-144.5" font-family="Helvetica,sans-Serif" font-size="10.00">Gateway::activate</text>
</a>
</g>
</g>
<!-- Node1&#45;&gt;Node2 -->
<g id="edge1" class="edge"><title>Node1&#45;&gt;Node2</title>
<path fill="none" stroke="midnightblue" d="M91.3709,-106.092C112.032,-116.119 136.795,-128.136 155.944,-137.429"/>
<polygon fill="midnightblue" stroke="midnightblue" points="92.7258,-102.859 82.2011,-101.642 89.6696,-109.157 92.7258,-102.859"/>
</g>
<!-- Node3 -->
<g id="node3" class="node"><title>Node3</title>
<g id="a_node3"><a xlink:href="classsoftwarecontainer_1_1_d_bus_gateway_instance.html#a989f08074e0f55b7af0f81815cae18ad" target="_top" xlink:title="Spawn the proxy and use the supplied path for the socket. ">
<polygon fill="white" stroke="black" points="276,-41 276,-82 400,-82 400,-41 276,-41"/>
<text text-anchor="start" x="284" y="-70" font-family="Helvetica,sans-Serif" font-size="10.00">softwarecontainer::</text>
<text text-anchor="start" x="284" y="-59" font-family="Helvetica,sans-Serif" font-size="10.00">DBusGatewayInstance</text>
<text text-anchor="middle" x="338" y="-48" font-family="Helvetica,sans-Serif" font-size="10.00">::DBusGatewayInstance</text>
</a>
</g>
</g>
<!-- Node1&#45;&gt;Node3 -->
<g id="edge2" class="edge"><title>Node1&#45;&gt;Node3</title>
<path fill="none" stroke="midnightblue" d="M110.426,-92.1705C147.8,-94.5712 196.934,-95.5914 240,-89.5 251.801,-87.8308 264.177,-85.0727 275.99,-81.9221"/>
<polygon fill="midnightblue" stroke="midnightblue" points="110.429,-88.6624 100.211,-91.4615 109.945,-95.6456 110.429,-88.6624"/>
</g>
<!-- Node4 -->
<g id="node4" class="node"><title>Node4</title>
<g id="a_node4"><a xlink:href="classsoftwarecontainer_1_1_gateway.html#ae32068e630d51cb3e641e974eed2614c" target="_top" xlink:title="Configure this gateway according to the supplied JSON configuration string. ">
<polygon fill="white" stroke="black" points="136,-49.5 136,-79.5 240,-79.5 240,-49.5 136,-49.5"/>
<text text-anchor="start" x="144" y="-67.5" font-family="Helvetica,sans-Serif" font-size="10.00">softwarecontainer::</text>
<text text-anchor="middle" x="188" y="-56.5" font-family="Helvetica,sans-Serif" font-size="10.00">Gateway::setConfig</text>
</a>
</g>
</g>
<!-- Node1&#45;&gt;Node4 -->
<g id="edge3" class="edge"><title>Node1&#45;&gt;Node4</title>
<path fill="none" stroke="midnightblue" d="M110.012,-76.954C118.56,-75.5712 127.301,-74.1573 135.681,-72.8016"/>
<polygon fill="midnightblue" stroke="midnightblue" points="109.412,-73.5054 100.099,-78.5575 110.53,-80.4156 109.412,-73.5054"/>
</g>
<!-- Node5 -->
<g id="node5" class="node"><title>Node5</title>
<g id="a_node5"><a xlink:href="classsoftwarecontainer_1_1_gateway.html#af38a5c8ee0ff839a0134eefce61ba7a3" target="_top" xlink:title="Restore system to the state prior to launching of gateway. ">
<polygon fill="white" stroke="black" points="137.5,-0.5 137.5,-30.5 238.5,-30.5 238.5,-0.5 137.5,-0.5"/>
<text text-anchor="start" x="145.5" y="-18.5" font-family="Helvetica,sans-Serif" font-size="10.00">softwarecontainer::</text>
<text text-anchor="middle" x="188" y="-7.5" font-family="Helvetica,sans-Serif" font-size="10.00">Gateway::teardown</text>
</a>
</g>
</g>
<!-- Node1&#45;&gt;Node5 -->
<g id="edge4" class="edge"><title>Node1&#45;&gt;Node5</title>
<path fill="none" stroke="midnightblue" d="M87.3722,-66.3997C102.359,-58.2263 119.943,-48.7759 136,-40.5 142.398,-37.2021 149.295,-33.7522 155.885,-30.5051"/>
<polygon fill="midnightblue" stroke="midnightblue" points="85.5056,-63.4313 78.413,-71.3018 88.8657,-69.5721 85.5056,-63.4313"/>
</g>
<!-- Node5&#45;&gt;Node3 -->
<g id="edge5" class="edge"><title>Node5&#45;&gt;Node3</title>
<path fill="none" stroke="midnightblue" d="M247.167,-33.5789C256.634,-36.5212 266.463,-39.5763 275.995,-42.539"/>
<polygon fill="midnightblue" stroke="midnightblue" points="248.049,-30.188 237.461,-30.5621 245.971,-36.8725 248.049,-30.188"/>
</g>
</g>
</svg>
