<?xml version="1.0" encoding="UTF-8" standalone="no"?>
<!DOCTYPE svg PUBLIC "-//W3C//DTD SVG 1.1//EN"
 "http://www.w3.org/Graphics/SVG/1.1/DTD/svg11.dtd">
<!-- Generated by graphviz version 2.38.0 (20140413.2041)
 -->
<!-- Title: Gateway::id Pages: 1 -->
<svg width="817pt" height="104pt"
 viewBox="0.00 0.00 817.00 104.00" xmlns="http://www.w3.org/2000/svg" xmlns:xlink="http://www.w3.org/1999/xlink">
<g id="graph0" class="graph" transform="scale(1 1) rotate(0) translate(4 100)">
<title>Gateway::id</title>
<polygon fill="white" stroke="none" points="-4,4 -4,-100 813,-100 813,4 -4,4"/>
<!-- Node1 -->
<g id="node1" class="node"><title>Node1</title>
<polygon fill="#bfbfbf" stroke="black" points="0,-38.5 0,-57.5 71,-57.5 71,-38.5 0,-38.5"/>
<text text-anchor="middle" x="35.5" y="-45.5" font-family="Helvetica,sans-Serif" font-size="10.00">Gateway::id</text>
</g>
<!-- Node2 -->
<g id="node2" class="node"><title>Node2</title>
<g id="a_node2"><a xlink:href="class_gateway.html#aac80886a35b80d8003051e6926b59937" target="_top" xlink:title="Applies any configuration set by setConfig() ">
<polygon fill="white" stroke="black" points="110,-76.5 110,-95.5 211,-95.5 211,-76.5 110,-76.5"/>
<text text-anchor="middle" x="160.5" y="-83.5" font-family="Helvetica,sans-Serif" font-size="10.00">Gateway::activate</text>
</a>
</g>
</g>
<!-- Node1&#45;&gt;Node2 -->
<g id="edge1" class="edge"><title>Node1&#45;&gt;Node2</title>
<path fill="none" stroke="midnightblue" d="M77.5445,-60.6804C94.1638,-65.8148 113.032,-71.6441 128.472,-76.4141"/>
<polygon fill="midnightblue" stroke="midnightblue" points="78.1257,-57.1968 67.5381,-57.589 76.0594,-63.8849 78.1257,-57.1968"/>
</g>
<!-- Node3 -->
<g id="node3" class="node"><title>Node3</title>
<g id="a_node3"><a xlink:href="classsoftwarecontainer_1_1_software_container.html#af928f299cf15ecda5f625eaecd518f57" target="_top" xlink:title="Set the gateway configuration and activate them. ">
<polygon fill="white" stroke="black" points="250,-46.5 250,-87.5 417,-87.5 417,-46.5 250,-46.5"/>
<text text-anchor="start" x="258" y="-75.5" font-family="Helvetica,sans-Serif" font-size="10.00">softwarecontainer::</text>
<text text-anchor="start" x="258" y="-64.5" font-family="Helvetica,sans-Serif" font-size="10.00">SoftwareContainer::setGateway</text>
<text text-anchor="middle" x="333.5" y="-53.5" font-family="Helvetica,sans-Serif" font-size="10.00">Configs</text>
</a>
</g>
</g>
<!-- Node1&#45;&gt;Node3 -->
<g id="edge5" class="edge"><title>Node1&#45;&gt;Node3</title>
<path fill="none" stroke="midnightblue" d="M81.2492,-50.8724C125.802,-53.7322 195.233,-58.1889 249.827,-61.6933"/>
<polygon fill="midnightblue" stroke="midnightblue" points="81.238,-47.3646 71.0343,-50.2167 80.7895,-54.3502 81.238,-47.3646"/>
</g>
<!-- Node6 -->
<g id="node6" class="node"><title>Node6</title>
<g id="a_node6"><a xlink:href="class_gateway.html#a12bc56e21985047b61012932394b4512" target="_top" xlink:title="Restore system to the state prior to launching of gateway. ">
<polygon fill="white" stroke="black" points="107,-0.5 107,-19.5 214,-19.5 214,-0.5 107,-0.5"/>
<text text-anchor="middle" x="160.5" y="-7.5" font-family="Helvetica,sans-Serif" font-size="10.00">Gateway::teardown</text>
</a>
</g>
</g>
<!-- Node1&#45;&gt;Node6 -->
<g id="edge6" class="edge"><title>Node1&#45;&gt;Node6</title>
<path fill="none" stroke="midnightblue" d="M77.5445,-35.3196C94.1638,-30.1852 113.032,-24.3559 128.472,-19.5859"/>
<polygon fill="midnightblue" stroke="midnightblue" points="76.0594,-32.1151 67.5381,-38.411 78.1257,-38.8032 76.0594,-32.1151"/>
</g>
<!-- Node2&#45;&gt;Node3 -->
<g id="edge2" class="edge"><title>Node2&#45;&gt;Node3</title>
<path fill="none" stroke="midnightblue" d="M221.517,-79.3314C230.643,-78.3175 240.195,-77.2561 249.702,-76.1998"/>
<polygon fill="midnightblue" stroke="midnightblue" points="220.972,-75.8703 211.42,-80.4533 221.745,-82.8275 220.972,-75.8703"/>
</g>
<!-- Node4 -->
<g id="node4" class="node"><title>Node4</title>
<g id="a_node4"><a xlink:href="classsoftwarecontainer_1_1_software_container.html#a7db71d975b5bbfebe48e50769cf726b9" target="_top" xlink:title="Continues the &#39;launch&#39; phase by allowing gateway configurations to be set. ">
<polygon fill="white" stroke="black" points="453,-46.5 453,-87.5 639,-87.5 639,-46.5 453,-46.5"/>
<text text-anchor="start" x="461" y="-75.5" font-family="Helvetica,sans-Serif" font-size="10.00">softwarecontainer::</text>
<text text-anchor="start" x="461" y="-64.5" font-family="Helvetica,sans-Serif" font-size="10.00">SoftwareContainer::updateGateway</text>
<text text-anchor="middle" x="546" y="-53.5" font-family="Helvetica,sans-Serif" font-size="10.00">Configuration</text>
</a>
</g>
</g>
<!-- Node3&#45;&gt;Node4 -->
<g id="edge3" class="edge"><title>Node3&#45;&gt;Node4</title>
<path fill="none" stroke="midnightblue" d="M427.363,-67C435.841,-67 444.428,-67 452.899,-67"/>
<polygon fill="midnightblue" stroke="midnightblue" points="427.091,-63.5001 417.091,-67 427.091,-70.5001 427.091,-63.5001"/>
</g>
<!-- Node5 -->
<g id="node5" class="node"><title>Node5</title>
<g id="a_node5"><a xlink:href="classsoftwarecontainer_1_1_software_container_agent.html#ae19799cb9be607a08a674179713adcf8" target="_top" xlink:title="Set configuration for the container gateways. ">
<polygon fill="white" stroke="black" points="675,-46.5 675,-87.5 809,-87.5 809,-46.5 675,-46.5"/>
<text text-anchor="start" x="683" y="-75.5" font-family="Helvetica,sans-Serif" font-size="10.00">softwarecontainer::</text>
<text text-anchor="start" x="683" y="-64.5" font-family="Helvetica,sans-Serif" font-size="10.00">SoftwareContainerAgent</text>
<text text-anchor="middle" x="742" y="-53.5" font-family="Helvetica,sans-Serif" font-size="10.00">::setGatewayConfigs</text>
</a>
</g>
</g>
<!-- Node4&#45;&gt;Node5 -->
<g id="edge4" class="edge"><title>Node4&#45;&gt;Node5</title>
<path fill="none" stroke="midnightblue" d="M649.324,-67C657.965,-67 666.549,-67 674.802,-67"/>
<polygon fill="midnightblue" stroke="midnightblue" points="649.171,-63.5001 639.171,-67 649.171,-70.5001 649.171,-63.5001"/>
</g>
</g>
</svg>
