<?xml version="1.0" encoding="UTF-8" standalone="no"?>
<!DOCTYPE svg PUBLIC "-//W3C//DTD SVG 1.1//EN"
 "http://www.w3.org/Graphics/SVG/1.1/DTD/svg11.dtd">
<!-- Generated by graphviz version 2.38.0 (20140413.2041)
 -->
<!-- Title: softwarecontainer::WaylandGateway::readConfigElement Pages: 1 -->
<svg width="291pt" height="50pt"
 viewBox="0.00 0.00 291.00 50.00" xmlns="http://www.w3.org/2000/svg" xmlns:xlink="http://www.w3.org/1999/xlink">
<g id="graph0" class="graph" transform="scale(1 1) rotate(0) translate(4 46)">
<title>softwarecontainer::WaylandGateway::readConfigElement</title>
<polygon fill="white" stroke="none" points="-4,4 -4,-46 287,-46 287,4 -4,4"/>
<!-- Node1 -->
<g id="node1" class="node"><title>Node1</title>
<polygon fill="#bfbfbf" stroke="black" points="0,-0.5 0,-41.5 147,-41.5 147,-0.5 0,-0.5"/>
<text text-anchor="start" x="8" y="-29.5" font-family="Helvetica,sans-Serif" font-size="10.00">softwarecontainer::</text>
<text text-anchor="start" x="8" y="-18.5" font-family="Helvetica,sans-Serif" font-size="10.00">WaylandGateway::readConfig</text>
<text text-anchor="middle" x="73.5" y="-7.5" font-family="Helvetica,sans-Serif" font-size="10.00">Element</text>
</g>
<!-- Node2 -->
<g id="node2" class="node"><title>Node2</title>
<g id="a_node2"><a xlink:href="classsoftwarecontainer_1_1_j_s_o_n_parser.html#a7ea50df505b43684c4a1d82ca6cb6e82" target="_top" xlink:title="Reads a string from a JSON Object. ">
<polygon fill="white" stroke="black" points="183,-6 183,-36 283,-36 283,-6 183,-6"/>
<text text-anchor="start" x="191" y="-24" font-family="Helvetica,sans-Serif" font-size="10.00">softwarecontainer::</text>
<text text-anchor="middle" x="233" y="-13" font-family="Helvetica,sans-Serif" font-size="10.00">JSONParser::read</text>
</a>
</g>
</g>
<!-- Node1&#45;&gt;Node2 -->
<g id="edge1" class="edge"><title>Node1&#45;&gt;Node2</title>
<path fill="none" stroke="midnightblue" d="M147.257,-21C155.852,-21 164.543,-21 172.917,-21"/>
<polygon fill="midnightblue" stroke="midnightblue" points="172.947,-24.5001 182.947,-21 172.947,-17.5001 172.947,-24.5001"/>
</g>
</g>
</svg>
