<?xml version="1.0" encoding="UTF-8" standalone="no"?>
<!DOCTYPE svg PUBLIC "-//W3C//DTD SVG 1.1//EN"
 "http://www.w3.org/Graphics/SVG/1.1/DTD/svg11.dtd">
<!-- Generated by graphviz version 2.38.0 (20140413.2041)
 -->
<!-- Title: softwarecontainer::NetworkGateway::activateGateway Pages: 1 -->
<svg width="506pt" height="225pt"
 viewBox="0.00 0.00 506.00 224.50" xmlns="http://www.w3.org/2000/svg" xmlns:xlink="http://www.w3.org/1999/xlink">
<g id="graph0" class="graph" transform="scale(1 1) rotate(0) translate(4 220.5)">
<title>softwarecontainer::NetworkGateway::activateGateway</title>
<polygon fill="white" stroke="none" points="-4,4 -4,-220.5 502,-220.5 502,4 -4,4"/>
<!-- Node1 -->
<g id="node1" class="node"><title>Node1</title>
<polygon fill="#bfbfbf" stroke="black" points="0,-82.5 0,-112.5 172,-112.5 172,-82.5 0,-82.5"/>
<text text-anchor="start" x="8" y="-100.5" font-family="Helvetica,sans-Serif" font-size="10.00">softwarecontainer::</text>
<text text-anchor="middle" x="86" y="-89.5" font-family="Helvetica,sans-Serif" font-size="10.00">NetworkGateway::activateGateway</text>
</g>
<!-- Node2 -->
<g id="node2" class="node"><title>Node2</title>
<g id="a_node2"><a xlink:href="classsoftwarecontainer_1_1_network_gateway_functions.html#acd4156881bb546b07867ff8345404558" target="_top" xlink:title="Generate IP address for the container. ">
<polygon fill="white" stroke="black" points="208,-175 208,-216 343,-216 343,-175 208,-175"/>
<text text-anchor="start" x="216" y="-204" font-family="Helvetica,sans-Serif" font-size="10.00">softwarecontainer::</text>
<text text-anchor="start" x="216" y="-193" font-family="Helvetica,sans-Serif" font-size="10.00">NetworkGatewayFunctions</text>
<text text-anchor="middle" x="275.5" y="-182" font-family="Helvetica,sans-Serif" font-size="10.00">::generateIP</text>
</a>
</g>
</g>
<!-- Node1&#45;&gt;Node2 -->
<g id="edge1" class="edge"><title>Node1&#45;&gt;Node2</title>
<path fill="none" stroke="midnightblue" d="M111.604,-112.565C135.758,-127.105 173.844,-149.375 208,-166.5 210.727,-167.867 213.533,-169.235 216.379,-170.592"/>
<polygon fill="midnightblue" stroke="midnightblue" points="215.013,-173.817 225.555,-174.87 217.971,-167.472 215.013,-173.817"/>
</g>
<!-- Node3 -->
<g id="node3" class="node"><title>Node3</title>
<g id="a_node3"><a xlink:href="classsoftwarecontainer_1_1_gateway.html#a6f0a60c9f29ea869916f7524085b3e5f" target="_top" xlink:title="Get a handle to the associated container. ">
<polygon fill="white" stroke="black" points="217,-126.5 217,-156.5 334,-156.5 334,-126.5 217,-126.5"/>
<text text-anchor="start" x="225" y="-144.5" font-family="Helvetica,sans-Serif" font-size="10.00">softwarecontainer::</text>
<text text-anchor="middle" x="275.5" y="-133.5" font-family="Helvetica,sans-Serif" font-size="10.00">Gateway::getContainer</text>
</a>
</g>
</g>
<!-- Node1&#45;&gt;Node3 -->
<g id="edge2" class="edge"><title>Node1&#45;&gt;Node3</title>
<path fill="none" stroke="midnightblue" d="M151.002,-112.519C168.994,-116.741 188.617,-121.346 206.816,-125.617"/>
<polygon fill="midnightblue" stroke="midnightblue" points="206.226,-129.073 216.761,-127.951 207.825,-122.258 206.226,-129.073"/>
</g>
<!-- Node4 -->
<g id="node4" class="node"><title>Node4</title>
<g id="a_node4"><a xlink:href="classsoftwarecontainer_1_1_gateway.html#a5e1b860ea7c1ed7b69d2e5dd7021a527" target="_top" xlink:title="Check if the gateway has an associated container. ">
<polygon fill="white" stroke="black" points="379,-95.5 379,-125.5 498,-125.5 498,-95.5 379,-95.5"/>
<text text-anchor="start" x="387" y="-113.5" font-family="Helvetica,sans-Serif" font-size="10.00">softwarecontainer::</text>
<text text-anchor="middle" x="438.5" y="-102.5" font-family="Helvetica,sans-Serif" font-size="10.00">Gateway::hasContainer</text>
</a>
</g>
</g>
<!-- Node1&#45;&gt;Node4 -->
<g id="edge4" class="edge"><title>Node1&#45;&gt;Node4</title>
<path fill="none" stroke="midnightblue" d="M172.294,-100.664C232.574,-102.899 312.337,-105.858 368.592,-107.944"/>
<polygon fill="midnightblue" stroke="midnightblue" points="368.69,-111.45 378.813,-108.323 368.949,-104.455 368.69,-111.45"/>
</g>
<!-- Node5 -->
<g id="node5" class="node"><title>Node5</title>
<g id="a_node5"><a xlink:href="namespacesoftwarecontainer.html#a51a25e6a54b7bb79fc5b4ce8902a31a4" target="_top" xlink:title="isError Check if ReturnCode indicates Error or not ">
<polygon fill="white" stroke="black" points="388.5,-30.5 388.5,-60.5 488.5,-60.5 488.5,-30.5 388.5,-30.5"/>
<text text-anchor="start" x="396.5" y="-48.5" font-family="Helvetica,sans-Serif" font-size="10.00">softwarecontainer::</text>
<text text-anchor="middle" x="438.5" y="-37.5" font-family="Helvetica,sans-Serif" font-size="10.00">isError</text>
</a>
</g>
</g>
<!-- Node1&#45;&gt;Node5 -->
<g id="edge5" class="edge"><title>Node1&#45;&gt;Node5</title>
<path fill="none" stroke="midnightblue" d="M172.294,-84.8459C236.103,-75.3791 321.743,-62.6737 378.222,-54.2945"/>
<polygon fill="midnightblue" stroke="midnightblue" points="379.039,-57.7117 388.417,-52.782 378.011,-50.7875 379.039,-57.7117"/>
</g>
<!-- Node6 -->
<g id="node6" class="node"><title>Node6</title>
<g id="a_node6"><a xlink:href="namespacesoftwarecontainer.html#a7e308629b69d1bcc3bc5e8ceac9b5a2a" target="_top" xlink:title="isSuccess Check if ReturnCode indicates Success or not ">
<polygon fill="white" stroke="black" points="225.5,-0.5 225.5,-30.5 325.5,-30.5 325.5,-0.5 225.5,-0.5"/>
<text text-anchor="start" x="233.5" y="-18.5" font-family="Helvetica,sans-Serif" font-size="10.00">softwarecontainer::</text>
<text text-anchor="middle" x="275.5" y="-7.5" font-family="Helvetica,sans-Serif" font-size="10.00">isSuccess</text>
</a>
</g>
</g>
<!-- Node1&#45;&gt;Node6 -->
<g id="edge6" class="edge"><title>Node1&#45;&gt;Node6</title>
<path fill="none" stroke="midnightblue" d="M121.39,-82.4599C152.086,-69.0359 197.203,-49.3044 230.516,-34.7357"/>
<polygon fill="midnightblue" stroke="midnightblue" points="232.251,-37.7971 240.011,-30.5833 229.446,-31.3836 232.251,-37.7971"/>
</g>
<!-- Node3&#45;&gt;Node4 -->
<g id="edge3" class="edge"><title>Node3&#45;&gt;Node4</title>
<path fill="none" stroke="midnightblue" d="M334.17,-130.396C345.406,-128.232 357.288,-125.945 368.838,-123.721"/>
<polygon fill="midnightblue" stroke="midnightblue" points="369.72,-127.115 378.878,-121.787 368.397,-120.241 369.72,-127.115"/>
</g>
<!-- Node6&#45;&gt;Node5 -->
<g id="edge7" class="edge"><title>Node6&#45;&gt;Node5</title>
<path fill="none" stroke="midnightblue" d="M325.68,-24.664C342.3,-27.7609 361.031,-31.2511 378.342,-34.4768"/>
<polygon fill="midnightblue" stroke="midnightblue" points="377.872,-37.9493 388.344,-36.3405 379.154,-31.0678 377.872,-37.9493"/>
</g>
</g>
</svg>
