<?xml version="1.0" encoding="UTF-8" standalone="no"?>
<!DOCTYPE svg PUBLIC "-//W3C//DTD SVG 1.1//EN"
 "http://www.w3.org/Graphics/SVG/1.1/DTD/svg11.dtd">
<!-- Generated by graphviz version 2.38.0 (20140413.2041)
 -->
<!-- Title: softwarecontainer::SoftwareContainerError Pages: 1 -->
<svg width="591pt" height="970pt"
 viewBox="0.00 0.00 591.00 970.00" xmlns="http://www.w3.org/2000/svg" xmlns:xlink="http://www.w3.org/1999/xlink">
<g id="graph0" class="graph" transform="scale(1 1) rotate(0) translate(4 966)">
<title>softwarecontainer::SoftwareContainerError</title>
<polygon fill="white" stroke="none" points="-4,4 -4,-966 587,-966 587,4 -4,4"/>
<!-- Node1 -->
<g id="node1" class="node"><title>Node1</title>
<polygon fill="#bfbfbf" stroke="black" points="114,-269.5 114,-299.5 233,-299.5 233,-269.5 114,-269.5"/>
<text text-anchor="start" x="122" y="-287.5" font-family="Helvetica,sans-Serif" font-size="10.00">softwarecontainer::</text>
<text text-anchor="middle" x="173.5" y="-276.5" font-family="Helvetica,sans-Serif" font-size="10.00">SoftwareContainerError</text>
</g>
<!-- Node3 -->
<g id="node3" class="node"><title>Node3</title>
<g id="a_node3"><a xlink:href="classsoftwarecontainer_1_1_cgroups_gateway_error.html" target="_top" xlink:title="softwarecontainer::\lCgroupsGatewayError">
<polygon fill="white" stroke="black" points="284.5,-833.5 284.5,-863.5 397.5,-863.5 397.5,-833.5 284.5,-833.5"/>
<text text-anchor="start" x="292.5" y="-851.5" font-family="Helvetica,sans-Serif" font-size="10.00">softwarecontainer::</text>
<text text-anchor="middle" x="341" y="-840.5" font-family="Helvetica,sans-Serif" font-size="10.00">CgroupsGatewayError</text>
</a>
</g>
</g>
<!-- Node1&#45;&gt;Node3 -->
<g id="edge2" class="edge"><title>Node1&#45;&gt;Node3</title>
<path fill="none" stroke="midnightblue" d="M180.977,-309.554C195.779,-366.463 233.545,-509.746 269,-628.5 292.136,-705.99 322.838,-797.793 334.862,-833.369"/>
<polygon fill="midnightblue" stroke="midnightblue" points="184.309,-308.457 178.409,-299.657 177.533,-310.215 184.309,-308.457"/>
</g>
<!-- Node8 -->
<g id="node8" class="node"><title>Node8</title>
<g id="a_node8"><a xlink:href="classsoftwarecontainer_1_1_config_error.html" target="_top" xlink:title="softwarecontainer::\lConfigError">
<polygon fill="white" stroke="black" points="291,-588.5 291,-618.5 391,-618.5 391,-588.5 291,-588.5"/>
<text text-anchor="start" x="299" y="-606.5" font-family="Helvetica,sans-Serif" font-size="10.00">softwarecontainer::</text>
<text text-anchor="middle" x="341" y="-595.5" font-family="Helvetica,sans-Serif" font-size="10.00">ConfigError</text>
</a>
</g>
</g>
<!-- Node1&#45;&gt;Node8 -->
<g id="edge7" class="edge"><title>Node1&#45;&gt;Node8</title>
<path fill="none" stroke="midnightblue" d="M185.333,-308.656C202.299,-346.112 236.562,-420.267 269,-481.5 289.764,-520.696 316.659,-565.453 330.635,-588.314"/>
<polygon fill="midnightblue" stroke="midnightblue" points="188.518,-307.203 181.213,-299.529 182.138,-310.084 188.518,-307.203"/>
</g>
<!-- Node15 -->
<g id="node15" class="node"><title>Node15</title>
<g id="a_node15"><a xlink:href="classsoftwarecontainer_1_1_config_store_error.html" target="_top" xlink:title="softwarecontainer::\lConfigStoreError">
<polygon fill="white" stroke="black" points="291,-441.5 291,-471.5 391,-471.5 391,-441.5 291,-441.5"/>
<text text-anchor="start" x="299" y="-459.5" font-family="Helvetica,sans-Serif" font-size="10.00">softwarecontainer::</text>
<text text-anchor="middle" x="341" y="-448.5" font-family="Helvetica,sans-Serif" font-size="10.00">ConfigStoreError</text>
</a>
</g>
</g>
<!-- Node1&#45;&gt;Node15 -->
<g id="edge14" class="edge"><title>Node1&#45;&gt;Node15</title>
<path fill="none" stroke="midnightblue" d="M184.085,-309.24C197.991,-341.997 226.799,-399.459 269,-432.5 275.454,-437.553 283.032,-441.573 290.789,-444.762"/>
<polygon fill="midnightblue" stroke="midnightblue" points="187.293,-307.837 180.25,-299.922 180.82,-310.502 187.293,-307.837"/>
</g>
<!-- Node19 -->
<g id="node19" class="node"><title>Node19</title>
<g id="a_node19"><a xlink:href="classsoftwarecontainer_1_1_container_error.html" target="_top" xlink:title="An error has occured in the underlying container implementation. ">
<polygon fill="white" stroke="black" points="291,-392.5 291,-422.5 391,-422.5 391,-392.5 291,-392.5"/>
<text text-anchor="start" x="299" y="-410.5" font-family="Helvetica,sans-Serif" font-size="10.00">softwarecontainer::</text>
<text text-anchor="middle" x="341" y="-399.5" font-family="Helvetica,sans-Serif" font-size="10.00">ContainerError</text>
</a>
</g>
</g>
<!-- Node1&#45;&gt;Node19 -->
<g id="edge18" class="edge"><title>Node1&#45;&gt;Node19</title>
<path fill="none" stroke="midnightblue" d="M191.516,-308.037C208.754,-330.334 237.334,-363.323 269,-383.5 275.694,-387.765 283.229,-391.36 290.824,-394.363"/>
<polygon fill="midnightblue" stroke="midnightblue" points="194.093,-305.643 185.27,-299.778 188.51,-309.866 194.093,-305.643"/>
</g>
<!-- Node20 -->
<g id="node20" class="node"><title>Node20</title>
<g id="a_node20"><a xlink:href="classsoftwarecontainer_1_1_container_option_parse_error.html" target="_top" xlink:title="softwarecontainer::\lContainerOptionParseError">
<polygon fill="white" stroke="black" points="274,-343.5 274,-373.5 408,-373.5 408,-343.5 274,-343.5"/>
<text text-anchor="start" x="282" y="-361.5" font-family="Helvetica,sans-Serif" font-size="10.00">softwarecontainer::</text>
<text text-anchor="middle" x="341" y="-350.5" font-family="Helvetica,sans-Serif" font-size="10.00">ContainerOptionParseError</text>
</a>
</g>
</g>
<!-- Node1&#45;&gt;Node20 -->
<g id="edge19" class="edge"><title>Node1&#45;&gt;Node20</title>
<path fill="none" stroke="midnightblue" d="M209.196,-304.578C226.784,-314.311 248.673,-325.754 269,-334.5 276.291,-337.637 284.138,-340.642 291.863,-343.399"/>
<polygon fill="midnightblue" stroke="midnightblue" points="210.858,-301.498 200.422,-299.669 207.439,-307.606 210.858,-301.498"/>
</g>
<!-- Node21 -->
<g id="node21" class="node"><title>Node21</title>
<g id="a_node21"><a xlink:href="classsoftwarecontainer_1_1_container_utility_interface_error.html" target="_top" xlink:title="An error occured in ContainerUtilityInterface. ">
<polygon fill="white" stroke="black" points="269.5,-294.5 269.5,-324.5 412.5,-324.5 412.5,-294.5 269.5,-294.5"/>
<text text-anchor="start" x="277.5" y="-312.5" font-family="Helvetica,sans-Serif" font-size="10.00">softwarecontainer::</text>
<text text-anchor="middle" x="341" y="-301.5" font-family="Helvetica,sans-Serif" font-size="10.00">ContainerUtilityInterfaceError</text>
</a>
</g>
</g>
<!-- Node1&#45;&gt;Node21 -->
<g id="edge20" class="edge"><title>Node1&#45;&gt;Node21</title>
<path fill="none" stroke="midnightblue" d="M243.335,-294.898C251.972,-296.203 260.817,-297.539 269.479,-298.847"/>
<polygon fill="midnightblue" stroke="midnightblue" points="243.726,-291.417 233.315,-293.384 242.68,-298.339 243.726,-291.417"/>
</g>
<!-- Node22 -->
<g id="node22" class="node"><title>Node22</title>
<g id="a_node22"><a xlink:href="classsoftwarecontainer_1_1_device_node_gateway_error.html" target="_top" xlink:title="softwarecontainer::\lDeviceNodeGatewayError">
<polygon fill="white" stroke="black" points="275.5,-245.5 275.5,-275.5 406.5,-275.5 406.5,-245.5 275.5,-245.5"/>
<text text-anchor="start" x="283.5" y="-263.5" font-family="Helvetica,sans-Serif" font-size="10.00">softwarecontainer::</text>
<text text-anchor="middle" x="341" y="-252.5" font-family="Helvetica,sans-Serif" font-size="10.00">DeviceNodeGatewayError</text>
</a>
</g>
</g>
<!-- Node1&#45;&gt;Node22 -->
<g id="edge21" class="edge"><title>Node1&#45;&gt;Node22</title>
<path fill="none" stroke="midnightblue" d="M243.382,-274.511C254.007,-272.97 264.946,-271.384 275.471,-269.858"/>
<polygon fill="midnightblue" stroke="midnightblue" points="242.709,-271.072 233.315,-275.971 243.714,-277.999 242.709,-271.072"/>
</g>
<!-- Node23 -->
<g id="node23" class="node"><title>Node23</title>
<g id="a_node23"><a xlink:href="classsoftwarecontainer_1_1_gateway_error.html" target="_top" xlink:title="softwarecontainer::\lGatewayError">
<polygon fill="white" stroke="black" points="291,-196.5 291,-226.5 391,-226.5 391,-196.5 291,-196.5"/>
<text text-anchor="start" x="299" y="-214.5" font-family="Helvetica,sans-Serif" font-size="10.00">softwarecontainer::</text>
<text text-anchor="middle" x="341" y="-203.5" font-family="Helvetica,sans-Serif" font-size="10.00">GatewayError</text>
</a>
</g>
</g>
<!-- Node1&#45;&gt;Node23 -->
<g id="edge22" class="edge"><title>Node1&#45;&gt;Node23</title>
<path fill="none" stroke="midnightblue" d="M210.102,-264.403C227.551,-254.978 249.055,-243.983 269,-235.5 276.424,-232.342 284.416,-229.307 292.266,-226.519"/>
<polygon fill="midnightblue" stroke="midnightblue" points="207.959,-261.585 200.861,-269.451 211.315,-267.728 207.959,-261.585"/>
</g>
<!-- Node24 -->
<g id="node24" class="node"><title>Node24</title>
<g id="a_node24"><a xlink:href="classsoftwarecontainer_1_1_invalid_container_error.html" target="_top" xlink:title="The container instance is in an invalid state and should not be used. ">
<polygon fill="white" stroke="black" points="287,-147.5 287,-177.5 395,-177.5 395,-147.5 287,-147.5"/>
<text text-anchor="start" x="295" y="-165.5" font-family="Helvetica,sans-Serif" font-size="10.00">softwarecontainer::</text>
<text text-anchor="middle" x="341" y="-154.5" font-family="Helvetica,sans-Serif" font-size="10.00">InvalidContainerError</text>
</a>
</g>
</g>
<!-- Node1&#45;&gt;Node24 -->
<g id="edge23" class="edge"><title>Node1&#45;&gt;Node24</title>
<path fill="none" stroke="midnightblue" d="M191.567,-261.208C208.843,-239.143 237.45,-206.49 269,-186.5 274.495,-183.018 280.553,-179.981 286.743,-177.347"/>
<polygon fill="midnightblue" stroke="midnightblue" points="188.609,-259.314 185.306,-269.381 194.165,-263.571 188.609,-259.314"/>
</g>
<!-- Node25 -->
<g id="node25" class="node"><title>Node25</title>
<g id="a_node25"><a xlink:href="classsoftwarecontainer_1_1_invalid_operation_error.html" target="_top" xlink:title="A method was called which is inappropriate in the current state. ">
<polygon fill="white" stroke="black" points="287,-98.5 287,-128.5 395,-128.5 395,-98.5 287,-98.5"/>
<text text-anchor="start" x="295" y="-116.5" font-family="Helvetica,sans-Serif" font-size="10.00">softwarecontainer::</text>
<text text-anchor="middle" x="341" y="-105.5" font-family="Helvetica,sans-Serif" font-size="10.00">InvalidOperationError</text>
</a>
</g>
</g>
<!-- Node1&#45;&gt;Node25 -->
<g id="edge24" class="edge"><title>Node1&#45;&gt;Node25</title>
<path fill="none" stroke="midnightblue" d="M184.13,-259.927C198.087,-227.392 226.95,-170.318 269,-137.5 274.334,-133.337 280.43,-129.875 286.759,-127.001"/>
<polygon fill="midnightblue" stroke="midnightblue" points="180.889,-258.605 180.279,-269.182 187.352,-261.294 180.889,-258.605"/>
</g>
<!-- Node26 -->
<g id="node26" class="node"><title>Node26</title>
<g id="a_node26"><a xlink:href="classsoftwarecontainer_1_1_network_gateway_error.html" target="_top" xlink:title="softwarecontainer::\lNetworkGatewayError">
<polygon fill="white" stroke="black" points="284.5,-49.5 284.5,-79.5 397.5,-79.5 397.5,-49.5 284.5,-49.5"/>
<text text-anchor="start" x="292.5" y="-67.5" font-family="Helvetica,sans-Serif" font-size="10.00">softwarecontainer::</text>
<text text-anchor="middle" x="341" y="-56.5" font-family="Helvetica,sans-Serif" font-size="10.00">NetworkGatewayError</text>
</a>
</g>
</g>
<!-- Node1&#45;&gt;Node26 -->
<g id="edge25" class="edge"><title>Node1&#45;&gt;Node26</title>
<path fill="none" stroke="midnightblue" d="M179.9,-259.484C190.113,-218.072 216.139,-135.215 269,-88.5 273.582,-84.4503 278.875,-81.0787 284.464,-78.2726"/>
<polygon fill="midnightblue" stroke="midnightblue" points="176.473,-258.769 177.585,-269.305 183.286,-260.375 176.473,-258.769"/>
</g>
<!-- Node28 -->
<g id="node28" class="node"><title>Node28</title>
<g id="a_node28"><a xlink:href="classsoftwarecontainer_1_1_software_container_agent_error.html" target="_top" xlink:title="An error occured in SoftwareContainerAgent. ">
<polygon fill="white" stroke="black" points="269,-0.5 269,-30.5 413,-30.5 413,-0.5 269,-0.5"/>
<text text-anchor="start" x="277" y="-18.5" font-family="Helvetica,sans-Serif" font-size="10.00">softwarecontainer::</text>
<text text-anchor="middle" x="341" y="-7.5" font-family="Helvetica,sans-Serif" font-size="10.00">SoftwareContainerAgentError</text>
</a>
</g>
</g>
<!-- Node1&#45;&gt;Node28 -->
<g id="edge27" class="edge"><title>Node1&#45;&gt;Node28</title>
<path fill="none" stroke="midnightblue" d="M177.179,-259.351C183.74,-210.188 205.057,-100.803 269,-39.5 272.569,-36.0783 276.643,-33.1435 280.993,-30.6266"/>
<polygon fill="midnightblue" stroke="midnightblue" points="173.687,-259.071 175.931,-269.426 180.634,-259.932 173.687,-259.071"/>
</g>
<!-- Node2 -->
<g id="node2" class="node"><title>Node2</title>
<polygon fill="white" stroke="#bfbfbf" points="0,-275 0,-294 78,-294 78,-275 0,-275"/>
<text text-anchor="middle" x="39" y="-282" font-family="Helvetica,sans-Serif" font-size="10.00">std::exception</text>
</g>
<!-- Node2&#45;&gt;Node1 -->
<g id="edge1" class="edge"><title>Node2&#45;&gt;Node1</title>
<path fill="none" stroke="midnightblue" d="M88.4181,-284.5C96.5843,-284.5 105.141,-284.5 113.54,-284.5"/>
<polygon fill="midnightblue" stroke="midnightblue" points="88.3245,-281 78.3245,-284.5 88.3245,-288 88.3245,-281"/>
</g>
<!-- Node4 -->
<g id="node4" class="node"><title>Node4</title>
<g id="a_node4"><a xlink:href="classsoftwarecontainer_1_1_bad_suffix_error.html" target="_top" xlink:title="softwarecontainer::\lBadSuffixError">
<polygon fill="white" stroke="black" points="466,-931.5 466,-961.5 566,-961.5 566,-931.5 466,-931.5"/>
<text text-anchor="start" x="474" y="-949.5" font-family="Helvetica,sans-Serif" font-size="10.00">softwarecontainer::</text>
<text text-anchor="middle" x="516" y="-938.5" font-family="Helvetica,sans-Serif" font-size="10.00">BadSuffixError</text>
</a>
</g>
</g>
<!-- Node3&#45;&gt;Node4 -->
<g id="edge3" class="edge"><title>Node3&#45;&gt;Node4</title>
<path fill="none" stroke="midnightblue" d="M368.868,-869.979C389.802,-885.98 420.077,-907.556 449,-922.5 455.283,-925.746 462.106,-928.753 468.903,-931.463"/>
<polygon fill="midnightblue" stroke="midnightblue" points="370.825,-867.068 360.775,-863.714 366.54,-872.603 370.825,-867.068"/>
</g>
<!-- Node5 -->
<g id="node5" class="node"><title>Node5</title>
<g id="a_node5"><a xlink:href="classsoftwarecontainer_1_1_hex_format_error.html" target="_top" xlink:title="softwarecontainer::\lHexFormatError">
<polygon fill="white" stroke="black" points="466,-882.5 466,-912.5 566,-912.5 566,-882.5 466,-882.5"/>
<text text-anchor="start" x="474" y="-900.5" font-family="Helvetica,sans-Serif" font-size="10.00">softwarecontainer::</text>
<text text-anchor="middle" x="516" y="-889.5" font-family="Helvetica,sans-Serif" font-size="10.00">HexFormatError</text>
</a>
</g>
</g>
<!-- Node3&#45;&gt;Node5 -->
<g id="edge4" class="edge"><title>Node3&#45;&gt;Node5</title>
<path fill="none" stroke="midnightblue" d="M405.014,-866.348C425.109,-872.04 447.033,-878.249 465.983,-883.616"/>
<polygon fill="midnightblue" stroke="midnightblue" points="405.893,-862.959 395.317,-863.601 403.985,-869.694 405.893,-862.959"/>
</g>
<!-- Node6 -->
<g id="node6" class="node"><title>Node6</title>
<g id="a_node6"><a xlink:href="classsoftwarecontainer_1_1_j_son_error.html" target="_top" xlink:title="softwarecontainer::\lJSonError">
<polygon fill="white" stroke="black" points="466,-833.5 466,-863.5 566,-863.5 566,-833.5 466,-833.5"/>
<text text-anchor="start" x="474" y="-851.5" font-family="Helvetica,sans-Serif" font-size="10.00">softwarecontainer::</text>
<text text-anchor="middle" x="516" y="-840.5" font-family="Helvetica,sans-Serif" font-size="10.00">JSonError</text>
</a>
</g>
</g>
<!-- Node3&#45;&gt;Node6 -->
<g id="edge5" class="edge"><title>Node3&#45;&gt;Node6</title>
<path fill="none" stroke="midnightblue" d="M407.9,-848.5C427.14,-848.5 447.823,-848.5 465.834,-848.5"/>
<polygon fill="midnightblue" stroke="midnightblue" points="407.691,-845 397.691,-848.5 407.691,-852 407.691,-845"/>
</g>
<!-- Node7 -->
<g id="node7" class="node"><title>Node7</title>
<g id="a_node7"><a xlink:href="classsoftwarecontainer_1_1_limit_range_error.html" target="_top" xlink:title="softwarecontainer::\lLimitRangeError">
<polygon fill="white" stroke="black" points="466,-784.5 466,-814.5 566,-814.5 566,-784.5 466,-784.5"/>
<text text-anchor="start" x="474" y="-802.5" font-family="Helvetica,sans-Serif" font-size="10.00">softwarecontainer::</text>
<text text-anchor="middle" x="516" y="-791.5" font-family="Helvetica,sans-Serif" font-size="10.00">LimitRangeError</text>
</a>
</g>
</g>
<!-- Node3&#45;&gt;Node7 -->
<g id="edge6" class="edge"><title>Node3&#45;&gt;Node7</title>
<path fill="none" stroke="midnightblue" d="M405.014,-830.652C425.109,-824.96 447.033,-818.751 465.983,-813.384"/>
<polygon fill="midnightblue" stroke="midnightblue" points="403.985,-827.306 395.317,-833.399 405.893,-834.041 403.985,-827.306"/>
</g>
<!-- Node9 -->
<g id="node9" class="node"><title>Node9</title>
<g id="a_node9"><a xlink:href="classsoftwarecontainer_1_1_config_dependency_error.html" target="_top" xlink:title="softwarecontainer::\lConfigDependencyError">
<polygon fill="white" stroke="black" points="455.5,-735.5 455.5,-765.5 576.5,-765.5 576.5,-735.5 455.5,-735.5"/>
<text text-anchor="start" x="463.5" y="-753.5" font-family="Helvetica,sans-Serif" font-size="10.00">softwarecontainer::</text>
<text text-anchor="middle" x="516" y="-742.5" font-family="Helvetica,sans-Serif" font-size="10.00">ConfigDependencyError</text>
</a>
</g>
</g>
<!-- Node8&#45;&gt;Node9 -->
<g id="edge8" class="edge"><title>Node8&#45;&gt;Node9</title>
<path fill="none" stroke="midnightblue" d="M357.043,-627.125C375.607,-654.54 409.593,-699.435 449,-726.5 453.925,-729.882 459.382,-732.849 464.988,-735.435"/>
<polygon fill="midnightblue" stroke="midnightblue" points="359.799,-624.947 351.354,-618.549 353.966,-628.816 359.799,-624.947"/>
</g>
<!-- Node10 -->
<g id="node10" class="node"><title>Node10</title>
<g id="a_node10"><a xlink:href="classsoftwarecontainer_1_1_config_file_error.html" target="_top" xlink:title="An error occured in a Glib operation. ">
<polygon fill="white" stroke="black" points="466,-686.5 466,-716.5 566,-716.5 566,-686.5 466,-686.5"/>
<text text-anchor="start" x="474" y="-704.5" font-family="Helvetica,sans-Serif" font-size="10.00">softwarecontainer::</text>
<text text-anchor="middle" x="516" y="-693.5" font-family="Helvetica,sans-Serif" font-size="10.00">ConfigFileError</text>
</a>
</g>
</g>
<!-- Node8&#45;&gt;Node10 -->
<g id="edge9" class="edge"><title>Node8&#45;&gt;Node10</title>
<path fill="none" stroke="midnightblue" d="M368.868,-624.979C389.802,-640.98 420.077,-662.556 449,-677.5 455.283,-680.746 462.106,-683.753 468.903,-686.463"/>
<polygon fill="midnightblue" stroke="midnightblue" points="370.825,-622.068 360.775,-618.714 366.54,-627.603 370.825,-622.068"/>
</g>
<!-- Node11 -->
<g id="node11" class="node"><title>Node11</title>
<g id="a_node11"><a xlink:href="classsoftwarecontainer_1_1_config_internal_error.html" target="_top" xlink:title="An error occured which is an internal error in the config code. ">
<polygon fill="white" stroke="black" points="466,-637.5 466,-667.5 566,-667.5 566,-637.5 466,-637.5"/>
<text text-anchor="start" x="474" y="-655.5" font-family="Helvetica,sans-Serif" font-size="10.00">softwarecontainer::</text>
<text text-anchor="middle" x="516" y="-644.5" font-family="Helvetica,sans-Serif" font-size="10.00">ConfigInternalError</text>
</a>
</g>
</g>
<!-- Node8&#45;&gt;Node11 -->
<g id="edge10" class="edge"><title>Node8&#45;&gt;Node11</title>
<path fill="none" stroke="midnightblue" d="M400.93,-620.191C422.029,-626.167 445.572,-632.835 465.765,-638.555"/>
<polygon fill="midnightblue" stroke="midnightblue" points="401.687,-616.768 391.112,-617.41 399.78,-623.503 401.687,-616.768"/>
</g>
<!-- Node12 -->
<g id="node12" class="node"><title>Node12</title>
<g id="a_node12"><a xlink:href="classsoftwarecontainer_1_1_config_mandatory_error.html" target="_top" xlink:title="softwarecontainer::\lConfigMandatoryError">
<polygon fill="white" stroke="black" points="460,-588.5 460,-618.5 572,-618.5 572,-588.5 460,-588.5"/>
<text text-anchor="start" x="468" y="-606.5" font-family="Helvetica,sans-Serif" font-size="10.00">softwarecontainer::</text>
<text text-anchor="middle" x="516" y="-595.5" font-family="Helvetica,sans-Serif" font-size="10.00">ConfigMandatoryError</text>
</a>
</g>
</g>
<!-- Node8&#45;&gt;Node12 -->
<g id="edge11" class="edge"><title>Node8&#45;&gt;Node12</title>
<path fill="none" stroke="midnightblue" d="M401.168,-603.5C420.22,-603.5 441.243,-603.5 459.983,-603.5"/>
<polygon fill="midnightblue" stroke="midnightblue" points="401.112,-600 391.112,-603.5 401.112,-607 401.112,-600"/>
</g>
<!-- Node13 -->
<g id="node13" class="node"><title>Node13</title>
<g id="a_node13"><a xlink:href="classsoftwarecontainer_1_1_config_not_found_error.html" target="_top" xlink:title="A requested config item could not be found in any of the config sources. ">
<polygon fill="white" stroke="black" points="461.5,-539.5 461.5,-569.5 570.5,-569.5 570.5,-539.5 461.5,-539.5"/>
<text text-anchor="start" x="469.5" y="-557.5" font-family="Helvetica,sans-Serif" font-size="10.00">softwarecontainer::</text>
<text text-anchor="middle" x="516" y="-546.5" font-family="Helvetica,sans-Serif" font-size="10.00">ConfigNotFoundError</text>
</a>
</g>
</g>
<!-- Node8&#45;&gt;Node13 -->
<g id="edge12" class="edge"><title>Node8&#45;&gt;Node13</title>
<path fill="none" stroke="midnightblue" d="M400.914,-586.813C420.659,-581.221 442.547,-575.021 461.826,-569.561"/>
<polygon fill="midnightblue" stroke="midnightblue" points="399.78,-583.497 391.112,-589.59 401.687,-590.232 399.78,-583.497"/>
</g>
<!-- Node14 -->
<g id="node14" class="node"><title>Node14</title>
<g id="a_node14"><a xlink:href="classsoftwarecontainer_1_1_config_unknown_error.html" target="_top" xlink:title="A config is found which is not defined in ConfigDefinition. ">
<polygon fill="white" stroke="black" points="462.5,-490.5 462.5,-520.5 569.5,-520.5 569.5,-490.5 462.5,-490.5"/>
<text text-anchor="start" x="470.5" y="-508.5" font-family="Helvetica,sans-Serif" font-size="10.00">softwarecontainer::</text>
<text text-anchor="middle" x="516" y="-497.5" font-family="Helvetica,sans-Serif" font-size="10.00">ConfigUnknownError</text>
</a>
</g>
</g>
<!-- Node8&#45;&gt;Node14 -->
<g id="edge13" class="edge"><title>Node8&#45;&gt;Node14</title>
<path fill="none" stroke="midnightblue" d="M369.355,-582.159C390.327,-566.475 420.43,-545.388 449,-530.5 455.846,-526.933 463.319,-523.607 470.696,-520.62"/>
<polygon fill="midnightblue" stroke="midnightblue" points="367.096,-579.479 361.234,-588.304 371.32,-585.061 367.096,-579.479"/>
</g>
<!-- Node16 -->
<g id="node16" class="node"><title>Node16</title>
<g id="a_node16"><a xlink:href="classsoftwarecontainer_1_1_capability_parse_error.html" target="_top" xlink:title="An error occured in ConfigStore when parsing a Capability in a Service Manifest. ">
<polygon fill="white" stroke="black" points="462.5,-441.5 462.5,-471.5 569.5,-471.5 569.5,-441.5 462.5,-441.5"/>
<text text-anchor="start" x="470.5" y="-459.5" font-family="Helvetica,sans-Serif" font-size="10.00">softwarecontainer::</text>
<text text-anchor="middle" x="516" y="-448.5" font-family="Helvetica,sans-Serif" font-size="10.00">CapabilityParseError</text>
</a>
</g>
</g>
<!-- Node15&#45;&gt;Node16 -->
<g id="edge15" class="edge"><title>Node15&#45;&gt;Node16</title>
<path fill="none" stroke="midnightblue" d="M401.277,-456.5C421.137,-456.5 443.128,-456.5 462.437,-456.5"/>
<polygon fill="midnightblue" stroke="midnightblue" points="401.112,-453 391.112,-456.5 401.112,-460 401.112,-453"/>
</g>
<!-- Node17 -->
<g id="node17" class="node"><title>Node17</title>
<g id="a_node17"><a xlink:href="classsoftwarecontainer_1_1_service_manifest_parse_error.html" target="_top" xlink:title="An error occured in ConfigStore when parsing a Service Manifest. ">
<polygon fill="white" stroke="black" points="449,-392.5 449,-422.5 583,-422.5 583,-392.5 449,-392.5"/>
<text text-anchor="start" x="457" y="-410.5" font-family="Helvetica,sans-Serif" font-size="10.00">softwarecontainer::</text>
<text text-anchor="middle" x="516" y="-399.5" font-family="Helvetica,sans-Serif" font-size="10.00">ServiceManifestParseError</text>
</a>
</g>
</g>
<!-- Node15&#45;&gt;Node17 -->
<g id="edge16" class="edge"><title>Node15&#45;&gt;Node17</title>
<path fill="none" stroke="midnightblue" d="M400.914,-439.813C420.659,-434.221 442.547,-428.021 461.826,-422.561"/>
<polygon fill="midnightblue" stroke="midnightblue" points="399.78,-436.497 391.112,-442.59 401.687,-443.232 399.78,-436.497"/>
</g>
<!-- Node18 -->
<g id="node18" class="node"><title>Node18</title>
<g id="a_node18"><a xlink:href="classsoftwarecontainer_1_1_service_manifest_path_error.html" target="_top" xlink:title="An error occured in ConfigStore relating to the path to the Service Manifest(s) ">
<polygon fill="white" stroke="black" points="452,-343.5 452,-373.5 580,-373.5 580,-343.5 452,-343.5"/>
<text text-anchor="start" x="460" y="-361.5" font-family="Helvetica,sans-Serif" font-size="10.00">softwarecontainer::</text>
<text text-anchor="middle" x="516" y="-350.5" font-family="Helvetica,sans-Serif" font-size="10.00">ServiceManifestPathError</text>
</a>
</g>
</g>
<!-- Node15&#45;&gt;Node18 -->
<g id="edge17" class="edge"><title>Node15&#45;&gt;Node18</title>
<path fill="none" stroke="midnightblue" d="M400.516,-440.066C404.912,-437.839 409.134,-435.328 413,-432.5 434.811,-416.545 427.481,-399.846 449,-383.5 453.976,-379.72 459.589,-376.454 465.387,-373.647"/>
<polygon fill="midnightblue" stroke="midnightblue" points="398.965,-436.926 391.306,-444.247 401.859,-443.3 398.965,-436.926"/>
</g>
<!-- Node27 -->
<g id="node27" class="node"><title>Node27</title>
<g id="a_node27"><a xlink:href="classsoftwarecontainer_1_1_i_p_allocation_error.html" target="_top" xlink:title="softwarecontainer::\lIPAllocationError">
<polygon fill="white" stroke="black" points="466,-49.5 466,-79.5 566,-79.5 566,-49.5 466,-49.5"/>
<text text-anchor="start" x="474" y="-67.5" font-family="Helvetica,sans-Serif" font-size="10.00">softwarecontainer::</text>
<text text-anchor="middle" x="516" y="-56.5" font-family="Helvetica,sans-Serif" font-size="10.00">IPAllocationError</text>
</a>
</g>
</g>
<!-- Node26&#45;&gt;Node27 -->
<g id="edge26" class="edge"><title>Node26&#45;&gt;Node27</title>
<path fill="none" stroke="midnightblue" d="M407.9,-64.5C427.14,-64.5 447.823,-64.5 465.834,-64.5"/>
<polygon fill="midnightblue" stroke="midnightblue" points="407.691,-61.0001 397.691,-64.5 407.691,-68.0001 407.691,-61.0001"/>
</g>
</g>
</svg>
