<?xml version="1.0" encoding="UTF-8" standalone="no"?>
<!DOCTYPE svg PUBLIC "-//W3C//DTD SVG 1.1//EN"
 "http://www.w3.org/Graphics/SVG/1.1/DTD/svg11.dtd">
<!-- Generated by graphviz version 2.38.0 (20140413.2041)
 -->
<!-- Title: softwarecontainer::FileToolkitWithUndo Pages: 1 -->
<svg width="259pt" height="186pt"
 viewBox="0.00 0.00 259.00 186.00" xmlns="http://www.w3.org/2000/svg" xmlns:xlink="http://www.w3.org/1999/xlink">
<g id="graph0" class="graph" transform="scale(1 1) rotate(0) translate(4 182)">
<title>softwarecontainer::FileToolkitWithUndo</title>
<polygon fill="white" stroke="none" points="-4,4 -4,-182 255,-182 255,4 -4,4"/>
<!-- Node1 -->
<g id="node1" class="node"><title>Node1</title>
<polygon fill="#bfbfbf" stroke="black" points="0,-73.5 0,-103.5 105,-103.5 105,-73.5 0,-73.5"/>
<text text-anchor="start" x="8" y="-91.5" font-family="Helvetica,sans-Serif" font-size="10.00">softwarecontainer::</text>
<text text-anchor="middle" x="52.5" y="-80.5" font-family="Helvetica,sans-Serif" font-size="10.00">FileToolkitWithUndo</text>
</g>
<!-- Node2 -->
<g id="node2" class="node"><title>Node2</title>
<g id="a_node2"><a xlink:href="classsoftwarecontainer_1_1_container.html" target="_top" xlink:title="The Container class is an abstraction of the specific containment technology used. ">
<polygon fill="white" stroke="black" points="146,-147.5 146,-177.5 246,-177.5 246,-147.5 146,-147.5"/>
<text text-anchor="start" x="154" y="-165.5" font-family="Helvetica,sans-Serif" font-size="10.00">softwarecontainer::</text>
<text text-anchor="middle" x="196" y="-154.5" font-family="Helvetica,sans-Serif" font-size="10.00">Container</text>
</a>
</g>
</g>
<!-- Node1&#45;&gt;Node2 -->
<g id="edge1" class="edge"><title>Node1&#45;&gt;Node2</title>
<path fill="none" stroke="#8b1a1a" d="M87.4053,-108.936C103.447,-118.329 122.993,-129.383 141,-138.5 146.949,-141.512 153.359,-144.542 159.611,-147.386"/>
<polygon fill="#8b1a1a" stroke="#8b1a1a" points="88.7946,-105.692 78.4034,-103.625 85.2373,-111.721 88.7946,-105.692"/>
</g>
<!-- Node3 -->
<g id="node3" class="node"><title>Node3</title>
<g id="a_node3"><a xlink:href="classsoftwarecontainer_1_1_device_node_gateway.html" target="_top" xlink:title="This gateway is responsible for exposing device nodes in an LXC container. ">
<polygon fill="white" stroke="black" points="141,-98.5 141,-128.5 251,-128.5 251,-98.5 141,-98.5"/>
<text text-anchor="start" x="149" y="-116.5" font-family="Helvetica,sans-Serif" font-size="10.00">softwarecontainer::</text>
<text text-anchor="middle" x="196" y="-105.5" font-family="Helvetica,sans-Serif" font-size="10.00">DeviceNodeGateway</text>
</a>
</g>
</g>
<!-- Node1&#45;&gt;Node3 -->
<g id="edge2" class="edge"><title>Node1&#45;&gt;Node3</title>
<path fill="none" stroke="midnightblue" d="M115.243,-99.4087C123.734,-100.909 132.401,-102.44 140.744,-103.914"/>
<polygon fill="midnightblue" stroke="midnightblue" points="115.842,-95.9604 105.386,-97.6671 114.624,-102.854 115.842,-95.9604"/>
</g>
<!-- Node4 -->
<g id="node4" class="node"><title>Node4</title>
<g id="a_node4"><a xlink:href="classsoftwarecontainer_1_1_software_container.html" target="_top" xlink:title="softwarecontainer::\lSoftwareContainer">
<polygon fill="white" stroke="black" points="146,-49.5 146,-79.5 246,-79.5 246,-49.5 146,-49.5"/>
<text text-anchor="start" x="154" y="-67.5" font-family="Helvetica,sans-Serif" font-size="10.00">softwarecontainer::</text>
<text text-anchor="middle" x="196" y="-56.5" font-family="Helvetica,sans-Serif" font-size="10.00">SoftwareContainer</text>
</a>
</g>
</g>
<!-- Node1&#45;&gt;Node4 -->
<g id="edge3" class="edge"><title>Node1&#45;&gt;Node4</title>
<path fill="none" stroke="#8b1a1a" d="M115.471,-77.9891C125.67,-76.2592 136.116,-74.4873 145.944,-72.8204"/>
<polygon fill="#8b1a1a" stroke="#8b1a1a" points="114.66,-74.5765 105.386,-79.6996 115.83,-81.478 114.66,-74.5765"/>
</g>
<!-- Node5 -->
<g id="node5" class="node"><title>Node5</title>
<g id="a_node5"><a xlink:href="classsoftwarecontainer_1_1_workspace.html" target="_top" xlink:title="Holds information about the container workspace. ">
<polygon fill="white" stroke="black" points="146,-0.5 146,-30.5 246,-30.5 246,-0.5 146,-0.5"/>
<text text-anchor="start" x="154" y="-18.5" font-family="Helvetica,sans-Serif" font-size="10.00">softwarecontainer::</text>
<text text-anchor="middle" x="196" y="-7.5" font-family="Helvetica,sans-Serif" font-size="10.00">Workspace</text>
</a>
</g>
</g>
<!-- Node1&#45;&gt;Node5 -->
<g id="edge4" class="edge"><title>Node1&#45;&gt;Node5</title>
<path fill="none" stroke="#8b1a1a" d="M88.9614,-68.331C104.759,-59.532 123.676,-49.2494 141,-40.5 147.547,-37.1934 154.617,-33.7979 161.415,-30.6172"/>
<polygon fill="#8b1a1a" stroke="#8b1a1a" points="87.0711,-65.3781 80.0557,-73.3175 90.491,-71.4858 87.0711,-65.3781"/>
</g>
</g>
</svg>
