<?xml version="1.0" encoding="UTF-8" standalone="no"?>
<!DOCTYPE svg PUBLIC "-//W3C//DTD SVG 1.1//EN"
 "http://www.w3.org/Graphics/SVG/1.1/DTD/svg11.dtd">
<!-- Generated by graphviz version 2.38.0 (20140413.2041)
 -->
<!-- Title: Gateway::setConfig Pages: 1 -->
<svg width="304pt" height="50pt"
 viewBox="0.00 0.00 304.00 50.00" xmlns="http://www.w3.org/2000/svg" xmlns:xlink="http://www.w3.org/1999/xlink">
<g id="graph0" class="graph" transform="scale(1 1) rotate(0) translate(4 46)">
<title>Gateway::setConfig</title>
<polygon fill="white" stroke="none" points="-4,4 -4,-46 300,-46 300,4 -4,4"/>
<!-- Node1 -->
<g id="node1" class="node"><title>Node1</title>
<polygon fill="#bfbfbf" stroke="black" points="0,-11.5 0,-30.5 104,-30.5 104,-11.5 0,-11.5"/>
<text text-anchor="middle" x="52" y="-18.5" font-family="Helvetica,sans-Serif" font-size="10.00">Gateway::setConfig</text>
</g>
<!-- Node2 -->
<g id="node2" class="node"><title>Node2</title>
<g id="a_node2"><a xlink:href="classsoftwarecontainer_1_1_software_container.html#af928f299cf15ecda5f625eaecd518f57" target="_top" xlink:title="Set the gateway configuration and activate them. ">
<polygon fill="white" stroke="black" points="140,-0.5 140,-41.5 296,-41.5 296,-0.5 140,-0.5"/>
<text text-anchor="start" x="148" y="-29.5" font-family="Helvetica,sans-Serif" font-size="10.00">softwarecontainer::</text>
<text text-anchor="start" x="148" y="-18.5" font-family="Helvetica,sans-Serif" font-size="10.00">SoftwareContainer::setGateway</text>
<text text-anchor="middle" x="218" y="-7.5" font-family="Helvetica,sans-Serif" font-size="10.00">Configs</text>
</a>
</g>
</g>
<!-- Node1&#45;&gt;Node2 -->
<g id="edge1" class="edge"><title>Node1&#45;&gt;Node2</title>
<path fill="none" stroke="midnightblue" d="M114.691,-21C122.928,-21 131.456,-21 139.915,-21"/>
<polygon fill="midnightblue" stroke="midnightblue" points="114.441,-17.5001 104.441,-21 114.441,-24.5001 114.441,-17.5001"/>
</g>
</g>
</svg>
