<?xml version="1.0" encoding="UTF-8" standalone="no"?>
<!DOCTYPE svg PUBLIC "-//W3C//DTD SVG 1.1//EN"
 "http://www.w3.org/Graphics/SVG/1.1/DTD/svg11.dtd">
<!-- Generated by graphviz version 2.38.0 (20140413.2041)
 -->
<!-- Title: softwarecontainer::NetworkGateway::teardownGateway Pages: 1 -->
<svg width="685pt" height="382pt"
 viewBox="0.00 0.00 685.00 382.00" xmlns="http://www.w3.org/2000/svg" xmlns:xlink="http://www.w3.org/1999/xlink">
<g id="graph0" class="graph" transform="scale(1 1) rotate(0) translate(4 378)">
<title>softwarecontainer::NetworkGateway::teardownGateway</title>
<polygon fill="white" stroke="none" points="-4,4 -4,-378 681,-378 681,4 -4,4"/>
<!-- Node1 -->
<g id="node1" class="node"><title>Node1</title>
<polygon fill="#bfbfbf" stroke="black" points="0,-171.5 0,-201.5 177,-201.5 177,-171.5 0,-171.5"/>
<text text-anchor="start" x="8" y="-189.5" font-family="Helvetica,sans-Serif" font-size="10.00">softwarecontainer::</text>
<text text-anchor="middle" x="88.5" y="-178.5" font-family="Helvetica,sans-Serif" font-size="10.00">NetworkGateway::teardownGateway</text>
</g>
<!-- Node2 -->
<g id="node2" class="node"><title>Node2</title>
<g id="a_node2"><a xlink:href="classsoftwarecontainer_1_1_netlink.html#a3255285a947564b8c8cd62b395fd9345" target="_top" xlink:title="Get all addresses associated with the given interface index. ">
<polygon fill="white" stroke="black" points="223.5,-343.5 223.5,-373.5 339.5,-373.5 339.5,-343.5 223.5,-343.5"/>
<text text-anchor="start" x="231.5" y="-361.5" font-family="Helvetica,sans-Serif" font-size="10.00">softwarecontainer::</text>
<text text-anchor="middle" x="281.5" y="-350.5" font-family="Helvetica,sans-Serif" font-size="10.00">Netlink::findAddresses</text>
</a>
</g>
</g>
<!-- Node1&#45;&gt;Node2 -->
<g id="edge1" class="edge"><title>Node1&#45;&gt;Node2</title>
<path fill="none" stroke="midnightblue" d="M98.3494,-201.807C116.274,-231.53 159.731,-297.388 213,-334.5 215.143,-335.993 217.389,-337.403 219.706,-338.732"/>
<polygon fill="midnightblue" stroke="midnightblue" points="218.436,-342.015 228.93,-343.474 221.636,-335.789 218.436,-342.015"/>
</g>
<!-- Node5 -->
<g id="node5" class="node"><title>Node5</title>
<g id="a_node5"><a xlink:href="classsoftwarecontainer_1_1_netlink.html#aae62bee733a83c519d94b8abe4495319" target="_top" xlink:title="Check that the device given is a network bridge. ">
<polygon fill="white" stroke="black" points="231.5,-294.5 231.5,-324.5 331.5,-324.5 331.5,-294.5 231.5,-294.5"/>
<text text-anchor="start" x="239.5" y="-312.5" font-family="Helvetica,sans-Serif" font-size="10.00">softwarecontainer::</text>
<text text-anchor="middle" x="281.5" y="-301.5" font-family="Helvetica,sans-Serif" font-size="10.00">Netlink::findLink</text>
</a>
</g>
</g>
<!-- Node1&#45;&gt;Node5 -->
<g id="edge4" class="edge"><title>Node1&#45;&gt;Node5</title>
<path fill="none" stroke="midnightblue" d="M105.011,-201.837C127.26,-223.121 170.279,-261.678 213,-285.5 216.025,-287.187 219.19,-288.79 222.429,-290.309"/>
<polygon fill="midnightblue" stroke="midnightblue" points="221.135,-293.563 231.7,-294.363 223.94,-287.149 221.135,-293.563"/>
</g>
<!-- Node6 -->
<g id="node6" class="node"><title>Node6</title>
<g id="a_node6"><a xlink:href="classsoftwarecontainer_1_1_gateway.html#a6f0a60c9f29ea869916f7524085b3e5f" target="_top" xlink:title="Get a handle to the associated container. ">
<polygon fill="white" stroke="black" points="223,-245.5 223,-275.5 340,-275.5 340,-245.5 223,-245.5"/>
<text text-anchor="start" x="231" y="-263.5" font-family="Helvetica,sans-Serif" font-size="10.00">softwarecontainer::</text>
<text text-anchor="middle" x="281.5" y="-252.5" font-family="Helvetica,sans-Serif" font-size="10.00">Gateway::getContainer</text>
</a>
</g>
</g>
<!-- Node1&#45;&gt;Node6 -->
<g id="edge6" class="edge"><title>Node1&#45;&gt;Node6</title>
<path fill="none" stroke="midnightblue" d="M125.545,-201.57C150.09,-211.715 183.377,-225.243 213,-236.5 217.747,-238.304 222.696,-240.143 227.663,-241.96"/>
<polygon fill="midnightblue" stroke="midnightblue" points="226.594,-245.295 237.188,-245.412 228.979,-238.714 226.594,-245.295"/>
</g>
<!-- Node7 -->
<g id="node7" class="node"><title>Node7</title>
<g id="a_node7"><a xlink:href="classsoftwarecontainer_1_1_netlink.html#aefff579caa3b1a56a33993daeb310d5f" target="_top" xlink:title="checks if an address is present in the given list ">
<polygon fill="white" stroke="black" points="229,-196.5 229,-226.5 334,-226.5 334,-196.5 229,-196.5"/>
<text text-anchor="start" x="237" y="-214.5" font-family="Helvetica,sans-Serif" font-size="10.00">softwarecontainer::</text>
<text text-anchor="middle" x="281.5" y="-203.5" font-family="Helvetica,sans-Serif" font-size="10.00">Netlink::hasAddress</text>
</a>
</g>
</g>
<!-- Node1&#45;&gt;Node7 -->
<g id="edge7" class="edge"><title>Node1&#45;&gt;Node7</title>
<path fill="none" stroke="midnightblue" d="M177.174,-197.976C191.24,-199.817 205.535,-201.688 218.826,-203.427"/>
<polygon fill="midnightblue" stroke="midnightblue" points="218.404,-206.902 228.773,-204.729 219.312,-199.961 218.404,-206.902"/>
</g>
<!-- Node8 -->
<g id="node8" class="node"><title>Node8</title>
<g id="a_node8"><a xlink:href="classsoftwarecontainer_1_1_netlink.html#a8cbb4583356449b812c4e7e70e54efdd" target="_top" xlink:title="Bring a given interface down. ">
<polygon fill="white" stroke="black" points="231.5,-147.5 231.5,-177.5 331.5,-177.5 331.5,-147.5 231.5,-147.5"/>
<text text-anchor="start" x="239.5" y="-165.5" font-family="Helvetica,sans-Serif" font-size="10.00">softwarecontainer::</text>
<text text-anchor="middle" x="281.5" y="-154.5" font-family="Helvetica,sans-Serif" font-size="10.00">Netlink::linkDown</text>
</a>
</g>
</g>
<!-- Node1&#45;&gt;Node8 -->
<g id="edge8" class="edge"><title>Node1&#45;&gt;Node8</title>
<path fill="none" stroke="midnightblue" d="M177.174,-175.483C192.167,-173.599 207.42,-171.683 221.44,-169.921"/>
<polygon fill="midnightblue" stroke="midnightblue" points="221.924,-173.388 231.41,-168.668 221.051,-166.443 221.924,-173.388"/>
</g>
<!-- Node9 -->
<g id="node9" class="node"><title>Node9</title>
<g id="a_node9"><a xlink:href="classsoftwarecontainer_1_1_netlink.html#a2b2c0295e9735db64d82d9ed911bdfc7" target="_top" xlink:title="Bring the given interface up. ">
<polygon fill="white" stroke="black" points="231.5,-98.5 231.5,-128.5 331.5,-128.5 331.5,-98.5 231.5,-98.5"/>
<text text-anchor="start" x="239.5" y="-116.5" font-family="Helvetica,sans-Serif" font-size="10.00">softwarecontainer::</text>
<text text-anchor="middle" x="281.5" y="-105.5" font-family="Helvetica,sans-Serif" font-size="10.00">Netlink::linkUp</text>
</a>
</g>
</g>
<!-- Node1&#45;&gt;Node9 -->
<g id="edge9" class="edge"><title>Node1&#45;&gt;Node9</title>
<path fill="none" stroke="midnightblue" d="M127.824,-171.423C152.179,-161.887 184.396,-149.355 213,-138.5 218.464,-136.426 224.184,-134.276 229.885,-132.147"/>
<polygon fill="midnightblue" stroke="midnightblue" points="231.261,-135.369 239.411,-128.599 228.818,-128.809 231.261,-135.369"/>
</g>
<!-- Node10 -->
<g id="node10" class="node"><title>Node10</title>
<g id="a_node10"><a xlink:href="classsoftwarecontainer_1_1_netlink.html#aa71449f361a756717daadc81dd1a6ceb" target="_top" xlink:title="Sets an ip address as the default gateway. ">
<polygon fill="white" stroke="black" points="213,-49.5 213,-79.5 350,-79.5 350,-49.5 213,-49.5"/>
<text text-anchor="start" x="221" y="-67.5" font-family="Helvetica,sans-Serif" font-size="10.00">softwarecontainer::</text>
<text text-anchor="middle" x="281.5" y="-56.5" font-family="Helvetica,sans-Serif" font-size="10.00">Netlink::setDefaultGateway</text>
</a>
</g>
</g>
<!-- Node1&#45;&gt;Node10 -->
<g id="edge11" class="edge"><title>Node1&#45;&gt;Node10</title>
<path fill="none" stroke="midnightblue" d="M105.494,-171.222C127.972,-150.416 170.89,-113.068 213,-89.5 216.68,-87.4401 220.564,-85.4889 224.532,-83.6534"/>
<polygon fill="midnightblue" stroke="midnightblue" points="226.116,-86.7811 233.892,-79.5841 223.325,-80.3616 226.116,-86.7811"/>
</g>
<!-- Node11 -->
<g id="node11" class="node"><title>Node11</title>
<g id="a_node11"><a xlink:href="classsoftwarecontainer_1_1_netlink.html#a17579e4a28ddbc007bc4108510a79656" target="_top" xlink:title="Sets an IP address for a network link. ">
<polygon fill="white" stroke="black" points="231.5,-0.5 231.5,-30.5 331.5,-30.5 331.5,-0.5 231.5,-0.5"/>
<text text-anchor="start" x="239.5" y="-18.5" font-family="Helvetica,sans-Serif" font-size="10.00">softwarecontainer::</text>
<text text-anchor="middle" x="281.5" y="-7.5" font-family="Helvetica,sans-Serif" font-size="10.00">Netlink::setIP</text>
</a>
</g>
</g>
<!-- Node1&#45;&gt;Node11 -->
<g id="edge12" class="edge"><title>Node1&#45;&gt;Node11</title>
<path fill="none" stroke="midnightblue" d="M98.4446,-171.465C116.536,-142.26 160.272,-77.4862 213,-40.5 215.901,-38.4648 218.988,-36.5738 222.184,-34.8199"/>
<polygon fill="midnightblue" stroke="midnightblue" points="224.016,-37.818 231.415,-30.2344 220.902,-31.5489 224.016,-37.818"/>
</g>
<!-- Node3 -->
<g id="node3" class="node"><title>Node3</title>
<g id="a_node3"><a xlink:href="classsoftwarecontainer_1_1_netlink.html#a04e7cfff31da1e4c4576a052346ea598" target="_top" xlink:title="check for a kernel dump, and if not present, try to get one ">
<polygon fill="white" stroke="black" points="386,-294.5 386,-324.5 520,-324.5 520,-294.5 386,-294.5"/>
<text text-anchor="start" x="394" y="-312.5" font-family="Helvetica,sans-Serif" font-size="10.00">softwarecontainer::</text>
<text text-anchor="middle" x="453" y="-301.5" font-family="Helvetica,sans-Serif" font-size="10.00">Netlink::checkKernelDump</text>
</a>
</g>
</g>
<!-- Node2&#45;&gt;Node3 -->
<g id="edge2" class="edge"><title>Node2&#45;&gt;Node3</title>
<path fill="none" stroke="midnightblue" d="M334.739,-343.399C352.301,-338.321 372.059,-332.61 390.28,-327.342"/>
<polygon fill="midnightblue" stroke="midnightblue" points="391.299,-330.691 399.934,-324.552 389.355,-323.966 391.299,-330.691"/>
</g>
<!-- Node4 -->
<g id="node4" class="node"><title>Node4</title>
<g id="a_node4"><a xlink:href="classsoftwarecontainer_1_1_netlink.html#ade23853f3df53186bd2601b3749db5e4" target="_top" xlink:title="get a dump of all links, addresses and routes from the kernel. ">
<polygon fill="white" stroke="black" points="556,-294.5 556,-324.5 677,-324.5 677,-294.5 556,-294.5"/>
<text text-anchor="start" x="564" y="-312.5" font-family="Helvetica,sans-Serif" font-size="10.00">softwarecontainer::</text>
<text text-anchor="middle" x="616.5" y="-301.5" font-family="Helvetica,sans-Serif" font-size="10.00">Netlink::getKernelDump</text>
</a>
</g>
</g>
<!-- Node3&#45;&gt;Node4 -->
<g id="edge3" class="edge"><title>Node3&#45;&gt;Node4</title>
<path fill="none" stroke="midnightblue" d="M520.154,-309.5C528.577,-309.5 537.218,-309.5 545.696,-309.5"/>
<polygon fill="midnightblue" stroke="midnightblue" points="545.93,-313 555.93,-309.5 545.93,-306 545.93,-313"/>
</g>
<!-- Node5&#45;&gt;Node3 -->
<g id="edge5" class="edge"><title>Node5&#45;&gt;Node3</title>
<path fill="none" stroke="midnightblue" d="M331.526,-309.5C345.27,-309.5 360.547,-309.5 375.48,-309.5"/>
<polygon fill="midnightblue" stroke="midnightblue" points="375.741,-313 385.741,-309.5 375.74,-306 375.741,-313"/>
</g>
<!-- Node9&#45;&gt;Node3 -->
<g id="edge10" class="edge"><title>Node9&#45;&gt;Node3</title>
<path fill="none" stroke="midnightblue" d="M331.524,-127.076C338.14,-130.179 344.524,-133.945 350,-138.5 398.341,-178.71 429.482,-248.111 443.46,-284.919"/>
<polygon fill="midnightblue" stroke="midnightblue" points="440.206,-286.212 446.947,-294.385 446.774,-283.792 440.206,-286.212"/>
</g>
</g>
</svg>
