<?xml version="1.0" encoding="UTF-8" standalone="no"?>
<!DOCTYPE svg PUBLIC "-//W3C//DTD SVG 1.1//EN"
 "http://www.w3.org/Graphics/SVG/1.1/DTD/svg11.dtd">
<!-- Generated by graphviz version 2.38.0 (20140413.2041)
 -->
<!-- Title: softwarecontainer::DBusGateway::setConfig Pages: 1 -->
<svg width="457pt" height="137pt"
 viewBox="0.00 0.00 457.00 137.00" xmlns="http://www.w3.org/2000/svg" xmlns:xlink="http://www.w3.org/1999/xlink">
<g id="graph0" class="graph" transform="scale(1 1) rotate(0) translate(4 133)">
<title>softwarecontainer::DBusGateway::setConfig</title>
<polygon fill="white" stroke="none" points="-4,4 -4,-133 453,-133 453,4 -4,4"/>
<!-- Node1 -->
<g id="node1" class="node"><title>Node1</title>
<polygon fill="#bfbfbf" stroke="black" points="0,-73.5 0,-103.5 128,-103.5 128,-73.5 0,-73.5"/>
<text text-anchor="start" x="8" y="-91.5" font-family="Helvetica,sans-Serif" font-size="10.00">softwarecontainer::</text>
<text text-anchor="middle" x="64" y="-80.5" font-family="Helvetica,sans-Serif" font-size="10.00">DBusGateway::setConfig</text>
</g>
<!-- Node2 -->
<g id="node2" class="node"><title>Node2</title>
<g id="a_node2"><a xlink:href="namespacesoftwarecontainer.html#a51a25e6a54b7bb79fc5b4ce8902a31a4" target="_top" xlink:title="isError Check if ReturnCode indicates Error or not ">
<polygon fill="white" stroke="black" points="326.5,-98.5 326.5,-128.5 426.5,-128.5 426.5,-98.5 326.5,-98.5"/>
<text text-anchor="start" x="334.5" y="-116.5" font-family="Helvetica,sans-Serif" font-size="10.00">softwarecontainer::</text>
<text text-anchor="middle" x="376.5" y="-105.5" font-family="Helvetica,sans-Serif" font-size="10.00">isError</text>
</a>
</g>
</g>
<!-- Node1&#45;&gt;Node2 -->
<g id="edge1" class="edge"><title>Node1&#45;&gt;Node2</title>
<path fill="none" stroke="midnightblue" d="M128.209,-93.5893C183.18,-98.0153 262.247,-104.381 316.075,-108.715"/>
<polygon fill="midnightblue" stroke="midnightblue" points="315.906,-112.213 326.154,-109.527 316.467,-105.236 315.906,-112.213"/>
</g>
<!-- Node3 -->
<g id="node3" class="node"><title>Node3</title>
<g id="a_node3"><a xlink:href="classsoftwarecontainer_1_1_gateway.html#a889e0f0ec4060e203972eefe9221f81a" target="_top" xlink:title="Configure this gateway according to the supplied JSON configuration string. ">
<polygon fill="white" stroke="black" points="164,-50.5 164,-80.5 268,-80.5 268,-50.5 164,-50.5"/>
<text text-anchor="start" x="172" y="-68.5" font-family="Helvetica,sans-Serif" font-size="10.00">softwarecontainer::</text>
<text text-anchor="middle" x="216" y="-57.5" font-family="Helvetica,sans-Serif" font-size="10.00">Gateway::setConfig</text>
</a>
</g>
</g>
<!-- Node1&#45;&gt;Node3 -->
<g id="edge2" class="edge"><title>Node1&#45;&gt;Node3</title>
<path fill="none" stroke="midnightblue" d="M128.179,-78.8126C136.603,-77.5208 145.232,-76.1978 153.625,-74.9109"/>
<polygon fill="midnightblue" stroke="midnightblue" points="154.362,-78.3388 163.716,-73.3635 153.301,-71.4197 154.362,-78.3388"/>
</g>
<!-- Node3&#45;&gt;Node2 -->
<g id="edge4" class="edge"><title>Node3&#45;&gt;Node2</title>
<path fill="none" stroke="midnightblue" d="M266.716,-80.5558C282.429,-85.3144 299.95,-90.6204 316.26,-95.5599"/>
<polygon fill="midnightblue" stroke="midnightblue" points="315.648,-99.0313 326.233,-98.58 317.677,-92.3317 315.648,-99.0313"/>
</g>
<!-- Node4 -->
<g id="node4" class="node"><title>Node4</title>
<g id="a_node4"><a xlink:href="classsoftwarecontainer_1_1_gateway.html#af421b6ffb3db76240a491b2302e78699" target="_top" xlink:title="softwarecontainer::\lGateway::id">
<polygon fill="white" stroke="black" points="326.5,-49.5 326.5,-79.5 426.5,-79.5 426.5,-49.5 326.5,-49.5"/>
<text text-anchor="start" x="334.5" y="-67.5" font-family="Helvetica,sans-Serif" font-size="10.00">softwarecontainer::</text>
<text text-anchor="middle" x="376.5" y="-56.5" font-family="Helvetica,sans-Serif" font-size="10.00">Gateway::id</text>
</a>
</g>
</g>
<!-- Node3&#45;&gt;Node4 -->
<g id="edge3" class="edge"><title>Node3&#45;&gt;Node4</title>
<path fill="none" stroke="midnightblue" d="M268.023,-65.1781C283.39,-65.0811 300.385,-64.9739 316.239,-64.8739"/>
<polygon fill="midnightblue" stroke="midnightblue" points="316.486,-68.3725 326.464,-64.8094 316.442,-61.3726 316.486,-68.3725"/>
</g>
<!-- Node5 -->
<g id="node5" class="node"><title>Node5</title>
<g id="a_node5"><a xlink:href="classsoftwarecontainer_1_1_gateway.html#a9f833c193f13516b4ae9e717f834e931" target="_top" xlink:title="Gateway specific parsing of config elements. ">
<polygon fill="white" stroke="black" points="304,-0.5 304,-30.5 449,-30.5 449,-0.5 304,-0.5"/>
<text text-anchor="start" x="312" y="-18.5" font-family="Helvetica,sans-Serif" font-size="10.00">softwarecontainer::</text>
<text text-anchor="middle" x="376.5" y="-7.5" font-family="Helvetica,sans-Serif" font-size="10.00">Gateway::readConfigElement</text>
</a>
</g>
</g>
<!-- Node3&#45;&gt;Node5 -->
<g id="edge5" class="edge"><title>Node3&#45;&gt;Node5</title>
<path fill="none" stroke="midnightblue" d="M264.555,-50.4984C281.405,-45.1831 300.543,-39.1459 318.123,-33.6001"/>
<polygon fill="midnightblue" stroke="midnightblue" points="319.221,-36.9238 327.705,-30.5774 317.115,-30.248 319.221,-36.9238"/>
</g>
</g>
</svg>
