<?xml version="1.0" encoding="UTF-8" standalone="no"?>
<!DOCTYPE svg PUBLIC "-//W3C//DTD SVG 1.1//EN"
 "http://www.w3.org/Graphics/SVG/1.1/DTD/svg11.dtd">
<!-- Generated by graphviz version 2.38.0 (20140413.2041)
 -->
<!-- Title: softwarecontainer::FileToolkitWithUndo::pathInList Pages: 1 -->
<svg width="634pt" height="282pt"
 viewBox="0.00 0.00 634.00 282.09" xmlns="http://www.w3.org/2000/svg" xmlns:xlink="http://www.w3.org/1999/xlink">
<g id="graph0" class="graph" transform="scale(1 1) rotate(0) translate(4 278.086)">
<title>softwarecontainer::FileToolkitWithUndo::pathInList</title>
<polygon fill="white" stroke="none" points="-4,4 -4,-278.086 630,-278.086 630,4 -4,4"/>
<!-- Node1 -->
<g id="node1" class="node"><title>Node1</title>
<polygon fill="#bfbfbf" stroke="black" points="0,-152.5 0,-193.5 105,-193.5 105,-152.5 0,-152.5"/>
<text text-anchor="start" x="8" y="-181.5" font-family="Helvetica,sans-Serif" font-size="10.00">softwarecontainer::</text>
<text text-anchor="start" x="8" y="-170.5" font-family="Helvetica,sans-Serif" font-size="10.00">FileToolkitWithUndo</text>
<text text-anchor="middle" x="52.5" y="-159.5" font-family="Helvetica,sans-Serif" font-size="10.00">::pathInList</text>
</g>
<!-- Node2 -->
<g id="node2" class="node"><title>Node2</title>
<g id="a_node2"><a xlink:href="classsoftwarecontainer_1_1_container.html#ae5445d6a0c4b8b006ed38b3c01bb870c" target="_top" xlink:title="Tries to bind mount a path from host to container. ">
<polygon fill="white" stroke="black" points="466,-213 466,-243 626,-243 626,-213 466,-213"/>
<text text-anchor="start" x="474" y="-231" font-family="Helvetica,sans-Serif" font-size="10.00">softwarecontainer::</text>
<text text-anchor="middle" x="546" y="-220" font-family="Helvetica,sans-Serif" font-size="10.00">Container::bindMountInContainer</text>
</a>
</g>
</g>
<!-- Node1&#45;&gt;Node2 -->
<g id="edge1" class="edge"><title>Node1&#45;&gt;Node2</title>
<path fill="none" stroke="midnightblue" d="M80.8067,-200.548C96.9229,-215.073 118.524,-231.753 141,-241 259.989,-289.955 302.379,-274.372 430,-258 452.922,-255.059 477.799,-248.95 498.533,-243.007"/>
<polygon fill="midnightblue" stroke="midnightblue" points="83.0665,-197.87 73.3559,-193.633 78.3045,-203.001 83.0665,-197.87"/>
</g>
<!-- Node3 -->
<g id="node3" class="node"><title>Node3</title>
<g id="a_node3"><a xlink:href="classsoftwarecontainer_1_1_file_toolkit_with_undo.html#a35eb42bdace2695fb3e96cb84a535213" target="_top" xlink:title="createDirectory Create a directory, and if successful append it to a list of dirs to be deleted in th...">
<polygon fill="white" stroke="black" points="141,-114.5 141,-155.5 246,-155.5 246,-114.5 141,-114.5"/>
<text text-anchor="start" x="149" y="-143.5" font-family="Helvetica,sans-Serif" font-size="10.00">softwarecontainer::</text>
<text text-anchor="start" x="149" y="-132.5" font-family="Helvetica,sans-Serif" font-size="10.00">FileToolkitWithUndo</text>
<text text-anchor="middle" x="193.5" y="-121.5" font-family="Helvetica,sans-Serif" font-size="10.00">::createDirectory</text>
</a>
</g>
</g>
<!-- Node1&#45;&gt;Node3 -->
<g id="edge2" class="edge"><title>Node1&#45;&gt;Node3</title>
<path fill="none" stroke="midnightblue" d="M115.163,-156.142C123.69,-153.811 132.375,-151.437 140.698,-149.162"/>
<polygon fill="midnightblue" stroke="midnightblue" points="113.982,-152.837 105.258,-158.85 115.827,-159.589 113.982,-152.837"/>
</g>
<!-- Node5 -->
<g id="node5" class="node"><title>Node5</title>
<g id="a_node5"><a xlink:href="classsoftwarecontainer_1_1_file_toolkit_with_undo.html#a14711e649249d7f0b7e264c7d426ea23" target="_top" xlink:title="overlayMount Mount a directory with an overlay on top of it. ">
<polygon fill="white" stroke="black" points="303.5,-0.5 303.5,-41.5 408.5,-41.5 408.5,-0.5 303.5,-0.5"/>
<text text-anchor="start" x="311.5" y="-29.5" font-family="Helvetica,sans-Serif" font-size="10.00">softwarecontainer::</text>
<text text-anchor="start" x="311.5" y="-18.5" font-family="Helvetica,sans-Serif" font-size="10.00">FileToolkitWithUndo</text>
<text text-anchor="middle" x="356" y="-7.5" font-family="Helvetica,sans-Serif" font-size="10.00">::overlayMount</text>
</a>
</g>
</g>
<!-- Node1&#45;&gt;Node5 -->
<g id="edge8" class="edge"><title>Node1&#45;&gt;Node5</title>
<path fill="none" stroke="midnightblue" d="M84.3289,-145.508C100.43,-132.092 120.923,-116.425 141,-105 193.554,-75.0944 258.853,-51.1661 303.407,-36.614"/>
<polygon fill="midnightblue" stroke="midnightblue" points="81.6998,-143.148 76.3346,-152.284 86.226,-148.488 81.6998,-143.148"/>
</g>
<!-- Node8 -->
<g id="node8" class="node"><title>Node8</title>
<g id="a_node8"><a xlink:href="classsoftwarecontainer_1_1_file_toolkit_with_undo.html#a649391903bf1a0eec92c829713117a74" target="_top" xlink:title="tempDir Creates a temporary directory at templatePath. ">
<polygon fill="white" stroke="black" points="141,-190.5 141,-231.5 246,-231.5 246,-190.5 141,-190.5"/>
<text text-anchor="start" x="149" y="-219.5" font-family="Helvetica,sans-Serif" font-size="10.00">softwarecontainer::</text>
<text text-anchor="start" x="149" y="-208.5" font-family="Helvetica,sans-Serif" font-size="10.00">FileToolkitWithUndo</text>
<text text-anchor="middle" x="193.5" y="-197.5" font-family="Helvetica,sans-Serif" font-size="10.00">::tempDir</text>
</a>
</g>
</g>
<!-- Node1&#45;&gt;Node8 -->
<g id="edge9" class="edge"><title>Node1&#45;&gt;Node8</title>
<path fill="none" stroke="midnightblue" d="M115.163,-189.858C123.69,-192.189 132.375,-194.563 140.698,-196.838"/>
<polygon fill="midnightblue" stroke="midnightblue" points="115.827,-186.411 105.258,-187.15 113.982,-193.163 115.827,-186.411"/>
</g>
<!-- Node3&#45;&gt;Node2 -->
<g id="edge3" class="edge"><title>Node3&#45;&gt;Node2</title>
<path fill="none" stroke="midnightblue" d="M256.04,-151.972C264.751,-154.348 273.599,-156.746 282,-159 320.412,-169.306 422.198,-195.938 487.291,-212.94"/>
<polygon fill="midnightblue" stroke="midnightblue" points="256.863,-148.569 246.294,-149.309 255.018,-155.321 256.863,-148.569"/>
</g>
<!-- Node4 -->
<g id="node4" class="node"><title>Node4</title>
<g id="a_node4"><a xlink:href="classsoftwarecontainer_1_1_container.html#a25102e42007fb34a93d982b231ae6c78" target="_top" xlink:title="Setup the container for startup. ">
<polygon fill="white" stroke="black" points="306,-120 306,-150 406,-150 406,-120 306,-120"/>
<text text-anchor="start" x="314" y="-138" font-family="Helvetica,sans-Serif" font-size="10.00">softwarecontainer::</text>
<text text-anchor="middle" x="356" y="-127" font-family="Helvetica,sans-Serif" font-size="10.00">Container::initialize</text>
</a>
</g>
</g>
<!-- Node3&#45;&gt;Node4 -->
<g id="edge4" class="edge"><title>Node3&#45;&gt;Node4</title>
<path fill="none" stroke="midnightblue" d="M256.237,-135C272.681,-135 290.222,-135 305.889,-135"/>
<polygon fill="midnightblue" stroke="midnightblue" points="256.167,-131.5 246.167,-135 256.167,-138.5 256.167,-131.5"/>
</g>
<!-- Node3&#45;&gt;Node5 -->
<g id="edge5" class="edge"><title>Node3&#45;&gt;Node5</title>
<path fill="none" stroke="midnightblue" d="M218.916,-106.611C235.351,-88.8345 258.285,-66.4515 282,-51 288.659,-46.6617 296.047,-42.7492 303.493,-39.2924"/>
<polygon fill="midnightblue" stroke="midnightblue" points="215.966,-104.653 211.842,-114.412 221.152,-109.355 215.966,-104.653"/>
</g>
<!-- Node7 -->
<g id="node7" class="node"><title>Node7</title>
<g id="a_node7"><a xlink:href="classsoftwarecontainer_1_1_software_container.html#aa699253aa7955f9d41c78324d5f49184" target="_top" xlink:title="Indicates if gateways have been configured previously. ">
<polygon fill="white" stroke="black" points="282,-60.5 282,-101.5 430,-101.5 430,-60.5 282,-60.5"/>
<text text-anchor="start" x="290" y="-89.5" font-family="Helvetica,sans-Serif" font-size="10.00">softwarecontainer::</text>
<text text-anchor="start" x="290" y="-78.5" font-family="Helvetica,sans-Serif" font-size="10.00">SoftwareContainer::previously</text>
<text text-anchor="middle" x="356" y="-67.5" font-family="Helvetica,sans-Serif" font-size="10.00">Configured</text>
</a>
</g>
</g>
<!-- Node3&#45;&gt;Node7 -->
<g id="edge7" class="edge"><title>Node3&#45;&gt;Node7</title>
<path fill="none" stroke="midnightblue" d="M255.979,-114.316C268.415,-110.131 281.488,-105.733 293.911,-101.553"/>
<polygon fill="midnightblue" stroke="midnightblue" points="254.528,-111.111 246.167,-117.617 256.761,-117.745 254.528,-111.111"/>
</g>
<!-- Node6 -->
<g id="node6" class="node"><title>Node6</title>
<g id="a_node6"><a xlink:href="classsoftwarecontainer_1_1_container.html#a67f48ee29e9294f4f42436e1297d34c7" target="_top" xlink:title="create Creates a new lxc_container and creates it with all the initialization. ">
<polygon fill="white" stroke="black" points="496,-6 496,-36 596,-36 596,-6 496,-6"/>
<text text-anchor="start" x="504" y="-24" font-family="Helvetica,sans-Serif" font-size="10.00">softwarecontainer::</text>
<text text-anchor="middle" x="546" y="-13" font-family="Helvetica,sans-Serif" font-size="10.00">Container::create</text>
</a>
</g>
</g>
<!-- Node5&#45;&gt;Node6 -->
<g id="edge6" class="edge"><title>Node5&#45;&gt;Node6</title>
<path fill="none" stroke="midnightblue" d="M418.979,-21C443.963,-21 472.373,-21 495.887,-21"/>
<polygon fill="midnightblue" stroke="midnightblue" points="418.87,-17.5001 408.869,-21 418.869,-24.5001 418.87,-17.5001"/>
</g>
<!-- Node9 -->
<g id="node9" class="node"><title>Node9</title>
<g id="a_node9"><a xlink:href="classsoftwarecontainer_1_1_file_toolkit_with_undo.html#a97fda85bea6f756d0620927c920ce83b" target="_top" xlink:title="bindMount Bind mount a src directory to another position dst. ">
<polygon fill="white" stroke="black" points="303.5,-207.5 303.5,-248.5 408.5,-248.5 408.5,-207.5 303.5,-207.5"/>
<text text-anchor="start" x="311.5" y="-236.5" font-family="Helvetica,sans-Serif" font-size="10.00">softwarecontainer::</text>
<text text-anchor="start" x="311.5" y="-225.5" font-family="Helvetica,sans-Serif" font-size="10.00">FileToolkitWithUndo</text>
<text text-anchor="middle" x="356" y="-214.5" font-family="Helvetica,sans-Serif" font-size="10.00">::bindMount</text>
</a>
</g>
</g>
<!-- Node8&#45;&gt;Node9 -->
<g id="edge10" class="edge"><title>Node8&#45;&gt;Node9</title>
<path fill="none" stroke="midnightblue" d="M256.242,-217.54C271.829,-219.191 288.402,-220.946 303.43,-222.538"/>
<polygon fill="midnightblue" stroke="midnightblue" points="256.48,-214.045 246.167,-216.472 255.742,-221.006 256.48,-214.045"/>
</g>
<!-- Node9&#45;&gt;Node2 -->
<g id="edge11" class="edge"><title>Node9&#45;&gt;Node2</title>
<path fill="none" stroke="midnightblue" d="M419.014,-228C433.982,-228 450.178,-228 465.814,-228"/>
<polygon fill="midnightblue" stroke="midnightblue" points="418.87,-224.5 408.869,-228 418.869,-231.5 418.87,-224.5"/>
</g>
</g>
</svg>
