<?xml version="1.0" encoding="UTF-8" standalone="no"?>
<!DOCTYPE svg PUBLIC "-//W3C//DTD SVG 1.1//EN"
 "http://www.w3.org/Graphics/SVG/1.1/DTD/svg11.dtd">
<!-- Generated by graphviz version 2.38.0 (20140413.2041)
 -->
<!-- Title: softwarecontainer::FileToolkitWithUndo Pages: 1 -->
<svg width="271pt" height="186pt"
 viewBox="0.00 0.00 271.00 186.00" xmlns="http://www.w3.org/2000/svg" xmlns:xlink="http://www.w3.org/1999/xlink">
<g id="graph0" class="graph" transform="scale(1 1) rotate(0) translate(4 182)">
<title>softwarecontainer::FileToolkitWithUndo</title>
<polygon fill="white" stroke="none" points="-4,4 -4,-182 267,-182 267,4 -4,4"/>
<!-- Node1 -->
<g id="node1" class="node"><title>Node1</title>
<polygon fill="#bfbfbf" stroke="black" points="0,-73.5 0,-103.5 105,-103.5 105,-73.5 0,-73.5"/>
<text text-anchor="start" x="8" y="-91.5" font-family="Helvetica,sans-Serif" font-size="10.00">softwarecontainer::</text>
<text text-anchor="middle" x="52.5" y="-80.5" font-family="Helvetica,sans-Serif" font-size="10.00">FileToolkitWithUndo</text>
</g>
<!-- Node2 -->
<g id="node2" class="node"><title>Node2</title>
<g id="a_node2"><a xlink:href="classsoftwarecontainer_1_1_container.html" target="_top" xlink:title="The Container class is an abstraction of the specific containment technology used. ">
<polygon fill="white" stroke="black" points="152,-147.5 152,-177.5 252,-177.5 252,-147.5 152,-147.5"/>
<text text-anchor="start" x="160" y="-165.5" font-family="Helvetica,sans-Serif" font-size="10.00">softwarecontainer::</text>
<text text-anchor="middle" x="202" y="-154.5" font-family="Helvetica,sans-Serif" font-size="10.00">Container</text>
</a>
</g>
</g>
<!-- Node1&#45;&gt;Node2 -->
<g id="edge1" class="edge"><title>Node1&#45;&gt;Node2</title>
<path fill="none" stroke="#8b1a1a" d="M86.9051,-109.04C102.978,-118.544 122.693,-129.66 141,-138.5 147.365,-141.573 154.231,-144.587 160.966,-147.385"/>
<polygon fill="#8b1a1a" stroke="#8b1a1a" points="88.2802,-105.784 77.9007,-103.659 84.6895,-111.793 88.2802,-105.784"/>
</g>
<!-- Node3 -->
<g id="node3" class="node"><title>Node3</title>
<g id="a_node3"><a xlink:href="classsoftwarecontainer_1_1_container_utility_interface.html" target="_top" xlink:title="softwarecontainer::\lContainerUtilityInterface">
<polygon fill="white" stroke="black" points="141,-98.5 141,-128.5 263,-128.5 263,-98.5 141,-98.5"/>
<text text-anchor="start" x="149" y="-116.5" font-family="Helvetica,sans-Serif" font-size="10.00">softwarecontainer::</text>
<text text-anchor="middle" x="202" y="-105.5" font-family="Helvetica,sans-Serif" font-size="10.00">ContainerUtilityInterface</text>
</a>
</g>
</g>
<!-- Node1&#45;&gt;Node3 -->
<g id="edge2" class="edge"><title>Node1&#45;&gt;Node3</title>
<path fill="none" stroke="#8b1a1a" d="M114.993,-98.9225C123.542,-100.372 132.318,-101.859 140.843,-103.304"/>
<polygon fill="#8b1a1a" stroke="#8b1a1a" points="115.533,-95.4642 105.088,-97.2438 114.363,-102.366 115.533,-95.4642"/>
</g>
<!-- Node4 -->
<g id="node4" class="node"><title>Node4</title>
<g id="a_node4"><a xlink:href="classsoftwarecontainer_1_1_device_node_gateway.html" target="_top" xlink:title="This gateway is responsible for exposing device nodes in an LXC container. ">
<polygon fill="white" stroke="black" points="147,-49.5 147,-79.5 257,-79.5 257,-49.5 147,-49.5"/>
<text text-anchor="start" x="155" y="-67.5" font-family="Helvetica,sans-Serif" font-size="10.00">softwarecontainer::</text>
<text text-anchor="middle" x="202" y="-56.5" font-family="Helvetica,sans-Serif" font-size="10.00">DeviceNodeGateway</text>
</a>
</g>
</g>
<!-- Node1&#45;&gt;Node4 -->
<g id="edge3" class="edge"><title>Node1&#45;&gt;Node4</title>
<path fill="none" stroke="midnightblue" d="M115.091,-78.4784C125.664,-76.7581 136.58,-74.9819 146.937,-73.2967"/>
<polygon fill="midnightblue" stroke="midnightblue" points="114.396,-75.0453 105.088,-80.106 115.521,-81.9545 114.396,-75.0453"/>
</g>
<!-- Node5 -->
<g id="node5" class="node"><title>Node5</title>
<g id="a_node5"><a xlink:href="classsoftwarecontainer_1_1_software_container.html" target="_top" xlink:title="An abstraction of concrete container implementations. ">
<polygon fill="white" stroke="black" points="152,-0.5 152,-30.5 252,-30.5 252,-0.5 152,-0.5"/>
<text text-anchor="start" x="160" y="-18.5" font-family="Helvetica,sans-Serif" font-size="10.00">softwarecontainer::</text>
<text text-anchor="middle" x="202" y="-7.5" font-family="Helvetica,sans-Serif" font-size="10.00">SoftwareContainer</text>
</a>
</g>
</g>
<!-- Node1&#45;&gt;Node5 -->
<g id="edge4" class="edge"><title>Node1&#45;&gt;Node5</title>
<path fill="none" stroke="#8b1a1a" d="M88.0995,-68.4063C104.007,-59.4583 123.248,-49.0373 141,-40.5 148.017,-37.1253 155.61,-33.7536 162.96,-30.6284"/>
<polygon fill="#8b1a1a" stroke="#8b1a1a" points="86.1271,-65.5012 79.1555,-73.4792 89.5805,-71.5901 86.1271,-65.5012"/>
</g>
</g>
</svg>
