<?xml version="1.0" encoding="UTF-8" standalone="no"?>
<!DOCTYPE svg PUBLIC "-//W3C//DTD SVG 1.1//EN"
 "http://www.w3.org/Graphics/SVG/1.1/DTD/svg11.dtd">
<!-- Generated by graphviz version 2.38.0 (20140413.2041)
 -->
<!-- Title: OverlaySyncCleanupHandler::clean Pages: 1 -->
<svg width="343pt" height="66pt"
 viewBox="0.00 0.00 343.00 66.00" xmlns="http://www.w3.org/2000/svg" xmlns:xlink="http://www.w3.org/1999/xlink">
<g id="graph0" class="graph" transform="scale(1 1) rotate(0) translate(4 62)">
<title>OverlaySyncCleanupHandler::clean</title>
<polygon fill="white" stroke="none" points="-4,4 -4,-62 339,-62 339,4 -4,4"/>
<!-- Node1 -->
<g id="node1" class="node"><title>Node1</title>
<polygon fill="#bfbfbf" stroke="black" points="0,-14 0,-44 152,-44 152,-14 0,-14"/>
<text text-anchor="start" x="8" y="-32" font-family="Helvetica,sans-Serif" font-size="10.00">OverlaySyncCleanupHandler</text>
<text text-anchor="middle" x="76" y="-21" font-family="Helvetica,sans-Serif" font-size="10.00">::clean</text>
</g>
<!-- Node2 -->
<g id="node2" class="node"><title>Node2</title>
<g id="a_node2"><a xlink:href="class_recursive_copy.html#a0380f248366c2859b0ab39b155e13993" target="_top" xlink:title="copy Copy files from src to dst ">
<polygon fill="white" stroke="black" points="205,-38.5 205,-57.5 318,-57.5 318,-38.5 205,-38.5"/>
<text text-anchor="middle" x="261.5" y="-45.5" font-family="Helvetica,sans-Serif" font-size="10.00">RecursiveCopy::copy</text>
</a>
</g>
</g>
<!-- Node1&#45;&gt;Node2 -->
<g id="edge1" class="edge"><title>Node1&#45;&gt;Node2</title>
<path fill="none" stroke="midnightblue" d="M152.166,-36.7828C166.205,-38.2365 180.78,-39.7456 194.517,-41.1679"/>
<polygon fill="midnightblue" stroke="midnightblue" points="194.528,-44.6877 204.835,-42.2363 195.249,-37.7249 194.528,-44.6877"/>
</g>
<!-- Node3 -->
<g id="node3" class="node"><title>Node3</title>
<g id="a_node3"><a xlink:href="class_recursive_copy.html#a956c056e88a6d69e4088053d285d6b21" target="_top" xlink:title="getInstance Gets the RecursiveCopy instance. ">
<polygon fill="white" stroke="black" points="188,-0.5 188,-19.5 335,-19.5 335,-0.5 188,-0.5"/>
<text text-anchor="middle" x="261.5" y="-7.5" font-family="Helvetica,sans-Serif" font-size="10.00">RecursiveCopy::getInstance</text>
</a>
</g>
</g>
<!-- Node1&#45;&gt;Node3 -->
<g id="edge2" class="edge"><title>Node1&#45;&gt;Node3</title>
<path fill="none" stroke="midnightblue" d="M152.166,-21.2172C160.632,-20.3406 169.292,-19.4439 177.846,-18.5582"/>
<polygon fill="midnightblue" stroke="midnightblue" points="178.234,-22.0368 187.821,-17.5254 177.513,-15.074 178.234,-22.0368"/>
</g>
</g>
</svg>
