<?xml version="1.0" encoding="UTF-8" standalone="no"?>
<!DOCTYPE svg PUBLIC "-//W3C//DTD SVG 1.1//EN"
 "http://www.w3.org/Graphics/SVG/1.1/DTD/svg11.dtd">
<!-- Generated by graphviz version 2.38.0 (20140413.2041)
 -->
<!-- Title: Netlink::getKernelDump Pages: 1 -->
<svg width="475pt" height="104pt"
 viewBox="0.00 0.00 475.00 104.00" xmlns="http://www.w3.org/2000/svg" xmlns:xlink="http://www.w3.org/1999/xlink">
<g id="graph0" class="graph" transform="scale(1 1) rotate(0) translate(4 100)">
<title>Netlink::getKernelDump</title>
<polygon fill="white" stroke="none" points="-4,4 -4,-100 471,-100 471,4 -4,4"/>
<!-- Node1 -->
<g id="node1" class="node"><title>Node1</title>
<polygon fill="#bfbfbf" stroke="black" points="0,-19.5 0,-38.5 130,-38.5 130,-19.5 0,-19.5"/>
<text text-anchor="middle" x="65" y="-26.5" font-family="Helvetica,sans-Serif" font-size="10.00">Netlink::getKernelDump</text>
</g>
<!-- Node2 -->
<g id="node2" class="node"><title>Node2</title>
<g id="a_node2"><a xlink:href="class_netlink.html#af2756a7ed673d086466f75d57de09fdf" target="_top" xlink:title="check for a kernel dump, and if not present, try to get one ">
<polygon fill="white" stroke="black" points="166,-38.5 166,-57.5 308,-57.5 308,-38.5 166,-38.5"/>
<text text-anchor="middle" x="237" y="-45.5" font-family="Helvetica,sans-Serif" font-size="10.00">Netlink::checkKernelDump</text>
</a>
</g>
</g>
<!-- Node1&#45;&gt;Node2 -->
<g id="edge1" class="edge"><title>Node1&#45;&gt;Node2</title>
<path fill="none" stroke="midnightblue" d="M140.217,-37.2949C148.767,-38.2505 157.465,-39.2226 165.957,-40.1717"/>
<polygon fill="midnightblue" stroke="midnightblue" points="140.597,-33.8156 130.27,-36.1831 139.819,-40.7722 140.597,-33.8156"/>
</g>
<!-- Node6 -->
<g id="node6" class="node"><title>Node6</title>
<g id="a_node6"><a xlink:href="class_netlink.html#aca72209683b0e8ec83cf1c808561eb69" target="_top" xlink:title="Construct a new Netlink object. ">
<polygon fill="white" stroke="black" points="192.5,-0.5 192.5,-19.5 281.5,-19.5 281.5,-0.5 192.5,-0.5"/>
<text text-anchor="middle" x="237" y="-7.5" font-family="Helvetica,sans-Serif" font-size="10.00">Netlink::Netlink</text>
</a>
</g>
</g>
<!-- Node1&#45;&gt;Node6 -->
<g id="edge5" class="edge"><title>Node1&#45;&gt;Node6</title>
<path fill="none" stroke="midnightblue" d="M140.616,-20.6606C158.348,-18.6788 176.692,-16.6286 192.498,-14.8619"/>
<polygon fill="midnightblue" stroke="midnightblue" points="139.819,-17.2278 130.27,-21.8169 140.597,-24.1844 139.819,-17.2278"/>
</g>
<!-- Node3 -->
<g id="node3" class="node"><title>Node3</title>
<g id="a_node3"><a xlink:href="class_netlink.html#a543fb0107278eb2bf932cfa52a615f7a" target="_top" xlink:title="Bring the given interface up. ">
<polygon fill="white" stroke="black" points="363,-76.5 363,-95.5 448,-95.5 448,-76.5 363,-76.5"/>
<text text-anchor="middle" x="405.5" y="-83.5" font-family="Helvetica,sans-Serif" font-size="10.00">Netlink::linkUp</text>
</a>
</g>
</g>
<!-- Node2&#45;&gt;Node3 -->
<g id="edge2" class="edge"><title>Node2&#45;&gt;Node3</title>
<path fill="none" stroke="midnightblue" d="M289.809,-59.8243C313.283,-65.1816 340.665,-71.4311 362.787,-76.4799"/>
<polygon fill="midnightblue" stroke="midnightblue" points="290.543,-56.4019 280.015,-57.589 288.985,-63.2264 290.543,-56.4019"/>
</g>
<!-- Node4 -->
<g id="node4" class="node"><title>Node4</title>
<g id="a_node4"><a xlink:href="class_netlink.html#a2d30154efaa239d181651a953720f916" target="_top" xlink:title="Check that the device given is a network bridge. ">
<polygon fill="white" stroke="black" points="359.5,-38.5 359.5,-57.5 451.5,-57.5 451.5,-38.5 359.5,-38.5"/>
<text text-anchor="middle" x="405.5" y="-45.5" font-family="Helvetica,sans-Serif" font-size="10.00">Netlink::findLink</text>
</a>
</g>
</g>
<!-- Node2&#45;&gt;Node4 -->
<g id="edge3" class="edge"><title>Node2&#45;&gt;Node4</title>
<path fill="none" stroke="midnightblue" d="M318.296,-48C332.318,-48 346.453,-48 359.105,-48"/>
<polygon fill="midnightblue" stroke="midnightblue" points="318.128,-44.5001 308.128,-48 318.128,-51.5001 318.128,-44.5001"/>
</g>
<!-- Node5 -->
<g id="node5" class="node"><title>Node5</title>
<g id="a_node5"><a xlink:href="class_netlink.html#ad4bf08fab49ab14314e4925ecedd8cb6" target="_top" xlink:title="Get all addresses associated with the given interface index. ">
<polygon fill="white" stroke="black" points="344,-0.5 344,-19.5 467,-19.5 467,-0.5 344,-0.5"/>
<text text-anchor="middle" x="405.5" y="-7.5" font-family="Helvetica,sans-Serif" font-size="10.00">Netlink::findAddresses</text>
</a>
</g>
</g>
<!-- Node2&#45;&gt;Node5 -->
<g id="edge4" class="edge"><title>Node2&#45;&gt;Node5</title>
<path fill="none" stroke="midnightblue" d="M289.809,-36.1757C313.283,-30.8184 340.665,-24.5689 362.787,-19.5201"/>
<polygon fill="midnightblue" stroke="midnightblue" points="288.985,-32.7736 280.015,-38.411 290.543,-39.5981 288.985,-32.7736"/>
</g>
</g>
</svg>
