<?xml version="1.0" encoding="UTF-8" standalone="no"?>
<!DOCTYPE svg PUBLIC "-//W3C//DTD SVG 1.1//EN"
 "http://www.w3.org/Graphics/SVG/1.1/DTD/svg11.dtd">
<!-- Generated by graphviz version 2.38.0 (20140413.2041)
 -->
<!-- Title: softwarecontainer::Gateway::setContainer Pages: 1 -->
<svg width="319pt" height="88pt"
 viewBox="0.00 0.00 319.00 88.00" xmlns="http://www.w3.org/2000/svg" xmlns:xlink="http://www.w3.org/1999/xlink">
<g id="graph0" class="graph" transform="scale(1 1) rotate(0) translate(4 84)">
<title>softwarecontainer::Gateway::setContainer</title>
<polygon fill="white" stroke="none" points="-4,4 -4,-84 315,-84 315,4 -4,4"/>
<!-- Node1 -->
<g id="node1" class="node"><title>Node1</title>
<polygon fill="#bfbfbf" stroke="black" points="0,-24.5 0,-54.5 117,-54.5 117,-24.5 0,-24.5"/>
<text text-anchor="start" x="8" y="-42.5" font-family="Helvetica,sans-Serif" font-size="10.00">softwarecontainer::</text>
<text text-anchor="middle" x="58.5" y="-31.5" font-family="Helvetica,sans-Serif" font-size="10.00">Gateway::setContainer</text>
</g>
<!-- Node2 -->
<g id="node2" class="node"><title>Node2</title>
<g id="a_node2"><a xlink:href="classsoftwarecontainer_1_1_software_container.html#ac9483d1d07e84b77820498eba3e7b284" target="_top" xlink:title="Only used for testing, should not be used by e.g. ">
<polygon fill="white" stroke="black" points="153,-49.5 153,-79.5 311,-79.5 311,-49.5 153,-49.5"/>
<text text-anchor="start" x="161" y="-67.5" font-family="Helvetica,sans-Serif" font-size="10.00">softwarecontainer::</text>
<text text-anchor="middle" x="232" y="-56.5" font-family="Helvetica,sans-Serif" font-size="10.00">SoftwareContainer::addGateway</text>
</a>
</g>
</g>
<!-- Node1&#45;&gt;Node2 -->
<g id="edge1" class="edge"><title>Node1&#45;&gt;Node2</title>
<path fill="none" stroke="midnightblue" d="M127.208,-49.37C135.626,-50.5971 144.287,-51.8597 152.846,-53.1074"/>
<polygon fill="midnightblue" stroke="midnightblue" points="127.484,-45.8734 117.084,-47.8942 126.475,-52.8001 127.484,-45.8734"/>
</g>
<!-- Node3 -->
<g id="node3" class="node"><title>Node3</title>
<g id="a_node3"><a xlink:href="classsoftwarecontainer_1_1_d_bus_gateway.html#a40ae97b8ae2ea56707d348a5a8bd04ab" target="_top" xlink:title="Set the associated container for this gateway. ">
<polygon fill="white" stroke="black" points="161,-0.5 161,-30.5 303,-30.5 303,-0.5 161,-0.5"/>
<text text-anchor="start" x="169" y="-18.5" font-family="Helvetica,sans-Serif" font-size="10.00">softwarecontainer::</text>
<text text-anchor="middle" x="232" y="-7.5" font-family="Helvetica,sans-Serif" font-size="10.00">DBusGateway::setContainer</text>
</a>
</g>
</g>
<!-- Node1&#45;&gt;Node3 -->
<g id="edge2" class="edge"><title>Node1&#45;&gt;Node3</title>
<path fill="none" stroke="midnightblue" d="M127.1,-30.0399C138.16,-28.4921 149.643,-26.8853 160.765,-25.3288"/>
<polygon fill="midnightblue" stroke="midnightblue" points="126.503,-26.5894 117.084,-31.4416 127.473,-33.5218 126.503,-26.5894"/>
</g>
</g>
</svg>
