<?xml version="1.0" encoding="UTF-8" standalone="no"?>
<!DOCTYPE svg PUBLIC "-//W3C//DTD SVG 1.1//EN"
 "http://www.w3.org/Graphics/SVG/1.1/DTD/svg11.dtd">
<!-- Generated by graphviz version 2.38.0 (20140413.2041)
 -->
<!-- Title: softwarecontainer::JSONParser::read Pages: 1 -->
<svg width="595pt" height="99pt"
 viewBox="0.00 0.00 595.00 98.50" xmlns="http://www.w3.org/2000/svg" xmlns:xlink="http://www.w3.org/1999/xlink">
<g id="graph0" class="graph" transform="scale(1 1) rotate(0) translate(4 94.5)">
<title>softwarecontainer::JSONParser::read</title>
<polygon fill="white" stroke="none" points="-4,4 -4,-94.5 591,-94.5 591,4 -4,4"/>
<!-- Node1 -->
<g id="node1" class="node"><title>Node1</title>
<polygon fill="#bfbfbf" stroke="black" points="0,-27.5 0,-57.5 100,-57.5 100,-27.5 0,-27.5"/>
<text text-anchor="start" x="8" y="-45.5" font-family="Helvetica,sans-Serif" font-size="10.00">softwarecontainer::</text>
<text text-anchor="middle" x="50" y="-34.5" font-family="Helvetica,sans-Serif" font-size="10.00">JSONParser::read</text>
</g>
<!-- Node2 -->
<g id="node2" class="node"><title>Node2</title>
<g id="a_node2"><a xlink:href="classsoftwarecontainer_1_1_software_container_agent.html#aab15b844d7ed80339448a2005ea1cc9d" target="_top" xlink:title="Tries to read a config in json format for a container. ">
<polygon fill="white" stroke="black" points="141,-49 141,-90 264,-90 264,-49 141,-49"/>
<text text-anchor="start" x="149" y="-78" font-family="Helvetica,sans-Serif" font-size="10.00">softwarecontainer::</text>
<text text-anchor="start" x="149" y="-67" font-family="Helvetica,sans-Serif" font-size="10.00">SoftwareContainerAgent</text>
<text text-anchor="middle" x="202.5" y="-56" font-family="Helvetica,sans-Serif" font-size="10.00">::readConfigElement</text>
</a>
</g>
</g>
<!-- Node1&#45;&gt;Node2 -->
<g id="edge1" class="edge"><title>Node1&#45;&gt;Node2</title>
<path fill="none" stroke="midnightblue" d="M110.179,-53.1168C120.24,-54.9219 130.704,-56.7991 140.804,-58.6111"/>
<polygon fill="midnightblue" stroke="midnightblue" points="110.74,-49.6617 100.279,-51.3408 109.504,-56.5517 110.74,-49.6617"/>
</g>
<!-- Node5 -->
<g id="node5" class="node"><title>Node5</title>
<g id="a_node5"><a xlink:href="classsoftwarecontainer_1_1_j_s_o_n_parser.html#add62ac3a9cf40edcc4f48b8a53f6d312" target="_top" xlink:title="Reads an optional value from a JSON object. ">
<polygon fill="white" stroke="black" points="136,-0.5 136,-30.5 269,-30.5 269,-0.5 136,-0.5"/>
<text text-anchor="start" x="144" y="-18.5" font-family="Helvetica,sans-Serif" font-size="10.00">softwarecontainer::</text>
<text text-anchor="middle" x="202.5" y="-7.5" font-family="Helvetica,sans-Serif" font-size="10.00">JSONParser::readOptional</text>
</a>
</g>
</g>
<!-- Node1&#45;&gt;Node5 -->
<g id="edge4" class="edge"><title>Node1&#45;&gt;Node5</title>
<path fill="none" stroke="midnightblue" d="M110.364,-31.85C118.769,-30.3421 127.451,-28.7846 135.964,-27.2573"/>
<polygon fill="midnightblue" stroke="midnightblue" points="109.504,-28.4483 100.279,-33.6592 110.74,-35.3383 109.504,-28.4483"/>
</g>
<!-- Node3 -->
<g id="node3" class="node"><title>Node3</title>
<g id="a_node3"><a xlink:href="classsoftwarecontainer_1_1_software_container_agent.html#a990e86f21dead80c727462618ecf0e91" target="_top" xlink:title="Parse config needed for starting up the container in a correct manner. ">
<polygon fill="white" stroke="black" points="305,-49 305,-90 428,-90 428,-49 305,-49"/>
<text text-anchor="start" x="313" y="-78" font-family="Helvetica,sans-Serif" font-size="10.00">softwarecontainer::</text>
<text text-anchor="start" x="313" y="-67" font-family="Helvetica,sans-Serif" font-size="10.00">SoftwareContainerAgent</text>
<text text-anchor="middle" x="366.5" y="-56" font-family="Helvetica,sans-Serif" font-size="10.00">::parseConfig</text>
</a>
</g>
</g>
<!-- Node2&#45;&gt;Node3 -->
<g id="edge2" class="edge"><title>Node2&#45;&gt;Node3</title>
<path fill="none" stroke="midnightblue" d="M274.371,-69.5C284.554,-69.5 294.954,-69.5 304.914,-69.5"/>
<polygon fill="midnightblue" stroke="midnightblue" points="274.284,-66.0001 264.284,-69.5 274.284,-73.0001 274.284,-66.0001"/>
</g>
<!-- Node4 -->
<g id="node4" class="node"><title>Node4</title>
<g id="a_node4"><a xlink:href="classsoftwarecontainer_1_1_software_container_agent.html#a3018d06a1e960bc30ba379d4d809fa06" target="_top" xlink:title="Create a new container. ">
<polygon fill="white" stroke="black" points="464,-49 464,-90 587,-90 587,-49 464,-49"/>
<text text-anchor="start" x="472" y="-78" font-family="Helvetica,sans-Serif" font-size="10.00">softwarecontainer::</text>
<text text-anchor="start" x="472" y="-67" font-family="Helvetica,sans-Serif" font-size="10.00">SoftwareContainerAgent</text>
<text text-anchor="middle" x="525.5" y="-56" font-family="Helvetica,sans-Serif" font-size="10.00">::createContainer</text>
</a>
</g>
</g>
<!-- Node3&#45;&gt;Node4 -->
<g id="edge3" class="edge"><title>Node3&#45;&gt;Node4</title>
<path fill="none" stroke="midnightblue" d="M438.21,-69.5C446.807,-69.5 455.53,-69.5 463.961,-69.5"/>
<polygon fill="midnightblue" stroke="midnightblue" points="438.2,-66.0001 428.2,-69.5 438.2,-73.0001 438.2,-66.0001"/>
</g>
</g>
</svg>
