<?xml version="1.0" encoding="UTF-8" standalone="no"?>
<!DOCTYPE svg PUBLIC "-//W3C//DTD SVG 1.1//EN"
 "http://www.w3.org/Graphics/SVG/1.1/DTD/svg11.dtd">
<!-- Generated by graphviz version 2.38.0 (20140413.2041)
 -->
<!-- Title: Gateway::hasContainer Pages: 1 -->
<svg width="524pt" height="142pt"
 viewBox="0.00 0.00 524.00 142.00" xmlns="http://www.w3.org/2000/svg" xmlns:xlink="http://www.w3.org/1999/xlink">
<g id="graph0" class="graph" transform="scale(1 1) rotate(0) translate(4 138)">
<title>Gateway::hasContainer</title>
<polygon fill="white" stroke="none" points="-4,4 -4,-138 520,-138 520,4 -4,4"/>
<!-- Node1 -->
<g id="node1" class="node"><title>Node1</title>
<polygon fill="#bfbfbf" stroke="black" points="0,-57.5 0,-76.5 119,-76.5 119,-57.5 0,-57.5"/>
<text text-anchor="middle" x="59.5" y="-64.5" font-family="Helvetica,sans-Serif" font-size="10.00">Gateway::hasContainer</text>
</g>
<!-- Node2 -->
<g id="node2" class="node"><title>Node2</title>
<g id="a_node2"><a xlink:href="class_gateway.html#a3d23a057d7039df33dd5ed47302f0d58" target="_top" xlink:title="Applies any configuration set by setConfig() ">
<polygon fill="white" stroke="black" points="189.5,-114.5 189.5,-133.5 285.5,-133.5 285.5,-114.5 189.5,-114.5"/>
<text text-anchor="middle" x="237.5" y="-121.5" font-family="Helvetica,sans-Serif" font-size="10.00">Gateway::activate</text>
</a>
</g>
</g>
<!-- Node1&#45;&gt;Node2 -->
<g id="edge1" class="edge"><title>Node1&#45;&gt;Node2</title>
<path fill="none" stroke="midnightblue" d="M96.6928,-80.1109C114.231,-86.3429 135.639,-93.7731 155,-100 170.586,-105.013 187.979,-110.191 202.681,-114.448"/>
<polygon fill="midnightblue" stroke="midnightblue" points="97.4534,-76.666 86.8588,-76.5982 95.0987,-83.2581 97.4534,-76.666"/>
</g>
<!-- Node3 -->
<g id="node3" class="node"><title>Node3</title>
<g id="a_node3"><a xlink:href="class_network_gateway.html#ad19de4347291719074bde198fc61a94a" target="_top" xlink:title="Implements Gateway::activateGateway. ">
<polygon fill="white" stroke="black" points="369.5,-55 369.5,-85 502.5,-85 502.5,-55 369.5,-55"/>
<text text-anchor="start" x="377.5" y="-73" font-family="Helvetica,sans-Serif" font-size="10.00">NetworkGateway::activate</text>
<text text-anchor="middle" x="436" y="-62" font-family="Helvetica,sans-Serif" font-size="10.00">Gateway</text>
</a>
</g>
</g>
<!-- Node1&#45;&gt;Node3 -->
<g id="edge2" class="edge"><title>Node1&#45;&gt;Node3</title>
<path fill="none" stroke="midnightblue" d="M129.263,-67.5508C197.708,-68.0991 302.002,-68.9346 369.339,-69.474"/>
<polygon fill="midnightblue" stroke="midnightblue" points="129.043,-64.0491 119.016,-67.4688 128.987,-71.0488 129.043,-64.0491"/>
</g>
<!-- Node4 -->
<g id="node4" class="node"><title>Node4</title>
<g id="a_node4"><a xlink:href="class_gateway.html#a77348e5ce86b82302764b10e3203b42c" target="_top" xlink:title="Execute the given command in the container. ">
<polygon fill="white" stroke="black" points="164.5,-38.5 164.5,-57.5 310.5,-57.5 310.5,-38.5 164.5,-38.5"/>
<text text-anchor="middle" x="237.5" y="-45.5" font-family="Helvetica,sans-Serif" font-size="10.00">Gateway::executeInContainer</text>
</a>
</g>
</g>
<!-- Node1&#45;&gt;Node4 -->
<g id="edge3" class="edge"><title>Node1&#45;&gt;Node4</title>
<path fill="none" stroke="midnightblue" d="M129.124,-59.5917C140.687,-58.3434 152.72,-57.0445 164.369,-55.7869"/>
<polygon fill="midnightblue" stroke="midnightblue" points="128.672,-56.1201 119.105,-60.6733 129.423,-63.0797 128.672,-56.1201"/>
</g>
<!-- Node5 -->
<g id="node5" class="node"><title>Node5</title>
<g id="a_node5"><a xlink:href="class_gateway.html#a828b2dfa811c7fcce82d34b502e65112" target="_top" xlink:title="Set an environment variable in the associated container. ">
<polygon fill="white" stroke="black" points="155,-0.5 155,-19.5 320,-19.5 320,-0.5 155,-0.5"/>
<text text-anchor="middle" x="237.5" y="-7.5" font-family="Helvetica,sans-Serif" font-size="10.00">Gateway::setEnvironmentVariable</text>
</a>
</g>
</g>
<!-- Node1&#45;&gt;Node5 -->
<g id="edge5" class="edge"><title>Node1&#45;&gt;Node5</title>
<path fill="none" stroke="midnightblue" d="M90.8415,-53.4169C109.165,-45.5632 133.13,-35.9017 155,-29 166.223,-25.4584 178.503,-22.2558 190.047,-19.5323"/>
<polygon fill="midnightblue" stroke="midnightblue" points="89.3321,-50.2566 81.5533,-57.4498 92.12,-56.6775 89.3321,-50.2566"/>
</g>
<!-- Node4&#45;&gt;Node3 -->
<g id="edge4" class="edge"><title>Node4&#45;&gt;Node3</title>
<path fill="none" stroke="midnightblue" d="M320.606,-57.1925C336.903,-59.0172 353.81,-60.91 369.466,-62.6629"/>
<polygon fill="midnightblue" stroke="midnightblue" points="320.881,-53.7015 310.554,-56.0671 320.102,-60.6581 320.881,-53.7015"/>
</g>
<!-- Node6 -->
<g id="node6" class="node"><title>Node6</title>
<g id="a_node6"><a xlink:href="class_d_bus_gateway.html#ab974b6b05b985d64ba5609c64e8b13fb" target="_top" xlink:title="Implements Gateway::activateGateway. ">
<polygon fill="white" stroke="black" points="356,-0.5 356,-19.5 516,-19.5 516,-0.5 356,-0.5"/>
<text text-anchor="middle" x="436" y="-7.5" font-family="Helvetica,sans-Serif" font-size="10.00">DBusGateway::activateGateway</text>
</a>
</g>
</g>
<!-- Node5&#45;&gt;Node6 -->
<g id="edge6" class="edge"><title>Node5&#45;&gt;Node6</title>
<path fill="none" stroke="midnightblue" d="M330.154,-10C338.735,-10 347.384,-10 355.837,-10"/>
<polygon fill="midnightblue" stroke="midnightblue" points="330.127,-6.5001 320.127,-10 330.127,-13.5001 330.127,-6.5001"/>
</g>
</g>
</svg>
