<?xml version="1.0" encoding="UTF-8" standalone="no"?>
<!DOCTYPE svg PUBLIC "-//W3C//DTD SVG 1.1//EN"
 "http://www.w3.org/Graphics/SVG/1.1/DTD/svg11.dtd">
<!-- Generated by graphviz version 2.38.0 (20140413.2041)
 -->
<!-- Title: softwarecontainer::Gateway::setEnvironmentVariable Pages: 1 -->
<svg width="481pt" height="127pt"
 viewBox="0.00 0.00 481.00 127.00" xmlns="http://www.w3.org/2000/svg" xmlns:xlink="http://www.w3.org/1999/xlink">
<g id="graph0" class="graph" transform="scale(1 1) rotate(0) translate(4 123)">
<title>softwarecontainer::Gateway::setEnvironmentVariable</title>
<polygon fill="white" stroke="none" points="-4,4 -4,-123 477,-123 477,4 -4,4"/>
<!-- Node1 -->
<g id="node1" class="node"><title>Node1</title>
<polygon fill="#bfbfbf" stroke="black" points="0,-44.5 0,-74.5 165,-74.5 165,-44.5 0,-44.5"/>
<text text-anchor="start" x="8" y="-62.5" font-family="Helvetica,sans-Serif" font-size="10.00">softwarecontainer::</text>
<text text-anchor="middle" x="82.5" y="-51.5" font-family="Helvetica,sans-Serif" font-size="10.00">Gateway::setEnvironmentVariable</text>
</g>
<!-- Node2 -->
<g id="node2" class="node"><title>Node2</title>
<g id="a_node2"><a xlink:href="classsoftwarecontainer_1_1_gateway.html#a6f0a60c9f29ea869916f7524085b3e5f" target="_top" xlink:title="Get a handle to the associated container. ">
<polygon fill="white" stroke="black" points="201,-88.5 201,-118.5 318,-118.5 318,-88.5 201,-88.5"/>
<text text-anchor="start" x="209" y="-106.5" font-family="Helvetica,sans-Serif" font-size="10.00">softwarecontainer::</text>
<text text-anchor="middle" x="259.5" y="-95.5" font-family="Helvetica,sans-Serif" font-size="10.00">Gateway::getContainer</text>
</a>
</g>
</g>
<!-- Node1&#45;&gt;Node2 -->
<g id="edge1" class="edge"><title>Node1&#45;&gt;Node2</title>
<path fill="none" stroke="midnightblue" d="M143.236,-74.5192C158.506,-78.3586 175.034,-82.5144 190.678,-86.4476"/>
<polygon fill="midnightblue" stroke="midnightblue" points="190.257,-89.9505 200.808,-88.9946 191.964,-83.1618 190.257,-89.9505"/>
</g>
<!-- Node3 -->
<g id="node3" class="node"><title>Node3</title>
<g id="a_node3"><a xlink:href="classsoftwarecontainer_1_1_gateway.html#a5e1b860ea7c1ed7b69d2e5dd7021a527" target="_top" xlink:title="Check if the gateway has an associated container. ">
<polygon fill="white" stroke="black" points="354,-68.5 354,-98.5 473,-98.5 473,-68.5 354,-68.5"/>
<text text-anchor="start" x="362" y="-86.5" font-family="Helvetica,sans-Serif" font-size="10.00">softwarecontainer::</text>
<text text-anchor="middle" x="413.5" y="-75.5" font-family="Helvetica,sans-Serif" font-size="10.00">Gateway::hasContainer</text>
</a>
</g>
</g>
<!-- Node1&#45;&gt;Node3 -->
<g id="edge3" class="edge"><title>Node1&#45;&gt;Node3</title>
<path fill="none" stroke="midnightblue" d="M165.249,-65.4634C220.2,-69.472 291.81,-74.6959 343.811,-78.4893"/>
<polygon fill="midnightblue" stroke="midnightblue" points="343.711,-81.9912 353.939,-79.2281 344.22,-75.0097 343.711,-81.9912"/>
</g>
<!-- Node4 -->
<g id="node4" class="node"><title>Node4</title>
<g id="a_node4"><a xlink:href="namespacesoftwarecontainer.html#a7e308629b69d1bcc3bc5e8ceac9b5a2a" target="_top" xlink:title="isSuccess Check if ReturnCode indicates Success or not ">
<polygon fill="white" stroke="black" points="209.5,-0.5 209.5,-30.5 309.5,-30.5 309.5,-0.5 209.5,-0.5"/>
<text text-anchor="start" x="217.5" y="-18.5" font-family="Helvetica,sans-Serif" font-size="10.00">softwarecontainer::</text>
<text text-anchor="middle" x="259.5" y="-7.5" font-family="Helvetica,sans-Serif" font-size="10.00">isSuccess</text>
</a>
</g>
</g>
<!-- Node1&#45;&gt;Node4 -->
<g id="edge4" class="edge"><title>Node1&#45;&gt;Node4</title>
<path fill="none" stroke="midnightblue" d="M143.236,-44.4808C161.448,-39.9016 181.451,-34.8722 199.608,-30.3071"/>
<polygon fill="midnightblue" stroke="midnightblue" points="200.637,-33.6574 209.482,-27.8246 198.93,-26.8687 200.637,-33.6574"/>
</g>
<!-- Node2&#45;&gt;Node3 -->
<g id="edge2" class="edge"><title>Node2&#45;&gt;Node3</title>
<path fill="none" stroke="midnightblue" d="M318.398,-95.8818C326.629,-94.7988 335.161,-93.6762 343.576,-92.5689"/>
<polygon fill="midnightblue" stroke="midnightblue" points="344.297,-96.0043 353.755,-91.2296 343.384,-89.0642 344.297,-96.0043"/>
</g>
<!-- Node5 -->
<g id="node5" class="node"><title>Node5</title>
<g id="a_node5"><a xlink:href="namespacesoftwarecontainer.html#a51a25e6a54b7bb79fc5b4ce8902a31a4" target="_top" xlink:title="isError Check if ReturnCode indicates Error or not ">
<polygon fill="white" stroke="black" points="363.5,-0.5 363.5,-30.5 463.5,-30.5 463.5,-0.5 363.5,-0.5"/>
<text text-anchor="start" x="371.5" y="-18.5" font-family="Helvetica,sans-Serif" font-size="10.00">softwarecontainer::</text>
<text text-anchor="middle" x="413.5" y="-7.5" font-family="Helvetica,sans-Serif" font-size="10.00">isError</text>
</a>
</g>
</g>
<!-- Node4&#45;&gt;Node5 -->
<g id="edge5" class="edge"><title>Node4&#45;&gt;Node5</title>
<path fill="none" stroke="midnightblue" d="M309.85,-15.5C323.661,-15.5 338.817,-15.5 353.144,-15.5"/>
<polygon fill="midnightblue" stroke="midnightblue" points="353.398,-19.0001 363.398,-15.5 353.398,-12.0001 353.398,-19.0001"/>
</g>
</g>
</svg>
