<?xml version="1.0" encoding="UTF-8" standalone="no"?>
<!DOCTYPE svg PUBLIC "-//W3C//DTD SVG 1.1//EN"
 "http://www.w3.org/Graphics/SVG/1.1/DTD/svg11.dtd">
<!-- Generated by graphviz version 2.38.0 (20140413.2041)
 -->
<!-- Title: softwarecontainer::SignalConnectionsHandler::addConnection Pages: 1 -->
<svg width="438pt" height="50pt"
 viewBox="0.00 0.00 438.00 50.00" xmlns="http://www.w3.org/2000/svg" xmlns:xlink="http://www.w3.org/1999/xlink">
<g id="graph0" class="graph" transform="scale(1 1) rotate(0) translate(4 46)">
<title>softwarecontainer::SignalConnectionsHandler::addConnection</title>
<polygon fill="white" stroke="none" points="-4,4 -4,-46 434,-46 434,4 -4,4"/>
<!-- Node1 -->
<g id="node1" class="node"><title>Node1</title>
<polygon fill="#bfbfbf" stroke="black" points="0,-0.5 0,-41.5 132,-41.5 132,-0.5 0,-0.5"/>
<text text-anchor="start" x="8" y="-29.5" font-family="Helvetica,sans-Serif" font-size="10.00">softwarecontainer::</text>
<text text-anchor="start" x="8" y="-18.5" font-family="Helvetica,sans-Serif" font-size="10.00">SignalConnectionsHandler</text>
<text text-anchor="middle" x="66" y="-7.5" font-family="Helvetica,sans-Serif" font-size="10.00">::addConnection</text>
</g>
<!-- Node2 -->
<g id="node2" class="node"><title>Node2</title>
<g id="a_node2"><a xlink:href="namespacesoftwarecontainer.html#abe759ac0b4bfb58c0dfd87ad9917ec5e" target="_top" xlink:title="addProcessListener Adds a glib child watch for a process. ">
<polygon fill="white" stroke="black" points="168,-6 168,-36 271,-36 271,-6 168,-6"/>
<text text-anchor="start" x="176" y="-24" font-family="Helvetica,sans-Serif" font-size="10.00">softwarecontainer::</text>
<text text-anchor="middle" x="219.5" y="-13" font-family="Helvetica,sans-Serif" font-size="10.00">addProcessListener</text>
</a>
</g>
</g>
<!-- Node1&#45;&gt;Node2 -->
<g id="edge1" class="edge"><title>Node1&#45;&gt;Node2</title>
<path fill="none" stroke="midnightblue" d="M142.201,-21C150.808,-21 159.424,-21 167.605,-21"/>
<polygon fill="midnightblue" stroke="midnightblue" points="142.129,-17.5001 132.129,-21 142.129,-24.5001 142.129,-17.5001"/>
</g>
<!-- Node3 -->
<g id="node3" class="node"><title>Node3</title>
<g id="a_node3"><a xlink:href="classsoftwarecontainer_1_1_software_container_agent.html#aef2eb474a1a8406815536cb7d10eefe6" target="_top" xlink:title="Launch the given command in a the given container. ">
<polygon fill="white" stroke="black" points="307,-0.5 307,-41.5 430,-41.5 430,-0.5 307,-0.5"/>
<text text-anchor="start" x="315" y="-29.5" font-family="Helvetica,sans-Serif" font-size="10.00">softwarecontainer::</text>
<text text-anchor="start" x="315" y="-18.5" font-family="Helvetica,sans-Serif" font-size="10.00">SoftwareContainerAgent</text>
<text text-anchor="middle" x="368.5" y="-7.5" font-family="Helvetica,sans-Serif" font-size="10.00">::execute</text>
</a>
</g>
</g>
<!-- Node2&#45;&gt;Node3 -->
<g id="edge2" class="edge"><title>Node2&#45;&gt;Node3</title>
<path fill="none" stroke="midnightblue" d="M281.278,-21C289.752,-21 298.459,-21 306.929,-21"/>
<polygon fill="midnightblue" stroke="midnightblue" points="281.089,-17.5001 271.089,-21 281.089,-24.5001 281.089,-17.5001"/>
</g>
</g>
</svg>
