<?xml version="1.0" encoding="UTF-8" standalone="no"?>
<!DOCTYPE svg PUBLIC "-//W3C//DTD SVG 1.1//EN"
 "http://www.w3.org/Graphics/SVG/1.1/DTD/svg11.dtd">
<!-- Generated by graphviz version 2.38.0 (20140413.2041)
 -->
<!-- Title: softwarecontainer::JSONParser::read Pages: 1 -->
<svg width="523pt" height="266pt"
 viewBox="0.00 0.00 523.00 265.50" xmlns="http://www.w3.org/2000/svg" xmlns:xlink="http://www.w3.org/1999/xlink">
<g id="graph0" class="graph" transform="scale(1 1) rotate(0) translate(4 261.5)">
<title>softwarecontainer::JSONParser::read</title>
<polygon fill="white" stroke="none" points="-4,4 -4,-261.5 519,-261.5 519,4 -4,4"/>
<!-- Node1 -->
<g id="node1" class="node"><title>Node1</title>
<polygon fill="#bfbfbf" stroke="black" points="0,-103.5 0,-133.5 100,-133.5 100,-103.5 0,-103.5"/>
<text text-anchor="start" x="8" y="-121.5" font-family="Helvetica,sans-Serif" font-size="10.00">softwarecontainer::</text>
<text text-anchor="middle" x="50" y="-110.5" font-family="Helvetica,sans-Serif" font-size="10.00">JSONParser::read</text>
</g>
<!-- Node2 -->
<g id="node2" class="node"><title>Node2</title>
<g id="a_node2"><a xlink:href="classsoftwarecontainer_1_1_device.html#aa33cc58571e5d38aec05227d633dc9de" target="_top" xlink:title="Configures this device by parsing the supplied JSON configuration string. ">
<polygon fill="white" stroke="black" points="176,-218.5 176,-248.5 276,-248.5 276,-218.5 176,-218.5"/>
<text text-anchor="start" x="184" y="-236.5" font-family="Helvetica,sans-Serif" font-size="10.00">softwarecontainer::</text>
<text text-anchor="middle" x="226" y="-225.5" font-family="Helvetica,sans-Serif" font-size="10.00">Device::parse</text>
</a>
</g>
</g>
<!-- Node1&#45;&gt;Node2 -->
<g id="edge1" class="edge"><title>Node1&#45;&gt;Node2</title>
<path fill="none" stroke="midnightblue" d="M67.2405,-141.821C82.6716,-162.283 107.678,-191.373 136,-208.5 148.085,-215.809 162.379,-221.047 175.934,-224.774"/>
<polygon fill="midnightblue" stroke="midnightblue" points="69.9722,-139.627 61.2317,-133.639 64.3304,-143.771 69.9722,-139.627"/>
</g>
<!-- Node4 -->
<g id="node4" class="node"><title>Node4</title>
<g id="a_node4"><a xlink:href="classsoftwarecontainer_1_1_network_gateway_parser.html#a7c21bd04a853bc2fe599f16c32bca05b" target="_top" xlink:title="Parses NetworkGateway configuration into IPTableEntry. ">
<polygon fill="white" stroke="black" points="136,-158 136,-199 316,-199 316,-158 136,-158"/>
<text text-anchor="start" x="144" y="-187" font-family="Helvetica,sans-Serif" font-size="10.00">softwarecontainer::</text>
<text text-anchor="start" x="144" y="-176" font-family="Helvetica,sans-Serif" font-size="10.00">NetworkGatewayParser</text>
<text text-anchor="middle" x="226" y="-165" font-family="Helvetica,sans-Serif" font-size="10.00">::parseNetworkGatewayConfiguration</text>
</a>
</g>
</g>
<!-- Node1&#45;&gt;Node4 -->
<g id="edge3" class="edge"><title>Node1&#45;&gt;Node4</title>
<path fill="none" stroke="midnightblue" d="M102.786,-136.909C113.743,-140.767 125.245,-144.79 136,-148.5 144.94,-151.584 154.398,-154.811 163.679,-157.957"/>
<polygon fill="midnightblue" stroke="midnightblue" points="103.924,-133.599 93.3294,-133.573 101.595,-140.2 103.924,-133.599"/>
</g>
<!-- Node6 -->
<g id="node6" class="node"><title>Node6</title>
<g id="a_node6"><a xlink:href="classsoftwarecontainer_1_1_wayland_gateway.html#a8d94bc12193d9066eaa851c749840d82" target="_top" xlink:title="Gateway specific parsing of config elements. ">
<polygon fill="white" stroke="black" points="152.5,-98 152.5,-139 299.5,-139 299.5,-98 152.5,-98"/>
<text text-anchor="start" x="160.5" y="-127" font-family="Helvetica,sans-Serif" font-size="10.00">softwarecontainer::</text>
<text text-anchor="start" x="160.5" y="-116" font-family="Helvetica,sans-Serif" font-size="10.00">WaylandGateway::readConfig</text>
<text text-anchor="middle" x="226" y="-105" font-family="Helvetica,sans-Serif" font-size="10.00">Element</text>
</a>
</g>
</g>
<!-- Node1&#45;&gt;Node6 -->
<g id="edge5" class="edge"><title>Node1&#45;&gt;Node6</title>
<path fill="none" stroke="midnightblue" d="M110.494,-118.5C123.983,-118.5 138.455,-118.5 152.417,-118.5"/>
<polygon fill="midnightblue" stroke="midnightblue" points="110.396,-115 100.396,-118.5 110.396,-122 110.396,-115"/>
</g>
<!-- Node7 -->
<g id="node7" class="node"><title>Node7</title>
<g id="a_node7"><a xlink:href="classsoftwarecontainer_1_1_pulse_gateway.html#a5b89dda3e94723ecacddfc77ee0f84a1" target="_top" xlink:title="Gateway specific parsing of config elements. ">
<polygon fill="white" stroke="black" points="141,-49.5 141,-79.5 311,-79.5 311,-49.5 141,-49.5"/>
<text text-anchor="start" x="149" y="-67.5" font-family="Helvetica,sans-Serif" font-size="10.00">softwarecontainer::</text>
<text text-anchor="middle" x="226" y="-56.5" font-family="Helvetica,sans-Serif" font-size="10.00">PulseGateway::readConfigElement</text>
</a>
</g>
</g>
<!-- Node1&#45;&gt;Node7 -->
<g id="edge6" class="edge"><title>Node1&#45;&gt;Node7</title>
<path fill="none" stroke="midnightblue" d="M101.569,-99.9439C112.848,-96.0034 124.789,-91.9846 136,-88.5 145.781,-85.4601 156.233,-82.4401 166.411,-79.6201"/>
<polygon fill="midnightblue" stroke="midnightblue" points="100.126,-96.7415 91.8622,-103.371 102.457,-103.342 100.126,-96.7415"/>
</g>
<!-- Node8 -->
<g id="node8" class="node"><title>Node8</title>
<g id="a_node8"><a xlink:href="classsoftwarecontainer_1_1_j_s_o_n_parser.html#add62ac3a9cf40edcc4f48b8a53f6d312" target="_top" xlink:title="Reads an optional value from a JSON object. ">
<polygon fill="white" stroke="black" points="159.5,-0.5 159.5,-30.5 292.5,-30.5 292.5,-0.5 159.5,-0.5"/>
<text text-anchor="start" x="167.5" y="-18.5" font-family="Helvetica,sans-Serif" font-size="10.00">softwarecontainer::</text>
<text text-anchor="middle" x="226" y="-7.5" font-family="Helvetica,sans-Serif" font-size="10.00">JSONParser::readOptional</text>
</a>
</g>
</g>
<!-- Node1&#45;&gt;Node8 -->
<g id="edge7" class="edge"><title>Node1&#45;&gt;Node8</title>
<path fill="none" stroke="midnightblue" d="M70.2625,-95.7519C86.2162,-78.275 110.356,-54.7822 136,-40.5 143.291,-36.4392 151.292,-32.9966 159.414,-30.0887"/>
<polygon fill="midnightblue" stroke="midnightblue" points="67.5727,-93.5096 63.5326,-103.304 72.7987,-98.1668 67.5727,-93.5096"/>
</g>
<!-- Node3 -->
<g id="node3" class="node"><title>Node3</title>
<g id="a_node3"><a xlink:href="classsoftwarecontainer_1_1_device_node_gateway.html#a97faa249cb97d85ec37b0d923ad6e1a3" target="_top" xlink:title="Gateway specific parsing of config elements. ">
<polygon fill="white" stroke="black" points="352,-216 352,-257 515,-257 515,-216 352,-216"/>
<text text-anchor="start" x="360" y="-245" font-family="Helvetica,sans-Serif" font-size="10.00">softwarecontainer::</text>
<text text-anchor="start" x="360" y="-234" font-family="Helvetica,sans-Serif" font-size="10.00">DeviceNodeGateway::readConfig</text>
<text text-anchor="middle" x="433.5" y="-223" font-family="Helvetica,sans-Serif" font-size="10.00">Element</text>
</a>
</g>
</g>
<!-- Node2&#45;&gt;Node3 -->
<g id="edge2" class="edge"><title>Node2&#45;&gt;Node3</title>
<path fill="none" stroke="midnightblue" d="M286.338,-234.366C306.813,-234.665 330.105,-235.005 351.985,-235.325"/>
<polygon fill="midnightblue" stroke="midnightblue" points="286.272,-230.865 276.222,-234.219 286.17,-237.864 286.272,-230.865"/>
</g>
<!-- Node5 -->
<g id="node5" class="node"><title>Node5</title>
<g id="a_node5"><a xlink:href="classsoftwarecontainer_1_1_network_gateway.html#a9e47cb8f232090f67d3655c35dc15549" target="_top" xlink:title="Gateway specific parsing of config elements. ">
<polygon fill="white" stroke="black" points="360.5,-156 360.5,-197 506.5,-197 506.5,-156 360.5,-156"/>
<text text-anchor="start" x="368.5" y="-185" font-family="Helvetica,sans-Serif" font-size="10.00">softwarecontainer::</text>
<text text-anchor="start" x="368.5" y="-174" font-family="Helvetica,sans-Serif" font-size="10.00">NetworkGateway::readConfig</text>
<text text-anchor="middle" x="433.5" y="-163" font-family="Helvetica,sans-Serif" font-size="10.00">Element</text>
</a>
</g>
</g>
<!-- Node4&#45;&gt;Node5 -->
<g id="edge4" class="edge"><title>Node4&#45;&gt;Node5</title>
<path fill="none" stroke="midnightblue" d="M326.295,-177.534C337.772,-177.422 349.306,-177.31 360.324,-177.202"/>
<polygon fill="midnightblue" stroke="midnightblue" points="326.204,-174.034 316.239,-177.631 326.272,-181.034 326.204,-174.034"/>
</g>
</g>
</svg>
