<?xml version="1.0" encoding="UTF-8" standalone="no"?>
<!DOCTYPE svg PUBLIC "-//W3C//DTD SVG 1.1//EN"
 "http://www.w3.org/Graphics/SVG/1.1/DTD/svg11.dtd">
<!-- Generated by graphviz version 2.38.0 (20140413.2041)
 -->
<!-- Title: softwarecontainer::Container::Container Pages: 1 -->
<svg width="530pt" height="61pt"
 viewBox="0.00 0.00 530.00 61.00" xmlns="http://www.w3.org/2000/svg" xmlns:xlink="http://www.w3.org/1999/xlink">
<g id="graph0" class="graph" transform="scale(1 1) rotate(0) translate(4 57)">
<title>softwarecontainer::Container::Container</title>
<polygon fill="white" stroke="none" points="-4,4 -4,-57 526,-57 526,4 -4,4"/>
<!-- Node1 -->
<g id="node1" class="node"><title>Node1</title>
<polygon fill="#bfbfbf" stroke="black" points="0,-0.5 0,-30.5 107,-30.5 107,-0.5 0,-0.5"/>
<text text-anchor="start" x="8" y="-18.5" font-family="Helvetica,sans-Serif" font-size="10.00">softwarecontainer::</text>
<text text-anchor="middle" x="53.5" y="-7.5" font-family="Helvetica,sans-Serif" font-size="10.00">Container::Container</text>
</g>
<!-- Node2 -->
<g id="node2" class="node"><title>Node2</title>
<g id="a_node2"><a xlink:href="classsoftwarecontainer_1_1_container.html#ad5e7ca390a1783272fbe703f29a791ae" target="_top" xlink:title="Calls shutdown, and then destroys the container. ">
<polygon fill="white" stroke="black" points="143,-22.5 143,-52.5 243,-52.5 243,-22.5 143,-22.5"/>
<text text-anchor="start" x="151" y="-40.5" font-family="Helvetica,sans-Serif" font-size="10.00">softwarecontainer::</text>
<text text-anchor="middle" x="193" y="-29.5" font-family="Helvetica,sans-Serif" font-size="10.00">Container::destroy</text>
</a>
</g>
</g>
<!-- Node1&#45;&gt;Node2 -->
<g id="edge1" class="edge"><title>Node1&#45;&gt;Node2</title>
<path fill="none" stroke="midnightblue" d="M107.268,-23.9429C115.56,-25.2695 124.18,-26.6487 132.608,-27.9973"/>
<polygon fill="midnightblue" stroke="midnightblue" points="132.332,-31.4976 142.76,-29.6216 133.438,-24.5855 132.332,-31.4976"/>
</g>
<!-- Node3 -->
<g id="node3" class="node"><title>Node3</title>
<g id="a_node3"><a xlink:href="classsoftwarecontainer_1_1_container.html#a485f695e1f3afb402ca83d447fdd6acd" target="_top" xlink:title="Calls shutdown on the lxc container. ">
<polygon fill="white" stroke="black" points="279,-0.5 279,-30.5 386,-30.5 386,-0.5 279,-0.5"/>
<text text-anchor="start" x="287" y="-18.5" font-family="Helvetica,sans-Serif" font-size="10.00">softwarecontainer::</text>
<text text-anchor="middle" x="332.5" y="-7.5" font-family="Helvetica,sans-Serif" font-size="10.00">Container::shutdown</text>
</a>
</g>
</g>
<!-- Node1&#45;&gt;Node3 -->
<g id="edge4" class="edge"><title>Node1&#45;&gt;Node3</title>
<path fill="none" stroke="midnightblue" d="M107.378,-14.1097C119.106,-13.8558 131.474,-13.6302 143,-13.5 187.442,-12.9979 198.558,-12.9979 243,-13.5 251.284,-13.5936 260.003,-13.7365 268.608,-13.9037"/>
<polygon fill="midnightblue" stroke="midnightblue" points="268.552,-17.4032 278.622,-14.1097 268.696,-10.4047 268.552,-17.4032"/>
</g>
<!-- Node2&#45;&gt;Node3 -->
<g id="edge2" class="edge"><title>Node2&#45;&gt;Node3</title>
<path fill="none" stroke="midnightblue" d="M243.252,-29.6196C251.56,-28.2904 260.282,-26.8948 268.876,-25.5199"/>
<polygon fill="midnightblue" stroke="midnightblue" points="269.55,-28.9565 278.872,-23.9205 268.444,-22.0445 269.55,-28.9565"/>
</g>
<!-- Node4 -->
<g id="node4" class="node"><title>Node4</title>
<g id="a_node4"><a xlink:href="classsoftwarecontainer_1_1_container.html#a5813e4ebb4ce81f041ead8e76cf5c8ec" target="_top" xlink:title="Calls stop on the lxc container(force stop) ">
<polygon fill="white" stroke="black" points="422,-0.5 422,-30.5 522,-30.5 522,-0.5 422,-0.5"/>
<text text-anchor="start" x="430" y="-18.5" font-family="Helvetica,sans-Serif" font-size="10.00">softwarecontainer::</text>
<text text-anchor="middle" x="472" y="-7.5" font-family="Helvetica,sans-Serif" font-size="10.00">Container::stop</text>
</a>
</g>
</g>
<!-- Node3&#45;&gt;Node4 -->
<g id="edge3" class="edge"><title>Node3&#45;&gt;Node4</title>
<path fill="none" stroke="midnightblue" d="M386.268,-15.5C394.56,-15.5 403.18,-15.5 411.608,-15.5"/>
<polygon fill="midnightblue" stroke="midnightblue" points="411.76,-19.0001 421.76,-15.5 411.76,-12.0001 411.76,-19.0001"/>
</g>
</g>
</svg>
