<?xml version="1.0" encoding="UTF-8" standalone="no"?>
<!DOCTYPE svg PUBLIC "-//W3C//DTD SVG 1.1//EN"
 "http://www.w3.org/Graphics/SVG/1.1/DTD/svg11.dtd">
<!-- Generated by graphviz version 2.38.0 (20140413.2041)
 -->
<!-- Title: softwarecontainer::NetworkGateway::activateGateway Pages: 1 -->
<svg width="506pt" height="121pt"
 viewBox="0.00 0.00 506.00 120.50" xmlns="http://www.w3.org/2000/svg" xmlns:xlink="http://www.w3.org/1999/xlink">
<g id="graph0" class="graph" transform="scale(1 1) rotate(0) translate(4 116.5)">
<title>softwarecontainer::NetworkGateway::activateGateway</title>
<polygon fill="white" stroke="none" points="-4,4 -4,-116.5 502,-116.5 502,4 -4,4"/>
<!-- Node1 -->
<g id="node1" class="node"><title>Node1</title>
<polygon fill="#bfbfbf" stroke="black" points="0,-22.5 0,-52.5 172,-52.5 172,-22.5 0,-22.5"/>
<text text-anchor="start" x="8" y="-40.5" font-family="Helvetica,sans-Serif" font-size="10.00">softwarecontainer::</text>
<text text-anchor="middle" x="86" y="-29.5" font-family="Helvetica,sans-Serif" font-size="10.00">NetworkGateway::activateGateway</text>
</g>
<!-- Node2 -->
<g id="node2" class="node"><title>Node2</title>
<g id="a_node2"><a xlink:href="classsoftwarecontainer_1_1_network_gateway_functions.html#acd4156881bb546b07867ff8345404558" target="_top" xlink:title="Generate IP address for the container. ">
<polygon fill="white" stroke="black" points="208,-71 208,-112 343,-112 343,-71 208,-71"/>
<text text-anchor="start" x="216" y="-100" font-family="Helvetica,sans-Serif" font-size="10.00">softwarecontainer::</text>
<text text-anchor="start" x="216" y="-89" font-family="Helvetica,sans-Serif" font-size="10.00">NetworkGatewayFunctions</text>
<text text-anchor="middle" x="275.5" y="-78" font-family="Helvetica,sans-Serif" font-size="10.00">::generateIP</text>
</a>
</g>
</g>
<!-- Node1&#45;&gt;Node2 -->
<g id="edge1" class="edge"><title>Node1&#45;&gt;Node2</title>
<path fill="none" stroke="midnightblue" d="M139.229,-52.542C157.481,-57.7985 178.364,-63.8128 198.171,-69.5173"/>
<polygon fill="midnightblue" stroke="midnightblue" points="197.214,-72.8839 207.792,-72.2882 199.151,-66.1573 197.214,-72.8839"/>
</g>
<!-- Node3 -->
<g id="node3" class="node"><title>Node3</title>
<g id="a_node3"><a xlink:href="classsoftwarecontainer_1_1_gateway.html#a6f0a60c9f29ea869916f7524085b3e5f" target="_top" xlink:title="Get a handle to the associated container. ">
<polygon fill="white" stroke="black" points="217,-22.5 217,-52.5 334,-52.5 334,-22.5 217,-22.5"/>
<text text-anchor="start" x="225" y="-40.5" font-family="Helvetica,sans-Serif" font-size="10.00">softwarecontainer::</text>
<text text-anchor="middle" x="275.5" y="-29.5" font-family="Helvetica,sans-Serif" font-size="10.00">Gateway::getContainer</text>
</a>
</g>
</g>
<!-- Node1&#45;&gt;Node3 -->
<g id="edge2" class="edge"><title>Node1&#45;&gt;Node3</title>
<path fill="none" stroke="midnightblue" d="M172.246,-37.5C183.8,-37.5 195.528,-37.5 206.72,-37.5"/>
<polygon fill="midnightblue" stroke="midnightblue" points="206.828,-41.0001 216.828,-37.5 206.828,-34.0001 206.828,-41.0001"/>
</g>
<!-- Node4 -->
<g id="node4" class="node"><title>Node4</title>
<g id="a_node4"><a xlink:href="classsoftwarecontainer_1_1_gateway.html#a5e1b860ea7c1ed7b69d2e5dd7021a527" target="_top" xlink:title="Check if the gateway has an associated container. ">
<polygon fill="white" stroke="black" points="379,-0.5 379,-30.5 498,-30.5 498,-0.5 379,-0.5"/>
<text text-anchor="start" x="387" y="-18.5" font-family="Helvetica,sans-Serif" font-size="10.00">softwarecontainer::</text>
<text text-anchor="middle" x="438.5" y="-7.5" font-family="Helvetica,sans-Serif" font-size="10.00">Gateway::hasContainer</text>
</a>
</g>
</g>
<!-- Node1&#45;&gt;Node4 -->
<g id="edge4" class="edge"><title>Node1&#45;&gt;Node4</title>
<path fill="none" stroke="midnightblue" d="M150.704,-22.4382C169.085,-18.7538 189.244,-15.3422 208,-13.5 267.713,-7.63521 283.003,-12.8652 343,-13.5 351.315,-13.588 360.04,-13.7195 368.688,-13.8738"/>
<polygon fill="midnightblue" stroke="midnightblue" points="368.711,-17.3748 378.775,-14.0643 368.843,-10.376 368.711,-17.3748"/>
</g>
<!-- Node3&#45;&gt;Node4 -->
<g id="edge3" class="edge"><title>Node3&#45;&gt;Node4</title>
<path fill="none" stroke="midnightblue" d="M334.17,-29.6196C345.406,-28.0843 357.288,-26.4606 368.838,-24.8824"/>
<polygon fill="midnightblue" stroke="midnightblue" points="369.444,-28.3322 378.878,-23.5105 368.496,-21.3966 369.444,-28.3322"/>
</g>
</g>
</svg>
