<?xml version="1.0" encoding="UTF-8" standalone="no"?>
<!DOCTYPE svg PUBLIC "-//W3C//DTD SVG 1.1//EN"
 "http://www.w3.org/Graphics/SVG/1.1/DTD/svg11.dtd">
<!-- Generated by graphviz version 2.38.0 (20140413.2041)
 -->
<!-- Title: softwarecontainer::Gateway::isConfigured Pages: 1 -->
<svg width="301pt" height="88pt"
 viewBox="0.00 0.00 301.00 88.00" xmlns="http://www.w3.org/2000/svg" xmlns:xlink="http://www.w3.org/1999/xlink">
<g id="graph0" class="graph" transform="scale(1 1) rotate(0) translate(4 84)">
<title>softwarecontainer::Gateway::isConfigured</title>
<polygon fill="white" stroke="none" points="-4,4 -4,-84 297,-84 297,4 -4,4"/>
<!-- Node1 -->
<g id="node1" class="node"><title>Node1</title>
<polygon fill="#bfbfbf" stroke="black" points="0,-24.5 0,-54.5 116,-54.5 116,-24.5 0,-24.5"/>
<text text-anchor="start" x="8" y="-42.5" font-family="Helvetica,sans-Serif" font-size="10.00">softwarecontainer::</text>
<text text-anchor="middle" x="58" y="-31.5" font-family="Helvetica,sans-Serif" font-size="10.00">Gateway::isConfigured</text>
</g>
<!-- Node2 -->
<g id="node2" class="node"><title>Node2</title>
<g id="a_node2"><a xlink:href="classsoftwarecontainer_1_1_d_bus_gateway.html#af84424bf49120532516ea0660b5857f1" target="_top" xlink:title="Activates both dbus session instances. ">
<polygon fill="white" stroke="black" points="162,-49.5 162,-79.5 283,-79.5 283,-49.5 162,-49.5"/>
<text text-anchor="start" x="170" y="-67.5" font-family="Helvetica,sans-Serif" font-size="10.00">softwarecontainer::</text>
<text text-anchor="middle" x="222.5" y="-56.5" font-family="Helvetica,sans-Serif" font-size="10.00">DBusGateway::activate</text>
</a>
</g>
</g>
<!-- Node1&#45;&gt;Node2 -->
<g id="edge1" class="edge"><title>Node1&#45;&gt;Node2</title>
<path fill="none" stroke="midnightblue" d="M126.506,-49.8856C138.276,-51.6963 150.442,-53.5679 161.977,-55.3426"/>
<polygon fill="midnightblue" stroke="midnightblue" points="126.707,-46.3754 116.291,-48.3141 125.643,-53.294 126.707,-46.3754"/>
</g>
<!-- Node3 -->
<g id="node3" class="node"><title>Node3</title>
<g id="a_node3"><a xlink:href="classsoftwarecontainer_1_1_d_bus_gateway.html#a190ed3e72e31d93bb47dd4e14081df15" target="_top" xlink:title="Is the gateway configured or not? ">
<polygon fill="white" stroke="black" points="152,-0.5 152,-30.5 293,-30.5 293,-0.5 152,-0.5"/>
<text text-anchor="start" x="160" y="-18.5" font-family="Helvetica,sans-Serif" font-size="10.00">softwarecontainer::</text>
<text text-anchor="middle" x="222.5" y="-7.5" font-family="Helvetica,sans-Serif" font-size="10.00">DBusGateway::isConfigured</text>
</a>
</g>
</g>
<!-- Node1&#45;&gt;Node3 -->
<g id="edge2" class="edge"><title>Node1&#45;&gt;Node3</title>
<path fill="none" stroke="midnightblue" d="M126.427,-29.5415C134.84,-28.299 143.457,-27.0264 151.902,-25.7791"/>
<polygon fill="midnightblue" stroke="midnightblue" points="125.673,-26.1149 116.291,-31.0385 126.696,-33.0398 125.673,-26.1149"/>
</g>
</g>
</svg>
