<?xml version="1.0" encoding="UTF-8" standalone="no"?>
<!DOCTYPE svg PUBLIC "-//W3C//DTD SVG 1.1//EN"
 "http://www.w3.org/Graphics/SVG/1.1/DTD/svg11.dtd">
<!-- Generated by graphviz version 2.38.0 (20140413.2041)
 -->
<!-- Title: softwarecontainer::NetworkGateway::activateGateway Pages: 1 -->
<svg width="488pt" height="165pt"
 viewBox="0.00 0.00 488.00 165.00" xmlns="http://www.w3.org/2000/svg" xmlns:xlink="http://www.w3.org/1999/xlink">
<g id="graph0" class="graph" transform="scale(1 1) rotate(0) translate(4 161)">
<title>softwarecontainer::NetworkGateway::activateGateway</title>
<polygon fill="white" stroke="none" points="-4,4 -4,-161 484,-161 484,4 -4,4"/>
<!-- Node1 -->
<g id="node1" class="node"><title>Node1</title>
<polygon fill="#bfbfbf" stroke="black" points="0,-63.5 0,-93.5 172,-93.5 172,-63.5 0,-63.5"/>
<text text-anchor="start" x="8" y="-81.5" font-family="Helvetica,sans-Serif" font-size="10.00">softwarecontainer::</text>
<text text-anchor="middle" x="86" y="-70.5" font-family="Helvetica,sans-Serif" font-size="10.00">NetworkGateway::activateGateway</text>
</g>
<!-- Node2 -->
<g id="node2" class="node"><title>Node2</title>
<g id="a_node2"><a xlink:href="classsoftwarecontainer_1_1_gateway.html#a6f0a60c9f29ea869916f7524085b3e5f" target="_top" xlink:title="Get a handle to the associated container. ">
<polygon fill="white" stroke="black" points="208,-126.5 208,-156.5 325,-156.5 325,-126.5 208,-126.5"/>
<text text-anchor="start" x="216" y="-144.5" font-family="Helvetica,sans-Serif" font-size="10.00">softwarecontainer::</text>
<text text-anchor="middle" x="266.5" y="-133.5" font-family="Helvetica,sans-Serif" font-size="10.00">Gateway::getContainer</text>
</a>
</g>
</g>
<!-- Node1&#45;&gt;Node2 -->
<g id="edge1" class="edge"><title>Node1&#45;&gt;Node2</title>
<path fill="none" stroke="midnightblue" d="M129.755,-93.5901C154.833,-102.441 186.705,-113.69 213.263,-123.063"/>
<polygon fill="midnightblue" stroke="midnightblue" points="212.19,-126.396 222.785,-126.424 214.52,-119.795 212.19,-126.396"/>
</g>
<!-- Node3 -->
<g id="node3" class="node"><title>Node3</title>
<g id="a_node3"><a xlink:href="classsoftwarecontainer_1_1_gateway.html#a5e1b860ea7c1ed7b69d2e5dd7021a527" target="_top" xlink:title="Check if the gateway has an associated container. ">
<polygon fill="white" stroke="black" points="361,-95.5 361,-125.5 480,-125.5 480,-95.5 361,-95.5"/>
<text text-anchor="start" x="369" y="-113.5" font-family="Helvetica,sans-Serif" font-size="10.00">softwarecontainer::</text>
<text text-anchor="middle" x="420.5" y="-102.5" font-family="Helvetica,sans-Serif" font-size="10.00">Gateway::hasContainer</text>
</a>
</g>
</g>
<!-- Node1&#45;&gt;Node3 -->
<g id="edge3" class="edge"><title>Node1&#45;&gt;Node3</title>
<path fill="none" stroke="midnightblue" d="M172.195,-86.6992C227.664,-92.0376 299.071,-98.9099 350.884,-103.896"/>
<polygon fill="midnightblue" stroke="midnightblue" points="350.685,-107.393 360.974,-104.867 351.356,-100.425 350.685,-107.393"/>
</g>
<!-- Node4 -->
<g id="node4" class="node"><title>Node4</title>
<g id="a_node4"><a xlink:href="namespacesoftwarecontainer.html#a51a25e6a54b7bb79fc5b4ce8902a31a4" target="_top" xlink:title="isError Check if ReturnCode indicates Error or not ">
<polygon fill="white" stroke="black" points="370.5,-30.5 370.5,-60.5 470.5,-60.5 470.5,-30.5 370.5,-30.5"/>
<text text-anchor="start" x="378.5" y="-48.5" font-family="Helvetica,sans-Serif" font-size="10.00">softwarecontainer::</text>
<text text-anchor="middle" x="420.5" y="-37.5" font-family="Helvetica,sans-Serif" font-size="10.00">isError</text>
</a>
</g>
</g>
<!-- Node1&#45;&gt;Node4 -->
<g id="edge4" class="edge"><title>Node1&#45;&gt;Node4</title>
<path fill="none" stroke="midnightblue" d="M172.195,-70.0445C231.001,-64.2081 307.721,-56.5939 360.015,-51.4038"/>
<polygon fill="midnightblue" stroke="midnightblue" points="360.53,-54.87 370.135,-50.3994 359.838,-47.9042 360.53,-54.87"/>
</g>
<!-- Node5 -->
<g id="node5" class="node"><title>Node5</title>
<g id="a_node5"><a xlink:href="namespacesoftwarecontainer.html#a7e308629b69d1bcc3bc5e8ceac9b5a2a" target="_top" xlink:title="isSuccess Check if ReturnCode indicates Success or not ">
<polygon fill="white" stroke="black" points="216.5,-0.5 216.5,-30.5 316.5,-30.5 316.5,-0.5 216.5,-0.5"/>
<text text-anchor="start" x="224.5" y="-18.5" font-family="Helvetica,sans-Serif" font-size="10.00">softwarecontainer::</text>
<text text-anchor="middle" x="266.5" y="-7.5" font-family="Helvetica,sans-Serif" font-size="10.00">isSuccess</text>
</a>
</g>
</g>
<!-- Node1&#45;&gt;Node5 -->
<g id="edge5" class="edge"><title>Node1&#45;&gt;Node5</title>
<path fill="none" stroke="midnightblue" d="M129.755,-63.4099C154.833,-54.559 186.705,-43.31 213.263,-33.9366"/>
<polygon fill="midnightblue" stroke="midnightblue" points="214.52,-37.2047 222.785,-30.576 212.19,-30.6038 214.52,-37.2047"/>
</g>
<!-- Node2&#45;&gt;Node3 -->
<g id="edge2" class="edge"><title>Node2&#45;&gt;Node3</title>
<path fill="none" stroke="midnightblue" d="M325.398,-129.692C333.72,-127.995 342.349,-126.235 350.854,-124.5"/>
<polygon fill="midnightblue" stroke="midnightblue" points="351.656,-127.909 360.755,-122.481 350.257,-121.05 351.656,-127.909"/>
</g>
<!-- Node5&#45;&gt;Node4 -->
<g id="edge6" class="edge"><title>Node5&#45;&gt;Node4</title>
<path fill="none" stroke="midnightblue" d="M316.85,-25.2401C330.796,-27.9926 346.112,-31.0155 360.561,-33.8672"/>
<polygon fill="midnightblue" stroke="midnightblue" points="359.909,-37.3061 370.398,-35.8087 361.265,-30.4386 359.909,-37.3061"/>
</g>
</g>
</svg>
