<?xml version="1.0" encoding="UTF-8" standalone="no"?>
<!DOCTYPE svg PUBLIC "-//W3C//DTD SVG 1.1//EN"
 "http://www.w3.org/Graphics/SVG/1.1/DTD/svg11.dtd">
<!-- Generated by graphviz version 2.38.0 (20140413.2041)
 -->
<!-- Title: Gateway Pages: 1 -->
<svg width="346pt" height="294pt"
 viewBox="0.00 0.00 346.00 294.00" xmlns="http://www.w3.org/2000/svg" xmlns:xlink="http://www.w3.org/1999/xlink">
<g id="graph0" class="graph" transform="scale(1 1) rotate(0) translate(4 290)">
<title>Gateway</title>
<polygon fill="white" stroke="none" points="-4,4 -4,-290 342,-290 342,4 -4,4"/>
<!-- Node1 -->
<g id="node1" class="node"><title>Node1</title>
<polygon fill="#bfbfbf" stroke="black" points="136,-133.5 136,-152.5 192,-152.5 192,-133.5 136,-133.5"/>
<text text-anchor="middle" x="164" y="-140.5" font-family="Helvetica,sans-Serif" font-size="10.00">Gateway</text>
</g>
<!-- Node3 -->
<g id="node3" class="node"><title>Node3</title>
<g id="a_node3"><a xlink:href="class_cgroups_gateway.html" target="_top" xlink:title="The cgroups gateway sets cgroups related settings for the container. ">
<polygon fill="white" stroke="black" points="237,-266.5 237,-285.5 329,-285.5 329,-266.5 237,-266.5"/>
<text text-anchor="middle" x="283" y="-273.5" font-family="Helvetica,sans-Serif" font-size="10.00">CgroupsGateway</text>
</a>
</g>
</g>
<!-- Node1&#45;&gt;Node3 -->
<g id="edge2" class="edge"><title>Node1&#45;&gt;Node3</title>
<path fill="none" stroke="midnightblue" d="M170.856,-162.34C179.441,-187.555 197.788,-231.442 228,-257 232.553,-260.851 237.937,-263.941 243.514,-266.414"/>
<polygon fill="midnightblue" stroke="midnightblue" points="174.174,-161.225 167.768,-152.786 167.513,-163.377 174.174,-161.225"/>
</g>
<!-- Node4 -->
<g id="node4" class="node"><title>Node4</title>
<g id="a_node4"><a xlink:href="class_d_bus_gateway.html" target="_top" xlink:title="DBus Gateway takes care of spawning and killing the DBus proxies. ">
<polygon fill="white" stroke="black" points="243,-228.5 243,-247.5 323,-247.5 323,-228.5 243,-228.5"/>
<text text-anchor="middle" x="283" y="-235.5" font-family="Helvetica,sans-Serif" font-size="10.00">DBusGateway</text>
</a>
</g>
</g>
<!-- Node1&#45;&gt;Node4 -->
<g id="edge3" class="edge"><title>Node1&#45;&gt;Node4</title>
<path fill="none" stroke="midnightblue" d="M175.907,-161.151C187.043,-178.269 205.812,-203.543 228,-219 233.464,-222.806 239.766,-225.922 246.094,-228.447"/>
<polygon fill="midnightblue" stroke="midnightblue" points="178.815,-159.201 170.532,-152.595 172.887,-162.924 178.815,-159.201"/>
</g>
<!-- Node5 -->
<g id="node5" class="node"><title>Node5</title>
<g id="a_node5"><a xlink:href="class_device_node_gateway.html" target="_top" xlink:title="This gateway is responsible for exposing device nodes in an LXC container. ">
<polygon fill="white" stroke="black" points="228,-190.5 228,-209.5 338,-209.5 338,-190.5 228,-190.5"/>
<text text-anchor="middle" x="283" y="-197.5" font-family="Helvetica,sans-Serif" font-size="10.00">DeviceNodeGateway</text>
</a>
</g>
</g>
<!-- Node1&#45;&gt;Node5 -->
<g id="edge4" class="edge"><title>Node1&#45;&gt;Node5</title>
<path fill="none" stroke="midnightblue" d="M187.729,-158.257C199.442,-165.715 214.143,-174.467 228,-181 235.371,-184.475 243.561,-187.673 251.288,-190.416"/>
<polygon fill="midnightblue" stroke="midnightblue" points="189.342,-155.131 179.049,-152.62 185.53,-161.002 189.342,-155.131"/>
</g>
<!-- Node6 -->
<g id="node6" class="node"><title>Node6</title>
<g id="a_node6"><a xlink:href="class_environment_gateway.html" target="_top" xlink:title="Environment Gateway is used to define environment variables to the container. ">
<polygon fill="white" stroke="black" points="228,-152.5 228,-171.5 338,-171.5 338,-152.5 228,-152.5"/>
<text text-anchor="middle" x="283" y="-159.5" font-family="Helvetica,sans-Serif" font-size="10.00">EnvironmentGateway</text>
</a>
</g>
</g>
<!-- Node1&#45;&gt;Node6 -->
<g id="edge5" class="edge"><title>Node1&#45;&gt;Node6</title>
<path fill="none" stroke="midnightblue" d="M202.099,-149.025C210.285,-150.354 219.119,-151.788 227.824,-153.202"/>
<polygon fill="midnightblue" stroke="midnightblue" points="202.568,-145.555 192.136,-147.407 201.446,-152.464 202.568,-145.555"/>
</g>
<!-- Node7 -->
<g id="node7" class="node"><title>Node7</title>
<g id="a_node7"><a xlink:href="class_file_gateway.html" target="_top" xlink:title="This gateway lets you map files (including socket files) or folders from the host into the container&#39;...">
<polygon fill="white" stroke="black" points="247.5,-114.5 247.5,-133.5 318.5,-133.5 318.5,-114.5 247.5,-114.5"/>
<text text-anchor="middle" x="283" y="-121.5" font-family="Helvetica,sans-Serif" font-size="10.00">FileGateway</text>
</a>
</g>
</g>
<!-- Node1&#45;&gt;Node7 -->
<g id="edge6" class="edge"><title>Node1&#45;&gt;Node7</title>
<path fill="none" stroke="midnightblue" d="M202.265,-136.948C216.747,-134.597 233.238,-131.919 247.45,-129.611"/>
<polygon fill="midnightblue" stroke="midnightblue" points="201.446,-133.536 192.136,-138.593 202.568,-140.445 201.446,-133.536"/>
</g>
<!-- Node8 -->
<g id="node8" class="node"><title>Node8</title>
<g id="a_node8"><a xlink:href="class_network_gateway.html" target="_top" xlink:title="Sets up and manages network access and routing to the container. ">
<polygon fill="white" stroke="black" points="237,-76.5 237,-95.5 329,-95.5 329,-76.5 237,-76.5"/>
<text text-anchor="middle" x="283" y="-83.5" font-family="Helvetica,sans-Serif" font-size="10.00">NetworkGateway</text>
</a>
</g>
</g>
<!-- Node1&#45;&gt;Node8 -->
<g id="edge7" class="edge"><title>Node1&#45;&gt;Node8</title>
<path fill="none" stroke="midnightblue" d="M187.729,-127.743C199.442,-120.285 214.143,-111.533 228,-105 235.371,-101.525 243.561,-98.3266 251.288,-95.5843"/>
<polygon fill="midnightblue" stroke="midnightblue" points="185.53,-124.998 179.049,-133.38 189.342,-130.869 185.53,-124.998"/>
</g>
<!-- Node9 -->
<g id="node9" class="node"><title>Node9</title>
<g id="a_node9"><a xlink:href="class_pulse_gateway.html" target="_top" xlink:title="The PulseAudio Gateway is used to provide access to the host system PulseAudio server. ">
<polygon fill="white" stroke="black" points="243,-38.5 243,-57.5 323,-57.5 323,-38.5 243,-38.5"/>
<text text-anchor="middle" x="283" y="-45.5" font-family="Helvetica,sans-Serif" font-size="10.00">PulseGateway</text>
</a>
</g>
</g>
<!-- Node1&#45;&gt;Node9 -->
<g id="edge8" class="edge"><title>Node1&#45;&gt;Node9</title>
<path fill="none" stroke="midnightblue" d="M175.907,-124.849C187.043,-107.731 205.812,-82.4574 228,-67 233.464,-63.1937 239.766,-60.0783 246.094,-57.5529"/>
<polygon fill="midnightblue" stroke="midnightblue" points="172.887,-123.076 170.532,-133.405 178.815,-126.799 172.887,-123.076"/>
</g>
<!-- Node10 -->
<g id="node10" class="node"><title>Node10</title>
<g id="a_node10"><a xlink:href="class_wayland_gateway.html" target="_top" xlink:title="WaylandGateway">
<polygon fill="white" stroke="black" points="236,-0.5 236,-19.5 330,-19.5 330,-0.5 236,-0.5"/>
<text text-anchor="middle" x="283" y="-7.5" font-family="Helvetica,sans-Serif" font-size="10.00">WaylandGateway</text>
</a>
</g>
</g>
<!-- Node1&#45;&gt;Node10 -->
<g id="edge9" class="edge"><title>Node1&#45;&gt;Node10</title>
<path fill="none" stroke="midnightblue" d="M170.856,-123.66C179.441,-98.4454 197.788,-54.5576 228,-29 232.553,-25.1488 237.937,-22.0592 243.514,-19.5856"/>
<polygon fill="midnightblue" stroke="midnightblue" points="167.513,-122.623 167.768,-133.214 174.174,-124.775 167.513,-122.623"/>
</g>
<!-- Node2 -->
<g id="node2" class="node"><title>Node2</title>
<g id="a_node2"><a xlink:href="classsoftwarecontainer_1_1_j_s_o_n_parser.html" target="_top" xlink:title="Convenience layer for the Jansson JSON parser. ">
<polygon fill="white" stroke="black" points="0,-128 0,-158 100,-158 100,-128 0,-128"/>
<text text-anchor="start" x="8" y="-146" font-family="Helvetica,sans-Serif" font-size="10.00">softwarecontainer::</text>
<text text-anchor="middle" x="50" y="-135" font-family="Helvetica,sans-Serif" font-size="10.00">JSONParser</text>
</a>
</g>
</g>
<!-- Node2&#45;&gt;Node1 -->
<g id="edge1" class="edge"><title>Node2&#45;&gt;Node1</title>
<path fill="none" stroke="darkgreen" d="M110.204,-143C119.134,-143 127.954,-143 135.754,-143"/>
<polygon fill="darkgreen" stroke="darkgreen" points="110.125,-139.5 100.125,-143 110.125,-146.5 110.125,-139.5"/>
</g>
</g>
</svg>
