<?xml version="1.0" encoding="UTF-8" standalone="no"?>
<!DOCTYPE svg PUBLIC "-//W3C//DTD SVG 1.1//EN"
 "http://www.w3.org/Graphics/SVG/1.1/DTD/svg11.dtd">
<!-- Generated by graphviz version 2.38.0 (20140413.2041)
 -->
<!-- Title: Container::initialize Pages: 1 -->
<svg width="415pt" height="110pt"
 viewBox="0.00 0.00 415.00 110.00" xmlns="http://www.w3.org/2000/svg" xmlns:xlink="http://www.w3.org/1999/xlink">
<g id="graph0" class="graph" transform="scale(1 1) rotate(0) translate(4 106)">
<title>Container::initialize</title>
<polygon fill="white" stroke="none" points="-4,4 -4,-106 411,-106 411,4 -4,4"/>
<!-- Node1 -->
<g id="node1" class="node"><title>Node1</title>
<polygon fill="#bfbfbf" stroke="black" points="0,-41.5 0,-60.5 100,-60.5 100,-41.5 0,-41.5"/>
<text text-anchor="middle" x="50" y="-48.5" font-family="Helvetica,sans-Serif" font-size="10.00">Container::initialize</text>
</g>
<!-- Node2 -->
<g id="node2" class="node"><title>Node2</title>
<g id="a_node2"><a xlink:href="classsoftwarecontainer_1_1_file_toolkit_with_undo.html#aff5073fb683649d6753baae354d202b9" target="_top" xlink:title="createDirectory Create a directory, and if successful append it to a list of dirs to be deleted in th...">
<polygon fill="white" stroke="black" points="148.5,-60.5 148.5,-101.5 253.5,-101.5 253.5,-60.5 148.5,-60.5"/>
<text text-anchor="start" x="156.5" y="-89.5" font-family="Helvetica,sans-Serif" font-size="10.00">softwarecontainer::</text>
<text text-anchor="start" x="156.5" y="-78.5" font-family="Helvetica,sans-Serif" font-size="10.00">FileToolkitWithUndo</text>
<text text-anchor="middle" x="201" y="-67.5" font-family="Helvetica,sans-Serif" font-size="10.00">::createDirectory</text>
</a>
</g>
</g>
<!-- Node1&#45;&gt;Node2 -->
<g id="edge1" class="edge"><title>Node1&#45;&gt;Node2</title>
<path fill="none" stroke="midnightblue" d="M98.5542,-60.5747C111.178,-63.1163 124.994,-65.8981 138.255,-68.568"/>
<polygon fill="midnightblue" stroke="midnightblue" points="137.764,-72.0394 148.258,-70.5821 139.145,-65.1771 137.764,-72.0394"/>
</g>
<!-- Node4 -->
<g id="node4" class="node"><title>Node4</title>
<g id="a_node4"><a xlink:href="classsoftwarecontainer_1_1_file_toolkit_with_undo.html#ab74e5ec0784b2aa597d54f28f44f7112" target="_top" xlink:title="createSharedMountPoint Make the mount point shared, ie new mount points created in one bind mount wil...">
<polygon fill="white" stroke="black" points="136,-0.5 136,-41.5 266,-41.5 266,-0.5 136,-0.5"/>
<text text-anchor="start" x="144" y="-29.5" font-family="Helvetica,sans-Serif" font-size="10.00">softwarecontainer::</text>
<text text-anchor="start" x="144" y="-18.5" font-family="Helvetica,sans-Serif" font-size="10.00">FileToolkitWithUndo</text>
<text text-anchor="middle" x="201" y="-7.5" font-family="Helvetica,sans-Serif" font-size="10.00">::createSharedMountPoint</text>
</a>
</g>
</g>
<!-- Node1&#45;&gt;Node4 -->
<g id="edge3" class="edge"><title>Node1&#45;&gt;Node4</title>
<path fill="none" stroke="midnightblue" d="M98.5542,-41.4253C107.248,-39.6749 116.508,-37.8106 125.762,-35.9473"/>
<polygon fill="midnightblue" stroke="midnightblue" points="126.662,-39.3364 135.774,-33.9314 125.28,-32.4741 126.662,-39.3364"/>
</g>
<!-- Node3 -->
<g id="node3" class="node"><title>Node3</title>
<g id="a_node3"><a xlink:href="classsoftwarecontainer_1_1_file_toolkit_with_undo.html#a44a19890b72a635b3134cb2a07fc0875" target="_top" xlink:title="checks whether given path is already added to clean up handlers or not ">
<polygon fill="white" stroke="black" points="302,-60.5 302,-101.5 407,-101.5 407,-60.5 302,-60.5"/>
<text text-anchor="start" x="310" y="-89.5" font-family="Helvetica,sans-Serif" font-size="10.00">softwarecontainer::</text>
<text text-anchor="start" x="310" y="-78.5" font-family="Helvetica,sans-Serif" font-size="10.00">FileToolkitWithUndo</text>
<text text-anchor="middle" x="354.5" y="-67.5" font-family="Helvetica,sans-Serif" font-size="10.00">::pathInList</text>
</a>
</g>
</g>
<!-- Node2&#45;&gt;Node3 -->
<g id="edge2" class="edge"><title>Node2&#45;&gt;Node3</title>
<path fill="none" stroke="midnightblue" d="M253.714,-81C265.835,-81 278.873,-81 291.395,-81"/>
<polygon fill="midnightblue" stroke="midnightblue" points="291.762,-84.5001 301.762,-81 291.762,-77.5001 291.762,-84.5001"/>
</g>
</g>
</svg>
