<?xml version="1.0" encoding="UTF-8" standalone="no"?>
<!DOCTYPE svg PUBLIC "-//W3C//DTD SVG 1.1//EN"
 "http://www.w3.org/Graphics/SVG/1.1/DTD/svg11.dtd">
<!-- Generated by graphviz version 2.38.0 (20140413.2041)
 -->
<!-- Title: softwarecontainer::NetworkGateway::activateGateway Pages: 1 -->
<svg width="351pt" height="99pt"
 viewBox="0.00 0.00 351.00 98.50" xmlns="http://www.w3.org/2000/svg" xmlns:xlink="http://www.w3.org/1999/xlink">
<g id="graph0" class="graph" transform="scale(1 1) rotate(0) translate(4 94.5)">
<title>softwarecontainer::NetworkGateway::activateGateway</title>
<polygon fill="white" stroke="none" points="-4,4 -4,-94.5 347,-94.5 347,4 -4,4"/>
<!-- Node1 -->
<g id="node1" class="node"><title>Node1</title>
<polygon fill="#bfbfbf" stroke="black" points="0,-27.5 0,-57.5 172,-57.5 172,-27.5 0,-27.5"/>
<text text-anchor="start" x="8" y="-45.5" font-family="Helvetica,sans-Serif" font-size="10.00">softwarecontainer::</text>
<text text-anchor="middle" x="86" y="-34.5" font-family="Helvetica,sans-Serif" font-size="10.00">NetworkGateway::activateGateway</text>
</g>
<!-- Node2 -->
<g id="node2" class="node"><title>Node2</title>
<g id="a_node2"><a xlink:href="classsoftwarecontainer_1_1_network_gateway_functions.html#acd4156881bb546b07867ff8345404558" target="_top" xlink:title="Generate IP address for the container. ">
<polygon fill="white" stroke="black" points="208,-49 208,-90 343,-90 343,-49 208,-49"/>
<text text-anchor="start" x="216" y="-78" font-family="Helvetica,sans-Serif" font-size="10.00">softwarecontainer::</text>
<text text-anchor="start" x="216" y="-67" font-family="Helvetica,sans-Serif" font-size="10.00">NetworkGatewayFunctions</text>
<text text-anchor="middle" x="275.5" y="-56" font-family="Helvetica,sans-Serif" font-size="10.00">::generateIP</text>
</a>
</g>
</g>
<!-- Node1&#45;&gt;Node2 -->
<g id="edge1" class="edge"><title>Node1&#45;&gt;Node2</title>
<path fill="none" stroke="midnightblue" d="M172.246,-54.7754C180.705,-55.9936 189.258,-57.2252 197.625,-58.43"/>
<polygon fill="midnightblue" stroke="midnightblue" points="197.324,-61.9226 207.721,-59.8838 198.321,-54.9941 197.324,-61.9226"/>
</g>
<!-- Node3 -->
<g id="node3" class="node"><title>Node3</title>
<g id="a_node3"><a xlink:href="classsoftwarecontainer_1_1_gateway.html#a6f0a60c9f29ea869916f7524085b3e5f" target="_top" xlink:title="Get a handle to the associated container. ">
<polygon fill="white" stroke="black" points="217,-0.5 217,-30.5 334,-30.5 334,-0.5 217,-0.5"/>
<text text-anchor="start" x="225" y="-18.5" font-family="Helvetica,sans-Serif" font-size="10.00">softwarecontainer::</text>
<text text-anchor="middle" x="275.5" y="-7.5" font-family="Helvetica,sans-Serif" font-size="10.00">Gateway::getContainer</text>
</a>
</g>
</g>
<!-- Node1&#45;&gt;Node3 -->
<g id="edge2" class="edge"><title>Node1&#45;&gt;Node3</title>
<path fill="none" stroke="midnightblue" d="M172.246,-30.2246C183.8,-28.5607 195.528,-26.8719 206.72,-25.2602"/>
<polygon fill="midnightblue" stroke="midnightblue" points="207.429,-28.6944 216.828,-23.8048 206.431,-21.7659 207.429,-28.6944"/>
</g>
</g>
</svg>
