<?xml version="1.0" encoding="UTF-8" standalone="no"?>
<!DOCTYPE svg PUBLIC "-//W3C//DTD SVG 1.1//EN"
 "http://www.w3.org/Graphics/SVG/1.1/DTD/svg11.dtd">
<!-- Generated by graphviz version 2.38.0 (20140413.2041)
 -->
<!-- Title: softwarecontainer::Gateway::id Pages: 1 -->
<svg width="432pt" height="196pt"
 viewBox="0.00 0.00 432.00 196.00" xmlns="http://www.w3.org/2000/svg" xmlns:xlink="http://www.w3.org/1999/xlink">
<g id="graph0" class="graph" transform="scale(1 1) rotate(0) translate(4 192)">
<title>softwarecontainer::Gateway::id</title>
<polygon fill="white" stroke="none" points="-4,4 -4,-192 428,-192 428,4 -4,4"/>
<!-- Node1 -->
<g id="node1" class="node"><title>Node1</title>
<polygon fill="#bfbfbf" stroke="black" points="0,-76.5 0,-106.5 100,-106.5 100,-76.5 0,-76.5"/>
<text text-anchor="start" x="8" y="-94.5" font-family="Helvetica,sans-Serif" font-size="10.00">softwarecontainer::</text>
<text text-anchor="middle" x="50" y="-83.5" font-family="Helvetica,sans-Serif" font-size="10.00">Gateway::id</text>
</g>
<!-- Node2 -->
<g id="node2" class="node"><title>Node2</title>
<g id="a_node2"><a xlink:href="classsoftwarecontainer_1_1_gateway.html#abd136fffb30a625ca5ab4abe06adc680" target="_top" xlink:title="Applies any configuration set by setConfig() ">
<polygon fill="white" stroke="black" points="148,-157.5 148,-187.5 248,-187.5 248,-157.5 148,-157.5"/>
<text text-anchor="start" x="156" y="-175.5" font-family="Helvetica,sans-Serif" font-size="10.00">softwarecontainer::</text>
<text text-anchor="middle" x="198" y="-164.5" font-family="Helvetica,sans-Serif" font-size="10.00">Gateway::activate</text>
</a>
</g>
</g>
<!-- Node1&#45;&gt;Node2 -->
<g id="edge1" class="edge"><title>Node1&#45;&gt;Node2</title>
<path fill="none" stroke="midnightblue" d="M79.2641,-112.705C95.3636,-124.199 116.216,-138.13 136,-148.5 142.048,-151.67 148.612,-154.672 155.117,-157.412"/>
<polygon fill="midnightblue" stroke="midnightblue" points="80.9978,-109.639 70.8458,-106.608 76.8919,-115.308 80.9978,-109.639"/>
</g>
<!-- Node4 -->
<g id="node4" class="node"><title>Node4</title>
<g id="a_node4"><a xlink:href="classsoftwarecontainer_1_1_d_bus_gateway_instance.html#a989f08074e0f55b7af0f81815cae18ad" target="_top" xlink:title="Spawn the proxy and use the supplied path for the socket. ">
<polygon fill="white" stroke="black" points="136,-98 136,-139 260,-139 260,-98 136,-98"/>
<text text-anchor="start" x="144" y="-127" font-family="Helvetica,sans-Serif" font-size="10.00">softwarecontainer::</text>
<text text-anchor="start" x="144" y="-116" font-family="Helvetica,sans-Serif" font-size="10.00">DBusGatewayInstance</text>
<text text-anchor="middle" x="198" y="-105" font-family="Helvetica,sans-Serif" font-size="10.00">::DBusGatewayInstance</text>
</a>
</g>
</g>
<!-- Node1&#45;&gt;Node4 -->
<g id="edge3" class="edge"><title>Node1&#45;&gt;Node4</title>
<path fill="none" stroke="midnightblue" d="M109.921,-102.396C118.483,-103.98 127.314,-105.613 135.918,-107.204"/>
<polygon fill="midnightblue" stroke="midnightblue" points="110.492,-98.9426 100.022,-100.566 109.219,-105.826 110.492,-98.9426"/>
</g>
<!-- Node5 -->
<g id="node5" class="node"><title>Node5</title>
<g id="a_node5"><a xlink:href="classsoftwarecontainer_1_1_gateway.html#ae32068e630d51cb3e641e974eed2614c" target="_top" xlink:title="Configure this gateway according to the supplied JSON configuration string. ">
<polygon fill="white" stroke="black" points="146,-49.5 146,-79.5 250,-79.5 250,-49.5 146,-49.5"/>
<text text-anchor="start" x="154" y="-67.5" font-family="Helvetica,sans-Serif" font-size="10.00">softwarecontainer::</text>
<text text-anchor="middle" x="198" y="-56.5" font-family="Helvetica,sans-Serif" font-size="10.00">Gateway::setConfig</text>
</a>
</g>
</g>
<!-- Node1&#45;&gt;Node5 -->
<g id="edge4" class="edge"><title>Node1&#45;&gt;Node5</title>
<path fill="none" stroke="midnightblue" d="M109.88,-80.6112C121.797,-78.4073 134.237,-76.1069 145.861,-73.9572"/>
<polygon fill="midnightblue" stroke="midnightblue" points="109.219,-77.1741 100.022,-82.4343 110.492,-84.0574 109.219,-77.1741"/>
</g>
<!-- Node7 -->
<g id="node7" class="node"><title>Node7</title>
<g id="a_node7"><a xlink:href="classsoftwarecontainer_1_1_gateway.html#af38a5c8ee0ff839a0134eefce61ba7a3" target="_top" xlink:title="Restore system to the state prior to launching of gateway. ">
<polygon fill="white" stroke="black" points="147.5,-0.5 147.5,-30.5 248.5,-30.5 248.5,-0.5 147.5,-0.5"/>
<text text-anchor="start" x="155.5" y="-18.5" font-family="Helvetica,sans-Serif" font-size="10.00">softwarecontainer::</text>
<text text-anchor="middle" x="198" y="-7.5" font-family="Helvetica,sans-Serif" font-size="10.00">Gateway::teardown</text>
</a>
</g>
</g>
<!-- Node1&#45;&gt;Node7 -->
<g id="edge6" class="edge"><title>Node1&#45;&gt;Node7</title>
<path fill="none" stroke="midnightblue" d="M82.6976,-70.9182C98.4124,-61.1211 117.867,-49.5903 136,-40.5 142.957,-37.0122 150.523,-33.6134 157.882,-30.5024"/>
<polygon fill="midnightblue" stroke="midnightblue" points="80.5082,-68.161 73.9154,-76.4546 84.2412,-74.0825 80.5082,-68.161"/>
</g>
<!-- Node3 -->
<g id="node3" class="node"><title>Node3</title>
<g id="a_node3"><a xlink:href="classsoftwarecontainer_1_1_d_bus_gateway.html#af84424bf49120532516ea0660b5857f1" target="_top" xlink:title="Activates both dbus session instances. ">
<polygon fill="white" stroke="black" points="299.5,-157.5 299.5,-187.5 420.5,-187.5 420.5,-157.5 299.5,-157.5"/>
<text text-anchor="start" x="307.5" y="-175.5" font-family="Helvetica,sans-Serif" font-size="10.00">softwarecontainer::</text>
<text text-anchor="middle" x="360" y="-164.5" font-family="Helvetica,sans-Serif" font-size="10.00">DBusGateway::activate</text>
</a>
</g>
</g>
<!-- Node2&#45;&gt;Node3 -->
<g id="edge2" class="edge"><title>Node2&#45;&gt;Node3</title>
<path fill="none" stroke="midnightblue" d="M258.375,-172.5C271.783,-172.5 286.02,-172.5 299.436,-172.5"/>
<polygon fill="midnightblue" stroke="midnightblue" points="258.311,-169 248.311,-172.5 258.311,-176 258.311,-169"/>
</g>
<!-- Node6 -->
<g id="node6" class="node"><title>Node6</title>
<g id="a_node6"><a xlink:href="classsoftwarecontainer_1_1_d_bus_gateway.html#aba926ebbabc356d598ee8d32f37d7f6b" target="_top" xlink:title="Sets config for both dbus session instances. ">
<polygon fill="white" stroke="black" points="296,-49.5 296,-79.5 424,-79.5 424,-49.5 296,-49.5"/>
<text text-anchor="start" x="304" y="-67.5" font-family="Helvetica,sans-Serif" font-size="10.00">softwarecontainer::</text>
<text text-anchor="middle" x="360" y="-56.5" font-family="Helvetica,sans-Serif" font-size="10.00">DBusGateway::setConfig</text>
</a>
</g>
</g>
<!-- Node5&#45;&gt;Node6 -->
<g id="edge5" class="edge"><title>Node5&#45;&gt;Node6</title>
<path fill="none" stroke="midnightblue" d="M260.149,-64.5C271.82,-64.5 284.059,-64.5 295.793,-64.5"/>
<polygon fill="midnightblue" stroke="midnightblue" points="260.065,-61.0001 250.065,-64.5 260.065,-68.0001 260.065,-61.0001"/>
</g>
<!-- Node8 -->
<g id="node8" class="node"><title>Node8</title>
<g id="a_node8"><a xlink:href="classsoftwarecontainer_1_1_d_bus_gateway.html#acc3278f8b78471a72c908f16b7aa36c6" target="_top" xlink:title="Restore system to the state prior to launching of gateway. ">
<polygon fill="white" stroke="black" points="297,-0.5 297,-30.5 423,-30.5 423,-0.5 297,-0.5"/>
<text text-anchor="start" x="305" y="-18.5" font-family="Helvetica,sans-Serif" font-size="10.00">softwarecontainer::</text>
<text text-anchor="middle" x="360" y="-7.5" font-family="Helvetica,sans-Serif" font-size="10.00">DBusGateway::teardown</text>
</a>
</g>
</g>
<!-- Node7&#45;&gt;Node8 -->
<g id="edge7" class="edge"><title>Node7&#45;&gt;Node8</title>
<path fill="none" stroke="midnightblue" d="M258.959,-15.5C271.341,-15.5 284.407,-15.5 296.864,-15.5"/>
<polygon fill="midnightblue" stroke="midnightblue" points="258.748,-12.0001 248.748,-15.5 258.748,-19.0001 258.748,-12.0001"/>
</g>
</g>
</svg>
