<?xml version="1.0" encoding="UTF-8" standalone="no"?>
<!DOCTYPE svg PUBLIC "-//W3C//DTD SVG 1.1//EN"
 "http://www.w3.org/Graphics/SVG/1.1/DTD/svg11.dtd">
<!-- Generated by graphviz version 2.38.0 (20140413.2041)
 -->
<!-- Title: softwarecontainer::FileToolkitWithUndo::createDirectory Pages: 1 -->
<svg width="267pt" height="50pt"
 viewBox="0.00 0.00 267.00 50.00" xmlns="http://www.w3.org/2000/svg" xmlns:xlink="http://www.w3.org/1999/xlink">
<g id="graph0" class="graph" transform="scale(1 1) rotate(0) translate(4 46)">
<title>softwarecontainer::FileToolkitWithUndo::createDirectory</title>
<polygon fill="white" stroke="none" points="-4,4 -4,-46 263,-46 263,4 -4,4"/>
<!-- Node1 -->
<g id="node1" class="node"><title>Node1</title>
<polygon fill="#bfbfbf" stroke="black" points="0,-0.5 0,-41.5 105,-41.5 105,-0.5 0,-0.5"/>
<text text-anchor="start" x="8" y="-29.5" font-family="Helvetica,sans-Serif" font-size="10.00">softwarecontainer::</text>
<text text-anchor="start" x="8" y="-18.5" font-family="Helvetica,sans-Serif" font-size="10.00">FileToolkitWithUndo</text>
<text text-anchor="middle" x="52.5" y="-7.5" font-family="Helvetica,sans-Serif" font-size="10.00">::createDirectory</text>
</g>
<!-- Node2 -->
<g id="node2" class="node"><title>Node2</title>
<g id="a_node2"><a xlink:href="classsoftwarecontainer_1_1_file_toolkit_with_undo.html#a2e2789ba9649ed6abf7a1c3ab3025daa" target="_top" xlink:title="createParentDirectory Recursively tries to create the directory pointed to by path. ">
<polygon fill="white" stroke="black" points="141,-0.5 141,-41.5 259,-41.5 259,-0.5 141,-0.5"/>
<text text-anchor="start" x="149" y="-29.5" font-family="Helvetica,sans-Serif" font-size="10.00">softwarecontainer::</text>
<text text-anchor="start" x="149" y="-18.5" font-family="Helvetica,sans-Serif" font-size="10.00">FileToolkitWithUndo</text>
<text text-anchor="middle" x="200" y="-7.5" font-family="Helvetica,sans-Serif" font-size="10.00">::createParentDirectory</text>
</a>
</g>
</g>
<!-- Node1&#45;&gt;Node2 -->
<g id="edge1" class="edge"><title>Node1&#45;&gt;Node2</title>
<path fill="none" stroke="midnightblue" d="M105.208,-14.5075C113.485,-14.2995 122.161,-14.2176 130.753,-14.2615"/>
<polygon fill="midnightblue" stroke="midnightblue" points="130.733,-17.7614 140.771,-14.371 130.81,-10.7618 130.733,-17.7614"/>
</g>
<!-- Node2&#45;&gt;Node1 -->
<g id="edge2" class="edge"><title>Node2&#45;&gt;Node1</title>
<path fill="none" stroke="midnightblue" d="M140.771,-27.629C132.411,-27.77 123.784,-27.7878 115.357,-27.6823"/>
<polygon fill="midnightblue" stroke="midnightblue" points="115.271,-24.1802 105.208,-27.4925 115.14,-31.1789 115.271,-24.1802"/>
</g>
</g>
</svg>
