<?xml version="1.0" encoding="UTF-8" standalone="no"?>
<!DOCTYPE svg PUBLIC "-//W3C//DTD SVG 1.1//EN"
 "http://www.w3.org/Graphics/SVG/1.1/DTD/svg11.dtd">
<!-- Generated by graphviz version 2.38.0 (20140413.2041)
 -->
<!-- Title: softwarecontainer::ServiceManifestFileLoader Pages: 1 -->
<svg width="140pt" height="106pt"
 viewBox="0.00 0.00 140.00 106.00" xmlns="http://www.w3.org/2000/svg" xmlns:xlink="http://www.w3.org/1999/xlink">
<g id="graph0" class="graph" transform="scale(1 1) rotate(0) translate(4 102)">
<title>softwarecontainer::ServiceManifestFileLoader</title>
<polygon fill="white" stroke="none" points="-4,4 -4,-102 136,-102 136,4 -4,4"/>
<!-- Node1 -->
<g id="node1" class="node"><title>Node1</title>
<polygon fill="#bfbfbf" stroke="black" points="0,-0.5 0,-30.5 132,-30.5 132,-0.5 0,-0.5"/>
<text text-anchor="start" x="8" y="-18.5" font-family="Helvetica,sans-Serif" font-size="10.00">softwarecontainer::</text>
<text text-anchor="middle" x="66" y="-7.5" font-family="Helvetica,sans-Serif" font-size="10.00">ServiceManifestFileLoader</text>
</g>
<!-- Node2 -->
<g id="node2" class="node"><title>Node2</title>
<g id="a_node2"><a xlink:href="classsoftwarecontainer_1_1_service_manifest_loader.html" target="_top" xlink:title="Base class used for creating a service manifest loader. ">
<polygon fill="white" stroke="black" points="8,-67.5 8,-97.5 124,-97.5 124,-67.5 8,-67.5"/>
<text text-anchor="start" x="16" y="-85.5" font-family="Helvetica,sans-Serif" font-size="10.00">softwarecontainer::</text>
<text text-anchor="middle" x="66" y="-74.5" font-family="Helvetica,sans-Serif" font-size="10.00">ServiceManifestLoader</text>
</a>
</g>
</g>
<!-- Node2&#45;&gt;Node1 -->
<g id="edge1" class="edge"><title>Node2&#45;&gt;Node1</title>
<path fill="none" stroke="midnightblue" d="M66,-57.1081C66,-48.1539 66,-38.3227 66,-30.5765"/>
<polygon fill="midnightblue" stroke="midnightblue" points="62.5001,-57.3959 66,-67.396 69.5001,-57.396 62.5001,-57.3959"/>
</g>
</g>
</svg>
