<?xml version="1.0" encoding="UTF-8" standalone="no"?>
<!DOCTYPE svg PUBLIC "-//W3C//DTD SVG 1.1//EN"
 "http://www.w3.org/Graphics/SVG/1.1/DTD/svg11.dtd">
<!-- Generated by graphviz version 2.38.0 (20140413.2041)
 -->
<!-- Title: softwarecontainer::JobAbstract Pages: 1 -->
<svg width="226pt" height="106pt"
 viewBox="0.00 0.00 226.00 106.00" xmlns="http://www.w3.org/2000/svg" xmlns:xlink="http://www.w3.org/1999/xlink">
<g id="graph0" class="graph" transform="scale(1 1) rotate(0) translate(4 102)">
<title>softwarecontainer::JobAbstract</title>
<polygon fill="white" stroke="none" points="-4,4 -4,-102 222,-102 222,4 -4,4"/>
<!-- Node1 -->
<g id="node1" class="node"><title>Node1</title>
<polygon fill="#bfbfbf" stroke="black" points="59,-67.5 59,-97.5 159,-97.5 159,-67.5 59,-67.5"/>
<text text-anchor="start" x="67" y="-85.5" font-family="Helvetica,sans-Serif" font-size="10.00">softwarecontainer::</text>
<text text-anchor="middle" x="109" y="-74.5" font-family="Helvetica,sans-Serif" font-size="10.00">JobAbstract</text>
</g>
<!-- Node2 -->
<g id="node2" class="node"><title>Node2</title>
<g id="a_node2"><a xlink:href="classsoftwarecontainer_1_1_command_job.html" target="_top" xlink:title="Use this class to execute a command line in a SoftwareContainer. ">
<polygon fill="white" stroke="black" points="0,-0.5 0,-30.5 100,-30.5 100,-0.5 0,-0.5"/>
<text text-anchor="start" x="8" y="-18.5" font-family="Helvetica,sans-Serif" font-size="10.00">softwarecontainer::</text>
<text text-anchor="middle" x="50" y="-7.5" font-family="Helvetica,sans-Serif" font-size="10.00">CommandJob</text>
</a>
</g>
</g>
<!-- Node1&#45;&gt;Node2 -->
<g id="edge1" class="edge"><title>Node1&#45;&gt;Node2</title>
<path fill="none" stroke="midnightblue" d="M89.2451,-59.7362C80.5157,-50.119 70.5037,-39.0888 62.7771,-30.5765"/>
<polygon fill="midnightblue" stroke="midnightblue" points="86.8852,-62.3438 96.1979,-67.396 92.0684,-57.639 86.8852,-62.3438"/>
</g>
<!-- Node3 -->
<g id="node3" class="node"><title>Node3</title>
<g id="a_node3"><a xlink:href="classsoftwarecontainer_1_1_function_job.html" target="_top" xlink:title="Run a C++ function lambda inside a SoftwareContainer. ">
<polygon fill="white" stroke="black" points="118,-0.5 118,-30.5 218,-30.5 218,-0.5 118,-0.5"/>
<text text-anchor="start" x="126" y="-18.5" font-family="Helvetica,sans-Serif" font-size="10.00">softwarecontainer::</text>
<text text-anchor="middle" x="168" y="-7.5" font-family="Helvetica,sans-Serif" font-size="10.00">FunctionJob</text>
</a>
</g>
</g>
<!-- Node1&#45;&gt;Node3 -->
<g id="edge2" class="edge"><title>Node1&#45;&gt;Node3</title>
<path fill="none" stroke="midnightblue" d="M128.755,-59.7362C137.484,-50.119 147.496,-39.0888 155.223,-30.5765"/>
<polygon fill="midnightblue" stroke="midnightblue" points="125.932,-57.639 121.802,-67.396 131.115,-62.3438 125.932,-57.639"/>
</g>
</g>
</svg>
