<?xml version="1.0" encoding="UTF-8" standalone="no"?>
<!DOCTYPE svg PUBLIC "-//W3C//DTD SVG 1.1//EN"
 "http://www.w3.org/Graphics/SVG/1.1/DTD/svg11.dtd">
<!-- Generated by graphviz version 2.38.0 (20140413.2041)
 -->
<!-- Title: softwarecontainer::NetworkGateway::readConfigElement Pages: 1 -->
<svg width="506pt" height="99pt"
 viewBox="0.00 0.00 506.00 98.50" xmlns="http://www.w3.org/2000/svg" xmlns:xlink="http://www.w3.org/1999/xlink">
<g id="graph0" class="graph" transform="scale(1 1) rotate(0) translate(4 94.5)">
<title>softwarecontainer::NetworkGateway::readConfigElement</title>
<polygon fill="white" stroke="none" points="-4,4 -4,-94.5 502,-94.5 502,4 -4,4"/>
<!-- Node1 -->
<g id="node1" class="node"><title>Node1</title>
<polygon fill="#bfbfbf" stroke="black" points="0,-27.5 0,-68.5 146,-68.5 146,-27.5 0,-27.5"/>
<text text-anchor="start" x="8" y="-56.5" font-family="Helvetica,sans-Serif" font-size="10.00">softwarecontainer::</text>
<text text-anchor="start" x="8" y="-45.5" font-family="Helvetica,sans-Serif" font-size="10.00">NetworkGateway::readConfig</text>
<text text-anchor="middle" x="73" y="-34.5" font-family="Helvetica,sans-Serif" font-size="10.00">Element</text>
</g>
<!-- Node2 -->
<g id="node2" class="node"><title>Node2</title>
<g id="a_node2"><a xlink:href="namespacesoftwarecontainer.html#a7e308629b69d1bcc3bc5e8ceac9b5a2a" target="_top" xlink:title="isSuccess Check if ReturnCode indicates Success or not ">
<polygon fill="white" stroke="black" points="222,-60 222,-90 322,-90 322,-60 222,-60"/>
<text text-anchor="start" x="230" y="-78" font-family="Helvetica,sans-Serif" font-size="10.00">softwarecontainer::</text>
<text text-anchor="middle" x="272" y="-67" font-family="Helvetica,sans-Serif" font-size="10.00">isSuccess</text>
</a>
</g>
</g>
<!-- Node1&#45;&gt;Node2 -->
<g id="edge1" class="edge"><title>Node1&#45;&gt;Node2</title>
<path fill="none" stroke="midnightblue" d="M146.237,-57.9005C167.749,-60.8489 191.065,-64.0444 211.654,-66.8663"/>
<polygon fill="midnightblue" stroke="midnightblue" points="211.452,-70.3712 221.834,-68.2616 212.402,-63.436 211.452,-70.3712"/>
</g>
<!-- Node4 -->
<g id="node4" class="node"><title>Node4</title>
<g id="a_node4"><a xlink:href="classsoftwarecontainer_1_1_network_gateway_parser.html#a3139a32ac1978488b7a7f9e8474ecea4" target="_top" xlink:title="Parses NetworkGateway configuration into IPTableEntry. ">
<polygon fill="white" stroke="black" points="182,-0.5 182,-41.5 362,-41.5 362,-0.5 182,-0.5"/>
<text text-anchor="start" x="190" y="-29.5" font-family="Helvetica,sans-Serif" font-size="10.00">softwarecontainer::</text>
<text text-anchor="start" x="190" y="-18.5" font-family="Helvetica,sans-Serif" font-size="10.00">NetworkGatewayParser</text>
<text text-anchor="middle" x="272" y="-7.5" font-family="Helvetica,sans-Serif" font-size="10.00">::parseNetworkGatewayConfiguration</text>
</a>
</g>
</g>
<!-- Node1&#45;&gt;Node4 -->
<g id="edge3" class="edge"><title>Node1&#45;&gt;Node4</title>
<path fill="none" stroke="midnightblue" d="M146.237,-38.0995C154.524,-36.9637 163.079,-35.7912 171.643,-34.6175"/>
<polygon fill="midnightblue" stroke="midnightblue" points="172.252,-38.0668 181.684,-33.2413 171.302,-31.1316 172.252,-38.0668"/>
</g>
<!-- Node3 -->
<g id="node3" class="node"><title>Node3</title>
<g id="a_node3"><a xlink:href="namespacesoftwarecontainer.html#a51a25e6a54b7bb79fc5b4ce8902a31a4" target="_top" xlink:title="isError Check if ReturnCode indicates Error or not ">
<polygon fill="white" stroke="black" points="398,-57 398,-87 498,-87 498,-57 398,-57"/>
<text text-anchor="start" x="406" y="-75" font-family="Helvetica,sans-Serif" font-size="10.00">softwarecontainer::</text>
<text text-anchor="middle" x="448" y="-64" font-family="Helvetica,sans-Serif" font-size="10.00">isError</text>
</a>
</g>
</g>
<!-- Node2&#45;&gt;Node3 -->
<g id="edge2" class="edge"><title>Node2&#45;&gt;Node3</title>
<path fill="none" stroke="midnightblue" d="M322.396,-74.1483C342.687,-73.7985 366.357,-73.3904 387.583,-73.0244"/>
<polygon fill="midnightblue" stroke="midnightblue" points="387.844,-76.5206 397.782,-72.8486 387.723,-69.5216 387.844,-76.5206"/>
</g>
<!-- Node4&#45;&gt;Node3 -->
<g id="edge5" class="edge"><title>Node4&#45;&gt;Node3</title>
<path fill="none" stroke="midnightblue" d="M343.02,-41.5232C357.982,-45.9086 373.641,-50.4982 388.133,-54.7459"/>
<polygon fill="midnightblue" stroke="midnightblue" points="387.376,-58.1711 397.956,-57.6251 389.345,-51.4537 387.376,-58.1711"/>
</g>
<!-- Node5 -->
<g id="node5" class="node"><title>Node5</title>
<g id="a_node5"><a xlink:href="classsoftwarecontainer_1_1_j_s_o_n_parser.html#a7ea50df505b43684c4a1d82ca6cb6e82" target="_top" xlink:title="Reads a string from a JSON Object. ">
<polygon fill="white" stroke="black" points="398,-6 398,-36 498,-36 498,-6 398,-6"/>
<text text-anchor="start" x="406" y="-24" font-family="Helvetica,sans-Serif" font-size="10.00">softwarecontainer::</text>
<text text-anchor="middle" x="448" y="-13" font-family="Helvetica,sans-Serif" font-size="10.00">JSONParser::read</text>
</a>
</g>
</g>
<!-- Node4&#45;&gt;Node5 -->
<g id="edge4" class="edge"><title>Node4&#45;&gt;Node5</title>
<path fill="none" stroke="midnightblue" d="M362.039,-21C370.837,-21 379.606,-21 387.988,-21"/>
<polygon fill="midnightblue" stroke="midnightblue" points="387.996,-24.5001 397.996,-21 387.996,-17.5001 387.996,-24.5001"/>
</g>
</g>
</svg>
