<?xml version="1.0" encoding="UTF-8" standalone="no"?>
<!DOCTYPE svg PUBLIC "-//W3C//DTD SVG 1.1//EN"
 "http://www.w3.org/Graphics/SVG/1.1/DTD/svg11.dtd">
<!-- Generated by graphviz version 2.38.0 (20140413.2041)
 -->
<!-- Title: softwarecontainer::FileToolkitWithUndo::tempDir Pages: 1 -->
<svg width="286pt" height="110pt"
 viewBox="0.00 0.00 286.00 110.00" xmlns="http://www.w3.org/2000/svg" xmlns:xlink="http://www.w3.org/1999/xlink">
<g id="graph0" class="graph" transform="scale(1 1) rotate(0) translate(4 106)">
<title>softwarecontainer::FileToolkitWithUndo::tempDir</title>
<polygon fill="white" stroke="none" points="-4,4 -4,-106 282,-106 282,4 -4,4"/>
<!-- Node1 -->
<g id="node1" class="node"><title>Node1</title>
<polygon fill="#bfbfbf" stroke="black" points="0,-30.5 0,-71.5 105,-71.5 105,-30.5 0,-30.5"/>
<text text-anchor="start" x="8" y="-59.5" font-family="Helvetica,sans-Serif" font-size="10.00">softwarecontainer::</text>
<text text-anchor="start" x="8" y="-48.5" font-family="Helvetica,sans-Serif" font-size="10.00">FileToolkitWithUndo</text>
<text text-anchor="middle" x="52.5" y="-37.5" font-family="Helvetica,sans-Serif" font-size="10.00">::tempDir</text>
</g>
<!-- Node2 -->
<g id="node2" class="node"><title>Node2</title>
<g id="a_node2"><a xlink:href="classsoftwarecontainer_1_1_file_toolkit_with_undo.html#a33c6fa5ecfb8e370ae8bb6aedf568336" target="_top" xlink:title="bindMount Bind mount a src directory to another position dst. ">
<polygon fill="white" stroke="black" points="157,-60.5 157,-101.5 262,-101.5 262,-60.5 157,-60.5"/>
<text text-anchor="start" x="165" y="-89.5" font-family="Helvetica,sans-Serif" font-size="10.00">softwarecontainer::</text>
<text text-anchor="start" x="165" y="-78.5" font-family="Helvetica,sans-Serif" font-size="10.00">FileToolkitWithUndo</text>
<text text-anchor="middle" x="209.5" y="-67.5" font-family="Helvetica,sans-Serif" font-size="10.00">::bindMount</text>
</a>
</g>
</g>
<!-- Node1&#45;&gt;Node2 -->
<g id="edge1" class="edge"><title>Node1&#45;&gt;Node2</title>
<path fill="none" stroke="midnightblue" d="M115.045,-62.9118C128.893,-65.5923 143.453,-68.4102 156.849,-71.0029"/>
<polygon fill="midnightblue" stroke="midnightblue" points="115.596,-59.4536 105.113,-60.9896 114.265,-66.3261 115.596,-59.4536"/>
</g>
<!-- Node3 -->
<g id="node3" class="node"><title>Node3</title>
<g id="a_node3"><a xlink:href="classsoftwarecontainer_1_1_container.html#aad5106f2602758d80aafebdd34a7b0f9" target="_top" xlink:title="Tries to bind mount a directory in the container. ">
<polygon fill="white" stroke="black" points="141,-0.5 141,-41.5 278,-41.5 278,-0.5 141,-0.5"/>
<text text-anchor="start" x="149" y="-29.5" font-family="Helvetica,sans-Serif" font-size="10.00">softwarecontainer::</text>
<text text-anchor="start" x="149" y="-18.5" font-family="Helvetica,sans-Serif" font-size="10.00">Container::bindMountFolder</text>
<text text-anchor="middle" x="209.5" y="-7.5" font-family="Helvetica,sans-Serif" font-size="10.00">InContainer</text>
</a>
</g>
</g>
<!-- Node1&#45;&gt;Node3 -->
<g id="edge2" class="edge"><title>Node1&#45;&gt;Node3</title>
<path fill="none" stroke="midnightblue" d="M114.948,-39.1067C123.455,-37.4604 132.231,-35.7617 140.842,-34.095"/>
<polygon fill="midnightblue" stroke="midnightblue" points="114.265,-35.6739 105.113,-41.0104 115.596,-42.5464 114.265,-35.6739"/>
</g>
</g>
</svg>
