<?xml version="1.0" encoding="UTF-8" standalone="no"?>
<!DOCTYPE svg PUBLIC "-//W3C//DTD SVG 1.1//EN"
 "http://www.w3.org/Graphics/SVG/1.1/DTD/svg11.dtd">
<!-- Generated by graphviz version 2.38.0 (20140413.2041)
 -->
<!-- Title: softwarecontainer::Gateway::hasContainer Pages: 1 -->
<svg width="497pt" height="176pt"
 viewBox="0.00 0.00 497.00 176.00" xmlns="http://www.w3.org/2000/svg" xmlns:xlink="http://www.w3.org/1999/xlink">
<g id="graph0" class="graph" transform="scale(1 1) rotate(0) translate(4 172)">
<title>softwarecontainer::Gateway::hasContainer</title>
<polygon fill="white" stroke="none" points="-4,4 -4,-172 493,-172 493,4 -4,4"/>
<!-- Node1 -->
<g id="node1" class="node"><title>Node1</title>
<polygon fill="#bfbfbf" stroke="black" points="0,-71.5 0,-101.5 119,-101.5 119,-71.5 0,-71.5"/>
<text text-anchor="start" x="8" y="-89.5" font-family="Helvetica,sans-Serif" font-size="10.00">softwarecontainer::</text>
<text text-anchor="middle" x="59.5" y="-78.5" font-family="Helvetica,sans-Serif" font-size="10.00">Gateway::hasContainer</text>
</g>
<!-- Node2 -->
<g id="node2" class="node"><title>Node2</title>
<g id="a_node2"><a xlink:href="classsoftwarecontainer_1_1_gateway.html#a3d23a057d7039df33dd5ed47302f0d58" target="_top" xlink:title="Applies any configuration set by setConfig() ">
<polygon fill="white" stroke="black" points="187.5,-137.5 187.5,-167.5 287.5,-167.5 287.5,-137.5 187.5,-137.5"/>
<text text-anchor="start" x="195.5" y="-155.5" font-family="Helvetica,sans-Serif" font-size="10.00">softwarecontainer::</text>
<text text-anchor="middle" x="237.5" y="-144.5" font-family="Helvetica,sans-Serif" font-size="10.00">Gateway::activate</text>
</a>
</g>
</g>
<!-- Node1&#45;&gt;Node2 -->
<g id="edge1" class="edge"><title>Node1&#45;&gt;Node2</title>
<path fill="none" stroke="midnightblue" d="M109.393,-105.246C124.046,-110.832 140.164,-116.944 155,-122.5 168.131,-127.418 182.478,-132.722 195.423,-137.482"/>
<polygon fill="midnightblue" stroke="midnightblue" points="110.595,-101.959 100.004,-101.663 108.099,-108.498 110.595,-101.959"/>
</g>
<!-- Node4 -->
<g id="node4" class="node"><title>Node4</title>
<g id="a_node4"><a xlink:href="class_network_gateway.html#ad19de4347291719074bde198fc61a94a" target="_top" xlink:title="Implements Gateway::activateGateway. ">
<polygon fill="white" stroke="black" points="356,-71.5 356,-101.5 489,-101.5 489,-71.5 356,-71.5"/>
<text text-anchor="start" x="364" y="-89.5" font-family="Helvetica,sans-Serif" font-size="10.00">NetworkGateway::activate</text>
<text text-anchor="middle" x="422.5" y="-78.5" font-family="Helvetica,sans-Serif" font-size="10.00">Gateway</text>
</a>
</g>
</g>
<!-- Node1&#45;&gt;Node4 -->
<g id="edge3" class="edge"><title>Node1&#45;&gt;Node4</title>
<path fill="none" stroke="midnightblue" d="M129.312,-88.1262C137.96,-88.2805 146.685,-88.412 155,-88.5 228.329,-89.2759 246.67,-89.2224 320,-88.5 331.632,-88.3854 344.013,-88.197 355.983,-87.9804"/>
<polygon fill="midnightblue" stroke="midnightblue" points="129.289,-84.6252 119.225,-87.9357 129.157,-91.624 129.289,-84.6252"/>
</g>
<!-- Node5 -->
<g id="node5" class="node"><title>Node5</title>
<g id="a_node5"><a xlink:href="classsoftwarecontainer_1_1_gateway.html#a77348e5ce86b82302764b10e3203b42c" target="_top" xlink:title="Execute the given command in the container. ">
<polygon fill="white" stroke="black" points="164.5,-49.5 164.5,-79.5 310.5,-79.5 310.5,-49.5 164.5,-49.5"/>
<text text-anchor="start" x="172.5" y="-67.5" font-family="Helvetica,sans-Serif" font-size="10.00">softwarecontainer::</text>
<text text-anchor="middle" x="237.5" y="-56.5" font-family="Helvetica,sans-Serif" font-size="10.00">Gateway::executeInContainer</text>
</a>
</g>
</g>
<!-- Node1&#45;&gt;Node5 -->
<g id="edge4" class="edge"><title>Node1&#45;&gt;Node5</title>
<path fill="none" stroke="midnightblue" d="M129.124,-77.9219C140.687,-76.4766 152.72,-74.9725 164.369,-73.5164"/>
<polygon fill="midnightblue" stroke="midnightblue" points="128.594,-74.4609 119.105,-79.1743 129.462,-81.4069 128.594,-74.4609"/>
</g>
<!-- Node6 -->
<g id="node6" class="node"><title>Node6</title>
<g id="a_node6"><a xlink:href="classsoftwarecontainer_1_1_gateway.html#a828b2dfa811c7fcce82d34b502e65112" target="_top" xlink:title="Set an environment variable in the associated container. ">
<polygon fill="white" stroke="black" points="155,-0.5 155,-30.5 320,-30.5 320,-0.5 155,-0.5"/>
<text text-anchor="start" x="163" y="-18.5" font-family="Helvetica,sans-Serif" font-size="10.00">softwarecontainer::</text>
<text text-anchor="middle" x="237.5" y="-7.5" font-family="Helvetica,sans-Serif" font-size="10.00">Gateway::setEnvironmentVariable</text>
</a>
</g>
</g>
<!-- Node1&#45;&gt;Node6 -->
<g id="edge6" class="edge"><title>Node1&#45;&gt;Node6</title>
<path fill="none" stroke="midnightblue" d="M96.8048,-66.5765C114.105,-57.5699 135.283,-47.2373 155,-39.5 163.101,-36.321 171.797,-33.3325 180.383,-30.6156"/>
<polygon fill="midnightblue" stroke="midnightblue" points="94.838,-63.6569 87.6267,-71.4189 98.1044,-69.8481 94.838,-63.6569"/>
</g>
<!-- Node3 -->
<g id="node3" class="node"><title>Node3</title>
<g id="a_node3"><a xlink:href="class_d_bus_gateway.html#af46946bb52d1b9b6a2ec77df3df2e3e0" target="_top" xlink:title="Activates both dbus session instances. ">
<polygon fill="white" stroke="black" points="362,-143 362,-162 483,-162 483,-143 362,-143"/>
<text text-anchor="middle" x="422.5" y="-150" font-family="Helvetica,sans-Serif" font-size="10.00">DBusGateway::activate</text>
</a>
</g>
</g>
<!-- Node2&#45;&gt;Node3 -->
<g id="edge2" class="edge"><title>Node2&#45;&gt;Node3</title>
<path fill="none" stroke="midnightblue" d="M297.717,-152.5C318.264,-152.5 341.301,-152.5 361.88,-152.5"/>
<polygon fill="midnightblue" stroke="midnightblue" points="297.541,-149 287.541,-152.5 297.541,-156 297.541,-149"/>
</g>
<!-- Node5&#45;&gt;Node4 -->
<g id="edge5" class="edge"><title>Node5&#45;&gt;Node4</title>
<path fill="none" stroke="midnightblue" d="M320.785,-74.3921C332.497,-75.8002 344.413,-77.2327 355.754,-78.5962"/>
<polygon fill="midnightblue" stroke="midnightblue" points="320.91,-70.8821 310.564,-73.1634 320.074,-77.8321 320.91,-70.8821"/>
</g>
<!-- Node7 -->
<g id="node7" class="node"><title>Node7</title>
<g id="a_node7"><a xlink:href="class_d_bus_gateway_instance.html#af0c68c68bda6b051a4f3feecb5749be4" target="_top" xlink:title="Implements Gateway::activateGateway. ">
<polygon fill="white" stroke="black" points="363.5,-0.5 363.5,-30.5 481.5,-30.5 481.5,-0.5 363.5,-0.5"/>
<text text-anchor="start" x="371.5" y="-18.5" font-family="Helvetica,sans-Serif" font-size="10.00">DBusGatewayInstance</text>
<text text-anchor="middle" x="422.5" y="-7.5" font-family="Helvetica,sans-Serif" font-size="10.00">::activateGateway</text>
</a>
</g>
</g>
<!-- Node6&#45;&gt;Node7 -->
<g id="edge7" class="edge"><title>Node6&#45;&gt;Node7</title>
<path fill="none" stroke="midnightblue" d="M330.389,-15.5C341.612,-15.5 352.828,-15.5 363.36,-15.5"/>
<polygon fill="midnightblue" stroke="midnightblue" points="330.099,-12.0001 320.099,-15.5 330.099,-19.0001 330.099,-12.0001"/>
</g>
</g>
</svg>
