<?xml version="1.0" encoding="UTF-8" standalone="no"?>
<!DOCTYPE svg PUBLIC "-//W3C//DTD SVG 1.1//EN"
 "http://www.w3.org/Graphics/SVG/1.1/DTD/svg11.dtd">
<!-- Generated by graphviz version 2.38.0 (20140413.2041)
 -->
<!-- Title: Gateway::id Pages: 1 -->
<svg width="217pt" height="104pt"
 viewBox="0.00 0.00 217.00 104.00" xmlns="http://www.w3.org/2000/svg" xmlns:xlink="http://www.w3.org/1999/xlink">
<g id="graph0" class="graph" transform="scale(1 1) rotate(0) translate(4 100)">
<title>Gateway::id</title>
<polygon fill="white" stroke="none" points="-4,4 -4,-100 213,-100 213,4 -4,4"/>
<!-- Node1 -->
<g id="node1" class="node"><title>Node1</title>
<polygon fill="#bfbfbf" stroke="black" points="0,-38.5 0,-57.5 69,-57.5 69,-38.5 0,-38.5"/>
<text text-anchor="middle" x="34.5" y="-45.5" font-family="Helvetica,sans-Serif" font-size="10.00">Gateway::id</text>
</g>
<!-- Node2 -->
<g id="node2" class="node"><title>Node2</title>
<g id="a_node2"><a xlink:href="class_gateway.html#a3d23a057d7039df33dd5ed47302f0d58" target="_top" xlink:title="Applies any configuration set by setConfig() ">
<polygon fill="white" stroke="black" points="109,-76.5 109,-95.5 205,-95.5 205,-76.5 109,-76.5"/>
<text text-anchor="middle" x="157" y="-83.5" font-family="Helvetica,sans-Serif" font-size="10.00">Gateway::activate</text>
</a>
</g>
</g>
<!-- Node1&#45;&gt;Node2 -->
<g id="edge1" class="edge"><title>Node1&#45;&gt;Node2</title>
<path fill="none" stroke="midnightblue" d="M75.7103,-60.6804C91.9918,-65.8148 110.477,-71.6441 125.602,-76.4141"/>
<polygon fill="midnightblue" stroke="midnightblue" points="76.4969,-57.2586 65.9072,-57.589 74.3916,-63.9346 76.4969,-57.2586"/>
</g>
<!-- Node3 -->
<g id="node3" class="node"><title>Node3</title>
<g id="a_node3"><a xlink:href="class_gateway.html#a2efaba5ff6bfb28015d073cdb8276fdd" target="_top" xlink:title="Configure this gateway according to the supplied JSON configuration string. ">
<polygon fill="white" stroke="black" points="105,-38.5 105,-57.5 209,-57.5 209,-38.5 105,-38.5"/>
<text text-anchor="middle" x="157" y="-45.5" font-family="Helvetica,sans-Serif" font-size="10.00">Gateway::setConfig</text>
</a>
</g>
</g>
<!-- Node1&#45;&gt;Node3 -->
<g id="edge2" class="edge"><title>Node1&#45;&gt;Node3</title>
<path fill="none" stroke="midnightblue" d="M79.2074,-48C87.4431,-48 96.1259,-48 104.572,-48"/>
<polygon fill="midnightblue" stroke="midnightblue" points="79.066,-44.5001 69.066,-48 79.0659,-51.5001 79.066,-44.5001"/>
</g>
<!-- Node4 -->
<g id="node4" class="node"><title>Node4</title>
<g id="a_node4"><a xlink:href="class_gateway.html#adf9b62b6a7097bce5d2eeb8f34d1a407" target="_top" xlink:title="Restore system to the state prior to launching of gateway. ">
<polygon fill="white" stroke="black" points="106.5,-0.5 106.5,-19.5 207.5,-19.5 207.5,-0.5 106.5,-0.5"/>
<text text-anchor="middle" x="157" y="-7.5" font-family="Helvetica,sans-Serif" font-size="10.00">Gateway::teardown</text>
</a>
</g>
</g>
<!-- Node1&#45;&gt;Node4 -->
<g id="edge3" class="edge"><title>Node1&#45;&gt;Node4</title>
<path fill="none" stroke="midnightblue" d="M75.7103,-35.3196C91.9918,-30.1852 110.477,-24.3559 125.602,-19.5859"/>
<polygon fill="midnightblue" stroke="midnightblue" points="74.3916,-32.0654 65.9072,-38.411 76.4969,-38.7414 74.3916,-32.0654"/>
</g>
</g>
</svg>
