<?xml version="1.0" encoding="UTF-8" standalone="no"?>
<!DOCTYPE svg PUBLIC "-//W3C//DTD SVG 1.1//EN"
 "http://www.w3.org/Graphics/SVG/1.1/DTD/svg11.dtd">
<!-- Generated by graphviz version 2.38.0 (20140413.2041)
 -->
<!-- Title: DBusCppAdaptor Pages: 1 -->
<svg width="684pt" height="130pt"
 viewBox="0.00 0.00 684.00 129.50" xmlns="http://www.w3.org/2000/svg" xmlns:xlink="http://www.w3.org/1999/xlink">
<g id="graph0" class="graph" transform="scale(1 1) rotate(0) translate(4 125.5)">
<title>DBusCppAdaptor</title>
<polygon fill="white" stroke="none" points="-4,4 -4,-125.5 680,-125.5 680,4 -4,4"/>
<!-- Node1 -->
<g id="node1" class="node"><title>Node1</title>
<polygon fill="#bfbfbf" stroke="black" points="577,-38.5 577,-57.5 676,-57.5 676,-38.5 577,-38.5"/>
<text text-anchor="middle" x="626.5" y="-45.5" font-family="Helvetica,sans-Serif" font-size="10.00">DBusCppAdaptor</text>
</g>
<!-- Node2 -->
<g id="node2" class="node"><title>Node2</title>
<g id="a_node2"><a xlink:href="classsoftwarecontainer_1_1_software_container_agent_adaptor.html" target="_top" xlink:title="softwarecontainer::\lSoftwareContainerAgentAdaptor">
<polygon fill="white" stroke="black" points="368,-77 368,-107 540,-107 540,-77 368,-77"/>
<text text-anchor="start" x="376" y="-95" font-family="Helvetica,sans-Serif" font-size="10.00">softwarecontainer::</text>
<text text-anchor="middle" x="454" y="-84" font-family="Helvetica,sans-Serif" font-size="10.00">SoftwareContainerAgentAdaptor</text>
</a>
</g>
</g>
<!-- Node2&#45;&gt;Node1 -->
<g id="edge1" class="edge"><title>Node2&#45;&gt;Node1</title>
<path fill="none" stroke="midnightblue" d="M523.013,-74.4482C545.412,-68.668 569.467,-62.4602 588.639,-57.5124"/>
<polygon fill="midnightblue" stroke="midnightblue" points="522.008,-71.0929 513.2,-76.9808 523.757,-77.8709 522.008,-71.0929"/>
</g>
<!-- Node3 -->
<g id="node3" class="node"><title>Node3</title>
<polygon fill="white" stroke="#bfbfbf" points="145,-91 145,-121 286,-121 286,-91 145,-91"/>
<text text-anchor="start" x="153" y="-109" font-family="Helvetica,sans-Serif" font-size="10.00">com::pelagicore::Software</text>
<text text-anchor="middle" x="215.5" y="-98" font-family="Helvetica,sans-Serif" font-size="10.00">ContainerAgent_adaptor</text>
</g>
<!-- Node3&#45;&gt;Node2 -->
<g id="edge2" class="edge"><title>Node3&#45;&gt;Node2</title>
<path fill="none" stroke="midnightblue" d="M296.255,-101.279C319.306,-99.9142 344.548,-98.42 367.91,-97.037"/>
<polygon fill="midnightblue" stroke="midnightblue" points="295.954,-97.7904 286.179,-101.875 296.368,-104.778 295.954,-97.7904"/>
</g>
<!-- Node4 -->
<g id="node4" class="node"><title>Node4</title>
<g id="a_node4"><a xlink:href="classsoftwarecontainer_1_1_software_container_agent.html" target="_top" xlink:title="A wrapper class. ">
<polygon fill="white" stroke="black" points="148.5,-42 148.5,-72 282.5,-72 282.5,-42 148.5,-42"/>
<text text-anchor="start" x="156.5" y="-60" font-family="Helvetica,sans-Serif" font-size="10.00">softwarecontainer::</text>
<text text-anchor="middle" x="215.5" y="-49" font-family="Helvetica,sans-Serif" font-size="10.00">SoftwareContainerAgent</text>
</a>
</g>
</g>
<!-- Node4&#45;&gt;Node2 -->
<g id="edge3" class="edge"><title>Node4&#45;&gt;Node2</title>
<path fill="none" stroke="#9a32cd" stroke-dasharray="5,2" d="M292.772,-68.2876C316.697,-71.8283 343.257,-75.759 367.761,-79.3854"/>
<polygon fill="#9a32cd" stroke="#9a32cd" points="293.098,-64.7978 282.693,-66.796 292.073,-71.7223 293.098,-64.7978"/>
<text text-anchor="middle" x="327" y="-80" font-family="Helvetica,sans-Serif" font-size="10.00"> m_agent</text>
</g>
<!-- Node5 -->
<g id="node5" class="node"><title>Node5</title>
<g id="a_node5"><a xlink:href="classsoftwarecontainer_1_1_j_s_o_n_parser.html" target="_top" xlink:title="Convenience layer for the Jansson JSON parser. ">
<polygon fill="white" stroke="black" points="0,-42 0,-72 108,-72 108,-42 0,-42"/>
<text text-anchor="start" x="8" y="-60" font-family="Helvetica,sans-Serif" font-size="10.00">softwarecontainer::</text>
<text text-anchor="middle" x="54" y="-49" font-family="Helvetica,sans-Serif" font-size="10.00">JSONParser</text>
</a>
</g>
</g>
<!-- Node5&#45;&gt;Node4 -->
<g id="edge4" class="edge"><title>Node5&#45;&gt;Node4</title>
<path fill="none" stroke="darkgreen" d="M118.246,-57C128.119,-57 138.345,-57 148.283,-57"/>
<polygon fill="darkgreen" stroke="darkgreen" points="118.111,-53.5001 108.111,-57 118.111,-60.5001 118.111,-53.5001"/>
</g>
<!-- Node6 -->
<g id="node6" class="node"><title>Node6</title>
<polygon fill="white" stroke="#bfbfbf" points="376.5,-38.5 376.5,-57.5 531.5,-57.5 531.5,-38.5 376.5,-38.5"/>
<text text-anchor="middle" x="454" y="-45.5" font-family="Helvetica,sans-Serif" font-size="10.00">DBus::IntrospectableAdaptor</text>
</g>
<!-- Node6&#45;&gt;Node1 -->
<g id="edge5" class="edge"><title>Node6&#45;&gt;Node1</title>
<path fill="none" stroke="midnightblue" d="M541.896,-48C553.962,-48 565.985,-48 576.996,-48"/>
<polygon fill="midnightblue" stroke="midnightblue" points="541.771,-44.5001 531.771,-48 541.771,-51.5001 541.771,-44.5001"/>
</g>
<!-- Node7 -->
<g id="node7" class="node"><title>Node7</title>
<polygon fill="white" stroke="#bfbfbf" points="395.5,-0.5 395.5,-19.5 512.5,-19.5 512.5,-0.5 395.5,-0.5"/>
<text text-anchor="middle" x="454" y="-7.5" font-family="Helvetica,sans-Serif" font-size="10.00">DBus::ObjectAdaptor</text>
</g>
<!-- Node7&#45;&gt;Node1 -->
<g id="edge6" class="edge"><title>Node7&#45;&gt;Node1</title>
<path fill="none" stroke="midnightblue" d="M508.054,-21.8243C532.091,-27.1816 560.132,-33.4311 582.785,-38.4799"/>
<polygon fill="midnightblue" stroke="midnightblue" points="508.546,-18.3483 498.024,-19.589 507.023,-25.1806 508.546,-18.3483"/>
</g>
</g>
</svg>
