<?xml version="1.0" encoding="UTF-8" standalone="no"?>
<!DOCTYPE svg PUBLIC "-//W3C//DTD SVG 1.1//EN"
 "http://www.w3.org/Graphics/SVG/1.1/DTD/svg11.dtd">
<!-- Generated by graphviz version 2.38.0 (20140413.2041)
 -->
<!-- Title: softwarecontainer::SoftwareContainerError Pages: 1 -->
<svg width="591pt" height="823pt"
 viewBox="0.00 0.00 591.00 823.00" xmlns="http://www.w3.org/2000/svg" xmlns:xlink="http://www.w3.org/1999/xlink">
<g id="graph0" class="graph" transform="scale(1 1) rotate(0) translate(4 819)">
<title>softwarecontainer::SoftwareContainerError</title>
<polygon fill="white" stroke="none" points="-4,4 -4,-819 587,-819 587,4 -4,4"/>
<!-- Node1 -->
<g id="node1" class="node"><title>Node1</title>
<polygon fill="#bfbfbf" stroke="black" points="114,-220.5 114,-250.5 233,-250.5 233,-220.5 114,-220.5"/>
<text text-anchor="start" x="122" y="-238.5" font-family="Helvetica,sans-Serif" font-size="10.00">softwarecontainer::</text>
<text text-anchor="middle" x="173.5" y="-227.5" font-family="Helvetica,sans-Serif" font-size="10.00">SoftwareContainerError</text>
</g>
<!-- Node3 -->
<g id="node3" class="node"><title>Node3</title>
<g id="a_node3"><a xlink:href="classsoftwarecontainer_1_1_cgroups_gateway_error.html" target="_top" xlink:title="softwarecontainer::\lCgroupsGatewayError">
<polygon fill="white" stroke="black" points="284.5,-710.5 284.5,-740.5 397.5,-740.5 397.5,-710.5 284.5,-710.5"/>
<text text-anchor="start" x="292.5" y="-728.5" font-family="Helvetica,sans-Serif" font-size="10.00">softwarecontainer::</text>
<text text-anchor="middle" x="341" y="-717.5" font-family="Helvetica,sans-Serif" font-size="10.00">CgroupsGatewayError</text>
</a>
</g>
</g>
<!-- Node1&#45;&gt;Node3 -->
<g id="edge2" class="edge"><title>Node1&#45;&gt;Node3</title>
<path fill="none" stroke="midnightblue" d="M182.116,-260.404C197.771,-311.331 234.956,-430.977 269,-530.5 292.089,-597.996 321.935,-677.734 334.273,-710.401"/>
<polygon fill="midnightblue" stroke="midnightblue" points="185.391,-259.145 179.112,-250.612 178.699,-261.199 185.391,-259.145"/>
</g>
<!-- Node7 -->
<g id="node7" class="node"><title>Node7</title>
<g id="a_node7"><a xlink:href="classsoftwarecontainer_1_1_config_error.html" target="_top" xlink:title="softwarecontainer::\lConfigError">
<polygon fill="white" stroke="black" points="291,-490.5 291,-520.5 391,-520.5 391,-490.5 291,-490.5"/>
<text text-anchor="start" x="299" y="-508.5" font-family="Helvetica,sans-Serif" font-size="10.00">softwarecontainer::</text>
<text text-anchor="middle" x="341" y="-497.5" font-family="Helvetica,sans-Serif" font-size="10.00">ConfigError</text>
</a>
</g>
</g>
<!-- Node1&#45;&gt;Node7 -->
<g id="edge6" class="edge"><title>Node1&#45;&gt;Node7</title>
<path fill="none" stroke="midnightblue" d="M189.167,-259.427C222.529,-313.856 303.327,-445.671 330.731,-490.378"/>
<polygon fill="midnightblue" stroke="midnightblue" points="192.082,-257.487 183.872,-250.79 186.114,-261.145 192.082,-257.487"/>
</g>
<!-- Node14 -->
<g id="node14" class="node"><title>Node14</title>
<g id="a_node14"><a xlink:href="classsoftwarecontainer_1_1_config_store_error.html" target="_top" xlink:title="softwarecontainer::\lConfigStoreError">
<polygon fill="white" stroke="black" points="291,-343.5 291,-373.5 391,-373.5 391,-343.5 291,-343.5"/>
<text text-anchor="start" x="299" y="-361.5" font-family="Helvetica,sans-Serif" font-size="10.00">softwarecontainer::</text>
<text text-anchor="middle" x="341" y="-350.5" font-family="Helvetica,sans-Serif" font-size="10.00">ConfigStoreError</text>
</a>
</g>
</g>
<!-- Node1&#45;&gt;Node14 -->
<g id="edge13" class="edge"><title>Node1&#45;&gt;Node14</title>
<path fill="none" stroke="midnightblue" d="M191.516,-259.037C208.754,-281.334 237.334,-314.323 269,-334.5 275.694,-338.765 283.229,-342.36 290.824,-345.363"/>
<polygon fill="midnightblue" stroke="midnightblue" points="194.093,-256.643 185.27,-250.778 188.51,-260.866 194.093,-256.643"/>
</g>
<!-- Node18 -->
<g id="node18" class="node"><title>Node18</title>
<g id="a_node18"><a xlink:href="classsoftwarecontainer_1_1_container_error.html" target="_top" xlink:title="An error has occured in the underlying container implementation. ">
<polygon fill="white" stroke="black" points="291,-294.5 291,-324.5 391,-324.5 391,-294.5 291,-294.5"/>
<text text-anchor="start" x="299" y="-312.5" font-family="Helvetica,sans-Serif" font-size="10.00">softwarecontainer::</text>
<text text-anchor="middle" x="341" y="-301.5" font-family="Helvetica,sans-Serif" font-size="10.00">ContainerError</text>
</a>
</g>
</g>
<!-- Node1&#45;&gt;Node18 -->
<g id="edge17" class="edge"><title>Node1&#45;&gt;Node18</title>
<path fill="none" stroke="midnightblue" d="M209.196,-255.578C226.784,-265.311 248.673,-276.754 269,-285.5 276.291,-288.637 284.138,-291.642 291.863,-294.399"/>
<polygon fill="midnightblue" stroke="midnightblue" points="210.858,-252.498 200.422,-250.669 207.439,-258.606 210.858,-252.498"/>
</g>
<!-- Node19 -->
<g id="node19" class="node"><title>Node19</title>
<g id="a_node19"><a xlink:href="classsoftwarecontainer_1_1_container_option_parse_error.html" target="_top" xlink:title="softwarecontainer::\lContainerOptionParseError">
<polygon fill="white" stroke="black" points="274,-245.5 274,-275.5 408,-275.5 408,-245.5 274,-245.5"/>
<text text-anchor="start" x="282" y="-263.5" font-family="Helvetica,sans-Serif" font-size="10.00">softwarecontainer::</text>
<text text-anchor="middle" x="341" y="-252.5" font-family="Helvetica,sans-Serif" font-size="10.00">ContainerOptionParseError</text>
</a>
</g>
</g>
<!-- Node1&#45;&gt;Node19 -->
<g id="edge18" class="edge"><title>Node1&#45;&gt;Node19</title>
<path fill="none" stroke="midnightblue" d="M243.281,-245.89C253.366,-247.413 263.735,-248.98 273.767,-250.495"/>
<polygon fill="midnightblue" stroke="midnightblue" points="243.726,-242.417 233.315,-244.384 242.68,-249.339 243.726,-242.417"/>
</g>
<!-- Node20 -->
<g id="node20" class="node"><title>Node20</title>
<g id="a_node20"><a xlink:href="classsoftwarecontainer_1_1_gateway_error.html" target="_top" xlink:title="softwarecontainer::\lGatewayError">
<polygon fill="white" stroke="black" points="291,-196.5 291,-226.5 391,-226.5 391,-196.5 291,-196.5"/>
<text text-anchor="start" x="299" y="-214.5" font-family="Helvetica,sans-Serif" font-size="10.00">softwarecontainer::</text>
<text text-anchor="middle" x="341" y="-203.5" font-family="Helvetica,sans-Serif" font-size="10.00">GatewayError</text>
</a>
</g>
</g>
<!-- Node1&#45;&gt;Node20 -->
<g id="edge19" class="edge"><title>Node1&#45;&gt;Node20</title>
<path fill="none" stroke="midnightblue" d="M243.632,-225.475C259.522,-223.17 276.101,-220.766 290.938,-218.615"/>
<polygon fill="midnightblue" stroke="midnightblue" points="242.709,-222.072 233.315,-226.971 243.714,-228.999 242.709,-222.072"/>
</g>
<!-- Node21 -->
<g id="node21" class="node"><title>Node21</title>
<g id="a_node21"><a xlink:href="classsoftwarecontainer_1_1_invalid_container_error.html" target="_top" xlink:title="The container instance is in an invalid state and should not be used. ">
<polygon fill="white" stroke="black" points="287,-147.5 287,-177.5 395,-177.5 395,-147.5 287,-147.5"/>
<text text-anchor="start" x="295" y="-165.5" font-family="Helvetica,sans-Serif" font-size="10.00">softwarecontainer::</text>
<text text-anchor="middle" x="341" y="-154.5" font-family="Helvetica,sans-Serif" font-size="10.00">InvalidContainerError</text>
</a>
</g>
</g>
<!-- Node1&#45;&gt;Node21 -->
<g id="edge20" class="edge"><title>Node1&#45;&gt;Node21</title>
<path fill="none" stroke="midnightblue" d="M210.102,-215.403C227.551,-205.978 249.055,-194.983 269,-186.5 276.424,-183.342 284.416,-180.307 292.266,-177.519"/>
<polygon fill="midnightblue" stroke="midnightblue" points="207.959,-212.585 200.861,-220.451 211.315,-218.728 207.959,-212.585"/>
</g>
<!-- Node22 -->
<g id="node22" class="node"><title>Node22</title>
<g id="a_node22"><a xlink:href="classsoftwarecontainer_1_1_invalid_operation_error.html" target="_top" xlink:title="A method was called which is inappropriate in the current state. ">
<polygon fill="white" stroke="black" points="287,-98.5 287,-128.5 395,-128.5 395,-98.5 287,-98.5"/>
<text text-anchor="start" x="295" y="-116.5" font-family="Helvetica,sans-Serif" font-size="10.00">softwarecontainer::</text>
<text text-anchor="middle" x="341" y="-105.5" font-family="Helvetica,sans-Serif" font-size="10.00">InvalidOperationError</text>
</a>
</g>
</g>
<!-- Node1&#45;&gt;Node22 -->
<g id="edge21" class="edge"><title>Node1&#45;&gt;Node22</title>
<path fill="none" stroke="midnightblue" d="M191.567,-212.208C208.843,-190.143 237.45,-157.49 269,-137.5 274.495,-134.018 280.553,-130.981 286.743,-128.347"/>
<polygon fill="midnightblue" stroke="midnightblue" points="188.609,-210.314 185.306,-220.381 194.165,-214.571 188.609,-210.314"/>
</g>
<!-- Node23 -->
<g id="node23" class="node"><title>Node23</title>
<g id="a_node23"><a xlink:href="classsoftwarecontainer_1_1_network_gateway_error.html" target="_top" xlink:title="softwarecontainer::\lNetworkGatewayError">
<polygon fill="white" stroke="black" points="284.5,-49.5 284.5,-79.5 397.5,-79.5 397.5,-49.5 284.5,-49.5"/>
<text text-anchor="start" x="292.5" y="-67.5" font-family="Helvetica,sans-Serif" font-size="10.00">softwarecontainer::</text>
<text text-anchor="middle" x="341" y="-56.5" font-family="Helvetica,sans-Serif" font-size="10.00">NetworkGatewayError</text>
</a>
</g>
</g>
<!-- Node1&#45;&gt;Node23 -->
<g id="edge22" class="edge"><title>Node1&#45;&gt;Node23</title>
<path fill="none" stroke="midnightblue" d="M184.13,-210.927C198.087,-178.392 226.95,-121.318 269,-88.5 273.616,-84.8975 278.803,-81.82 284.217,-79.1941"/>
<polygon fill="midnightblue" stroke="midnightblue" points="180.889,-209.605 180.279,-220.182 187.352,-212.294 180.889,-209.605"/>
</g>
<!-- Node25 -->
<g id="node25" class="node"><title>Node25</title>
<g id="a_node25"><a xlink:href="classsoftwarecontainer_1_1_software_container_agent_error.html" target="_top" xlink:title="An error occured in SoftwareContainerAgent. ">
<polygon fill="white" stroke="black" points="269,-0.5 269,-30.5 413,-30.5 413,-0.5 269,-0.5"/>
<text text-anchor="start" x="277" y="-18.5" font-family="Helvetica,sans-Serif" font-size="10.00">softwarecontainer::</text>
<text text-anchor="middle" x="341" y="-7.5" font-family="Helvetica,sans-Serif" font-size="10.00">SoftwareContainerAgentError</text>
</a>
</g>
</g>
<!-- Node1&#45;&gt;Node25 -->
<g id="edge24" class="edge"><title>Node1&#45;&gt;Node25</title>
<path fill="none" stroke="midnightblue" d="M179.9,-210.484C190.113,-169.072 216.139,-86.2151 269,-39.5 272.9,-36.0535 277.315,-33.0981 281.988,-30.5644"/>
<polygon fill="midnightblue" stroke="midnightblue" points="176.473,-209.769 177.585,-220.305 183.286,-211.375 176.473,-209.769"/>
</g>
<!-- Node2 -->
<g id="node2" class="node"><title>Node2</title>
<polygon fill="white" stroke="#bfbfbf" points="0,-226 0,-245 78,-245 78,-226 0,-226"/>
<text text-anchor="middle" x="39" y="-233" font-family="Helvetica,sans-Serif" font-size="10.00">std::exception</text>
</g>
<!-- Node2&#45;&gt;Node1 -->
<g id="edge1" class="edge"><title>Node2&#45;&gt;Node1</title>
<path fill="none" stroke="midnightblue" d="M88.4181,-235.5C96.5843,-235.5 105.141,-235.5 113.54,-235.5"/>
<polygon fill="midnightblue" stroke="midnightblue" points="88.3245,-232 78.3245,-235.5 88.3245,-239 88.3245,-232"/>
</g>
<!-- Node4 -->
<g id="node4" class="node"><title>Node4</title>
<g id="a_node4"><a xlink:href="classsoftwarecontainer_1_1_bad_suffix_error.html" target="_top" xlink:title="softwarecontainer::\lBadSuffixError">
<polygon fill="white" stroke="black" points="466,-784.5 466,-814.5 566,-814.5 566,-784.5 466,-784.5"/>
<text text-anchor="start" x="474" y="-802.5" font-family="Helvetica,sans-Serif" font-size="10.00">softwarecontainer::</text>
<text text-anchor="middle" x="516" y="-791.5" font-family="Helvetica,sans-Serif" font-size="10.00">BadSuffixError</text>
</a>
</g>
</g>
<!-- Node3&#45;&gt;Node4 -->
<g id="edge3" class="edge"><title>Node3&#45;&gt;Node4</title>
<path fill="none" stroke="midnightblue" d="M381.7,-745.073C401.699,-754.67 426.434,-766.146 449,-775.5 456.321,-778.535 464.179,-781.576 471.83,-784.424"/>
<polygon fill="midnightblue" stroke="midnightblue" points="383.109,-741.866 372.582,-740.67 380.065,-748.17 383.109,-741.866"/>
</g>
<!-- Node5 -->
<g id="node5" class="node"><title>Node5</title>
<g id="a_node5"><a xlink:href="classsoftwarecontainer_1_1_j_son_error.html" target="_top" xlink:title="softwarecontainer::\lJSonError">
<polygon fill="white" stroke="black" points="466,-735.5 466,-765.5 566,-765.5 566,-735.5 466,-735.5"/>
<text text-anchor="start" x="474" y="-753.5" font-family="Helvetica,sans-Serif" font-size="10.00">softwarecontainer::</text>
<text text-anchor="middle" x="516" y="-742.5" font-family="Helvetica,sans-Serif" font-size="10.00">JSonError</text>
</a>
</g>
</g>
<!-- Node3&#45;&gt;Node5 -->
<g id="edge4" class="edge"><title>Node3&#45;&gt;Node5</title>
<path fill="none" stroke="midnightblue" d="M407.634,-734.985C426.949,-737.776 447.74,-740.78 465.834,-743.395"/>
<polygon fill="midnightblue" stroke="midnightblue" points="408.088,-731.514 397.691,-733.548 407.087,-738.442 408.088,-731.514"/>
</g>
<!-- Node6 -->
<g id="node6" class="node"><title>Node6</title>
<g id="a_node6"><a xlink:href="classsoftwarecontainer_1_1_limit_range_error.html" target="_top" xlink:title="softwarecontainer::\lLimitRangeError">
<polygon fill="white" stroke="black" points="466,-686.5 466,-716.5 566,-716.5 566,-686.5 466,-686.5"/>
<text text-anchor="start" x="474" y="-704.5" font-family="Helvetica,sans-Serif" font-size="10.00">softwarecontainer::</text>
<text text-anchor="middle" x="516" y="-693.5" font-family="Helvetica,sans-Serif" font-size="10.00">LimitRangeError</text>
</a>
</g>
</g>
<!-- Node3&#45;&gt;Node6 -->
<g id="edge5" class="edge"><title>Node3&#45;&gt;Node6</title>
<path fill="none" stroke="midnightblue" d="M407.634,-716.395C426.949,-713.715 447.74,-710.831 465.834,-708.321"/>
<polygon fill="midnightblue" stroke="midnightblue" points="407.115,-712.933 397.691,-717.774 408.077,-719.867 407.115,-712.933"/>
</g>
<!-- Node8 -->
<g id="node8" class="node"><title>Node8</title>
<g id="a_node8"><a xlink:href="classsoftwarecontainer_1_1_config_dependency_error.html" target="_top" xlink:title="softwarecontainer::\lConfigDependencyError">
<polygon fill="white" stroke="black" points="455.5,-637.5 455.5,-667.5 576.5,-667.5 576.5,-637.5 455.5,-637.5"/>
<text text-anchor="start" x="463.5" y="-655.5" font-family="Helvetica,sans-Serif" font-size="10.00">softwarecontainer::</text>
<text text-anchor="middle" x="516" y="-644.5" font-family="Helvetica,sans-Serif" font-size="10.00">ConfigDependencyError</text>
</a>
</g>
</g>
<!-- Node7&#45;&gt;Node8 -->
<g id="edge7" class="edge"><title>Node7&#45;&gt;Node8</title>
<path fill="none" stroke="midnightblue" d="M357.043,-529.125C375.607,-556.54 409.593,-601.435 449,-628.5 453.925,-631.882 459.382,-634.849 464.988,-637.435"/>
<polygon fill="midnightblue" stroke="midnightblue" points="359.799,-526.947 351.354,-520.549 353.966,-530.816 359.799,-526.947"/>
</g>
<!-- Node9 -->
<g id="node9" class="node"><title>Node9</title>
<g id="a_node9"><a xlink:href="classsoftwarecontainer_1_1_config_file_error.html" target="_top" xlink:title="An error occured in a Glib operation. ">
<polygon fill="white" stroke="black" points="466,-588.5 466,-618.5 566,-618.5 566,-588.5 466,-588.5"/>
<text text-anchor="start" x="474" y="-606.5" font-family="Helvetica,sans-Serif" font-size="10.00">softwarecontainer::</text>
<text text-anchor="middle" x="516" y="-595.5" font-family="Helvetica,sans-Serif" font-size="10.00">ConfigFileError</text>
</a>
</g>
</g>
<!-- Node7&#45;&gt;Node9 -->
<g id="edge8" class="edge"><title>Node7&#45;&gt;Node9</title>
<path fill="none" stroke="midnightblue" d="M368.868,-526.979C389.802,-542.98 420.077,-564.556 449,-579.5 455.283,-582.746 462.106,-585.753 468.903,-588.463"/>
<polygon fill="midnightblue" stroke="midnightblue" points="370.825,-524.068 360.775,-520.714 366.54,-529.603 370.825,-524.068"/>
</g>
<!-- Node10 -->
<g id="node10" class="node"><title>Node10</title>
<g id="a_node10"><a xlink:href="classsoftwarecontainer_1_1_config_internal_error.html" target="_top" xlink:title="An error occured which is an internal error in the config code. ">
<polygon fill="white" stroke="black" points="466,-539.5 466,-569.5 566,-569.5 566,-539.5 466,-539.5"/>
<text text-anchor="start" x="474" y="-557.5" font-family="Helvetica,sans-Serif" font-size="10.00">softwarecontainer::</text>
<text text-anchor="middle" x="516" y="-546.5" font-family="Helvetica,sans-Serif" font-size="10.00">ConfigInternalError</text>
</a>
</g>
</g>
<!-- Node7&#45;&gt;Node10 -->
<g id="edge9" class="edge"><title>Node7&#45;&gt;Node10</title>
<path fill="none" stroke="midnightblue" d="M400.93,-522.191C422.029,-528.167 445.572,-534.835 465.765,-540.555"/>
<polygon fill="midnightblue" stroke="midnightblue" points="401.687,-518.768 391.112,-519.41 399.78,-525.503 401.687,-518.768"/>
</g>
<!-- Node11 -->
<g id="node11" class="node"><title>Node11</title>
<g id="a_node11"><a xlink:href="classsoftwarecontainer_1_1_config_mandatory_error.html" target="_top" xlink:title="softwarecontainer::\lConfigMandatoryError">
<polygon fill="white" stroke="black" points="460,-490.5 460,-520.5 572,-520.5 572,-490.5 460,-490.5"/>
<text text-anchor="start" x="468" y="-508.5" font-family="Helvetica,sans-Serif" font-size="10.00">softwarecontainer::</text>
<text text-anchor="middle" x="516" y="-497.5" font-family="Helvetica,sans-Serif" font-size="10.00">ConfigMandatoryError</text>
</a>
</g>
</g>
<!-- Node7&#45;&gt;Node11 -->
<g id="edge10" class="edge"><title>Node7&#45;&gt;Node11</title>
<path fill="none" stroke="midnightblue" d="M401.168,-505.5C420.22,-505.5 441.243,-505.5 459.983,-505.5"/>
<polygon fill="midnightblue" stroke="midnightblue" points="401.112,-502 391.112,-505.5 401.112,-509 401.112,-502"/>
</g>
<!-- Node12 -->
<g id="node12" class="node"><title>Node12</title>
<g id="a_node12"><a xlink:href="classsoftwarecontainer_1_1_config_not_found_error.html" target="_top" xlink:title="A requested config item could not be found in any of the config sources. ">
<polygon fill="white" stroke="black" points="461.5,-441.5 461.5,-471.5 570.5,-471.5 570.5,-441.5 461.5,-441.5"/>
<text text-anchor="start" x="469.5" y="-459.5" font-family="Helvetica,sans-Serif" font-size="10.00">softwarecontainer::</text>
<text text-anchor="middle" x="516" y="-448.5" font-family="Helvetica,sans-Serif" font-size="10.00">ConfigNotFoundError</text>
</a>
</g>
</g>
<!-- Node7&#45;&gt;Node12 -->
<g id="edge11" class="edge"><title>Node7&#45;&gt;Node12</title>
<path fill="none" stroke="midnightblue" d="M400.914,-488.813C420.659,-483.221 442.547,-477.021 461.826,-471.561"/>
<polygon fill="midnightblue" stroke="midnightblue" points="399.78,-485.497 391.112,-491.59 401.687,-492.232 399.78,-485.497"/>
</g>
<!-- Node13 -->
<g id="node13" class="node"><title>Node13</title>
<g id="a_node13"><a xlink:href="classsoftwarecontainer_1_1_config_unknown_error.html" target="_top" xlink:title="A config is found which is not defined in ConfigDefinition. ">
<polygon fill="white" stroke="black" points="462.5,-392.5 462.5,-422.5 569.5,-422.5 569.5,-392.5 462.5,-392.5"/>
<text text-anchor="start" x="470.5" y="-410.5" font-family="Helvetica,sans-Serif" font-size="10.00">softwarecontainer::</text>
<text text-anchor="middle" x="516" y="-399.5" font-family="Helvetica,sans-Serif" font-size="10.00">ConfigUnknownError</text>
</a>
</g>
</g>
<!-- Node7&#45;&gt;Node13 -->
<g id="edge12" class="edge"><title>Node7&#45;&gt;Node13</title>
<path fill="none" stroke="midnightblue" d="M369.355,-484.159C390.327,-468.475 420.43,-447.388 449,-432.5 455.846,-428.933 463.319,-425.607 470.696,-422.62"/>
<polygon fill="midnightblue" stroke="midnightblue" points="367.096,-481.479 361.234,-490.304 371.32,-487.061 367.096,-481.479"/>
</g>
<!-- Node15 -->
<g id="node15" class="node"><title>Node15</title>
<g id="a_node15"><a xlink:href="classsoftwarecontainer_1_1_capability_parse_error.html" target="_top" xlink:title="An error occured in ConfigStore when parsing a Capability in a Service Manifest. ">
<polygon fill="white" stroke="black" points="462.5,-343.5 462.5,-373.5 569.5,-373.5 569.5,-343.5 462.5,-343.5"/>
<text text-anchor="start" x="470.5" y="-361.5" font-family="Helvetica,sans-Serif" font-size="10.00">softwarecontainer::</text>
<text text-anchor="middle" x="516" y="-350.5" font-family="Helvetica,sans-Serif" font-size="10.00">CapabilityParseError</text>
</a>
</g>
</g>
<!-- Node14&#45;&gt;Node15 -->
<g id="edge14" class="edge"><title>Node14&#45;&gt;Node15</title>
<path fill="none" stroke="midnightblue" d="M401.277,-358.5C421.137,-358.5 443.128,-358.5 462.437,-358.5"/>
<polygon fill="midnightblue" stroke="midnightblue" points="401.112,-355 391.112,-358.5 401.112,-362 401.112,-355"/>
</g>
<!-- Node16 -->
<g id="node16" class="node"><title>Node16</title>
<g id="a_node16"><a xlink:href="classsoftwarecontainer_1_1_service_manifest_parse_error.html" target="_top" xlink:title="An error occured in ConfigStore when parsing a Service Manifest. ">
<polygon fill="white" stroke="black" points="449,-294.5 449,-324.5 583,-324.5 583,-294.5 449,-294.5"/>
<text text-anchor="start" x="457" y="-312.5" font-family="Helvetica,sans-Serif" font-size="10.00">softwarecontainer::</text>
<text text-anchor="middle" x="516" y="-301.5" font-family="Helvetica,sans-Serif" font-size="10.00">ServiceManifestParseError</text>
</a>
</g>
</g>
<!-- Node14&#45;&gt;Node16 -->
<g id="edge15" class="edge"><title>Node14&#45;&gt;Node16</title>
<path fill="none" stroke="midnightblue" d="M400.914,-341.813C420.659,-336.221 442.547,-330.021 461.826,-324.561"/>
<polygon fill="midnightblue" stroke="midnightblue" points="399.78,-338.497 391.112,-344.59 401.687,-345.232 399.78,-338.497"/>
</g>
<!-- Node17 -->
<g id="node17" class="node"><title>Node17</title>
<g id="a_node17"><a xlink:href="classsoftwarecontainer_1_1_service_manifest_path_error.html" target="_top" xlink:title="An error occured in ConfigStore relating to the path to the Service Manifest(s) ">
<polygon fill="white" stroke="black" points="452,-245.5 452,-275.5 580,-275.5 580,-245.5 452,-245.5"/>
<text text-anchor="start" x="460" y="-263.5" font-family="Helvetica,sans-Serif" font-size="10.00">softwarecontainer::</text>
<text text-anchor="middle" x="516" y="-252.5" font-family="Helvetica,sans-Serif" font-size="10.00">ServiceManifestPathError</text>
</a>
</g>
</g>
<!-- Node14&#45;&gt;Node17 -->
<g id="edge16" class="edge"><title>Node14&#45;&gt;Node17</title>
<path fill="none" stroke="midnightblue" d="M400.516,-342.066C404.912,-339.839 409.134,-337.328 413,-334.5 434.811,-318.545 427.481,-301.846 449,-285.5 453.976,-281.72 459.589,-278.454 465.387,-275.647"/>
<polygon fill="midnightblue" stroke="midnightblue" points="398.965,-338.926 391.306,-346.247 401.859,-345.3 398.965,-338.926"/>
</g>
<!-- Node24 -->
<g id="node24" class="node"><title>Node24</title>
<g id="a_node24"><a xlink:href="classsoftwarecontainer_1_1_i_p_allocation_error.html" target="_top" xlink:title="softwarecontainer::\lIPAllocationError">
<polygon fill="white" stroke="black" points="466,-49.5 466,-79.5 566,-79.5 566,-49.5 466,-49.5"/>
<text text-anchor="start" x="474" y="-67.5" font-family="Helvetica,sans-Serif" font-size="10.00">softwarecontainer::</text>
<text text-anchor="middle" x="516" y="-56.5" font-family="Helvetica,sans-Serif" font-size="10.00">IPAllocationError</text>
</a>
</g>
</g>
<!-- Node23&#45;&gt;Node24 -->
<g id="edge23" class="edge"><title>Node23&#45;&gt;Node24</title>
<path fill="none" stroke="midnightblue" d="M407.9,-64.5C427.14,-64.5 447.823,-64.5 465.834,-64.5"/>
<polygon fill="midnightblue" stroke="midnightblue" points="407.691,-61.0001 397.691,-64.5 407.691,-68.0001 407.691,-61.0001"/>
</g>
</g>
</svg>
