<?xml version="1.0" encoding="UTF-8" standalone="no"?>
<!DOCTYPE svg PUBLIC "-//W3C//DTD SVG 1.1//EN"
 "http://www.w3.org/Graphics/SVG/1.1/DTD/svg11.dtd">
<!-- Generated by graphviz version 2.38.0 (20140413.2041)
 -->
<!-- Title: softwarecontainer::Workspace::Workspace Pages: 1 -->
<svg width="596pt" height="147pt"
 viewBox="0.00 0.00 596.00 147.00" xmlns="http://www.w3.org/2000/svg" xmlns:xlink="http://www.w3.org/1999/xlink">
<g id="graph0" class="graph" transform="scale(1 1) rotate(0) translate(4 143)">
<title>softwarecontainer::Workspace::Workspace</title>
<polygon fill="white" stroke="none" points="-4,4 -4,-143 592,-143 592,4 -4,4"/>
<!-- Node1 -->
<g id="node1" class="node"><title>Node1</title>
<polygon fill="#bfbfbf" stroke="black" points="0,-1.5 0,-31.5 122,-31.5 122,-1.5 0,-1.5"/>
<text text-anchor="start" x="8" y="-19.5" font-family="Helvetica,sans-Serif" font-size="10.00">softwarecontainer::</text>
<text text-anchor="middle" x="61" y="-8.5" font-family="Helvetica,sans-Serif" font-size="10.00">Workspace::Workspace</text>
</g>
<!-- Node2 -->
<g id="node2" class="node"><title>Node2</title>
<g id="a_node2"><a xlink:href="classsoftwarecontainer_1_1_workspace.html#af9be59382096de97cfab692bc5c89114" target="_top" xlink:title="Check if the workspace is present and create it if needed. ">
<polygon fill="white" stroke="black" points="158,-34.5 158,-64.5 306,-64.5 306,-34.5 158,-34.5"/>
<text text-anchor="start" x="166" y="-52.5" font-family="Helvetica,sans-Serif" font-size="10.00">softwarecontainer::</text>
<text text-anchor="middle" x="232" y="-41.5" font-family="Helvetica,sans-Serif" font-size="10.00">Workspace::checkWorkspace</text>
</a>
</g>
</g>
<!-- Node1&#45;&gt;Node2 -->
<g id="edge1" class="edge"><title>Node1&#45;&gt;Node2</title>
<path fill="none" stroke="midnightblue" d="M122.059,-28.2275C130.469,-29.8696 139.232,-31.5807 147.974,-33.2878"/>
<polygon fill="midnightblue" stroke="midnightblue" points="147.329,-36.728 157.815,-35.2094 148.671,-29.8577 147.329,-36.728"/>
</g>
<!-- Node4 -->
<g id="node4" class="node"><title>Node4</title>
<g id="a_node4"><a xlink:href="namespacesoftwarecontainer.html#a51a25e6a54b7bb79fc5b4ce8902a31a4" target="_top" xlink:title="isError Check if ReturnCode indicates Error or not ">
<polygon fill="white" stroke="black" points="485.5,-0.5 485.5,-30.5 585.5,-30.5 585.5,-0.5 485.5,-0.5"/>
<text text-anchor="start" x="493.5" y="-18.5" font-family="Helvetica,sans-Serif" font-size="10.00">softwarecontainer::</text>
<text text-anchor="middle" x="535.5" y="-7.5" font-family="Helvetica,sans-Serif" font-size="10.00">isError</text>
</a>
</g>
</g>
<!-- Node1&#45;&gt;Node4 -->
<g id="edge8" class="edge"><title>Node1&#45;&gt;Node4</title>
<path fill="none" stroke="midnightblue" d="M122.322,-16.3723C213.354,-16.1797 384.782,-15.8169 475.204,-15.6255"/>
<polygon fill="midnightblue" stroke="midnightblue" points="475.296,-19.1254 485.289,-15.6042 475.281,-12.1254 475.296,-19.1254"/>
</g>
<!-- Node3 -->
<g id="node3" class="node"><title>Node3</title>
<g id="a_node3"><a xlink:href="namespacesoftwarecontainer.html#a44f64c34c09d1ffdb18428b41f0d9e91" target="_top" xlink:title="isDirectory Check if path is a directory ">
<polygon fill="white" stroke="black" points="485.5,-108.5 485.5,-138.5 585.5,-138.5 585.5,-108.5 485.5,-108.5"/>
<text text-anchor="start" x="493.5" y="-126.5" font-family="Helvetica,sans-Serif" font-size="10.00">softwarecontainer::</text>
<text text-anchor="middle" x="535.5" y="-115.5" font-family="Helvetica,sans-Serif" font-size="10.00">isDirectory</text>
</a>
</g>
</g>
<!-- Node2&#45;&gt;Node3 -->
<g id="edge2" class="edge"><title>Node2&#45;&gt;Node3</title>
<path fill="none" stroke="midnightblue" d="M258.471,-64.6427C279.973,-76.6809 311.972,-92.8827 342,-101.5 385.63,-114.021 436.75,-119.454 475.342,-121.794"/>
<polygon fill="midnightblue" stroke="midnightblue" points="475.194,-125.291 485.373,-122.349 475.582,-118.301 475.194,-125.291"/>
</g>
<!-- Node2&#45;&gt;Node4 -->
<g id="edge3" class="edge"><title>Node2&#45;&gt;Node4</title>
<path fill="none" stroke="midnightblue" d="M306.37,-41.2261C358.281,-35.3721 426.988,-27.6241 475.387,-22.1661"/>
<polygon fill="midnightblue" stroke="midnightblue" points="475.849,-25.6363 485.394,-21.0377 475.064,-18.6804 475.849,-25.6363"/>
</g>
<!-- Node5 -->
<g id="node5" class="node"><title>Node5</title>
<g id="a_node5"><a xlink:href="classsoftwarecontainer_1_1_file_toolkit_with_undo.html#aff5073fb683649d6753baae354d202b9" target="_top" xlink:title="createDirectory Create a directory, and if successful append it to a list of dirs to be deleted in th...">
<polygon fill="white" stroke="black" points="342,-51 342,-92 447,-92 447,-51 342,-51"/>
<text text-anchor="start" x="350" y="-80" font-family="Helvetica,sans-Serif" font-size="10.00">softwarecontainer::</text>
<text text-anchor="start" x="350" y="-69" font-family="Helvetica,sans-Serif" font-size="10.00">FileToolkitWithUndo</text>
<text text-anchor="middle" x="394.5" y="-58" font-family="Helvetica,sans-Serif" font-size="10.00">::createDirectory</text>
</a>
</g>
</g>
<!-- Node2&#45;&gt;Node5 -->
<g id="edge4" class="edge"><title>Node2&#45;&gt;Node5</title>
<path fill="none" stroke="midnightblue" d="M306.205,-59.5343C314.786,-60.7106 323.476,-61.9017 331.878,-63.0533"/>
<polygon fill="midnightblue" stroke="midnightblue" points="331.573,-66.5443 341.956,-64.4348 332.524,-59.6091 331.573,-66.5443"/>
</g>
<!-- Node5&#45;&gt;Node3 -->
<g id="edge5" class="edge"><title>Node5&#45;&gt;Node3</title>
<path fill="none" stroke="midnightblue" d="M447.258,-90.8629C459.44,-95.4198 472.4,-100.268 484.502,-104.796"/>
<polygon fill="midnightblue" stroke="midnightblue" points="483.399,-108.12 493.992,-108.346 485.852,-101.564 483.399,-108.12"/>
</g>
<!-- Node5&#45;&gt;Node4 -->
<g id="edge6" class="edge"><title>Node5&#45;&gt;Node4</title>
<path fill="none" stroke="midnightblue" d="M446.469,-50.9657C459.936,-45.54 474.405,-39.7109 487.643,-34.3775"/>
<polygon fill="midnightblue" stroke="midnightblue" points="489.066,-37.5779 497.033,-30.5945 486.45,-31.085 489.066,-37.5779"/>
</g>
<!-- Node6 -->
<g id="node6" class="node"><title>Node6</title>
<g id="a_node6"><a xlink:href="classsoftwarecontainer_1_1_file_toolkit_with_undo.html#a44a19890b72a635b3134cb2a07fc0875" target="_top" xlink:title="checks whether given path is already added to clean up handlers or not ">
<polygon fill="white" stroke="black" points="483,-49 483,-90 588,-90 588,-49 483,-49"/>
<text text-anchor="start" x="491" y="-78" font-family="Helvetica,sans-Serif" font-size="10.00">softwarecontainer::</text>
<text text-anchor="start" x="491" y="-67" font-family="Helvetica,sans-Serif" font-size="10.00">FileToolkitWithUndo</text>
<text text-anchor="middle" x="535.5" y="-56" font-family="Helvetica,sans-Serif" font-size="10.00">::pathInList</text>
</a>
</g>
</g>
<!-- Node5&#45;&gt;Node6 -->
<g id="edge7" class="edge"><title>Node5&#45;&gt;Node6</title>
<path fill="none" stroke="midnightblue" d="M447.258,-70.7553C455.49,-70.6368 464.077,-70.5133 472.514,-70.3919"/>
<polygon fill="midnightblue" stroke="midnightblue" points="472.75,-73.889 482.698,-70.2453 472.649,-66.8897 472.75,-73.889"/>
</g>
</g>
</svg>
