<?xml version="1.0" encoding="UTF-8" standalone="no"?>
<!DOCTYPE svg PUBLIC "-//W3C//DTD SVG 1.1//EN"
 "http://www.w3.org/Graphics/SVG/1.1/DTD/svg11.dtd">
<!-- Generated by graphviz version 2.38.0 (20140413.2041)
 -->
<!-- Title: softwarecontainer::FileToolkitWithUndo::bindMount Pages: 1 -->
<svg width="672pt" height="99pt"
 viewBox="0.00 0.00 672.00 98.50" xmlns="http://www.w3.org/2000/svg" xmlns:xlink="http://www.w3.org/1999/xlink">
<g id="graph0" class="graph" transform="scale(1 1) rotate(0) translate(4 94.5)">
<title>softwarecontainer::FileToolkitWithUndo::bindMount</title>
<polygon fill="white" stroke="none" points="-4,4 -4,-94.5 668,-94.5 668,4 -4,4"/>
<!-- Node1 -->
<g id="node1" class="node"><title>Node1</title>
<polygon fill="#bfbfbf" stroke="black" points="0,-27.5 0,-68.5 105,-68.5 105,-27.5 0,-27.5"/>
<text text-anchor="start" x="8" y="-56.5" font-family="Helvetica,sans-Serif" font-size="10.00">softwarecontainer::</text>
<text text-anchor="start" x="8" y="-45.5" font-family="Helvetica,sans-Serif" font-size="10.00">FileToolkitWithUndo</text>
<text text-anchor="middle" x="52.5" y="-34.5" font-family="Helvetica,sans-Serif" font-size="10.00">::bindMount</text>
</g>
<!-- Node2 -->
<g id="node2" class="node"><title>Node2</title>
<g id="a_node2"><a xlink:href="namespacesoftwarecontainer.html#ae8835f968ab1d43b4a395b0097490734" target="_top" xlink:title="existsInFileSystem Check if path exists ">
<polygon fill="white" stroke="black" points="143,-60 143,-90 244,-90 244,-60 143,-60"/>
<text text-anchor="start" x="151" y="-78" font-family="Helvetica,sans-Serif" font-size="10.00">softwarecontainer::</text>
<text text-anchor="middle" x="193.5" y="-67" font-family="Helvetica,sans-Serif" font-size="10.00">existsInFileSystem</text>
</a>
</g>
</g>
<!-- Node1&#45;&gt;Node2 -->
<g id="edge1" class="edge"><title>Node1&#45;&gt;Node2</title>
<path fill="none" stroke="midnightblue" d="M105.258,-58.0538C114.119,-59.775 123.392,-61.5762 132.448,-63.3351"/>
<polygon fill="midnightblue" stroke="midnightblue" points="132.061,-66.8254 142.545,-65.2965 133.396,-59.9538 132.061,-66.8254"/>
</g>
<!-- Node3 -->
<g id="node3" class="node"><title>Node3</title>
<g id="a_node3"><a xlink:href="classsoftwarecontainer_1_1_file_toolkit_with_undo.html#a649391903bf1a0eec92c829713117a74" target="_top" xlink:title="tempDir Creates a temporary directory at templatePath. ">
<polygon fill="white" stroke="black" points="141,-0.5 141,-41.5 246,-41.5 246,-0.5 141,-0.5"/>
<text text-anchor="start" x="149" y="-29.5" font-family="Helvetica,sans-Serif" font-size="10.00">softwarecontainer::</text>
<text text-anchor="start" x="149" y="-18.5" font-family="Helvetica,sans-Serif" font-size="10.00">FileToolkitWithUndo</text>
<text text-anchor="middle" x="193.5" y="-7.5" font-family="Helvetica,sans-Serif" font-size="10.00">::tempDir</text>
</a>
</g>
</g>
<!-- Node1&#45;&gt;Node3 -->
<g id="edge2" class="edge"><title>Node1&#45;&gt;Node3</title>
<path fill="none" stroke="midnightblue" d="M105.258,-37.9462C113.58,-36.3297 122.266,-34.6427 130.793,-32.9863"/>
<polygon fill="midnightblue" stroke="midnightblue" points="131.549,-36.4049 140.698,-31.0622 130.214,-29.5333 131.549,-36.4049"/>
</g>
<!-- Node4 -->
<g id="node4" class="node"><title>Node4</title>
<g id="a_node4"><a xlink:href="classsoftwarecontainer_1_1_file_toolkit_with_undo.html#a44a19890b72a635b3134cb2a07fc0875" target="_top" xlink:title="checks whether given path is already added to clean up handlers or not ">
<polygon fill="white" stroke="black" points="282,-0.5 282,-41.5 387,-41.5 387,-0.5 282,-0.5"/>
<text text-anchor="start" x="290" y="-29.5" font-family="Helvetica,sans-Serif" font-size="10.00">softwarecontainer::</text>
<text text-anchor="start" x="290" y="-18.5" font-family="Helvetica,sans-Serif" font-size="10.00">FileToolkitWithUndo</text>
<text text-anchor="middle" x="334.5" y="-7.5" font-family="Helvetica,sans-Serif" font-size="10.00">::pathInList</text>
</a>
</g>
</g>
<!-- Node3&#45;&gt;Node4 -->
<g id="edge3" class="edge"><title>Node3&#45;&gt;Node4</title>
<path fill="none" stroke="midnightblue" d="M246.258,-21C254.49,-21 263.077,-21 271.514,-21"/>
<polygon fill="midnightblue" stroke="midnightblue" points="271.698,-24.5001 281.698,-21 271.698,-17.5001 271.698,-24.5001"/>
</g>
<!-- Node5 -->
<g id="node5" class="node"><title>Node5</title>
<g id="a_node5"><a xlink:href="classsoftwarecontainer_1_1_file_toolkit_with_undo.html#a35eb42bdace2695fb3e96cb84a535213" target="_top" xlink:title="createDirectory Create a directory, and if successful append it to a list of dirs to be deleted in th...">
<polygon fill="white" stroke="black" points="423,-0.5 423,-41.5 528,-41.5 528,-0.5 423,-0.5"/>
<text text-anchor="start" x="431" y="-29.5" font-family="Helvetica,sans-Serif" font-size="10.00">softwarecontainer::</text>
<text text-anchor="start" x="431" y="-18.5" font-family="Helvetica,sans-Serif" font-size="10.00">FileToolkitWithUndo</text>
<text text-anchor="middle" x="475.5" y="-7.5" font-family="Helvetica,sans-Serif" font-size="10.00">::createDirectory</text>
</a>
</g>
</g>
<!-- Node4&#45;&gt;Node5 -->
<g id="edge4" class="edge"><title>Node4&#45;&gt;Node5</title>
<path fill="none" stroke="midnightblue" d="M387.258,-14.4494C395.49,-14.2606 404.077,-14.2059 412.514,-14.2852"/>
<polygon fill="midnightblue" stroke="midnightblue" points="412.643,-17.7876 422.698,-14.4484 412.756,-10.7885 412.643,-17.7876"/>
</g>
<!-- Node5&#45;&gt;Node4 -->
<g id="edge6" class="edge"><title>Node5&#45;&gt;Node4</title>
<path fill="none" stroke="midnightblue" d="M422.698,-27.5516C414.466,-27.7399 405.878,-27.7942 397.441,-27.7144"/>
<polygon fill="midnightblue" stroke="midnightblue" points="397.314,-24.212 387.258,-27.5506 397.201,-31.2111 397.314,-24.212"/>
</g>
<!-- Node6 -->
<g id="node6" class="node"><title>Node6</title>
<g id="a_node6"><a xlink:href="namespacesoftwarecontainer.html#a44f64c34c09d1ffdb18428b41f0d9e91" target="_top" xlink:title="isDirectory Check if path is a directory ">
<polygon fill="white" stroke="black" points="564,-6 564,-36 664,-36 664,-6 564,-6"/>
<text text-anchor="start" x="572" y="-24" font-family="Helvetica,sans-Serif" font-size="10.00">softwarecontainer::</text>
<text text-anchor="middle" x="614" y="-13" font-family="Helvetica,sans-Serif" font-size="10.00">isDirectory</text>
</a>
</g>
</g>
<!-- Node5&#45;&gt;Node6 -->
<g id="edge5" class="edge"><title>Node5&#45;&gt;Node6</title>
<path fill="none" stroke="midnightblue" d="M528.105,-21C536.371,-21 544.983,-21 553.416,-21"/>
<polygon fill="midnightblue" stroke="midnightblue" points="553.579,-24.5001 563.579,-21 553.579,-17.5001 553.579,-24.5001"/>
</g>
</g>
</svg>
