<?xml version="1.0" encoding="UTF-8" standalone="no"?>
<!DOCTYPE svg PUBLIC "-//W3C//DTD SVG 1.1//EN"
 "http://www.w3.org/Graphics/SVG/1.1/DTD/svg11.dtd">
<!-- Generated by graphviz version 2.38.0 (20140413.2041)
 -->
<!-- Title: Container::initialize Pages: 1 -->
<svg width="457pt" height="110pt"
 viewBox="0.00 0.00 457.00 110.00" xmlns="http://www.w3.org/2000/svg" xmlns:xlink="http://www.w3.org/1999/xlink">
<g id="graph0" class="graph" transform="scale(1 1) rotate(0) translate(4 106)">
<title>Container::initialize</title>
<polygon fill="white" stroke="none" points="-4,4 -4,-106 453,-106 453,4 -4,4"/>
<!-- Node1 -->
<g id="node1" class="node"><title>Node1</title>
<polygon fill="#bfbfbf" stroke="black" points="0,-41.5 0,-60.5 107,-60.5 107,-41.5 0,-41.5"/>
<text text-anchor="middle" x="53.5" y="-48.5" font-family="Helvetica,sans-Serif" font-size="10.00">Container::initialize</text>
</g>
<!-- Node2 -->
<g id="node2" class="node"><title>Node2</title>
<g id="a_node2"><a xlink:href="classsoftwarecontainer_1_1_file_toolkit_with_undo.html#aff5073fb683649d6753baae354d202b9" target="_top" xlink:title="createDirectory Create a directory, and if successful append it to a list of dirs to be deleted in th...">
<polygon fill="white" stroke="black" points="160,-60.5 160,-101.5 268,-101.5 268,-60.5 160,-60.5"/>
<text text-anchor="start" x="168" y="-89.5" font-family="Helvetica,sans-Serif" font-size="10.00">softwarecontainer::</text>
<text text-anchor="start" x="168" y="-78.5" font-family="Helvetica,sans-Serif" font-size="10.00">FileToolkitWithUndo</text>
<text text-anchor="middle" x="214" y="-67.5" font-family="Helvetica,sans-Serif" font-size="10.00">::createDirectory</text>
</a>
</g>
</g>
<!-- Node1&#45;&gt;Node2 -->
<g id="edge1" class="edge"><title>Node1&#45;&gt;Node2</title>
<path fill="none" stroke="midnightblue" d="M105.086,-60.5747C119.293,-63.2637 134.92,-66.2215 149.765,-69.0313"/>
<polygon fill="midnightblue" stroke="midnightblue" points="149.414,-72.5268 159.89,-70.9477 150.716,-65.6489 149.414,-72.5268"/>
</g>
<!-- Node4 -->
<g id="node4" class="node"><title>Node4</title>
<g id="a_node4"><a xlink:href="classsoftwarecontainer_1_1_file_toolkit_with_undo.html#ab74e5ec0784b2aa597d54f28f44f7112" target="_top" xlink:title="createSharedMountPoint Make the mount point shared, ie new mount points created in one bind mount wil...">
<polygon fill="white" stroke="black" points="143,-0.5 143,-41.5 285,-41.5 285,-0.5 143,-0.5"/>
<text text-anchor="start" x="151" y="-29.5" font-family="Helvetica,sans-Serif" font-size="10.00">softwarecontainer::</text>
<text text-anchor="start" x="151" y="-18.5" font-family="Helvetica,sans-Serif" font-size="10.00">FileToolkitWithUndo</text>
<text text-anchor="middle" x="214" y="-7.5" font-family="Helvetica,sans-Serif" font-size="10.00">::createSharedMountPoint</text>
</a>
</g>
</g>
<!-- Node1&#45;&gt;Node4 -->
<g id="edge4" class="edge"><title>Node1&#45;&gt;Node4</title>
<path fill="none" stroke="midnightblue" d="M105.086,-41.4253C114.029,-39.7326 123.535,-37.9334 133.054,-36.1317"/>
<polygon fill="midnightblue" stroke="midnightblue" points="133.781,-39.5563 142.956,-34.2575 132.48,-32.6784 133.781,-39.5563"/>
</g>
<!-- Node3 -->
<g id="node3" class="node"><title>Node3</title>
<g id="a_node3"><a xlink:href="classsoftwarecontainer_1_1_file_toolkit_with_undo.html#a2e2789ba9649ed6abf7a1c3ab3025daa" target="_top" xlink:title="createParentDirectory Recursively tries to create the directory pointed to by path. ">
<polygon fill="white" stroke="black" points="321,-60.5 321,-101.5 449,-101.5 449,-60.5 321,-60.5"/>
<text text-anchor="start" x="329" y="-89.5" font-family="Helvetica,sans-Serif" font-size="10.00">softwarecontainer::</text>
<text text-anchor="start" x="329" y="-78.5" font-family="Helvetica,sans-Serif" font-size="10.00">FileToolkitWithUndo</text>
<text text-anchor="middle" x="385" y="-67.5" font-family="Helvetica,sans-Serif" font-size="10.00">::createParentDirectory</text>
</a>
</g>
</g>
<!-- Node2&#45;&gt;Node3 -->
<g id="edge2" class="edge"><title>Node2&#45;&gt;Node3</title>
<path fill="none" stroke="midnightblue" d="M268.009,-74.6852C281.485,-74.2956 296.207,-74.1676 310.503,-74.3011"/>
<polygon fill="midnightblue" stroke="midnightblue" points="310.765,-77.805 320.812,-74.4446 310.862,-70.8057 310.765,-77.805"/>
</g>
<!-- Node3&#45;&gt;Node2 -->
<g id="edge3" class="edge"><title>Node3&#45;&gt;Node2</title>
<path fill="none" stroke="midnightblue" d="M320.812,-87.5554C306.823,-87.8159 292,-87.8149 278.018,-87.5523"/>
<polygon fill="midnightblue" stroke="midnightblue" points="278.089,-84.0531 268.009,-87.3148 277.923,-91.0511 278.089,-84.0531"/>
</g>
</g>
</svg>
