<?xml version="1.0" encoding="UTF-8" standalone="no"?>
<!DOCTYPE svg PUBLIC "-//W3C//DTD SVG 1.1//EN"
 "http://www.w3.org/Graphics/SVG/1.1/DTD/svg11.dtd">
<!-- Generated by graphviz version 2.38.0 (20140413.2041)
 -->
<!-- Title: softwarecontainer::SoftwareContainerError Pages: 1 -->
<svg width="591pt" height="921pt"
 viewBox="0.00 0.00 591.00 921.00" xmlns="http://www.w3.org/2000/svg" xmlns:xlink="http://www.w3.org/1999/xlink">
<g id="graph0" class="graph" transform="scale(1 1) rotate(0) translate(4 917)">
<title>softwarecontainer::SoftwareContainerError</title>
<polygon fill="white" stroke="none" points="-4,4 -4,-917 587,-917 587,4 -4,4"/>
<!-- Node1 -->
<g id="node1" class="node"><title>Node1</title>
<polygon fill="#bfbfbf" stroke="black" points="114,-245.5 114,-275.5 233,-275.5 233,-245.5 114,-245.5"/>
<text text-anchor="start" x="122" y="-263.5" font-family="Helvetica,sans-Serif" font-size="10.00">softwarecontainer::</text>
<text text-anchor="middle" x="173.5" y="-252.5" font-family="Helvetica,sans-Serif" font-size="10.00">SoftwareContainerError</text>
</g>
<!-- Node3 -->
<g id="node3" class="node"><title>Node3</title>
<g id="a_node3"><a xlink:href="classsoftwarecontainer_1_1_cgroups_gateway_error.html" target="_top" xlink:title="softwarecontainer::\lCgroupsGatewayError">
<polygon fill="white" stroke="black" points="284.5,-784.5 284.5,-814.5 397.5,-814.5 397.5,-784.5 284.5,-784.5"/>
<text text-anchor="start" x="292.5" y="-802.5" font-family="Helvetica,sans-Serif" font-size="10.00">softwarecontainer::</text>
<text text-anchor="middle" x="341" y="-791.5" font-family="Helvetica,sans-Serif" font-size="10.00">CgroupsGatewayError</text>
</a>
</g>
</g>
<!-- Node1&#45;&gt;Node3 -->
<g id="edge2" class="edge"><title>Node1&#45;&gt;Node3</title>
<path fill="none" stroke="midnightblue" d="M181.692,-285.532C197.223,-339.414 235.225,-470.348 269,-579.5 292.906,-656.756 323.166,-748.693 334.967,-784.337"/>
<polygon fill="midnightblue" stroke="midnightblue" points="185.024,-284.454 178.894,-275.812 178.297,-286.391 185.024,-284.454"/>
</g>
<!-- Node8 -->
<g id="node8" class="node"><title>Node8</title>
<g id="a_node8"><a xlink:href="classsoftwarecontainer_1_1_config_error.html" target="_top" xlink:title="softwarecontainer::\lConfigError">
<polygon fill="white" stroke="black" points="291,-539.5 291,-569.5 391,-569.5 391,-539.5 291,-539.5"/>
<text text-anchor="start" x="299" y="-557.5" font-family="Helvetica,sans-Serif" font-size="10.00">softwarecontainer::</text>
<text text-anchor="middle" x="341" y="-546.5" font-family="Helvetica,sans-Serif" font-size="10.00">ConfigError</text>
</a>
</g>
</g>
<!-- Node1&#45;&gt;Node8 -->
<g id="edge7" class="edge"><title>Node1&#45;&gt;Node8</title>
<path fill="none" stroke="midnightblue" d="M187.593,-284.776C205.666,-318.181 239.384,-380.135 269,-432.5 290.836,-471.109 317.287,-516.109 330.911,-539.163"/>
<polygon fill="midnightblue" stroke="midnightblue" points="190.552,-282.889 182.718,-275.755 184.394,-286.217 190.552,-282.889"/>
</g>
<!-- Node15 -->
<g id="node15" class="node"><title>Node15</title>
<g id="a_node15"><a xlink:href="classsoftwarecontainer_1_1_config_store_error.html" target="_top" xlink:title="softwarecontainer::\lConfigStoreError">
<polygon fill="white" stroke="black" points="291,-392.5 291,-422.5 391,-422.5 391,-392.5 291,-392.5"/>
<text text-anchor="start" x="299" y="-410.5" font-family="Helvetica,sans-Serif" font-size="10.00">softwarecontainer::</text>
<text text-anchor="middle" x="341" y="-399.5" font-family="Helvetica,sans-Serif" font-size="10.00">ConfigStoreError</text>
</a>
</g>
</g>
<!-- Node1&#45;&gt;Node15 -->
<g id="edge14" class="edge"><title>Node1&#45;&gt;Node15</title>
<path fill="none" stroke="midnightblue" d="M187.23,-284.696C202.944,-312.344 232.164,-357.156 269,-383.5 275.562,-388.193 283.11,-392.02 290.781,-395.126"/>
<polygon fill="midnightblue" stroke="midnightblue" points="190.15,-282.745 182.244,-275.691 184.026,-286.135 190.15,-282.745"/>
</g>
<!-- Node19 -->
<g id="node19" class="node"><title>Node19</title>
<g id="a_node19"><a xlink:href="classsoftwarecontainer_1_1_container_error.html" target="_top" xlink:title="An error has occured in the underlying container implementation. ">
<polygon fill="white" stroke="black" points="291,-343.5 291,-373.5 391,-373.5 391,-343.5 291,-343.5"/>
<text text-anchor="start" x="299" y="-361.5" font-family="Helvetica,sans-Serif" font-size="10.00">softwarecontainer::</text>
<text text-anchor="middle" x="341" y="-350.5" font-family="Helvetica,sans-Serif" font-size="10.00">ContainerError</text>
</a>
</g>
</g>
<!-- Node1&#45;&gt;Node19 -->
<g id="edge18" class="edge"><title>Node1&#45;&gt;Node19</title>
<path fill="none" stroke="midnightblue" d="M198.124,-282.721C216.335,-298.884 242.765,-320.332 269,-334.5 275.869,-338.21 283.419,-341.499 290.952,-344.361"/>
<polygon fill="midnightblue" stroke="midnightblue" points="200.132,-279.818 190.365,-275.711 195.439,-285.012 200.132,-279.818"/>
</g>
<!-- Node20 -->
<g id="node20" class="node"><title>Node20</title>
<g id="a_node20"><a xlink:href="classsoftwarecontainer_1_1_container_option_parse_error.html" target="_top" xlink:title="softwarecontainer::\lContainerOptionParseError">
<polygon fill="white" stroke="black" points="274,-294.5 274,-324.5 408,-324.5 408,-294.5 274,-294.5"/>
<text text-anchor="start" x="282" y="-312.5" font-family="Helvetica,sans-Serif" font-size="10.00">softwarecontainer::</text>
<text text-anchor="middle" x="341" y="-301.5" font-family="Helvetica,sans-Serif" font-size="10.00">ContainerOptionParseError</text>
</a>
</g>
</g>
<!-- Node1&#45;&gt;Node20 -->
<g id="edge19" class="edge"><title>Node1&#45;&gt;Node20</title>
<path fill="none" stroke="midnightblue" d="M235.184,-278.467C252.917,-283.717 272.108,-289.399 289.163,-294.448"/>
<polygon fill="midnightblue" stroke="midnightblue" points="236.088,-275.084 225.506,-275.601 234.101,-281.796 236.088,-275.084"/>
</g>
<!-- Node21 -->
<g id="node21" class="node"><title>Node21</title>
<g id="a_node21"><a xlink:href="classsoftwarecontainer_1_1_container_utility_interface_error.html" target="_top" xlink:title="An error occured in ContainerUtilityInterface. ">
<polygon fill="white" stroke="black" points="269.5,-245.5 269.5,-275.5 412.5,-275.5 412.5,-245.5 269.5,-245.5"/>
<text text-anchor="start" x="277.5" y="-263.5" font-family="Helvetica,sans-Serif" font-size="10.00">softwarecontainer::</text>
<text text-anchor="middle" x="341" y="-252.5" font-family="Helvetica,sans-Serif" font-size="10.00">ContainerUtilityInterfaceError</text>
</a>
</g>
</g>
<!-- Node1&#45;&gt;Node21 -->
<g id="edge20" class="edge"><title>Node1&#45;&gt;Node21</title>
<path fill="none" stroke="midnightblue" d="M243.335,-260.5C251.972,-260.5 260.817,-260.5 269.479,-260.5"/>
<polygon fill="midnightblue" stroke="midnightblue" points="243.315,-257 233.315,-260.5 243.315,-264 243.315,-257"/>
</g>
<!-- Node22 -->
<g id="node22" class="node"><title>Node22</title>
<g id="a_node22"><a xlink:href="classsoftwarecontainer_1_1_gateway_error.html" target="_top" xlink:title="softwarecontainer::\lGatewayError">
<polygon fill="white" stroke="black" points="291,-196.5 291,-226.5 391,-226.5 391,-196.5 291,-196.5"/>
<text text-anchor="start" x="299" y="-214.5" font-family="Helvetica,sans-Serif" font-size="10.00">softwarecontainer::</text>
<text text-anchor="middle" x="341" y="-203.5" font-family="Helvetica,sans-Serif" font-size="10.00">GatewayError</text>
</a>
</g>
</g>
<!-- Node1&#45;&gt;Node22 -->
<g id="edge21" class="edge"><title>Node1&#45;&gt;Node22</title>
<path fill="none" stroke="midnightblue" d="M235.209,-242.526C253.526,-237.102 273.398,-231.219 290.863,-226.048"/>
<polygon fill="midnightblue" stroke="midnightblue" points="234.101,-239.204 225.506,-245.399 236.088,-245.916 234.101,-239.204"/>
</g>
<!-- Node23 -->
<g id="node23" class="node"><title>Node23</title>
<g id="a_node23"><a xlink:href="classsoftwarecontainer_1_1_invalid_container_error.html" target="_top" xlink:title="The container instance is in an invalid state and should not be used. ">
<polygon fill="white" stroke="black" points="287,-147.5 287,-177.5 395,-177.5 395,-147.5 287,-147.5"/>
<text text-anchor="start" x="295" y="-165.5" font-family="Helvetica,sans-Serif" font-size="10.00">softwarecontainer::</text>
<text text-anchor="middle" x="341" y="-154.5" font-family="Helvetica,sans-Serif" font-size="10.00">InvalidContainerError</text>
</a>
</g>
</g>
<!-- Node1&#45;&gt;Node23 -->
<g id="edge22" class="edge"><title>Node1&#45;&gt;Node23</title>
<path fill="none" stroke="midnightblue" d="M198.124,-238.279C216.335,-222.116 242.765,-200.668 269,-186.5 275.182,-183.161 281.916,-180.163 288.692,-177.511"/>
<polygon fill="midnightblue" stroke="midnightblue" points="195.439,-235.988 190.365,-245.289 200.132,-241.182 195.439,-235.988"/>
</g>
<!-- Node24 -->
<g id="node24" class="node"><title>Node24</title>
<g id="a_node24"><a xlink:href="classsoftwarecontainer_1_1_invalid_operation_error.html" target="_top" xlink:title="A method was called which is inappropriate in the current state. ">
<polygon fill="white" stroke="black" points="287,-98.5 287,-128.5 395,-128.5 395,-98.5 287,-98.5"/>
<text text-anchor="start" x="295" y="-116.5" font-family="Helvetica,sans-Serif" font-size="10.00">softwarecontainer::</text>
<text text-anchor="middle" x="341" y="-105.5" font-family="Helvetica,sans-Serif" font-size="10.00">InvalidOperationError</text>
</a>
</g>
</g>
<!-- Node1&#45;&gt;Node24 -->
<g id="edge23" class="edge"><title>Node1&#45;&gt;Node24</title>
<path fill="none" stroke="midnightblue" d="M187.23,-236.304C202.944,-208.656 232.164,-163.844 269,-137.5 274.398,-133.64 280.462,-130.365 286.714,-127.596"/>
<polygon fill="midnightblue" stroke="midnightblue" points="184.026,-234.865 182.244,-245.309 190.15,-238.255 184.026,-234.865"/>
</g>
<!-- Node25 -->
<g id="node25" class="node"><title>Node25</title>
<g id="a_node25"><a xlink:href="classsoftwarecontainer_1_1_network_gateway_error.html" target="_top" xlink:title="softwarecontainer::\lNetworkGatewayError">
<polygon fill="white" stroke="black" points="284.5,-49.5 284.5,-79.5 397.5,-79.5 397.5,-49.5 284.5,-49.5"/>
<text text-anchor="start" x="292.5" y="-67.5" font-family="Helvetica,sans-Serif" font-size="10.00">softwarecontainer::</text>
<text text-anchor="middle" x="341" y="-56.5" font-family="Helvetica,sans-Serif" font-size="10.00">NetworkGatewayError</text>
</a>
</g>
</g>
<!-- Node1&#45;&gt;Node25 -->
<g id="edge24" class="edge"><title>Node1&#45;&gt;Node25</title>
<path fill="none" stroke="midnightblue" d="M181.636,-235.891C193.644,-198.726 221.367,-128.392 269,-88.5 273.589,-84.6571 278.821,-81.4203 284.317,-78.6959"/>
<polygon fill="midnightblue" stroke="midnightblue" points="178.294,-234.853 178.662,-245.441 184.977,-236.934 178.294,-234.853"/>
</g>
<!-- Node27 -->
<g id="node27" class="node"><title>Node27</title>
<g id="a_node27"><a xlink:href="classsoftwarecontainer_1_1_software_container_agent_error.html" target="_top" xlink:title="An error occured in SoftwareContainerAgent. ">
<polygon fill="white" stroke="black" points="269,-0.5 269,-30.5 413,-30.5 413,-0.5 269,-0.5"/>
<text text-anchor="start" x="277" y="-18.5" font-family="Helvetica,sans-Serif" font-size="10.00">softwarecontainer::</text>
<text text-anchor="middle" x="341" y="-7.5" font-family="Helvetica,sans-Serif" font-size="10.00">SoftwareContainerAgentError</text>
</a>
</g>
</g>
<!-- Node1&#45;&gt;Node27 -->
<g id="edge26" class="edge"><title>Node1&#45;&gt;Node27</title>
<path fill="none" stroke="midnightblue" d="M178.343,-235.582C186.638,-190.176 210.432,-93.6635 269,-39.5 272.726,-36.0546 276.964,-33.102 281.472,-30.5719"/>
<polygon fill="midnightblue" stroke="midnightblue" points="174.889,-235.02 176.637,-245.469 181.787,-236.21 174.889,-235.02"/>
</g>
<!-- Node2 -->
<g id="node2" class="node"><title>Node2</title>
<polygon fill="white" stroke="#bfbfbf" points="0,-251 0,-270 78,-270 78,-251 0,-251"/>
<text text-anchor="middle" x="39" y="-258" font-family="Helvetica,sans-Serif" font-size="10.00">std::exception</text>
</g>
<!-- Node2&#45;&gt;Node1 -->
<g id="edge1" class="edge"><title>Node2&#45;&gt;Node1</title>
<path fill="none" stroke="midnightblue" d="M88.4181,-260.5C96.5843,-260.5 105.141,-260.5 113.54,-260.5"/>
<polygon fill="midnightblue" stroke="midnightblue" points="88.3245,-257 78.3245,-260.5 88.3245,-264 88.3245,-257"/>
</g>
<!-- Node4 -->
<g id="node4" class="node"><title>Node4</title>
<g id="a_node4"><a xlink:href="classsoftwarecontainer_1_1_bad_suffix_error.html" target="_top" xlink:title="softwarecontainer::\lBadSuffixError">
<polygon fill="white" stroke="black" points="466,-882.5 466,-912.5 566,-912.5 566,-882.5 466,-882.5"/>
<text text-anchor="start" x="474" y="-900.5" font-family="Helvetica,sans-Serif" font-size="10.00">softwarecontainer::</text>
<text text-anchor="middle" x="516" y="-889.5" font-family="Helvetica,sans-Serif" font-size="10.00">BadSuffixError</text>
</a>
</g>
</g>
<!-- Node3&#45;&gt;Node4 -->
<g id="edge3" class="edge"><title>Node3&#45;&gt;Node4</title>
<path fill="none" stroke="midnightblue" d="M368.868,-820.979C389.802,-836.98 420.077,-858.556 449,-873.5 455.283,-876.746 462.106,-879.753 468.903,-882.463"/>
<polygon fill="midnightblue" stroke="midnightblue" points="370.825,-818.068 360.775,-814.714 366.54,-823.603 370.825,-818.068"/>
</g>
<!-- Node5 -->
<g id="node5" class="node"><title>Node5</title>
<g id="a_node5"><a xlink:href="classsoftwarecontainer_1_1_hex_format_error.html" target="_top" xlink:title="softwarecontainer::\lHexFormatError">
<polygon fill="white" stroke="black" points="466,-833.5 466,-863.5 566,-863.5 566,-833.5 466,-833.5"/>
<text text-anchor="start" x="474" y="-851.5" font-family="Helvetica,sans-Serif" font-size="10.00">softwarecontainer::</text>
<text text-anchor="middle" x="516" y="-840.5" font-family="Helvetica,sans-Serif" font-size="10.00">HexFormatError</text>
</a>
</g>
</g>
<!-- Node3&#45;&gt;Node5 -->
<g id="edge4" class="edge"><title>Node3&#45;&gt;Node5</title>
<path fill="none" stroke="midnightblue" d="M405.014,-817.348C425.109,-823.04 447.033,-829.249 465.983,-834.616"/>
<polygon fill="midnightblue" stroke="midnightblue" points="405.893,-813.959 395.317,-814.601 403.985,-820.694 405.893,-813.959"/>
</g>
<!-- Node6 -->
<g id="node6" class="node"><title>Node6</title>
<g id="a_node6"><a xlink:href="classsoftwarecontainer_1_1_j_son_error.html" target="_top" xlink:title="softwarecontainer::\lJSonError">
<polygon fill="white" stroke="black" points="466,-784.5 466,-814.5 566,-814.5 566,-784.5 466,-784.5"/>
<text text-anchor="start" x="474" y="-802.5" font-family="Helvetica,sans-Serif" font-size="10.00">softwarecontainer::</text>
<text text-anchor="middle" x="516" y="-791.5" font-family="Helvetica,sans-Serif" font-size="10.00">JSonError</text>
</a>
</g>
</g>
<!-- Node3&#45;&gt;Node6 -->
<g id="edge5" class="edge"><title>Node3&#45;&gt;Node6</title>
<path fill="none" stroke="midnightblue" d="M407.9,-799.5C427.14,-799.5 447.823,-799.5 465.834,-799.5"/>
<polygon fill="midnightblue" stroke="midnightblue" points="407.691,-796 397.691,-799.5 407.691,-803 407.691,-796"/>
</g>
<!-- Node7 -->
<g id="node7" class="node"><title>Node7</title>
<g id="a_node7"><a xlink:href="classsoftwarecontainer_1_1_limit_range_error.html" target="_top" xlink:title="softwarecontainer::\lLimitRangeError">
<polygon fill="white" stroke="black" points="466,-735.5 466,-765.5 566,-765.5 566,-735.5 466,-735.5"/>
<text text-anchor="start" x="474" y="-753.5" font-family="Helvetica,sans-Serif" font-size="10.00">softwarecontainer::</text>
<text text-anchor="middle" x="516" y="-742.5" font-family="Helvetica,sans-Serif" font-size="10.00">LimitRangeError</text>
</a>
</g>
</g>
<!-- Node3&#45;&gt;Node7 -->
<g id="edge6" class="edge"><title>Node3&#45;&gt;Node7</title>
<path fill="none" stroke="midnightblue" d="M405.014,-781.652C425.109,-775.96 447.033,-769.751 465.983,-764.384"/>
<polygon fill="midnightblue" stroke="midnightblue" points="403.985,-778.306 395.317,-784.399 405.893,-785.041 403.985,-778.306"/>
</g>
<!-- Node9 -->
<g id="node9" class="node"><title>Node9</title>
<g id="a_node9"><a xlink:href="classsoftwarecontainer_1_1_config_dependency_error.html" target="_top" xlink:title="softwarecontainer::\lConfigDependencyError">
<polygon fill="white" stroke="black" points="455.5,-686.5 455.5,-716.5 576.5,-716.5 576.5,-686.5 455.5,-686.5"/>
<text text-anchor="start" x="463.5" y="-704.5" font-family="Helvetica,sans-Serif" font-size="10.00">softwarecontainer::</text>
<text text-anchor="middle" x="516" y="-693.5" font-family="Helvetica,sans-Serif" font-size="10.00">ConfigDependencyError</text>
</a>
</g>
</g>
<!-- Node8&#45;&gt;Node9 -->
<g id="edge8" class="edge"><title>Node8&#45;&gt;Node9</title>
<path fill="none" stroke="midnightblue" d="M357.043,-578.125C375.607,-605.54 409.593,-650.435 449,-677.5 453.925,-680.882 459.382,-683.849 464.988,-686.435"/>
<polygon fill="midnightblue" stroke="midnightblue" points="359.799,-575.947 351.354,-569.549 353.966,-579.816 359.799,-575.947"/>
</g>
<!-- Node10 -->
<g id="node10" class="node"><title>Node10</title>
<g id="a_node10"><a xlink:href="classsoftwarecontainer_1_1_config_file_error.html" target="_top" xlink:title="An error occured in a Glib operation. ">
<polygon fill="white" stroke="black" points="466,-637.5 466,-667.5 566,-667.5 566,-637.5 466,-637.5"/>
<text text-anchor="start" x="474" y="-655.5" font-family="Helvetica,sans-Serif" font-size="10.00">softwarecontainer::</text>
<text text-anchor="middle" x="516" y="-644.5" font-family="Helvetica,sans-Serif" font-size="10.00">ConfigFileError</text>
</a>
</g>
</g>
<!-- Node8&#45;&gt;Node10 -->
<g id="edge9" class="edge"><title>Node8&#45;&gt;Node10</title>
<path fill="none" stroke="midnightblue" d="M368.868,-575.979C389.802,-591.98 420.077,-613.556 449,-628.5 455.283,-631.746 462.106,-634.753 468.903,-637.463"/>
<polygon fill="midnightblue" stroke="midnightblue" points="370.825,-573.068 360.775,-569.714 366.54,-578.603 370.825,-573.068"/>
</g>
<!-- Node11 -->
<g id="node11" class="node"><title>Node11</title>
<g id="a_node11"><a xlink:href="classsoftwarecontainer_1_1_config_internal_error.html" target="_top" xlink:title="An error occured which is an internal error in the config code. ">
<polygon fill="white" stroke="black" points="466,-588.5 466,-618.5 566,-618.5 566,-588.5 466,-588.5"/>
<text text-anchor="start" x="474" y="-606.5" font-family="Helvetica,sans-Serif" font-size="10.00">softwarecontainer::</text>
<text text-anchor="middle" x="516" y="-595.5" font-family="Helvetica,sans-Serif" font-size="10.00">ConfigInternalError</text>
</a>
</g>
</g>
<!-- Node8&#45;&gt;Node11 -->
<g id="edge10" class="edge"><title>Node8&#45;&gt;Node11</title>
<path fill="none" stroke="midnightblue" d="M400.93,-571.191C422.029,-577.167 445.572,-583.835 465.765,-589.555"/>
<polygon fill="midnightblue" stroke="midnightblue" points="401.687,-567.768 391.112,-568.41 399.78,-574.503 401.687,-567.768"/>
</g>
<!-- Node12 -->
<g id="node12" class="node"><title>Node12</title>
<g id="a_node12"><a xlink:href="classsoftwarecontainer_1_1_config_mandatory_error.html" target="_top" xlink:title="softwarecontainer::\lConfigMandatoryError">
<polygon fill="white" stroke="black" points="460,-539.5 460,-569.5 572,-569.5 572,-539.5 460,-539.5"/>
<text text-anchor="start" x="468" y="-557.5" font-family="Helvetica,sans-Serif" font-size="10.00">softwarecontainer::</text>
<text text-anchor="middle" x="516" y="-546.5" font-family="Helvetica,sans-Serif" font-size="10.00">ConfigMandatoryError</text>
</a>
</g>
</g>
<!-- Node8&#45;&gt;Node12 -->
<g id="edge11" class="edge"><title>Node8&#45;&gt;Node12</title>
<path fill="none" stroke="midnightblue" d="M401.168,-554.5C420.22,-554.5 441.243,-554.5 459.983,-554.5"/>
<polygon fill="midnightblue" stroke="midnightblue" points="401.112,-551 391.112,-554.5 401.112,-558 401.112,-551"/>
</g>
<!-- Node13 -->
<g id="node13" class="node"><title>Node13</title>
<g id="a_node13"><a xlink:href="classsoftwarecontainer_1_1_config_not_found_error.html" target="_top" xlink:title="A requested config item could not be found in any of the config sources. ">
<polygon fill="white" stroke="black" points="461.5,-490.5 461.5,-520.5 570.5,-520.5 570.5,-490.5 461.5,-490.5"/>
<text text-anchor="start" x="469.5" y="-508.5" font-family="Helvetica,sans-Serif" font-size="10.00">softwarecontainer::</text>
<text text-anchor="middle" x="516" y="-497.5" font-family="Helvetica,sans-Serif" font-size="10.00">ConfigNotFoundError</text>
</a>
</g>
</g>
<!-- Node8&#45;&gt;Node13 -->
<g id="edge12" class="edge"><title>Node8&#45;&gt;Node13</title>
<path fill="none" stroke="midnightblue" d="M400.914,-537.813C420.659,-532.221 442.547,-526.021 461.826,-520.561"/>
<polygon fill="midnightblue" stroke="midnightblue" points="399.78,-534.497 391.112,-540.59 401.687,-541.232 399.78,-534.497"/>
</g>
<!-- Node14 -->
<g id="node14" class="node"><title>Node14</title>
<g id="a_node14"><a xlink:href="classsoftwarecontainer_1_1_config_unknown_error.html" target="_top" xlink:title="A config is found which is not defined in ConfigDefinition. ">
<polygon fill="white" stroke="black" points="462.5,-441.5 462.5,-471.5 569.5,-471.5 569.5,-441.5 462.5,-441.5"/>
<text text-anchor="start" x="470.5" y="-459.5" font-family="Helvetica,sans-Serif" font-size="10.00">softwarecontainer::</text>
<text text-anchor="middle" x="516" y="-448.5" font-family="Helvetica,sans-Serif" font-size="10.00">ConfigUnknownError</text>
</a>
</g>
</g>
<!-- Node8&#45;&gt;Node14 -->
<g id="edge13" class="edge"><title>Node8&#45;&gt;Node14</title>
<path fill="none" stroke="midnightblue" d="M369.355,-533.159C390.327,-517.475 420.43,-496.388 449,-481.5 455.846,-477.933 463.319,-474.607 470.696,-471.62"/>
<polygon fill="midnightblue" stroke="midnightblue" points="367.096,-530.479 361.234,-539.304 371.32,-536.061 367.096,-530.479"/>
</g>
<!-- Node16 -->
<g id="node16" class="node"><title>Node16</title>
<g id="a_node16"><a xlink:href="classsoftwarecontainer_1_1_capability_parse_error.html" target="_top" xlink:title="An error occured in ConfigStore when parsing a Capability in a Service Manifest. ">
<polygon fill="white" stroke="black" points="462.5,-392.5 462.5,-422.5 569.5,-422.5 569.5,-392.5 462.5,-392.5"/>
<text text-anchor="start" x="470.5" y="-410.5" font-family="Helvetica,sans-Serif" font-size="10.00">softwarecontainer::</text>
<text text-anchor="middle" x="516" y="-399.5" font-family="Helvetica,sans-Serif" font-size="10.00">CapabilityParseError</text>
</a>
</g>
</g>
<!-- Node15&#45;&gt;Node16 -->
<g id="edge15" class="edge"><title>Node15&#45;&gt;Node16</title>
<path fill="none" stroke="midnightblue" d="M401.277,-407.5C421.137,-407.5 443.128,-407.5 462.437,-407.5"/>
<polygon fill="midnightblue" stroke="midnightblue" points="401.112,-404 391.112,-407.5 401.112,-411 401.112,-404"/>
</g>
<!-- Node17 -->
<g id="node17" class="node"><title>Node17</title>
<g id="a_node17"><a xlink:href="classsoftwarecontainer_1_1_service_manifest_parse_error.html" target="_top" xlink:title="An error occured in ConfigStore when parsing a Service Manifest. ">
<polygon fill="white" stroke="black" points="449,-343.5 449,-373.5 583,-373.5 583,-343.5 449,-343.5"/>
<text text-anchor="start" x="457" y="-361.5" font-family="Helvetica,sans-Serif" font-size="10.00">softwarecontainer::</text>
<text text-anchor="middle" x="516" y="-350.5" font-family="Helvetica,sans-Serif" font-size="10.00">ServiceManifestParseError</text>
</a>
</g>
</g>
<!-- Node15&#45;&gt;Node17 -->
<g id="edge16" class="edge"><title>Node15&#45;&gt;Node17</title>
<path fill="none" stroke="midnightblue" d="M400.914,-390.813C420.659,-385.221 442.547,-379.021 461.826,-373.561"/>
<polygon fill="midnightblue" stroke="midnightblue" points="399.78,-387.497 391.112,-393.59 401.687,-394.232 399.78,-387.497"/>
</g>
<!-- Node18 -->
<g id="node18" class="node"><title>Node18</title>
<g id="a_node18"><a xlink:href="classsoftwarecontainer_1_1_service_manifest_path_error.html" target="_top" xlink:title="An error occured in ConfigStore relating to the path to the Service Manifest(s) ">
<polygon fill="white" stroke="black" points="452,-294.5 452,-324.5 580,-324.5 580,-294.5 452,-294.5"/>
<text text-anchor="start" x="460" y="-312.5" font-family="Helvetica,sans-Serif" font-size="10.00">softwarecontainer::</text>
<text text-anchor="middle" x="516" y="-301.5" font-family="Helvetica,sans-Serif" font-size="10.00">ServiceManifestPathError</text>
</a>
</g>
</g>
<!-- Node15&#45;&gt;Node18 -->
<g id="edge17" class="edge"><title>Node15&#45;&gt;Node18</title>
<path fill="none" stroke="midnightblue" d="M400.516,-391.066C404.912,-388.839 409.134,-386.328 413,-383.5 434.811,-367.545 427.481,-350.846 449,-334.5 453.976,-330.72 459.589,-327.454 465.387,-324.647"/>
<polygon fill="midnightblue" stroke="midnightblue" points="398.965,-387.926 391.306,-395.247 401.859,-394.3 398.965,-387.926"/>
</g>
<!-- Node26 -->
<g id="node26" class="node"><title>Node26</title>
<g id="a_node26"><a xlink:href="classsoftwarecontainer_1_1_i_p_allocation_error.html" target="_top" xlink:title="softwarecontainer::\lIPAllocationError">
<polygon fill="white" stroke="black" points="466,-49.5 466,-79.5 566,-79.5 566,-49.5 466,-49.5"/>
<text text-anchor="start" x="474" y="-67.5" font-family="Helvetica,sans-Serif" font-size="10.00">softwarecontainer::</text>
<text text-anchor="middle" x="516" y="-56.5" font-family="Helvetica,sans-Serif" font-size="10.00">IPAllocationError</text>
</a>
</g>
</g>
<!-- Node25&#45;&gt;Node26 -->
<g id="edge25" class="edge"><title>Node25&#45;&gt;Node26</title>
<path fill="none" stroke="midnightblue" d="M407.9,-64.5C427.14,-64.5 447.823,-64.5 465.834,-64.5"/>
<polygon fill="midnightblue" stroke="midnightblue" points="407.691,-61.0001 397.691,-64.5 407.691,-68.0001 407.691,-61.0001"/>
</g>
</g>
</svg>
