<?xml version="1.0" encoding="UTF-8" standalone="no"?>
<!DOCTYPE svg PUBLIC "-//W3C//DTD SVG 1.1//EN"
 "http://www.w3.org/Graphics/SVG/1.1/DTD/svg11.dtd">
<!-- Generated by graphviz version 2.38.0 (20140413.2041)
 -->
<!-- Title: Gateway::isConfigured Pages: 1 -->
<svg width="725pt" height="50pt"
 viewBox="0.00 0.00 725.00 50.00" xmlns="http://www.w3.org/2000/svg" xmlns:xlink="http://www.w3.org/1999/xlink">
<g id="graph0" class="graph" transform="scale(1 1) rotate(0) translate(4 46)">
<title>Gateway::isConfigured</title>
<polygon fill="white" stroke="none" points="-4,4 -4,-46 721,-46 721,4 -4,4"/>
<!-- Node1 -->
<g id="node1" class="node"><title>Node1</title>
<polygon fill="#bfbfbf" stroke="black" points="0,-11.5 0,-30.5 122,-30.5 122,-11.5 0,-11.5"/>
<text text-anchor="middle" x="61" y="-18.5" font-family="Helvetica,sans-Serif" font-size="10.00">Gateway::isConfigured</text>
</g>
<!-- Node2 -->
<g id="node2" class="node"><title>Node2</title>
<g id="a_node2"><a xlink:href="classsoftwarecontainer_1_1_software_container.html#af928f299cf15ecda5f625eaecd518f57" target="_top" xlink:title="Set the gateway configuration and activate them. ">
<polygon fill="white" stroke="black" points="158,-0.5 158,-41.5 325,-41.5 325,-0.5 158,-0.5"/>
<text text-anchor="start" x="166" y="-29.5" font-family="Helvetica,sans-Serif" font-size="10.00">softwarecontainer::</text>
<text text-anchor="start" x="166" y="-18.5" font-family="Helvetica,sans-Serif" font-size="10.00">SoftwareContainer::setGateway</text>
<text text-anchor="middle" x="241.5" y="-7.5" font-family="Helvetica,sans-Serif" font-size="10.00">Configs</text>
</a>
</g>
</g>
<!-- Node1&#45;&gt;Node2 -->
<g id="edge1" class="edge"><title>Node1&#45;&gt;Node2</title>
<path fill="none" stroke="midnightblue" d="M132.499,-21C140.863,-21 149.457,-21 157.969,-21"/>
<polygon fill="midnightblue" stroke="midnightblue" points="132.432,-17.5001 122.432,-21 132.432,-24.5001 132.432,-17.5001"/>
</g>
<!-- Node3 -->
<g id="node3" class="node"><title>Node3</title>
<g id="a_node3"><a xlink:href="classsoftwarecontainer_1_1_software_container.html#a7db71d975b5bbfebe48e50769cf726b9" target="_top" xlink:title="Continues the &#39;launch&#39; phase by allowing gateway configurations to be set. ">
<polygon fill="white" stroke="black" points="361,-0.5 361,-41.5 547,-41.5 547,-0.5 361,-0.5"/>
<text text-anchor="start" x="369" y="-29.5" font-family="Helvetica,sans-Serif" font-size="10.00">softwarecontainer::</text>
<text text-anchor="start" x="369" y="-18.5" font-family="Helvetica,sans-Serif" font-size="10.00">SoftwareContainer::updateGateway</text>
<text text-anchor="middle" x="454" y="-7.5" font-family="Helvetica,sans-Serif" font-size="10.00">Configuration</text>
</a>
</g>
</g>
<!-- Node2&#45;&gt;Node3 -->
<g id="edge2" class="edge"><title>Node2&#45;&gt;Node3</title>
<path fill="none" stroke="midnightblue" d="M335.363,-21C343.841,-21 352.428,-21 360.899,-21"/>
<polygon fill="midnightblue" stroke="midnightblue" points="335.091,-17.5001 325.091,-21 335.091,-24.5001 335.091,-17.5001"/>
</g>
<!-- Node4 -->
<g id="node4" class="node"><title>Node4</title>
<g id="a_node4"><a xlink:href="classsoftwarecontainer_1_1_software_container_agent.html#ae19799cb9be607a08a674179713adcf8" target="_top" xlink:title="Set configuration for the container gateways. ">
<polygon fill="white" stroke="black" points="583,-0.5 583,-41.5 717,-41.5 717,-0.5 583,-0.5"/>
<text text-anchor="start" x="591" y="-29.5" font-family="Helvetica,sans-Serif" font-size="10.00">softwarecontainer::</text>
<text text-anchor="start" x="591" y="-18.5" font-family="Helvetica,sans-Serif" font-size="10.00">SoftwareContainerAgent</text>
<text text-anchor="middle" x="650" y="-7.5" font-family="Helvetica,sans-Serif" font-size="10.00">::setGatewayConfigs</text>
</a>
</g>
</g>
<!-- Node3&#45;&gt;Node4 -->
<g id="edge3" class="edge"><title>Node3&#45;&gt;Node4</title>
<path fill="none" stroke="midnightblue" d="M557.324,-21C565.965,-21 574.549,-21 582.802,-21"/>
<polygon fill="midnightblue" stroke="midnightblue" points="557.171,-17.5001 547.171,-21 557.171,-24.5001 557.171,-17.5001"/>
</g>
</g>
</svg>
