<?xml version="1.0" encoding="UTF-8" standalone="no"?>
<!DOCTYPE svg PUBLIC "-//W3C//DTD SVG 1.1//EN"
 "http://www.w3.org/Graphics/SVG/1.1/DTD/svg11.dtd">
<!-- Generated by graphviz version 2.38.0 (20140413.2041)
 -->
<!-- Title: Gateway::hasContainer Pages: 1 -->
<svg width="944pt" height="139pt"
 viewBox="0.00 0.00 944.00 139.00" xmlns="http://www.w3.org/2000/svg" xmlns:xlink="http://www.w3.org/1999/xlink">
<g id="graph0" class="graph" transform="scale(1 1) rotate(0) translate(4 135)">
<title>Gateway::hasContainer</title>
<polygon fill="white" stroke="none" points="-4,4 -4,-135 940,-135 940,4 -4,4"/>
<!-- Node1 -->
<g id="node1" class="node"><title>Node1</title>
<polygon fill="#bfbfbf" stroke="black" points="0,-62.5 0,-81.5 127,-81.5 127,-62.5 0,-62.5"/>
<text text-anchor="middle" x="63.5" y="-69.5" font-family="Helvetica,sans-Serif" font-size="10.00">Gateway::hasContainer</text>
</g>
<!-- Node2 -->
<g id="node2" class="node"><title>Node2</title>
<g id="a_node2"><a xlink:href="class_gateway.html#aac80886a35b80d8003051e6926b59937" target="_top" xlink:title="Applies any configuration set by setConfig() ">
<polygon fill="white" stroke="black" points="201,-100.5 201,-119.5 302,-119.5 302,-100.5 201,-100.5"/>
<text text-anchor="middle" x="251.5" y="-107.5" font-family="Helvetica,sans-Serif" font-size="10.00">Gateway::activate</text>
</a>
</g>
</g>
<!-- Node1&#45;&gt;Node2 -->
<g id="edge1" class="edge"><title>Node1&#45;&gt;Node2</title>
<path fill="none" stroke="midnightblue" d="M121.325,-83.6095C147.779,-89.014 178.858,-95.3635 203.902,-100.48"/>
<polygon fill="midnightblue" stroke="midnightblue" points="121.934,-80.1616 111.436,-81.589 120.533,-87.0199 121.934,-80.1616"/>
</g>
<!-- Node6 -->
<g id="node6" class="node"><title>Node6</title>
<g id="a_node6"><a xlink:href="class_gateway.html#a77348e5ce86b82302764b10e3203b42c" target="_top" xlink:title="Execute the given command in the container. ">
<polygon fill="white" stroke="black" points="173.5,-62.5 173.5,-81.5 329.5,-81.5 329.5,-62.5 173.5,-62.5"/>
<text text-anchor="middle" x="251.5" y="-69.5" font-family="Helvetica,sans-Serif" font-size="10.00">Gateway::executeInContainer</text>
</a>
</g>
</g>
<!-- Node1&#45;&gt;Node6 -->
<g id="edge5" class="edge"><title>Node1&#45;&gt;Node6</title>
<path fill="none" stroke="midnightblue" d="M137.403,-72C149.155,-72 161.357,-72 173.208,-72"/>
<polygon fill="midnightblue" stroke="midnightblue" points="137.212,-68.5001 127.212,-72 137.212,-75.5001 137.212,-68.5001"/>
</g>
<!-- Node7 -->
<g id="node7" class="node"><title>Node7</title>
<g id="a_node7"><a xlink:href="class_gateway.html#a828b2dfa811c7fcce82d34b502e65112" target="_top" xlink:title="Set an environment variable in the associated container. ">
<polygon fill="white" stroke="black" points="163,-24.5 163,-43.5 340,-43.5 340,-24.5 163,-24.5"/>
<text text-anchor="middle" x="251.5" y="-31.5" font-family="Helvetica,sans-Serif" font-size="10.00">Gateway::setEnvironmentVariable</text>
</a>
</g>
</g>
<!-- Node1&#45;&gt;Node7 -->
<g id="edge6" class="edge"><title>Node1&#45;&gt;Node7</title>
<path fill="none" stroke="midnightblue" d="M121.325,-60.3905C147.779,-54.986 178.858,-48.6365 203.902,-43.5201"/>
<polygon fill="midnightblue" stroke="midnightblue" points="120.533,-56.9801 111.436,-62.411 121.934,-63.8384 120.533,-56.9801"/>
</g>
<!-- Node3 -->
<g id="node3" class="node"><title>Node3</title>
<g id="a_node3"><a xlink:href="classsoftwarecontainer_1_1_software_container.html#af928f299cf15ecda5f625eaecd518f57" target="_top" xlink:title="Set the gateway configuration and activate them. ">
<polygon fill="white" stroke="black" points="376.5,-89.5 376.5,-130.5 543.5,-130.5 543.5,-89.5 376.5,-89.5"/>
<text text-anchor="start" x="384.5" y="-118.5" font-family="Helvetica,sans-Serif" font-size="10.00">softwarecontainer::</text>
<text text-anchor="start" x="384.5" y="-107.5" font-family="Helvetica,sans-Serif" font-size="10.00">SoftwareContainer::setGateway</text>
<text text-anchor="middle" x="460" y="-96.5" font-family="Helvetica,sans-Serif" font-size="10.00">Configs</text>
</a>
</g>
</g>
<!-- Node2&#45;&gt;Node3 -->
<g id="edge2" class="edge"><title>Node2&#45;&gt;Node3</title>
<path fill="none" stroke="midnightblue" d="M312.391,-110C332.33,-110 354.905,-110 376.26,-110"/>
<polygon fill="midnightblue" stroke="midnightblue" points="312.225,-106.5 302.225,-110 312.225,-113.5 312.225,-106.5"/>
</g>
<!-- Node4 -->
<g id="node4" class="node"><title>Node4</title>
<g id="a_node4"><a xlink:href="classsoftwarecontainer_1_1_software_container.html#a7db71d975b5bbfebe48e50769cf726b9" target="_top" xlink:title="Continues the &#39;launch&#39; phase by allowing gateway configurations to be set. ">
<polygon fill="white" stroke="black" points="580,-89.5 580,-130.5 766,-130.5 766,-89.5 580,-89.5"/>
<text text-anchor="start" x="588" y="-118.5" font-family="Helvetica,sans-Serif" font-size="10.00">softwarecontainer::</text>
<text text-anchor="start" x="588" y="-107.5" font-family="Helvetica,sans-Serif" font-size="10.00">SoftwareContainer::updateGateway</text>
<text text-anchor="middle" x="673" y="-96.5" font-family="Helvetica,sans-Serif" font-size="10.00">Configuration</text>
</a>
</g>
</g>
<!-- Node3&#45;&gt;Node4 -->
<g id="edge3" class="edge"><title>Node3&#45;&gt;Node4</title>
<path fill="none" stroke="midnightblue" d="M553.804,-110C562.393,-110 571.096,-110 579.68,-110"/>
<polygon fill="midnightblue" stroke="midnightblue" points="553.787,-106.5 543.787,-110 553.787,-113.5 553.787,-106.5"/>
</g>
<!-- Node5 -->
<g id="node5" class="node"><title>Node5</title>
<g id="a_node5"><a xlink:href="classsoftwarecontainer_1_1_software_container_agent.html#ae19799cb9be607a08a674179713adcf8" target="_top" xlink:title="Set configuration for the container gateways. ">
<polygon fill="white" stroke="black" points="802,-89.5 802,-130.5 936,-130.5 936,-89.5 802,-89.5"/>
<text text-anchor="start" x="810" y="-118.5" font-family="Helvetica,sans-Serif" font-size="10.00">softwarecontainer::</text>
<text text-anchor="start" x="810" y="-107.5" font-family="Helvetica,sans-Serif" font-size="10.00">SoftwareContainerAgent</text>
<text text-anchor="middle" x="869" y="-96.5" font-family="Helvetica,sans-Serif" font-size="10.00">::setGatewayConfigs</text>
</a>
</g>
</g>
<!-- Node4&#45;&gt;Node5 -->
<g id="edge4" class="edge"><title>Node4&#45;&gt;Node5</title>
<path fill="none" stroke="midnightblue" d="M776.324,-110C784.965,-110 793.549,-110 801.802,-110"/>
<polygon fill="midnightblue" stroke="midnightblue" points="776.171,-106.5 766.171,-110 776.171,-113.5 776.171,-106.5"/>
</g>
<!-- Node8 -->
<g id="node8" class="node"><title>Node8</title>
<g id="a_node8"><a xlink:href="class_pulse_gateway.html#a2ffb6fc3e0d690830fa4612111a60985" target="_top" xlink:title="Implements Gateway::activateGateway. ">
<polygon fill="white" stroke="black" points="376,-38.5 376,-57.5 544,-57.5 544,-38.5 376,-38.5"/>
<text text-anchor="middle" x="460" y="-45.5" font-family="Helvetica,sans-Serif" font-size="10.00">PulseGateway::activateGateway</text>
</a>
</g>
</g>
<!-- Node7&#45;&gt;Node8 -->
<g id="edge7" class="edge"><title>Node7&#45;&gt;Node8</title>
<path fill="none" stroke="midnightblue" d="M350.144,-40.62C358.755,-41.2037 367.418,-41.791 375.892,-42.3656"/>
<polygon fill="midnightblue" stroke="midnightblue" points="350.288,-37.1218 340.075,-39.9373 349.815,-44.1058 350.288,-37.1218"/>
</g>
<!-- Node9 -->
<g id="node9" class="node"><title>Node9</title>
<g id="a_node9"><a xlink:href="class_d_bus_gateway.html#ab974b6b05b985d64ba5609c64e8b13fb" target="_top" xlink:title="Implements Gateway::activateGateway. ">
<polygon fill="white" stroke="black" points="376,-0.5 376,-19.5 544,-19.5 544,-0.5 376,-0.5"/>
<text text-anchor="middle" x="460" y="-7.5" font-family="Helvetica,sans-Serif" font-size="10.00">DBusGateway::activateGateway</text>
</a>
</g>
</g>
<!-- Node7&#45;&gt;Node9 -->
<g id="edge8" class="edge"><title>Node7&#45;&gt;Node9</title>
<path fill="none" stroke="midnightblue" d="M344.385,-23.3209C355.313,-22.0508 366.414,-20.7606 377.188,-19.5084"/>
<polygon fill="midnightblue" stroke="midnightblue" points="343.94,-19.849 334.411,-24.4801 344.748,-26.8021 343.94,-19.849"/>
</g>
</g>
</svg>
