<?xml version="1.0" encoding="UTF-8" standalone="no"?>
<!DOCTYPE svg PUBLIC "-//W3C//DTD SVG 1.1//EN"
 "http://www.w3.org/Graphics/SVG/1.1/DTD/svg11.dtd">
<!-- Generated by graphviz version 2.38.0 (20140413.2041)
 -->
<!-- Title: softwarecontainer::FileToolkitWithUndo::pathInList Pages: 1 -->
<svg width="576pt" height="218pt"
 viewBox="0.00 0.00 576.00 218.00" xmlns="http://www.w3.org/2000/svg" xmlns:xlink="http://www.w3.org/1999/xlink">
<g id="graph0" class="graph" transform="scale(1 1) rotate(0) translate(4 214)">
<title>softwarecontainer::FileToolkitWithUndo::pathInList</title>
<polygon fill="white" stroke="none" points="-4,4 -4,-214 572,-214 572,4 -4,4"/>
<!-- Node1 -->
<g id="node1" class="node"><title>Node1</title>
<polygon fill="#bfbfbf" stroke="black" points="0,-60.5 0,-101.5 105,-101.5 105,-60.5 0,-60.5"/>
<text text-anchor="start" x="8" y="-89.5" font-family="Helvetica,sans-Serif" font-size="10.00">softwarecontainer::</text>
<text text-anchor="start" x="8" y="-78.5" font-family="Helvetica,sans-Serif" font-size="10.00">FileToolkitWithUndo</text>
<text text-anchor="middle" x="52.5" y="-67.5" font-family="Helvetica,sans-Serif" font-size="10.00">::pathInList</text>
</g>
<!-- Node2 -->
<g id="node2" class="node"><title>Node2</title>
<g id="a_node2"><a xlink:href="classsoftwarecontainer_1_1_file_toolkit_with_undo.html#aff5073fb683649d6753baae354d202b9" target="_top" xlink:title="createDirectory Create a directory, and if successful append it to a list of dirs to be deleted in th...">
<polygon fill="white" stroke="black" points="141,-111.5 141,-152.5 246,-152.5 246,-111.5 141,-111.5"/>
<text text-anchor="start" x="149" y="-140.5" font-family="Helvetica,sans-Serif" font-size="10.00">softwarecontainer::</text>
<text text-anchor="start" x="149" y="-129.5" font-family="Helvetica,sans-Serif" font-size="10.00">FileToolkitWithUndo</text>
<text text-anchor="middle" x="193.5" y="-118.5" font-family="Helvetica,sans-Serif" font-size="10.00">::createDirectory</text>
</a>
</g>
</g>
<!-- Node1&#45;&gt;Node2 -->
<g id="edge1" class="edge"><title>Node1&#45;&gt;Node2</title>
<path fill="none" stroke="midnightblue" d="M114.885,-103.523C123.501,-106.684 132.285,-109.907 140.698,-112.994"/>
<polygon fill="midnightblue" stroke="midnightblue" points="115.852,-100.149 105.258,-99.9905 113.441,-106.721 115.852,-100.149"/>
</g>
<!-- Node5 -->
<g id="node5" class="node"><title>Node5</title>
<g id="a_node5"><a xlink:href="classsoftwarecontainer_1_1_file_toolkit_with_undo.html#ab46eccba563b861f100d9ce7fa9ca4d6" target="_top" xlink:title="overlayMount Mount a directory with an overlay on top of it. ">
<polygon fill="white" stroke="black" points="304.5,-60.5 304.5,-101.5 409.5,-101.5 409.5,-60.5 304.5,-60.5"/>
<text text-anchor="start" x="312.5" y="-89.5" font-family="Helvetica,sans-Serif" font-size="10.00">softwarecontainer::</text>
<text text-anchor="start" x="312.5" y="-78.5" font-family="Helvetica,sans-Serif" font-size="10.00">FileToolkitWithUndo</text>
<text text-anchor="middle" x="357" y="-67.5" font-family="Helvetica,sans-Serif" font-size="10.00">::overlayMount</text>
</a>
</g>
</g>
<!-- Node1&#45;&gt;Node5 -->
<g id="edge6" class="edge"><title>Node1&#45;&gt;Node5</title>
<path fill="none" stroke="midnightblue" d="M115.252,-81C170.952,-81 251.944,-81 304.302,-81"/>
<polygon fill="midnightblue" stroke="midnightblue" points="115.158,-77.5001 105.158,-81 115.158,-84.5001 115.158,-77.5001"/>
</g>
<!-- Node7 -->
<g id="node7" class="node"><title>Node7</title>
<g id="a_node7"><a xlink:href="classsoftwarecontainer_1_1_file_toolkit_with_undo.html#a649391903bf1a0eec92c829713117a74" target="_top" xlink:title="tempDir Creates a temporary directory at templatePath. ">
<polygon fill="white" stroke="black" points="141,-6.5 141,-47.5 246,-47.5 246,-6.5 141,-6.5"/>
<text text-anchor="start" x="149" y="-35.5" font-family="Helvetica,sans-Serif" font-size="10.00">softwarecontainer::</text>
<text text-anchor="start" x="149" y="-24.5" font-family="Helvetica,sans-Serif" font-size="10.00">FileToolkitWithUndo</text>
<text text-anchor="middle" x="193.5" y="-13.5" font-family="Helvetica,sans-Serif" font-size="10.00">::tempDir</text>
</a>
</g>
</g>
<!-- Node1&#45;&gt;Node7 -->
<g id="edge7" class="edge"><title>Node1&#45;&gt;Node7</title>
<path fill="none" stroke="midnightblue" d="M114.607,-57.2604C123.312,-53.8789 132.194,-50.4281 140.698,-47.1244"/>
<polygon fill="midnightblue" stroke="midnightblue" points="113.312,-54.0086 105.258,-60.8924 115.847,-60.5336 113.312,-54.0086"/>
</g>
<!-- Node3 -->
<g id="node3" class="node"><title>Node3</title>
<g id="a_node3"><a xlink:href="classsoftwarecontainer_1_1_device_node_gateway.html#a9e912027cad4fff3ed4d9a9581f45227" target="_top" xlink:title="Implements Gateway::activateGateway. ">
<polygon fill="white" stroke="black" points="282,-168.5 282,-209.5 432,-209.5 432,-168.5 282,-168.5"/>
<text text-anchor="start" x="290" y="-197.5" font-family="Helvetica,sans-Serif" font-size="10.00">softwarecontainer::</text>
<text text-anchor="start" x="290" y="-186.5" font-family="Helvetica,sans-Serif" font-size="10.00">DeviceNodeGateway::activate</text>
<text text-anchor="middle" x="357" y="-175.5" font-family="Helvetica,sans-Serif" font-size="10.00">Gateway</text>
</a>
</g>
</g>
<!-- Node2&#45;&gt;Node3 -->
<g id="edge2" class="edge"><title>Node2&#45;&gt;Node3</title>
<path fill="none" stroke="midnightblue" d="M255.861,-153.657C269.568,-158.495 284.068,-163.612 297.65,-168.406"/>
<polygon fill="midnightblue" stroke="midnightblue" points="256.638,-150.22 246.044,-150.192 254.309,-156.821 256.638,-150.22"/>
</g>
<!-- Node4 -->
<g id="node4" class="node"><title>Node4</title>
<g id="a_node4"><a xlink:href="classsoftwarecontainer_1_1_container.html#a8461f293ef5db5ee5fbdeddd24f36214" target="_top" xlink:title="Setup the container for startup. ">
<polygon fill="white" stroke="black" points="307,-120 307,-150 407,-150 407,-120 307,-120"/>
<text text-anchor="start" x="315" y="-138" font-family="Helvetica,sans-Serif" font-size="10.00">softwarecontainer::</text>
<text text-anchor="middle" x="357" y="-127" font-family="Helvetica,sans-Serif" font-size="10.00">Container::initialize</text>
</a>
</g>
</g>
<!-- Node2&#45;&gt;Node4 -->
<g id="edge3" class="edge"><title>Node2&#45;&gt;Node4</title>
<path fill="none" stroke="midnightblue" d="M256.291,-133.148C273.034,-133.459 290.929,-133.791 306.871,-134.087"/>
<polygon fill="midnightblue" stroke="midnightblue" points="256.107,-129.644 246.044,-132.957 255.977,-136.643 256.107,-129.644"/>
</g>
<!-- Node2&#45;&gt;Node5 -->
<g id="edge4" class="edge"><title>Node2&#45;&gt;Node5</title>
<path fill="none" stroke="midnightblue" d="M255.847,-112.627C271.855,-107.572 288.945,-102.175 304.392,-97.2972"/>
<polygon fill="midnightblue" stroke="midnightblue" points="254.525,-109.374 246.044,-115.723 256.633,-116.049 254.525,-109.374"/>
</g>
<!-- Node6 -->
<g id="node6" class="node"><title>Node6</title>
<g id="a_node6"><a xlink:href="classsoftwarecontainer_1_1_container.html#a6c57689a4a21b8c9342c53c7e8743203" target="_top" xlink:title="create Creates a new lxc_container and creates it with all the initialization. ">
<polygon fill="white" stroke="black" points="468,-66 468,-96 568,-96 568,-66 468,-66"/>
<text text-anchor="start" x="476" y="-84" font-family="Helvetica,sans-Serif" font-size="10.00">softwarecontainer::</text>
<text text-anchor="middle" x="518" y="-73" font-family="Helvetica,sans-Serif" font-size="10.00">Container::create</text>
</a>
</g>
</g>
<!-- Node5&#45;&gt;Node6 -->
<g id="edge5" class="edge"><title>Node5&#45;&gt;Node6</title>
<path fill="none" stroke="midnightblue" d="M419.891,-81C435.777,-81 452.651,-81 467.799,-81"/>
<polygon fill="midnightblue" stroke="midnightblue" points="419.623,-77.5001 409.623,-81 419.623,-84.5001 419.623,-77.5001"/>
</g>
<!-- Node8 -->
<g id="node8" class="node"><title>Node8</title>
<g id="a_node8"><a xlink:href="classsoftwarecontainer_1_1_file_toolkit_with_undo.html#a33c6fa5ecfb8e370ae8bb6aedf568336" target="_top" xlink:title="bindMount Bind mount a src directory to another position dst. ">
<polygon fill="white" stroke="black" points="304.5,-0.5 304.5,-41.5 409.5,-41.5 409.5,-0.5 304.5,-0.5"/>
<text text-anchor="start" x="312.5" y="-29.5" font-family="Helvetica,sans-Serif" font-size="10.00">softwarecontainer::</text>
<text text-anchor="start" x="312.5" y="-18.5" font-family="Helvetica,sans-Serif" font-size="10.00">FileToolkitWithUndo</text>
<text text-anchor="middle" x="357" y="-7.5" font-family="Helvetica,sans-Serif" font-size="10.00">::bindMount</text>
</a>
</g>
</g>
<!-- Node7&#45;&gt;Node8 -->
<g id="edge8" class="edge"><title>Node7&#45;&gt;Node8</title>
<path fill="none" stroke="midnightblue" d="M256.3,-24.704C272.178,-24.1141 289.091,-23.4858 304.392,-22.9173"/>
<polygon fill="midnightblue" stroke="midnightblue" points="255.907,-21.2161 246.044,-25.0851 256.167,-28.2113 255.907,-21.2161"/>
</g>
</g>
</svg>
