<?xml version="1.0" encoding="UTF-8" standalone="no"?>
<!DOCTYPE svg PUBLIC "-//W3C//DTD SVG 1.1//EN"
 "http://www.w3.org/Graphics/SVG/1.1/DTD/svg11.dtd">
<!-- Generated by graphviz version 2.38.0 (20140413.2041)
 -->
<!-- Title: softwarecontainer::Config::getBooleanValue Pages: 1 -->
<svg width="298pt" height="99pt"
 viewBox="0.00 0.00 298.00 98.50" xmlns="http://www.w3.org/2000/svg" xmlns:xlink="http://www.w3.org/1999/xlink">
<g id="graph0" class="graph" transform="scale(1 1) rotate(0) translate(4 94.5)">
<title>softwarecontainer::Config::getBooleanValue</title>
<polygon fill="white" stroke="none" points="-4,4 -4,-94.5 294,-94.5 294,4 -4,4"/>
<!-- Node1 -->
<g id="node1" class="node"><title>Node1</title>
<polygon fill="#bfbfbf" stroke="black" points="0,-33 0,-63 125,-63 125,-33 0,-33"/>
<text text-anchor="start" x="8" y="-51" font-family="Helvetica,sans-Serif" font-size="10.00">softwarecontainer::</text>
<text text-anchor="middle" x="62.5" y="-40" font-family="Helvetica,sans-Serif" font-size="10.00">Config::getBooleanValue</text>
</g>
<!-- Node2 -->
<g id="node2" class="node"><title>Node2</title>
<g id="a_node2"><a xlink:href="classsoftwarecontainer_1_1_config.html#ab29be3ef62031785b579172cd4c16f23" target="_top" xlink:title="TODO: Find a way to reuse parts of above comment. ">
<polygon fill="white" stroke="black" points="175.5,-60 175.5,-90 275.5,-90 275.5,-60 175.5,-60"/>
<text text-anchor="start" x="183.5" y="-78" font-family="Helvetica,sans-Serif" font-size="10.00">softwarecontainer::</text>
<text text-anchor="middle" x="225.5" y="-67" font-family="Helvetica,sans-Serif" font-size="10.00">Config::Config</text>
</a>
</g>
</g>
<!-- Node1&#45;&gt;Node2 -->
<g id="edge1" class="edge"><title>Node1&#45;&gt;Node2</title>
<path fill="none" stroke="midnightblue" d="M135.505,-60.0753C148.983,-62.3356 162.782,-64.6497 175.368,-66.7604"/>
<polygon fill="midnightblue" stroke="midnightblue" points="135.728,-56.5639 125.286,-58.3617 134.57,-63.4675 135.728,-56.5639"/>
</g>
<!-- Node3 -->
<g id="node3" class="node"><title>Node3</title>
<g id="a_node3"><a xlink:href="classsoftwarecontainer_1_1_software_container_agent.html#accd6bd43a175d6b59be24c1172b5de5f" target="_top" xlink:title="creates a new agent object and runs some initialization ">
<polygon fill="white" stroke="black" points="161,-0.5 161,-41.5 290,-41.5 290,-0.5 161,-0.5"/>
<text text-anchor="start" x="169" y="-29.5" font-family="Helvetica,sans-Serif" font-size="10.00">softwarecontainer::</text>
<text text-anchor="start" x="169" y="-18.5" font-family="Helvetica,sans-Serif" font-size="10.00">SoftwareContainerAgent</text>
<text text-anchor="middle" x="225.5" y="-7.5" font-family="Helvetica,sans-Serif" font-size="10.00">::SoftwareContainerAgent</text>
</a>
</g>
</g>
<!-- Node1&#45;&gt;Node3 -->
<g id="edge2" class="edge"><title>Node1&#45;&gt;Node3</title>
<path fill="none" stroke="midnightblue" d="M135.195,-35.9765C143.708,-34.5489 152.354,-33.099 160.746,-31.6917"/>
<polygon fill="midnightblue" stroke="midnightblue" points="134.57,-32.5325 125.286,-37.6383 135.728,-39.4361 134.57,-32.5325"/>
</g>
</g>
</svg>
