<?xml version="1.0" encoding="UTF-8" standalone="no"?>
<!DOCTYPE svg PUBLIC "-//W3C//DTD SVG 1.1//EN"
 "http://www.w3.org/Graphics/SVG/1.1/DTD/svg11.dtd">
<!-- Generated by graphviz version 2.38.0 (20140413.2041)
 -->
<!-- Title: ObservableWritableProperty&lt; Type &gt; Pages: 1 -->
<svg width="165pt" height="185pt"
 viewBox="0.00 0.00 164.50 185.00" xmlns="http://www.w3.org/2000/svg" xmlns:xlink="http://www.w3.org/1999/xlink">
<g id="graph0" class="graph" transform="scale(1 1) rotate(0) translate(4 181)">
<title>ObservableWritableProperty&lt; Type &gt;</title>
<polygon fill="white" stroke="none" points="-4,4 -4,-181 160.5,-181 160.5,4 -4,4"/>
<!-- Node1 -->
<g id="node1" class="node"><title>Node1</title>
<polygon fill="#bfbfbf" stroke="black" points="0,-78.5 0,-108.5 139,-108.5 139,-78.5 0,-78.5"/>
<text text-anchor="start" x="8" y="-96.5" font-family="Helvetica,sans-Serif" font-size="10.00">ObservableWritableProperty</text>
<text text-anchor="middle" x="69.5" y="-85.5" font-family="Helvetica,sans-Serif" font-size="10.00">&lt; Type &gt;</text>
</g>
<!-- Node3 -->
<g id="node3" class="node"><title>Node3</title>
<g id="a_node3"><a xlink:href="class_observable_writable_property.html" target="_top" xlink:title="ObservableWritableProperty\l\&lt; ContainerState \&gt;">
<polygon fill="white" stroke="black" points="0,-0.5 0,-30.5 139,-30.5 139,-0.5 0,-0.5"/>
<text text-anchor="start" x="8" y="-18.5" font-family="Helvetica,sans-Serif" font-size="10.00">ObservableWritableProperty</text>
<text text-anchor="middle" x="69.5" y="-7.5" font-family="Helvetica,sans-Serif" font-size="10.00">&lt; ContainerState &gt;</text>
</a>
</g>
</g>
<!-- Node1&#45;&gt;Node3 -->
<g id="edge2" class="edge"><title>Node1&#45;&gt;Node3</title>
<path fill="none" stroke="orange" stroke-dasharray="5,2" d="M69.5,-68.0898C69.5,-55.7565 69.5,-41.2237 69.5,-30.7309"/>
<polygon fill="orange" stroke="orange" points="66.0001,-68.2049 69.5,-78.205 73.0001,-68.205 66.0001,-68.2049"/>
<text text-anchor="middle" x="113" y="-52" font-family="Helvetica,sans-Serif" font-size="10.00"> &lt; ContainerState &gt;</text>
</g>
<!-- Node2 -->
<g id="node2" class="node"><title>Node2</title>
<g id="a_node2"><a xlink:href="class_observable_property.html" target="_top" xlink:title="ObservableProperty\l\&lt; Type \&gt;">
<polygon fill="white" stroke="black" points="18,-146.5 18,-176.5 121,-176.5 121,-146.5 18,-146.5"/>
<text text-anchor="start" x="26" y="-164.5" font-family="Helvetica,sans-Serif" font-size="10.00">ObservableProperty</text>
<text text-anchor="middle" x="69.5" y="-153.5" font-family="Helvetica,sans-Serif" font-size="10.00">&lt; Type &gt;</text>
</a>
</g>
</g>
<!-- Node2&#45;&gt;Node1 -->
<g id="edge1" class="edge"><title>Node2&#45;&gt;Node1</title>
<path fill="none" stroke="midnightblue" d="M69.5,-136.032C69.5,-126.861 69.5,-116.745 69.5,-108.793"/>
<polygon fill="midnightblue" stroke="midnightblue" points="66.0001,-136.179 69.5,-146.179 73.0001,-136.179 66.0001,-136.179"/>
</g>
</g>
</svg>
