<?xml version="1.0" encoding="UTF-8" standalone="no"?>
<!DOCTYPE svg PUBLIC "-//W3C//DTD SVG 1.1//EN"
 "http://www.w3.org/Graphics/SVG/1.1/DTD/svg11.dtd">
<!-- Generated by graphviz version 2.38.0 (20140413.2041)
 -->
<!-- Title: Gateway Pages: 1 -->
<svg width="365pt" height="294pt"
 viewBox="0.00 0.00 365.00 294.00" xmlns="http://www.w3.org/2000/svg" xmlns:xlink="http://www.w3.org/1999/xlink">
<g id="graph0" class="graph" transform="scale(1 1) rotate(0) translate(4 290)">
<title>Gateway</title>
<polygon fill="white" stroke="none" points="-4,4 -4,-290 361,-290 361,4 -4,4"/>
<!-- Node1 -->
<g id="node1" class="node"><title>Node1</title>
<polygon fill="#bfbfbf" stroke="black" points="144,-133.5 144,-152.5 202,-152.5 202,-133.5 144,-133.5"/>
<text text-anchor="middle" x="173" y="-140.5" font-family="Helvetica,sans-Serif" font-size="10.00">Gateway</text>
</g>
<!-- Node3 -->
<g id="node3" class="node"><title>Node3</title>
<g id="a_node3"><a xlink:href="class_cgroups_gateway.html" target="_top" xlink:title="The cgroups gateway sets cgroups related settings for the container. ">
<polygon fill="white" stroke="black" points="248.5,-266.5 248.5,-285.5 346.5,-285.5 346.5,-266.5 248.5,-266.5"/>
<text text-anchor="middle" x="297.5" y="-273.5" font-family="Helvetica,sans-Serif" font-size="10.00">CgroupsGateway</text>
</a>
</g>
</g>
<!-- Node1&#45;&gt;Node3 -->
<g id="edge2" class="edge"><title>Node1&#45;&gt;Node3</title>
<path fill="none" stroke="midnightblue" d="M179.811,-162.075C188.468,-187.353 207.128,-231.694 238,-257 242.707,-260.859 248.219,-263.941 253.943,-266.401"/>
<polygon fill="midnightblue" stroke="midnightblue" points="183.126,-160.95 176.707,-152.52 176.468,-163.112 183.126,-160.95"/>
</g>
<!-- Node4 -->
<g id="node4" class="node"><title>Node4</title>
<g id="a_node4"><a xlink:href="class_d_bus_gateway.html" target="_top" xlink:title="DBus Gateway takes care of spawning and killing the DBus proxies. ">
<polygon fill="white" stroke="black" points="256,-228.5 256,-247.5 339,-247.5 339,-228.5 256,-228.5"/>
<text text-anchor="middle" x="297.5" y="-235.5" font-family="Helvetica,sans-Serif" font-size="10.00">DBusGateway</text>
</a>
</g>
</g>
<!-- Node1&#45;&gt;Node4 -->
<g id="edge3" class="edge"><title>Node1&#45;&gt;Node4</title>
<path fill="none" stroke="midnightblue" d="M185.063,-161.266C196.364,-178.468 215.422,-203.802 238,-219 243.669,-222.816 250.16,-225.912 256.708,-228.409"/>
<polygon fill="midnightblue" stroke="midnightblue" points="187.919,-159.235 179.61,-152.662 182.007,-162.982 187.919,-159.235"/>
</g>
<!-- Node5 -->
<g id="node5" class="node"><title>Node5</title>
<g id="a_node5"><a xlink:href="class_device_node_gateway.html" target="_top" xlink:title="This gateway is responsible for exposing device nodes in an LXC container. ">
<polygon fill="white" stroke="black" points="239.5,-190.5 239.5,-209.5 355.5,-209.5 355.5,-190.5 239.5,-190.5"/>
<text text-anchor="middle" x="297.5" y="-197.5" font-family="Helvetica,sans-Serif" font-size="10.00">DeviceNodeGateway</text>
</a>
</g>
</g>
<!-- Node1&#45;&gt;Node5 -->
<g id="edge4" class="edge"><title>Node1&#45;&gt;Node5</title>
<path fill="none" stroke="midnightblue" d="M196.701,-158.156C208.647,-165.694 223.74,-174.547 238,-181 245.783,-184.522 254.415,-187.698 262.604,-190.401"/>
<polygon fill="midnightblue" stroke="midnightblue" points="198.548,-155.182 188.245,-152.71 194.757,-161.067 198.548,-155.182"/>
</g>
<!-- Node6 -->
<g id="node6" class="node"><title>Node6</title>
<g id="a_node6"><a xlink:href="class_environment_gateway.html" target="_top" xlink:title="Environment Gateway is used to define environment variables to the container. ">
<polygon fill="white" stroke="black" points="238,-152.5 238,-171.5 357,-171.5 357,-152.5 238,-152.5"/>
<text text-anchor="middle" x="297.5" y="-159.5" font-family="Helvetica,sans-Serif" font-size="10.00">EnvironmentGateway</text>
</a>
</g>
</g>
<!-- Node1&#45;&gt;Node6 -->
<g id="edge5" class="edge"><title>Node1&#45;&gt;Node6</title>
<path fill="none" stroke="midnightblue" d="M211.989,-148.892C220.104,-150.151 228.859,-151.509 237.553,-152.857"/>
<polygon fill="midnightblue" stroke="midnightblue" points="212.522,-145.433 202.104,-147.359 211.449,-152.35 212.522,-145.433"/>
</g>
<!-- Node7 -->
<g id="node7" class="node"><title>Node7</title>
<g id="a_node7"><a xlink:href="class_file_gateway.html" target="_top" xlink:title="This gateway lets you map files (including socket files) or folders from the host into the container&#39;...">
<polygon fill="white" stroke="black" points="261,-114.5 261,-133.5 334,-133.5 334,-114.5 261,-114.5"/>
<text text-anchor="middle" x="297.5" y="-121.5" font-family="Helvetica,sans-Serif" font-size="10.00">FileGateway</text>
</a>
</g>
</g>
<!-- Node1&#45;&gt;Node7 -->
<g id="edge6" class="edge"><title>Node1&#45;&gt;Node7</title>
<path fill="none" stroke="midnightblue" d="M212.357,-137.051C227.773,-134.66 245.449,-131.918 260.608,-129.567"/>
<polygon fill="midnightblue" stroke="midnightblue" points="211.449,-133.65 202.104,-138.641 212.522,-140.567 211.449,-133.65"/>
</g>
<!-- Node8 -->
<g id="node8" class="node"><title>Node8</title>
<g id="a_node8"><a xlink:href="class_network_gateway.html" target="_top" xlink:title="Sets up and manages network access and routing to the container. ">
<polygon fill="white" stroke="black" points="249,-76.5 249,-95.5 346,-95.5 346,-76.5 249,-76.5"/>
<text text-anchor="middle" x="297.5" y="-83.5" font-family="Helvetica,sans-Serif" font-size="10.00">NetworkGateway</text>
</a>
</g>
</g>
<!-- Node1&#45;&gt;Node8 -->
<g id="edge7" class="edge"><title>Node1&#45;&gt;Node8</title>
<path fill="none" stroke="midnightblue" d="M196.701,-127.844C208.647,-120.306 223.74,-111.453 238,-105 245.783,-101.478 254.415,-98.3021 262.604,-95.5995"/>
<polygon fill="midnightblue" stroke="midnightblue" points="194.757,-124.933 188.245,-133.29 198.548,-130.818 194.757,-124.933"/>
</g>
<!-- Node9 -->
<g id="node9" class="node"><title>Node9</title>
<g id="a_node9"><a xlink:href="class_pulse_gateway.html" target="_top" xlink:title="The PulseAudio Gateway is used to provide access to the host system PulseAudio server. ">
<polygon fill="white" stroke="black" points="256,-38.5 256,-57.5 339,-57.5 339,-38.5 256,-38.5"/>
<text text-anchor="middle" x="297.5" y="-45.5" font-family="Helvetica,sans-Serif" font-size="10.00">PulseGateway</text>
</a>
</g>
</g>
<!-- Node1&#45;&gt;Node9 -->
<g id="edge8" class="edge"><title>Node1&#45;&gt;Node9</title>
<path fill="none" stroke="midnightblue" d="M185.063,-124.734C196.364,-107.532 215.422,-82.1981 238,-67 243.669,-63.1837 250.16,-60.088 256.708,-57.5912"/>
<polygon fill="midnightblue" stroke="midnightblue" points="182.007,-123.018 179.61,-133.338 187.919,-126.765 182.007,-123.018"/>
</g>
<!-- Node10 -->
<g id="node10" class="node"><title>Node10</title>
<g id="a_node10"><a xlink:href="class_wayland_gateway.html" target="_top" xlink:title="WaylandGateway">
<polygon fill="white" stroke="black" points="249,-0.5 249,-19.5 346,-19.5 346,-0.5 249,-0.5"/>
<text text-anchor="middle" x="297.5" y="-7.5" font-family="Helvetica,sans-Serif" font-size="10.00">WaylandGateway</text>
</a>
</g>
</g>
<!-- Node1&#45;&gt;Node10 -->
<g id="edge9" class="edge"><title>Node1&#45;&gt;Node10</title>
<path fill="none" stroke="midnightblue" d="M179.811,-123.925C188.468,-98.6474 207.128,-54.3062 238,-29 242.707,-25.1414 248.219,-22.0591 253.943,-19.5987"/>
<polygon fill="midnightblue" stroke="midnightblue" points="176.468,-122.888 176.707,-133.48 183.126,-125.05 176.468,-122.888"/>
</g>
<!-- Node2 -->
<g id="node2" class="node"><title>Node2</title>
<g id="a_node2"><a xlink:href="classsoftwarecontainer_1_1_j_s_o_n_parser.html" target="_top" xlink:title="Convenience layer for the Jansson JSON parser. ">
<polygon fill="white" stroke="black" points="0,-128 0,-158 108,-158 108,-128 0,-128"/>
<text text-anchor="start" x="8" y="-146" font-family="Helvetica,sans-Serif" font-size="10.00">softwarecontainer::</text>
<text text-anchor="middle" x="54" y="-135" font-family="Helvetica,sans-Serif" font-size="10.00">JSONParser</text>
</a>
</g>
</g>
<!-- Node2&#45;&gt;Node1 -->
<g id="edge1" class="edge"><title>Node2&#45;&gt;Node1</title>
<path fill="none" stroke="darkgreen" d="M118.169,-143C127.14,-143 135.964,-143 143.789,-143"/>
<polygon fill="darkgreen" stroke="darkgreen" points="118.023,-139.5 108.023,-143 118.023,-146.5 118.023,-139.5"/>
</g>
</g>
</svg>
