<?xml version="1.0" encoding="UTF-8" standalone="no"?>
<!DOCTYPE svg PUBLIC "-//W3C//DTD SVG 1.1//EN"
 "http://www.w3.org/Graphics/SVG/1.1/DTD/svg11.dtd">
<!-- Generated by graphviz version 2.38.0 (20140413.2041)
 -->
<!-- Title: Gateway::executeInContainer Pages: 1 -->
<svg width="327pt" height="66pt"
 viewBox="0.00 0.00 327.00 66.00" xmlns="http://www.w3.org/2000/svg" xmlns:xlink="http://www.w3.org/1999/xlink">
<g id="graph0" class="graph" transform="scale(1 1) rotate(0) translate(4 62)">
<title>Gateway::executeInContainer</title>
<polygon fill="white" stroke="none" points="-4,4 -4,-62 323,-62 323,4 -4,4"/>
<!-- Node1 -->
<g id="node1" class="node"><title>Node1</title>
<polygon fill="#bfbfbf" stroke="black" points="0,-19.5 0,-38.5 156,-38.5 156,-19.5 0,-19.5"/>
<text text-anchor="middle" x="78" y="-26.5" font-family="Helvetica,sans-Serif" font-size="10.00">Gateway::executeInContainer</text>
</g>
<!-- Node2 -->
<g id="node2" class="node"><title>Node2</title>
<g id="a_node2"><a xlink:href="class_gateway.html#ab03846b347174727f70ab4e4ce5db09f" target="_top" xlink:title="Get a handle to the associated container. ">
<polygon fill="white" stroke="black" points="193,-38.5 193,-57.5 318,-57.5 318,-38.5 193,-38.5"/>
<text text-anchor="middle" x="255.5" y="-45.5" font-family="Helvetica,sans-Serif" font-size="10.00">Gateway::getContainer</text>
</a>
</g>
</g>
<!-- Node1&#45;&gt;Node2 -->
<g id="edge1" class="edge"><title>Node1&#45;&gt;Node2</title>
<path fill="none" stroke="midnightblue" d="M156.232,-37.3613C165.023,-38.3131 173.957,-39.2803 182.674,-40.224"/>
<polygon fill="midnightblue" stroke="midnightblue" points="182.467,-43.7219 192.786,-41.3187 183.221,-36.7626 182.467,-43.7219"/>
</g>
<!-- Node3 -->
<g id="node3" class="node"><title>Node3</title>
<g id="a_node3"><a xlink:href="class_gateway.html#ad66eea64014d7eb2927c1f576b3cf2b2" target="_top" xlink:title="Check if the gateway has an associated container. ">
<polygon fill="white" stroke="black" points="192,-0.5 192,-19.5 319,-19.5 319,-0.5 192,-0.5"/>
<text text-anchor="middle" x="255.5" y="-7.5" font-family="Helvetica,sans-Serif" font-size="10.00">Gateway::hasContainer</text>
</a>
</g>
</g>
<!-- Node1&#45;&gt;Node3 -->
<g id="edge2" class="edge"><title>Node1&#45;&gt;Node3</title>
<path fill="none" stroke="midnightblue" d="M156.232,-20.6387C164.732,-19.7185 173.364,-18.7839 181.806,-17.87"/>
<polygon fill="midnightblue" stroke="midnightblue" points="182.42,-21.3241 191.985,-16.768 181.667,-14.3647 182.42,-21.3241"/>
</g>
</g>
</svg>
