<?xml version="1.0" encoding="UTF-8" standalone="no"?>
<!DOCTYPE svg PUBLIC "-//W3C//DTD SVG 1.1//EN"
 "http://www.w3.org/Graphics/SVG/1.1/DTD/svg11.dtd">
<!-- Generated by graphviz version 2.38.0 (20140413.2041)
 -->
<!-- Title: softwarecontainer::Config::getIntegerValue Pages: 1 -->
<svg width="292pt" height="99pt"
 viewBox="0.00 0.00 292.00 98.50" xmlns="http://www.w3.org/2000/svg" xmlns:xlink="http://www.w3.org/1999/xlink">
<g id="graph0" class="graph" transform="scale(1 1) rotate(0) translate(4 94.5)">
<title>softwarecontainer::Config::getIntegerValue</title>
<polygon fill="white" stroke="none" points="-4,4 -4,-94.5 288,-94.5 288,4 -4,4"/>
<!-- Node1 -->
<g id="node1" class="node"><title>Node1</title>
<polygon fill="#bfbfbf" stroke="black" points="0,-33 0,-63 119,-63 119,-33 0,-33"/>
<text text-anchor="start" x="8" y="-51" font-family="Helvetica,sans-Serif" font-size="10.00">softwarecontainer::</text>
<text text-anchor="middle" x="59.5" y="-40" font-family="Helvetica,sans-Serif" font-size="10.00">Config::getIntegerValue</text>
</g>
<!-- Node2 -->
<g id="node2" class="node"><title>Node2</title>
<g id="a_node2"><a xlink:href="classsoftwarecontainer_1_1_config.html#ab29be3ef62031785b579172cd4c16f23" target="_top" xlink:title="TODO: Find a way to reuse parts of above comment. ">
<polygon fill="white" stroke="black" points="169.5,-60 169.5,-90 269.5,-90 269.5,-60 169.5,-60"/>
<text text-anchor="start" x="177.5" y="-78" font-family="Helvetica,sans-Serif" font-size="10.00">softwarecontainer::</text>
<text text-anchor="middle" x="219.5" y="-67" font-family="Helvetica,sans-Serif" font-size="10.00">Config::Config</text>
</a>
</g>
</g>
<!-- Node1&#45;&gt;Node2 -->
<g id="edge1" class="edge"><title>Node1&#45;&gt;Node2</title>
<path fill="none" stroke="midnightblue" d="M129.514,-59.7935C142.962,-62.0916 156.802,-64.4566 169.441,-66.6166"/>
<polygon fill="midnightblue" stroke="midnightblue" points="129.78,-56.2883 119.333,-58.0538 128.601,-63.1883 129.78,-56.2883"/>
</g>
<!-- Node3 -->
<g id="node3" class="node"><title>Node3</title>
<g id="a_node3"><a xlink:href="classsoftwarecontainer_1_1_software_container_agent.html#acfd23dd497883e5c728fbdf2cbf8eca9" target="_top" xlink:title="creates a new agent object and runs some initialization ">
<polygon fill="white" stroke="black" points="155,-0.5 155,-41.5 284,-41.5 284,-0.5 155,-0.5"/>
<text text-anchor="start" x="163" y="-29.5" font-family="Helvetica,sans-Serif" font-size="10.00">softwarecontainer::</text>
<text text-anchor="start" x="163" y="-18.5" font-family="Helvetica,sans-Serif" font-size="10.00">SoftwareContainerAgent</text>
<text text-anchor="middle" x="219.5" y="-7.5" font-family="Helvetica,sans-Serif" font-size="10.00">::SoftwareContainerAgent</text>
</a>
</g>
</g>
<!-- Node1&#45;&gt;Node3 -->
<g id="edge2" class="edge"><title>Node1&#45;&gt;Node3</title>
<path fill="none" stroke="midnightblue" d="M129.228,-36.2553C137.741,-34.8006 146.415,-33.3183 154.847,-31.8774"/>
<polygon fill="midnightblue" stroke="midnightblue" points="128.601,-32.8117 119.333,-37.9462 129.78,-39.7117 128.601,-32.8117"/>
</g>
</g>
</svg>
