<?xml version="1.0" encoding="UTF-8" standalone="no"?>
<!DOCTYPE svg PUBLIC "-//W3C//DTD SVG 1.1//EN"
 "http://www.w3.org/Graphics/SVG/1.1/DTD/svg11.dtd">
<!-- Generated by graphviz version 2.38.0 (20140413.2041)
 -->
<!-- Title: softwarecontainer::ConfigError Pages: 1 -->
<svg width="534pt" height="284pt"
 viewBox="0.00 0.00 534.00 284.00" xmlns="http://www.w3.org/2000/svg" xmlns:xlink="http://www.w3.org/1999/xlink">
<g id="graph0" class="graph" transform="scale(1 1) rotate(0) translate(4 280)">
<title>softwarecontainer::ConfigError</title>
<polygon fill="white" stroke="none" points="-4,4 -4,-280 530,-280 530,4 -4,4"/>
<!-- Node1 -->
<g id="node1" class="node"><title>Node1</title>
<polygon fill="#bfbfbf" stroke="black" points="269,-122.5 269,-152.5 369,-152.5 369,-122.5 269,-122.5"/>
<text text-anchor="start" x="277" y="-140.5" font-family="Helvetica,sans-Serif" font-size="10.00">softwarecontainer::</text>
<text text-anchor="middle" x="319" y="-129.5" font-family="Helvetica,sans-Serif" font-size="10.00">ConfigError</text>
</g>
<!-- Node4 -->
<g id="node4" class="node"><title>Node4</title>
<g id="a_node4"><a xlink:href="classsoftwarecontainer_1_1_config_dependency_error.html" target="_top" xlink:title="softwarecontainer::\lConfigDependencyError">
<polygon fill="white" stroke="black" points="405,-245.5 405,-275.5 526,-275.5 526,-245.5 405,-245.5"/>
<text text-anchor="start" x="413" y="-263.5" font-family="Helvetica,sans-Serif" font-size="10.00">softwarecontainer::</text>
<text text-anchor="middle" x="465.5" y="-252.5" font-family="Helvetica,sans-Serif" font-size="10.00">ConfigDependencyError</text>
</a>
</g>
</g>
<!-- Node1&#45;&gt;Node4 -->
<g id="edge3" class="edge"><title>Node1&#45;&gt;Node4</title>
<path fill="none" stroke="midnightblue" d="M335.244,-161.027C350.575,-183.094 376.043,-215.724 405,-236.5 409.616,-239.812 414.754,-242.756 420.023,-245.349"/>
<polygon fill="midnightblue" stroke="midnightblue" points="338.013,-158.875 329.502,-152.566 332.221,-162.806 338.013,-158.875"/>
</g>
<!-- Node5 -->
<g id="node5" class="node"><title>Node5</title>
<g id="a_node5"><a xlink:href="classsoftwarecontainer_1_1_config_file_error.html" target="_top" xlink:title="An error occured in a Glib operation. ">
<polygon fill="white" stroke="black" points="415.5,-196.5 415.5,-226.5 515.5,-226.5 515.5,-196.5 415.5,-196.5"/>
<text text-anchor="start" x="423.5" y="-214.5" font-family="Helvetica,sans-Serif" font-size="10.00">softwarecontainer::</text>
<text text-anchor="middle" x="465.5" y="-203.5" font-family="Helvetica,sans-Serif" font-size="10.00">ConfigFileError</text>
</a>
</g>
</g>
<!-- Node1&#45;&gt;Node5 -->
<g id="edge4" class="edge"><title>Node1&#45;&gt;Node5</title>
<path fill="none" stroke="midnightblue" d="M352.395,-158.086C367.996,-167.601 387.153,-178.712 405,-187.5 411.295,-190.6 418.096,-193.628 424.771,-196.431"/>
<polygon fill="midnightblue" stroke="midnightblue" points="354.005,-154.967 343.656,-152.697 350.331,-160.925 354.005,-154.967"/>
</g>
<!-- Node6 -->
<g id="node6" class="node"><title>Node6</title>
<g id="a_node6"><a xlink:href="classsoftwarecontainer_1_1_config_internal_error.html" target="_top" xlink:title="An error occured which is an internal error in the config code. ">
<polygon fill="white" stroke="black" points="415.5,-147.5 415.5,-177.5 515.5,-177.5 515.5,-147.5 415.5,-147.5"/>
<text text-anchor="start" x="423.5" y="-165.5" font-family="Helvetica,sans-Serif" font-size="10.00">softwarecontainer::</text>
<text text-anchor="middle" x="465.5" y="-154.5" font-family="Helvetica,sans-Serif" font-size="10.00">ConfigInternalError</text>
</a>
</g>
</g>
<!-- Node1&#45;&gt;Node6 -->
<g id="edge5" class="edge"><title>Node1&#45;&gt;Node6</title>
<path fill="none" stroke="midnightblue" d="M379.267,-147.754C391.278,-149.832 403.784,-151.995 415.398,-154.005"/>
<polygon fill="midnightblue" stroke="midnightblue" points="379.775,-144.29 369.325,-146.034 378.581,-151.187 379.775,-144.29"/>
</g>
<!-- Node7 -->
<g id="node7" class="node"><title>Node7</title>
<g id="a_node7"><a xlink:href="classsoftwarecontainer_1_1_config_mandatory_error.html" target="_top" xlink:title="softwarecontainer::\lConfigMandatoryError">
<polygon fill="white" stroke="black" points="409.5,-98.5 409.5,-128.5 521.5,-128.5 521.5,-98.5 409.5,-98.5"/>
<text text-anchor="start" x="417.5" y="-116.5" font-family="Helvetica,sans-Serif" font-size="10.00">softwarecontainer::</text>
<text text-anchor="middle" x="465.5" y="-105.5" font-family="Helvetica,sans-Serif" font-size="10.00">ConfigMandatoryError</text>
</a>
</g>
</g>
<!-- Node1&#45;&gt;Node7 -->
<g id="edge6" class="edge"><title>Node1&#45;&gt;Node7</title>
<path fill="none" stroke="midnightblue" d="M379.501,-127.618C389.412,-125.971 399.653,-124.27 409.447,-122.644"/>
<polygon fill="midnightblue" stroke="midnightblue" points="378.616,-124.216 369.325,-129.308 379.763,-131.122 378.616,-124.216"/>
</g>
<!-- Node8 -->
<g id="node8" class="node"><title>Node8</title>
<g id="a_node8"><a xlink:href="classsoftwarecontainer_1_1_config_not_found_error.html" target="_top" xlink:title="A requested config item could not be found in any of the config sources. ">
<polygon fill="white" stroke="black" points="411,-49.5 411,-79.5 520,-79.5 520,-49.5 411,-49.5"/>
<text text-anchor="start" x="419" y="-67.5" font-family="Helvetica,sans-Serif" font-size="10.00">softwarecontainer::</text>
<text text-anchor="middle" x="465.5" y="-56.5" font-family="Helvetica,sans-Serif" font-size="10.00">ConfigNotFoundError</text>
</a>
</g>
</g>
<!-- Node1&#45;&gt;Node8 -->
<g id="edge7" class="edge"><title>Node1&#45;&gt;Node8</title>
<path fill="none" stroke="midnightblue" d="M352.779,-117.172C368.329,-107.902 387.334,-97.1029 405,-88.5 411.309,-85.4277 418.116,-82.4141 424.794,-79.6163"/>
<polygon fill="midnightblue" stroke="midnightblue" points="350.819,-114.267 344.059,-122.425 354.431,-120.263 350.819,-114.267"/>
</g>
<!-- Node9 -->
<g id="node9" class="node"><title>Node9</title>
<g id="a_node9"><a xlink:href="classsoftwarecontainer_1_1_config_unknown_error.html" target="_top" xlink:title="A config is found which is not defined in ConfigDefinition. ">
<polygon fill="white" stroke="black" points="412,-0.5 412,-30.5 519,-30.5 519,-0.5 412,-0.5"/>
<text text-anchor="start" x="420" y="-18.5" font-family="Helvetica,sans-Serif" font-size="10.00">softwarecontainer::</text>
<text text-anchor="middle" x="465.5" y="-7.5" font-family="Helvetica,sans-Serif" font-size="10.00">ConfigUnknownError</text>
</a>
</g>
</g>
<!-- Node1&#45;&gt;Node9 -->
<g id="edge8" class="edge"><title>Node1&#45;&gt;Node9</title>
<path fill="none" stroke="midnightblue" d="M335.554,-113.851C350.95,-92.019 376.32,-59.9685 405,-39.5 409.714,-36.1353 414.969,-33.1473 420.349,-30.5217"/>
<polygon fill="midnightblue" stroke="midnightblue" points="332.568,-112.016 329.776,-122.237 338.333,-115.988 332.568,-112.016"/>
</g>
<!-- Node2 -->
<g id="node2" class="node"><title>Node2</title>
<g id="a_node2"><a xlink:href="classsoftwarecontainer_1_1_software_container_error.html" target="_top" xlink:title="softwarecontainer::\lSoftwareContainerError">
<polygon fill="white" stroke="black" points="114,-122.5 114,-152.5 233,-152.5 233,-122.5 114,-122.5"/>
<text text-anchor="start" x="122" y="-140.5" font-family="Helvetica,sans-Serif" font-size="10.00">softwarecontainer::</text>
<text text-anchor="middle" x="173.5" y="-129.5" font-family="Helvetica,sans-Serif" font-size="10.00">SoftwareContainerError</text>
</a>
</g>
</g>
<!-- Node2&#45;&gt;Node1 -->
<g id="edge1" class="edge"><title>Node2&#45;&gt;Node1</title>
<path fill="none" stroke="midnightblue" d="M243.292,-137.5C251.868,-137.5 260.5,-137.5 268.697,-137.5"/>
<polygon fill="midnightblue" stroke="midnightblue" points="243.281,-134 233.281,-137.5 243.281,-141 243.281,-134"/>
</g>
<!-- Node3 -->
<g id="node3" class="node"><title>Node3</title>
<polygon fill="white" stroke="#bfbfbf" points="0,-128 0,-147 78,-147 78,-128 0,-128"/>
<text text-anchor="middle" x="39" y="-135" font-family="Helvetica,sans-Serif" font-size="10.00">std::exception</text>
</g>
<!-- Node3&#45;&gt;Node2 -->
<g id="edge2" class="edge"><title>Node3&#45;&gt;Node2</title>
<path fill="none" stroke="midnightblue" d="M88.4181,-137.5C96.5843,-137.5 105.141,-137.5 113.54,-137.5"/>
<polygon fill="midnightblue" stroke="midnightblue" points="88.3245,-134 78.3245,-137.5 88.3245,-141 88.3245,-134"/>
</g>
</g>
</svg>
