<?xml version="1.0" encoding="UTF-8" standalone="no"?>
<!DOCTYPE svg PUBLIC "-//W3C//DTD SVG 1.1//EN"
 "http://www.w3.org/Graphics/SVG/1.1/DTD/svg11.dtd">
<!-- Generated by graphviz version 2.38.0 (20140413.2041)
 -->
<!-- Title: DBusGateway::teardown Pages: 1 -->
<svg width="416pt" height="88pt"
 viewBox="0.00 0.00 416.00 88.00" xmlns="http://www.w3.org/2000/svg" xmlns:xlink="http://www.w3.org/1999/xlink">
<g id="graph0" class="graph" transform="scale(1 1) rotate(0) translate(4 84)">
<title>DBusGateway::teardown</title>
<polygon fill="white" stroke="none" points="-4,4 -4,-84 412,-84 412,4 -4,4"/>
<!-- Node1 -->
<g id="node1" class="node"><title>Node1</title>
<polygon fill="#bfbfbf" stroke="black" points="0,-30 0,-49 126,-49 126,-30 0,-30"/>
<text text-anchor="middle" x="63" y="-37" font-family="Helvetica,sans-Serif" font-size="10.00">DBusGateway::teardown</text>
</g>
<!-- Node2 -->
<g id="node2" class="node"><title>Node2</title>
<g id="a_node2"><a xlink:href="classsoftwarecontainer_1_1_gateway.html#a78949f88080c66617f8b20048d706237" target="_top" xlink:title="Is the gateway activated or not? ">
<polygon fill="white" stroke="black" points="162,-49.5 162,-79.5 272,-79.5 272,-49.5 162,-49.5"/>
<text text-anchor="start" x="170" y="-67.5" font-family="Helvetica,sans-Serif" font-size="10.00">softwarecontainer::</text>
<text text-anchor="middle" x="217" y="-56.5" font-family="Helvetica,sans-Serif" font-size="10.00">Gateway::isActivated</text>
</a>
</g>
</g>
<!-- Node1&#45;&gt;Node2 -->
<g id="edge1" class="edge"><title>Node1&#45;&gt;Node2</title>
<path fill="none" stroke="midnightblue" d="M121.898,-49.0227C131.612,-50.6204 141.745,-52.2869 151.61,-53.9095"/>
<polygon fill="midnightblue" stroke="midnightblue" points="151.329,-57.4103 161.765,-55.5798 152.466,-50.5031 151.329,-57.4103"/>
</g>
<!-- Node3 -->
<g id="node3" class="node"><title>Node3</title>
<g id="a_node3"><a xlink:href="classsoftwarecontainer_1_1_gateway.html#adf9b62b6a7097bce5d2eeb8f34d1a407" target="_top" xlink:title="Restore system to the state prior to launching of gateway. ">
<polygon fill="white" stroke="black" points="166.5,-0.5 166.5,-30.5 267.5,-30.5 267.5,-0.5 166.5,-0.5"/>
<text text-anchor="start" x="174.5" y="-18.5" font-family="Helvetica,sans-Serif" font-size="10.00">softwarecontainer::</text>
<text text-anchor="middle" x="217" y="-7.5" font-family="Helvetica,sans-Serif" font-size="10.00">Gateway::teardown</text>
</a>
</g>
</g>
<!-- Node1&#45;&gt;Node3 -->
<g id="edge2" class="edge"><title>Node1&#45;&gt;Node3</title>
<path fill="none" stroke="midnightblue" d="M124.511,-29.9456C135.051,-28.2814 146.006,-26.5516 156.518,-24.8918"/>
<polygon fill="midnightblue" stroke="midnightblue" points="157.102,-28.3432 166.433,-23.3263 156.01,-21.4289 157.102,-28.3432"/>
</g>
<!-- Node4 -->
<g id="node4" class="node"><title>Node4</title>
<g id="a_node4"><a xlink:href="classsoftwarecontainer_1_1_gateway.html#af421b6ffb3db76240a491b2302e78699" target="_top" xlink:title="softwarecontainer::\lGateway::id">
<polygon fill="white" stroke="black" points="308,-0.5 308,-30.5 408,-30.5 408,-0.5 308,-0.5"/>
<text text-anchor="start" x="316" y="-18.5" font-family="Helvetica,sans-Serif" font-size="10.00">softwarecontainer::</text>
<text text-anchor="middle" x="358" y="-7.5" font-family="Helvetica,sans-Serif" font-size="10.00">Gateway::id</text>
</a>
</g>
</g>
<!-- Node3&#45;&gt;Node4 -->
<g id="edge3" class="edge"><title>Node3&#45;&gt;Node4</title>
<path fill="none" stroke="midnightblue" d="M267.79,-15.5C277.387,-15.5 287.531,-15.5 297.403,-15.5"/>
<polygon fill="midnightblue" stroke="midnightblue" points="297.558,-19.0001 307.558,-15.5 297.558,-12.0001 297.558,-19.0001"/>
</g>
</g>
</svg>
