<?xml version="1.0" encoding="UTF-8" standalone="no"?>
<!DOCTYPE svg PUBLIC "-//W3C//DTD SVG 1.1//EN"
 "http://www.w3.org/Graphics/SVG/1.1/DTD/svg11.dtd">
<!-- Generated by graphviz version 2.38.0 (20140413.2041)
 -->
<!-- Title: softwarecontainer::IPTableEntry::applyRules Pages: 1 -->
<svg width="314pt" height="148pt"
 viewBox="0.00 0.00 314.00 147.50" xmlns="http://www.w3.org/2000/svg" xmlns:xlink="http://www.w3.org/1999/xlink">
<g id="graph0" class="graph" transform="scale(1 1) rotate(0) translate(4 143.5)">
<title>softwarecontainer::IPTableEntry::applyRules</title>
<polygon fill="white" stroke="none" points="-4,4 -4,-143.5 310,-143.5 310,4 -4,4"/>
<!-- Node1 -->
<g id="node1" class="node"><title>Node1</title>
<polygon fill="#bfbfbf" stroke="black" points="0,-60 0,-90 128,-90 128,-60 0,-60"/>
<text text-anchor="start" x="8" y="-78" font-family="Helvetica,sans-Serif" font-size="10.00">softwarecontainer::</text>
<text text-anchor="middle" x="64" y="-67" font-family="Helvetica,sans-Serif" font-size="10.00">IPTableEntry::applyRules</text>
</g>
<!-- Node2 -->
<g id="node2" class="node"><title>Node2</title>
<g id="a_node2"><a xlink:href="classsoftwarecontainer_1_1_i_p_table_entry.html#a90fcc24383229ea1fb0eca580e2858ea" target="_top" xlink:title="This function Interprets defaultTarget rule to iptables applicable policy string. ...">
<polygon fill="white" stroke="black" points="164,-109 164,-139 306,-139 306,-109 164,-109"/>
<text text-anchor="start" x="172" y="-127" font-family="Helvetica,sans-Serif" font-size="10.00">softwarecontainer::</text>
<text text-anchor="middle" x="235" y="-116" font-family="Helvetica,sans-Serif" font-size="10.00">IPTableEntry::interpretPolicy</text>
</a>
</g>
</g>
<!-- Node1&#45;&gt;Node2 -->
<g id="edge1" class="edge"><title>Node1&#45;&gt;Node2</title>
<path fill="none" stroke="midnightblue" d="M117.085,-90.1014C134.595,-95.1785 154.295,-100.89 172.462,-106.158"/>
<polygon fill="midnightblue" stroke="midnightblue" points="171.508,-109.525 182.087,-108.948 173.458,-102.802 171.508,-109.525"/>
</g>
<!-- Node3 -->
<g id="node3" class="node"><title>Node3</title>
<g id="a_node3"><a xlink:href="classsoftwarecontainer_1_1_i_p_table_entry.html#ab0f0fc042ec433a7f851dbb03fd0e517" target="_top" xlink:title="Interprets a rule to iptables applicable string. ">
<polygon fill="white" stroke="black" points="167.5,-60 167.5,-90 302.5,-90 302.5,-60 167.5,-60"/>
<text text-anchor="start" x="175.5" y="-78" font-family="Helvetica,sans-Serif" font-size="10.00">softwarecontainer::</text>
<text text-anchor="middle" x="235" y="-67" font-family="Helvetica,sans-Serif" font-size="10.00">IPTableEntry::interpretRule</text>
</a>
</g>
</g>
<!-- Node1&#45;&gt;Node3 -->
<g id="edge2" class="edge"><title>Node1&#45;&gt;Node3</title>
<path fill="none" stroke="midnightblue" d="M128.41,-75C137.864,-75 147.694,-75 157.385,-75"/>
<polygon fill="midnightblue" stroke="midnightblue" points="157.411,-78.5001 167.411,-75 157.411,-71.5001 157.411,-78.5001"/>
</g>
<!-- Node4 -->
<g id="node4" class="node"><title>Node4</title>
<g id="a_node4"><a xlink:href="classsoftwarecontainer_1_1_i_p_table_entry.html#a8a98b36e83fbc40450e51e08ca80ab91" target="_top" xlink:title="Interprets a rule with protocol information to iptables applicable string. ">
<polygon fill="white" stroke="black" points="167.5,-0.5 167.5,-41.5 302.5,-41.5 302.5,-0.5 167.5,-0.5"/>
<text text-anchor="start" x="175.5" y="-29.5" font-family="Helvetica,sans-Serif" font-size="10.00">softwarecontainer::</text>
<text text-anchor="start" x="175.5" y="-18.5" font-family="Helvetica,sans-Serif" font-size="10.00">IPTableEntry::interpretRule</text>
<text text-anchor="middle" x="235" y="-7.5" font-family="Helvetica,sans-Serif" font-size="10.00">WithProtocol</text>
</a>
</g>
</g>
<!-- Node1&#45;&gt;Node4 -->
<g id="edge3" class="edge"><title>Node1&#45;&gt;Node4</title>
<path fill="none" stroke="midnightblue" d="M112.076,-59.958C127.017,-55.184 143.914,-49.785 160.264,-44.5606"/>
<polygon fill="midnightblue" stroke="midnightblue" points="161.349,-47.8884 169.809,-41.5107 159.218,-41.2205 161.349,-47.8884"/>
</g>
</g>
</svg>
