<?xml version="1.0" encoding="UTF-8" standalone="no"?>
<!DOCTYPE svg PUBLIC "-//W3C//DTD SVG 1.1//EN"
 "http://www.w3.org/Graphics/SVG/1.1/DTD/svg11.dtd">
<!-- Generated by graphviz version 2.38.0 (20140413.2041)
 -->
<!-- Title: softwarecontainer::FileToolkitWithUndo::createDirectory Pages: 1 -->
<svg width="440pt" height="246pt"
 viewBox="0.00 0.00 440.00 245.50" xmlns="http://www.w3.org/2000/svg" xmlns:xlink="http://www.w3.org/1999/xlink">
<g id="graph0" class="graph" transform="scale(1 1) rotate(0) translate(4 241.5)">
<title>softwarecontainer::FileToolkitWithUndo::createDirectory</title>
<polygon fill="white" stroke="none" points="-4,4 -4,-241.5 436,-241.5 436,4 -4,4"/>
<!-- Node1 -->
<g id="node1" class="node"><title>Node1</title>
<polygon fill="#bfbfbf" stroke="black" points="0,-98.5 0,-139.5 108,-139.5 108,-98.5 0,-98.5"/>
<text text-anchor="start" x="8" y="-127.5" font-family="Helvetica,sans-Serif" font-size="10.00">softwarecontainer::</text>
<text text-anchor="start" x="8" y="-116.5" font-family="Helvetica,sans-Serif" font-size="10.00">FileToolkitWithUndo</text>
<text text-anchor="middle" x="54" y="-105.5" font-family="Helvetica,sans-Serif" font-size="10.00">::createDirectory</text>
</g>
<!-- Node2 -->
<g id="node2" class="node"><title>Node2</title>
<g id="a_node2"><a xlink:href="class_container.html#af602c6e290b0f9f5abb78bbc3b0828cd" target="_top" xlink:title="Bind mount a directory from the host into the container. ">
<polygon fill="white" stroke="black" points="145.5,-207 145.5,-237 294.5,-237 294.5,-207 145.5,-207"/>
<text text-anchor="start" x="153.5" y="-225" font-family="Helvetica,sans-Serif" font-size="10.00">Container::bindMountFolder</text>
<text text-anchor="middle" x="220" y="-214" font-family="Helvetica,sans-Serif" font-size="10.00">InContainer</text>
</a>
</g>
</g>
<!-- Node1&#45;&gt;Node2 -->
<g id="edge1" class="edge"><title>Node1&#45;&gt;Node2</title>
<path fill="none" stroke="midnightblue" d="M80.8068,-147.219C97.4469,-163.977 120.337,-184.52 144,-198 149.939,-201.384 156.42,-204.361 163.003,-206.962"/>
<polygon fill="midnightblue" stroke="midnightblue" points="83.1001,-144.557 73.6209,-139.824 78.08,-149.435 83.1001,-144.557"/>
</g>
<!-- Node3 -->
<g id="node3" class="node"><title>Node3</title>
<g id="a_node3"><a xlink:href="classsoftwarecontainer_1_1_workspace.html#a3478c4690122b5057dd98df517e629ba" target="_top" xlink:title="Check if the workspace is present and create it if needed. ">
<polygon fill="white" stroke="black" points="144,-158 144,-188 296,-188 296,-158 144,-158"/>
<text text-anchor="start" x="152" y="-176" font-family="Helvetica,sans-Serif" font-size="10.00">softwarecontainer::</text>
<text text-anchor="middle" x="220" y="-165" font-family="Helvetica,sans-Serif" font-size="10.00">Workspace::checkWorkspace</text>
</a>
</g>
</g>
<!-- Node1&#45;&gt;Node3 -->
<g id="edge2" class="edge"><title>Node1&#45;&gt;Node3</title>
<path fill="none" stroke="midnightblue" d="M117.646,-140.252C126.487,-143.211 135.468,-146.197 144,-149 152.832,-151.901 162.264,-154.955 171.354,-157.875"/>
<polygon fill="midnightblue" stroke="midnightblue" points="118.729,-136.923 108.135,-137.06 116.502,-143.56 118.729,-136.923"/>
</g>
<!-- Node4 -->
<g id="node4" class="node"><title>Node4</title>
<g id="a_node4"><a xlink:href="classsoftwarecontainer_1_1_file_toolkit_with_undo.html#a2e2789ba9649ed6abf7a1c3ab3025daa" target="_top" xlink:title="createParentDirectory Recursively tries to create the directory pointed to by path. ">
<polygon fill="white" stroke="black" points="156,-98.5 156,-139.5 284,-139.5 284,-98.5 156,-98.5"/>
<text text-anchor="start" x="164" y="-127.5" font-family="Helvetica,sans-Serif" font-size="10.00">softwarecontainer::</text>
<text text-anchor="start" x="164" y="-116.5" font-family="Helvetica,sans-Serif" font-size="10.00">FileToolkitWithUndo</text>
<text text-anchor="middle" x="220" y="-105.5" font-family="Helvetica,sans-Serif" font-size="10.00">::createParentDirectory</text>
</a>
</g>
</g>
<!-- Node1&#45;&gt;Node4 -->
<g id="edge3" class="edge"><title>Node1&#45;&gt;Node4</title>
<path fill="none" stroke="midnightblue" d="M118.379,-112.407C130.637,-112.197 143.48,-112.198 155.734,-112.409"/>
<polygon fill="midnightblue" stroke="midnightblue" points="118.165,-108.911 108.246,-112.633 118.322,-115.909 118.165,-108.911"/>
</g>
<!-- Node5 -->
<g id="node5" class="node"><title>Node5</title>
<g id="a_node5"><a xlink:href="class_container.html#a0665ab6bbf3018c8cf478d3a0ee7f956" target="_top" xlink:title="Setup the container for preloading. ">
<polygon fill="white" stroke="black" points="166.5,-60.5 166.5,-79.5 273.5,-79.5 273.5,-60.5 166.5,-60.5"/>
<text text-anchor="middle" x="220" y="-67.5" font-family="Helvetica,sans-Serif" font-size="10.00">Container::initialize</text>
</a>
</g>
</g>
<!-- Node1&#45;&gt;Node5 -->
<g id="edge5" class="edge"><title>Node1&#45;&gt;Node5</title>
<path fill="none" stroke="midnightblue" d="M118.128,-97.0541C126.788,-94.2391 135.591,-91.4784 144,-89 155.209,-85.6963 167.462,-82.4437 178.754,-79.589"/>
<polygon fill="midnightblue" stroke="midnightblue" points="116.844,-93.7919 108.44,-100.243 119.033,-100.441 116.844,-93.7919"/>
</g>
<!-- Node6 -->
<g id="node6" class="node"><title>Node6</title>
<g id="a_node6"><a xlink:href="classsoftwarecontainer_1_1_file_toolkit_with_undo.html#ab46eccba563b861f100d9ce7fa9ca4d6" target="_top" xlink:title="overlayMount Mount a directory with an overlay on top of it. ">
<polygon fill="white" stroke="black" points="166,-0.5 166,-41.5 274,-41.5 274,-0.5 166,-0.5"/>
<text text-anchor="start" x="174" y="-29.5" font-family="Helvetica,sans-Serif" font-size="10.00">softwarecontainer::</text>
<text text-anchor="start" x="174" y="-18.5" font-family="Helvetica,sans-Serif" font-size="10.00">FileToolkitWithUndo</text>
<text text-anchor="middle" x="220" y="-7.5" font-family="Helvetica,sans-Serif" font-size="10.00">::overlayMount</text>
</a>
</g>
</g>
<!-- Node1&#45;&gt;Node6 -->
<g id="edge6" class="edge"><title>Node1&#45;&gt;Node6</title>
<path fill="none" stroke="midnightblue" d="M86.0075,-91.9643C102.479,-78.4906 123.511,-62.6353 144,-51 150.829,-47.1219 158.259,-43.5049 165.701,-40.2204"/>
<polygon fill="midnightblue" stroke="midnightblue" points="83.7661,-89.2762 78.3105,-98.3584 88.2391,-94.6606 83.7661,-89.2762"/>
</g>
<!-- Node4&#45;&gt;Node1 -->
<g id="edge4" class="edge"><title>Node4&#45;&gt;Node1</title>
<path fill="none" stroke="midnightblue" d="M145.703,-125.716C133.091,-125.815 120.202,-125.698 108.246,-125.367"/>
<polygon fill="midnightblue" stroke="midnightblue" points="145.779,-129.216 155.734,-125.591 145.692,-122.216 145.779,-129.216"/>
</g>
<!-- Node7 -->
<g id="node7" class="node"><title>Node7</title>
<g id="a_node7"><a xlink:href="class_container.html#a32b1856163054cc997f19aae33babb6a" target="_top" xlink:title="create Creates a new lxc_container and creates it with all the initialization. ">
<polygon fill="white" stroke="black" points="332,-11.5 332,-30.5 432,-30.5 432,-11.5 332,-11.5"/>
<text text-anchor="middle" x="382" y="-18.5" font-family="Helvetica,sans-Serif" font-size="10.00">Container::create</text>
</a>
</g>
</g>
<!-- Node6&#45;&gt;Node7 -->
<g id="edge7" class="edge"><title>Node6&#45;&gt;Node7</title>
<path fill="none" stroke="midnightblue" d="M284.457,-21C300.184,-21 316.803,-21 331.737,-21"/>
<polygon fill="midnightblue" stroke="midnightblue" points="284.278,-17.5001 274.278,-21 284.278,-24.5001 284.278,-17.5001"/>
</g>
</g>
</svg>
