<?xml version="1.0" encoding="UTF-8" standalone="no"?>
<!DOCTYPE svg PUBLIC "-//W3C//DTD SVG 1.1//EN"
 "http://www.w3.org/Graphics/SVG/1.1/DTD/svg11.dtd">
<!-- Generated by graphviz version 2.38.0 (20140413.2041)
 -->
<!-- Title: softwarecontainer::JSONParser::read Pages: 1 -->
<svg width="662pt" height="334pt"
 viewBox="0.00 0.00 662.00 333.50" xmlns="http://www.w3.org/2000/svg" xmlns:xlink="http://www.w3.org/1999/xlink">
<g id="graph0" class="graph" transform="scale(1 1) rotate(0) translate(4 329.5)">
<title>softwarecontainer::JSONParser::read</title>
<polygon fill="white" stroke="none" points="-4,4 -4,-329.5 658,-329.5 658,4 -4,4"/>
<!-- Node1 -->
<g id="node1" class="node"><title>Node1</title>
<polygon fill="#bfbfbf" stroke="black" points="0,-153 0,-183 108,-183 108,-153 0,-153"/>
<text text-anchor="start" x="8" y="-171" font-family="Helvetica,sans-Serif" font-size="10.00">softwarecontainer::</text>
<text text-anchor="middle" x="54" y="-160" font-family="Helvetica,sans-Serif" font-size="10.00">JSONParser::read</text>
</g>
<!-- Node2 -->
<g id="node2" class="node"><title>Node2</title>
<g id="a_node2"><a xlink:href="class_environment_gateway.html#a6d276aa7c522c95276243f327f49abae" target="_top" xlink:title="Gateway specific parsing of config elements. ">
<polygon fill="white" stroke="black" points="169.5,-295 169.5,-325 288.5,-325 288.5,-295 169.5,-295"/>
<text text-anchor="start" x="177.5" y="-313" font-family="Helvetica,sans-Serif" font-size="10.00">EnvironmentGateway</text>
<text text-anchor="middle" x="229" y="-302" font-family="Helvetica,sans-Serif" font-size="10.00">::readConfigElement</text>
</a>
</g>
</g>
<!-- Node1&#45;&gt;Node2 -->
<g id="edge1" class="edge"><title>Node1&#45;&gt;Node2</title>
<path fill="none" stroke="midnightblue" d="M67.0991,-192.297C81.7061,-219.158 108.764,-261.819 144,-286 151.628,-291.235 160.391,-295.338 169.313,-298.551"/>
<polygon fill="midnightblue" stroke="midnightblue" points="70.0507,-190.39 62.2889,-183.179 63.8594,-193.657 70.0507,-190.39"/>
</g>
<!-- Node3 -->
<g id="node3" class="node"><title>Node3</title>
<g id="a_node3"><a xlink:href="class_wayland_gateway.html#aa5d2ff63631d237339cd7ec7b25f7517" target="_top" xlink:title="Gateway specific parsing of config elements. ">
<polygon fill="white" stroke="black" points="152,-246 152,-276 306,-276 306,-246 152,-246"/>
<text text-anchor="start" x="160" y="-264" font-family="Helvetica,sans-Serif" font-size="10.00">WaylandGateway::readConfig</text>
<text text-anchor="middle" x="229" y="-253" font-family="Helvetica,sans-Serif" font-size="10.00">Element</text>
</a>
</g>
</g>
<!-- Node1&#45;&gt;Node3 -->
<g id="edge2" class="edge"><title>Node1&#45;&gt;Node3</title>
<path fill="none" stroke="midnightblue" d="M78.1918,-190.018C95.2272,-205.133 119.569,-224.624 144,-237 150.63,-240.358 157.799,-243.31 165.058,-245.889"/>
<polygon fill="midnightblue" stroke="midnightblue" points="80.2078,-187.122 70.4474,-183.001 75.5073,-192.309 80.2078,-187.122"/>
</g>
<!-- Node4 -->
<g id="node4" class="node"><title>Node4</title>
<g id="a_node4"><a xlink:href="class_cgroups_gateway.html#a6b77885877877af00df49b5aa539592d" target="_top" xlink:title="Gateway specific parsing of config elements. ">
<polygon fill="white" stroke="black" points="151.5,-197 151.5,-227 306.5,-227 306.5,-197 151.5,-197"/>
<text text-anchor="start" x="159.5" y="-215" font-family="Helvetica,sans-Serif" font-size="10.00">CgroupsGateway::readConfig</text>
<text text-anchor="middle" x="229" y="-204" font-family="Helvetica,sans-Serif" font-size="10.00">Element</text>
</a>
</g>
</g>
<!-- Node1&#45;&gt;Node4 -->
<g id="edge3" class="edge"><title>Node1&#45;&gt;Node4</title>
<path fill="none" stroke="midnightblue" d="M118.401,-184.125C134.883,-188.317 152.574,-192.816 168.829,-196.951"/>
<polygon fill="midnightblue" stroke="midnightblue" points="118.872,-180.633 108.317,-181.56 117.146,-187.417 118.872,-180.633"/>
</g>
<!-- Node5 -->
<g id="node5" class="node"><title>Node5</title>
<g id="a_node5"><a xlink:href="class_file_gateway.html#a4b3a520a2cce350f9b143138fe47ae29" target="_top" xlink:title="Gateway specific parsing of config elements. ">
<polygon fill="white" stroke="black" points="144,-158.5 144,-177.5 314,-177.5 314,-158.5 144,-158.5"/>
<text text-anchor="middle" x="229" y="-165.5" font-family="Helvetica,sans-Serif" font-size="10.00">FileGateway::readConfigElement</text>
</a>
</g>
</g>
<!-- Node1&#45;&gt;Node5 -->
<g id="edge4" class="edge"><title>Node1&#45;&gt;Node5</title>
<path fill="none" stroke="midnightblue" d="M118.333,-168C126.689,-168 135.357,-168 143.992,-168"/>
<polygon fill="midnightblue" stroke="midnightblue" points="118.317,-164.5 108.317,-168 118.317,-171.5 118.317,-164.5"/>
</g>
<!-- Node6 -->
<g id="node6" class="node"><title>Node6</title>
<g id="a_node6"><a xlink:href="class_pulse_gateway.html#a844a0451090129a4e19459e26afc8eca" target="_top" xlink:title="Gateway specific parsing of config elements. ">
<polygon fill="white" stroke="black" points="159,-109 159,-139 299,-139 299,-109 159,-109"/>
<text text-anchor="start" x="167" y="-127" font-family="Helvetica,sans-Serif" font-size="10.00">PulseGateway::readConfig</text>
<text text-anchor="middle" x="229" y="-116" font-family="Helvetica,sans-Serif" font-size="10.00">Element</text>
</a>
</g>
</g>
<!-- Node1&#45;&gt;Node6 -->
<g id="edge5" class="edge"><title>Node1&#45;&gt;Node6</title>
<path fill="none" stroke="midnightblue" d="M118.401,-151.875C134.883,-147.683 152.574,-143.184 168.829,-139.049"/>
<polygon fill="midnightblue" stroke="midnightblue" points="117.146,-148.583 108.317,-154.44 118.872,-155.367 117.146,-148.583"/>
</g>
<!-- Node7 -->
<g id="node7" class="node"><title>Node7</title>
<g id="a_node7"><a xlink:href="class_device_node_gateway.html#a2dd67af3fe7d8a0fcd26abde8c1e3e74" target="_top" xlink:title="Gateway specific parsing of config elements. ">
<polygon fill="white" stroke="black" points="168.5,-60 168.5,-90 289.5,-90 289.5,-60 168.5,-60"/>
<text text-anchor="start" x="176.5" y="-78" font-family="Helvetica,sans-Serif" font-size="10.00">DeviceNodeGateway::</text>
<text text-anchor="middle" x="229" y="-67" font-family="Helvetica,sans-Serif" font-size="10.00">readConfigElement</text>
</a>
</g>
</g>
<!-- Node1&#45;&gt;Node7 -->
<g id="edge6" class="edge"><title>Node1&#45;&gt;Node7</title>
<path fill="none" stroke="midnightblue" d="M78.92,-145.851C95.9666,-131.08 120.023,-112.205 144,-100 151.593,-96.1346 159.884,-92.7641 168.204,-89.8568"/>
<polygon fill="midnightblue" stroke="midnightblue" points="76.319,-143.478 71.1459,-152.724 80.9558,-148.722 76.319,-143.478"/>
</g>
<!-- Node8 -->
<g id="node8" class="node"><title>Node8</title>
<g id="a_node8"><a xlink:href="classsoftwarecontainer_1_1_software_container_agent.html#aab15b844d7ed80339448a2005ea1cc9d" target="_top" xlink:title="Tries to read a config in json format for a container. ">
<polygon fill="white" stroke="black" points="162,-0.5 162,-41.5 296,-41.5 296,-0.5 162,-0.5"/>
<text text-anchor="start" x="170" y="-29.5" font-family="Helvetica,sans-Serif" font-size="10.00">softwarecontainer::</text>
<text text-anchor="start" x="170" y="-18.5" font-family="Helvetica,sans-Serif" font-size="10.00">SoftwareContainerAgent</text>
<text text-anchor="middle" x="229" y="-7.5" font-family="Helvetica,sans-Serif" font-size="10.00">::readConfigElement</text>
</a>
</g>
</g>
<!-- Node1&#45;&gt;Node8 -->
<g id="edge7" class="edge"><title>Node1&#45;&gt;Node8</title>
<path fill="none" stroke="midnightblue" d="M67.6821,-143.899C82.6522,-117.614 109.882,-75.9678 144,-51 149.499,-46.9761 155.588,-43.4492 161.904,-40.3673"/>
<polygon fill="midnightblue" stroke="midnightblue" points="64.5192,-142.386 62.7314,-152.829 70.6413,-145.78 64.5192,-142.386"/>
</g>
<!-- Node9 -->
<g id="node9" class="node"><title>Node9</title>
<g id="a_node9"><a xlink:href="classsoftwarecontainer_1_1_software_container_agent.html#a990e86f21dead80c727462618ecf0e91" target="_top" xlink:title="Parse config needed for starting up the container in a correct manner. ">
<polygon fill="white" stroke="black" points="350,-0.5 350,-41.5 484,-41.5 484,-0.5 350,-0.5"/>
<text text-anchor="start" x="358" y="-29.5" font-family="Helvetica,sans-Serif" font-size="10.00">softwarecontainer::</text>
<text text-anchor="start" x="358" y="-18.5" font-family="Helvetica,sans-Serif" font-size="10.00">SoftwareContainerAgent</text>
<text text-anchor="middle" x="417" y="-7.5" font-family="Helvetica,sans-Serif" font-size="10.00">::parseConfig</text>
</a>
</g>
</g>
<!-- Node8&#45;&gt;Node9 -->
<g id="edge8" class="edge"><title>Node8&#45;&gt;Node9</title>
<path fill="none" stroke="midnightblue" d="M306.455,-21C320.836,-21 335.763,-21 349.799,-21"/>
<polygon fill="midnightblue" stroke="midnightblue" points="306.1,-17.5001 296.1,-21 306.1,-24.5001 306.1,-17.5001"/>
</g>
<!-- Node10 -->
<g id="node10" class="node"><title>Node10</title>
<g id="a_node10"><a xlink:href="classsoftwarecontainer_1_1_software_container_agent.html#ac5cafaf71af5858bb97f84c6fe1de917" target="_top" xlink:title="Create a new container. ">
<polygon fill="white" stroke="black" points="520,-0.5 520,-41.5 654,-41.5 654,-0.5 520,-0.5"/>
<text text-anchor="start" x="528" y="-29.5" font-family="Helvetica,sans-Serif" font-size="10.00">softwarecontainer::</text>
<text text-anchor="start" x="528" y="-18.5" font-family="Helvetica,sans-Serif" font-size="10.00">SoftwareContainerAgent</text>
<text text-anchor="middle" x="587" y="-7.5" font-family="Helvetica,sans-Serif" font-size="10.00">::createContainer</text>
</a>
</g>
</g>
<!-- Node9&#45;&gt;Node10 -->
<g id="edge9" class="edge"><title>Node9&#45;&gt;Node10</title>
<path fill="none" stroke="midnightblue" d="M494.595,-21C503.013,-21 511.532,-21 519.809,-21"/>
<polygon fill="midnightblue" stroke="midnightblue" points="494.398,-17.5001 484.398,-21 494.398,-24.5001 494.398,-17.5001"/>
</g>
</g>
</svg>
