<?xml version="1.0" encoding="UTF-8" standalone="no"?>
<!DOCTYPE svg PUBLIC "-//W3C//DTD SVG 1.1//EN"
 "http://www.w3.org/Graphics/SVG/1.1/DTD/svg11.dtd">
<!-- Generated by graphviz version 2.38.0 (20140413.2041)
 -->
<!-- Title: softwarecontainer::Netlink::getKernelDump Pages: 1 -->
<svg width="451pt" height="137pt"
 viewBox="0.00 0.00 451.00 137.00" xmlns="http://www.w3.org/2000/svg" xmlns:xlink="http://www.w3.org/1999/xlink">
<g id="graph0" class="graph" transform="scale(1 1) rotate(0) translate(4 133)">
<title>softwarecontainer::Netlink::getKernelDump</title>
<polygon fill="white" stroke="none" points="-4,4 -4,-133 447,-133 447,4 -4,4"/>
<!-- Node1 -->
<g id="node1" class="node"><title>Node1</title>
<polygon fill="#bfbfbf" stroke="black" points="0,-24.5 0,-54.5 121,-54.5 121,-24.5 0,-24.5"/>
<text text-anchor="start" x="8" y="-42.5" font-family="Helvetica,sans-Serif" font-size="10.00">softwarecontainer::</text>
<text text-anchor="middle" x="60.5" y="-31.5" font-family="Helvetica,sans-Serif" font-size="10.00">Netlink::getKernelDump</text>
</g>
<!-- Node2 -->
<g id="node2" class="node"><title>Node2</title>
<g id="a_node2"><a xlink:href="classsoftwarecontainer_1_1_netlink.html#a04e7cfff31da1e4c4576a052346ea598" target="_top" xlink:title="check for a kernel dump, and if not present, try to get one ">
<polygon fill="white" stroke="black" points="157,-49.5 157,-79.5 291,-79.5 291,-49.5 157,-49.5"/>
<text text-anchor="start" x="165" y="-67.5" font-family="Helvetica,sans-Serif" font-size="10.00">softwarecontainer::</text>
<text text-anchor="middle" x="224" y="-56.5" font-family="Helvetica,sans-Serif" font-size="10.00">Netlink::checkKernelDump</text>
</a>
</g>
</g>
<!-- Node1&#45;&gt;Node2 -->
<g id="edge1" class="edge"><title>Node1&#45;&gt;Node2</title>
<path fill="none" stroke="midnightblue" d="M131.082,-50.2713C139.606,-51.5907 148.298,-52.9362 156.77,-54.2477"/>
<polygon fill="midnightblue" stroke="midnightblue" points="131.596,-46.8091 121.178,-48.738 130.525,-53.7267 131.596,-46.8091"/>
</g>
<!-- Node6 -->
<g id="node6" class="node"><title>Node6</title>
<g id="a_node6"><a xlink:href="classsoftwarecontainer_1_1_netlink.html#a2a6160a9363a9660c82276342dcaf477" target="_top" xlink:title="Construct a new Netlink object. ">
<polygon fill="white" stroke="black" points="174,-0.5 174,-30.5 274,-30.5 274,-0.5 174,-0.5"/>
<text text-anchor="start" x="182" y="-18.5" font-family="Helvetica,sans-Serif" font-size="10.00">softwarecontainer::</text>
<text text-anchor="middle" x="224" y="-7.5" font-family="Helvetica,sans-Serif" font-size="10.00">Netlink::Netlink</text>
</a>
</g>
</g>
<!-- Node1&#45;&gt;Node6 -->
<g id="edge5" class="edge"><title>Node1&#45;&gt;Node6</title>
<path fill="none" stroke="midnightblue" d="M131.472,-29.1016C145.757,-26.9788 160.501,-24.7878 173.871,-22.801"/>
<polygon fill="midnightblue" stroke="midnightblue" points="130.555,-25.6995 121.178,-30.6315 131.584,-32.6234 130.555,-25.6995"/>
</g>
<!-- Node3 -->
<g id="node3" class="node"><title>Node3</title>
<g id="a_node3"><a xlink:href="classsoftwarecontainer_1_1_netlink.html#a2b2c0295e9735db64d82d9ed911bdfc7" target="_top" xlink:title="Bring the given interface up. ">
<polygon fill="white" stroke="black" points="335,-98.5 335,-128.5 435,-128.5 435,-98.5 335,-98.5"/>
<text text-anchor="start" x="343" y="-116.5" font-family="Helvetica,sans-Serif" font-size="10.00">softwarecontainer::</text>
<text text-anchor="middle" x="385" y="-105.5" font-family="Helvetica,sans-Serif" font-size="10.00">Netlink::linkUp</text>
</a>
</g>
</g>
<!-- Node2&#45;&gt;Node3 -->
<g id="edge2" class="edge"><title>Node2&#45;&gt;Node3</title>
<path fill="none" stroke="midnightblue" d="M283.775,-82.6129C300.678,-87.8222 318.926,-93.4457 335.159,-98.4484"/>
<polygon fill="midnightblue" stroke="midnightblue" points="284.59,-79.2018 274.003,-79.6014 282.528,-85.8914 284.59,-79.2018"/>
</g>
<!-- Node4 -->
<g id="node4" class="node"><title>Node4</title>
<g id="a_node4"><a xlink:href="classsoftwarecontainer_1_1_netlink.html#aae62bee733a83c519d94b8abe4495319" target="_top" xlink:title="Check that the device given is a network bridge. ">
<polygon fill="white" stroke="black" points="335,-49.5 335,-79.5 435,-79.5 435,-49.5 335,-49.5"/>
<text text-anchor="start" x="343" y="-67.5" font-family="Helvetica,sans-Serif" font-size="10.00">softwarecontainer::</text>
<text text-anchor="middle" x="385" y="-56.5" font-family="Helvetica,sans-Serif" font-size="10.00">Netlink::findLink</text>
</a>
</g>
</g>
<!-- Node2&#45;&gt;Node4 -->
<g id="edge3" class="edge"><title>Node2&#45;&gt;Node4</title>
<path fill="none" stroke="midnightblue" d="M301.097,-64.5C312.585,-64.5 324.169,-64.5 334.885,-64.5"/>
<polygon fill="midnightblue" stroke="midnightblue" points="301.049,-61.0001 291.049,-64.5 301.049,-68.0001 301.049,-61.0001"/>
</g>
<!-- Node5 -->
<g id="node5" class="node"><title>Node5</title>
<g id="a_node5"><a xlink:href="classsoftwarecontainer_1_1_netlink.html#a3255285a947564b8c8cd62b395fd9345" target="_top" xlink:title="Get all addresses associated with the given interface index. ">
<polygon fill="white" stroke="black" points="327,-0.5 327,-30.5 443,-30.5 443,-0.5 327,-0.5"/>
<text text-anchor="start" x="335" y="-18.5" font-family="Helvetica,sans-Serif" font-size="10.00">softwarecontainer::</text>
<text text-anchor="middle" x="385" y="-7.5" font-family="Helvetica,sans-Serif" font-size="10.00">Netlink::findAddresses</text>
</a>
</g>
</g>
<!-- Node2&#45;&gt;Node5 -->
<g id="edge4" class="edge"><title>Node2&#45;&gt;Node5</title>
<path fill="none" stroke="midnightblue" d="M283.775,-46.3871C300.678,-41.1778 318.926,-35.5543 335.159,-30.5516"/>
<polygon fill="midnightblue" stroke="midnightblue" points="282.528,-43.1086 274.003,-49.3986 284.59,-49.7982 282.528,-43.1086"/>
</g>
</g>
</svg>
