<?xml version="1.0" encoding="UTF-8" standalone="no"?>
<!DOCTYPE svg PUBLIC "-//W3C//DTD SVG 1.1//EN"
 "http://www.w3.org/Graphics/SVG/1.1/DTD/svg11.dtd">
<!-- Generated by graphviz version 2.38.0 (20140413.2041)
 -->
<!-- Title: softwarecontainer::Container::bindMountInContainer Pages: 1 -->
<svg width="916pt" height="465pt"
 viewBox="0.00 0.00 916.00 464.50" xmlns="http://www.w3.org/2000/svg" xmlns:xlink="http://www.w3.org/1999/xlink">
<g id="graph0" class="graph" transform="scale(1 1) rotate(0) translate(4 460.5)">
<title>softwarecontainer::Container::bindMountInContainer</title>
<polygon fill="white" stroke="none" points="-4,4 -4,-460.5 912,-460.5 912,4 -4,4"/>
<!-- Node1 -->
<g id="node1" class="node"><title>Node1</title>
<polygon fill="#bfbfbf" stroke="black" points="0,-291.5 0,-321.5 160,-321.5 160,-291.5 0,-291.5"/>
<text text-anchor="start" x="8" y="-309.5" font-family="Helvetica,sans-Serif" font-size="10.00">softwarecontainer::</text>
<text text-anchor="middle" x="80" y="-298.5" font-family="Helvetica,sans-Serif" font-size="10.00">Container::bindMountInContainer</text>
</g>
<!-- Node2 -->
<g id="node2" class="node"><title>Node2</title>
<g id="a_node2"><a xlink:href="classsoftwarecontainer_1_1_file_toolkit_with_undo.html#a8f6b5cda214c9e412ab73313bc95d785" target="_top" xlink:title="bindMount Bind mount a src directory to another position dst. ">
<polygon fill="white" stroke="black" points="204.5,-311 204.5,-352 309.5,-352 309.5,-311 204.5,-311"/>
<text text-anchor="start" x="212.5" y="-340" font-family="Helvetica,sans-Serif" font-size="10.00">softwarecontainer::</text>
<text text-anchor="start" x="212.5" y="-329" font-family="Helvetica,sans-Serif" font-size="10.00">FileToolkitWithUndo</text>
<text text-anchor="middle" x="257" y="-318" font-family="Helvetica,sans-Serif" font-size="10.00">::bindMount</text>
</a>
</g>
</g>
<!-- Node1&#45;&gt;Node2 -->
<g id="edge1" class="edge"><title>Node1&#45;&gt;Node2</title>
<path fill="none" stroke="midnightblue" d="M160.052,-317.793C171.564,-319.438 183.273,-321.11 194.372,-322.696"/>
<polygon fill="midnightblue" stroke="midnightblue" points="193.975,-326.175 204.37,-324.124 194.965,-319.245 193.975,-326.175"/>
</g>
<!-- Node3 -->
<g id="node3" class="node"><title>Node3</title>
<g id="a_node3"><a xlink:href="namespacesoftwarecontainer.html#ae8835f968ab1d43b4a395b0097490734" target="_top" xlink:title="existsInFileSystem Check if path exists ">
<polygon fill="white" stroke="black" points="528,-273.5 528,-303.5 629,-303.5 629,-273.5 528,-273.5"/>
<text text-anchor="start" x="536" y="-291.5" font-family="Helvetica,sans-Serif" font-size="10.00">softwarecontainer::</text>
<text text-anchor="middle" x="578.5" y="-280.5" font-family="Helvetica,sans-Serif" font-size="10.00">existsInFileSystem</text>
</a>
</g>
</g>
<!-- Node1&#45;&gt;Node3 -->
<g id="edge18" class="edge"><title>Node1&#45;&gt;Node3</title>
<path fill="none" stroke="midnightblue" d="M160.18,-302.96C172.181,-302.451 184.418,-301.949 196,-301.5 309.686,-297.092 442.46,-292.75 517.595,-290.367"/>
<polygon fill="midnightblue" stroke="midnightblue" points="517.922,-293.859 527.807,-290.044 517.701,-286.862 517.922,-293.859"/>
</g>
<!-- Node5 -->
<g id="node5" class="node"><title>Node5</title>
<g id="a_node5"><a xlink:href="classsoftwarecontainer_1_1_file_toolkit_with_undo.html#a44a19890b72a635b3134cb2a07fc0875" target="_top" xlink:title="checks whether given path is already added to clean up handlers or not ">
<polygon fill="white" stroke="black" points="526,-349 526,-390 631,-390 631,-349 526,-349"/>
<text text-anchor="start" x="534" y="-378" font-family="Helvetica,sans-Serif" font-size="10.00">softwarecontainer::</text>
<text text-anchor="start" x="534" y="-367" font-family="Helvetica,sans-Serif" font-size="10.00">FileToolkitWithUndo</text>
<text text-anchor="middle" x="578.5" y="-356" font-family="Helvetica,sans-Serif" font-size="10.00">::pathInList</text>
</a>
</g>
</g>
<!-- Node1&#45;&gt;Node5 -->
<g id="edge20" class="edge"><title>Node1&#45;&gt;Node5</title>
<path fill="none" stroke="midnightblue" d="M108.19,-321.512C131.065,-333.648 164.924,-350.47 196,-361.5 320.164,-405.57 360.039,-421.16 490,-399.5 498.957,-398.007 508.227,-395.71 517.233,-393.037"/>
<polygon fill="midnightblue" stroke="midnightblue" points="518.384,-396.344 526.876,-390.009 516.287,-389.666 518.384,-396.344"/>
</g>
<!-- Node6 -->
<g id="node6" class="node"><title>Node6</title>
<g id="a_node6"><a xlink:href="classsoftwarecontainer_1_1_file_toolkit_with_undo.html#a35eb42bdace2695fb3e96cb84a535213" target="_top" xlink:title="createDirectory Create a directory, and if successful append it to a list of dirs to be deleted in th...">
<polygon fill="white" stroke="black" points="667,-349 667,-390 772,-390 772,-349 667,-349"/>
<text text-anchor="start" x="675" y="-378" font-family="Helvetica,sans-Serif" font-size="10.00">softwarecontainer::</text>
<text text-anchor="start" x="675" y="-367" font-family="Helvetica,sans-Serif" font-size="10.00">FileToolkitWithUndo</text>
<text text-anchor="middle" x="719.5" y="-356" font-family="Helvetica,sans-Serif" font-size="10.00">::createDirectory</text>
</a>
</g>
</g>
<!-- Node1&#45;&gt;Node6 -->
<g id="edge8" class="edge"><title>Node1&#45;&gt;Node6</title>
<path fill="none" stroke="midnightblue" d="M118.321,-291.462C210.54,-256.783 454.471,-180.316 631,-263.5 648.508,-271.75 678.962,-312.107 698.925,-340.568"/>
<polygon fill="midnightblue" stroke="midnightblue" points="696.18,-342.752 704.757,-348.97 701.93,-338.76 696.18,-342.752"/>
</g>
<!-- Node7 -->
<g id="node7" class="node"><title>Node7</title>
<g id="a_node7"><a xlink:href="namespacesoftwarecontainer.html#a44f64c34c09d1ffdb18428b41f0d9e91" target="_top" xlink:title="isDirectory Check if path is a directory ">
<polygon fill="white" stroke="black" points="808,-354.5 808,-384.5 908,-384.5 908,-354.5 808,-354.5"/>
<text text-anchor="start" x="816" y="-372.5" font-family="Helvetica,sans-Serif" font-size="10.00">softwarecontainer::</text>
<text text-anchor="middle" x="858" y="-361.5" font-family="Helvetica,sans-Serif" font-size="10.00">isDirectory</text>
</a>
</g>
</g>
<!-- Node1&#45;&gt;Node7 -->
<g id="edge19" class="edge"><title>Node1&#45;&gt;Node7</title>
<path fill="none" stroke="midnightblue" d="M96.3736,-321.681C117.23,-341.456 156.445,-375.819 196,-395.5 288.762,-441.654 317.39,-456.5 421,-456.5 421,-456.5 421,-456.5 579.5,-456.5 668.858,-456.5 767.295,-414.918 819.548,-389.248"/>
<polygon fill="midnightblue" stroke="midnightblue" points="821.37,-392.251 828.755,-384.654 818.244,-385.988 821.37,-392.251"/>
</g>
<!-- Node8 -->
<g id="node8" class="node"><title>Node8</title>
<g id="a_node8"><a xlink:href="classsoftwarecontainer_1_1_container.html#a480d9a7d3a2c0ee9d1756a2bdfc29f59" target="_top" xlink:title="synchronous version of execute ">
<polygon fill="white" stroke="black" points="196,-185.5 196,-215.5 318,-215.5 318,-185.5 196,-185.5"/>
<text text-anchor="start" x="204" y="-203.5" font-family="Helvetica,sans-Serif" font-size="10.00">softwarecontainer::</text>
<text text-anchor="middle" x="257" y="-192.5" font-family="Helvetica,sans-Serif" font-size="10.00">Container::executeSync</text>
</a>
</g>
</g>
<!-- Node1&#45;&gt;Node8 -->
<g id="edge9" class="edge"><title>Node1&#45;&gt;Node8</title>
<path fill="none" stroke="midnightblue" d="M102.131,-291.422C124.836,-275.487 162.222,-250.011 196,-230.5 202.03,-227.017 208.517,-223.524 214.918,-220.216"/>
<polygon fill="midnightblue" stroke="midnightblue" points="216.835,-223.168 224.172,-215.525 213.67,-216.925 216.835,-223.168"/>
</g>
<!-- Node2&#45;&gt;Node3 -->
<g id="edge2" class="edge"><title>Node2&#45;&gt;Node3</title>
<path fill="none" stroke="midnightblue" d="M309.688,-324.544C366.619,-316.881 458.021,-304.58 517.921,-296.518"/>
<polygon fill="midnightblue" stroke="midnightblue" points="518.544,-299.966 527.988,-295.164 517.611,-293.029 518.544,-299.966"/>
</g>
<!-- Node4 -->
<g id="node4" class="node"><title>Node4</title>
<g id="a_node4"><a xlink:href="classsoftwarecontainer_1_1_file_toolkit_with_undo.html#a649391903bf1a0eec92c829713117a74" target="_top" xlink:title="tempDir Creates a temporary directory at templatePath. ">
<polygon fill="white" stroke="black" points="369.5,-349 369.5,-390 474.5,-390 474.5,-349 369.5,-349"/>
<text text-anchor="start" x="377.5" y="-378" font-family="Helvetica,sans-Serif" font-size="10.00">softwarecontainer::</text>
<text text-anchor="start" x="377.5" y="-367" font-family="Helvetica,sans-Serif" font-size="10.00">FileToolkitWithUndo</text>
<text text-anchor="middle" x="422" y="-356" font-family="Helvetica,sans-Serif" font-size="10.00">::tempDir</text>
</a>
</g>
</g>
<!-- Node2&#45;&gt;Node4 -->
<g id="edge3" class="edge"><title>Node2&#45;&gt;Node4</title>
<path fill="none" stroke="midnightblue" d="M309.574,-343.523C325.408,-347.215 342.992,-351.314 359.425,-355.145"/>
<polygon fill="midnightblue" stroke="midnightblue" points="358.948,-358.628 369.482,-357.49 360.538,-351.811 358.948,-358.628"/>
</g>
<!-- Node4&#45;&gt;Node5 -->
<g id="edge4" class="edge"><title>Node4&#45;&gt;Node5</title>
<path fill="none" stroke="midnightblue" d="M474.876,-369.5C487.939,-369.5 502.092,-369.5 515.592,-369.5"/>
<polygon fill="midnightblue" stroke="midnightblue" points="515.761,-373 525.761,-369.5 515.761,-366 515.761,-373"/>
</g>
<!-- Node5&#45;&gt;Node6 -->
<g id="edge5" class="edge"><title>Node5&#45;&gt;Node6</title>
<path fill="none" stroke="midnightblue" d="M631.258,-362.949C639.49,-362.761 648.077,-362.706 656.514,-362.785"/>
<polygon fill="midnightblue" stroke="midnightblue" points="656.643,-366.288 666.698,-362.948 656.756,-359.289 656.643,-366.288"/>
</g>
<!-- Node6&#45;&gt;Node5 -->
<g id="edge7" class="edge"><title>Node6&#45;&gt;Node5</title>
<path fill="none" stroke="midnightblue" d="M666.698,-376.052C658.466,-376.24 649.878,-376.294 641.441,-376.214"/>
<polygon fill="midnightblue" stroke="midnightblue" points="641.314,-372.712 631.258,-376.051 641.201,-379.711 641.314,-372.712"/>
</g>
<!-- Node6&#45;&gt;Node7 -->
<g id="edge6" class="edge"><title>Node6&#45;&gt;Node7</title>
<path fill="none" stroke="midnightblue" d="M772.105,-369.5C780.371,-369.5 788.983,-369.5 797.416,-369.5"/>
<polygon fill="midnightblue" stroke="midnightblue" points="797.579,-373 807.579,-369.5 797.579,-366 797.579,-373"/>
</g>
<!-- Node9 -->
<g id="node9" class="node"><title>Node9</title>
<g id="a_node9"><a xlink:href="classsoftwarecontainer_1_1_container.html#ae18efbb5f1588ed2211d7e876ede84ab" target="_top" xlink:title="Start a process from the given command line, with an environment consisting of the variables previous...">
<polygon fill="white" stroke="black" points="372,-185.5 372,-215.5 472,-215.5 472,-185.5 372,-185.5"/>
<text text-anchor="start" x="380" y="-203.5" font-family="Helvetica,sans-Serif" font-size="10.00">softwarecontainer::</text>
<text text-anchor="middle" x="422" y="-192.5" font-family="Helvetica,sans-Serif" font-size="10.00">Container::execute</text>
</a>
</g>
</g>
<!-- Node8&#45;&gt;Node9 -->
<g id="edge10" class="edge"><title>Node8&#45;&gt;Node9</title>
<path fill="none" stroke="midnightblue" d="M318.232,-200.5C332.462,-200.5 347.623,-200.5 361.807,-200.5"/>
<polygon fill="midnightblue" stroke="midnightblue" points="361.935,-204 371.935,-200.5 361.935,-197 361.935,-204"/>
</g>
<!-- Node10 -->
<g id="node10" class="node"><title>Node10</title>
<g id="a_node10"><a xlink:href="namespacesoftwarecontainer.html#aee26a680bb2961627889d39c9f874b2c" target="_top" xlink:title="waitForProcessTermination Waits for a process to terminate and then returns the status of the process...">
<polygon fill="white" stroke="black" points="354,-136.5 354,-166.5 490,-166.5 490,-136.5 354,-136.5"/>
<text text-anchor="start" x="362" y="-154.5" font-family="Helvetica,sans-Serif" font-size="10.00">softwarecontainer::</text>
<text text-anchor="middle" x="422" y="-143.5" font-family="Helvetica,sans-Serif" font-size="10.00">waitForProcessTermination</text>
</a>
</g>
</g>
<!-- Node8&#45;&gt;Node10 -->
<g id="edge11" class="edge"><title>Node8&#45;&gt;Node10</title>
<path fill="none" stroke="midnightblue" d="M308.235,-185.399C324.891,-180.392 343.6,-174.768 360.919,-169.561"/>
<polygon fill="midnightblue" stroke="midnightblue" points="362.361,-172.782 370.93,-166.552 360.346,-166.079 362.361,-172.782"/>
</g>
<!-- Node10&#45;&gt;Node3 -->
<g id="edge12" class="edge"><title>Node10&#45;&gt;Node3</title>
<path fill="none" stroke="midnightblue" d="M474.657,-166.549C480.068,-169.121 485.301,-172.088 490,-175.5 492.258,-177.139 534.563,-232.291 559.508,-264.927"/>
<polygon fill="midnightblue" stroke="midnightblue" points="556.887,-267.261 565.739,-273.082 562.449,-263.011 556.887,-267.261"/>
</g>
<!-- Node10&#45;&gt;Node7 -->
<g id="edge13" class="edge"><title>Node10&#45;&gt;Node7</title>
<path fill="none" stroke="midnightblue" d="M465.598,-166.557C473.715,-169.483 482.131,-172.556 490,-175.5 553.002,-199.066 570.776,-200.537 631,-230.5 704.154,-266.896 784.437,-319.59 826.847,-348.522"/>
<polygon fill="midnightblue" stroke="midnightblue" points="825.078,-351.553 835.305,-354.321 829.036,-345.78 825.078,-351.553"/>
</g>
<!-- Node11 -->
<g id="node11" class="node"><title>Node11</title>
<g id="a_node11"><a xlink:href="namespacesoftwarecontainer.html#acaa3372166baaae42d0d55577b99308e" target="_top" xlink:title="isDirectoryEmpty Check if path is empty ">
<polygon fill="white" stroke="black" points="528.5,-147.5 528.5,-177.5 628.5,-177.5 628.5,-147.5 528.5,-147.5"/>
<text text-anchor="start" x="536.5" y="-165.5" font-family="Helvetica,sans-Serif" font-size="10.00">softwarecontainer::</text>
<text text-anchor="middle" x="578.5" y="-154.5" font-family="Helvetica,sans-Serif" font-size="10.00">isDirectoryEmpty</text>
</a>
</g>
</g>
<!-- Node10&#45;&gt;Node11 -->
<g id="edge14" class="edge"><title>Node10&#45;&gt;Node11</title>
<path fill="none" stroke="midnightblue" d="M490.317,-156.293C499.533,-156.949 508.942,-157.619 518.006,-158.264"/>
<polygon fill="midnightblue" stroke="midnightblue" points="517.841,-161.761 528.064,-158.98 518.338,-154.779 517.841,-161.761"/>
</g>
<!-- Node12 -->
<g id="node12" class="node"><title>Node12</title>
<g id="a_node12"><a xlink:href="namespacesoftwarecontainer.html#a3a71c6d06c86e4f62e7f2b6d7c926f66" target="_top" xlink:title="isFile Check if path is a file ">
<polygon fill="white" stroke="black" points="528.5,-98.5 528.5,-128.5 628.5,-128.5 628.5,-98.5 528.5,-98.5"/>
<text text-anchor="start" x="536.5" y="-116.5" font-family="Helvetica,sans-Serif" font-size="10.00">softwarecontainer::</text>
<text text-anchor="middle" x="578.5" y="-105.5" font-family="Helvetica,sans-Serif" font-size="10.00">isFile</text>
</a>
</g>
</g>
<!-- Node10&#45;&gt;Node12 -->
<g id="edge15" class="edge"><title>Node10&#45;&gt;Node12</title>
<path fill="none" stroke="midnightblue" d="M484.062,-136.481C495.414,-133.69 507.253,-130.778 518.54,-128.002"/>
<polygon fill="midnightblue" stroke="midnightblue" points="519.415,-131.391 528.29,-125.603 517.744,-124.593 519.415,-131.391"/>
</g>
<!-- Node13 -->
<g id="node13" class="node"><title>Node13</title>
<g id="a_node13"><a xlink:href="namespacesoftwarecontainer.html#acd78c8c457ea2f848b546ec21db98285" target="_top" xlink:title="isPipe Check if path is a pipe ">
<polygon fill="white" stroke="black" points="528.5,-49.5 528.5,-79.5 628.5,-79.5 628.5,-49.5 528.5,-49.5"/>
<text text-anchor="start" x="536.5" y="-67.5" font-family="Helvetica,sans-Serif" font-size="10.00">softwarecontainer::</text>
<text text-anchor="middle" x="578.5" y="-56.5" font-family="Helvetica,sans-Serif" font-size="10.00">isPipe</text>
</a>
</g>
</g>
<!-- Node10&#45;&gt;Node13 -->
<g id="edge16" class="edge"><title>Node10&#45;&gt;Node13</title>
<path fill="none" stroke="midnightblue" d="M445.88,-136.476C466.469,-123.206 497.74,-103.665 526,-88.5 528.737,-87.0315 531.579,-85.5612 534.46,-84.1117"/>
<polygon fill="midnightblue" stroke="midnightblue" points="536.268,-87.1233 543.709,-79.581 533.189,-80.8369 536.268,-87.1233"/>
</g>
<!-- Node14 -->
<g id="node14" class="node"><title>Node14</title>
<g id="a_node14"><a xlink:href="namespacesoftwarecontainer.html#a21a5de23f41d3f27cf7d31994f518cc0" target="_top" xlink:title="isSocket Check if path is a socket ">
<polygon fill="white" stroke="black" points="528.5,-0.5 528.5,-30.5 628.5,-30.5 628.5,-0.5 528.5,-0.5"/>
<text text-anchor="start" x="536.5" y="-18.5" font-family="Helvetica,sans-Serif" font-size="10.00">softwarecontainer::</text>
<text text-anchor="middle" x="578.5" y="-7.5" font-family="Helvetica,sans-Serif" font-size="10.00">isSocket</text>
</a>
</g>
</g>
<!-- Node10&#45;&gt;Node14 -->
<g id="edge17" class="edge"><title>Node10&#45;&gt;Node14</title>
<path fill="none" stroke="midnightblue" d="M433.832,-136.336C451.116,-113.012 486.985,-68.0459 526,-39.5 527.811,-38.1749 529.707,-36.8957 531.658,-35.6649"/>
<polygon fill="midnightblue" stroke="midnightblue" points="533.56,-38.6089 540.478,-30.5845 530.066,-32.5432 533.56,-38.6089"/>
</g>
</g>
</svg>
