<?xml version="1.0" encoding="UTF-8" standalone="no"?>
<!DOCTYPE svg PUBLIC "-//W3C//DTD SVG 1.1//EN"
 "http://www.w3.org/Graphics/SVG/1.1/DTD/svg11.dtd">
<!-- Generated by graphviz version 2.38.0 (20140413.2041)
 -->
<!-- Title: Netlink::getKernelDump Pages: 1 -->
<svg width="451pt" height="104pt"
 viewBox="0.00 0.00 451.00 104.00" xmlns="http://www.w3.org/2000/svg" xmlns:xlink="http://www.w3.org/1999/xlink">
<g id="graph0" class="graph" transform="scale(1 1) rotate(0) translate(4 100)">
<title>Netlink::getKernelDump</title>
<polygon fill="white" stroke="none" points="-4,4 -4,-100 447,-100 447,4 -4,4"/>
<!-- Node1 -->
<g id="node1" class="node"><title>Node1</title>
<polygon fill="#bfbfbf" stroke="black" points="0,-19.5 0,-38.5 121,-38.5 121,-19.5 0,-19.5"/>
<text text-anchor="middle" x="60.5" y="-26.5" font-family="Helvetica,sans-Serif" font-size="10.00">Netlink::getKernelDump</text>
</g>
<!-- Node2 -->
<g id="node2" class="node"><title>Node2</title>
<g id="a_node2"><a xlink:href="class_netlink.html#af2756a7ed673d086466f75d57de09fdf" target="_top" xlink:title="check for a kernel dump, and if not present, try to get one ">
<polygon fill="white" stroke="black" points="157,-38.5 157,-57.5 291,-57.5 291,-38.5 157,-38.5"/>
<text text-anchor="middle" x="224" y="-45.5" font-family="Helvetica,sans-Serif" font-size="10.00">Netlink::checkKernelDump</text>
</a>
</g>
</g>
<!-- Node1&#45;&gt;Node2 -->
<g id="edge1" class="edge"><title>Node1&#45;&gt;Node2</title>
<path fill="none" stroke="midnightblue" d="M131.36,-37.2189C139.795,-38.2111 148.39,-39.2224 156.77,-40.2083"/>
<polygon fill="midnightblue" stroke="midnightblue" points="131.518,-33.7134 121.178,-36.0209 130.7,-40.6654 131.518,-33.7134"/>
</g>
<!-- Node6 -->
<g id="node6" class="node"><title>Node6</title>
<g id="a_node6"><a xlink:href="class_netlink.html#aca72209683b0e8ec83cf1c808561eb69" target="_top" xlink:title="Construct a new Netlink object. ">
<polygon fill="white" stroke="black" points="182,-0.5 182,-19.5 266,-19.5 266,-0.5 182,-0.5"/>
<text text-anchor="middle" x="224" y="-7.5" font-family="Helvetica,sans-Serif" font-size="10.00">Netlink::Netlink</text>
</a>
</g>
</g>
<!-- Node1&#45;&gt;Node6 -->
<g id="edge5" class="edge"><title>Node1&#45;&gt;Node6</title>
<path fill="none" stroke="midnightblue" d="M131.212,-20.7986C148.428,-18.7731 166.327,-16.6674 181.698,-14.8591"/>
<polygon fill="midnightblue" stroke="midnightblue" points="130.7,-17.3346 121.178,-21.9791 131.518,-24.2866 130.7,-17.3346"/>
</g>
<!-- Node3 -->
<g id="node3" class="node"><title>Node3</title>
<g id="a_node3"><a xlink:href="class_netlink.html#a543fb0107278eb2bf932cfa52a615f7a" target="_top" xlink:title="Bring the given interface up. ">
<polygon fill="white" stroke="black" points="344.5,-76.5 344.5,-95.5 425.5,-95.5 425.5,-76.5 344.5,-76.5"/>
<text text-anchor="middle" x="385" y="-83.5" font-family="Helvetica,sans-Serif" font-size="10.00">Netlink::linkUp</text>
</a>
</g>
</g>
<!-- Node2&#45;&gt;Node3 -->
<g id="edge2" class="edge"><title>Node2&#45;&gt;Node3</title>
<path fill="none" stroke="midnightblue" d="M275.115,-59.9773C297.486,-65.3237 323.469,-71.5334 344.441,-76.5457"/>
<polygon fill="midnightblue" stroke="midnightblue" points="275.662,-56.5094 265.122,-57.589 274.035,-63.3177 275.662,-56.5094"/>
</g>
<!-- Node4 -->
<g id="node4" class="node"><title>Node4</title>
<g id="a_node4"><a xlink:href="class_netlink.html#a2d30154efaa239d181651a953720f916" target="_top" xlink:title="Check that the device given is a network bridge. ">
<polygon fill="white" stroke="black" points="341.5,-38.5 341.5,-57.5 428.5,-57.5 428.5,-38.5 341.5,-38.5"/>
<text text-anchor="middle" x="385" y="-45.5" font-family="Helvetica,sans-Serif" font-size="10.00">Netlink::findLink</text>
</a>
</g>
</g>
<!-- Node2&#45;&gt;Node4 -->
<g id="edge3" class="edge"><title>Node2&#45;&gt;Node4</title>
<path fill="none" stroke="midnightblue" d="M301.42,-48C315.049,-48 328.798,-48 341.062,-48"/>
<polygon fill="midnightblue" stroke="midnightblue" points="301.049,-44.5001 291.049,-48 301.049,-51.5001 301.049,-44.5001"/>
</g>
<!-- Node5 -->
<g id="node5" class="node"><title>Node5</title>
<g id="a_node5"><a xlink:href="class_netlink.html#ad4bf08fab49ab14314e4925ecedd8cb6" target="_top" xlink:title="Get all addresses associated with the given interface index. ">
<polygon fill="white" stroke="black" points="327,-0.5 327,-19.5 443,-19.5 443,-0.5 327,-0.5"/>
<text text-anchor="middle" x="385" y="-7.5" font-family="Helvetica,sans-Serif" font-size="10.00">Netlink::findAddresses</text>
</a>
</g>
</g>
<!-- Node2&#45;&gt;Node5 -->
<g id="edge4" class="edge"><title>Node2&#45;&gt;Node5</title>
<path fill="none" stroke="midnightblue" d="M275.077,-36.032C297.358,-30.7069 323.229,-24.5238 344.166,-19.5201"/>
<polygon fill="midnightblue" stroke="midnightblue" points="274.035,-32.6823 265.122,-38.411 275.662,-39.4906 274.035,-32.6823"/>
</g>
</g>
</svg>
