<?xml version="1.0" encoding="UTF-8" standalone="no"?>
<!DOCTYPE svg PUBLIC "-//W3C//DTD SVG 1.1//EN"
 "http://www.w3.org/Graphics/SVG/1.1/DTD/svg11.dtd">
<!-- Generated by graphviz version 2.38.0 (20140413.2041)
 -->
<!-- Title: softwarecontainer::SoftwareContainerError Pages: 1 -->
<svg width="591pt" height="382pt"
 viewBox="0.00 0.00 591.00 382.00" xmlns="http://www.w3.org/2000/svg" xmlns:xlink="http://www.w3.org/1999/xlink">
<g id="graph0" class="graph" transform="scale(1 1) rotate(0) translate(4 378)">
<title>softwarecontainer::SoftwareContainerError</title>
<polygon fill="white" stroke="none" points="-4,4 -4,-378 587,-378 587,4 -4,4"/>
<!-- Node1 -->
<g id="node1" class="node"><title>Node1</title>
<polygon fill="#bfbfbf" stroke="black" points="114,-98.5 114,-128.5 233,-128.5 233,-98.5 114,-98.5"/>
<text text-anchor="start" x="122" y="-116.5" font-family="Helvetica,sans-Serif" font-size="10.00">softwarecontainer::</text>
<text text-anchor="middle" x="173.5" y="-105.5" font-family="Helvetica,sans-Serif" font-size="10.00">SoftwareContainerError</text>
</g>
<!-- Node3 -->
<g id="node3" class="node"><title>Node3</title>
<g id="a_node3"><a xlink:href="classsoftwarecontainer_1_1_cgroups_gateway_error.html" target="_top" xlink:title="softwarecontainer::\lCgroupsGatewayError">
<polygon fill="white" stroke="black" points="284.5,-269.5 284.5,-299.5 397.5,-299.5 397.5,-269.5 284.5,-269.5"/>
<text text-anchor="start" x="292.5" y="-287.5" font-family="Helvetica,sans-Serif" font-size="10.00">softwarecontainer::</text>
<text text-anchor="middle" x="341" y="-276.5" font-family="Helvetica,sans-Serif" font-size="10.00">CgroupsGatewayError</text>
</a>
</g>
</g>
<!-- Node1&#45;&gt;Node3 -->
<g id="edge2" class="edge"><title>Node1&#45;&gt;Node3</title>
<path fill="none" stroke="midnightblue" d="M196.385,-136.113C230.586,-171.45 295.815,-238.846 325.108,-269.113"/>
<polygon fill="midnightblue" stroke="midnightblue" points="198.657,-133.427 189.187,-128.675 193.627,-138.295 198.657,-133.427"/>
</g>
<!-- Node7 -->
<g id="node7" class="node"><title>Node7</title>
<g id="a_node7"><a xlink:href="classsoftwarecontainer_1_1_config_store_error.html" target="_top" xlink:title="softwarecontainer::\lConfigStoreError">
<polygon fill="white" stroke="black" points="291,-147.5 291,-177.5 391,-177.5 391,-147.5 291,-147.5"/>
<text text-anchor="start" x="299" y="-165.5" font-family="Helvetica,sans-Serif" font-size="10.00">softwarecontainer::</text>
<text text-anchor="middle" x="341" y="-154.5" font-family="Helvetica,sans-Serif" font-size="10.00">ConfigStoreError</text>
</a>
</g>
</g>
<!-- Node1&#45;&gt;Node7 -->
<g id="edge6" class="edge"><title>Node1&#45;&gt;Node7</title>
<path fill="none" stroke="midnightblue" d="M235.209,-131.474C253.526,-136.898 273.398,-142.781 290.863,-147.952"/>
<polygon fill="midnightblue" stroke="midnightblue" points="236.088,-128.084 225.506,-128.601 234.101,-134.796 236.088,-128.084"/>
</g>
<!-- Node11 -->
<g id="node11" class="node"><title>Node11</title>
<g id="a_node11"><a xlink:href="classsoftwarecontainer_1_1_container_config_parse_error.html" target="_top" xlink:title="softwarecontainer::\lContainerConfigParseError">
<polygon fill="white" stroke="black" points="274,-98.5 274,-128.5 408,-128.5 408,-98.5 274,-98.5"/>
<text text-anchor="start" x="282" y="-116.5" font-family="Helvetica,sans-Serif" font-size="10.00">softwarecontainer::</text>
<text text-anchor="middle" x="341" y="-105.5" font-family="Helvetica,sans-Serif" font-size="10.00">ContainerConfigParseError</text>
</a>
</g>
</g>
<!-- Node1&#45;&gt;Node11 -->
<g id="edge10" class="edge"><title>Node1&#45;&gt;Node11</title>
<path fill="none" stroke="midnightblue" d="M243.597,-113.5C253.582,-113.5 263.84,-113.5 273.767,-113.5"/>
<polygon fill="midnightblue" stroke="midnightblue" points="243.315,-110 233.315,-113.5 243.315,-117 243.315,-110"/>
</g>
<!-- Node12 -->
<g id="node12" class="node"><title>Node12</title>
<g id="a_node12"><a xlink:href="classsoftwarecontainer_1_1_network_gateway_error.html" target="_top" xlink:title="softwarecontainer::\lNetworkGatewayError">
<polygon fill="white" stroke="black" points="284.5,-49.5 284.5,-79.5 397.5,-79.5 397.5,-49.5 284.5,-49.5"/>
<text text-anchor="start" x="292.5" y="-67.5" font-family="Helvetica,sans-Serif" font-size="10.00">softwarecontainer::</text>
<text text-anchor="middle" x="341" y="-56.5" font-family="Helvetica,sans-Serif" font-size="10.00">NetworkGatewayError</text>
</a>
</g>
</g>
<!-- Node1&#45;&gt;Node12 -->
<g id="edge11" class="edge"><title>Node1&#45;&gt;Node12</title>
<path fill="none" stroke="midnightblue" d="M235.184,-95.533C252.917,-90.283 272.108,-84.6011 289.163,-79.5516"/>
<polygon fill="midnightblue" stroke="midnightblue" points="234.101,-92.2036 225.506,-98.3986 236.088,-98.9156 234.101,-92.2036"/>
</g>
<!-- Node14 -->
<g id="node14" class="node"><title>Node14</title>
<g id="a_node14"><a xlink:href="classsoftwarecontainer_1_1_software_container_agent_error.html" target="_top" xlink:title="An error occured in SoftwareContainerAgent. ">
<polygon fill="white" stroke="black" points="269,-0.5 269,-30.5 413,-30.5 413,-0.5 269,-0.5"/>
<text text-anchor="start" x="277" y="-18.5" font-family="Helvetica,sans-Serif" font-size="10.00">softwarecontainer::</text>
<text text-anchor="middle" x="341" y="-7.5" font-family="Helvetica,sans-Serif" font-size="10.00">SoftwareContainerAgentError</text>
</a>
</g>
</g>
<!-- Node1&#45;&gt;Node14 -->
<g id="edge13" class="edge"><title>Node1&#45;&gt;Node14</title>
<path fill="none" stroke="midnightblue" d="M198.124,-91.2795C216.335,-75.1155 242.765,-53.6675 269,-39.5 275.182,-36.1614 281.916,-33.1634 288.692,-30.5108"/>
<polygon fill="midnightblue" stroke="midnightblue" points="195.439,-88.9883 190.365,-98.2892 200.132,-94.1824 195.439,-88.9883"/>
</g>
<!-- Node2 -->
<g id="node2" class="node"><title>Node2</title>
<polygon fill="white" stroke="#bfbfbf" points="0,-104 0,-123 78,-123 78,-104 0,-104"/>
<text text-anchor="middle" x="39" y="-111" font-family="Helvetica,sans-Serif" font-size="10.00">std::exception</text>
</g>
<!-- Node2&#45;&gt;Node1 -->
<g id="edge1" class="edge"><title>Node2&#45;&gt;Node1</title>
<path fill="none" stroke="midnightblue" d="M88.4181,-113.5C96.5843,-113.5 105.141,-113.5 113.54,-113.5"/>
<polygon fill="midnightblue" stroke="midnightblue" points="88.3245,-110 78.3245,-113.5 88.3245,-117 88.3245,-110"/>
</g>
<!-- Node4 -->
<g id="node4" class="node"><title>Node4</title>
<g id="a_node4"><a xlink:href="classsoftwarecontainer_1_1_bad_suffix_error.html" target="_top" xlink:title="softwarecontainer::\lBadSuffixError">
<polygon fill="white" stroke="black" points="466,-343.5 466,-373.5 566,-373.5 566,-343.5 466,-343.5"/>
<text text-anchor="start" x="474" y="-361.5" font-family="Helvetica,sans-Serif" font-size="10.00">softwarecontainer::</text>
<text text-anchor="middle" x="516" y="-350.5" font-family="Helvetica,sans-Serif" font-size="10.00">BadSuffixError</text>
</a>
</g>
</g>
<!-- Node3&#45;&gt;Node4 -->
<g id="edge3" class="edge"><title>Node3&#45;&gt;Node4</title>
<path fill="none" stroke="midnightblue" d="M381.7,-304.073C401.699,-313.67 426.434,-325.146 449,-334.5 456.321,-337.535 464.179,-340.576 471.83,-343.424"/>
<polygon fill="midnightblue" stroke="midnightblue" points="383.109,-300.866 372.582,-299.67 380.065,-307.17 383.109,-300.866"/>
</g>
<!-- Node5 -->
<g id="node5" class="node"><title>Node5</title>
<g id="a_node5"><a xlink:href="classsoftwarecontainer_1_1_j_son_error.html" target="_top" xlink:title="softwarecontainer::\lJSonError">
<polygon fill="white" stroke="black" points="466,-294.5 466,-324.5 566,-324.5 566,-294.5 466,-294.5"/>
<text text-anchor="start" x="474" y="-312.5" font-family="Helvetica,sans-Serif" font-size="10.00">softwarecontainer::</text>
<text text-anchor="middle" x="516" y="-301.5" font-family="Helvetica,sans-Serif" font-size="10.00">JSonError</text>
</a>
</g>
</g>
<!-- Node3&#45;&gt;Node5 -->
<g id="edge4" class="edge"><title>Node3&#45;&gt;Node5</title>
<path fill="none" stroke="midnightblue" d="M407.634,-293.985C426.949,-296.776 447.74,-299.78 465.834,-302.395"/>
<polygon fill="midnightblue" stroke="midnightblue" points="408.088,-290.514 397.691,-292.548 407.087,-297.442 408.088,-290.514"/>
</g>
<!-- Node6 -->
<g id="node6" class="node"><title>Node6</title>
<g id="a_node6"><a xlink:href="classsoftwarecontainer_1_1_limit_range_error.html" target="_top" xlink:title="softwarecontainer::\lLimitRangeError">
<polygon fill="white" stroke="black" points="466,-245.5 466,-275.5 566,-275.5 566,-245.5 466,-245.5"/>
<text text-anchor="start" x="474" y="-263.5" font-family="Helvetica,sans-Serif" font-size="10.00">softwarecontainer::</text>
<text text-anchor="middle" x="516" y="-252.5" font-family="Helvetica,sans-Serif" font-size="10.00">LimitRangeError</text>
</a>
</g>
</g>
<!-- Node3&#45;&gt;Node6 -->
<g id="edge5" class="edge"><title>Node3&#45;&gt;Node6</title>
<path fill="none" stroke="midnightblue" d="M407.634,-275.395C426.949,-272.715 447.74,-269.831 465.834,-267.321"/>
<polygon fill="midnightblue" stroke="midnightblue" points="407.115,-271.933 397.691,-276.774 408.077,-278.867 407.115,-271.933"/>
</g>
<!-- Node8 -->
<g id="node8" class="node"><title>Node8</title>
<g id="a_node8"><a xlink:href="classsoftwarecontainer_1_1_capability_parse_error.html" target="_top" xlink:title="An error occured in ConfigStore when parsing a Capability in a Service Manifest. ">
<polygon fill="white" stroke="black" points="462.5,-196.5 462.5,-226.5 569.5,-226.5 569.5,-196.5 462.5,-196.5"/>
<text text-anchor="start" x="470.5" y="-214.5" font-family="Helvetica,sans-Serif" font-size="10.00">softwarecontainer::</text>
<text text-anchor="middle" x="516" y="-203.5" font-family="Helvetica,sans-Serif" font-size="10.00">CapabilityParseError</text>
</a>
</g>
</g>
<!-- Node7&#45;&gt;Node8 -->
<g id="edge7" class="edge"><title>Node7&#45;&gt;Node8</title>
<path fill="none" stroke="midnightblue" d="M401.004,-179.212C420.935,-184.857 443.039,-191.118 462.437,-196.612"/>
<polygon fill="midnightblue" stroke="midnightblue" points="401.687,-175.768 391.112,-176.41 399.78,-182.503 401.687,-175.768"/>
</g>
<!-- Node9 -->
<g id="node9" class="node"><title>Node9</title>
<g id="a_node9"><a xlink:href="classsoftwarecontainer_1_1_service_manifest_parse_error.html" target="_top" xlink:title="An error occured in ConfigStore when parsing a Service Manifest. ">
<polygon fill="white" stroke="black" points="449,-147.5 449,-177.5 583,-177.5 583,-147.5 449,-147.5"/>
<text text-anchor="start" x="457" y="-165.5" font-family="Helvetica,sans-Serif" font-size="10.00">softwarecontainer::</text>
<text text-anchor="middle" x="516" y="-154.5" font-family="Helvetica,sans-Serif" font-size="10.00">ServiceManifestParseError</text>
</a>
</g>
</g>
<!-- Node7&#45;&gt;Node9 -->
<g id="edge8" class="edge"><title>Node7&#45;&gt;Node9</title>
<path fill="none" stroke="midnightblue" d="M401.481,-162.5C416.787,-162.5 433.347,-162.5 448.964,-162.5"/>
<polygon fill="midnightblue" stroke="midnightblue" points="401.112,-159 391.112,-162.5 401.112,-166 401.112,-159"/>
</g>
<!-- Node10 -->
<g id="node10" class="node"><title>Node10</title>
<g id="a_node10"><a xlink:href="classsoftwarecontainer_1_1_service_manifest_path_error.html" target="_top" xlink:title="An error occured in ConfigStore relating to the path to the Service Manifest(s) ">
<polygon fill="white" stroke="black" points="452,-98.5 452,-128.5 580,-128.5 580,-98.5 452,-98.5"/>
<text text-anchor="start" x="460" y="-116.5" font-family="Helvetica,sans-Serif" font-size="10.00">softwarecontainer::</text>
<text text-anchor="middle" x="516" y="-105.5" font-family="Helvetica,sans-Serif" font-size="10.00">ServiceManifestPathError</text>
</a>
</g>
</g>
<!-- Node7&#45;&gt;Node10 -->
<g id="edge9" class="edge"><title>Node7&#45;&gt;Node10</title>
<path fill="none" stroke="midnightblue" d="M400.914,-145.813C420.659,-140.221 442.547,-134.021 461.826,-128.561"/>
<polygon fill="midnightblue" stroke="midnightblue" points="399.78,-142.497 391.112,-148.59 401.687,-149.232 399.78,-142.497"/>
</g>
<!-- Node13 -->
<g id="node13" class="node"><title>Node13</title>
<g id="a_node13"><a xlink:href="classsoftwarecontainer_1_1_i_p_allocation_error.html" target="_top" xlink:title="softwarecontainer::\lIPAllocationError">
<polygon fill="white" stroke="black" points="466,-49.5 466,-79.5 566,-79.5 566,-49.5 466,-49.5"/>
<text text-anchor="start" x="474" y="-67.5" font-family="Helvetica,sans-Serif" font-size="10.00">softwarecontainer::</text>
<text text-anchor="middle" x="516" y="-56.5" font-family="Helvetica,sans-Serif" font-size="10.00">IPAllocationError</text>
</a>
</g>
</g>
<!-- Node12&#45;&gt;Node13 -->
<g id="edge12" class="edge"><title>Node12&#45;&gt;Node13</title>
<path fill="none" stroke="midnightblue" d="M407.9,-64.5C427.14,-64.5 447.823,-64.5 465.834,-64.5"/>
<polygon fill="midnightblue" stroke="midnightblue" points="407.691,-61.0001 397.691,-64.5 407.691,-68.0001 407.691,-61.0001"/>
</g>
</g>
</svg>
