<?xml version="1.0" encoding="UTF-8" standalone="no"?>
<!DOCTYPE svg PUBLIC "-//W3C//DTD SVG 1.1//EN"
 "http://www.w3.org/Graphics/SVG/1.1/DTD/svg11.dtd">
<!-- Generated by graphviz version 2.38.0 (20140413.2041)
 -->
<!-- Title: softwarecontainer::Container::execute Pages: 1 -->
<svg width="462pt" height="39pt"
 viewBox="0.00 0.00 462.00 39.00" xmlns="http://www.w3.org/2000/svg" xmlns:xlink="http://www.w3.org/1999/xlink">
<g id="graph0" class="graph" transform="scale(1 1) rotate(0) translate(4 35)">
<title>softwarecontainer::Container::execute</title>
<polygon fill="white" stroke="none" points="-4,4 -4,-35 458,-35 458,4 -4,4"/>
<!-- Node1 -->
<g id="node1" class="node"><title>Node1</title>
<polygon fill="#bfbfbf" stroke="black" points="0,-0.5 0,-30.5 100,-30.5 100,-0.5 0,-0.5"/>
<text text-anchor="start" x="8" y="-18.5" font-family="Helvetica,sans-Serif" font-size="10.00">softwarecontainer::</text>
<text text-anchor="middle" x="50" y="-7.5" font-family="Helvetica,sans-Serif" font-size="10.00">Container::execute</text>
</g>
<!-- Node2 -->
<g id="node2" class="node"><title>Node2</title>
<g id="a_node2"><a xlink:href="classsoftwarecontainer_1_1_container.html#a480d9a7d3a2c0ee9d1756a2bdfc29f59" target="_top" xlink:title="synchronous version of execute ">
<polygon fill="white" stroke="black" points="136,-0.5 136,-30.5 258,-30.5 258,-0.5 136,-0.5"/>
<text text-anchor="start" x="144" y="-18.5" font-family="Helvetica,sans-Serif" font-size="10.00">softwarecontainer::</text>
<text text-anchor="middle" x="197" y="-7.5" font-family="Helvetica,sans-Serif" font-size="10.00">Container::executeSync</text>
</a>
</g>
</g>
<!-- Node1&#45;&gt;Node2 -->
<g id="edge1" class="edge"><title>Node1&#45;&gt;Node2</title>
<path fill="none" stroke="midnightblue" d="M110.253,-15.5C118.713,-15.5 127.422,-15.5 135.898,-15.5"/>
<polygon fill="midnightblue" stroke="midnightblue" points="110.09,-12.0001 100.09,-15.5 110.09,-19.0001 110.09,-12.0001"/>
</g>
<!-- Node3 -->
<g id="node3" class="node"><title>Node3</title>
<g id="a_node3"><a xlink:href="classsoftwarecontainer_1_1_container.html#ae5445d6a0c4b8b006ed38b3c01bb870c" target="_top" xlink:title="Tries to bind mount a path from host to container. ">
<polygon fill="white" stroke="black" points="294,-0.5 294,-30.5 454,-30.5 454,-0.5 294,-0.5"/>
<text text-anchor="start" x="302" y="-18.5" font-family="Helvetica,sans-Serif" font-size="10.00">softwarecontainer::</text>
<text text-anchor="middle" x="374" y="-7.5" font-family="Helvetica,sans-Serif" font-size="10.00">Container::bindMountInContainer</text>
</a>
</g>
</g>
<!-- Node2&#45;&gt;Node3 -->
<g id="edge2" class="edge"><title>Node2&#45;&gt;Node3</title>
<path fill="none" stroke="midnightblue" d="M268.323,-15.5C276.709,-15.5 285.313,-15.5 293.812,-15.5"/>
<polygon fill="midnightblue" stroke="midnightblue" points="268.225,-12.0001 258.225,-15.5 268.225,-19.0001 268.225,-12.0001"/>
</g>
</g>
</svg>
