<?xml version="1.0" encoding="UTF-8" standalone="no"?>
<!DOCTYPE svg PUBLIC "-//W3C//DTD SVG 1.1//EN"
 "http://www.w3.org/Graphics/SVG/1.1/DTD/svg11.dtd">
<!-- Generated by graphviz version 2.38.0 (20140413.2041)
 -->
<!-- Title: softwarecontainer::Gateway::getContainer Pages: 1 -->
<svg width="338pt" height="207pt"
 viewBox="0.00 0.00 338.00 207.00" xmlns="http://www.w3.org/2000/svg" xmlns:xlink="http://www.w3.org/1999/xlink">
<g id="graph0" class="graph" transform="scale(1 1) rotate(0) translate(4 203)">
<title>softwarecontainer::Gateway::getContainer</title>
<polygon fill="white" stroke="none" points="-4,4 -4,-203 334,-203 334,4 -4,4"/>
<!-- Node1 -->
<g id="node1" class="node"><title>Node1</title>
<polygon fill="#bfbfbf" stroke="black" points="0,-84.5 0,-114.5 117,-114.5 117,-84.5 0,-84.5"/>
<text text-anchor="start" x="8" y="-102.5" font-family="Helvetica,sans-Serif" font-size="10.00">softwarecontainer::</text>
<text text-anchor="middle" x="58.5" y="-91.5" font-family="Helvetica,sans-Serif" font-size="10.00">Gateway::getContainer</text>
</g>
<!-- Node2 -->
<g id="node2" class="node"><title>Node2</title>
<g id="a_node2"><a xlink:href="classsoftwarecontainer_1_1_network_gateway.html#a8a08792ecd43b1694222ca286514ee21" target="_top" xlink:title="Implements Gateway::activateGateway. ">
<polygon fill="white" stroke="black" points="155.5,-168.5 155.5,-198.5 327.5,-198.5 327.5,-168.5 155.5,-168.5"/>
<text text-anchor="start" x="163.5" y="-186.5" font-family="Helvetica,sans-Serif" font-size="10.00">softwarecontainer::</text>
<text text-anchor="middle" x="241.5" y="-175.5" font-family="Helvetica,sans-Serif" font-size="10.00">NetworkGateway::activateGateway</text>
</a>
</g>
</g>
<!-- Node1&#45;&gt;Node2 -->
<g id="edge1" class="edge"><title>Node1&#45;&gt;Node2</title>
<path fill="none" stroke="midnightblue" d="M87.5506,-120.702C105.486,-133.429 129.684,-149.112 153,-159.5 160.482,-162.833 168.535,-165.803 176.618,-168.419"/>
<polygon fill="midnightblue" stroke="midnightblue" points="89.4358,-117.747 79.28,-114.728 85.3369,-123.421 89.4358,-117.747"/>
</g>
<!-- Node3 -->
<g id="node3" class="node"><title>Node3</title>
<g id="a_node3"><a xlink:href="classsoftwarecontainer_1_1_d_bus_gateway_instance.html#a8dc149286b57b259c95d53c130b9a129" target="_top" xlink:title="Implements Gateway::activateGateway. ">
<polygon fill="white" stroke="black" points="182.5,-109 182.5,-150 300.5,-150 300.5,-109 182.5,-109"/>
<text text-anchor="start" x="190.5" y="-138" font-family="Helvetica,sans-Serif" font-size="10.00">softwarecontainer::</text>
<text text-anchor="start" x="190.5" y="-127" font-family="Helvetica,sans-Serif" font-size="10.00">DBusGatewayInstance</text>
<text text-anchor="middle" x="241.5" y="-116" font-family="Helvetica,sans-Serif" font-size="10.00">::activateGateway</text>
</a>
</g>
</g>
<!-- Node1&#45;&gt;Node3 -->
<g id="edge2" class="edge"><title>Node1&#45;&gt;Node3</title>
<path fill="none" stroke="midnightblue" d="M127.19,-110.719C145.329,-113.726 164.777,-116.949 182.35,-119.862"/>
<polygon fill="midnightblue" stroke="midnightblue" points="127.705,-107.257 117.267,-109.075 126.56,-114.163 127.705,-107.257"/>
</g>
<!-- Node4 -->
<g id="node4" class="node"><title>Node4</title>
<g id="a_node4"><a xlink:href="classsoftwarecontainer_1_1_wayland_gateway.html#a8d94bc12193d9066eaa851c749840d82" target="_top" xlink:title="Gateway specific parsing of config elements. ">
<polygon fill="white" stroke="black" points="168,-49 168,-90 315,-90 315,-49 168,-49"/>
<text text-anchor="start" x="176" y="-78" font-family="Helvetica,sans-Serif" font-size="10.00">softwarecontainer::</text>
<text text-anchor="start" x="176" y="-67" font-family="Helvetica,sans-Serif" font-size="10.00">WaylandGateway::readConfig</text>
<text text-anchor="middle" x="241.5" y="-56" font-family="Helvetica,sans-Serif" font-size="10.00">Element</text>
</a>
</g>
</g>
<!-- Node1&#45;&gt;Node4 -->
<g id="edge3" class="edge"><title>Node1&#45;&gt;Node4</title>
<path fill="none" stroke="midnightblue" d="M127.215,-88.2765C140.427,-86.0867 154.332,-83.782 167.7,-81.5662"/>
<polygon fill="midnightblue" stroke="midnightblue" points="126.56,-84.8372 117.267,-89.9253 127.705,-91.743 126.56,-84.8372"/>
</g>
<!-- Node5 -->
<g id="node5" class="node"><title>Node5</title>
<g id="a_node5"><a xlink:href="classsoftwarecontainer_1_1_network_gateway.html#adf3c1eff6621486ea81748e23cc9cbbb" target="_top" xlink:title="Implements Gateway::teardownGateway. ">
<polygon fill="white" stroke="black" points="153,-0.5 153,-30.5 330,-30.5 330,-0.5 153,-0.5"/>
<text text-anchor="start" x="161" y="-18.5" font-family="Helvetica,sans-Serif" font-size="10.00">softwarecontainer::</text>
<text text-anchor="middle" x="241.5" y="-7.5" font-family="Helvetica,sans-Serif" font-size="10.00">NetworkGateway::teardownGateway</text>
</a>
</g>
</g>
<!-- Node1&#45;&gt;Node5 -->
<g id="edge4" class="edge"><title>Node1&#45;&gt;Node5</title>
<path fill="none" stroke="midnightblue" d="M87.5506,-78.2975C105.486,-65.5706 129.684,-49.8877 153,-39.5 160.482,-36.1666 168.535,-33.1972 176.618,-30.5814"/>
<polygon fill="midnightblue" stroke="midnightblue" points="85.3369,-75.5789 79.28,-84.2717 89.4358,-81.2533 85.3369,-75.5789"/>
</g>
</g>
</svg>
