<?xml version="1.0" encoding="UTF-8" standalone="no"?>
<!DOCTYPE svg PUBLIC "-//W3C//DTD SVG 1.1//EN"
 "http://www.w3.org/Graphics/SVG/1.1/DTD/svg11.dtd">
<!-- Generated by graphviz version 2.38.0 (20140413.2041)
 -->
<!-- Title: softwarecontainer::Container::bindMountInContainer Pages: 1 -->
<svg width="635pt" height="301pt"
 viewBox="0.00 0.00 635.00 300.52" xmlns="http://www.w3.org/2000/svg" xmlns:xlink="http://www.w3.org/1999/xlink">
<g id="graph0" class="graph" transform="scale(1 1) rotate(0) translate(4 296.523)">
<title>softwarecontainer::Container::bindMountInContainer</title>
<polygon fill="white" stroke="none" points="-4,4 -4,-296.523 631,-296.523 631,4 -4,4"/>
<!-- Node1 -->
<g id="node1" class="node"><title>Node1</title>
<polygon fill="#bfbfbf" stroke="black" points="0,-193.5 0,-223.5 160,-223.5 160,-193.5 0,-193.5"/>
<text text-anchor="start" x="8" y="-211.5" font-family="Helvetica,sans-Serif" font-size="10.00">softwarecontainer::</text>
<text text-anchor="middle" x="80" y="-200.5" font-family="Helvetica,sans-Serif" font-size="10.00">Container::bindMountInContainer</text>
</g>
<!-- Node2 -->
<g id="node2" class="node"><title>Node2</title>
<g id="a_node2"><a xlink:href="classsoftwarecontainer_1_1_file_toolkit_with_undo.html#a490d4ab2a421aeff2502d305f5d7e396" target="_top" xlink:title="bindMount Bind mount a src directory to another position dst. ">
<polygon fill="white" stroke="black" points="369.5,-237 369.5,-278 474.5,-278 474.5,-237 369.5,-237"/>
<text text-anchor="start" x="377.5" y="-266" font-family="Helvetica,sans-Serif" font-size="10.00">softwarecontainer::</text>
<text text-anchor="start" x="377.5" y="-255" font-family="Helvetica,sans-Serif" font-size="10.00">FileToolkitWithUndo</text>
<text text-anchor="middle" x="422" y="-244" font-family="Helvetica,sans-Serif" font-size="10.00">::bindMount</text>
</a>
</g>
</g>
<!-- Node1&#45;&gt;Node2 -->
<g id="edge1" class="edge"><title>Node1&#45;&gt;Node2</title>
<path fill="none" stroke="midnightblue" d="M160.286,-219.926C220.969,-228.672 303.461,-240.561 359.278,-248.605"/>
<polygon fill="midnightblue" stroke="midnightblue" points="358.981,-252.098 369.378,-250.06 359.98,-245.17 358.981,-252.098"/>
</g>
<!-- Node3 -->
<g id="node3" class="node"><title>Node3</title>
<g id="a_node3"><a xlink:href="namespacesoftwarecontainer.html#ae8835f968ab1d43b4a395b0097490734" target="_top" xlink:title="existsInFileSystem Check if path exists ">
<polygon fill="white" stroke="black" points="526,-245.5 526,-275.5 627,-275.5 627,-245.5 526,-245.5"/>
<text text-anchor="start" x="534" y="-263.5" font-family="Helvetica,sans-Serif" font-size="10.00">softwarecontainer::</text>
<text text-anchor="middle" x="576.5" y="-252.5" font-family="Helvetica,sans-Serif" font-size="10.00">existsInFileSystem</text>
</a>
</g>
</g>
<!-- Node1&#45;&gt;Node3 -->
<g id="edge13" class="edge"><title>Node1&#45;&gt;Node3</title>
<path fill="none" stroke="midnightblue" d="M116.13,-223.588C186.692,-252.048 350.802,-308.956 490,-287.5 502.139,-285.629 514.918,-282.346 526.789,-278.7"/>
<polygon fill="midnightblue" stroke="midnightblue" points="528.064,-281.966 536.513,-275.574 525.922,-275.302 528.064,-281.966"/>
</g>
<!-- Node4 -->
<g id="node4" class="node"><title>Node4</title>
<g id="a_node4"><a xlink:href="namespacesoftwarecontainer.html#a44f64c34c09d1ffdb18428b41f0d9e91" target="_top" xlink:title="isDirectory Check if path is a directory ">
<polygon fill="white" stroke="black" points="526.5,-196.5 526.5,-226.5 626.5,-226.5 626.5,-196.5 526.5,-196.5"/>
<text text-anchor="start" x="534.5" y="-214.5" font-family="Helvetica,sans-Serif" font-size="10.00">softwarecontainer::</text>
<text text-anchor="middle" x="576.5" y="-203.5" font-family="Helvetica,sans-Serif" font-size="10.00">isDirectory</text>
</a>
</g>
</g>
<!-- Node1&#45;&gt;Node4 -->
<g id="edge14" class="edge"><title>Node1&#45;&gt;Node4</title>
<path fill="none" stroke="midnightblue" d="M160.176,-208.98C259.384,-209.582 427.145,-210.6 516.058,-211.139"/>
<polygon fill="midnightblue" stroke="midnightblue" points="516.218,-214.64 526.239,-211.201 516.261,-207.64 516.218,-214.64"/>
</g>
<!-- Node5 -->
<g id="node5" class="node"><title>Node5</title>
<g id="a_node5"><a xlink:href="classsoftwarecontainer_1_1_container.html#a480d9a7d3a2c0ee9d1756a2bdfc29f59" target="_top" xlink:title="synchronous version of execute ">
<polygon fill="white" stroke="black" points="196,-149.5 196,-179.5 318,-179.5 318,-149.5 196,-149.5"/>
<text text-anchor="start" x="204" y="-167.5" font-family="Helvetica,sans-Serif" font-size="10.00">softwarecontainer::</text>
<text text-anchor="middle" x="257" y="-156.5" font-family="Helvetica,sans-Serif" font-size="10.00">Container::executeSync</text>
</a>
</g>
</g>
<!-- Node1&#45;&gt;Node5 -->
<g id="edge4" class="edge"><title>Node1&#45;&gt;Node5</title>
<path fill="none" stroke="midnightblue" d="M140.736,-193.481C155.437,-189.784 171.305,-185.795 186.427,-181.993"/>
<polygon fill="midnightblue" stroke="midnightblue" points="187.392,-185.359 196.237,-179.526 185.685,-178.57 187.392,-185.359"/>
</g>
<!-- Node12 -->
<g id="node12" class="node"><title>Node12</title>
<g id="a_node12"><a xlink:href="classsoftwarecontainer_1_1_file_toolkit_with_undo.html#a44a19890b72a635b3134cb2a07fc0875" target="_top" xlink:title="checks whether given path is already added to clean up handlers or not ">
<polygon fill="white" stroke="black" points="204.5,-90 204.5,-131 309.5,-131 309.5,-90 204.5,-90"/>
<text text-anchor="start" x="212.5" y="-119" font-family="Helvetica,sans-Serif" font-size="10.00">softwarecontainer::</text>
<text text-anchor="start" x="212.5" y="-108" font-family="Helvetica,sans-Serif" font-size="10.00">FileToolkitWithUndo</text>
<text text-anchor="middle" x="257" y="-97" font-family="Helvetica,sans-Serif" font-size="10.00">::pathInList</text>
</a>
</g>
</g>
<!-- Node1&#45;&gt;Node12 -->
<g id="edge15" class="edge"><title>Node1&#45;&gt;Node12</title>
<path fill="none" stroke="midnightblue" d="M105.389,-193.402C128.472,-179.274 164.226,-157.81 196,-140.5 198.864,-138.94 201.819,-137.362 204.811,-135.79"/>
<polygon fill="midnightblue" stroke="midnightblue" points="206.576,-138.817 213.844,-131.108 203.355,-132.602 206.576,-138.817"/>
</g>
<!-- Node2&#45;&gt;Node3 -->
<g id="edge2" class="edge"><title>Node2&#45;&gt;Node3</title>
<path fill="none" stroke="midnightblue" d="M474.63,-258.516C487.85,-258.776 502.177,-259.058 515.768,-259.325"/>
<polygon fill="midnightblue" stroke="midnightblue" points="515.921,-262.829 525.988,-259.526 516.058,-255.83 515.921,-262.829"/>
</g>
<!-- Node2&#45;&gt;Node4 -->
<g id="edge3" class="edge"><title>Node2&#45;&gt;Node4</title>
<path fill="none" stroke="midnightblue" d="M474.63,-241.926C488.049,-237.879 502.609,-233.487 516.382,-229.332"/>
<polygon fill="midnightblue" stroke="midnightblue" points="517.681,-232.596 526.244,-226.357 515.66,-225.895 517.681,-232.596"/>
</g>
<!-- Node6 -->
<g id="node6" class="node"><title>Node6</title>
<g id="a_node6"><a xlink:href="classsoftwarecontainer_1_1_container.html#ae18efbb5f1588ed2211d7e876ede84ab" target="_top" xlink:title="Start a process from the given command line, with an environment consisting of the variables previous...">
<polygon fill="white" stroke="black" points="372,-149.5 372,-179.5 472,-179.5 472,-149.5 372,-149.5"/>
<text text-anchor="start" x="380" y="-167.5" font-family="Helvetica,sans-Serif" font-size="10.00">softwarecontainer::</text>
<text text-anchor="middle" x="422" y="-156.5" font-family="Helvetica,sans-Serif" font-size="10.00">Container::execute</text>
</a>
</g>
</g>
<!-- Node5&#45;&gt;Node6 -->
<g id="edge5" class="edge"><title>Node5&#45;&gt;Node6</title>
<path fill="none" stroke="midnightblue" d="M318.232,-164.5C332.462,-164.5 347.623,-164.5 361.807,-164.5"/>
<polygon fill="midnightblue" stroke="midnightblue" points="361.935,-168 371.935,-164.5 361.935,-161 361.935,-168"/>
</g>
<!-- Node7 -->
<g id="node7" class="node"><title>Node7</title>
<g id="a_node7"><a xlink:href="namespacesoftwarecontainer.html#aee26a680bb2961627889d39c9f874b2c" target="_top" xlink:title="waitForProcessTermination Waits for a process to terminate and then returns the status of the process...">
<polygon fill="white" stroke="black" points="354,-100.5 354,-130.5 490,-130.5 490,-100.5 354,-100.5"/>
<text text-anchor="start" x="362" y="-118.5" font-family="Helvetica,sans-Serif" font-size="10.00">softwarecontainer::</text>
<text text-anchor="middle" x="422" y="-107.5" font-family="Helvetica,sans-Serif" font-size="10.00">waitForProcessTermination</text>
</a>
</g>
</g>
<!-- Node5&#45;&gt;Node7 -->
<g id="edge6" class="edge"><title>Node5&#45;&gt;Node7</title>
<path fill="none" stroke="midnightblue" d="M308.235,-149.399C324.891,-144.392 343.6,-138.768 360.919,-133.561"/>
<polygon fill="midnightblue" stroke="midnightblue" points="362.361,-136.782 370.93,-130.552 360.346,-130.079 362.361,-136.782"/>
</g>
<!-- Node7&#45;&gt;Node3 -->
<g id="edge7" class="edge"><title>Node7&#45;&gt;Node3</title>
<path fill="none" stroke="midnightblue" d="M476.789,-130.598C481.618,-133.369 486.134,-136.64 490,-140.5 522.248,-172.695 495.306,-202.82 526,-236.5 526.868,-237.453 527.783,-238.372 528.736,-239.258"/>
<polygon fill="midnightblue" stroke="midnightblue" points="526.637,-242.06 536.684,-245.425 530.929,-236.53 526.637,-242.06"/>
</g>
<!-- Node7&#45;&gt;Node4 -->
<g id="edge8" class="edge"><title>Node7&#45;&gt;Node4</title>
<path fill="none" stroke="midnightblue" d="M472.944,-130.508C478.965,-133.347 484.811,-136.659 490,-140.5 511.15,-156.153 505.612,-170.867 526,-187.5 527.526,-188.745 529.128,-189.946 530.783,-191.1"/>
<polygon fill="midnightblue" stroke="midnightblue" points="529.066,-194.154 539.4,-196.488 532.777,-188.219 529.066,-194.154"/>
</g>
<!-- Node8 -->
<g id="node8" class="node"><title>Node8</title>
<g id="a_node8"><a xlink:href="namespacesoftwarecontainer.html#acaa3372166baaae42d0d55577b99308e" target="_top" xlink:title="isDirectoryEmpty Check if path is empty ">
<polygon fill="white" stroke="black" points="526.5,-98.5 526.5,-128.5 626.5,-128.5 626.5,-98.5 526.5,-98.5"/>
<text text-anchor="start" x="534.5" y="-116.5" font-family="Helvetica,sans-Serif" font-size="10.00">softwarecontainer::</text>
<text text-anchor="middle" x="576.5" y="-105.5" font-family="Helvetica,sans-Serif" font-size="10.00">isDirectoryEmpty</text>
</a>
</g>
</g>
<!-- Node7&#45;&gt;Node8 -->
<g id="edge9" class="edge"><title>Node7&#45;&gt;Node8</title>
<path fill="none" stroke="midnightblue" d="M490.333,-114.617C498.955,-114.504 507.732,-114.389 516.213,-114.278"/>
<polygon fill="midnightblue" stroke="midnightblue" points="516.429,-117.775 526.382,-114.144 516.337,-110.776 516.429,-117.775"/>
</g>
<!-- Node9 -->
<g id="node9" class="node"><title>Node9</title>
<g id="a_node9"><a xlink:href="namespacesoftwarecontainer.html#a3a71c6d06c86e4f62e7f2b6d7c926f66" target="_top" xlink:title="isFile Check if path is a file ">
<polygon fill="white" stroke="black" points="526.5,-49.5 526.5,-79.5 626.5,-79.5 626.5,-49.5 526.5,-49.5"/>
<text text-anchor="start" x="534.5" y="-67.5" font-family="Helvetica,sans-Serif" font-size="10.00">softwarecontainer::</text>
<text text-anchor="middle" x="576.5" y="-56.5" font-family="Helvetica,sans-Serif" font-size="10.00">isFile</text>
</a>
</g>
</g>
<!-- Node7&#45;&gt;Node9 -->
<g id="edge10" class="edge"><title>Node7&#45;&gt;Node9</title>
<path fill="none" stroke="midnightblue" d="M467.93,-100.474C484.61,-94.8961 503.709,-88.5087 521.141,-82.6791"/>
<polygon fill="midnightblue" stroke="midnightblue" points="522.254,-85.9975 530.628,-79.5065 520.034,-79.3589 522.254,-85.9975"/>
</g>
<!-- Node10 -->
<g id="node10" class="node"><title>Node10</title>
<g id="a_node10"><a xlink:href="namespacesoftwarecontainer.html#acd78c8c457ea2f848b546ec21db98285" target="_top" xlink:title="isPipe Check if path is a pipe ">
<polygon fill="white" stroke="black" points="526.5,-0.5 526.5,-30.5 626.5,-30.5 626.5,-0.5 526.5,-0.5"/>
<text text-anchor="start" x="534.5" y="-18.5" font-family="Helvetica,sans-Serif" font-size="10.00">softwarecontainer::</text>
<text text-anchor="middle" x="576.5" y="-7.5" font-family="Helvetica,sans-Serif" font-size="10.00">isPipe</text>
</a>
</g>
</g>
<!-- Node7&#45;&gt;Node10 -->
<g id="edge11" class="edge"><title>Node7&#45;&gt;Node10</title>
<path fill="none" stroke="midnightblue" d="M441.261,-100.412C461.309,-84.2385 494.807,-58.3495 526,-39.5 528.333,-38.0899 530.762,-36.6959 533.235,-35.3319"/>
<polygon fill="midnightblue" stroke="midnightblue" points="535.088,-38.3115 542.299,-30.5487 531.821,-32.1207 535.088,-38.3115"/>
</g>
<!-- Node11 -->
<g id="node11" class="node"><title>Node11</title>
<g id="a_node11"><a xlink:href="namespacesoftwarecontainer.html#a21a5de23f41d3f27cf7d31994f518cc0" target="_top" xlink:title="isSocket Check if path is a socket ">
<polygon fill="white" stroke="black" points="526.5,-147.5 526.5,-177.5 626.5,-177.5 626.5,-147.5 526.5,-147.5"/>
<text text-anchor="start" x="534.5" y="-165.5" font-family="Helvetica,sans-Serif" font-size="10.00">softwarecontainer::</text>
<text text-anchor="middle" x="576.5" y="-154.5" font-family="Helvetica,sans-Serif" font-size="10.00">isSocket</text>
</a>
</g>
</g>
<!-- Node7&#45;&gt;Node11 -->
<g id="edge12" class="edge"><title>Node7&#45;&gt;Node11</title>
<path fill="none" stroke="midnightblue" d="M471.671,-130.5C486.115,-134.952 502.085,-139.874 517.081,-144.495"/>
<polygon fill="midnightblue" stroke="midnightblue" points="516.181,-147.88 526.768,-147.481 518.243,-141.191 516.181,-147.88"/>
</g>
</g>
</svg>
