<?xml version="1.0" encoding="UTF-8" standalone="no"?>
<!DOCTYPE svg PUBLIC "-//W3C//DTD SVG 1.1//EN"
 "http://www.w3.org/Graphics/SVG/1.1/DTD/svg11.dtd">
<!-- Generated by graphviz version 2.38.0 (20140413.2041)
 -->
<!-- Title: softwarecontainer::JSONParser::read Pages: 1 -->
<svg width="665pt" height="267pt"
 viewBox="0.00 0.00 665.00 266.50" xmlns="http://www.w3.org/2000/svg" xmlns:xlink="http://www.w3.org/1999/xlink">
<g id="graph0" class="graph" transform="scale(1 1) rotate(0) translate(4 262.5)">
<title>softwarecontainer::JSONParser::read</title>
<polygon fill="white" stroke="none" points="-4,4 -4,-262.5 661,-262.5 661,4 -4,4"/>
<!-- Node1 -->
<g id="node1" class="node"><title>Node1</title>
<polygon fill="#bfbfbf" stroke="black" points="0,-108.5 0,-138.5 100,-138.5 100,-108.5 0,-108.5"/>
<text text-anchor="start" x="8" y="-126.5" font-family="Helvetica,sans-Serif" font-size="10.00">softwarecontainer::</text>
<text text-anchor="middle" x="50" y="-115.5" font-family="Helvetica,sans-Serif" font-size="10.00">JSONParser::read</text>
</g>
<!-- Node2 -->
<g id="node2" class="node"><title>Node2</title>
<g id="a_node2"><a xlink:href="classsoftwarecontainer_1_1_network_gateway_parser.html#a3139a32ac1978488b7a7f9e8474ecea4" target="_top" xlink:title="Parses NetworkGateway configuration into IPTableEntry. ">
<polygon fill="white" stroke="black" points="136,-217 136,-258 316,-258 316,-217 136,-217"/>
<text text-anchor="start" x="144" y="-246" font-family="Helvetica,sans-Serif" font-size="10.00">softwarecontainer::</text>
<text text-anchor="start" x="144" y="-235" font-family="Helvetica,sans-Serif" font-size="10.00">NetworkGatewayParser</text>
<text text-anchor="middle" x="226" y="-224" font-family="Helvetica,sans-Serif" font-size="10.00">::parseNetworkGatewayConfiguration</text>
</a>
</g>
</g>
<!-- Node1&#45;&gt;Node2 -->
<g id="edge1" class="edge"><title>Node1&#45;&gt;Node2</title>
<path fill="none" stroke="midnightblue" d="M69.0786,-146.445C84.934,-165.199 109.537,-191.191 136,-207.5 141.691,-211.007 147.842,-214.161 154.16,-216.984"/>
<polygon fill="midnightblue" stroke="midnightblue" points="71.7047,-144.129 62.6366,-138.65 66.3087,-148.588 71.7047,-144.129"/>
</g>
<!-- Node4 -->
<g id="node4" class="node"><title>Node4</title>
<g id="a_node4"><a xlink:href="classsoftwarecontainer_1_1_wayland_gateway.html#a5a6acc9ef92817be9e9c0a397b5ef2bf" target="_top" xlink:title="Gateway specific parsing of config elements. ">
<polygon fill="white" stroke="black" points="152.5,-157 152.5,-198 299.5,-198 299.5,-157 152.5,-157"/>
<text text-anchor="start" x="160.5" y="-186" font-family="Helvetica,sans-Serif" font-size="10.00">softwarecontainer::</text>
<text text-anchor="start" x="160.5" y="-175" font-family="Helvetica,sans-Serif" font-size="10.00">WaylandGateway::readConfig</text>
<text text-anchor="middle" x="226" y="-164" font-family="Helvetica,sans-Serif" font-size="10.00">Element</text>
</a>
</g>
</g>
<!-- Node1&#45;&gt;Node4 -->
<g id="edge3" class="edge"><title>Node1&#45;&gt;Node4</title>
<path fill="none" stroke="midnightblue" d="M109.19,-141.559C125.142,-146.51 142.55,-151.912 158.91,-156.989"/>
<polygon fill="midnightblue" stroke="midnightblue" points="110.057,-138.163 99.4687,-138.542 107.982,-144.849 110.057,-138.163"/>
</g>
<!-- Node5 -->
<g id="node5" class="node"><title>Node5</title>
<g id="a_node5"><a xlink:href="classsoftwarecontainer_1_1_pulse_gateway.html#a46f0c9cbf8282d716c8bbbbd2cce31c0" target="_top" xlink:title="Gateway specific parsing of config elements. ">
<polygon fill="white" stroke="black" points="141,-108.5 141,-138.5 311,-138.5 311,-108.5 141,-108.5"/>
<text text-anchor="start" x="149" y="-126.5" font-family="Helvetica,sans-Serif" font-size="10.00">softwarecontainer::</text>
<text text-anchor="middle" x="226" y="-115.5" font-family="Helvetica,sans-Serif" font-size="10.00">PulseGateway::readConfigElement</text>
</a>
</g>
</g>
<!-- Node1&#45;&gt;Node5 -->
<g id="edge4" class="edge"><title>Node1&#45;&gt;Node5</title>
<path fill="none" stroke="midnightblue" d="M110.425,-123.5C120.255,-123.5 130.608,-123.5 140.907,-123.5"/>
<polygon fill="midnightblue" stroke="midnightblue" points="110.396,-120 100.396,-123.5 110.396,-127 110.396,-120"/>
</g>
<!-- Node6 -->
<g id="node6" class="node"><title>Node6</title>
<g id="a_node6"><a xlink:href="classsoftwarecontainer_1_1_software_container_agent.html#a01b902dd215af783c7863d267758e91e" target="_top" xlink:title="Tries to read a config in json format for a container. ">
<polygon fill="white" stroke="black" points="164.5,-49 164.5,-90 287.5,-90 287.5,-49 164.5,-49"/>
<text text-anchor="start" x="172.5" y="-78" font-family="Helvetica,sans-Serif" font-size="10.00">softwarecontainer::</text>
<text text-anchor="start" x="172.5" y="-67" font-family="Helvetica,sans-Serif" font-size="10.00">SoftwareContainerAgent</text>
<text text-anchor="middle" x="226" y="-56" font-family="Helvetica,sans-Serif" font-size="10.00">::readConfigElement</text>
</a>
</g>
</g>
<!-- Node1&#45;&gt;Node6 -->
<g id="edge5" class="edge"><title>Node1&#45;&gt;Node6</title>
<path fill="none" stroke="midnightblue" d="M109.126,-105.461C126.884,-99.9497 146.452,-93.8768 164.372,-88.3155"/>
<polygon fill="midnightblue" stroke="midnightblue" points="107.982,-102.151 99.4687,-108.458 110.057,-108.837 107.982,-102.151"/>
</g>
<!-- Node9 -->
<g id="node9" class="node"><title>Node9</title>
<g id="a_node9"><a xlink:href="classsoftwarecontainer_1_1_j_s_o_n_parser.html#add62ac3a9cf40edcc4f48b8a53f6d312" target="_top" xlink:title="Reads an optional value from a JSON object. ">
<polygon fill="white" stroke="black" points="159.5,-0.5 159.5,-30.5 292.5,-30.5 292.5,-0.5 159.5,-0.5"/>
<text text-anchor="start" x="167.5" y="-18.5" font-family="Helvetica,sans-Serif" font-size="10.00">softwarecontainer::</text>
<text text-anchor="middle" x="226" y="-7.5" font-family="Helvetica,sans-Serif" font-size="10.00">JSONParser::readOptional</text>
</a>
</g>
</g>
<!-- Node1&#45;&gt;Node9 -->
<g id="edge8" class="edge"><title>Node1&#45;&gt;Node9</title>
<path fill="none" stroke="midnightblue" d="M68.5525,-100.46C84.242,-81.421 108.889,-55.0743 136,-39.5 143.216,-35.3547 151.172,-31.9032 159.271,-29.0347"/>
<polygon fill="midnightblue" stroke="midnightblue" points="65.7296,-98.3857 62.1967,-108.374 71.1874,-102.769 65.7296,-98.3857"/>
</g>
<!-- Node3 -->
<g id="node3" class="node"><title>Node3</title>
<g id="a_node3"><a xlink:href="classsoftwarecontainer_1_1_network_gateway.html#ad67674d2ce8d329188446e71c14e3a88" target="_top" xlink:title="Gateway specific parsing of config elements. ">
<polygon fill="white" stroke="black" points="352,-217 352,-258 498,-258 498,-217 352,-217"/>
<text text-anchor="start" x="360" y="-246" font-family="Helvetica,sans-Serif" font-size="10.00">softwarecontainer::</text>
<text text-anchor="start" x="360" y="-235" font-family="Helvetica,sans-Serif" font-size="10.00">NetworkGateway::readConfig</text>
<text text-anchor="middle" x="425" y="-224" font-family="Helvetica,sans-Serif" font-size="10.00">Element</text>
</a>
</g>
</g>
<!-- Node2&#45;&gt;Node3 -->
<g id="edge2" class="edge"><title>Node2&#45;&gt;Node3</title>
<path fill="none" stroke="midnightblue" d="M326.355,-237.5C334.949,-237.5 343.535,-237.5 351.85,-237.5"/>
<polygon fill="midnightblue" stroke="midnightblue" points="326.278,-234 316.278,-237.5 326.278,-241 326.278,-234"/>
</g>
<!-- Node7 -->
<g id="node7" class="node"><title>Node7</title>
<g id="a_node7"><a xlink:href="classsoftwarecontainer_1_1_software_container_agent.html#a963368abdad10b1401baec80a7abb327" target="_top" xlink:title="Parse config needed for starting up the container in a correct manner. ">
<polygon fill="white" stroke="black" points="363.5,-49 363.5,-90 486.5,-90 486.5,-49 363.5,-49"/>
<text text-anchor="start" x="371.5" y="-78" font-family="Helvetica,sans-Serif" font-size="10.00">softwarecontainer::</text>
<text text-anchor="start" x="371.5" y="-67" font-family="Helvetica,sans-Serif" font-size="10.00">SoftwareContainerAgent</text>
<text text-anchor="middle" x="425" y="-56" font-family="Helvetica,sans-Serif" font-size="10.00">::parseConfig</text>
</a>
</g>
</g>
<!-- Node6&#45;&gt;Node7 -->
<g id="edge6" class="edge"><title>Node6&#45;&gt;Node7</title>
<path fill="none" stroke="midnightblue" d="M297.772,-69.5C319.283,-69.5 342.715,-69.5 363.487,-69.5"/>
<polygon fill="midnightblue" stroke="midnightblue" points="297.714,-66.0001 287.714,-69.5 297.714,-73.0001 297.714,-66.0001"/>
</g>
<!-- Node8 -->
<g id="node8" class="node"><title>Node8</title>
<g id="a_node8"><a xlink:href="classsoftwarecontainer_1_1_software_container_agent.html#adedc44d2112a0467bdddf68c19f37667" target="_top" xlink:title="Create a new container. ">
<polygon fill="white" stroke="black" points="534,-49 534,-90 657,-90 657,-49 534,-49"/>
<text text-anchor="start" x="542" y="-78" font-family="Helvetica,sans-Serif" font-size="10.00">softwarecontainer::</text>
<text text-anchor="start" x="542" y="-67" font-family="Helvetica,sans-Serif" font-size="10.00">SoftwareContainerAgent</text>
<text text-anchor="middle" x="595.5" y="-56" font-family="Helvetica,sans-Serif" font-size="10.00">::createContainer</text>
</a>
</g>
</g>
<!-- Node7&#45;&gt;Node8 -->
<g id="edge7" class="edge"><title>Node7&#45;&gt;Node8</title>
<path fill="none" stroke="midnightblue" d="M496.991,-69.5C509.219,-69.5 521.83,-69.5 533.757,-69.5"/>
<polygon fill="midnightblue" stroke="midnightblue" points="496.832,-66.0001 486.832,-69.5 496.832,-73.0001 496.832,-66.0001"/>
</g>
</g>
</svg>
