<?xml version="1.0" encoding="UTF-8" standalone="no"?>
<!DOCTYPE svg PUBLIC "-//W3C//DTD SVG 1.1//EN"
 "http://www.w3.org/Graphics/SVG/1.1/DTD/svg11.dtd">
<!-- Generated by graphviz version 2.38.0 (20140413.2041)
 -->
<!-- Title: NetworkGateway::activateGateway Pages: 1 -->
<svg width="478pt" height="66pt"
 viewBox="0.00 0.00 478.00 66.00" xmlns="http://www.w3.org/2000/svg" xmlns:xlink="http://www.w3.org/1999/xlink">
<g id="graph0" class="graph" transform="scale(1 1) rotate(0) translate(4 62)">
<title>NetworkGateway::activateGateway</title>
<polygon fill="white" stroke="none" points="-4,4 -4,-62 474,-62 474,4 -4,4"/>
<!-- Node1 -->
<g id="node1" class="node"><title>Node1</title>
<polygon fill="#bfbfbf" stroke="black" points="0,-14 0,-44 133,-44 133,-14 0,-14"/>
<text text-anchor="start" x="8" y="-32" font-family="Helvetica,sans-Serif" font-size="10.00">NetworkGateway::activate</text>
<text text-anchor="middle" x="66.5" y="-21" font-family="Helvetica,sans-Serif" font-size="10.00">Gateway</text>
</g>
<!-- Node2 -->
<g id="node2" class="node"><title>Node2</title>
<g id="a_node2"><a xlink:href="class_gateway.html#a77348e5ce86b82302764b10e3203b42c" target="_top" xlink:title="Execute the given command in the container. ">
<polygon fill="white" stroke="black" points="169,-38.5 169,-57.5 315,-57.5 315,-38.5 169,-38.5"/>
<text text-anchor="middle" x="242" y="-45.5" font-family="Helvetica,sans-Serif" font-size="10.00">Gateway::executeInContainer</text>
</a>
</g>
</g>
<!-- Node1&#45;&gt;Node2 -->
<g id="edge1" class="edge"><title>Node1&#45;&gt;Node2</title>
<path fill="none" stroke="midnightblue" d="M133.093,-36.1831C141.508,-37.1046 150.205,-38.057 158.842,-39.0028"/>
<polygon fill="midnightblue" stroke="midnightblue" points="158.61,-42.4983 168.932,-40.1078 159.372,-35.5399 158.61,-42.4983"/>
</g>
<!-- Node4 -->
<g id="node4" class="node"><title>Node4</title>
<g id="a_node4"><a xlink:href="class_gateway.html#ad66eea64014d7eb2927c1f576b3cf2b2" target="_top" xlink:title="Check if the gateway has an associated container. ">
<polygon fill="white" stroke="black" points="351,-0.5 351,-19.5 470,-19.5 470,-0.5 351,-0.5"/>
<text text-anchor="middle" x="410.5" y="-7.5" font-family="Helvetica,sans-Serif" font-size="10.00">Gateway::hasContainer</text>
</a>
</g>
</g>
<!-- Node1&#45;&gt;Node4 -->
<g id="edge4" class="edge"><title>Node1&#45;&gt;Node4</title>
<path fill="none" stroke="midnightblue" d="M133.036,-25.3591C192.533,-22.0537 279.976,-17.1958 340.521,-13.8322"/>
<polygon fill="midnightblue" stroke="midnightblue" points="340.958,-17.3134 350.748,-13.264 340.569,-10.3242 340.958,-17.3134"/>
</g>
<!-- Node3 -->
<g id="node3" class="node"><title>Node3</title>
<g id="a_node3"><a xlink:href="class_gateway.html#ab03846b347174727f70ab4e4ce5db09f" target="_top" xlink:title="Get a handle to the associated container. ">
<polygon fill="white" stroke="black" points="352,-38.5 352,-57.5 469,-57.5 469,-38.5 352,-38.5"/>
<text text-anchor="middle" x="410.5" y="-45.5" font-family="Helvetica,sans-Serif" font-size="10.00">Gateway::getContainer</text>
</a>
</g>
</g>
<!-- Node2&#45;&gt;Node3 -->
<g id="edge2" class="edge"><title>Node2&#45;&gt;Node3</title>
<path fill="none" stroke="midnightblue" d="M315.061,-48C323.905,-48 332.92,-48 341.698,-48"/>
<polygon fill="midnightblue" stroke="midnightblue" points="341.869,-51.5001 351.869,-48 341.869,-44.5001 341.869,-51.5001"/>
</g>
<!-- Node2&#45;&gt;Node4 -->
<g id="edge3" class="edge"><title>Node2&#45;&gt;Node4</title>
<path fill="none" stroke="midnightblue" d="M285.015,-38.411C307.184,-33.3513 334.573,-27.1004 358.011,-21.7512"/>
<polygon fill="midnightblue" stroke="midnightblue" points="358.817,-25.1575 367.787,-19.5201 357.259,-18.3329 358.817,-25.1575"/>
</g>
</g>
</svg>
