<?xml version="1.0" encoding="UTF-8" standalone="no"?>
<!DOCTYPE svg PUBLIC "-//W3C//DTD SVG 1.1//EN"
 "http://www.w3.org/Graphics/SVG/1.1/DTD/svg11.dtd">
<!-- Generated by graphviz version 2.38.0 (20140413.2041)
 -->
<!-- Title: softwarecontainer::SoftwareContainer::createCommandJob Pages: 1 -->
<svg width="394pt" height="39pt"
 viewBox="0.00 0.00 394.00 39.00" xmlns="http://www.w3.org/2000/svg" xmlns:xlink="http://www.w3.org/1999/xlink">
<g id="graph0" class="graph" transform="scale(1 1) rotate(0) translate(4 35)">
<title>softwarecontainer::SoftwareContainer::createCommandJob</title>
<polygon fill="white" stroke="none" points="-4,4 -4,-35 390,-35 390,4 -4,4"/>
<!-- Node1 -->
<g id="node1" class="node"><title>Node1</title>
<polygon fill="#bfbfbf" stroke="black" points="0,-0.5 0,-30.5 191,-30.5 191,-0.5 0,-0.5"/>
<text text-anchor="start" x="8" y="-18.5" font-family="Helvetica,sans-Serif" font-size="10.00">softwarecontainer::</text>
<text text-anchor="middle" x="95.5" y="-7.5" font-family="Helvetica,sans-Serif" font-size="10.00">SoftwareContainer::createCommandJob</text>
</g>
<!-- Node2 -->
<g id="node2" class="node"><title>Node2</title>
<g id="a_node2"><a xlink:href="classsoftwarecontainer_1_1_software_container.html#a88d21d398c782cd7715b8f17307a14b2" target="_top" xlink:title="Rturns a pointer to the underlying container implementation. ">
<polygon fill="white" stroke="black" points="227,-0.5 227,-30.5 386,-30.5 386,-0.5 227,-0.5"/>
<text text-anchor="start" x="235" y="-18.5" font-family="Helvetica,sans-Serif" font-size="10.00">softwarecontainer::</text>
<text text-anchor="middle" x="306.5" y="-7.5" font-family="Helvetica,sans-Serif" font-size="10.00">SoftwareContainer::getContainer</text>
</a>
</g>
</g>
<!-- Node1&#45;&gt;Node2 -->
<g id="edge1" class="edge"><title>Node1&#45;&gt;Node2</title>
<path fill="none" stroke="midnightblue" d="M191.216,-15.5C199.662,-15.5 208.195,-15.5 216.59,-15.5"/>
<polygon fill="midnightblue" stroke="midnightblue" points="216.747,-19.0001 226.747,-15.5 216.747,-12.0001 216.747,-19.0001"/>
</g>
</g>
</svg>
