<?xml version="1.0" encoding="UTF-8" standalone="no"?>
<!DOCTYPE svg PUBLIC "-//W3C//DTD SVG 1.1//EN"
 "http://www.w3.org/Graphics/SVG/1.1/DTD/svg11.dtd">
<!-- Generated by graphviz version 2.38.0 (20140413.2041)
 -->
<!-- Title: softwarecontainer::NetworkGateway::activateGateway Pages: 1 -->
<svg width="488pt" height="61pt"
 viewBox="0.00 0.00 488.00 61.00" xmlns="http://www.w3.org/2000/svg" xmlns:xlink="http://www.w3.org/1999/xlink">
<g id="graph0" class="graph" transform="scale(1 1) rotate(0) translate(4 57)">
<title>softwarecontainer::NetworkGateway::activateGateway</title>
<polygon fill="white" stroke="none" points="-4,4 -4,-57 484,-57 484,4 -4,4"/>
<!-- Node1 -->
<g id="node1" class="node"><title>Node1</title>
<polygon fill="#bfbfbf" stroke="black" points="0,-0.5 0,-30.5 172,-30.5 172,-0.5 0,-0.5"/>
<text text-anchor="start" x="8" y="-18.5" font-family="Helvetica,sans-Serif" font-size="10.00">softwarecontainer::</text>
<text text-anchor="middle" x="86" y="-7.5" font-family="Helvetica,sans-Serif" font-size="10.00">NetworkGateway::activateGateway</text>
</g>
<!-- Node2 -->
<g id="node2" class="node"><title>Node2</title>
<g id="a_node2"><a xlink:href="classsoftwarecontainer_1_1_gateway.html#a6f0a60c9f29ea869916f7524085b3e5f" target="_top" xlink:title="Get a handle to the associated container. ">
<polygon fill="white" stroke="black" points="208,-22.5 208,-52.5 325,-52.5 325,-22.5 208,-22.5"/>
<text text-anchor="start" x="216" y="-40.5" font-family="Helvetica,sans-Serif" font-size="10.00">softwarecontainer::</text>
<text text-anchor="middle" x="266.5" y="-29.5" font-family="Helvetica,sans-Serif" font-size="10.00">Gateway::getContainer</text>
</a>
</g>
</g>
<!-- Node1&#45;&gt;Node2 -->
<g id="edge1" class="edge"><title>Node1&#45;&gt;Node2</title>
<path fill="none" stroke="midnightblue" d="M172.068,-25.9845C180.686,-27.0467 189.356,-28.1153 197.756,-29.1506"/>
<polygon fill="midnightblue" stroke="midnightblue" points="197.493,-32.6446 207.847,-30.3943 198.35,-25.6972 197.493,-32.6446"/>
</g>
<!-- Node3 -->
<g id="node3" class="node"><title>Node3</title>
<g id="a_node3"><a xlink:href="classsoftwarecontainer_1_1_gateway.html#a5e1b860ea7c1ed7b69d2e5dd7021a527" target="_top" xlink:title="Check if the gateway has an associated container. ">
<polygon fill="white" stroke="black" points="361,-0.5 361,-30.5 480,-30.5 480,-0.5 361,-0.5"/>
<text text-anchor="start" x="369" y="-18.5" font-family="Helvetica,sans-Serif" font-size="10.00">softwarecontainer::</text>
<text text-anchor="middle" x="420.5" y="-7.5" font-family="Helvetica,sans-Serif" font-size="10.00">Gateway::hasContainer</text>
</a>
</g>
</g>
<!-- Node1&#45;&gt;Node3 -->
<g id="edge3" class="edge"><title>Node1&#45;&gt;Node3</title>
<path fill="none" stroke="midnightblue" d="M172.275,-13.9139C184.27,-13.7423 196.445,-13.5955 208,-13.5 259.998,-13.0703 273.003,-12.9498 325,-13.5 333.315,-13.588 342.04,-13.7195 350.688,-13.8738"/>
<polygon fill="midnightblue" stroke="midnightblue" points="350.711,-17.3748 360.775,-14.0643 350.843,-10.376 350.711,-17.3748"/>
</g>
<!-- Node2&#45;&gt;Node3 -->
<g id="edge2" class="edge"><title>Node2&#45;&gt;Node3</title>
<path fill="none" stroke="midnightblue" d="M325.398,-29.12C333.72,-27.9156 342.349,-26.6666 350.854,-25.4357"/>
<polygon fill="midnightblue" stroke="midnightblue" points="351.359,-28.899 360.755,-24.0026 350.357,-21.9712 351.359,-28.899"/>
</g>
</g>
</svg>
