<?xml version="1.0" encoding="UTF-8" standalone="no"?>
<!DOCTYPE svg PUBLIC "-//W3C//DTD SVG 1.1//EN"
 "http://www.w3.org/Graphics/SVG/1.1/DTD/svg11.dtd">
<!-- Generated by graphviz version 2.38.0 (20140413.2041)
 -->
<!-- Title: softwarecontainer::Netlink::checkKernelDump Pages: 1 -->
<svg width="294pt" height="137pt"
 viewBox="0.00 0.00 294.00 137.00" xmlns="http://www.w3.org/2000/svg" xmlns:xlink="http://www.w3.org/1999/xlink">
<g id="graph0" class="graph" transform="scale(1 1) rotate(0) translate(4 133)">
<title>softwarecontainer::Netlink::checkKernelDump</title>
<polygon fill="white" stroke="none" points="-4,4 -4,-133 290,-133 290,4 -4,4"/>
<!-- Node1 -->
<g id="node1" class="node"><title>Node1</title>
<polygon fill="#bfbfbf" stroke="black" points="0,-49.5 0,-79.5 134,-79.5 134,-49.5 0,-49.5"/>
<text text-anchor="start" x="8" y="-67.5" font-family="Helvetica,sans-Serif" font-size="10.00">softwarecontainer::</text>
<text text-anchor="middle" x="67" y="-56.5" font-family="Helvetica,sans-Serif" font-size="10.00">Netlink::checkKernelDump</text>
</g>
<!-- Node2 -->
<g id="node2" class="node"><title>Node2</title>
<g id="a_node2"><a xlink:href="classsoftwarecontainer_1_1_netlink.html#a3255285a947564b8c8cd62b395fd9345" target="_top" xlink:title="Get all addresses associated with the given interface index. ">
<polygon fill="white" stroke="black" points="170,-98.5 170,-128.5 286,-128.5 286,-98.5 170,-98.5"/>
<text text-anchor="start" x="178" y="-116.5" font-family="Helvetica,sans-Serif" font-size="10.00">softwarecontainer::</text>
<text text-anchor="middle" x="228" y="-105.5" font-family="Helvetica,sans-Serif" font-size="10.00">Netlink::findAddresses</text>
</a>
</g>
</g>
<!-- Node1&#45;&gt;Node2 -->
<g id="edge1" class="edge"><title>Node1&#45;&gt;Node2</title>
<path fill="none" stroke="midnightblue" d="M126.775,-82.6129C143.678,-87.8222 161.926,-93.4457 178.159,-98.4484"/>
<polygon fill="midnightblue" stroke="midnightblue" points="127.59,-79.2018 117.003,-79.6014 125.528,-85.8914 127.59,-79.2018"/>
</g>
<!-- Node3 -->
<g id="node3" class="node"><title>Node3</title>
<g id="a_node3"><a xlink:href="classsoftwarecontainer_1_1_netlink.html#aae62bee733a83c519d94b8abe4495319" target="_top" xlink:title="Check that the device given is a network bridge. ">
<polygon fill="white" stroke="black" points="178,-49.5 178,-79.5 278,-79.5 278,-49.5 178,-49.5"/>
<text text-anchor="start" x="186" y="-67.5" font-family="Helvetica,sans-Serif" font-size="10.00">softwarecontainer::</text>
<text text-anchor="middle" x="228" y="-56.5" font-family="Helvetica,sans-Serif" font-size="10.00">Netlink::findLink</text>
</a>
</g>
</g>
<!-- Node1&#45;&gt;Node3 -->
<g id="edge2" class="edge"><title>Node1&#45;&gt;Node3</title>
<path fill="none" stroke="midnightblue" d="M144.097,-64.5C155.585,-64.5 167.169,-64.5 177.885,-64.5"/>
<polygon fill="midnightblue" stroke="midnightblue" points="144.049,-61.0001 134.049,-64.5 144.049,-68.0001 144.049,-61.0001"/>
</g>
<!-- Node4 -->
<g id="node4" class="node"><title>Node4</title>
<g id="a_node4"><a xlink:href="classsoftwarecontainer_1_1_netlink.html#a2b2c0295e9735db64d82d9ed911bdfc7" target="_top" xlink:title="Bring the given interface up. ">
<polygon fill="white" stroke="black" points="178,-0.5 178,-30.5 278,-30.5 278,-0.5 178,-0.5"/>
<text text-anchor="start" x="186" y="-18.5" font-family="Helvetica,sans-Serif" font-size="10.00">softwarecontainer::</text>
<text text-anchor="middle" x="228" y="-7.5" font-family="Helvetica,sans-Serif" font-size="10.00">Netlink::linkUp</text>
</a>
</g>
</g>
<!-- Node1&#45;&gt;Node4 -->
<g id="edge3" class="edge"><title>Node1&#45;&gt;Node4</title>
<path fill="none" stroke="midnightblue" d="M126.775,-46.3871C143.678,-41.1778 161.926,-35.5543 178.159,-30.5516"/>
<polygon fill="midnightblue" stroke="midnightblue" points="125.528,-43.1086 117.003,-49.3986 127.59,-49.7982 125.528,-43.1086"/>
</g>
</g>
</svg>
