<?xml version="1.0" encoding="UTF-8" standalone="no"?>
<!DOCTYPE svg PUBLIC "-//W3C//DTD SVG 1.1//EN"
 "http://www.w3.org/Graphics/SVG/1.1/DTD/svg11.dtd">
<!-- Generated by graphviz version 2.38.0 (20140413.2041)
 -->
<!-- Title: Gateway::getContainer Pages: 1 -->
<svg width="522pt" height="146pt"
 viewBox="0.00 0.00 522.00 146.17" xmlns="http://www.w3.org/2000/svg" xmlns:xlink="http://www.w3.org/1999/xlink">
<g id="graph0" class="graph" transform="scale(1 1) rotate(0) translate(4 142.172)">
<title>Gateway::getContainer</title>
<polygon fill="white" stroke="none" points="-4,4 -4,-142.172 518,-142.172 518,4 -4,4"/>
<!-- Node1 -->
<g id="node1" class="node"><title>Node1</title>
<polygon fill="#bfbfbf" stroke="black" points="0,-70 0,-89 117,-89 117,-70 0,-70"/>
<text text-anchor="middle" x="58.5" y="-77" font-family="Helvetica,sans-Serif" font-size="10.00">Gateway::getContainer</text>
</g>
<!-- Node2 -->
<g id="node2" class="node"><title>Node2</title>
<g id="a_node2"><a xlink:href="class_pulse_gateway.html#a2ffb6fc3e0d690830fa4612111a60985" target="_top" xlink:title="Implements Gateway::activateGateway. ">
<polygon fill="white" stroke="black" points="354,-112 354,-131 514,-131 514,-112 354,-112"/>
<text text-anchor="middle" x="434" y="-119" font-family="Helvetica,sans-Serif" font-size="10.00">PulseGateway::activateGateway</text>
</a>
</g>
</g>
<!-- Node1&#45;&gt;Node2 -->
<g id="edge1" class="edge"><title>Node1&#45;&gt;Node2</title>
<path fill="none" stroke="midnightblue" d="M81.7319,-94.4213C99.9901,-105.726 126.989,-120.33 153,-126.5 227.507,-144.173 316.32,-138.207 373.633,-131"/>
<polygon fill="midnightblue" stroke="midnightblue" points="83.5872,-91.4534 73.2731,-89.0306 79.8252,-97.3565 83.5872,-91.4534"/>
</g>
<!-- Node3 -->
<g id="node3" class="node"><title>Node3</title>
<g id="a_node3"><a xlink:href="class_device_node_gateway.html#a626ac7de0fa9acc167d1b355cbb3d8ee" target="_top" xlink:title="Implements Gateway::activateGateway. ">
<polygon fill="white" stroke="black" points="177.5,-86.5 177.5,-116.5 293.5,-116.5 293.5,-86.5 177.5,-86.5"/>
<text text-anchor="start" x="185.5" y="-104.5" font-family="Helvetica,sans-Serif" font-size="10.00">DeviceNodeGateway::</text>
<text text-anchor="middle" x="235.5" y="-93.5" font-family="Helvetica,sans-Serif" font-size="10.00">activateGateway</text>
</a>
</g>
</g>
<!-- Node1&#45;&gt;Node3 -->
<g id="edge2" class="edge"><title>Node1&#45;&gt;Node3</title>
<path fill="none" stroke="midnightblue" d="M127.417,-88.0382C143.927,-90.1137 161.418,-92.3125 177.371,-94.318"/>
<polygon fill="midnightblue" stroke="midnightblue" points="127.645,-84.5393 117.287,-86.7646 126.772,-91.4847 127.645,-84.5393"/>
</g>
<!-- Node4 -->
<g id="node4" class="node"><title>Node4</title>
<g id="a_node4"><a xlink:href="class_gateway.html#a77348e5ce86b82302764b10e3203b42c" target="_top" xlink:title="Execute the given command in the container. ">
<polygon fill="white" stroke="black" points="162.5,-9 162.5,-28 308.5,-28 308.5,-9 162.5,-9"/>
<text text-anchor="middle" x="235.5" y="-16" font-family="Helvetica,sans-Serif" font-size="10.00">Gateway::executeInContainer</text>
</a>
</g>
</g>
<!-- Node1&#45;&gt;Node4 -->
<g id="edge3" class="edge"><title>Node1&#45;&gt;Node4</title>
<path fill="none" stroke="midnightblue" d="M88.0171,-65.4597C106.28,-56.8548 130.661,-46.0755 153,-38.5 164.728,-34.5229 177.652,-30.982 189.686,-28.026"/>
<polygon fill="midnightblue" stroke="midnightblue" points="86.3254,-62.3889 78.8105,-69.8572 89.3425,-68.7053 86.3254,-62.3889"/>
</g>
<!-- Node6 -->
<g id="node6" class="node"><title>Node6</title>
<g id="a_node6"><a xlink:href="class_gateway.html#a828b2dfa811c7fcce82d34b502e65112" target="_top" xlink:title="Set an environment variable in the associated container. ">
<polygon fill="white" stroke="black" points="153,-48 153,-67 318,-67 318,-48 153,-48"/>
<text text-anchor="middle" x="235.5" y="-55" font-family="Helvetica,sans-Serif" font-size="10.00">Gateway::setEnvironmentVariable</text>
</a>
</g>
</g>
<!-- Node1&#45;&gt;Node6 -->
<g id="edge5" class="edge"><title>Node1&#45;&gt;Node6</title>
<path fill="none" stroke="midnightblue" d="M127.388,-70.9655C137.638,-69.6769 148.267,-68.3407 158.672,-67.0327"/>
<polygon fill="midnightblue" stroke="midnightblue" points="126.772,-67.5153 117.287,-72.2354 127.645,-74.4607 126.772,-67.5153"/>
</g>
<!-- Node5 -->
<g id="node5" class="node"><title>Node5</title>
<g id="a_node5"><a xlink:href="class_network_gateway.html#ad19de4347291719074bde198fc61a94a" target="_top" xlink:title="Implements Gateway::activateGateway. ">
<polygon fill="white" stroke="black" points="367.5,-0.5 367.5,-30.5 500.5,-30.5 500.5,-0.5 367.5,-0.5"/>
<text text-anchor="start" x="375.5" y="-18.5" font-family="Helvetica,sans-Serif" font-size="10.00">NetworkGateway::activate</text>
<text text-anchor="middle" x="434" y="-7.5" font-family="Helvetica,sans-Serif" font-size="10.00">Gateway</text>
</a>
</g>
</g>
<!-- Node4&#45;&gt;Node5 -->
<g id="edge4" class="edge"><title>Node4&#45;&gt;Node5</title>
<path fill="none" stroke="midnightblue" d="M318.606,-17.2465C334.903,-16.9977 351.81,-16.7395 367.466,-16.5005"/>
<polygon fill="midnightblue" stroke="midnightblue" points="318.499,-13.7476 308.554,-17.3999 318.606,-20.7468 318.499,-13.7476"/>
</g>
<!-- Node6&#45;&gt;Node2 -->
<g id="edge6" class="edge"><title>Node6&#45;&gt;Node2</title>
<path fill="none" stroke="midnightblue" d="M292.492,-69.4294C301.09,-71.5843 309.822,-73.9612 318,-76.5 351.17,-86.7976 388.411,-102.083 411.288,-111.919"/>
<polygon fill="midnightblue" stroke="midnightblue" points="293.046,-65.9622 282.502,-67.0052 291.395,-72.7648 293.046,-65.9622"/>
</g>
<!-- Node7 -->
<g id="node7" class="node"><title>Node7</title>
<g id="a_node7"><a xlink:href="class_d_bus_gateway.html#ab974b6b05b985d64ba5609c64e8b13fb" target="_top" xlink:title="Implements Gateway::activateGateway. ">
<polygon fill="white" stroke="black" points="354,-50 354,-69 514,-69 514,-50 354,-50"/>
<text text-anchor="middle" x="434" y="-57" font-family="Helvetica,sans-Serif" font-size="10.00">DBusGateway::activateGateway</text>
</a>
</g>
</g>
<!-- Node6&#45;&gt;Node7 -->
<g id="edge7" class="edge"><title>Node6&#45;&gt;Node7</title>
<path fill="none" stroke="midnightblue" d="M328.154,-58.4329C336.735,-58.5202 345.384,-58.6082 353.837,-58.6943"/>
<polygon fill="midnightblue" stroke="midnightblue" points="328.162,-54.9329 318.127,-58.3308 328.09,-61.9325 328.162,-54.9329"/>
</g>
</g>
</svg>
