<?xml version="1.0" encoding="UTF-8" standalone="no"?>
<!DOCTYPE svg PUBLIC "-//W3C//DTD SVG 1.1//EN"
 "http://www.w3.org/Graphics/SVG/1.1/DTD/svg11.dtd">
<!-- Generated by graphviz version 2.38.0 (20140413.2041)
 -->
<!-- Title: softwarecontainer::Container::shutdown Pages: 1 -->
<svg width="394pt" height="61pt"
 viewBox="0.00 0.00 394.00 61.00" xmlns="http://www.w3.org/2000/svg" xmlns:xlink="http://www.w3.org/1999/xlink">
<g id="graph0" class="graph" transform="scale(1 1) rotate(0) translate(4 57)">
<title>softwarecontainer::Container::shutdown</title>
<polygon fill="white" stroke="none" points="-4,4 -4,-57 390,-57 390,4 -4,4"/>
<!-- Node1 -->
<g id="node1" class="node"><title>Node1</title>
<polygon fill="#bfbfbf" stroke="black" points="0,-22.5 0,-52.5 107,-52.5 107,-22.5 0,-22.5"/>
<text text-anchor="start" x="8" y="-40.5" font-family="Helvetica,sans-Serif" font-size="10.00">softwarecontainer::</text>
<text text-anchor="middle" x="53.5" y="-29.5" font-family="Helvetica,sans-Serif" font-size="10.00">Container::shutdown</text>
</g>
<!-- Node2 -->
<g id="node2" class="node"><title>Node2</title>
<g id="a_node2"><a xlink:href="classsoftwarecontainer_1_1_container.html#a3ca2252bc66ae9f985a010d3a7446e85" target="_top" xlink:title="Constructor. ">
<polygon fill="white" stroke="black" points="279,-22.5 279,-52.5 386,-52.5 386,-22.5 279,-22.5"/>
<text text-anchor="start" x="287" y="-40.5" font-family="Helvetica,sans-Serif" font-size="10.00">softwarecontainer::</text>
<text text-anchor="middle" x="332.5" y="-29.5" font-family="Helvetica,sans-Serif" font-size="10.00">Container::Container</text>
</a>
</g>
</g>
<!-- Node1&#45;&gt;Node2 -->
<g id="edge1" class="edge"><title>Node1&#45;&gt;Node2</title>
<path fill="none" stroke="midnightblue" d="M117.389,-39.8945C125.993,-40.1453 134.714,-40.3596 143,-40.5 187.438,-41.253 198.562,-41.253 243,-40.5 254.528,-40.3047 266.898,-39.9663 278.626,-39.5854"/>
<polygon fill="midnightblue" stroke="midnightblue" points="117.477,-36.3956 107.374,-39.5854 117.261,-43.3923 117.477,-36.3956"/>
</g>
<!-- Node3 -->
<g id="node3" class="node"><title>Node3</title>
<g id="a_node3"><a xlink:href="classsoftwarecontainer_1_1_container.html#ad5e7ca390a1783272fbe703f29a791ae" target="_top" xlink:title="Calls shutdown, and then destroys the container. ">
<polygon fill="white" stroke="black" points="143,-0.5 143,-30.5 243,-30.5 243,-0.5 143,-0.5"/>
<text text-anchor="start" x="151" y="-18.5" font-family="Helvetica,sans-Serif" font-size="10.00">softwarecontainer::</text>
<text text-anchor="middle" x="193" y="-7.5" font-family="Helvetica,sans-Serif" font-size="10.00">Container::destroy</text>
</a>
</g>
</g>
<!-- Node1&#45;&gt;Node3 -->
<g id="edge2" class="edge"><title>Node1&#45;&gt;Node3</title>
<path fill="none" stroke="midnightblue" d="M117.231,-27.4631C125.794,-26.093 134.482,-24.7028 142.76,-23.3784"/>
<polygon fill="midnightblue" stroke="midnightblue" points="116.589,-24.0211 107.268,-29.0571 117.695,-30.9332 116.589,-24.0211"/>
</g>
<!-- Node3&#45;&gt;Node2 -->
<g id="edge3" class="edge"><title>Node3&#45;&gt;Node2</title>
<path fill="none" stroke="midnightblue" d="M253.163,-24.966C261.712,-26.3339 270.462,-27.734 278.872,-29.0795"/>
<polygon fill="midnightblue" stroke="midnightblue" points="253.68,-21.5043 243.252,-23.3804 252.574,-28.4164 253.68,-21.5043"/>
</g>
</g>
</svg>
