<?xml version="1.0" encoding="UTF-8" standalone="no"?>
<!DOCTYPE svg PUBLIC "-//W3C//DTD SVG 1.1//EN"
 "http://www.w3.org/Graphics/SVG/1.1/DTD/svg11.dtd">
<!-- Generated by graphviz version 2.38.0 (20140413.2041)
 -->
<!-- Title: Gateway::readConfigElement Pages: 1 -->
<svg width="902pt" height="50pt"
 viewBox="0.00 0.00 902.00 50.00" xmlns="http://www.w3.org/2000/svg" xmlns:xlink="http://www.w3.org/1999/xlink">
<g id="graph0" class="graph" transform="scale(1 1) rotate(0) translate(4 46)">
<title>Gateway::readConfigElement</title>
<polygon fill="white" stroke="none" points="-4,4 -4,-46 898,-46 898,4 -4,4"/>
<!-- Node1 -->
<g id="node1" class="node"><title>Node1</title>
<polygon fill="#bfbfbf" stroke="black" points="0,-11.5 0,-30.5 155,-30.5 155,-11.5 0,-11.5"/>
<text text-anchor="middle" x="77.5" y="-18.5" font-family="Helvetica,sans-Serif" font-size="10.00">Gateway::readConfigElement</text>
</g>
<!-- Node2 -->
<g id="node2" class="node"><title>Node2</title>
<g id="a_node2"><a xlink:href="class_gateway.html#a04d31b1ed232f5376c5cf79e30fa2593" target="_top" xlink:title="Configure this gateway according to the supplied JSON configuration string. ">
<polygon fill="white" stroke="black" points="191,-11.5 191,-30.5 299,-30.5 299,-11.5 191,-11.5"/>
<text text-anchor="middle" x="245" y="-18.5" font-family="Helvetica,sans-Serif" font-size="10.00">Gateway::setConfig</text>
</a>
</g>
</g>
<!-- Node1&#45;&gt;Node2 -->
<g id="edge1" class="edge"><title>Node1&#45;&gt;Node2</title>
<path fill="none" stroke="midnightblue" d="M165.566,-21C174.19,-21 182.751,-21 190.873,-21"/>
<polygon fill="midnightblue" stroke="midnightblue" points="165.436,-17.5001 155.436,-21 165.436,-24.5001 165.436,-17.5001"/>
</g>
<!-- Node3 -->
<g id="node3" class="node"><title>Node3</title>
<g id="a_node3"><a xlink:href="classsoftwarecontainer_1_1_software_container.html#af928f299cf15ecda5f625eaecd518f57" target="_top" xlink:title="Set the gateway configuration and activate them. ">
<polygon fill="white" stroke="black" points="335,-0.5 335,-41.5 502,-41.5 502,-0.5 335,-0.5"/>
<text text-anchor="start" x="343" y="-29.5" font-family="Helvetica,sans-Serif" font-size="10.00">softwarecontainer::</text>
<text text-anchor="start" x="343" y="-18.5" font-family="Helvetica,sans-Serif" font-size="10.00">SoftwareContainer::setGateway</text>
<text text-anchor="middle" x="418.5" y="-7.5" font-family="Helvetica,sans-Serif" font-size="10.00">Configs</text>
</a>
</g>
</g>
<!-- Node2&#45;&gt;Node3 -->
<g id="edge2" class="edge"><title>Node2&#45;&gt;Node3</title>
<path fill="none" stroke="midnightblue" d="M309.327,-21C317.672,-21 326.321,-21 334.927,-21"/>
<polygon fill="midnightblue" stroke="midnightblue" points="309.324,-17.5001 299.324,-21 309.324,-24.5001 309.324,-17.5001"/>
</g>
<!-- Node4 -->
<g id="node4" class="node"><title>Node4</title>
<g id="a_node4"><a xlink:href="classsoftwarecontainer_1_1_software_container.html#a7db71d975b5bbfebe48e50769cf726b9" target="_top" xlink:title="Continues the &#39;launch&#39; phase by allowing gateway configurations to be set. ">
<polygon fill="white" stroke="black" points="538,-0.5 538,-41.5 724,-41.5 724,-0.5 538,-0.5"/>
<text text-anchor="start" x="546" y="-29.5" font-family="Helvetica,sans-Serif" font-size="10.00">softwarecontainer::</text>
<text text-anchor="start" x="546" y="-18.5" font-family="Helvetica,sans-Serif" font-size="10.00">SoftwareContainer::updateGateway</text>
<text text-anchor="middle" x="631" y="-7.5" font-family="Helvetica,sans-Serif" font-size="10.00">Configuration</text>
</a>
</g>
</g>
<!-- Node3&#45;&gt;Node4 -->
<g id="edge3" class="edge"><title>Node3&#45;&gt;Node4</title>
<path fill="none" stroke="midnightblue" d="M512.363,-21C520.841,-21 529.428,-21 537.899,-21"/>
<polygon fill="midnightblue" stroke="midnightblue" points="512.091,-17.5001 502.091,-21 512.091,-24.5001 512.091,-17.5001"/>
</g>
<!-- Node5 -->
<g id="node5" class="node"><title>Node5</title>
<g id="a_node5"><a xlink:href="classsoftwarecontainer_1_1_software_container_agent.html#ae19799cb9be607a08a674179713adcf8" target="_top" xlink:title="Set configuration for the container gateways. ">
<polygon fill="white" stroke="black" points="760,-0.5 760,-41.5 894,-41.5 894,-0.5 760,-0.5"/>
<text text-anchor="start" x="768" y="-29.5" font-family="Helvetica,sans-Serif" font-size="10.00">softwarecontainer::</text>
<text text-anchor="start" x="768" y="-18.5" font-family="Helvetica,sans-Serif" font-size="10.00">SoftwareContainerAgent</text>
<text text-anchor="middle" x="827" y="-7.5" font-family="Helvetica,sans-Serif" font-size="10.00">::setGatewayConfigs</text>
</a>
</g>
</g>
<!-- Node4&#45;&gt;Node5 -->
<g id="edge4" class="edge"><title>Node4&#45;&gt;Node5</title>
<path fill="none" stroke="midnightblue" d="M734.324,-21C742.965,-21 751.549,-21 759.802,-21"/>
<polygon fill="midnightblue" stroke="midnightblue" points="734.171,-17.5001 724.171,-21 734.171,-24.5001 734.171,-17.5001"/>
</g>
</g>
</svg>
