<?xml version="1.0" encoding="UTF-8" standalone="no"?>
<!DOCTYPE svg PUBLIC "-//W3C//DTD SVG 1.1//EN"
 "http://www.w3.org/Graphics/SVG/1.1/DTD/svg11.dtd">
<!-- Generated by graphviz version 2.38.0 (20140413.2041)
 -->
<!-- Title: softwarecontainer::SoftwareContainer::previouslyConfigured Pages: 1 -->
<svg width="292pt" height="88pt"
 viewBox="0.00 0.00 292.00 88.00" xmlns="http://www.w3.org/2000/svg" xmlns:xlink="http://www.w3.org/1999/xlink">
<g id="graph0" class="graph" transform="scale(1 1) rotate(0) translate(4 84)">
<title>softwarecontainer::SoftwareContainer::previouslyConfigured</title>
<polygon fill="white" stroke="none" points="-4,4 -4,-84 288,-84 288,4 -4,4"/>
<!-- Node1 -->
<g id="node1" class="node"><title>Node1</title>
<polygon fill="#bfbfbf" stroke="black" points="0,-19 0,-60 148,-60 148,-19 0,-19"/>
<text text-anchor="start" x="8" y="-48" font-family="Helvetica,sans-Serif" font-size="10.00">softwarecontainer::</text>
<text text-anchor="start" x="8" y="-37" font-family="Helvetica,sans-Serif" font-size="10.00">SoftwareContainer::previously</text>
<text text-anchor="middle" x="74" y="-26" font-family="Helvetica,sans-Serif" font-size="10.00">Configured</text>
</g>
<!-- Node2 -->
<g id="node2" class="node"><title>Node2</title>
<g id="a_node2"><a xlink:href="namespacesoftwarecontainer.html#a44f64c34c09d1ffdb18428b41f0d9e91" target="_top" xlink:title="isDirectory Check if path is a directory ">
<polygon fill="white" stroke="black" points="184,-49.5 184,-79.5 284,-79.5 284,-49.5 184,-49.5"/>
<text text-anchor="start" x="192" y="-67.5" font-family="Helvetica,sans-Serif" font-size="10.00">softwarecontainer::</text>
<text text-anchor="middle" x="234" y="-56.5" font-family="Helvetica,sans-Serif" font-size="10.00">isDirectory</text>
</a>
</g>
</g>
<!-- Node1&#45;&gt;Node2 -->
<g id="edge1" class="edge"><title>Node1&#45;&gt;Node2</title>
<path fill="none" stroke="midnightblue" d="M148.449,-51.1217C156.929,-52.4634 165.494,-53.8186 173.751,-55.1252"/>
<polygon fill="midnightblue" stroke="midnightblue" points="173.22,-58.5846 183.644,-56.6905 174.314,-51.6706 173.22,-58.5846"/>
</g>
<!-- Node3 -->
<g id="node3" class="node"><title>Node3</title>
<g id="a_node3"><a xlink:href="namespacesoftwarecontainer.html#acaa3372166baaae42d0d55577b99308e" target="_top" xlink:title="isDirectoryEmpty Check if path is empty ">
<polygon fill="white" stroke="black" points="184,-0.5 184,-30.5 284,-30.5 284,-0.5 184,-0.5"/>
<text text-anchor="start" x="192" y="-18.5" font-family="Helvetica,sans-Serif" font-size="10.00">softwarecontainer::</text>
<text text-anchor="middle" x="234" y="-7.5" font-family="Helvetica,sans-Serif" font-size="10.00">isDirectoryEmpty</text>
</a>
</g>
</g>
<!-- Node1&#45;&gt;Node3 -->
<g id="edge2" class="edge"><title>Node1&#45;&gt;Node3</title>
<path fill="none" stroke="midnightblue" d="M148.449,-28.3431C156.929,-27.0551 165.494,-25.7541 173.751,-24.4998"/>
<polygon fill="midnightblue" stroke="midnightblue" points="174.283,-27.9592 183.644,-22.9971 173.232,-21.0386 174.283,-27.9592"/>
</g>
</g>
</svg>
