<?xml version="1.0" encoding="UTF-8" standalone="no"?>
<!DOCTYPE svg PUBLIC "-//W3C//DTD SVG 1.1//EN"
 "http://www.w3.org/Graphics/SVG/1.1/DTD/svg11.dtd">
<!-- Generated by graphviz version 2.38.0 (20140413.2041)
 -->
<!-- Title: softwarecontainer::Netlink::checkKernelDump Pages: 1 -->
<svg width="435pt" height="61pt"
 viewBox="0.00 0.00 435.00 61.00" xmlns="http://www.w3.org/2000/svg" xmlns:xlink="http://www.w3.org/1999/xlink">
<g id="graph0" class="graph" transform="scale(1 1) rotate(0) translate(4 57)">
<title>softwarecontainer::Netlink::checkKernelDump</title>
<polygon fill="white" stroke="none" points="-4,4 -4,-57 431,-57 431,4 -4,4"/>
<!-- Node1 -->
<g id="node1" class="node"><title>Node1</title>
<polygon fill="#bfbfbf" stroke="black" points="0,-0.5 0,-30.5 134,-30.5 134,-0.5 0,-0.5"/>
<text text-anchor="start" x="8" y="-18.5" font-family="Helvetica,sans-Serif" font-size="10.00">softwarecontainer::</text>
<text text-anchor="middle" x="67" y="-7.5" font-family="Helvetica,sans-Serif" font-size="10.00">Netlink::checkKernelDump</text>
</g>
<!-- Node2 -->
<g id="node2" class="node"><title>Node2</title>
<g id="a_node2"><a xlink:href="classsoftwarecontainer_1_1_netlink.html#a1756adb8382b2ed3c1518567862139c1" target="_top" xlink:title="get a dump of all links, addresses and routes from the kernel. ">
<polygon fill="white" stroke="black" points="170,-22.5 170,-52.5 291,-52.5 291,-22.5 170,-22.5"/>
<text text-anchor="start" x="178" y="-40.5" font-family="Helvetica,sans-Serif" font-size="10.00">softwarecontainer::</text>
<text text-anchor="middle" x="230.5" y="-29.5" font-family="Helvetica,sans-Serif" font-size="10.00">Netlink::getKernelDump</text>
</a>
</g>
</g>
<!-- Node1&#45;&gt;Node2 -->
<g id="edge1" class="edge"><title>Node1&#45;&gt;Node2</title>
<path fill="none" stroke="midnightblue" d="M134.154,-24.5117C142.669,-25.6717 151.408,-26.8621 159.975,-28.0291"/>
<polygon fill="midnightblue" stroke="midnightblue" points="159.549,-31.5033 169.93,-29.3852 160.494,-24.5673 159.549,-31.5033"/>
</g>
<!-- Node3 -->
<g id="node3" class="node"><title>Node3</title>
<g id="a_node3"><a xlink:href="namespacesoftwarecontainer.html#a51a25e6a54b7bb79fc5b4ce8902a31a4" target="_top" xlink:title="isError Check if ReturnCode indicates Error or not ">
<polygon fill="white" stroke="black" points="327,-0.5 327,-30.5 427,-30.5 427,-0.5 327,-0.5"/>
<text text-anchor="start" x="335" y="-18.5" font-family="Helvetica,sans-Serif" font-size="10.00">softwarecontainer::</text>
<text text-anchor="middle" x="377" y="-7.5" font-family="Helvetica,sans-Serif" font-size="10.00">isError</text>
</a>
</g>
</g>
<!-- Node1&#45;&gt;Node3 -->
<g id="edge3" class="edge"><title>Node1&#45;&gt;Node3</title>
<path fill="none" stroke="midnightblue" d="M134.114,-14.0147C146.058,-13.8002 158.399,-13.6137 170,-13.5 223.775,-12.9728 237.226,-12.8675 291,-13.5 299.185,-13.5963 307.812,-13.7447 316.306,-13.9181"/>
<polygon fill="midnightblue" stroke="midnightblue" points="316.489,-17.4228 326.562,-14.1403 316.64,-10.4245 316.489,-17.4228"/>
</g>
<!-- Node2&#45;&gt;Node3 -->
<g id="edge2" class="edge"><title>Node2&#45;&gt;Node3</title>
<path fill="none" stroke="midnightblue" d="M291.108,-28.4247C299.509,-27.1457 308.145,-25.8308 316.544,-24.5522"/>
<polygon fill="midnightblue" stroke="midnightblue" points="317.278,-27.9807 326.638,-23.0154 316.225,-21.0605 317.278,-27.9807"/>
</g>
</g>
</svg>
