<?xml version="1.0" encoding="UTF-8" standalone="no"?>
<!DOCTYPE svg PUBLIC "-//W3C//DTD SVG 1.1//EN"
 "http://www.w3.org/Graphics/SVG/1.1/DTD/svg11.dtd">
<!-- Generated by graphviz version 2.38.0 (20140413.2041)
 -->
<!-- Title: softwarecontainer::Container::bindMountInContainer Pages: 1 -->
<svg width="639pt" height="429pt"
 viewBox="0.00 0.00 639.00 429.30" xmlns="http://www.w3.org/2000/svg" xmlns:xlink="http://www.w3.org/1999/xlink">
<g id="graph0" class="graph" transform="scale(1 1) rotate(0) translate(4 425.298)">
<title>softwarecontainer::Container::bindMountInContainer</title>
<polygon fill="white" stroke="none" points="-4,4 -4,-425.298 635,-425.298 635,4 -4,4"/>
<!-- Node1 -->
<g id="node1" class="node"><title>Node1</title>
<polygon fill="#bfbfbf" stroke="black" points="0,-267.5 0,-297.5 160,-297.5 160,-267.5 0,-267.5"/>
<text text-anchor="start" x="8" y="-285.5" font-family="Helvetica,sans-Serif" font-size="10.00">softwarecontainer::</text>
<text text-anchor="middle" x="80" y="-274.5" font-family="Helvetica,sans-Serif" font-size="10.00">Container::bindMountInContainer</text>
</g>
<!-- Node2 -->
<g id="node2" class="node"><title>Node2</title>
<g id="a_node2"><a xlink:href="classsoftwarecontainer_1_1_file_toolkit_with_undo.html#a8f6b5cda214c9e412ab73313bc95d785" target="_top" xlink:title="bindMount Bind mount a src directory to another position dst. ">
<polygon fill="white" stroke="black" points="204.5,-333 204.5,-374 309.5,-374 309.5,-333 204.5,-333"/>
<text text-anchor="start" x="212.5" y="-362" font-family="Helvetica,sans-Serif" font-size="10.00">softwarecontainer::</text>
<text text-anchor="start" x="212.5" y="-351" font-family="Helvetica,sans-Serif" font-size="10.00">FileToolkitWithUndo</text>
<text text-anchor="middle" x="257" y="-340" font-family="Helvetica,sans-Serif" font-size="10.00">::bindMount</text>
</a>
</g>
</g>
<!-- Node1&#45;&gt;Node2 -->
<g id="edge1" class="edge"><title>Node1&#45;&gt;Node2</title>
<path fill="none" stroke="midnightblue" d="M118.113,-297.557C140.72,-306.729 170.135,-318.664 195.987,-329.152"/>
<polygon fill="midnightblue" stroke="midnightblue" points="194.749,-332.427 205.331,-332.943 197.381,-325.94 194.749,-332.427"/>
</g>
<!-- Node3 -->
<g id="node3" class="node"><title>Node3</title>
<g id="a_node3"><a xlink:href="namespacesoftwarecontainer.html#ae8835f968ab1d43b4a395b0097490734" target="_top" xlink:title="existsInFileSystem Check if path exists ">
<polygon fill="white" stroke="black" points="528,-387.5 528,-417.5 629,-417.5 629,-387.5 528,-387.5"/>
<text text-anchor="start" x="536" y="-405.5" font-family="Helvetica,sans-Serif" font-size="10.00">softwarecontainer::</text>
<text text-anchor="middle" x="578.5" y="-394.5" font-family="Helvetica,sans-Serif" font-size="10.00">existsInFileSystem</text>
</a>
</g>
</g>
<!-- Node1&#45;&gt;Node3 -->
<g id="edge17" class="edge"><title>Node1&#45;&gt;Node3</title>
<path fill="none" stroke="midnightblue" d="M92.9356,-297.515C112.021,-320.34 151.79,-363.25 196,-383.5 301.015,-431.6 439.736,-423.042 517.681,-412.658"/>
<polygon fill="midnightblue" stroke="midnightblue" points="518.38,-416.095 527.804,-411.254 517.418,-409.162 518.38,-416.095"/>
</g>
<!-- Node5 -->
<g id="node5" class="node"><title>Node5</title>
<g id="a_node5"><a xlink:href="classsoftwarecontainer_1_1_file_toolkit_with_undo.html#a44a19890b72a635b3134cb2a07fc0875" target="_top" xlink:title="checks whether given path is already added to clean up handlers or not ">
<polygon fill="white" stroke="black" points="526,-284 526,-325 631,-325 631,-284 526,-284"/>
<text text-anchor="start" x="534" y="-313" font-family="Helvetica,sans-Serif" font-size="10.00">softwarecontainer::</text>
<text text-anchor="start" x="534" y="-302" font-family="Helvetica,sans-Serif" font-size="10.00">FileToolkitWithUndo</text>
<text text-anchor="middle" x="578.5" y="-291" font-family="Helvetica,sans-Serif" font-size="10.00">::pathInList</text>
</a>
</g>
</g>
<!-- Node1&#45;&gt;Node5 -->
<g id="edge19" class="edge"><title>Node1&#45;&gt;Node5</title>
<path fill="none" stroke="midnightblue" d="M160.221,-286.01C259.079,-290.391 426.04,-297.789 515.877,-301.769"/>
<polygon fill="midnightblue" stroke="midnightblue" points="515.767,-305.268 525.912,-302.214 516.077,-298.275 515.767,-305.268"/>
</g>
<!-- Node6 -->
<g id="node6" class="node"><title>Node6</title>
<g id="a_node6"><a xlink:href="classsoftwarecontainer_1_1_file_toolkit_with_undo.html#a35eb42bdace2695fb3e96cb84a535213" target="_top" xlink:title="createDirectory Create a directory, and if successful append it to a list of dirs to be deleted in th...">
<polygon fill="white" stroke="black" points="369.5,-235 369.5,-276 474.5,-276 474.5,-235 369.5,-235"/>
<text text-anchor="start" x="377.5" y="-264" font-family="Helvetica,sans-Serif" font-size="10.00">softwarecontainer::</text>
<text text-anchor="start" x="377.5" y="-253" font-family="Helvetica,sans-Serif" font-size="10.00">FileToolkitWithUndo</text>
<text text-anchor="middle" x="422" y="-242" font-family="Helvetica,sans-Serif" font-size="10.00">::createDirectory</text>
</a>
</g>
</g>
<!-- Node1&#45;&gt;Node6 -->
<g id="edge5" class="edge"><title>Node1&#45;&gt;Node6</title>
<path fill="none" stroke="midnightblue" d="M160.286,-276.204C220.969,-271.385 303.461,-264.834 359.278,-260.401"/>
<polygon fill="midnightblue" stroke="midnightblue" points="359.687,-263.88 369.378,-259.599 359.133,-256.902 359.687,-263.88"/>
</g>
<!-- Node7 -->
<g id="node7" class="node"><title>Node7</title>
<g id="a_node7"><a xlink:href="namespacesoftwarecontainer.html#a44f64c34c09d1ffdb18428b41f0d9e91" target="_top" xlink:title="isDirectory Check if path is a directory ">
<polygon fill="white" stroke="black" points="528.5,-196.5 528.5,-226.5 628.5,-226.5 628.5,-196.5 528.5,-196.5"/>
<text text-anchor="start" x="536.5" y="-214.5" font-family="Helvetica,sans-Serif" font-size="10.00">softwarecontainer::</text>
<text text-anchor="middle" x="578.5" y="-203.5" font-family="Helvetica,sans-Serif" font-size="10.00">isDirectory</text>
</a>
</g>
</g>
<!-- Node1&#45;&gt;Node7 -->
<g id="edge18" class="edge"><title>Node1&#45;&gt;Node7</title>
<path fill="none" stroke="midnightblue" d="M140.755,-267.444C195.78,-254.198 279.867,-235.509 354,-225.5 409.404,-218.02 473.085,-214.526 518.263,-212.9"/>
<polygon fill="midnightblue" stroke="midnightblue" points="518.595,-216.391 528.471,-212.553 518.358,-209.395 518.595,-216.391"/>
</g>
<!-- Node8 -->
<g id="node8" class="node"><title>Node8</title>
<g id="a_node8"><a xlink:href="classsoftwarecontainer_1_1_container.html#a480d9a7d3a2c0ee9d1756a2bdfc29f59" target="_top" xlink:title="synchronous version of execute ">
<polygon fill="white" stroke="black" points="196,-147.5 196,-177.5 318,-177.5 318,-147.5 196,-147.5"/>
<text text-anchor="start" x="204" y="-165.5" font-family="Helvetica,sans-Serif" font-size="10.00">softwarecontainer::</text>
<text text-anchor="middle" x="257" y="-154.5" font-family="Helvetica,sans-Serif" font-size="10.00">Container::executeSync</text>
</a>
</g>
</g>
<!-- Node1&#45;&gt;Node8 -->
<g id="edge8" class="edge"><title>Node1&#45;&gt;Node8</title>
<path fill="none" stroke="midnightblue" d="M98.1148,-267.317C119.9,-248.421 159.144,-215.805 196,-192.5 201.688,-188.904 207.864,-185.402 214.02,-182.136"/>
<polygon fill="midnightblue" stroke="midnightblue" points="215.672,-185.223 222.963,-177.536 212.47,-178.998 215.672,-185.223"/>
</g>
<!-- Node2&#45;&gt;Node3 -->
<g id="edge2" class="edge"><title>Node2&#45;&gt;Node3</title>
<path fill="none" stroke="midnightblue" d="M309.783,-371.947C323.96,-376.373 339.436,-380.641 354,-383.5 408.772,-394.252 472.275,-398.921 517.562,-400.947"/>
<polygon fill="midnightblue" stroke="midnightblue" points="517.663,-404.454 527.8,-401.374 517.955,-397.46 517.663,-404.454"/>
</g>
<!-- Node4 -->
<g id="node4" class="node"><title>Node4</title>
<g id="a_node4"><a xlink:href="classsoftwarecontainer_1_1_file_toolkit_with_undo.html#a649391903bf1a0eec92c829713117a74" target="_top" xlink:title="tempDir Creates a temporary directory at templatePath. ">
<polygon fill="white" stroke="black" points="369.5,-333 369.5,-374 474.5,-374 474.5,-333 369.5,-333"/>
<text text-anchor="start" x="377.5" y="-362" font-family="Helvetica,sans-Serif" font-size="10.00">softwarecontainer::</text>
<text text-anchor="start" x="377.5" y="-351" font-family="Helvetica,sans-Serif" font-size="10.00">FileToolkitWithUndo</text>
<text text-anchor="middle" x="422" y="-340" font-family="Helvetica,sans-Serif" font-size="10.00">::tempDir</text>
</a>
</g>
</g>
<!-- Node2&#45;&gt;Node4 -->
<g id="edge3" class="edge"><title>Node2&#45;&gt;Node4</title>
<path fill="none" stroke="midnightblue" d="M309.574,-353.5C325.408,-353.5 342.992,-353.5 359.425,-353.5"/>
<polygon fill="midnightblue" stroke="midnightblue" points="359.482,-357 369.482,-353.5 359.482,-350 359.482,-357"/>
</g>
<!-- Node4&#45;&gt;Node5 -->
<g id="edge4" class="edge"><title>Node4&#45;&gt;Node5</title>
<path fill="none" stroke="midnightblue" d="M474.876,-337.047C488.067,-332.864 502.369,-328.328 515.989,-324.008"/>
<polygon fill="midnightblue" stroke="midnightblue" points="517.287,-327.269 525.761,-320.909 515.171,-320.596 517.287,-327.269"/>
</g>
<!-- Node6&#45;&gt;Node5 -->
<g id="edge7" class="edge"><title>Node6&#45;&gt;Node5</title>
<path fill="none" stroke="midnightblue" d="M474.876,-271.953C488.067,-276.136 502.369,-280.672 515.989,-284.992"/>
<polygon fill="midnightblue" stroke="midnightblue" points="515.171,-288.404 525.761,-288.091 517.287,-281.731 515.171,-288.404"/>
</g>
<!-- Node6&#45;&gt;Node7 -->
<g id="edge6" class="edge"><title>Node6&#45;&gt;Node7</title>
<path fill="none" stroke="midnightblue" d="M474.876,-240.726C488.908,-236.73 504.196,-232.376 518.584,-228.279"/>
<polygon fill="midnightblue" stroke="midnightblue" points="519.715,-231.596 528.374,-225.491 517.798,-224.864 519.715,-231.596"/>
</g>
<!-- Node9 -->
<g id="node9" class="node"><title>Node9</title>
<g id="a_node9"><a xlink:href="classsoftwarecontainer_1_1_container.html#ae18efbb5f1588ed2211d7e876ede84ab" target="_top" xlink:title="Start a process from the given command line, with an environment consisting of the variables previous...">
<polygon fill="white" stroke="black" points="372,-147.5 372,-177.5 472,-177.5 472,-147.5 372,-147.5"/>
<text text-anchor="start" x="380" y="-165.5" font-family="Helvetica,sans-Serif" font-size="10.00">softwarecontainer::</text>
<text text-anchor="middle" x="422" y="-154.5" font-family="Helvetica,sans-Serif" font-size="10.00">Container::execute</text>
</a>
</g>
</g>
<!-- Node8&#45;&gt;Node9 -->
<g id="edge9" class="edge"><title>Node8&#45;&gt;Node9</title>
<path fill="none" stroke="midnightblue" d="M318.232,-162.5C332.462,-162.5 347.623,-162.5 361.807,-162.5"/>
<polygon fill="midnightblue" stroke="midnightblue" points="361.935,-166 371.935,-162.5 361.935,-159 361.935,-166"/>
</g>
<!-- Node10 -->
<g id="node10" class="node"><title>Node10</title>
<g id="a_node10"><a xlink:href="namespacesoftwarecontainer.html#aee26a680bb2961627889d39c9f874b2c" target="_top" xlink:title="waitForProcessTermination Waits for a process to terminate and then returns the status of the process...">
<polygon fill="white" stroke="black" points="354,-98.5 354,-128.5 490,-128.5 490,-98.5 354,-98.5"/>
<text text-anchor="start" x="362" y="-116.5" font-family="Helvetica,sans-Serif" font-size="10.00">softwarecontainer::</text>
<text text-anchor="middle" x="422" y="-105.5" font-family="Helvetica,sans-Serif" font-size="10.00">waitForProcessTermination</text>
</a>
</g>
</g>
<!-- Node8&#45;&gt;Node10 -->
<g id="edge10" class="edge"><title>Node8&#45;&gt;Node10</title>
<path fill="none" stroke="midnightblue" d="M308.235,-147.399C324.891,-142.392 343.6,-136.768 360.919,-131.561"/>
<polygon fill="midnightblue" stroke="midnightblue" points="362.361,-134.782 370.93,-128.552 360.346,-128.079 362.361,-134.782"/>
</g>
<!-- Node10&#45;&gt;Node3 -->
<g id="edge11" class="edge"><title>Node10&#45;&gt;Node3</title>
<path fill="none" stroke="midnightblue" d="M480.021,-128.696C483.728,-131.197 487.122,-134.109 490,-137.5 547.596,-205.358 490.157,-253.031 526,-334.5 533.289,-351.068 545.358,-367.317 555.98,-379.774"/>
<polygon fill="midnightblue" stroke="midnightblue" points="553.447,-382.193 562.687,-387.377 558.697,-377.563 553.447,-382.193"/>
</g>
<!-- Node10&#45;&gt;Node7 -->
<g id="edge12" class="edge"><title>Node10&#45;&gt;Node7</title>
<path fill="none" stroke="midnightblue" d="M475.088,-128.596C480.361,-131.152 485.443,-134.103 490,-137.5 511.666,-153.651 505.237,-169.204 526,-186.5 527.938,-188.114 529.997,-189.654 532.136,-191.118"/>
<polygon fill="midnightblue" stroke="midnightblue" points="530.333,-194.118 540.681,-196.39 534.008,-188.161 530.333,-194.118"/>
</g>
<!-- Node11 -->
<g id="node11" class="node"><title>Node11</title>
<g id="a_node11"><a xlink:href="namespacesoftwarecontainer.html#acaa3372166baaae42d0d55577b99308e" target="_top" xlink:title="isDirectoryEmpty Check if path is empty ">
<polygon fill="white" stroke="black" points="528.5,-147.5 528.5,-177.5 628.5,-177.5 628.5,-147.5 528.5,-147.5"/>
<text text-anchor="start" x="536.5" y="-165.5" font-family="Helvetica,sans-Serif" font-size="10.00">softwarecontainer::</text>
<text text-anchor="middle" x="578.5" y="-154.5" font-family="Helvetica,sans-Serif" font-size="10.00">isDirectoryEmpty</text>
</a>
</g>
</g>
<!-- Node10&#45;&gt;Node11 -->
<g id="edge13" class="edge"><title>Node10&#45;&gt;Node11</title>
<path fill="none" stroke="midnightblue" d="M470.616,-128.601C486.255,-133.562 503.805,-139.127 520.092,-144.293"/>
<polygon fill="midnightblue" stroke="midnightblue" points="519.451,-147.761 530.041,-147.448 521.567,-141.089 519.451,-147.761"/>
</g>
<!-- Node12 -->
<g id="node12" class="node"><title>Node12</title>
<g id="a_node12"><a xlink:href="namespacesoftwarecontainer.html#a3a71c6d06c86e4f62e7f2b6d7c926f66" target="_top" xlink:title="isFile Check if path is a file ">
<polygon fill="white" stroke="black" points="528.5,-98.5 528.5,-128.5 628.5,-128.5 628.5,-98.5 528.5,-98.5"/>
<text text-anchor="start" x="536.5" y="-116.5" font-family="Helvetica,sans-Serif" font-size="10.00">softwarecontainer::</text>
<text text-anchor="middle" x="578.5" y="-105.5" font-family="Helvetica,sans-Serif" font-size="10.00">isFile</text>
</a>
</g>
</g>
<!-- Node10&#45;&gt;Node12 -->
<g id="edge14" class="edge"><title>Node10&#45;&gt;Node12</title>
<path fill="none" stroke="midnightblue" d="M490.317,-113.5C499.533,-113.5 508.942,-113.5 518.006,-113.5"/>
<polygon fill="midnightblue" stroke="midnightblue" points="518.064,-117 528.064,-113.5 518.064,-110 518.064,-117"/>
</g>
<!-- Node13 -->
<g id="node13" class="node"><title>Node13</title>
<g id="a_node13"><a xlink:href="namespacesoftwarecontainer.html#acd78c8c457ea2f848b546ec21db98285" target="_top" xlink:title="isPipe Check if path is a pipe ">
<polygon fill="white" stroke="black" points="528.5,-49.5 528.5,-79.5 628.5,-79.5 628.5,-49.5 528.5,-49.5"/>
<text text-anchor="start" x="536.5" y="-67.5" font-family="Helvetica,sans-Serif" font-size="10.00">softwarecontainer::</text>
<text text-anchor="middle" x="578.5" y="-56.5" font-family="Helvetica,sans-Serif" font-size="10.00">isPipe</text>
</a>
</g>
</g>
<!-- Node10&#45;&gt;Node13 -->
<g id="edge15" class="edge"><title>Node10&#45;&gt;Node13</title>
<path fill="none" stroke="midnightblue" d="M470.616,-98.3986C486.255,-93.4385 503.805,-87.8726 520.092,-82.7071"/>
<polygon fill="midnightblue" stroke="midnightblue" points="521.567,-85.911 530.041,-79.5516 519.451,-79.2385 521.567,-85.911"/>
</g>
<!-- Node14 -->
<g id="node14" class="node"><title>Node14</title>
<g id="a_node14"><a xlink:href="namespacesoftwarecontainer.html#a21a5de23f41d3f27cf7d31994f518cc0" target="_top" xlink:title="isSocket Check if path is a socket ">
<polygon fill="white" stroke="black" points="528.5,-0.5 528.5,-30.5 628.5,-30.5 628.5,-0.5 528.5,-0.5"/>
<text text-anchor="start" x="536.5" y="-18.5" font-family="Helvetica,sans-Serif" font-size="10.00">softwarecontainer::</text>
<text text-anchor="middle" x="578.5" y="-7.5" font-family="Helvetica,sans-Serif" font-size="10.00">isSocket</text>
</a>
</g>
</g>
<!-- Node10&#45;&gt;Node14 -->
<g id="edge16" class="edge"><title>Node10&#45;&gt;Node14</title>
<path fill="none" stroke="midnightblue" d="M441.64,-98.4755C461.738,-82.6727 495.025,-57.6297 526,-39.5 528.514,-38.0285 531.133,-36.5771 533.8,-35.1608"/>
<polygon fill="midnightblue" stroke="midnightblue" points="535.638,-38.1531 542.967,-30.5022 532.466,-31.9128 535.638,-38.1531"/>
</g>
</g>
</svg>
