<?xml version="1.0" encoding="UTF-8" standalone="no"?>
<!DOCTYPE svg PUBLIC "-//W3C//DTD SVG 1.1//EN"
 "http://www.w3.org/Graphics/SVG/1.1/DTD/svg11.dtd">
<!-- Generated by graphviz version 2.38.0 (20140413.2041)
 -->
<!-- Title: softwarecontainer::OverlaySyncCleanupHandler::clean Pages: 1 -->
<svg width="328pt" height="88pt"
 viewBox="0.00 0.00 328.00 88.00" xmlns="http://www.w3.org/2000/svg" xmlns:xlink="http://www.w3.org/1999/xlink">
<g id="graph0" class="graph" transform="scale(1 1) rotate(0) translate(4 84)">
<title>softwarecontainer::OverlaySyncCleanupHandler::clean</title>
<polygon fill="white" stroke="none" points="-4,4 -4,-84 324,-84 324,4 -4,4"/>
<!-- Node1 -->
<g id="node1" class="node"><title>Node1</title>
<polygon fill="#bfbfbf" stroke="black" points="0,-19 0,-60 143,-60 143,-19 0,-19"/>
<text text-anchor="start" x="8" y="-48" font-family="Helvetica,sans-Serif" font-size="10.00">softwarecontainer::</text>
<text text-anchor="start" x="8" y="-37" font-family="Helvetica,sans-Serif" font-size="10.00">OverlaySyncCleanupHandler</text>
<text text-anchor="middle" x="71.5" y="-26" font-family="Helvetica,sans-Serif" font-size="10.00">::clean</text>
</g>
<!-- Node2 -->
<g id="node2" class="node"><title>Node2</title>
<g id="a_node2"><a xlink:href="classsoftwarecontainer_1_1_recursive_copy.html#a3ed9b0f8d340207741b057ed0b3231b3" target="_top" xlink:title="copy Copy files from src to dst ">
<polygon fill="white" stroke="black" points="194,-49.5 194,-79.5 305,-79.5 305,-49.5 194,-49.5"/>
<text text-anchor="start" x="202" y="-67.5" font-family="Helvetica,sans-Serif" font-size="10.00">softwarecontainer::</text>
<text text-anchor="middle" x="249.5" y="-56.5" font-family="Helvetica,sans-Serif" font-size="10.00">RecursiveCopy::copy</text>
</a>
</g>
</g>
<!-- Node1&#45;&gt;Node2 -->
<g id="edge1" class="edge"><title>Node1&#45;&gt;Node2</title>
<path fill="none" stroke="midnightblue" d="M143.072,-49.5244C156.561,-51.4404 170.619,-53.4373 183.909,-55.3251"/>
<polygon fill="midnightblue" stroke="midnightblue" points="183.507,-58.803 193.899,-56.7442 184.491,-51.8726 183.507,-58.803"/>
</g>
<!-- Node3 -->
<g id="node3" class="node"><title>Node3</title>
<g id="a_node3"><a xlink:href="classsoftwarecontainer_1_1_recursive_copy.html#a8b4137067b18ba06764435c86dbf1d51" target="_top" xlink:title="getInstance Gets the RecursiveCopy instance. ">
<polygon fill="white" stroke="black" points="179,-0.5 179,-30.5 320,-30.5 320,-0.5 179,-0.5"/>
<text text-anchor="start" x="187" y="-18.5" font-family="Helvetica,sans-Serif" font-size="10.00">softwarecontainer::</text>
<text text-anchor="middle" x="249.5" y="-7.5" font-family="Helvetica,sans-Serif" font-size="10.00">RecursiveCopy::getInstance</text>
</a>
</g>
</g>
<!-- Node1&#45;&gt;Node3 -->
<g id="edge2" class="edge"><title>Node1&#45;&gt;Node3</title>
<path fill="none" stroke="midnightblue" d="M143.072,-29.8766C151.526,-28.7237 160.205,-27.5403 168.777,-26.3713"/>
<polygon fill="midnightblue" stroke="midnightblue" points="169.337,-29.8274 178.772,-25.0083 168.391,-22.8916 169.337,-29.8274"/>
</g>
</g>
</svg>
