<?xml version="1.0" encoding="UTF-8" standalone="no"?>
<!DOCTYPE svg PUBLIC "-//W3C//DTD SVG 1.1//EN"
 "http://www.w3.org/Graphics/SVG/1.1/DTD/svg11.dtd">
<!-- Generated by graphviz version 2.38.0 (20140413.2041)
 -->
<!-- Title: softwarecontainer::FileToolkitWithUndo::pathInList Pages: 1 -->
<svg width="625pt" height="267pt"
 viewBox="0.00 0.00 625.00 267.00" xmlns="http://www.w3.org/2000/svg" xmlns:xlink="http://www.w3.org/1999/xlink">
<g id="graph0" class="graph" transform="scale(1 1) rotate(0) translate(4 263)">
<title>softwarecontainer::FileToolkitWithUndo::pathInList</title>
<polygon fill="white" stroke="none" points="-4,4 -4,-263 621,-263 621,4 -4,4"/>
<!-- Node1 -->
<g id="node1" class="node"><title>Node1</title>
<polygon fill="#bfbfbf" stroke="black" points="0,-127.5 0,-168.5 105,-168.5 105,-127.5 0,-127.5"/>
<text text-anchor="start" x="8" y="-156.5" font-family="Helvetica,sans-Serif" font-size="10.00">softwarecontainer::</text>
<text text-anchor="start" x="8" y="-145.5" font-family="Helvetica,sans-Serif" font-size="10.00">FileToolkitWithUndo</text>
<text text-anchor="middle" x="52.5" y="-134.5" font-family="Helvetica,sans-Serif" font-size="10.00">::pathInList</text>
</g>
<!-- Node2 -->
<g id="node2" class="node"><title>Node2</title>
<g id="a_node2"><a xlink:href="classsoftwarecontainer_1_1_container.html#abbcb43e7e5d321326a91857f5328da7e" target="_top" xlink:title="Tries to bind mount a file in the container. ">
<polygon fill="white" stroke="black" points="141,-217.5 141,-258.5 275,-258.5 275,-217.5 141,-217.5"/>
<text text-anchor="start" x="149" y="-246.5" font-family="Helvetica,sans-Serif" font-size="10.00">softwarecontainer::</text>
<text text-anchor="start" x="149" y="-235.5" font-family="Helvetica,sans-Serif" font-size="10.00">Container::bindMountFileIn</text>
<text text-anchor="middle" x="208" y="-224.5" font-family="Helvetica,sans-Serif" font-size="10.00">Container</text>
</a>
</g>
</g>
<!-- Node1&#45;&gt;Node2 -->
<g id="edge1" class="edge"><title>Node1&#45;&gt;Node2</title>
<path fill="none" stroke="midnightblue" d="M89.3329,-174.662C104.825,-185.633 123.405,-198.069 141,-208 146.7,-211.217 152.807,-214.365 158.921,-217.339"/>
<polygon fill="midnightblue" stroke="midnightblue" points="91.2376,-171.721 81.07,-168.743 87.1612,-177.412 91.2376,-171.721"/>
</g>
<!-- Node3 -->
<g id="node3" class="node"><title>Node3</title>
<g id="a_node3"><a xlink:href="classsoftwarecontainer_1_1_file_toolkit_with_undo.html#aff5073fb683649d6753baae354d202b9" target="_top" xlink:title="createDirectory Create a directory, and if successful append it to a list of dirs to be deleted in th...">
<polygon fill="white" stroke="black" points="155.5,-97.5 155.5,-138.5 260.5,-138.5 260.5,-97.5 155.5,-97.5"/>
<text text-anchor="start" x="163.5" y="-126.5" font-family="Helvetica,sans-Serif" font-size="10.00">softwarecontainer::</text>
<text text-anchor="start" x="163.5" y="-115.5" font-family="Helvetica,sans-Serif" font-size="10.00">FileToolkitWithUndo</text>
<text text-anchor="middle" x="208" y="-104.5" font-family="Helvetica,sans-Serif" font-size="10.00">::createDirectory</text>
</a>
</g>
</g>
<!-- Node1&#45;&gt;Node3 -->
<g id="edge2" class="edge"><title>Node1&#45;&gt;Node3</title>
<path fill="none" stroke="midnightblue" d="M115.093,-135.962C128.437,-133.354 142.418,-130.622 155.334,-128.098"/>
<polygon fill="midnightblue" stroke="midnightblue" points="114.183,-132.574 105.04,-137.927 115.526,-139.444 114.183,-132.574"/>
</g>
<!-- Node8 -->
<g id="node8" class="node"><title>Node8</title>
<g id="a_node8"><a xlink:href="classsoftwarecontainer_1_1_file_toolkit_with_undo.html#ab46eccba563b861f100d9ce7fa9ca4d6" target="_top" xlink:title="overlayMount Mount a directory with an overlay on top of it. ">
<polygon fill="white" stroke="black" points="332.5,-0.5 332.5,-41.5 437.5,-41.5 437.5,-0.5 332.5,-0.5"/>
<text text-anchor="start" x="340.5" y="-29.5" font-family="Helvetica,sans-Serif" font-size="10.00">softwarecontainer::</text>
<text text-anchor="start" x="340.5" y="-18.5" font-family="Helvetica,sans-Serif" font-size="10.00">FileToolkitWithUndo</text>
<text text-anchor="middle" x="385" y="-7.5" font-family="Helvetica,sans-Serif" font-size="10.00">::overlayMount</text>
</a>
</g>
</g>
<!-- Node1&#45;&gt;Node8 -->
<g id="edge9" class="edge"><title>Node1&#45;&gt;Node8</title>
<path fill="none" stroke="midnightblue" d="M86.8614,-121.238C102.556,-109.695 121.974,-96.8426 141,-88 203.901,-58.7666 282.063,-40.0489 332.477,-30.0317"/>
<polygon fill="midnightblue" stroke="midnightblue" points="84.4434,-118.677 78.5516,-127.482 88.6487,-124.273 84.4434,-118.677"/>
</g>
<!-- Node10 -->
<g id="node10" class="node"><title>Node10</title>
<g id="a_node10"><a xlink:href="classsoftwarecontainer_1_1_file_toolkit_with_undo.html#a649391903bf1a0eec92c829713117a74" target="_top" xlink:title="tempDir Creates a temporary directory at templatePath. ">
<polygon fill="white" stroke="black" points="155.5,-157.5 155.5,-198.5 260.5,-198.5 260.5,-157.5 155.5,-157.5"/>
<text text-anchor="start" x="163.5" y="-186.5" font-family="Helvetica,sans-Serif" font-size="10.00">softwarecontainer::</text>
<text text-anchor="start" x="163.5" y="-175.5" font-family="Helvetica,sans-Serif" font-size="10.00">FileToolkitWithUndo</text>
<text text-anchor="middle" x="208" y="-164.5" font-family="Helvetica,sans-Serif" font-size="10.00">::tempDir</text>
</a>
</g>
</g>
<!-- Node1&#45;&gt;Node10 -->
<g id="edge10" class="edge"><title>Node1&#45;&gt;Node10</title>
<path fill="none" stroke="midnightblue" d="M115.093,-160.038C128.437,-162.646 142.418,-165.378 155.334,-167.902"/>
<polygon fill="midnightblue" stroke="midnightblue" points="115.526,-156.556 105.04,-158.073 114.183,-163.426 115.526,-156.556"/>
</g>
<!-- Node4 -->
<g id="node4" class="node"><title>Node4</title>
<g id="a_node4"><a xlink:href="classsoftwarecontainer_1_1_container.html#aad5106f2602758d80aafebdd34a7b0f9" target="_top" xlink:title="Tries to bind mount a directory in the container. ">
<polygon fill="white" stroke="black" points="316.5,-157.5 316.5,-198.5 453.5,-198.5 453.5,-157.5 316.5,-157.5"/>
<text text-anchor="start" x="324.5" y="-186.5" font-family="Helvetica,sans-Serif" font-size="10.00">softwarecontainer::</text>
<text text-anchor="start" x="324.5" y="-175.5" font-family="Helvetica,sans-Serif" font-size="10.00">Container::bindMountFolder</text>
<text text-anchor="middle" x="385" y="-164.5" font-family="Helvetica,sans-Serif" font-size="10.00">InContainer</text>
</a>
</g>
</g>
<!-- Node3&#45;&gt;Node4 -->
<g id="edge3" class="edge"><title>Node3&#45;&gt;Node4</title>
<path fill="none" stroke="midnightblue" d="M270.118,-138.955C287.648,-144.965 306.737,-151.51 324.188,-157.493"/>
<polygon fill="midnightblue" stroke="midnightblue" points="271.154,-135.61 260.559,-135.677 268.884,-142.232 271.154,-135.61"/>
</g>
<!-- Node5 -->
<g id="node5" class="node"><title>Node5</title>
<g id="a_node5"><a xlink:href="classsoftwarecontainer_1_1_workspace.html#af9be59382096de97cfab692bc5c89114" target="_top" xlink:title="Check if the workspace is present and create it if needed. ">
<polygon fill="white" stroke="black" points="311,-109 311,-139 459,-139 459,-109 311,-109"/>
<text text-anchor="start" x="319" y="-127" font-family="Helvetica,sans-Serif" font-size="10.00">softwarecontainer::</text>
<text text-anchor="middle" x="385" y="-116" font-family="Helvetica,sans-Serif" font-size="10.00">Workspace::checkWorkspace</text>
</a>
</g>
</g>
<!-- Node3&#45;&gt;Node5 -->
<g id="edge4" class="edge"><title>Node3&#45;&gt;Node5</title>
<path fill="none" stroke="midnightblue" d="M270.738,-120.117C283.681,-120.561 297.451,-121.033 310.767,-121.489"/>
<polygon fill="midnightblue" stroke="midnightblue" points="270.673,-116.613 260.559,-119.768 270.433,-123.608 270.673,-116.613"/>
</g>
<!-- Node7 -->
<g id="node7" class="node"><title>Node7</title>
<g id="a_node7"><a xlink:href="classsoftwarecontainer_1_1_container.html#a8461f293ef5db5ee5fbdeddd24f36214" target="_top" xlink:title="Setup the container for preloading. ">
<polygon fill="white" stroke="black" points="335,-60 335,-90 435,-90 435,-60 335,-60"/>
<text text-anchor="start" x="343" y="-78" font-family="Helvetica,sans-Serif" font-size="10.00">softwarecontainer::</text>
<text text-anchor="middle" x="385" y="-67" font-family="Helvetica,sans-Serif" font-size="10.00">Container::initialize</text>
</a>
</g>
</g>
<!-- Node3&#45;&gt;Node7 -->
<g id="edge6" class="edge"><title>Node3&#45;&gt;Node7</title>
<path fill="none" stroke="midnightblue" d="M270.407,-102.911C291.534,-97.7202 314.895,-91.98 334.911,-87.0619"/>
<polygon fill="midnightblue" stroke="midnightblue" points="269.435,-99.546 260.559,-105.331 271.106,-106.344 269.435,-99.546"/>
</g>
<!-- Node3&#45;&gt;Node8 -->
<g id="edge7" class="edge"><title>Node3&#45;&gt;Node8</title>
<path fill="none" stroke="midnightblue" d="M245.482,-91.5858C264.483,-78.4677 288.413,-62.9187 311,-51 317.786,-47.419 325.097,-43.9691 332.377,-40.7643"/>
<polygon fill="midnightblue" stroke="midnightblue" points="243.318,-88.8273 237.121,-97.4203 247.324,-94.5678 243.318,-88.8273"/>
</g>
<!-- Node6 -->
<g id="node6" class="node"><title>Node6</title>
<g id="a_node6"><a xlink:href="classsoftwarecontainer_1_1_workspace.html#a4cca8749e6f3bd90452511ede207f5e5" target="_top" xlink:title="Creates a workspace. ">
<polygon fill="white" stroke="black" points="495,-109 495,-139 617,-139 617,-109 495,-109"/>
<text text-anchor="start" x="503" y="-127" font-family="Helvetica,sans-Serif" font-size="10.00">softwarecontainer::</text>
<text text-anchor="middle" x="556" y="-116" font-family="Helvetica,sans-Serif" font-size="10.00">Workspace::Workspace</text>
</a>
</g>
</g>
<!-- Node5&#45;&gt;Node6 -->
<g id="edge5" class="edge"><title>Node5&#45;&gt;Node6</title>
<path fill="none" stroke="midnightblue" d="M469.28,-124C477.941,-124 486.619,-124 494.95,-124"/>
<polygon fill="midnightblue" stroke="midnightblue" points="469.143,-120.5 459.143,-124 469.143,-127.5 469.143,-120.5"/>
</g>
<!-- Node9 -->
<g id="node9" class="node"><title>Node9</title>
<g id="a_node9"><a xlink:href="classsoftwarecontainer_1_1_container.html#a6c57689a4a21b8c9342c53c7e8743203" target="_top" xlink:title="create Creates a new lxc_container and creates it with all the initialization. ">
<polygon fill="white" stroke="black" points="506,-6 506,-36 606,-36 606,-6 506,-6"/>
<text text-anchor="start" x="514" y="-24" font-family="Helvetica,sans-Serif" font-size="10.00">softwarecontainer::</text>
<text text-anchor="middle" x="556" y="-13" font-family="Helvetica,sans-Serif" font-size="10.00">Container::create</text>
</a>
</g>
</g>
<!-- Node8&#45;&gt;Node9 -->
<g id="edge8" class="edge"><title>Node8&#45;&gt;Node9</title>
<path fill="none" stroke="midnightblue" d="M447.729,-21C466.82,-21 487.586,-21 505.717,-21"/>
<polygon fill="midnightblue" stroke="midnightblue" points="447.624,-17.5001 437.624,-21 447.624,-24.5001 447.624,-17.5001"/>
</g>
<!-- Node10&#45;&gt;Node4 -->
<g id="edge12" class="edge"><title>Node10&#45;&gt;Node4</title>
<path fill="none" stroke="midnightblue" d="M270.59,-178C285.363,-178 301.219,-178 316.254,-178"/>
<polygon fill="midnightblue" stroke="midnightblue" points="270.559,-174.5 260.559,-178 270.559,-181.5 270.559,-174.5"/>
</g>
<!-- Node11 -->
<g id="node11" class="node"><title>Node11</title>
<g id="a_node11"><a xlink:href="classsoftwarecontainer_1_1_file_toolkit_with_undo.html#a33c6fa5ecfb8e370ae8bb6aedf568336" target="_top" xlink:title="bindMount Bind mount a src directory to another position dst. ">
<polygon fill="white" stroke="black" points="332.5,-217.5 332.5,-258.5 437.5,-258.5 437.5,-217.5 332.5,-217.5"/>
<text text-anchor="start" x="340.5" y="-246.5" font-family="Helvetica,sans-Serif" font-size="10.00">softwarecontainer::</text>
<text text-anchor="start" x="340.5" y="-235.5" font-family="Helvetica,sans-Serif" font-size="10.00">FileToolkitWithUndo</text>
<text text-anchor="middle" x="385" y="-224.5" font-family="Helvetica,sans-Serif" font-size="10.00">::bindMount</text>
</a>
</g>
</g>
<!-- Node10&#45;&gt;Node11 -->
<g id="edge11" class="edge"><title>Node10&#45;&gt;Node11</title>
<path fill="none" stroke="midnightblue" d="M270.019,-198.921C290.304,-205.876 312.685,-213.549 332.205,-220.242"/>
<polygon fill="midnightblue" stroke="midnightblue" points="271.154,-195.61 260.559,-195.677 268.884,-202.232 271.154,-195.61"/>
</g>
</g>
</svg>
