<?xml version="1.0" encoding="UTF-8" standalone="no"?>
<!DOCTYPE svg PUBLIC "-//W3C//DTD SVG 1.1//EN"
 "http://www.w3.org/Graphics/SVG/1.1/DTD/svg11.dtd">
<!-- Generated by graphviz version 2.38.0 (20140413.2041)
 -->
<!-- Title: softwarecontainer::DBusGateway::teardownGateway Pages: 1 -->
<svg width="350pt" height="137pt"
 viewBox="0.00 0.00 350.00 137.00" xmlns="http://www.w3.org/2000/svg" xmlns:xlink="http://www.w3.org/1999/xlink">
<g id="graph0" class="graph" transform="scale(1 1) rotate(0) translate(4 133)">
<title>softwarecontainer::DBusGateway::teardownGateway</title>
<polygon fill="white" stroke="none" points="-4,4 -4,-133 346,-133 346,4 -4,4"/>
<!-- Node1 -->
<g id="node1" class="node"><title>Node1</title>
<polygon fill="#bfbfbf" stroke="black" points="0,-49.5 0,-79.5 165,-79.5 165,-49.5 0,-49.5"/>
<text text-anchor="start" x="8" y="-67.5" font-family="Helvetica,sans-Serif" font-size="10.00">softwarecontainer::</text>
<text text-anchor="middle" x="82.5" y="-56.5" font-family="Helvetica,sans-Serif" font-size="10.00">DBusGateway::teardownGateway</text>
</g>
<!-- Node2 -->
<g id="node2" class="node"><title>Node2</title>
<g id="a_node2"><a xlink:href="classsoftwarecontainer_1_1_d_bus_gateway.html#a22492aa4176566f87939ad0466c21756" target="_top" xlink:title="Is the gateway activated or not? ">
<polygon fill="white" stroke="black" points="204,-98.5 204,-128.5 339,-128.5 339,-98.5 204,-98.5"/>
<text text-anchor="start" x="212" y="-116.5" font-family="Helvetica,sans-Serif" font-size="10.00">softwarecontainer::</text>
<text text-anchor="middle" x="271.5" y="-105.5" font-family="Helvetica,sans-Serif" font-size="10.00">DBusGateway::isActivated</text>
</a>
</g>
</g>
<!-- Node1&#45;&gt;Node2 -->
<g id="edge1" class="edge"><title>Node1&#45;&gt;Node2</title>
<path fill="none" stroke="midnightblue" d="M140.877,-79.5346C160.622,-84.7083 182.906,-90.5475 203.358,-95.9066"/>
<polygon fill="midnightblue" stroke="midnightblue" points="202.671,-99.3447 213.231,-98.4938 204.445,-92.5733 202.671,-99.3447"/>
</g>
<!-- Node3 -->
<g id="node3" class="node"><title>Node3</title>
<g id="a_node3"><a xlink:href="classsoftwarecontainer_1_1_d_bus_gateway.html#a190ed3e72e31d93bb47dd4e14081df15" target="_top" xlink:title="Is the gateway configured or not? ">
<polygon fill="white" stroke="black" points="201,-49.5 201,-79.5 342,-79.5 342,-49.5 201,-49.5"/>
<text text-anchor="start" x="209" y="-67.5" font-family="Helvetica,sans-Serif" font-size="10.00">softwarecontainer::</text>
<text text-anchor="middle" x="271.5" y="-56.5" font-family="Helvetica,sans-Serif" font-size="10.00">DBusGateway::isConfigured</text>
</a>
</g>
</g>
<!-- Node1&#45;&gt;Node3 -->
<g id="edge2" class="edge"><title>Node1&#45;&gt;Node3</title>
<path fill="none" stroke="midnightblue" d="M165.249,-64.5C173.703,-64.5 182.288,-64.5 190.72,-64.5"/>
<polygon fill="midnightblue" stroke="midnightblue" points="190.911,-68.0001 200.911,-64.5 190.911,-61.0001 190.911,-68.0001"/>
</g>
<!-- Node4 -->
<g id="node4" class="node"><title>Node4</title>
<g id="a_node4"><a xlink:href="classsoftwarecontainer_1_1_d_bus_gateway.html#acc3278f8b78471a72c908f16b7aa36c6" target="_top" xlink:title="Restore system to the state prior to launching of gateway. ">
<polygon fill="white" stroke="black" points="208.5,-0.5 208.5,-30.5 334.5,-30.5 334.5,-0.5 208.5,-0.5"/>
<text text-anchor="start" x="216.5" y="-18.5" font-family="Helvetica,sans-Serif" font-size="10.00">softwarecontainer::</text>
<text text-anchor="middle" x="271.5" y="-7.5" font-family="Helvetica,sans-Serif" font-size="10.00">DBusGateway::teardown</text>
</a>
</g>
</g>
<!-- Node1&#45;&gt;Node4 -->
<g id="edge3" class="edge"><title>Node1&#45;&gt;Node4</title>
<path fill="none" stroke="midnightblue" d="M140.877,-49.4654C160.622,-44.2917 182.906,-38.4525 203.358,-33.0934"/>
<polygon fill="midnightblue" stroke="midnightblue" points="204.445,-36.4267 213.231,-30.5062 202.671,-29.6553 204.445,-36.4267"/>
</g>
</g>
</svg>
