<?xml version="1.0" encoding="UTF-8" standalone="no"?>
<!DOCTYPE svg PUBLIC "-//W3C//DTD SVG 1.1//EN"
 "http://www.w3.org/Graphics/SVG/1.1/DTD/svg11.dtd">
<!-- Generated by graphviz version 2.38.0 (20140413.2041)
 -->
<!-- Title: IPTableEntry::applyRules Pages: 1 -->
<svg width="314pt" height="116pt"
 viewBox="0.00 0.00 314.00 115.50" xmlns="http://www.w3.org/2000/svg" xmlns:xlink="http://www.w3.org/1999/xlink">
<g id="graph0" class="graph" transform="scale(1 1) rotate(0) translate(4 111.5)">
<title>IPTableEntry::applyRules</title>
<polygon fill="white" stroke="none" points="-4,4 -4,-111.5 310,-111.5 310,4 -4,4"/>
<!-- Node1 -->
<g id="node1" class="node"><title>Node1</title>
<polygon fill="#bfbfbf" stroke="black" points="0,-50 0,-69 128,-69 128,-50 0,-50"/>
<text text-anchor="middle" x="64" y="-57" font-family="Helvetica,sans-Serif" font-size="10.00">IPTableEntry::applyRules</text>
</g>
<!-- Node2 -->
<g id="node2" class="node"><title>Node2</title>
<g id="a_node2"><a xlink:href="class_i_p_table_entry.html#a6712bcba4d643a6c0ac74ff6fe5a3760" target="_top" xlink:title="This function Interprets defaultTarget rule to iptables applicable policy string. ...">
<polygon fill="white" stroke="black" points="164,-88 164,-107 306,-107 306,-88 164,-88"/>
<text text-anchor="middle" x="235" y="-95" font-family="Helvetica,sans-Serif" font-size="10.00">IPTableEntry::interpretPolicy</text>
</a>
</g>
</g>
<!-- Node1&#45;&gt;Node2 -->
<g id="edge1" class="edge"><title>Node1&#45;&gt;Node2</title>
<path fill="none" stroke="midnightblue" d="M107.646,-69.089C130.148,-74.1487 157.948,-80.3996 181.738,-85.7488"/>
<polygon fill="midnightblue" stroke="midnightblue" points="181.137,-89.2009 191.661,-87.9799 182.672,-82.3714 181.137,-89.2009"/>
</g>
<!-- Node3 -->
<g id="node3" class="node"><title>Node3</title>
<g id="a_node3"><a xlink:href="class_i_p_table_entry.html#ac090d9fee4b15b246d944d800ff0e12e" target="_top" xlink:title="Interprets a rule to iptables applicable string. ">
<polygon fill="white" stroke="black" points="167.5,-50 167.5,-69 302.5,-69 302.5,-50 167.5,-50"/>
<text text-anchor="middle" x="235" y="-57" font-family="Helvetica,sans-Serif" font-size="10.00">IPTableEntry::interpretRule</text>
</a>
</g>
</g>
<!-- Node1&#45;&gt;Node3 -->
<g id="edge2" class="edge"><title>Node1&#45;&gt;Node3</title>
<path fill="none" stroke="midnightblue" d="M128.41,-59.5C137.864,-59.5 147.694,-59.5 157.385,-59.5"/>
<polygon fill="midnightblue" stroke="midnightblue" points="157.411,-63.0001 167.411,-59.5 157.411,-56.0001 157.411,-63.0001"/>
</g>
<!-- Node4 -->
<g id="node4" class="node"><title>Node4</title>
<g id="a_node4"><a xlink:href="class_i_p_table_entry.html#a9d28ee9552aa3716310840d7790bee95" target="_top" xlink:title="Interprets a rule with protocol information to iptables applicable string. ">
<polygon fill="white" stroke="black" points="167.5,-0.5 167.5,-30.5 302.5,-30.5 302.5,-0.5 167.5,-0.5"/>
<text text-anchor="start" x="175.5" y="-18.5" font-family="Helvetica,sans-Serif" font-size="10.00">IPTableEntry::interpretRule</text>
<text text-anchor="middle" x="235" y="-7.5" font-family="Helvetica,sans-Serif" font-size="10.00">WithProtocol</text>
</a>
</g>
</g>
<!-- Node1&#45;&gt;Node4 -->
<g id="edge3" class="edge"><title>Node1&#45;&gt;Node4</title>
<path fill="none" stroke="midnightblue" d="M101.67,-49.9527C120.613,-45.0209 144.337,-38.8442 166.447,-33.0879"/>
<polygon fill="midnightblue" stroke="midnightblue" points="167.34,-36.4721 176.135,-30.5654 165.576,-29.6979 167.34,-36.4721"/>
</g>
</g>
</svg>
