<?xml version="1.0" encoding="UTF-8" standalone="no"?>
<!DOCTYPE svg PUBLIC "-//W3C//DTD SVG 1.1//EN"
 "http://www.w3.org/Graphics/SVG/1.1/DTD/svg11.dtd">
<!-- Generated by graphviz version 2.38.0 (20140413.2041)
 -->
<!-- Title: Gateway::setConfig Pages: 1 -->
<svg width="711pt" height="50pt"
 viewBox="0.00 0.00 711.00 50.00" xmlns="http://www.w3.org/2000/svg" xmlns:xlink="http://www.w3.org/1999/xlink">
<g id="graph0" class="graph" transform="scale(1 1) rotate(0) translate(4 46)">
<title>Gateway::setConfig</title>
<polygon fill="white" stroke="none" points="-4,4 -4,-46 707,-46 707,4 -4,4"/>
<!-- Node1 -->
<g id="node1" class="node"><title>Node1</title>
<polygon fill="#bfbfbf" stroke="black" points="0,-11.5 0,-30.5 108,-30.5 108,-11.5 0,-11.5"/>
<text text-anchor="middle" x="54" y="-18.5" font-family="Helvetica,sans-Serif" font-size="10.00">Gateway::setConfig</text>
</g>
<!-- Node2 -->
<g id="node2" class="node"><title>Node2</title>
<g id="a_node2"><a xlink:href="classsoftwarecontainer_1_1_software_container.html#af928f299cf15ecda5f625eaecd518f57" target="_top" xlink:title="Set the gateway configuration and activate them. ">
<polygon fill="white" stroke="black" points="144,-0.5 144,-41.5 311,-41.5 311,-0.5 144,-0.5"/>
<text text-anchor="start" x="152" y="-29.5" font-family="Helvetica,sans-Serif" font-size="10.00">softwarecontainer::</text>
<text text-anchor="start" x="152" y="-18.5" font-family="Helvetica,sans-Serif" font-size="10.00">SoftwareContainer::setGateway</text>
<text text-anchor="middle" x="227.5" y="-7.5" font-family="Helvetica,sans-Serif" font-size="10.00">Configs</text>
</a>
</g>
</g>
<!-- Node1&#45;&gt;Node2 -->
<g id="edge1" class="edge"><title>Node1&#45;&gt;Node2</title>
<path fill="none" stroke="midnightblue" d="M118.327,-21C126.672,-21 135.321,-21 143.927,-21"/>
<polygon fill="midnightblue" stroke="midnightblue" points="118.324,-17.5001 108.324,-21 118.324,-24.5001 118.324,-17.5001"/>
</g>
<!-- Node3 -->
<g id="node3" class="node"><title>Node3</title>
<g id="a_node3"><a xlink:href="classsoftwarecontainer_1_1_software_container.html#a7db71d975b5bbfebe48e50769cf726b9" target="_top" xlink:title="Continues the &#39;launch&#39; phase by allowing gateway configurations to be set. ">
<polygon fill="white" stroke="black" points="347,-0.5 347,-41.5 533,-41.5 533,-0.5 347,-0.5"/>
<text text-anchor="start" x="355" y="-29.5" font-family="Helvetica,sans-Serif" font-size="10.00">softwarecontainer::</text>
<text text-anchor="start" x="355" y="-18.5" font-family="Helvetica,sans-Serif" font-size="10.00">SoftwareContainer::updateGateway</text>
<text text-anchor="middle" x="440" y="-7.5" font-family="Helvetica,sans-Serif" font-size="10.00">Configuration</text>
</a>
</g>
</g>
<!-- Node2&#45;&gt;Node3 -->
<g id="edge2" class="edge"><title>Node2&#45;&gt;Node3</title>
<path fill="none" stroke="midnightblue" d="M321.363,-21C329.841,-21 338.428,-21 346.899,-21"/>
<polygon fill="midnightblue" stroke="midnightblue" points="321.091,-17.5001 311.091,-21 321.091,-24.5001 321.091,-17.5001"/>
</g>
<!-- Node4 -->
<g id="node4" class="node"><title>Node4</title>
<g id="a_node4"><a xlink:href="classsoftwarecontainer_1_1_software_container_agent.html#ae19799cb9be607a08a674179713adcf8" target="_top" xlink:title="Set configuration for the container gateways. ">
<polygon fill="white" stroke="black" points="569,-0.5 569,-41.5 703,-41.5 703,-0.5 569,-0.5"/>
<text text-anchor="start" x="577" y="-29.5" font-family="Helvetica,sans-Serif" font-size="10.00">softwarecontainer::</text>
<text text-anchor="start" x="577" y="-18.5" font-family="Helvetica,sans-Serif" font-size="10.00">SoftwareContainerAgent</text>
<text text-anchor="middle" x="636" y="-7.5" font-family="Helvetica,sans-Serif" font-size="10.00">::setGatewayConfigs</text>
</a>
</g>
</g>
<!-- Node3&#45;&gt;Node4 -->
<g id="edge3" class="edge"><title>Node3&#45;&gt;Node4</title>
<path fill="none" stroke="midnightblue" d="M543.324,-21C551.965,-21 560.549,-21 568.802,-21"/>
<polygon fill="midnightblue" stroke="midnightblue" points="543.171,-17.5001 533.171,-21 543.171,-24.5001 543.171,-17.5001"/>
</g>
</g>
</svg>
