<?xml version="1.0" encoding="UTF-8" standalone="no"?>
<!DOCTYPE svg PUBLIC "-//W3C//DTD SVG 1.1//EN"
 "http://www.w3.org/Graphics/SVG/1.1/DTD/svg11.dtd">
<!-- Generated by graphviz version 2.38.0 (20140413.2041)
 -->
<!-- Title: softwarecontainer::Container::bindMountInContainer Pages: 1 -->
<svg width="639pt" height="386pt"
 viewBox="0.00 0.00 639.00 385.75" xmlns="http://www.w3.org/2000/svg" xmlns:xlink="http://www.w3.org/1999/xlink">
<g id="graph0" class="graph" transform="scale(1 1) rotate(0) translate(4 381.754)">
<title>softwarecontainer::Container::bindMountInContainer</title>
<polygon fill="white" stroke="none" points="-4,4 -4,-381.754 635,-381.754 635,4 -4,4"/>
<!-- Node1 -->
<g id="node1" class="node"><title>Node1</title>
<polygon fill="#bfbfbf" stroke="black" points="0,-96.2536 0,-126.254 160,-126.254 160,-96.2536 0,-96.2536"/>
<text text-anchor="start" x="8" y="-114.254" font-family="Helvetica,sans-Serif" font-size="10.00">softwarecontainer::</text>
<text text-anchor="middle" x="80" y="-103.254" font-family="Helvetica,sans-Serif" font-size="10.00">Container::bindMountInContainer</text>
</g>
<!-- Node2 -->
<g id="node2" class="node"><title>Node2</title>
<g id="a_node2"><a xlink:href="classsoftwarecontainer_1_1_file_toolkit_with_undo.html#a97fda85bea6f756d0620927c920ce83b" target="_top" xlink:title="bindMount Bind mount a src directory to another position dst. ">
<polygon fill="white" stroke="black" points="204.5,-190.754 204.5,-231.754 309.5,-231.754 309.5,-190.754 204.5,-190.754"/>
<text text-anchor="start" x="212.5" y="-219.754" font-family="Helvetica,sans-Serif" font-size="10.00">softwarecontainer::</text>
<text text-anchor="start" x="212.5" y="-208.754" font-family="Helvetica,sans-Serif" font-size="10.00">FileToolkitWithUndo</text>
<text text-anchor="middle" x="257" y="-197.754" font-family="Helvetica,sans-Serif" font-size="10.00">::bindMount</text>
</a>
</g>
</g>
<!-- Node1&#45;&gt;Node2 -->
<g id="edge1" class="edge"><title>Node1&#45;&gt;Node2</title>
<path fill="none" stroke="midnightblue" d="M107.579,-126.441C135.022,-142.123 178.338,-166.875 211.107,-185.601"/>
<polygon fill="midnightblue" stroke="midnightblue" points="209.629,-188.787 220.048,-190.71 213.102,-182.709 209.629,-188.787"/>
</g>
<!-- Node3 -->
<g id="node3" class="node"><title>Node3</title>
<g id="a_node3"><a xlink:href="namespacesoftwarecontainer.html#ae8835f968ab1d43b4a395b0097490734" target="_top" xlink:title="existsInFileSystem Check if path exists ">
<polygon fill="white" stroke="black" points="528,-347.254 528,-377.254 629,-377.254 629,-347.254 528,-347.254"/>
<text text-anchor="start" x="536" y="-365.254" font-family="Helvetica,sans-Serif" font-size="10.00">softwarecontainer::</text>
<text text-anchor="middle" x="578.5" y="-354.254" font-family="Helvetica,sans-Serif" font-size="10.00">existsInFileSystem</text>
</a>
</g>
</g>
<!-- Node1&#45;&gt;Node3 -->
<g id="edge18" class="edge"><title>Node1&#45;&gt;Node3</title>
<path fill="none" stroke="midnightblue" d="M92.1374,-126.619C111.332,-152.406 152.767,-205.114 196,-241.254 259.043,-293.953 276.231,-310.729 354,-337.254 407.423,-355.474 471.783,-361.088 517.691,-362.524"/>
<polygon fill="midnightblue" stroke="midnightblue" points="517.691,-366.025 527.777,-362.781 517.87,-359.027 517.691,-366.025"/>
</g>
<!-- Node4 -->
<g id="node4" class="node"><title>Node4</title>
<g id="a_node4"><a xlink:href="namespacesoftwarecontainer.html#a44f64c34c09d1ffdb18428b41f0d9e91" target="_top" xlink:title="isDirectory Check if path is a directory ">
<polygon fill="white" stroke="black" points="528.5,-91.2536 528.5,-121.254 628.5,-121.254 628.5,-91.2536 528.5,-91.2536"/>
<text text-anchor="start" x="536.5" y="-109.254" font-family="Helvetica,sans-Serif" font-size="10.00">softwarecontainer::</text>
<text text-anchor="middle" x="578.5" y="-98.2536" font-family="Helvetica,sans-Serif" font-size="10.00">isDirectory</text>
</a>
</g>
</g>
<!-- Node1&#45;&gt;Node4 -->
<g id="edge19" class="edge"><title>Node1&#45;&gt;Node4</title>
<path fill="none" stroke="midnightblue" d="M160.18,-108.971C172.18,-108.688 184.418,-108.435 196,-108.254 310.009,-106.468 443.204,-106.179 518.223,-106.182"/>
<polygon fill="midnightblue" stroke="midnightblue" points="518.414,-109.682 528.415,-106.184 518.416,-102.682 518.414,-109.682"/>
</g>
<!-- Node6 -->
<g id="node6" class="node"><title>Node6</title>
<g id="a_node6"><a xlink:href="classsoftwarecontainer_1_1_file_toolkit_with_undo.html#a44a19890b72a635b3134cb2a07fc0875" target="_top" xlink:title="checks whether given path is already added to clean up handlers or not ">
<polygon fill="white" stroke="black" points="526,-19.7536 526,-60.7536 631,-60.7536 631,-19.7536 526,-19.7536"/>
<text text-anchor="start" x="534" y="-48.7536" font-family="Helvetica,sans-Serif" font-size="10.00">softwarecontainer::</text>
<text text-anchor="start" x="534" y="-37.7536" font-family="Helvetica,sans-Serif" font-size="10.00">FileToolkitWithUndo</text>
<text text-anchor="middle" x="578.5" y="-26.7536" font-family="Helvetica,sans-Serif" font-size="10.00">::pathInList</text>
</a>
</g>
</g>
<!-- Node1&#45;&gt;Node6 -->
<g id="edge20" class="edge"><title>Node1&#45;&gt;Node6</title>
<path fill="none" stroke="midnightblue" d="M104.822,-96.0937C127.506,-82.2272 162.988,-61.9905 196,-49.2536 318.976,-1.80629 359.982,11.4161 490,-10.2536 498.957,-11.7465 508.227,-14.0436 517.233,-16.7167"/>
<polygon fill="midnightblue" stroke="midnightblue" points="516.287,-20.088 526.876,-19.7448 518.384,-13.4095 516.287,-20.088"/>
</g>
<!-- Node7 -->
<g id="node7" class="node"><title>Node7</title>
<g id="a_node7"><a xlink:href="classsoftwarecontainer_1_1_file_toolkit_with_undo.html#a35eb42bdace2695fb3e96cb84a535213" target="_top" xlink:title="createDirectory Create a directory, and if successful append it to a list of dirs to be deleted in th...">
<polygon fill="white" stroke="black" points="369.5,-19.7536 369.5,-60.7536 474.5,-60.7536 474.5,-19.7536 369.5,-19.7536"/>
<text text-anchor="start" x="377.5" y="-48.7536" font-family="Helvetica,sans-Serif" font-size="10.00">softwarecontainer::</text>
<text text-anchor="start" x="377.5" y="-37.7536" font-family="Helvetica,sans-Serif" font-size="10.00">FileToolkitWithUndo</text>
<text text-anchor="middle" x="422" y="-26.7536" font-family="Helvetica,sans-Serif" font-size="10.00">::createDirectory</text>
</a>
</g>
</g>
<!-- Node1&#45;&gt;Node7 -->
<g id="edge6" class="edge"><title>Node1&#45;&gt;Node7</title>
<path fill="none" stroke="midnightblue" d="M123.722,-96.2107C145.199,-89.0773 171.753,-80.9013 196,-75.2536 250.587,-62.5387 313.722,-53.1723 359.194,-47.3453"/>
<polygon fill="midnightblue" stroke="midnightblue" points="359.714,-50.8076 369.197,-46.084 358.838,-43.8626 359.714,-50.8076"/>
</g>
<!-- Node8 -->
<g id="node8" class="node"><title>Node8</title>
<g id="a_node8"><a xlink:href="classsoftwarecontainer_1_1_container.html#a480d9a7d3a2c0ee9d1756a2bdfc29f59" target="_top" xlink:title="synchronous version of execute ">
<polygon fill="white" stroke="black" points="196,-118.254 196,-148.254 318,-148.254 318,-118.254 196,-118.254"/>
<text text-anchor="start" x="204" y="-136.254" font-family="Helvetica,sans-Serif" font-size="10.00">softwarecontainer::</text>
<text text-anchor="middle" x="257" y="-125.254" font-family="Helvetica,sans-Serif" font-size="10.00">Container::executeSync</text>
</a>
</g>
</g>
<!-- Node1&#45;&gt;Node8 -->
<g id="edge9" class="edge"><title>Node1&#45;&gt;Node8</title>
<path fill="none" stroke="midnightblue" d="M160.052,-121.192C168.617,-122.268 177.291,-123.359 185.741,-124.421"/>
<polygon fill="midnightblue" stroke="midnightblue" points="185.557,-127.925 195.915,-125.7 186.43,-120.98 185.557,-127.925"/>
</g>
<!-- Node2&#45;&gt;Node3 -->
<g id="edge2" class="edge"><title>Node2&#45;&gt;Node3</title>
<path fill="none" stroke="midnightblue" d="M273.746,-231.824C291.119,-253.093 321.021,-285.732 354,-304.254 381.862,-319.901 461.702,-338.554 517.975,-350.4"/>
<polygon fill="midnightblue" stroke="midnightblue" points="517.335,-353.842 527.839,-352.458 518.765,-346.989 517.335,-353.842"/>
</g>
<!-- Node2&#45;&gt;Node4 -->
<g id="edge3" class="edge"><title>Node2&#45;&gt;Node4</title>
<path fill="none" stroke="midnightblue" d="M309.841,-228.062C359.961,-240.966 436.036,-251.404 490,-217.254 521.583,-197.267 501.69,-169.643 526,-141.254 530.441,-136.068 535.825,-131.31 541.416,-127.086"/>
<polygon fill="midnightblue" stroke="midnightblue" points="543.499,-129.9 549.672,-121.289 539.476,-124.171 543.499,-129.9"/>
</g>
<!-- Node5 -->
<g id="node5" class="node"><title>Node5</title>
<g id="a_node5"><a xlink:href="classsoftwarecontainer_1_1_file_toolkit_with_undo.html#a649391903bf1a0eec92c829713117a74" target="_top" xlink:title="tempDir Creates a temporary directory at templatePath. ">
<polygon fill="white" stroke="black" points="369.5,-166.754 369.5,-207.754 474.5,-207.754 474.5,-166.754 369.5,-166.754"/>
<text text-anchor="start" x="377.5" y="-195.754" font-family="Helvetica,sans-Serif" font-size="10.00">softwarecontainer::</text>
<text text-anchor="start" x="377.5" y="-184.754" font-family="Helvetica,sans-Serif" font-size="10.00">FileToolkitWithUndo</text>
<text text-anchor="middle" x="422" y="-173.754" font-family="Helvetica,sans-Serif" font-size="10.00">::tempDir</text>
</a>
</g>
</g>
<!-- Node2&#45;&gt;Node5 -->
<g id="edge4" class="edge"><title>Node2&#45;&gt;Node5</title>
<path fill="none" stroke="midnightblue" d="M309.574,-203.66C325.408,-201.328 342.992,-198.739 359.425,-196.32"/>
<polygon fill="midnightblue" stroke="midnightblue" points="360.098,-199.759 369.482,-194.839 359.079,-192.833 360.098,-199.759"/>
</g>
<!-- Node5&#45;&gt;Node6 -->
<g id="edge5" class="edge"><title>Node5&#45;&gt;Node6</title>
<path fill="none" stroke="midnightblue" d="M474.822,-168.699C480.328,-165.417 485.537,-161.622 490,-157.254 516.71,-131.109 502.779,-110.54 526,-81.2536 529.775,-76.4921 534.204,-71.9397 538.852,-67.7151"/>
<polygon fill="midnightblue" stroke="midnightblue" points="541.465,-70.0868 546.805,-60.9358 536.924,-64.7598 541.465,-70.0868"/>
</g>
<!-- Node7&#45;&gt;Node4 -->
<g id="edge7" class="edge"><title>Node7&#45;&gt;Node4</title>
<path fill="none" stroke="midnightblue" d="M471.038,-60.7746C490.83,-69.2296 513.623,-78.9664 533.028,-87.2559"/>
<polygon fill="midnightblue" stroke="midnightblue" points="531.683,-90.4873 542.254,-91.1971 534.433,-84.05 531.683,-90.4873"/>
</g>
<!-- Node7&#45;&gt;Node6 -->
<g id="edge8" class="edge"><title>Node7&#45;&gt;Node6</title>
<path fill="none" stroke="midnightblue" d="M474.876,-40.2536C487.939,-40.2536 502.092,-40.2536 515.592,-40.2536"/>
<polygon fill="midnightblue" stroke="midnightblue" points="515.761,-43.7537 525.761,-40.2536 515.761,-36.7537 515.761,-43.7537"/>
</g>
<!-- Node9 -->
<g id="node9" class="node"><title>Node9</title>
<g id="a_node9"><a xlink:href="classsoftwarecontainer_1_1_container.html#ae18efbb5f1588ed2211d7e876ede84ab" target="_top" xlink:title="Start a process from the given command line, with an environment consisting of the variables previous...">
<polygon fill="white" stroke="black" points="372,-118.254 372,-148.254 472,-148.254 472,-118.254 372,-118.254"/>
<text text-anchor="start" x="380" y="-136.254" font-family="Helvetica,sans-Serif" font-size="10.00">softwarecontainer::</text>
<text text-anchor="middle" x="422" y="-125.254" font-family="Helvetica,sans-Serif" font-size="10.00">Container::execute</text>
</a>
</g>
</g>
<!-- Node8&#45;&gt;Node9 -->
<g id="edge10" class="edge"><title>Node8&#45;&gt;Node9</title>
<path fill="none" stroke="midnightblue" d="M318.232,-133.254C332.462,-133.254 347.623,-133.254 361.807,-133.254"/>
<polygon fill="midnightblue" stroke="midnightblue" points="361.935,-136.754 371.935,-133.254 361.935,-129.754 361.935,-136.754"/>
</g>
<!-- Node10 -->
<g id="node10" class="node"><title>Node10</title>
<g id="a_node10"><a xlink:href="namespacesoftwarecontainer.html#aee26a680bb2961627889d39c9f874b2c" target="_top" xlink:title="waitForProcessTermination Waits for a process to terminate and then returns the status of the process...">
<polygon fill="white" stroke="black" points="354,-265.254 354,-295.254 490,-295.254 490,-265.254 354,-265.254"/>
<text text-anchor="start" x="362" y="-283.254" font-family="Helvetica,sans-Serif" font-size="10.00">softwarecontainer::</text>
<text text-anchor="middle" x="422" y="-272.254" font-family="Helvetica,sans-Serif" font-size="10.00">waitForProcessTermination</text>
</a>
</g>
</g>
<!-- Node8&#45;&gt;Node10 -->
<g id="edge11" class="edge"><title>Node8&#45;&gt;Node10</title>
<path fill="none" stroke="midnightblue" d="M277.906,-148.286C289.808,-157.491 305.078,-169.688 318,-181.254 334.86,-196.344 337.756,-201.502 354,-217.254 368.143,-230.969 384.218,-246.099 397.077,-258.093"/>
<polygon fill="midnightblue" stroke="midnightblue" points="394.917,-260.864 404.621,-265.116 399.686,-255.74 394.917,-260.864"/>
</g>
<!-- Node10&#45;&gt;Node3 -->
<g id="edge12" class="edge"><title>Node10&#45;&gt;Node3</title>
<path fill="none" stroke="midnightblue" d="M461.015,-295.374C470.702,-299.737 480.933,-304.806 490,-310.254 507.375,-320.693 508.704,-327.684 526,-338.254 528.326,-339.675 530.751,-341.07 533.225,-342.427"/>
<polygon fill="midnightblue" stroke="midnightblue" points="531.829,-345.645 542.316,-347.154 535.058,-339.435 531.829,-345.645"/>
</g>
<!-- Node10&#45;&gt;Node4 -->
<g id="edge13" class="edge"><title>Node10&#45;&gt;Node4</title>
<path fill="none" stroke="midnightblue" d="M470.307,-265.157C477.613,-261.21 484.534,-256.308 490,-250.254 524.19,-212.386 495.269,-181.978 526,-141.254 529.889,-136.1 534.766,-131.447 539.958,-127.34"/>
<polygon fill="midnightblue" stroke="midnightblue" points="542.213,-130.029 548.281,-121.344 538.121,-124.35 542.213,-130.029"/>
</g>
<!-- Node11 -->
<g id="node11" class="node"><title>Node11</title>
<g id="a_node11"><a xlink:href="namespacesoftwarecontainer.html#acaa3372166baaae42d0d55577b99308e" target="_top" xlink:title="isDirectoryEmpty Check if path is empty ">
<polygon fill="white" stroke="black" points="528.5,-249.254 528.5,-279.254 628.5,-279.254 628.5,-249.254 528.5,-249.254"/>
<text text-anchor="start" x="536.5" y="-267.254" font-family="Helvetica,sans-Serif" font-size="10.00">softwarecontainer::</text>
<text text-anchor="middle" x="578.5" y="-256.254" font-family="Helvetica,sans-Serif" font-size="10.00">isDirectoryEmpty</text>
</a>
</g>
</g>
<!-- Node10&#45;&gt;Node11 -->
<g id="edge14" class="edge"><title>Node10&#45;&gt;Node11</title>
<path fill="none" stroke="midnightblue" d="M490.317,-273.282C499.533,-272.328 508.942,-271.353 518.006,-270.415"/>
<polygon fill="midnightblue" stroke="midnightblue" points="518.478,-273.885 528.064,-269.373 517.757,-266.922 518.478,-273.885"/>
</g>
<!-- Node12 -->
<g id="node12" class="node"><title>Node12</title>
<g id="a_node12"><a xlink:href="namespacesoftwarecontainer.html#a3a71c6d06c86e4f62e7f2b6d7c926f66" target="_top" xlink:title="isFile Check if path is a file ">
<polygon fill="white" stroke="black" points="528.5,-200.254 528.5,-230.254 628.5,-230.254 628.5,-200.254 528.5,-200.254"/>
<text text-anchor="start" x="536.5" y="-218.254" font-family="Helvetica,sans-Serif" font-size="10.00">softwarecontainer::</text>
<text text-anchor="middle" x="578.5" y="-207.254" font-family="Helvetica,sans-Serif" font-size="10.00">isFile</text>
</a>
</g>
</g>
<!-- Node10&#45;&gt;Node12 -->
<g id="edge15" class="edge"><title>Node10&#45;&gt;Node12</title>
<path fill="none" stroke="midnightblue" d="M458.834,-265.178C480.693,-255.982 508.833,-244.143 532.224,-234.302"/>
<polygon fill="midnightblue" stroke="midnightblue" points="533.733,-237.464 541.593,-230.36 531.019,-231.012 533.733,-237.464"/>
</g>
<!-- Node13 -->
<g id="node13" class="node"><title>Node13</title>
<g id="a_node13"><a xlink:href="namespacesoftwarecontainer.html#acd78c8c457ea2f848b546ec21db98285" target="_top" xlink:title="isPipe Check if path is a pipe ">
<polygon fill="white" stroke="black" points="528.5,-151.254 528.5,-181.254 628.5,-181.254 628.5,-151.254 528.5,-151.254"/>
<text text-anchor="start" x="536.5" y="-169.254" font-family="Helvetica,sans-Serif" font-size="10.00">softwarecontainer::</text>
<text text-anchor="middle" x="578.5" y="-158.254" font-family="Helvetica,sans-Serif" font-size="10.00">isPipe</text>
</a>
</g>
</g>
<!-- Node10&#45;&gt;Node13 -->
<g id="edge16" class="edge"><title>Node10&#45;&gt;Node13</title>
<path fill="none" stroke="midnightblue" d="M467.142,-265.132C475.293,-261.1 483.326,-256.174 490,-250.254 513.263,-229.615 502.893,-211.067 526,-190.254 527.285,-189.096 528.635,-187.985 530.036,-186.918"/>
<polygon fill="midnightblue" stroke="midnightblue" points="532.11,-189.743 538.508,-181.298 528.24,-183.91 532.11,-189.743"/>
</g>
<!-- Node14 -->
<g id="node14" class="node"><title>Node14</title>
<g id="a_node14"><a xlink:href="namespacesoftwarecontainer.html#a21a5de23f41d3f27cf7d31994f518cc0" target="_top" xlink:title="isSocket Check if path is a socket ">
<polygon fill="white" stroke="black" points="528.5,-298.254 528.5,-328.254 628.5,-328.254 628.5,-298.254 528.5,-298.254"/>
<text text-anchor="start" x="536.5" y="-316.254" font-family="Helvetica,sans-Serif" font-size="10.00">softwarecontainer::</text>
<text text-anchor="middle" x="578.5" y="-305.254" font-family="Helvetica,sans-Serif" font-size="10.00">isSocket</text>
</a>
</g>
</g>
<!-- Node10&#45;&gt;Node14 -->
<g id="edge17" class="edge"><title>Node10&#45;&gt;Node14</title>
<path fill="none" stroke="midnightblue" d="M490.317,-294.632C499.533,-296.6 508.942,-298.61 518.006,-300.546"/>
<polygon fill="midnightblue" stroke="midnightblue" points="517.554,-304.028 528.064,-302.694 519.016,-297.183 517.554,-304.028"/>
</g>
</g>
</svg>
