<?xml version="1.0" encoding="UTF-8" standalone="no"?>
<!DOCTYPE svg PUBLIC "-//W3C//DTD SVG 1.1//EN"
 "http://www.w3.org/Graphics/SVG/1.1/DTD/svg11.dtd">
<!-- Generated by graphviz version 2.38.0 (20140413.2041)
 -->
<!-- Title: Gateway::activate Pages: 1 -->
<svg width="259pt" height="66pt"
 viewBox="0.00 0.00 259.00 66.00" xmlns="http://www.w3.org/2000/svg" xmlns:xlink="http://www.w3.org/1999/xlink">
<g id="graph0" class="graph" transform="scale(1 1) rotate(0) translate(4 62)">
<title>Gateway::activate</title>
<polygon fill="white" stroke="none" points="-4,4 -4,-62 255,-62 255,4 -4,4"/>
<!-- Node1 -->
<g id="node1" class="node"><title>Node1</title>
<polygon fill="#bfbfbf" stroke="black" points="0,-19.5 0,-38.5 96,-38.5 96,-19.5 0,-19.5"/>
<text text-anchor="middle" x="48" y="-26.5" font-family="Helvetica,sans-Serif" font-size="10.00">Gateway::activate</text>
</g>
<!-- Node2 -->
<g id="node2" class="node"><title>Node2</title>
<g id="a_node2"><a xlink:href="class_gateway.html#ad66eea64014d7eb2927c1f576b3cf2b2" target="_top" xlink:title="Check if the gateway has an associated container. ">
<polygon fill="white" stroke="black" points="132,-38.5 132,-57.5 251,-57.5 251,-38.5 132,-38.5"/>
<text text-anchor="middle" x="191.5" y="-45.5" font-family="Helvetica,sans-Serif" font-size="10.00">Gateway::hasContainer</text>
</a>
</g>
</g>
<!-- Node1&#45;&gt;Node2 -->
<g id="edge1" class="edge"><title>Node1&#45;&gt;Node2</title>
<path fill="none" stroke="midnightblue" d="M96.1175,-35.3267C104.323,-36.4285 113.007,-37.5946 121.654,-38.7556"/>
<polygon fill="midnightblue" stroke="midnightblue" points="121.379,-42.25 131.756,-40.1121 122.31,-35.3123 121.379,-42.25"/>
</g>
<!-- Node3 -->
<g id="node3" class="node"><title>Node3</title>
<g id="a_node3"><a xlink:href="class_gateway.html#a01028fc541340b53b0330c03dafb6bfe" target="_top" xlink:title="Gateway::id">
<polygon fill="white" stroke="black" points="157,-0.5 157,-19.5 226,-19.5 226,-0.5 157,-0.5"/>
<text text-anchor="middle" x="191.5" y="-7.5" font-family="Helvetica,sans-Serif" font-size="10.00">Gateway::id</text>
</a>
</g>
</g>
<!-- Node1&#45;&gt;Node3 -->
<g id="edge2" class="edge"><title>Node1&#45;&gt;Node3</title>
<path fill="none" stroke="midnightblue" d="M96.1175,-22.6733C112.341,-20.4948 130.438,-18.0649 146.411,-15.9201"/>
<polygon fill="midnightblue" stroke="midnightblue" points="147.114,-19.3572 156.559,-14.5574 146.183,-12.4194 147.114,-19.3572"/>
</g>
</g>
</svg>
