<?xml version="1.0" encoding="UTF-8" standalone="no"?>
<!DOCTYPE svg PUBLIC "-//W3C//DTD SVG 1.1//EN"
 "http://www.w3.org/Graphics/SVG/1.1/DTD/svg11.dtd">
<!-- Generated by graphviz version 2.38.0 (20140413.2041)
 -->
<!-- Title: Netlink::findAddresses Pages: 1 -->
<svg width="475pt" height="28pt"
 viewBox="0.00 0.00 475.00 28.00" xmlns="http://www.w3.org/2000/svg" xmlns:xlink="http://www.w3.org/1999/xlink">
<g id="graph0" class="graph" transform="scale(1 1) rotate(0) translate(4 24)">
<title>Netlink::findAddresses</title>
<polygon fill="white" stroke="none" points="-4,4 -4,-24 471,-24 471,4 -4,4"/>
<!-- Node1 -->
<g id="node1" class="node"><title>Node1</title>
<polygon fill="#bfbfbf" stroke="black" points="0,-0.5 0,-19.5 123,-19.5 123,-0.5 0,-0.5"/>
<text text-anchor="middle" x="61.5" y="-7.5" font-family="Helvetica,sans-Serif" font-size="10.00">Netlink::findAddresses</text>
</g>
<!-- Node2 -->
<g id="node2" class="node"><title>Node2</title>
<g id="a_node2"><a xlink:href="class_netlink.html#af2756a7ed673d086466f75d57de09fdf" target="_top" xlink:title="check for a kernel dump, and if not present, try to get one ">
<polygon fill="white" stroke="black" points="159,-0.5 159,-19.5 301,-19.5 301,-0.5 159,-0.5"/>
<text text-anchor="middle" x="230" y="-7.5" font-family="Helvetica,sans-Serif" font-size="10.00">Netlink::checkKernelDump</text>
</a>
</g>
</g>
<!-- Node1&#45;&gt;Node2 -->
<g id="edge1" class="edge"><title>Node1&#45;&gt;Node2</title>
<path fill="none" stroke="midnightblue" d="M123.081,-10C131.435,-10 140.119,-10 148.759,-10"/>
<polygon fill="midnightblue" stroke="midnightblue" points="148.859,-13.5001 158.859,-10 148.859,-6.5001 148.859,-13.5001"/>
</g>
<!-- Node3 -->
<g id="node3" class="node"><title>Node3</title>
<g id="a_node3"><a xlink:href="class_netlink.html#a1764702f3ed67ae491696c7632dea0cd" target="_top" xlink:title="get a dump of all links, addresses and routes from the kernel. ">
<polygon fill="white" stroke="black" points="337,-0.5 337,-19.5 467,-19.5 467,-0.5 337,-0.5"/>
<text text-anchor="middle" x="402" y="-7.5" font-family="Helvetica,sans-Serif" font-size="10.00">Netlink::getKernelDump</text>
</a>
</g>
</g>
<!-- Node2&#45;&gt;Node3 -->
<g id="edge2" class="edge"><title>Node2&#45;&gt;Node3</title>
<path fill="none" stroke="midnightblue" d="M301.127,-10C309.515,-10 318.103,-10 326.549,-10"/>
<polygon fill="midnightblue" stroke="midnightblue" points="326.759,-13.5001 336.759,-10 326.759,-6.5001 326.759,-13.5001"/>
</g>
</g>
</svg>
