<?xml version="1.0" encoding="UTF-8" standalone="no"?>
<!DOCTYPE svg PUBLIC "-//W3C//DTD SVG 1.1//EN"
 "http://www.w3.org/Graphics/SVG/1.1/DTD/svg11.dtd">
<!-- Generated by graphviz version 2.38.0 (20140413.2041)
 -->
<!-- Title: softwarecontainer::PulseGateway::readConfigElement Pages: 1 -->
<svg width="314pt" height="39pt"
 viewBox="0.00 0.00 314.00 39.00" xmlns="http://www.w3.org/2000/svg" xmlns:xlink="http://www.w3.org/1999/xlink">
<g id="graph0" class="graph" transform="scale(1 1) rotate(0) translate(4 35)">
<title>softwarecontainer::PulseGateway::readConfigElement</title>
<polygon fill="white" stroke="none" points="-4,4 -4,-35 310,-35 310,4 -4,4"/>
<!-- Node1 -->
<g id="node1" class="node"><title>Node1</title>
<polygon fill="#bfbfbf" stroke="black" points="0,-0.5 0,-30.5 170,-30.5 170,-0.5 0,-0.5"/>
<text text-anchor="start" x="8" y="-18.5" font-family="Helvetica,sans-Serif" font-size="10.00">softwarecontainer::</text>
<text text-anchor="middle" x="85" y="-7.5" font-family="Helvetica,sans-Serif" font-size="10.00">PulseGateway::readConfigElement</text>
</g>
<!-- Node2 -->
<g id="node2" class="node"><title>Node2</title>
<g id="a_node2"><a xlink:href="classsoftwarecontainer_1_1_j_s_o_n_parser.html#a7ea50df505b43684c4a1d82ca6cb6e82" target="_top" xlink:title="Reads a string from a JSON Object. ">
<polygon fill="white" stroke="black" points="206,-0.5 206,-30.5 306,-30.5 306,-0.5 206,-0.5"/>
<text text-anchor="start" x="214" y="-18.5" font-family="Helvetica,sans-Serif" font-size="10.00">softwarecontainer::</text>
<text text-anchor="middle" x="256" y="-7.5" font-family="Helvetica,sans-Serif" font-size="10.00">JSONParser::read</text>
</a>
</g>
</g>
<!-- Node1&#45;&gt;Node2 -->
<g id="edge1" class="edge"><title>Node1&#45;&gt;Node2</title>
<path fill="none" stroke="midnightblue" d="M170.005,-15.5C178.625,-15.5 187.253,-15.5 195.528,-15.5"/>
<polygon fill="midnightblue" stroke="midnightblue" points="195.795,-19.0001 205.795,-15.5 195.795,-12.0001 195.795,-19.0001"/>
</g>
</g>
</svg>
