<?xml version="1.0" encoding="UTF-8" standalone="no"?>
<!DOCTYPE svg PUBLIC "-//W3C//DTD SVG 1.1//EN"
 "http://www.w3.org/Graphics/SVG/1.1/DTD/svg11.dtd">
<!-- Generated by graphviz version 2.38.0 (20140413.2041)
 -->
<!-- Title: DBusCppAdaptor Pages: 1 -->
<svg width="492pt" height="116pt"
 viewBox="0.00 0.00 492.00 115.50" xmlns="http://www.w3.org/2000/svg" xmlns:xlink="http://www.w3.org/1999/xlink">
<g id="graph0" class="graph" transform="scale(1 1) rotate(0) translate(4 111.5)">
<title>DBusCppAdaptor</title>
<polygon fill="white" stroke="none" points="-4,4 -4,-111.5 488,-111.5 488,4 -4,4"/>
<!-- Node1 -->
<g id="node1" class="node"><title>Node1</title>
<polygon fill="#bfbfbf" stroke="black" points="385,-38.5 385,-57.5 484,-57.5 484,-38.5 385,-38.5"/>
<text text-anchor="middle" x="434.5" y="-45.5" font-family="Helvetica,sans-Serif" font-size="10.00">DBusCppAdaptor</text>
</g>
<!-- Node2 -->
<g id="node2" class="node"><title>Node2</title>
<g id="a_node2"><a xlink:href="classsoftwarecontainer_1_1_software_container_agent_adaptor.html" target="_top" xlink:title="softwarecontainer::\lSoftwareContainerAgentAdaptor">
<polygon fill="white" stroke="black" points="177,-77 177,-107 349,-107 349,-77 177,-77"/>
<text text-anchor="start" x="185" y="-95" font-family="Helvetica,sans-Serif" font-size="10.00">softwarecontainer::</text>
<text text-anchor="middle" x="263" y="-84" font-family="Helvetica,sans-Serif" font-size="10.00">SoftwareContainerAgentAdaptor</text>
</a>
</g>
</g>
<!-- Node2&#45;&gt;Node1 -->
<g id="edge1" class="edge"><title>Node2&#45;&gt;Node1</title>
<path fill="none" stroke="midnightblue" d="M331.614,-74.4482C353.881,-68.668 377.795,-62.4602 396.856,-57.5124"/>
<polygon fill="midnightblue" stroke="midnightblue" points="330.658,-71.0804 321.858,-76.9808 332.417,-77.8558 330.658,-71.0804"/>
</g>
<!-- Node3 -->
<g id="node3" class="node"><title>Node3</title>
<polygon fill="white" stroke="#bfbfbf" points="0,-77 0,-107 141,-107 141,-77 0,-77"/>
<text text-anchor="start" x="8" y="-95" font-family="Helvetica,sans-Serif" font-size="10.00">com::pelagicore::Software</text>
<text text-anchor="middle" x="70.5" y="-84" font-family="Helvetica,sans-Serif" font-size="10.00">ContainerAgent_adaptor</text>
</g>
<!-- Node3&#45;&gt;Node2 -->
<g id="edge2" class="edge"><title>Node3&#45;&gt;Node2</title>
<path fill="none" stroke="midnightblue" d="M151.249,-92C159.665,-92 168.248,-92 176.723,-92"/>
<polygon fill="midnightblue" stroke="midnightblue" points="151.084,-88.5001 141.084,-92 151.083,-95.5001 151.084,-88.5001"/>
</g>
<!-- Node4 -->
<g id="node4" class="node"><title>Node4</title>
<polygon fill="white" stroke="#bfbfbf" points="185.5,-38.5 185.5,-57.5 340.5,-57.5 340.5,-38.5 185.5,-38.5"/>
<text text-anchor="middle" x="263" y="-45.5" font-family="Helvetica,sans-Serif" font-size="10.00">DBus::IntrospectableAdaptor</text>
</g>
<!-- Node4&#45;&gt;Node1 -->
<g id="edge3" class="edge"><title>Node4&#45;&gt;Node1</title>
<path fill="none" stroke="midnightblue" d="M350.965,-48C362.524,-48 374.028,-48 384.616,-48"/>
<polygon fill="midnightblue" stroke="midnightblue" points="350.815,-44.5001 340.815,-48 350.815,-51.5001 350.815,-44.5001"/>
</g>
<!-- Node5 -->
<g id="node5" class="node"><title>Node5</title>
<polygon fill="white" stroke="#bfbfbf" points="204.5,-0.5 204.5,-19.5 321.5,-19.5 321.5,-0.5 204.5,-0.5"/>
<text text-anchor="middle" x="263" y="-7.5" font-family="Helvetica,sans-Serif" font-size="10.00">DBus::ObjectAdaptor</text>
</g>
<!-- Node5&#45;&gt;Node1 -->
<g id="edge4" class="edge"><title>Node5&#45;&gt;Node1</title>
<path fill="none" stroke="midnightblue" d="M316.837,-21.7997C327.486,-24.181 338.601,-26.6687 349,-29 362.645,-32.0591 377.528,-35.4031 390.948,-38.4212"/>
<polygon fill="midnightblue" stroke="midnightblue" points="317.331,-18.3238 306.808,-19.5578 315.804,-25.1552 317.331,-18.3238"/>
</g>
</g>
</svg>
