<?xml version="1.0" encoding="UTF-8" standalone="no"?>
<!DOCTYPE svg PUBLIC "-//W3C//DTD SVG 1.1//EN"
 "http://www.w3.org/Graphics/SVG/1.1/DTD/svg11.dtd">
<!-- Generated by graphviz version 2.38.0 (20140413.2041)
 -->
<!-- Title: softwarecontainer::Config::Config Pages: 1 -->
<svg width="278pt" height="235pt"
 viewBox="0.00 0.00 278.00 235.00" xmlns="http://www.w3.org/2000/svg" xmlns:xlink="http://www.w3.org/1999/xlink">
<g id="graph0" class="graph" transform="scale(1 1) rotate(0) translate(4 231)">
<title>softwarecontainer::Config::Config</title>
<polygon fill="white" stroke="none" points="-4,4 -4,-231 274,-231 274,4 -4,4"/>
<!-- Node1 -->
<g id="node1" class="node"><title>Node1</title>
<polygon fill="#bfbfbf" stroke="black" points="0,-98.5 0,-128.5 100,-128.5 100,-98.5 0,-98.5"/>
<text text-anchor="start" x="8" y="-116.5" font-family="Helvetica,sans-Serif" font-size="10.00">softwarecontainer::</text>
<text text-anchor="middle" x="50" y="-105.5" font-family="Helvetica,sans-Serif" font-size="10.00">Config::Config</text>
</g>
<!-- Node2 -->
<g id="node2" class="node"><title>Node2</title>
<g id="a_node2"><a xlink:href="classsoftwarecontainer_1_1_mandatory_configs.html#af14aaf1a2c24eef0b29ddc103ff77b4e" target="_top" xlink:title="Get all mandatory configs as group and key. ">
<polygon fill="white" stroke="black" points="136,-196.5 136,-226.5 270,-226.5 270,-196.5 136,-196.5"/>
<text text-anchor="start" x="144" y="-214.5" font-family="Helvetica,sans-Serif" font-size="10.00">softwarecontainer::</text>
<text text-anchor="middle" x="203" y="-203.5" font-family="Helvetica,sans-Serif" font-size="10.00">MandatoryConfigs::configs</text>
</a>
</g>
</g>
<!-- Node1&#45;&gt;Node2 -->
<g id="edge1" class="edge"><title>Node1&#45;&gt;Node2</title>
<path fill="none" stroke="midnightblue" d="M65.0424,-128.69C80.9161,-145.106 108.187,-171.109 136,-187.5 138.836,-189.171 141.808,-190.757 144.856,-192.257"/>
<polygon fill="midnightblue" stroke="midnightblue" points="143.614,-195.537 154.166,-196.497 146.516,-189.167 143.614,-195.537"/>
</g>
<!-- Node3 -->
<g id="node3" class="node"><title>Node3</title>
<g id="a_node3"><a xlink:href="classsoftwarecontainer_1_1_config.html#ab2aafca72117fbf3b673c811f2ff7b78" target="_top" xlink:title="getBooleanValue Get a config value of type boolean ">
<polygon fill="white" stroke="black" points="140.5,-147.5 140.5,-177.5 265.5,-177.5 265.5,-147.5 140.5,-147.5"/>
<text text-anchor="start" x="148.5" y="-165.5" font-family="Helvetica,sans-Serif" font-size="10.00">softwarecontainer::</text>
<text text-anchor="middle" x="203" y="-154.5" font-family="Helvetica,sans-Serif" font-size="10.00">Config::getBooleanValue</text>
</a>
</g>
</g>
<!-- Node1&#45;&gt;Node3 -->
<g id="edge2" class="edge"><title>Node1&#45;&gt;Node3</title>
<path fill="none" stroke="midnightblue" d="M97.5371,-128.601C112.822,-133.562 129.974,-139.127 145.892,-144.293"/>
<polygon fill="midnightblue" stroke="midnightblue" points="145.025,-147.691 155.617,-147.448 147.185,-141.033 145.025,-147.691"/>
</g>
<!-- Node4 -->
<g id="node4" class="node"><title>Node4</title>
<g id="a_node4"><a xlink:href="classsoftwarecontainer_1_1_config.html#adb17ce7ca54895f2abcce97dc9a73354" target="_top" xlink:title="getIntegerValue Get a config value of type integer ">
<polygon fill="white" stroke="black" points="143.5,-98.5 143.5,-128.5 262.5,-128.5 262.5,-98.5 143.5,-98.5"/>
<text text-anchor="start" x="151.5" y="-116.5" font-family="Helvetica,sans-Serif" font-size="10.00">softwarecontainer::</text>
<text text-anchor="middle" x="203" y="-105.5" font-family="Helvetica,sans-Serif" font-size="10.00">Config::getIntegerValue</text>
</a>
</g>
</g>
<!-- Node1&#45;&gt;Node4 -->
<g id="edge3" class="edge"><title>Node1&#45;&gt;Node4</title>
<path fill="none" stroke="midnightblue" d="M100.025,-113.5C110.64,-113.5 122.055,-113.5 133.269,-113.5"/>
<polygon fill="midnightblue" stroke="midnightblue" points="133.482,-117 143.482,-113.5 133.482,-110 133.482,-117"/>
</g>
<!-- Node5 -->
<g id="node5" class="node"><title>Node5</title>
<g id="a_node5"><a xlink:href="classsoftwarecontainer_1_1_config.html#aa7f2e47598dbdc585d4e15257477493c" target="_top" xlink:title="getStringValue Get a config value of type string ">
<polygon fill="white" stroke="black" points="145.5,-49.5 145.5,-79.5 260.5,-79.5 260.5,-49.5 145.5,-49.5"/>
<text text-anchor="start" x="153.5" y="-67.5" font-family="Helvetica,sans-Serif" font-size="10.00">softwarecontainer::</text>
<text text-anchor="middle" x="203" y="-56.5" font-family="Helvetica,sans-Serif" font-size="10.00">Config::getStringValue</text>
</a>
</g>
</g>
<!-- Node1&#45;&gt;Node5 -->
<g id="edge4" class="edge"><title>Node1&#45;&gt;Node5</title>
<path fill="none" stroke="midnightblue" d="M97.5371,-98.3986C112.822,-93.4385 129.974,-87.8726 145.892,-82.7071"/>
<polygon fill="midnightblue" stroke="midnightblue" points="147.185,-85.9673 155.617,-79.5516 145.025,-79.3091 147.185,-85.9673"/>
</g>
<!-- Node6 -->
<g id="node6" class="node"><title>Node6</title>
<g id="a_node6"><a xlink:href="classsoftwarecontainer_1_1_mandatory_configs.html#a6526af35c6306d2d342f3a5091ce92fe" target="_top" xlink:title="Get all mandatory config groups. ">
<polygon fill="white" stroke="black" points="137.5,-0.5 137.5,-30.5 268.5,-30.5 268.5,-0.5 137.5,-0.5"/>
<text text-anchor="start" x="145.5" y="-18.5" font-family="Helvetica,sans-Serif" font-size="10.00">softwarecontainer::</text>
<text text-anchor="middle" x="203" y="-7.5" font-family="Helvetica,sans-Serif" font-size="10.00">MandatoryConfigs::groups</text>
</a>
</g>
</g>
<!-- Node1&#45;&gt;Node6 -->
<g id="edge5" class="edge"><title>Node1&#45;&gt;Node6</title>
<path fill="none" stroke="midnightblue" d="M65.4152,-98.3032C81.4005,-82.1661 108.57,-56.7878 136,-40.5 139.399,-38.4815 142.99,-36.5747 146.67,-34.7835"/>
<polygon fill="midnightblue" stroke="midnightblue" points="148.287,-37.8936 155.944,-30.5713 145.392,-31.5202 148.287,-37.8936"/>
</g>
</g>
</svg>
