<?xml version="1.0" encoding="UTF-8" standalone="no"?>
<!DOCTYPE svg PUBLIC "-//W3C//DTD SVG 1.1//EN"
 "http://www.w3.org/Graphics/SVG/1.1/DTD/svg11.dtd">
<!-- Generated by graphviz version 2.38.0 (20140413.2041)
 -->
<!-- Title: softwarecontainer::Container::initialize Pages: 1 -->
<svg width="415pt" height="200pt"
 viewBox="0.00 0.00 415.00 199.50" xmlns="http://www.w3.org/2000/svg" xmlns:xlink="http://www.w3.org/1999/xlink">
<g id="graph0" class="graph" transform="scale(1 1) rotate(0) translate(4 195.5)">
<title>softwarecontainer::Container::initialize</title>
<polygon fill="white" stroke="none" points="-4,4 -4,-195.5 411,-195.5 411,4 -4,4"/>
<!-- Node1 -->
<g id="node1" class="node"><title>Node1</title>
<polygon fill="#bfbfbf" stroke="black" points="0,-55 0,-85 100,-85 100,-55 0,-55"/>
<text text-anchor="start" x="8" y="-73" font-family="Helvetica,sans-Serif" font-size="10.00">softwarecontainer::</text>
<text text-anchor="middle" x="50" y="-62" font-family="Helvetica,sans-Serif" font-size="10.00">Container::initialize</text>
</g>
<!-- Node2 -->
<g id="node2" class="node"><title>Node2</title>
<g id="a_node2"><a xlink:href="classsoftwarecontainer_1_1_file_toolkit_with_undo.html#aff5073fb683649d6753baae354d202b9" target="_top" xlink:title="createDirectory Create a directory, and if successful append it to a list of dirs to be deleted in th...">
<polygon fill="white" stroke="black" points="148.5,-100.5 148.5,-141.5 253.5,-141.5 253.5,-100.5 148.5,-100.5"/>
<text text-anchor="start" x="156.5" y="-129.5" font-family="Helvetica,sans-Serif" font-size="10.00">softwarecontainer::</text>
<text text-anchor="start" x="156.5" y="-118.5" font-family="Helvetica,sans-Serif" font-size="10.00">FileToolkitWithUndo</text>
<text text-anchor="middle" x="201" y="-107.5" font-family="Helvetica,sans-Serif" font-size="10.00">::createDirectory</text>
</a>
</g>
</g>
<!-- Node1&#45;&gt;Node2 -->
<g id="edge1" class="edge"><title>Node1&#45;&gt;Node2</title>
<path fill="none" stroke="midnightblue" d="M94.899,-85.0258C108.63,-89.7259 124.041,-95.0005 138.74,-100.032"/>
<polygon fill="midnightblue" stroke="midnightblue" points="137.678,-103.368 148.273,-103.295 139.945,-96.7448 137.678,-103.368"/>
</g>
<!-- Node4 -->
<g id="node4" class="node"><title>Node4</title>
<g id="a_node4"><a xlink:href="namespacesoftwarecontainer.html#a51a25e6a54b7bb79fc5b4ce8902a31a4" target="_top" xlink:title="isError Check if ReturnCode indicates Error or not ">
<polygon fill="white" stroke="black" points="304.5,-53 304.5,-83 404.5,-83 404.5,-53 304.5,-53"/>
<text text-anchor="start" x="312.5" y="-71" font-family="Helvetica,sans-Serif" font-size="10.00">softwarecontainer::</text>
<text text-anchor="middle" x="354.5" y="-60" font-family="Helvetica,sans-Serif" font-size="10.00">isError</text>
</a>
</g>
</g>
<!-- Node1&#45;&gt;Node4 -->
<g id="edge6" class="edge"><title>Node1&#45;&gt;Node4</title>
<path fill="none" stroke="midnightblue" d="M100.275,-69.6742C153.231,-69.3241 237.404,-68.7676 294.011,-68.3933"/>
<polygon fill="midnightblue" stroke="midnightblue" points="294.269,-71.8918 304.246,-68.3256 294.223,-64.8919 294.269,-71.8918"/>
</g>
<!-- Node6 -->
<g id="node6" class="node"><title>Node6</title>
<g id="a_node6"><a xlink:href="classsoftwarecontainer_1_1_file_toolkit_with_undo.html#ab74e5ec0784b2aa597d54f28f44f7112" target="_top" xlink:title="createSharedMountPoint Make the mount point shared, ie new mount points created in one bind mount wil...">
<polygon fill="white" stroke="black" points="136,-0.5 136,-41.5 266,-41.5 266,-0.5 136,-0.5"/>
<text text-anchor="start" x="144" y="-29.5" font-family="Helvetica,sans-Serif" font-size="10.00">softwarecontainer::</text>
<text text-anchor="start" x="144" y="-18.5" font-family="Helvetica,sans-Serif" font-size="10.00">FileToolkitWithUndo</text>
<text text-anchor="middle" x="201" y="-7.5" font-family="Helvetica,sans-Serif" font-size="10.00">::createSharedMountPoint</text>
</a>
</g>
</g>
<!-- Node1&#45;&gt;Node6 -->
<g id="edge5" class="edge"><title>Node1&#45;&gt;Node6</title>
<path fill="none" stroke="midnightblue" d="M96.9207,-54.8986C106.741,-51.6692 117.342,-48.183 127.879,-44.7177"/>
<polygon fill="midnightblue" stroke="midnightblue" points="129.108,-47.998 137.514,-41.5491 126.921,-41.3484 129.108,-47.998"/>
</g>
<!-- Node3 -->
<g id="node3" class="node"><title>Node3</title>
<g id="a_node3"><a xlink:href="namespacesoftwarecontainer.html#a44f64c34c09d1ffdb18428b41f0d9e91" target="_top" xlink:title="isDirectory Check if path is a directory ">
<polygon fill="white" stroke="black" points="304.5,-161 304.5,-191 404.5,-191 404.5,-161 304.5,-161"/>
<text text-anchor="start" x="312.5" y="-179" font-family="Helvetica,sans-Serif" font-size="10.00">softwarecontainer::</text>
<text text-anchor="middle" x="354.5" y="-168" font-family="Helvetica,sans-Serif" font-size="10.00">isDirectory</text>
</a>
</g>
</g>
<!-- Node2&#45;&gt;Node3 -->
<g id="edge2" class="edge"><title>Node2&#45;&gt;Node3</title>
<path fill="none" stroke="midnightblue" d="M253.714,-139.774C269.473,-145.495 286.78,-151.778 302.492,-157.482"/>
<polygon fill="midnightblue" stroke="midnightblue" points="301.447,-160.826 312.041,-160.949 303.836,-154.246 301.447,-160.826"/>
</g>
<!-- Node2&#45;&gt;Node4 -->
<g id="edge3" class="edge"><title>Node2&#45;&gt;Node4</title>
<path fill="none" stroke="midnightblue" d="M253.714,-102.909C268.902,-97.5952 285.529,-91.7786 300.78,-86.4435"/>
<polygon fill="midnightblue" stroke="midnightblue" points="302.29,-89.623 310.574,-83.0172 299.979,-83.0157 302.29,-89.623"/>
</g>
<!-- Node5 -->
<g id="node5" class="node"><title>Node5</title>
<g id="a_node5"><a xlink:href="classsoftwarecontainer_1_1_file_toolkit_with_undo.html#a44a19890b72a635b3134cb2a07fc0875" target="_top" xlink:title="checks whether given path is already added to clean up handlers or not ">
<polygon fill="white" stroke="black" points="302,-101.5 302,-142.5 407,-142.5 407,-101.5 302,-101.5"/>
<text text-anchor="start" x="310" y="-130.5" font-family="Helvetica,sans-Serif" font-size="10.00">softwarecontainer::</text>
<text text-anchor="start" x="310" y="-119.5" font-family="Helvetica,sans-Serif" font-size="10.00">FileToolkitWithUndo</text>
<text text-anchor="middle" x="354.5" y="-108.5" font-family="Helvetica,sans-Serif" font-size="10.00">::pathInList</text>
</a>
</g>
</g>
<!-- Node2&#45;&gt;Node5 -->
<g id="edge4" class="edge"><title>Node2&#45;&gt;Node5</title>
<path fill="none" stroke="midnightblue" d="M253.714,-121.341C265.835,-121.421 278.873,-121.507 291.395,-121.59"/>
<polygon fill="midnightblue" stroke="midnightblue" points="291.739,-125.092 301.762,-121.658 291.785,-118.092 291.739,-125.092"/>
</g>
</g>
</svg>
