<?xml version="1.0" encoding="UTF-8" standalone="no"?>
<!DOCTYPE svg PUBLIC "-//W3C//DTD SVG 1.1//EN"
 "http://www.w3.org/Graphics/SVG/1.1/DTD/svg11.dtd">
<!-- Generated by graphviz version 2.38.0 (20140413.2041)
 -->
<!-- Title: softwarecontainer::DBusGatewayInstance::DBusGatewayInstance Pages: 1 -->
<svg width="268pt" height="50pt"
 viewBox="0.00 0.00 268.00 50.00" xmlns="http://www.w3.org/2000/svg" xmlns:xlink="http://www.w3.org/1999/xlink">
<g id="graph0" class="graph" transform="scale(1 1) rotate(0) translate(4 46)">
<title>softwarecontainer::DBusGatewayInstance::DBusGatewayInstance</title>
<polygon fill="white" stroke="none" points="-4,4 -4,-46 264,-46 264,4 -4,4"/>
<!-- Node1 -->
<g id="node1" class="node"><title>Node1</title>
<polygon fill="#bfbfbf" stroke="black" points="0,-0.5 0,-41.5 124,-41.5 124,-0.5 0,-0.5"/>
<text text-anchor="start" x="8" y="-29.5" font-family="Helvetica,sans-Serif" font-size="10.00">softwarecontainer::</text>
<text text-anchor="start" x="8" y="-18.5" font-family="Helvetica,sans-Serif" font-size="10.00">DBusGatewayInstance</text>
<text text-anchor="middle" x="62" y="-7.5" font-family="Helvetica,sans-Serif" font-size="10.00">::DBusGatewayInstance</text>
</g>
<!-- Node2 -->
<g id="node2" class="node"><title>Node2</title>
<g id="a_node2"><a xlink:href="classsoftwarecontainer_1_1_gateway.html#af421b6ffb3db76240a491b2302e78699" target="_top" xlink:title="softwarecontainer::\lGateway::id">
<polygon fill="white" stroke="black" points="160,-6 160,-36 260,-36 260,-6 160,-6"/>
<text text-anchor="start" x="168" y="-24" font-family="Helvetica,sans-Serif" font-size="10.00">softwarecontainer::</text>
<text text-anchor="middle" x="210" y="-13" font-family="Helvetica,sans-Serif" font-size="10.00">Gateway::id</text>
</a>
</g>
</g>
<!-- Node1&#45;&gt;Node2 -->
<g id="edge1" class="edge"><title>Node1&#45;&gt;Node2</title>
<path fill="none" stroke="midnightblue" d="M124.071,-21C132.515,-21 141.178,-21 149.591,-21"/>
<polygon fill="midnightblue" stroke="midnightblue" points="149.698,-24.5001 159.698,-21 149.698,-17.5001 149.698,-24.5001"/>
</g>
</g>
</svg>
