<?xml version="1.0" encoding="UTF-8" standalone="no"?>
<!DOCTYPE svg PUBLIC "-//W3C//DTD SVG 1.1//EN"
 "http://www.w3.org/Graphics/SVG/1.1/DTD/svg11.dtd">
<!-- Generated by graphviz version 2.38.0 (20140413.2041)
 -->
<!-- Title: softwarecontainer::Workspace::Workspace Pages: 1 -->
<svg width="609pt" height="50pt"
 viewBox="0.00 0.00 609.00 50.00" xmlns="http://www.w3.org/2000/svg" xmlns:xlink="http://www.w3.org/1999/xlink">
<g id="graph0" class="graph" transform="scale(1 1) rotate(0) translate(4 46)">
<title>softwarecontainer::Workspace::Workspace</title>
<polygon fill="white" stroke="none" points="-4,4 -4,-46 605,-46 605,4 -4,4"/>
<!-- Node1 -->
<g id="node1" class="node"><title>Node1</title>
<polygon fill="#bfbfbf" stroke="black" points="0,-6 0,-36 122,-36 122,-6 0,-6"/>
<text text-anchor="start" x="8" y="-24" font-family="Helvetica,sans-Serif" font-size="10.00">softwarecontainer::</text>
<text text-anchor="middle" x="61" y="-13" font-family="Helvetica,sans-Serif" font-size="10.00">Workspace::Workspace</text>
</g>
<!-- Node2 -->
<g id="node2" class="node"><title>Node2</title>
<g id="a_node2"><a xlink:href="classsoftwarecontainer_1_1_workspace.html#a3478c4690122b5057dd98df517e629ba" target="_top" xlink:title="Check if the workspace is present and create it if needed. ">
<polygon fill="white" stroke="black" points="158,-6 158,-36 306,-36 306,-6 158,-6"/>
<text text-anchor="start" x="166" y="-24" font-family="Helvetica,sans-Serif" font-size="10.00">softwarecontainer::</text>
<text text-anchor="middle" x="232" y="-13" font-family="Helvetica,sans-Serif" font-size="10.00">Workspace::checkWorkspace</text>
</a>
</g>
</g>
<!-- Node1&#45;&gt;Node2 -->
<g id="edge1" class="edge"><title>Node1&#45;&gt;Node2</title>
<path fill="none" stroke="midnightblue" d="M122.059,-21C130.378,-21 139.043,-21 147.692,-21"/>
<polygon fill="midnightblue" stroke="midnightblue" points="147.815,-24.5001 157.815,-21 147.815,-17.5001 147.815,-24.5001"/>
</g>
<!-- Node3 -->
<g id="node3" class="node"><title>Node3</title>
<g id="a_node3"><a xlink:href="classsoftwarecontainer_1_1_file_toolkit_with_undo.html#aff5073fb683649d6753baae354d202b9" target="_top" xlink:title="createDirectory Create a directory, and if successful append it to a list of dirs to be deleted in th...">
<polygon fill="white" stroke="black" points="342,-0.5 342,-41.5 447,-41.5 447,-0.5 342,-0.5"/>
<text text-anchor="start" x="350" y="-29.5" font-family="Helvetica,sans-Serif" font-size="10.00">softwarecontainer::</text>
<text text-anchor="start" x="350" y="-18.5" font-family="Helvetica,sans-Serif" font-size="10.00">FileToolkitWithUndo</text>
<text text-anchor="middle" x="394.5" y="-7.5" font-family="Helvetica,sans-Serif" font-size="10.00">::createDirectory</text>
</a>
</g>
</g>
<!-- Node2&#45;&gt;Node3 -->
<g id="edge2" class="edge"><title>Node2&#45;&gt;Node3</title>
<path fill="none" stroke="midnightblue" d="M306.205,-21C314.786,-21 323.476,-21 331.878,-21"/>
<polygon fill="midnightblue" stroke="midnightblue" points="331.956,-24.5001 341.956,-21 331.956,-17.5001 331.956,-24.5001"/>
</g>
<!-- Node4 -->
<g id="node4" class="node"><title>Node4</title>
<g id="a_node4"><a xlink:href="classsoftwarecontainer_1_1_file_toolkit_with_undo.html#a2e2789ba9649ed6abf7a1c3ab3025daa" target="_top" xlink:title="createParentDirectory Recursively tries to create the directory pointed to by path. ">
<polygon fill="white" stroke="black" points="483,-0.5 483,-41.5 601,-41.5 601,-0.5 483,-0.5"/>
<text text-anchor="start" x="491" y="-29.5" font-family="Helvetica,sans-Serif" font-size="10.00">softwarecontainer::</text>
<text text-anchor="start" x="491" y="-18.5" font-family="Helvetica,sans-Serif" font-size="10.00">FileToolkitWithUndo</text>
<text text-anchor="middle" x="542" y="-7.5" font-family="Helvetica,sans-Serif" font-size="10.00">::createParentDirectory</text>
</a>
</g>
</g>
<!-- Node3&#45;&gt;Node4 -->
<g id="edge3" class="edge"><title>Node3&#45;&gt;Node4</title>
<path fill="none" stroke="midnightblue" d="M447.208,-14.5075C455.485,-14.2995 464.161,-14.2176 472.753,-14.2615"/>
<polygon fill="midnightblue" stroke="midnightblue" points="472.733,-17.7614 482.771,-14.371 472.81,-10.7618 472.733,-17.7614"/>
</g>
<!-- Node4&#45;&gt;Node3 -->
<g id="edge4" class="edge"><title>Node4&#45;&gt;Node3</title>
<path fill="none" stroke="midnightblue" d="M482.771,-27.629C474.411,-27.77 465.784,-27.7878 457.357,-27.6823"/>
<polygon fill="midnightblue" stroke="midnightblue" points="457.271,-24.1802 447.208,-27.4925 457.14,-31.1789 457.271,-24.1802"/>
</g>
</g>
</svg>
