<?xml version="1.0" encoding="UTF-8" standalone="no"?>
<!DOCTYPE svg PUBLIC "-//W3C//DTD SVG 1.1//EN"
 "http://www.w3.org/Graphics/SVG/1.1/DTD/svg11.dtd">
<!-- Generated by graphviz version 2.38.0 (20140413.2041)
 -->
<!-- Title: softwarecontainer::FileToolkitWithUndo::pathInList Pages: 1 -->
<svg width="586pt" height="267pt"
 viewBox="0.00 0.00 586.00 266.50" xmlns="http://www.w3.org/2000/svg" xmlns:xlink="http://www.w3.org/1999/xlink">
<g id="graph0" class="graph" transform="scale(1 1) rotate(0) translate(4 262.5)">
<title>softwarecontainer::FileToolkitWithUndo::pathInList</title>
<polygon fill="white" stroke="none" points="-4,4 -4,-262.5 582,-262.5 582,4 -4,4"/>
<!-- Node1 -->
<g id="node1" class="node"><title>Node1</title>
<polygon fill="#bfbfbf" stroke="black" points="0,-88.5 0,-129.5 105,-129.5 105,-88.5 0,-88.5"/>
<text text-anchor="start" x="8" y="-117.5" font-family="Helvetica,sans-Serif" font-size="10.00">softwarecontainer::</text>
<text text-anchor="start" x="8" y="-106.5" font-family="Helvetica,sans-Serif" font-size="10.00">FileToolkitWithUndo</text>
<text text-anchor="middle" x="52.5" y="-95.5" font-family="Helvetica,sans-Serif" font-size="10.00">::pathInList</text>
</g>
<!-- Node2 -->
<g id="node2" class="node"><title>Node2</title>
<g id="a_node2"><a xlink:href="classsoftwarecontainer_1_1_container.html#ae5445d6a0c4b8b006ed38b3c01bb870c" target="_top" xlink:title="Tries to bind mount a path from host to container. ">
<polygon fill="white" stroke="black" points="282,-228 282,-258 442,-258 442,-228 282,-228"/>
<text text-anchor="start" x="290" y="-246" font-family="Helvetica,sans-Serif" font-size="10.00">softwarecontainer::</text>
<text text-anchor="middle" x="362" y="-235" font-family="Helvetica,sans-Serif" font-size="10.00">Container::bindMountInContainer</text>
</a>
</g>
</g>
<!-- Node1&#45;&gt;Node2 -->
<g id="edge1" class="edge"><title>Node1&#45;&gt;Node2</title>
<path fill="none" stroke="midnightblue" d="M91.1291,-135.464C106.226,-145.442 124.042,-156.439 141,-165 200.904,-195.243 218.523,-197.233 282,-219 290.813,-222.022 300.244,-225.057 309.411,-227.903"/>
<polygon fill="midnightblue" stroke="midnightblue" points="92.8364,-132.395 82.5814,-129.733 88.9381,-138.209 92.8364,-132.395"/>
</g>
<!-- Node3 -->
<g id="node3" class="node"><title>Node3</title>
<g id="a_node3"><a xlink:href="classsoftwarecontainer_1_1_file_toolkit_with_undo.html#a35eb42bdace2695fb3e96cb84a535213" target="_top" xlink:title="createDirectory Create a directory, and if successful append it to a list of dirs to be deleted in th...">
<polygon fill="white" stroke="black" points="141,-114.5 141,-155.5 246,-155.5 246,-114.5 141,-114.5"/>
<text text-anchor="start" x="149" y="-143.5" font-family="Helvetica,sans-Serif" font-size="10.00">softwarecontainer::</text>
<text text-anchor="start" x="149" y="-132.5" font-family="Helvetica,sans-Serif" font-size="10.00">FileToolkitWithUndo</text>
<text text-anchor="middle" x="193.5" y="-121.5" font-family="Helvetica,sans-Serif" font-size="10.00">::createDirectory</text>
</a>
</g>
</g>
<!-- Node1&#45;&gt;Node3 -->
<g id="edge2" class="edge"><title>Node1&#45;&gt;Node3</title>
<path fill="none" stroke="midnightblue" d="M115.163,-120.534C123.69,-122.129 132.375,-123.754 140.698,-125.31"/>
<polygon fill="midnightblue" stroke="midnightblue" points="115.732,-117.08 105.258,-118.681 114.444,-123.96 115.732,-117.08"/>
</g>
<!-- Node6 -->
<g id="node6" class="node"><title>Node6</title>
<g id="a_node6"><a xlink:href="classsoftwarecontainer_1_1_file_toolkit_with_undo.html#a14711e649249d7f0b7e264c7d426ea23" target="_top" xlink:title="overlayMount Mount a directory with an overlay on top of it. ">
<polygon fill="white" stroke="black" points="309.5,-60.5 309.5,-101.5 414.5,-101.5 414.5,-60.5 309.5,-60.5"/>
<text text-anchor="start" x="317.5" y="-89.5" font-family="Helvetica,sans-Serif" font-size="10.00">softwarecontainer::</text>
<text text-anchor="start" x="317.5" y="-78.5" font-family="Helvetica,sans-Serif" font-size="10.00">FileToolkitWithUndo</text>
<text text-anchor="middle" x="362" y="-67.5" font-family="Helvetica,sans-Serif" font-size="10.00">::overlayMount</text>
</a>
</g>
</g>
<!-- Node1&#45;&gt;Node6 -->
<g id="edge8" class="edge"><title>Node1&#45;&gt;Node6</title>
<path fill="none" stroke="midnightblue" d="M115.285,-103.374C172.3,-98.1824 255.991,-90.5618 309.485,-85.6908"/>
<polygon fill="midnightblue" stroke="midnightblue" points="114.957,-99.8894 105.315,-104.282 115.592,-106.861 114.957,-99.8894"/>
</g>
<!-- Node8 -->
<g id="node8" class="node"><title>Node8</title>
<g id="a_node8"><a xlink:href="classsoftwarecontainer_1_1_file_toolkit_with_undo.html#a649391903bf1a0eec92c829713117a74" target="_top" xlink:title="tempDir Creates a temporary directory at templatePath. ">
<polygon fill="white" stroke="black" points="141,-8.5 141,-49.5 246,-49.5 246,-8.5 141,-8.5"/>
<text text-anchor="start" x="149" y="-37.5" font-family="Helvetica,sans-Serif" font-size="10.00">softwarecontainer::</text>
<text text-anchor="start" x="149" y="-26.5" font-family="Helvetica,sans-Serif" font-size="10.00">FileToolkitWithUndo</text>
<text text-anchor="middle" x="193.5" y="-15.5" font-family="Helvetica,sans-Serif" font-size="10.00">::tempDir</text>
</a>
</g>
</g>
<!-- Node1&#45;&gt;Node8 -->
<g id="edge9" class="edge"><title>Node1&#45;&gt;Node8</title>
<path fill="none" stroke="midnightblue" d="M98.0776,-83.3438C117.071,-72.4123 138.927,-59.8332 156.825,-49.5322"/>
<polygon fill="midnightblue" stroke="midnightblue" points="96.2171,-80.3763 89.296,-88.398 99.7089,-86.4432 96.2171,-80.3763"/>
</g>
<!-- Node3&#45;&gt;Node2 -->
<g id="edge4" class="edge"><title>Node3&#45;&gt;Node2</title>
<path fill="none" stroke="midnightblue" d="M218.124,-163.814C234.384,-181.962 257.42,-204.599 282,-219 287.813,-222.406 294.154,-225.37 300.634,-227.94"/>
<polygon fill="midnightblue" stroke="midnightblue" points="220.366,-161.061 211.149,-155.837 215.097,-165.669 220.366,-161.061"/>
</g>
<!-- Node4 -->
<g id="node4" class="node"><title>Node4</title>
<g id="a_node4"><a xlink:href="classsoftwarecontainer_1_1_device_node_gateway.html#a9e912027cad4fff3ed4d9a9581f45227" target="_top" xlink:title="Implements Gateway::activateGateway. ">
<polygon fill="white" stroke="black" points="287,-168.5 287,-209.5 437,-209.5 437,-168.5 287,-168.5"/>
<text text-anchor="start" x="295" y="-197.5" font-family="Helvetica,sans-Serif" font-size="10.00">softwarecontainer::</text>
<text text-anchor="start" x="295" y="-186.5" font-family="Helvetica,sans-Serif" font-size="10.00">DeviceNodeGateway::activate</text>
<text text-anchor="middle" x="362" y="-175.5" font-family="Helvetica,sans-Serif" font-size="10.00">Gateway</text>
</a>
</g>
</g>
<!-- Node3&#45;&gt;Node4 -->
<g id="edge3" class="edge"><title>Node3&#45;&gt;Node4</title>
<path fill="none" stroke="midnightblue" d="M255.969,-154.936C269.524,-159.332 283.906,-163.997 297.538,-168.418"/>
<polygon fill="midnightblue" stroke="midnightblue" points="256.861,-151.546 246.269,-151.79 254.701,-158.204 256.861,-151.546"/>
</g>
<!-- Node5 -->
<g id="node5" class="node"><title>Node5</title>
<g id="a_node5"><a xlink:href="classsoftwarecontainer_1_1_container.html#a25102e42007fb34a93d982b231ae6c78" target="_top" xlink:title="Setup the container for startup. ">
<polygon fill="white" stroke="black" points="312,-120 312,-150 412,-150 412,-120 312,-120"/>
<text text-anchor="start" x="320" y="-138" font-family="Helvetica,sans-Serif" font-size="10.00">softwarecontainer::</text>
<text text-anchor="middle" x="362" y="-127" font-family="Helvetica,sans-Serif" font-size="10.00">Container::initialize</text>
</a>
</g>
</g>
<!-- Node3&#45;&gt;Node5 -->
<g id="edge5" class="edge"><title>Node3&#45;&gt;Node5</title>
<path fill="none" stroke="midnightblue" d="M256.271,-135C274.597,-135 294.412,-135 311.824,-135"/>
<polygon fill="midnightblue" stroke="midnightblue" points="256.269,-131.5 246.269,-135 256.269,-138.5 256.269,-131.5"/>
</g>
<!-- Node3&#45;&gt;Node6 -->
<g id="edge6" class="edge"><title>Node3&#45;&gt;Node6</title>
<path fill="none" stroke="midnightblue" d="M255.853,-115.102C273.403,-109.41 292.351,-103.265 309.263,-97.7795"/>
<polygon fill="midnightblue" stroke="midnightblue" points="254.701,-111.796 246.269,-118.21 256.861,-118.454 254.701,-111.796"/>
</g>
<!-- Node7 -->
<g id="node7" class="node"><title>Node7</title>
<g id="a_node7"><a xlink:href="classsoftwarecontainer_1_1_container.html#a67f48ee29e9294f4f42436e1297d34c7" target="_top" xlink:title="create Creates a new lxc_container and creates it with all the initialization. ">
<polygon fill="white" stroke="black" points="478,-66 478,-96 578,-96 578,-66 478,-66"/>
<text text-anchor="start" x="486" y="-84" font-family="Helvetica,sans-Serif" font-size="10.00">softwarecontainer::</text>
<text text-anchor="middle" x="528" y="-73" font-family="Helvetica,sans-Serif" font-size="10.00">Container::create</text>
</a>
</g>
</g>
<!-- Node6&#45;&gt;Node7 -->
<g id="edge7" class="edge"><title>Node6&#45;&gt;Node7</title>
<path fill="none" stroke="midnightblue" d="M425.023,-81C442.53,-81 461.331,-81 477.961,-81"/>
<polygon fill="midnightblue" stroke="midnightblue" points="424.891,-77.5001 414.891,-81 424.891,-84.5001 424.891,-77.5001"/>
</g>
<!-- Node9 -->
<g id="node9" class="node"><title>Node9</title>
<g id="a_node9"><a xlink:href="classsoftwarecontainer_1_1_file_toolkit_with_undo.html#a8f6b5cda214c9e412ab73313bc95d785" target="_top" xlink:title="bindMount Bind mount a src directory to another position dst. ">
<polygon fill="white" stroke="black" points="309.5,-0.5 309.5,-41.5 414.5,-41.5 414.5,-0.5 309.5,-0.5"/>
<text text-anchor="start" x="317.5" y="-29.5" font-family="Helvetica,sans-Serif" font-size="10.00">softwarecontainer::</text>
<text text-anchor="start" x="317.5" y="-18.5" font-family="Helvetica,sans-Serif" font-size="10.00">FileToolkitWithUndo</text>
<text text-anchor="middle" x="362" y="-7.5" font-family="Helvetica,sans-Serif" font-size="10.00">::bindMount</text>
</a>
</g>
</g>
<!-- Node8&#45;&gt;Node9 -->
<g id="edge10" class="edge"><title>Node8&#45;&gt;Node9</title>
<path fill="none" stroke="midnightblue" d="M256.341,-26.0286C273.754,-25.192 292.508,-24.2909 309.263,-23.4859"/>
<polygon fill="midnightblue" stroke="midnightblue" points="256.089,-22.5366 246.269,-26.5126 256.425,-29.5285 256.089,-22.5366"/>
</g>
</g>
</svg>
