<?xml version="1.0" encoding="UTF-8" standalone="no"?>
<!DOCTYPE svg PUBLIC "-//W3C//DTD SVG 1.1//EN"
 "http://www.w3.org/Graphics/SVG/1.1/DTD/svg11.dtd">
<!-- Generated by graphviz version 2.38.0 (20140413.2041)
 -->
<!-- Title: softwarecontainer::Config::getStringValue Pages: 1 -->
<svg width="288pt" height="99pt"
 viewBox="0.00 0.00 288.00 98.50" xmlns="http://www.w3.org/2000/svg" xmlns:xlink="http://www.w3.org/1999/xlink">
<g id="graph0" class="graph" transform="scale(1 1) rotate(0) translate(4 94.5)">
<title>softwarecontainer::Config::getStringValue</title>
<polygon fill="white" stroke="none" points="-4,4 -4,-94.5 284,-94.5 284,4 -4,4"/>
<!-- Node1 -->
<g id="node1" class="node"><title>Node1</title>
<polygon fill="#bfbfbf" stroke="black" points="0,-33 0,-63 115,-63 115,-33 0,-33"/>
<text text-anchor="start" x="8" y="-51" font-family="Helvetica,sans-Serif" font-size="10.00">softwarecontainer::</text>
<text text-anchor="middle" x="57.5" y="-40" font-family="Helvetica,sans-Serif" font-size="10.00">Config::getStringValue</text>
</g>
<!-- Node2 -->
<g id="node2" class="node"><title>Node2</title>
<g id="a_node2"><a xlink:href="classsoftwarecontainer_1_1_config.html#ab29be3ef62031785b579172cd4c16f23" target="_top" xlink:title="TODO: Find a way to reuse parts of above comment. ">
<polygon fill="white" stroke="black" points="165.5,-60 165.5,-90 265.5,-90 265.5,-60 165.5,-60"/>
<text text-anchor="start" x="173.5" y="-78" font-family="Helvetica,sans-Serif" font-size="10.00">softwarecontainer::</text>
<text text-anchor="middle" x="215.5" y="-67" font-family="Helvetica,sans-Serif" font-size="10.00">Config::Config</text>
</a>
</g>
</g>
<!-- Node1&#45;&gt;Node2 -->
<g id="edge1" class="edge"><title>Node1&#45;&gt;Node2</title>
<path fill="none" stroke="midnightblue" d="M125.382,-59.5757C138.766,-61.8921 152.595,-64.2858 165.251,-66.4761"/>
<polygon fill="midnightblue" stroke="midnightblue" points="125.711,-56.0808 115.261,-57.824 124.517,-62.9782 125.711,-56.0808"/>
</g>
<!-- Node3 -->
<g id="node3" class="node"><title>Node3</title>
<g id="a_node3"><a xlink:href="classsoftwarecontainer_1_1_software_container_agent.html#accd6bd43a175d6b59be24c1172b5de5f" target="_top" xlink:title="creates a new agent object and runs some initialization ">
<polygon fill="white" stroke="black" points="151,-0.5 151,-41.5 280,-41.5 280,-0.5 151,-0.5"/>
<text text-anchor="start" x="159" y="-29.5" font-family="Helvetica,sans-Serif" font-size="10.00">softwarecontainer::</text>
<text text-anchor="start" x="159" y="-18.5" font-family="Helvetica,sans-Serif" font-size="10.00">SoftwareContainerAgent</text>
<text text-anchor="middle" x="215.5" y="-7.5" font-family="Helvetica,sans-Serif" font-size="10.00">::SoftwareContainerAgent</text>
</a>
</g>
</g>
<!-- Node1&#45;&gt;Node3 -->
<g id="edge2" class="edge"><title>Node1&#45;&gt;Node3</title>
<path fill="none" stroke="midnightblue" d="M125.173,-36.4605C133.71,-34.9829 142.432,-33.4734 150.918,-32.0046"/>
<polygon fill="midnightblue" stroke="midnightblue" points="124.517,-33.0218 115.261,-38.176 125.711,-39.9192 124.517,-33.0218"/>
</g>
</g>
</svg>
