<?xml version="1.0" encoding="UTF-8" standalone="no"?>
<!DOCTYPE svg PUBLIC "-//W3C//DTD SVG 1.1//EN"
 "http://www.w3.org/Graphics/SVG/1.1/DTD/svg11.dtd">
<!-- Generated by graphviz version 2.38.0 (20140413.2041)
 -->
<!-- Title: softwarecontainer::ConfigUnknownError Pages: 1 -->
<svg width="115pt" height="162pt"
 viewBox="0.00 0.00 115.00 162.00" xmlns="http://www.w3.org/2000/svg" xmlns:xlink="http://www.w3.org/1999/xlink">
<g id="graph0" class="graph" transform="scale(1 1) rotate(0) translate(4 158)">
<title>softwarecontainer::ConfigUnknownError</title>
<polygon fill="white" stroke="none" points="-4,4 -4,-158 111,-158 111,4 -4,4"/>
<!-- Node1 -->
<g id="node1" class="node"><title>Node1</title>
<polygon fill="#bfbfbf" stroke="black" points="-7.10543e-15,-0.5 -7.10543e-15,-30.5 107,-30.5 107,-0.5 -7.10543e-15,-0.5"/>
<text text-anchor="start" x="8" y="-18.5" font-family="Helvetica,sans-Serif" font-size="10.00">softwarecontainer::</text>
<text text-anchor="middle" x="53.5" y="-7.5" font-family="Helvetica,sans-Serif" font-size="10.00">ConfigUnknownError</text>
</g>
<!-- Node2 -->
<g id="node2" class="node"><title>Node2</title>
<g id="a_node2"><a xlink:href="classsoftwarecontainer_1_1_config_error.html" target="_top" xlink:title="softwarecontainer::\lConfigError">
<polygon fill="white" stroke="black" points="3.5,-67.5 3.5,-97.5 103.5,-97.5 103.5,-67.5 3.5,-67.5"/>
<text text-anchor="start" x="11.5" y="-85.5" font-family="Helvetica,sans-Serif" font-size="10.00">softwarecontainer::</text>
<text text-anchor="middle" x="53.5" y="-74.5" font-family="Helvetica,sans-Serif" font-size="10.00">ConfigError</text>
</a>
</g>
</g>
<!-- Node2&#45;&gt;Node1 -->
<g id="edge1" class="edge"><title>Node2&#45;&gt;Node1</title>
<path fill="none" stroke="midnightblue" d="M53.5,-57.1081C53.5,-48.1539 53.5,-38.3227 53.5,-30.5765"/>
<polygon fill="midnightblue" stroke="midnightblue" points="50.0001,-57.3959 53.5,-67.396 57.0001,-57.396 50.0001,-57.3959"/>
</g>
<!-- Node3 -->
<g id="node3" class="node"><title>Node3</title>
<polygon fill="white" stroke="#bfbfbf" points="24,-134.5 24,-153.5 83,-153.5 83,-134.5 24,-134.5"/>
<text text-anchor="middle" x="53.5" y="-141.5" font-family="Helvetica,sans-Serif" font-size="10.00">exception</text>
</g>
<!-- Node3&#45;&gt;Node2 -->
<g id="edge2" class="edge"><title>Node3&#45;&gt;Node2</title>
<path fill="none" stroke="midnightblue" d="M53.5,-124.235C53.5,-115.586 53.5,-105.497 53.5,-97.523"/>
<polygon fill="midnightblue" stroke="midnightblue" points="50.0001,-124.475 53.5,-134.475 57.0001,-124.475 50.0001,-124.475"/>
</g>
</g>
</svg>
