<?xml version="1.0" encoding="UTF-8" standalone="no"?>
<!DOCTYPE svg PUBLIC "-//W3C//DTD SVG 1.1//EN"
 "http://www.w3.org/Graphics/SVG/1.1/DTD/svg11.dtd">
<!-- Generated by graphviz version 2.38.0 (20140413.2041)
 -->
<!-- Title: softwarecontainer::SoftwareContainerError Pages: 1 -->
<svg width="591pt" height="725pt"
 viewBox="0.00 0.00 591.00 725.00" xmlns="http://www.w3.org/2000/svg" xmlns:xlink="http://www.w3.org/1999/xlink">
<g id="graph0" class="graph" transform="scale(1 1) rotate(0) translate(4 721)">
<title>softwarecontainer::SoftwareContainerError</title>
<polygon fill="white" stroke="none" points="-4,4 -4,-721 587,-721 587,4 -4,4"/>
<!-- Node1 -->
<g id="node1" class="node"><title>Node1</title>
<polygon fill="#bfbfbf" stroke="black" points="114,-171.5 114,-201.5 233,-201.5 233,-171.5 114,-171.5"/>
<text text-anchor="start" x="122" y="-189.5" font-family="Helvetica,sans-Serif" font-size="10.00">softwarecontainer::</text>
<text text-anchor="middle" x="173.5" y="-178.5" font-family="Helvetica,sans-Serif" font-size="10.00">SoftwareContainerError</text>
</g>
<!-- Node3 -->
<g id="node3" class="node"><title>Node3</title>
<g id="a_node3"><a xlink:href="classsoftwarecontainer_1_1_cgroups_gateway_error.html" target="_top" xlink:title="softwarecontainer::\lCgroupsGatewayError">
<polygon fill="white" stroke="black" points="284.5,-612.5 284.5,-642.5 397.5,-642.5 397.5,-612.5 284.5,-612.5"/>
<text text-anchor="start" x="292.5" y="-630.5" font-family="Helvetica,sans-Serif" font-size="10.00">softwarecontainer::</text>
<text text-anchor="middle" x="341" y="-619.5" font-family="Helvetica,sans-Serif" font-size="10.00">CgroupsGatewayError</text>
</a>
</g>
</g>
<!-- Node1&#45;&gt;Node3 -->
<g id="edge2" class="edge"><title>Node1&#45;&gt;Node3</title>
<path fill="none" stroke="midnightblue" d="M183.712,-211.047C214,-291.753 309.955,-547.439 334.327,-612.384"/>
<polygon fill="midnightblue" stroke="midnightblue" points="186.987,-209.813 180.197,-201.68 180.434,-212.272 186.987,-209.813"/>
</g>
<!-- Node7 -->
<g id="node7" class="node"><title>Node7</title>
<g id="a_node7"><a xlink:href="classsoftwarecontainer_1_1_config_error.html" target="_top" xlink:title="softwarecontainer::\lConfigError">
<polygon fill="white" stroke="black" points="291,-392.5 291,-422.5 391,-422.5 391,-392.5 291,-392.5"/>
<text text-anchor="start" x="299" y="-410.5" font-family="Helvetica,sans-Serif" font-size="10.00">softwarecontainer::</text>
<text text-anchor="middle" x="341" y="-399.5" font-family="Helvetica,sans-Serif" font-size="10.00">ConfigError</text>
</a>
</g>
</g>
<!-- Node1&#45;&gt;Node7 -->
<g id="edge6" class="edge"><title>Node1&#45;&gt;Node7</title>
<path fill="none" stroke="midnightblue" d="M191.931,-209.776C225.973,-255.235 300.442,-354.676 328.764,-392.496"/>
<polygon fill="midnightblue" stroke="midnightblue" points="194.671,-207.597 185.875,-201.69 189.068,-211.793 194.671,-207.597"/>
</g>
<!-- Node14 -->
<g id="node14" class="node"><title>Node14</title>
<g id="a_node14"><a xlink:href="classsoftwarecontainer_1_1_config_store_error.html" target="_top" xlink:title="softwarecontainer::\lConfigStoreError">
<polygon fill="white" stroke="black" points="291,-245.5 291,-275.5 391,-275.5 391,-245.5 291,-245.5"/>
<text text-anchor="start" x="299" y="-263.5" font-family="Helvetica,sans-Serif" font-size="10.00">softwarecontainer::</text>
<text text-anchor="middle" x="341" y="-252.5" font-family="Helvetica,sans-Serif" font-size="10.00">ConfigStoreError</text>
</a>
</g>
</g>
<!-- Node1&#45;&gt;Node14 -->
<g id="edge13" class="edge"><title>Node1&#45;&gt;Node14</title>
<path fill="none" stroke="midnightblue" d="M209.196,-206.578C226.784,-216.311 248.673,-227.754 269,-236.5 276.291,-239.637 284.138,-242.642 291.863,-245.399"/>
<polygon fill="midnightblue" stroke="midnightblue" points="210.858,-203.498 200.422,-201.669 207.439,-209.606 210.858,-203.498"/>
</g>
<!-- Node18 -->
<g id="node18" class="node"><title>Node18</title>
<g id="a_node18"><a xlink:href="classsoftwarecontainer_1_1_container_error.html" target="_top" xlink:title="An error has occured in the underlying container implementation. ">
<polygon fill="white" stroke="black" points="291,-196.5 291,-226.5 391,-226.5 391,-196.5 291,-196.5"/>
<text text-anchor="start" x="299" y="-214.5" font-family="Helvetica,sans-Serif" font-size="10.00">softwarecontainer::</text>
<text text-anchor="middle" x="341" y="-203.5" font-family="Helvetica,sans-Serif" font-size="10.00">ContainerError</text>
</a>
</g>
</g>
<!-- Node1&#45;&gt;Node18 -->
<g id="edge17" class="edge"><title>Node1&#45;&gt;Node18</title>
<path fill="none" stroke="midnightblue" d="M243.632,-196.943C259.522,-199.343 276.101,-201.848 290.938,-204.089"/>
<polygon fill="midnightblue" stroke="midnightblue" points="243.726,-193.417 233.315,-195.384 242.68,-200.339 243.726,-193.417"/>
</g>
<!-- Node19 -->
<g id="node19" class="node"><title>Node19</title>
<g id="a_node19"><a xlink:href="classsoftwarecontainer_1_1_container_option_parse_error.html" target="_top" xlink:title="softwarecontainer::\lContainerOptionParseError">
<polygon fill="white" stroke="black" points="274,-147.5 274,-177.5 408,-177.5 408,-147.5 274,-147.5"/>
<text text-anchor="start" x="282" y="-165.5" font-family="Helvetica,sans-Serif" font-size="10.00">softwarecontainer::</text>
<text text-anchor="middle" x="341" y="-154.5" font-family="Helvetica,sans-Serif" font-size="10.00">ContainerOptionParseError</text>
</a>
</g>
</g>
<!-- Node1&#45;&gt;Node19 -->
<g id="edge18" class="edge"><title>Node1&#45;&gt;Node19</title>
<path fill="none" stroke="midnightblue" d="M243.281,-176.526C253.366,-175.063 263.735,-173.56 273.767,-172.105"/>
<polygon fill="midnightblue" stroke="midnightblue" points="242.709,-173.072 233.315,-177.971 243.714,-179.999 242.709,-173.072"/>
</g>
<!-- Node20 -->
<g id="node20" class="node"><title>Node20</title>
<g id="a_node20"><a xlink:href="classsoftwarecontainer_1_1_invalid_operation_error.html" target="_top" xlink:title="A method was called which is inappropriate in the current state. ">
<polygon fill="white" stroke="black" points="287,-98.5 287,-128.5 395,-128.5 395,-98.5 287,-98.5"/>
<text text-anchor="start" x="295" y="-116.5" font-family="Helvetica,sans-Serif" font-size="10.00">softwarecontainer::</text>
<text text-anchor="middle" x="341" y="-105.5" font-family="Helvetica,sans-Serif" font-size="10.00">InvalidOperationError</text>
</a>
</g>
</g>
<!-- Node1&#45;&gt;Node20 -->
<g id="edge19" class="edge"><title>Node1&#45;&gt;Node20</title>
<path fill="none" stroke="midnightblue" d="M210.102,-166.403C227.551,-156.978 249.055,-145.983 269,-137.5 276.424,-134.342 284.416,-131.307 292.266,-128.519"/>
<polygon fill="midnightblue" stroke="midnightblue" points="207.959,-163.585 200.861,-171.451 211.315,-169.728 207.959,-163.585"/>
</g>
<!-- Node21 -->
<g id="node21" class="node"><title>Node21</title>
<g id="a_node21"><a xlink:href="classsoftwarecontainer_1_1_network_gateway_error.html" target="_top" xlink:title="softwarecontainer::\lNetworkGatewayError">
<polygon fill="white" stroke="black" points="284.5,-49.5 284.5,-79.5 397.5,-79.5 397.5,-49.5 284.5,-49.5"/>
<text text-anchor="start" x="292.5" y="-67.5" font-family="Helvetica,sans-Serif" font-size="10.00">softwarecontainer::</text>
<text text-anchor="middle" x="341" y="-56.5" font-family="Helvetica,sans-Serif" font-size="10.00">NetworkGatewayError</text>
</a>
</g>
</g>
<!-- Node1&#45;&gt;Node21 -->
<g id="edge20" class="edge"><title>Node1&#45;&gt;Node21</title>
<path fill="none" stroke="midnightblue" d="M191.567,-163.208C208.843,-141.143 237.45,-108.49 269,-88.5 274.386,-85.0876 280.311,-82.1022 286.371,-79.5054"/>
<polygon fill="midnightblue" stroke="midnightblue" points="188.609,-161.314 185.306,-171.381 194.165,-165.571 188.609,-161.314"/>
</g>
<!-- Node23 -->
<g id="node23" class="node"><title>Node23</title>
<g id="a_node23"><a xlink:href="classsoftwarecontainer_1_1_software_container_agent_error.html" target="_top" xlink:title="An error occured in SoftwareContainerAgent. ">
<polygon fill="white" stroke="black" points="269,-0.5 269,-30.5 413,-30.5 413,-0.5 269,-0.5"/>
<text text-anchor="start" x="277" y="-18.5" font-family="Helvetica,sans-Serif" font-size="10.00">softwarecontainer::</text>
<text text-anchor="middle" x="341" y="-7.5" font-family="Helvetica,sans-Serif" font-size="10.00">SoftwareContainerAgentError</text>
</a>
</g>
</g>
<!-- Node1&#45;&gt;Node23 -->
<g id="edge22" class="edge"><title>Node1&#45;&gt;Node23</title>
<path fill="none" stroke="midnightblue" d="M184.13,-161.927C198.087,-129.392 226.95,-72.3182 269,-39.5 273.411,-36.0576 278.343,-33.0946 283.497,-30.5469"/>
<polygon fill="midnightblue" stroke="midnightblue" points="180.889,-160.605 180.279,-171.182 187.352,-163.294 180.889,-160.605"/>
</g>
<!-- Node2 -->
<g id="node2" class="node"><title>Node2</title>
<polygon fill="white" stroke="#bfbfbf" points="0,-177 0,-196 78,-196 78,-177 0,-177"/>
<text text-anchor="middle" x="39" y="-184" font-family="Helvetica,sans-Serif" font-size="10.00">std::exception</text>
</g>
<!-- Node2&#45;&gt;Node1 -->
<g id="edge1" class="edge"><title>Node2&#45;&gt;Node1</title>
<path fill="none" stroke="midnightblue" d="M88.4181,-186.5C96.5843,-186.5 105.141,-186.5 113.54,-186.5"/>
<polygon fill="midnightblue" stroke="midnightblue" points="88.3245,-183 78.3245,-186.5 88.3245,-190 88.3245,-183"/>
</g>
<!-- Node4 -->
<g id="node4" class="node"><title>Node4</title>
<g id="a_node4"><a xlink:href="classsoftwarecontainer_1_1_bad_suffix_error.html" target="_top" xlink:title="softwarecontainer::\lBadSuffixError">
<polygon fill="white" stroke="black" points="466,-686.5 466,-716.5 566,-716.5 566,-686.5 466,-686.5"/>
<text text-anchor="start" x="474" y="-704.5" font-family="Helvetica,sans-Serif" font-size="10.00">softwarecontainer::</text>
<text text-anchor="middle" x="516" y="-693.5" font-family="Helvetica,sans-Serif" font-size="10.00">BadSuffixError</text>
</a>
</g>
</g>
<!-- Node3&#45;&gt;Node4 -->
<g id="edge3" class="edge"><title>Node3&#45;&gt;Node4</title>
<path fill="none" stroke="midnightblue" d="M381.7,-647.073C401.699,-656.67 426.434,-668.146 449,-677.5 456.321,-680.535 464.179,-683.576 471.83,-686.424"/>
<polygon fill="midnightblue" stroke="midnightblue" points="383.109,-643.866 372.582,-642.67 380.065,-650.17 383.109,-643.866"/>
</g>
<!-- Node5 -->
<g id="node5" class="node"><title>Node5</title>
<g id="a_node5"><a xlink:href="classsoftwarecontainer_1_1_j_son_error.html" target="_top" xlink:title="softwarecontainer::\lJSonError">
<polygon fill="white" stroke="black" points="466,-637.5 466,-667.5 566,-667.5 566,-637.5 466,-637.5"/>
<text text-anchor="start" x="474" y="-655.5" font-family="Helvetica,sans-Serif" font-size="10.00">softwarecontainer::</text>
<text text-anchor="middle" x="516" y="-644.5" font-family="Helvetica,sans-Serif" font-size="10.00">JSonError</text>
</a>
</g>
</g>
<!-- Node3&#45;&gt;Node5 -->
<g id="edge4" class="edge"><title>Node3&#45;&gt;Node5</title>
<path fill="none" stroke="midnightblue" d="M407.634,-636.985C426.949,-639.776 447.74,-642.78 465.834,-645.395"/>
<polygon fill="midnightblue" stroke="midnightblue" points="408.088,-633.514 397.691,-635.548 407.087,-640.442 408.088,-633.514"/>
</g>
<!-- Node6 -->
<g id="node6" class="node"><title>Node6</title>
<g id="a_node6"><a xlink:href="classsoftwarecontainer_1_1_limit_range_error.html" target="_top" xlink:title="softwarecontainer::\lLimitRangeError">
<polygon fill="white" stroke="black" points="466,-588.5 466,-618.5 566,-618.5 566,-588.5 466,-588.5"/>
<text text-anchor="start" x="474" y="-606.5" font-family="Helvetica,sans-Serif" font-size="10.00">softwarecontainer::</text>
<text text-anchor="middle" x="516" y="-595.5" font-family="Helvetica,sans-Serif" font-size="10.00">LimitRangeError</text>
</a>
</g>
</g>
<!-- Node3&#45;&gt;Node6 -->
<g id="edge5" class="edge"><title>Node3&#45;&gt;Node6</title>
<path fill="none" stroke="midnightblue" d="M407.634,-618.395C426.949,-615.715 447.74,-612.831 465.834,-610.321"/>
<polygon fill="midnightblue" stroke="midnightblue" points="407.115,-614.933 397.691,-619.774 408.077,-621.867 407.115,-614.933"/>
</g>
<!-- Node8 -->
<g id="node8" class="node"><title>Node8</title>
<g id="a_node8"><a xlink:href="classsoftwarecontainer_1_1_config_dependency_error.html" target="_top" xlink:title="softwarecontainer::\lConfigDependencyError">
<polygon fill="white" stroke="black" points="455.5,-539.5 455.5,-569.5 576.5,-569.5 576.5,-539.5 455.5,-539.5"/>
<text text-anchor="start" x="463.5" y="-557.5" font-family="Helvetica,sans-Serif" font-size="10.00">softwarecontainer::</text>
<text text-anchor="middle" x="516" y="-546.5" font-family="Helvetica,sans-Serif" font-size="10.00">ConfigDependencyError</text>
</a>
</g>
</g>
<!-- Node7&#45;&gt;Node8 -->
<g id="edge7" class="edge"><title>Node7&#45;&gt;Node8</title>
<path fill="none" stroke="midnightblue" d="M357.043,-431.125C375.607,-458.54 409.593,-503.435 449,-530.5 453.925,-533.882 459.382,-536.849 464.988,-539.435"/>
<polygon fill="midnightblue" stroke="midnightblue" points="359.799,-428.947 351.354,-422.549 353.966,-432.816 359.799,-428.947"/>
</g>
<!-- Node9 -->
<g id="node9" class="node"><title>Node9</title>
<g id="a_node9"><a xlink:href="classsoftwarecontainer_1_1_config_file_error.html" target="_top" xlink:title="An error occured in a Glib operation. ">
<polygon fill="white" stroke="black" points="466,-490.5 466,-520.5 566,-520.5 566,-490.5 466,-490.5"/>
<text text-anchor="start" x="474" y="-508.5" font-family="Helvetica,sans-Serif" font-size="10.00">softwarecontainer::</text>
<text text-anchor="middle" x="516" y="-497.5" font-family="Helvetica,sans-Serif" font-size="10.00">ConfigFileError</text>
</a>
</g>
</g>
<!-- Node7&#45;&gt;Node9 -->
<g id="edge8" class="edge"><title>Node7&#45;&gt;Node9</title>
<path fill="none" stroke="midnightblue" d="M368.868,-428.979C389.802,-444.98 420.077,-466.556 449,-481.5 455.283,-484.746 462.106,-487.753 468.903,-490.463"/>
<polygon fill="midnightblue" stroke="midnightblue" points="370.825,-426.068 360.775,-422.714 366.54,-431.603 370.825,-426.068"/>
</g>
<!-- Node10 -->
<g id="node10" class="node"><title>Node10</title>
<g id="a_node10"><a xlink:href="classsoftwarecontainer_1_1_config_internal_error.html" target="_top" xlink:title="An error occured which is an internal error in the config code. ">
<polygon fill="white" stroke="black" points="466,-441.5 466,-471.5 566,-471.5 566,-441.5 466,-441.5"/>
<text text-anchor="start" x="474" y="-459.5" font-family="Helvetica,sans-Serif" font-size="10.00">softwarecontainer::</text>
<text text-anchor="middle" x="516" y="-448.5" font-family="Helvetica,sans-Serif" font-size="10.00">ConfigInternalError</text>
</a>
</g>
</g>
<!-- Node7&#45;&gt;Node10 -->
<g id="edge9" class="edge"><title>Node7&#45;&gt;Node10</title>
<path fill="none" stroke="midnightblue" d="M400.93,-424.191C422.029,-430.167 445.572,-436.835 465.765,-442.555"/>
<polygon fill="midnightblue" stroke="midnightblue" points="401.687,-420.768 391.112,-421.41 399.78,-427.503 401.687,-420.768"/>
</g>
<!-- Node11 -->
<g id="node11" class="node"><title>Node11</title>
<g id="a_node11"><a xlink:href="classsoftwarecontainer_1_1_config_mandatory_error.html" target="_top" xlink:title="softwarecontainer::\lConfigMandatoryError">
<polygon fill="white" stroke="black" points="460,-392.5 460,-422.5 572,-422.5 572,-392.5 460,-392.5"/>
<text text-anchor="start" x="468" y="-410.5" font-family="Helvetica,sans-Serif" font-size="10.00">softwarecontainer::</text>
<text text-anchor="middle" x="516" y="-399.5" font-family="Helvetica,sans-Serif" font-size="10.00">ConfigMandatoryError</text>
</a>
</g>
</g>
<!-- Node7&#45;&gt;Node11 -->
<g id="edge10" class="edge"><title>Node7&#45;&gt;Node11</title>
<path fill="none" stroke="midnightblue" d="M401.168,-407.5C420.22,-407.5 441.243,-407.5 459.983,-407.5"/>
<polygon fill="midnightblue" stroke="midnightblue" points="401.112,-404 391.112,-407.5 401.112,-411 401.112,-404"/>
</g>
<!-- Node12 -->
<g id="node12" class="node"><title>Node12</title>
<g id="a_node12"><a xlink:href="classsoftwarecontainer_1_1_config_not_found_error.html" target="_top" xlink:title="A requested config item could not be found in any of the config sources. ">
<polygon fill="white" stroke="black" points="461.5,-343.5 461.5,-373.5 570.5,-373.5 570.5,-343.5 461.5,-343.5"/>
<text text-anchor="start" x="469.5" y="-361.5" font-family="Helvetica,sans-Serif" font-size="10.00">softwarecontainer::</text>
<text text-anchor="middle" x="516" y="-350.5" font-family="Helvetica,sans-Serif" font-size="10.00">ConfigNotFoundError</text>
</a>
</g>
</g>
<!-- Node7&#45;&gt;Node12 -->
<g id="edge11" class="edge"><title>Node7&#45;&gt;Node12</title>
<path fill="none" stroke="midnightblue" d="M400.914,-390.813C420.659,-385.221 442.547,-379.021 461.826,-373.561"/>
<polygon fill="midnightblue" stroke="midnightblue" points="399.78,-387.497 391.112,-393.59 401.687,-394.232 399.78,-387.497"/>
</g>
<!-- Node13 -->
<g id="node13" class="node"><title>Node13</title>
<g id="a_node13"><a xlink:href="classsoftwarecontainer_1_1_config_unknown_error.html" target="_top" xlink:title="A config is found which is not defined in ConfigDefinition. ">
<polygon fill="white" stroke="black" points="462.5,-294.5 462.5,-324.5 569.5,-324.5 569.5,-294.5 462.5,-294.5"/>
<text text-anchor="start" x="470.5" y="-312.5" font-family="Helvetica,sans-Serif" font-size="10.00">softwarecontainer::</text>
<text text-anchor="middle" x="516" y="-301.5" font-family="Helvetica,sans-Serif" font-size="10.00">ConfigUnknownError</text>
</a>
</g>
</g>
<!-- Node7&#45;&gt;Node13 -->
<g id="edge12" class="edge"><title>Node7&#45;&gt;Node13</title>
<path fill="none" stroke="midnightblue" d="M369.355,-386.159C390.327,-370.475 420.43,-349.388 449,-334.5 455.846,-330.933 463.319,-327.607 470.696,-324.62"/>
<polygon fill="midnightblue" stroke="midnightblue" points="367.096,-383.479 361.234,-392.304 371.32,-389.061 367.096,-383.479"/>
</g>
<!-- Node15 -->
<g id="node15" class="node"><title>Node15</title>
<g id="a_node15"><a xlink:href="classsoftwarecontainer_1_1_capability_parse_error.html" target="_top" xlink:title="An error occured in ConfigStore when parsing a Capability in a Service Manifest. ">
<polygon fill="white" stroke="black" points="462.5,-245.5 462.5,-275.5 569.5,-275.5 569.5,-245.5 462.5,-245.5"/>
<text text-anchor="start" x="470.5" y="-263.5" font-family="Helvetica,sans-Serif" font-size="10.00">softwarecontainer::</text>
<text text-anchor="middle" x="516" y="-252.5" font-family="Helvetica,sans-Serif" font-size="10.00">CapabilityParseError</text>
</a>
</g>
</g>
<!-- Node14&#45;&gt;Node15 -->
<g id="edge14" class="edge"><title>Node14&#45;&gt;Node15</title>
<path fill="none" stroke="midnightblue" d="M401.277,-260.5C421.137,-260.5 443.128,-260.5 462.437,-260.5"/>
<polygon fill="midnightblue" stroke="midnightblue" points="401.112,-257 391.112,-260.5 401.112,-264 401.112,-257"/>
</g>
<!-- Node16 -->
<g id="node16" class="node"><title>Node16</title>
<g id="a_node16"><a xlink:href="classsoftwarecontainer_1_1_service_manifest_parse_error.html" target="_top" xlink:title="An error occured in ConfigStore when parsing a Service Manifest. ">
<polygon fill="white" stroke="black" points="449,-196.5 449,-226.5 583,-226.5 583,-196.5 449,-196.5"/>
<text text-anchor="start" x="457" y="-214.5" font-family="Helvetica,sans-Serif" font-size="10.00">softwarecontainer::</text>
<text text-anchor="middle" x="516" y="-203.5" font-family="Helvetica,sans-Serif" font-size="10.00">ServiceManifestParseError</text>
</a>
</g>
</g>
<!-- Node14&#45;&gt;Node16 -->
<g id="edge15" class="edge"><title>Node14&#45;&gt;Node16</title>
<path fill="none" stroke="midnightblue" d="M400.914,-243.813C420.659,-238.221 442.547,-232.021 461.826,-226.561"/>
<polygon fill="midnightblue" stroke="midnightblue" points="399.78,-240.497 391.112,-246.59 401.687,-247.232 399.78,-240.497"/>
</g>
<!-- Node17 -->
<g id="node17" class="node"><title>Node17</title>
<g id="a_node17"><a xlink:href="classsoftwarecontainer_1_1_service_manifest_path_error.html" target="_top" xlink:title="An error occured in ConfigStore relating to the path to the Service Manifest(s) ">
<polygon fill="white" stroke="black" points="452,-147.5 452,-177.5 580,-177.5 580,-147.5 452,-147.5"/>
<text text-anchor="start" x="460" y="-165.5" font-family="Helvetica,sans-Serif" font-size="10.00">softwarecontainer::</text>
<text text-anchor="middle" x="516" y="-154.5" font-family="Helvetica,sans-Serif" font-size="10.00">ServiceManifestPathError</text>
</a>
</g>
</g>
<!-- Node14&#45;&gt;Node17 -->
<g id="edge16" class="edge"><title>Node14&#45;&gt;Node17</title>
<path fill="none" stroke="midnightblue" d="M400.516,-244.066C404.912,-241.839 409.134,-239.328 413,-236.5 434.811,-220.545 427.481,-203.846 449,-187.5 453.976,-183.72 459.589,-180.454 465.387,-177.647"/>
<polygon fill="midnightblue" stroke="midnightblue" points="398.965,-240.926 391.306,-248.247 401.859,-247.3 398.965,-240.926"/>
</g>
<!-- Node22 -->
<g id="node22" class="node"><title>Node22</title>
<g id="a_node22"><a xlink:href="classsoftwarecontainer_1_1_i_p_allocation_error.html" target="_top" xlink:title="softwarecontainer::\lIPAllocationError">
<polygon fill="white" stroke="black" points="466,-49.5 466,-79.5 566,-79.5 566,-49.5 466,-49.5"/>
<text text-anchor="start" x="474" y="-67.5" font-family="Helvetica,sans-Serif" font-size="10.00">softwarecontainer::</text>
<text text-anchor="middle" x="516" y="-56.5" font-family="Helvetica,sans-Serif" font-size="10.00">IPAllocationError</text>
</a>
</g>
</g>
<!-- Node21&#45;&gt;Node22 -->
<g id="edge21" class="edge"><title>Node21&#45;&gt;Node22</title>
<path fill="none" stroke="midnightblue" d="M407.9,-64.5C427.14,-64.5 447.823,-64.5 465.834,-64.5"/>
<polygon fill="midnightblue" stroke="midnightblue" points="407.691,-61.0001 397.691,-64.5 407.691,-68.0001 407.691,-61.0001"/>
</g>
</g>
</svg>
