<?xml version="1.0" encoding="UTF-8" standalone="no"?>
<!DOCTYPE svg PUBLIC "-//W3C//DTD SVG 1.1//EN"
 "http://www.w3.org/Graphics/SVG/1.1/DTD/svg11.dtd">
<!-- Generated by graphviz version 2.38.0 (20140413.2041)
 -->
<!-- Title: softwarecontainer::DeviceNodeGateway Pages: 1 -->
<svg width="232pt" height="106pt"
 viewBox="0.00 0.00 231.50 106.00" xmlns="http://www.w3.org/2000/svg" xmlns:xlink="http://www.w3.org/1999/xlink">
<g id="graph0" class="graph" transform="scale(1 1) rotate(0) translate(4 102)">
<title>softwarecontainer::DeviceNodeGateway</title>
<polygon fill="white" stroke="none" points="-4,4 -4,-102 227.5,-102 227.5,4 -4,4"/>
<!-- Node1 -->
<g id="node1" class="node"><title>Node1</title>
<polygon fill="#bfbfbf" stroke="black" points="55,-0.5 55,-30.5 165,-30.5 165,-0.5 55,-0.5"/>
<text text-anchor="start" x="63" y="-18.5" font-family="Helvetica,sans-Serif" font-size="10.00">softwarecontainer::</text>
<text text-anchor="middle" x="110" y="-7.5" font-family="Helvetica,sans-Serif" font-size="10.00">DeviceNodeGateway</text>
</g>
<!-- Node2 -->
<g id="node2" class="node"><title>Node2</title>
<g id="a_node2"><a xlink:href="classsoftwarecontainer_1_1_gateway.html" target="_top" xlink:title="Gateway base class for SoftwareContainer. ">
<polygon fill="white" stroke="black" points="0,-67.5 0,-97.5 100,-97.5 100,-67.5 0,-67.5"/>
<text text-anchor="start" x="8" y="-85.5" font-family="Helvetica,sans-Serif" font-size="10.00">softwarecontainer::</text>
<text text-anchor="middle" x="50" y="-74.5" font-family="Helvetica,sans-Serif" font-size="10.00">Gateway</text>
</a>
</g>
</g>
<!-- Node2&#45;&gt;Node1 -->
<g id="edge1" class="edge"><title>Node2&#45;&gt;Node1</title>
<path fill="none" stroke="midnightblue" d="M69.8238,-60.0243C78.7632,-50.3398 89.0702,-39.1739 97.0063,-30.5765"/>
<polygon fill="midnightblue" stroke="midnightblue" points="67.2301,-57.6739 63.0191,-67.396 72.3738,-62.4219 67.2301,-57.6739"/>
</g>
<!-- Node3 -->
<g id="node3" class="node"><title>Node3</title>
<g id="a_node3"><a xlink:href="classsoftwarecontainer_1_1_file_toolkit_with_undo.html" target="_top" xlink:title="softwarecontainer::\lFileToolkitWithUndo">
<polygon fill="white" stroke="black" points="118.5,-67.5 118.5,-97.5 223.5,-97.5 223.5,-67.5 118.5,-67.5"/>
<text text-anchor="start" x="126.5" y="-85.5" font-family="Helvetica,sans-Serif" font-size="10.00">softwarecontainer::</text>
<text text-anchor="middle" x="171" y="-74.5" font-family="Helvetica,sans-Serif" font-size="10.00">FileToolkitWithUndo</text>
</a>
</g>
</g>
<!-- Node3&#45;&gt;Node1 -->
<g id="edge2" class="edge"><title>Node3&#45;&gt;Node1</title>
<path fill="none" stroke="midnightblue" d="M150.846,-60.0243C141.757,-50.3398 131.279,-39.1739 123.21,-30.5765"/>
<polygon fill="midnightblue" stroke="midnightblue" points="148.369,-62.4992 157.764,-67.396 153.473,-57.709 148.369,-62.4992"/>
</g>
</g>
</svg>
