<?xml version="1.0" encoding="UTF-8" standalone="no"?>
<!DOCTYPE svg PUBLIC "-//W3C//DTD SVG 1.1//EN"
 "http://www.w3.org/Graphics/SVG/1.1/DTD/svg11.dtd">
<!-- Generated by graphviz version 2.38.0 (20140413.2041)
 -->
<!-- Title: softwarecontainer::RecursiveCopy::getInstance Pages: 1 -->
<svg width="328pt" height="110pt"
 viewBox="0.00 0.00 328.00 110.00" xmlns="http://www.w3.org/2000/svg" xmlns:xlink="http://www.w3.org/1999/xlink">
<g id="graph0" class="graph" transform="scale(1 1) rotate(0) translate(4 106)">
<title>softwarecontainer::RecursiveCopy::getInstance</title>
<polygon fill="white" stroke="none" points="-4,4 -4,-106 324,-106 324,4 -4,4"/>
<!-- Node1 -->
<g id="node1" class="node"><title>Node1</title>
<polygon fill="#bfbfbf" stroke="black" points="0,-36 0,-66 141,-66 141,-36 0,-36"/>
<text text-anchor="start" x="8" y="-54" font-family="Helvetica,sans-Serif" font-size="10.00">softwarecontainer::</text>
<text text-anchor="middle" x="70.5" y="-43" font-family="Helvetica,sans-Serif" font-size="10.00">RecursiveCopy::getInstance</text>
</g>
<!-- Node2 -->
<g id="node2" class="node"><title>Node2</title>
<g id="a_node2"><a xlink:href="classsoftwarecontainer_1_1_overlay_sync_cleanup_handler.html#a50bbd9b5ae0d2da6e14c79eb83ea1855" target="_top" xlink:title="clean Performs the cleanup handling. ">
<polygon fill="white" stroke="black" points="177,-60.5 177,-101.5 320,-101.5 320,-60.5 177,-60.5"/>
<text text-anchor="start" x="185" y="-89.5" font-family="Helvetica,sans-Serif" font-size="10.00">softwarecontainer::</text>
<text text-anchor="start" x="185" y="-78.5" font-family="Helvetica,sans-Serif" font-size="10.00">OverlaySyncCleanupHandler</text>
<text text-anchor="middle" x="248.5" y="-67.5" font-family="Helvetica,sans-Serif" font-size="10.00">::clean</text>
</a>
</g>
</g>
<!-- Node1&#45;&gt;Node2 -->
<g id="edge1" class="edge"><title>Node1&#45;&gt;Node2</title>
<path fill="none" stroke="midnightblue" d="M151.039,-64.5578C159.599,-66.0169 168.267,-67.4944 176.714,-68.9343"/>
<polygon fill="midnightblue" stroke="midnightblue" points="151.506,-61.0869 141.06,-62.8568 150.33,-67.9874 151.506,-61.0869"/>
</g>
<!-- Node3 -->
<g id="node3" class="node"><title>Node3</title>
<g id="a_node3"><a xlink:href="classsoftwarecontainer_1_1_file_toolkit_with_undo.html#a011797b9d1387882a5b013d0c97ccbfd" target="_top" xlink:title="syncOverlayMount Copy the directory structure from upper layer to the lower layer ...">
<polygon fill="white" stroke="black" points="196,-0.5 196,-41.5 301,-41.5 301,-0.5 196,-0.5"/>
<text text-anchor="start" x="204" y="-29.5" font-family="Helvetica,sans-Serif" font-size="10.00">softwarecontainer::</text>
<text text-anchor="start" x="204" y="-18.5" font-family="Helvetica,sans-Serif" font-size="10.00">FileToolkitWithUndo</text>
<text text-anchor="middle" x="248.5" y="-7.5" font-family="Helvetica,sans-Serif" font-size="10.00">::syncOverlayMount</text>
</a>
</g>
</g>
<!-- Node1&#45;&gt;Node3 -->
<g id="edge2" class="edge"><title>Node1&#45;&gt;Node3</title>
<path fill="none" stroke="midnightblue" d="M150.989,-37.4507C166.203,-34.8574 181.76,-32.2058 195.817,-29.8097"/>
<polygon fill="midnightblue" stroke="midnightblue" points="150.33,-34.0126 141.06,-39.1432 151.506,-40.913 150.33,-34.0126"/>
</g>
</g>
</svg>
