<?xml version="1.0" encoding="UTF-8" standalone="no"?>
<!DOCTYPE svg PUBLIC "-//W3C//DTD SVG 1.1//EN"
 "http://www.w3.org/Graphics/SVG/1.1/DTD/svg11.dtd">
<!-- Generated by graphviz version 2.38.0 (20140413.2041)
 -->
<!-- Title: softwarecontainer::FileToolkitWithUndo::syncOverlayMount Pages: 1 -->
<svg width="290pt" height="88pt"
 viewBox="0.00 0.00 290.00 88.00" xmlns="http://www.w3.org/2000/svg" xmlns:xlink="http://www.w3.org/1999/xlink">
<g id="graph0" class="graph" transform="scale(1 1) rotate(0) translate(4 84)">
<title>softwarecontainer::FileToolkitWithUndo::syncOverlayMount</title>
<polygon fill="white" stroke="none" points="-4,4 -4,-84 286,-84 286,4 -4,4"/>
<!-- Node1 -->
<g id="node1" class="node"><title>Node1</title>
<polygon fill="#bfbfbf" stroke="black" points="0,-19 0,-60 105,-60 105,-19 0,-19"/>
<text text-anchor="start" x="8" y="-48" font-family="Helvetica,sans-Serif" font-size="10.00">softwarecontainer::</text>
<text text-anchor="start" x="8" y="-37" font-family="Helvetica,sans-Serif" font-size="10.00">FileToolkitWithUndo</text>
<text text-anchor="middle" x="52.5" y="-26" font-family="Helvetica,sans-Serif" font-size="10.00">::syncOverlayMount</text>
</g>
<!-- Node2 -->
<g id="node2" class="node"><title>Node2</title>
<g id="a_node2"><a xlink:href="classsoftwarecontainer_1_1_recursive_copy.html#adcbe2b9294d3791548d5aeec6d266aa2" target="_top" xlink:title="copy Copy files from src to dst ">
<polygon fill="white" stroke="black" points="156,-49.5 156,-79.5 267,-79.5 267,-49.5 156,-49.5"/>
<text text-anchor="start" x="164" y="-67.5" font-family="Helvetica,sans-Serif" font-size="10.00">softwarecontainer::</text>
<text text-anchor="middle" x="211.5" y="-56.5" font-family="Helvetica,sans-Serif" font-size="10.00">RecursiveCopy::copy</text>
</a>
</g>
</g>
<!-- Node1&#45;&gt;Node2 -->
<g id="edge1" class="edge"><title>Node1&#45;&gt;Node2</title>
<path fill="none" stroke="midnightblue" d="M105.343,-47.7552C118.225,-49.8066 132.195,-52.0311 145.617,-54.1683"/>
<polygon fill="midnightblue" stroke="midnightblue" points="145.321,-57.6651 155.747,-55.7813 146.421,-50.7522 145.321,-57.6651"/>
</g>
<!-- Node3 -->
<g id="node3" class="node"><title>Node3</title>
<g id="a_node3"><a xlink:href="classsoftwarecontainer_1_1_recursive_copy.html#a8b4137067b18ba06764435c86dbf1d51" target="_top" xlink:title="getInstance Gets the RecursiveCopy instance. ">
<polygon fill="white" stroke="black" points="141,-0.5 141,-30.5 282,-30.5 282,-0.5 141,-0.5"/>
<text text-anchor="start" x="149" y="-18.5" font-family="Helvetica,sans-Serif" font-size="10.00">softwarecontainer::</text>
<text text-anchor="middle" x="211.5" y="-7.5" font-family="Helvetica,sans-Serif" font-size="10.00">RecursiveCopy::getInstance</text>
</a>
</g>
</g>
<!-- Node1&#45;&gt;Node3 -->
<g id="edge2" class="edge"><title>Node1&#45;&gt;Node3</title>
<path fill="none" stroke="midnightblue" d="M105.343,-31.575C113.496,-30.3287 122.084,-29.0158 130.693,-27.6997"/>
<polygon fill="midnightblue" stroke="midnightblue" points="131.429,-31.1281 140.785,-26.1571 130.371,-24.2085 131.429,-31.1281"/>
</g>
</g>
</svg>
