<?xml version="1.0" encoding="UTF-8" standalone="no"?>
<!DOCTYPE svg PUBLIC "-//W3C//DTD SVG 1.1//EN"
 "http://www.w3.org/Graphics/SVG/1.1/DTD/svg11.dtd">
<!-- Generated by graphviz version 2.38.0 (20140413.2041)
 -->
<!-- Title: softwarecontainer::DeviceNodeGateway::activateGateway Pages: 1 -->
<svg width="452pt" height="191pt"
 viewBox="0.00 0.00 452.00 191.00" xmlns="http://www.w3.org/2000/svg" xmlns:xlink="http://www.w3.org/1999/xlink">
<g id="graph0" class="graph" transform="scale(1 1) rotate(0) translate(4 187)">
<title>softwarecontainer::DeviceNodeGateway::activateGateway</title>
<polygon fill="white" stroke="none" points="-4,4 -4,-187 448,-187 448,4 -4,4"/>
<!-- Node1 -->
<g id="node1" class="node"><title>Node1</title>
<polygon fill="#bfbfbf" stroke="black" points="0,-71 0,-112 150,-112 150,-71 0,-71"/>
<text text-anchor="start" x="8" y="-100" font-family="Helvetica,sans-Serif" font-size="10.00">softwarecontainer::</text>
<text text-anchor="start" x="8" y="-89" font-family="Helvetica,sans-Serif" font-size="10.00">DeviceNodeGateway::activate</text>
<text text-anchor="middle" x="75" y="-78" font-family="Helvetica,sans-Serif" font-size="10.00">Gateway</text>
</g>
<!-- Node2 -->
<g id="node2" class="node"><title>Node2</title>
<g id="a_node2"><a xlink:href="classsoftwarecontainer_1_1_file_toolkit_with_undo.html#a35eb42bdace2695fb3e96cb84a535213" target="_top" xlink:title="createDirectory Create a directory, and if successful append it to a list of dirs to be deleted in th...">
<polygon fill="white" stroke="black" points="192,-98 192,-139 297,-139 297,-98 192,-98"/>
<text text-anchor="start" x="200" y="-127" font-family="Helvetica,sans-Serif" font-size="10.00">softwarecontainer::</text>
<text text-anchor="start" x="200" y="-116" font-family="Helvetica,sans-Serif" font-size="10.00">FileToolkitWithUndo</text>
<text text-anchor="middle" x="244.5" y="-105" font-family="Helvetica,sans-Serif" font-size="10.00">::createDirectory</text>
</a>
</g>
</g>
<!-- Node1&#45;&gt;Node2 -->
<g id="edge1" class="edge"><title>Node1&#45;&gt;Node2</title>
<path fill="none" stroke="midnightblue" d="M150.443,-103.5C160.928,-105.19 171.61,-106.912 181.82,-108.558"/>
<polygon fill="midnightblue" stroke="midnightblue" points="181.42,-112.038 191.849,-110.174 182.534,-105.127 181.42,-112.038"/>
</g>
<!-- Node3 -->
<g id="node3" class="node"><title>Node3</title>
<g id="a_node3"><a xlink:href="namespacesoftwarecontainer.html#a44f64c34c09d1ffdb18428b41f0d9e91" target="_top" xlink:title="isDirectory Check if path is a directory ">
<polygon fill="white" stroke="black" points="341.5,-152.5 341.5,-182.5 441.5,-182.5 441.5,-152.5 341.5,-152.5"/>
<text text-anchor="start" x="349.5" y="-170.5" font-family="Helvetica,sans-Serif" font-size="10.00">softwarecontainer::</text>
<text text-anchor="middle" x="391.5" y="-159.5" font-family="Helvetica,sans-Serif" font-size="10.00">isDirectory</text>
</a>
</g>
</g>
<!-- Node1&#45;&gt;Node3 -->
<g id="edge6" class="edge"><title>Node1&#45;&gt;Node3</title>
<path fill="none" stroke="midnightblue" d="M107.819,-112.186C129.071,-124.922 158.137,-140.326 186,-148.5 233.47,-162.426 289.552,-166.838 330.969,-167.958"/>
<polygon fill="midnightblue" stroke="midnightblue" points="331.096,-171.462 341.168,-168.176 331.245,-164.463 331.096,-171.462"/>
</g>
<!-- Node5 -->
<g id="node5" class="node"><title>Node5</title>
<g id="a_node5"><a xlink:href="namespacesoftwarecontainer.html#ae8835f968ab1d43b4a395b0097490734" target="_top" xlink:title="existsInFileSystem Check if path exists ">
<polygon fill="white" stroke="black" points="194,-49.5 194,-79.5 295,-79.5 295,-49.5 194,-49.5"/>
<text text-anchor="start" x="202" y="-67.5" font-family="Helvetica,sans-Serif" font-size="10.00">softwarecontainer::</text>
<text text-anchor="middle" x="244.5" y="-56.5" font-family="Helvetica,sans-Serif" font-size="10.00">existsInFileSystem</text>
</a>
</g>
</g>
<!-- Node1&#45;&gt;Node5 -->
<g id="edge4" class="edge"><title>Node1&#45;&gt;Node5</title>
<path fill="none" stroke="midnightblue" d="M150.443,-79.5002C161.567,-77.7071 172.913,-75.8783 183.682,-74.1424"/>
<polygon fill="midnightblue" stroke="midnightblue" points="184.489,-77.5576 193.804,-72.5107 183.375,-70.6468 184.489,-77.5576"/>
</g>
<!-- Node6 -->
<g id="node6" class="node"><title>Node6</title>
<g id="a_node6"><a xlink:href="classsoftwarecontainer_1_1_gateway.html#a6f0a60c9f29ea869916f7524085b3e5f" target="_top" xlink:title="Get a handle to the associated container. ">
<polygon fill="white" stroke="black" points="186,-0.5 186,-30.5 303,-30.5 303,-0.5 186,-0.5"/>
<text text-anchor="start" x="194" y="-18.5" font-family="Helvetica,sans-Serif" font-size="10.00">softwarecontainer::</text>
<text text-anchor="middle" x="244.5" y="-7.5" font-family="Helvetica,sans-Serif" font-size="10.00">Gateway::getContainer</text>
</a>
</g>
</g>
<!-- Node1&#45;&gt;Node6 -->
<g id="edge5" class="edge"><title>Node1&#45;&gt;Node6</title>
<path fill="none" stroke="midnightblue" d="M118.362,-70.9145C138.714,-61.1684 163.515,-49.5008 186,-39.5 189.621,-37.8893 193.384,-36.2479 197.174,-34.6178"/>
<polygon fill="midnightblue" stroke="midnightblue" points="198.752,-37.7497 206.582,-30.6125 196.011,-31.309 198.752,-37.7497"/>
</g>
<!-- Node2&#45;&gt;Node3 -->
<g id="edge2" class="edge"><title>Node2&#45;&gt;Node3</title>
<path fill="none" stroke="midnightblue" d="M297.03,-135.914C309.744,-140.21 323.399,-144.824 336.238,-149.163"/>
<polygon fill="midnightblue" stroke="midnightblue" points="335.273,-152.532 345.868,-152.417 337.515,-145.9 335.273,-152.532"/>
</g>
<!-- Node4 -->
<g id="node4" class="node"><title>Node4</title>
<g id="a_node4"><a xlink:href="classsoftwarecontainer_1_1_file_toolkit_with_undo.html#a44a19890b72a635b3134cb2a07fc0875" target="_top" xlink:title="checks whether given path is already added to clean up handlers or not ">
<polygon fill="white" stroke="black" points="339,-93 339,-134 444,-134 444,-93 339,-93"/>
<text text-anchor="start" x="347" y="-122" font-family="Helvetica,sans-Serif" font-size="10.00">softwarecontainer::</text>
<text text-anchor="start" x="347" y="-111" font-family="Helvetica,sans-Serif" font-size="10.00">FileToolkitWithUndo</text>
<text text-anchor="middle" x="391.5" y="-100" font-family="Helvetica,sans-Serif" font-size="10.00">::pathInList</text>
</a>
</g>
</g>
<!-- Node2&#45;&gt;Node4 -->
<g id="edge3" class="edge"><title>Node2&#45;&gt;Node4</title>
<path fill="none" stroke="midnightblue" d="M297.03,-116.723C307.164,-116.374 317.897,-116.004 328.337,-115.644"/>
<polygon fill="midnightblue" stroke="midnightblue" points="328.774,-119.131 338.648,-115.288 328.533,-112.135 328.774,-119.131"/>
</g>
</g>
</svg>
