<?xml version="1.0" encoding="UTF-8" standalone="no"?>
<!DOCTYPE svg PUBLIC "-//W3C//DTD SVG 1.1//EN"
 "http://www.w3.org/Graphics/SVG/1.1/DTD/svg11.dtd">
<!-- Generated by graphviz version 2.38.0 (20140413.2041)
 -->
<!-- Title: softwarecontainer::FileToolkitWithUndo::pathInList Pages: 1 -->
<svg width="616pt" height="246pt"
 viewBox="0.00 0.00 616.00 246.00" xmlns="http://www.w3.org/2000/svg" xmlns:xlink="http://www.w3.org/1999/xlink">
<g id="graph0" class="graph" transform="scale(1 1) rotate(0) translate(4 242)">
<title>softwarecontainer::FileToolkitWithUndo::pathInList</title>
<polygon fill="white" stroke="none" points="-4,4 -4,-242 612,-242 612,4 -4,4"/>
<!-- Node1 -->
<g id="node1" class="node"><title>Node1</title>
<polygon fill="#bfbfbf" stroke="black" points="0,-112.5 0,-153.5 105,-153.5 105,-112.5 0,-112.5"/>
<text text-anchor="start" x="8" y="-141.5" font-family="Helvetica,sans-Serif" font-size="10.00">softwarecontainer::</text>
<text text-anchor="start" x="8" y="-130.5" font-family="Helvetica,sans-Serif" font-size="10.00">FileToolkitWithUndo</text>
<text text-anchor="middle" x="52.5" y="-119.5" font-family="Helvetica,sans-Serif" font-size="10.00">::pathInList</text>
</g>
<!-- Node2 -->
<g id="node2" class="node"><title>Node2</title>
<g id="a_node2"><a xlink:href="class_container.html#a5923045139c392c9a74a2039ff5fec5e" target="_top" xlink:title="Tries to bind mount a file in the container. ">
<polygon fill="white" stroke="black" points="141,-202 141,-232 266,-232 266,-202 141,-202"/>
<text text-anchor="start" x="149" y="-220" font-family="Helvetica,sans-Serif" font-size="10.00">Container::bindMountFile</text>
<text text-anchor="middle" x="203.5" y="-209" font-family="Helvetica,sans-Serif" font-size="10.00">InContainer</text>
</a>
</g>
</g>
<!-- Node1&#45;&gt;Node2 -->
<g id="edge1" class="edge"><title>Node1&#45;&gt;Node2</title>
<path fill="none" stroke="midnightblue" d="M88.3631,-159.627C103.949,-170.805 122.866,-183.407 141,-193 147.079,-196.216 153.686,-199.242 160.241,-201.992"/>
<polygon fill="midnightblue" stroke="midnightblue" points="90.2174,-156.648 80.0728,-153.592 86.0975,-162.307 90.2174,-156.648"/>
</g>
<!-- Node3 -->
<g id="node3" class="node"><title>Node3</title>
<g id="a_node3"><a xlink:href="classsoftwarecontainer_1_1_file_toolkit_with_undo.html#aff5073fb683649d6753baae354d202b9" target="_top" xlink:title="createDirectory Create a directory, and if successful append it to a list of dirs to be deleted in th...">
<polygon fill="white" stroke="black" points="151,-82.5 151,-123.5 256,-123.5 256,-82.5 151,-82.5"/>
<text text-anchor="start" x="159" y="-111.5" font-family="Helvetica,sans-Serif" font-size="10.00">softwarecontainer::</text>
<text text-anchor="start" x="159" y="-100.5" font-family="Helvetica,sans-Serif" font-size="10.00">FileToolkitWithUndo</text>
<text text-anchor="middle" x="203.5" y="-89.5" font-family="Helvetica,sans-Serif" font-size="10.00">::createDirectory</text>
</a>
</g>
</g>
<!-- Node1&#45;&gt;Node3 -->
<g id="edge2" class="edge"><title>Node1&#45;&gt;Node3</title>
<path fill="none" stroke="midnightblue" d="M115.066,-120.604C126.977,-118.206 139.344,-115.716 150.897,-113.39"/>
<polygon fill="midnightblue" stroke="midnightblue" points="114.307,-117.187 105.195,-122.592 115.689,-124.049 114.307,-117.187"/>
</g>
<!-- Node8 -->
<g id="node8" class="node"><title>Node8</title>
<g id="a_node8"><a xlink:href="classsoftwarecontainer_1_1_file_toolkit_with_undo.html#ab46eccba563b861f100d9ce7fa9ca4d6" target="_top" xlink:title="overlayMount Mount a directory with an overlay on top of it. ">
<polygon fill="white" stroke="black" points="323.5,-0.5 323.5,-41.5 428.5,-41.5 428.5,-0.5 323.5,-0.5"/>
<text text-anchor="start" x="331.5" y="-29.5" font-family="Helvetica,sans-Serif" font-size="10.00">softwarecontainer::</text>
<text text-anchor="start" x="331.5" y="-18.5" font-family="Helvetica,sans-Serif" font-size="10.00">FileToolkitWithUndo</text>
<text text-anchor="middle" x="376" y="-7.5" font-family="Helvetica,sans-Serif" font-size="10.00">::overlayMount</text>
</a>
</g>
</g>
<!-- Node1&#45;&gt;Node8 -->
<g id="edge9" class="edge"><title>Node1&#45;&gt;Node8</title>
<path fill="none" stroke="midnightblue" d="M86.3139,-106.051C102.027,-94.3497 121.614,-81.4226 141,-73 200.544,-47.1296 274.412,-33.4791 323.035,-26.7623"/>
<polygon fill="midnightblue" stroke="midnightblue" points="83.835,-103.54 78.0088,-112.389 88.0817,-109.105 83.835,-103.54"/>
</g>
<!-- Node10 -->
<g id="node10" class="node"><title>Node10</title>
<g id="a_node10"><a xlink:href="classsoftwarecontainer_1_1_file_toolkit_with_undo.html#a649391903bf1a0eec92c829713117a74" target="_top" xlink:title="tempDir Creates a temporary directory at templatePath. ">
<polygon fill="white" stroke="black" points="151,-142.5 151,-183.5 256,-183.5 256,-142.5 151,-142.5"/>
<text text-anchor="start" x="159" y="-171.5" font-family="Helvetica,sans-Serif" font-size="10.00">softwarecontainer::</text>
<text text-anchor="start" x="159" y="-160.5" font-family="Helvetica,sans-Serif" font-size="10.00">FileToolkitWithUndo</text>
<text text-anchor="middle" x="203.5" y="-149.5" font-family="Helvetica,sans-Serif" font-size="10.00">::tempDir</text>
</a>
</g>
</g>
<!-- Node1&#45;&gt;Node10 -->
<g id="edge10" class="edge"><title>Node1&#45;&gt;Node10</title>
<path fill="none" stroke="midnightblue" d="M115.066,-145.396C126.977,-147.794 139.344,-150.284 150.897,-152.61"/>
<polygon fill="midnightblue" stroke="midnightblue" points="115.689,-141.951 105.195,-143.408 114.307,-148.813 115.689,-141.951"/>
</g>
<!-- Node4 -->
<g id="node4" class="node"><title>Node4</title>
<g id="a_node4"><a xlink:href="class_container.html#aba9a50a9d2cd38f04d384e00ab489998" target="_top" xlink:title="Tries to bind mount a directory in the container. ">
<polygon fill="white" stroke="black" points="307.5,-148 307.5,-178 444.5,-178 444.5,-148 307.5,-148"/>
<text text-anchor="start" x="315.5" y="-166" font-family="Helvetica,sans-Serif" font-size="10.00">Container::bindMountFolder</text>
<text text-anchor="middle" x="376" y="-155" font-family="Helvetica,sans-Serif" font-size="10.00">InContainer</text>
</a>
</g>
</g>
<!-- Node3&#45;&gt;Node4 -->
<g id="edge3" class="edge"><title>Node3&#45;&gt;Node4</title>
<path fill="none" stroke="midnightblue" d="M265.596,-125.087C277.651,-129.401 290.216,-133.867 302,-138 311.228,-141.236 321.129,-144.66 330.569,-147.9"/>
<polygon fill="midnightblue" stroke="midnightblue" points="266.657,-121.749 256.062,-121.669 264.294,-128.339 266.657,-121.749"/>
</g>
<!-- Node5 -->
<g id="node5" class="node"><title>Node5</title>
<g id="a_node5"><a xlink:href="classsoftwarecontainer_1_1_workspace.html#a3478c4690122b5057dd98df517e629ba" target="_top" xlink:title="Check if the workspace is present and create it if needed. ">
<polygon fill="white" stroke="black" points="302,-99 302,-129 450,-129 450,-99 302,-99"/>
<text text-anchor="start" x="310" y="-117" font-family="Helvetica,sans-Serif" font-size="10.00">softwarecontainer::</text>
<text text-anchor="middle" x="376" y="-106" font-family="Helvetica,sans-Serif" font-size="10.00">Workspace::checkWorkspace</text>
</a>
</g>
</g>
<!-- Node3&#45;&gt;Node5 -->
<g id="edge4" class="edge"><title>Node3&#45;&gt;Node5</title>
<path fill="none" stroke="midnightblue" d="M266.122,-106.976C277.719,-107.724 289.949,-108.513 301.857,-109.281"/>
<polygon fill="midnightblue" stroke="midnightblue" points="266.323,-103.481 256.118,-106.33 265.872,-110.467 266.323,-103.481"/>
</g>
<!-- Node7 -->
<g id="node7" class="node"><title>Node7</title>
<g id="a_node7"><a xlink:href="class_container.html#a0665ab6bbf3018c8cf478d3a0ee7f956" target="_top" xlink:title="Setup the container for preloading. ">
<polygon fill="white" stroke="black" points="326,-60.5 326,-79.5 426,-79.5 426,-60.5 326,-60.5"/>
<text text-anchor="middle" x="376" y="-67.5" font-family="Helvetica,sans-Serif" font-size="10.00">Container::initialize</text>
</a>
</g>
</g>
<!-- Node3&#45;&gt;Node7 -->
<g id="edge6" class="edge"><title>Node3&#45;&gt;Node7</title>
<path fill="none" stroke="midnightblue" d="M266.196,-91.0588C285.831,-87.2586 307.274,-83.1083 325.893,-79.5045"/>
<polygon fill="midnightblue" stroke="midnightblue" points="265.271,-87.6728 256.118,-93.0094 266.601,-94.5453 265.271,-87.6728"/>
</g>
<!-- Node3&#45;&gt;Node8 -->
<g id="edge7" class="edge"><title>Node3&#45;&gt;Node8</title>
<path fill="none" stroke="midnightblue" d="M250.321,-77.3465C266.476,-68.6279 284.879,-59.0591 302,-51 308.819,-47.7905 316.077,-44.5753 323.271,-41.5051"/>
<polygon fill="midnightblue" stroke="midnightblue" points="248.209,-74.5113 241.096,-82.3638 251.553,-80.6607 248.209,-74.5113"/>
</g>
<!-- Node6 -->
<g id="node6" class="node"><title>Node6</title>
<g id="a_node6"><a xlink:href="classsoftwarecontainer_1_1_workspace.html#a94db01244419924778d7578332415a97" target="_top" xlink:title="Creates a workspace. ">
<polygon fill="white" stroke="black" points="486,-99 486,-129 608,-129 608,-99 486,-99"/>
<text text-anchor="start" x="494" y="-117" font-family="Helvetica,sans-Serif" font-size="10.00">softwarecontainer::</text>
<text text-anchor="middle" x="547" y="-106" font-family="Helvetica,sans-Serif" font-size="10.00">Workspace::Workspace</text>
</a>
</g>
</g>
<!-- Node5&#45;&gt;Node6 -->
<g id="edge5" class="edge"><title>Node5&#45;&gt;Node6</title>
<path fill="none" stroke="midnightblue" d="M460.28,-114C468.941,-114 477.619,-114 485.95,-114"/>
<polygon fill="midnightblue" stroke="midnightblue" points="460.143,-110.5 450.143,-114 460.143,-117.5 460.143,-110.5"/>
</g>
<!-- Node9 -->
<g id="node9" class="node"><title>Node9</title>
<g id="a_node9"><a xlink:href="class_container.html#a32b1856163054cc997f19aae33babb6a" target="_top" xlink:title="create Creates a new lxc_container and creates it with all the initialization. ">
<polygon fill="white" stroke="black" points="501,-11.5 501,-30.5 593,-30.5 593,-11.5 501,-11.5"/>
<text text-anchor="middle" x="547" y="-18.5" font-family="Helvetica,sans-Serif" font-size="10.00">Container::create</text>
</a>
</g>
</g>
<!-- Node8&#45;&gt;Node9 -->
<g id="edge8" class="edge"><title>Node8&#45;&gt;Node9</title>
<path fill="none" stroke="midnightblue" d="M438.858,-21C459.429,-21 481.932,-21 500.982,-21"/>
<polygon fill="midnightblue" stroke="midnightblue" points="438.624,-17.5001 428.624,-21 438.624,-24.5001 438.624,-17.5001"/>
</g>
<!-- Node10&#45;&gt;Node4 -->
<g id="edge12" class="edge"><title>Node10&#45;&gt;Node4</title>
<path fill="none" stroke="midnightblue" d="M266.187,-163C279.6,-163 293.859,-163 307.485,-163"/>
<polygon fill="midnightblue" stroke="midnightblue" points="266.118,-159.5 256.118,-163 266.118,-166.5 266.118,-159.5"/>
</g>
<!-- Node11 -->
<g id="node11" class="node"><title>Node11</title>
<g id="a_node11"><a xlink:href="classsoftwarecontainer_1_1_file_toolkit_with_undo.html#a33c6fa5ecfb8e370ae8bb6aedf568336" target="_top" xlink:title="bindMount Bind mount a src directory to another position dst. ">
<polygon fill="white" stroke="black" points="323.5,-196.5 323.5,-237.5 428.5,-237.5 428.5,-196.5 323.5,-196.5"/>
<text text-anchor="start" x="331.5" y="-225.5" font-family="Helvetica,sans-Serif" font-size="10.00">softwarecontainer::</text>
<text text-anchor="start" x="331.5" y="-214.5" font-family="Helvetica,sans-Serif" font-size="10.00">FileToolkitWithUndo</text>
<text text-anchor="middle" x="376" y="-203.5" font-family="Helvetica,sans-Serif" font-size="10.00">::bindMount</text>
</a>
</g>
</g>
<!-- Node10&#45;&gt;Node11 -->
<g id="edge11" class="edge"><title>Node10&#45;&gt;Node11</title>
<path fill="none" stroke="midnightblue" d="M265.788,-182.411C284.616,-188.374 305.141,-194.875 323.263,-200.614"/>
<polygon fill="midnightblue" stroke="midnightblue" points="266.708,-179.031 256.118,-179.348 264.595,-185.704 266.708,-179.031"/>
</g>
</g>
</svg>
