<?xml version="1.0" encoding="UTF-8" standalone="no"?>
<!DOCTYPE svg PUBLIC "-//W3C//DTD SVG 1.1//EN"
 "http://www.w3.org/Graphics/SVG/1.1/DTD/svg11.dtd">
<!-- Generated by graphviz version 2.38.0 (20140413.2041)
 -->
<!-- Title: softwarecontainer::SoftwareContainerError Pages: 1 -->
<svg width="526pt" height="186pt"
 viewBox="0.00 0.00 526.00 186.00" xmlns="http://www.w3.org/2000/svg" xmlns:xlink="http://www.w3.org/1999/xlink">
<g id="graph0" class="graph" transform="scale(1 1) rotate(0) translate(4 182)">
<title>softwarecontainer::SoftwareContainerError</title>
<polygon fill="white" stroke="none" points="-4,4 -4,-182 522,-182 522,4 -4,4"/>
<!-- Node1 -->
<g id="node1" class="node"><title>Node1</title>
<polygon fill="#bfbfbf" stroke="black" points="114,-48.5 114,-78.5 233,-78.5 233,-48.5 114,-48.5"/>
<text text-anchor="start" x="122" y="-66.5" font-family="Helvetica,sans-Serif" font-size="10.00">softwarecontainer::</text>
<text text-anchor="middle" x="173.5" y="-55.5" font-family="Helvetica,sans-Serif" font-size="10.00">SoftwareContainerError</text>
</g>
<!-- Node3 -->
<g id="node3" class="node"><title>Node3</title>
<g id="a_node3"><a xlink:href="classsoftwarecontainer_1_1_cgroups_gateway_error.html" target="_top" xlink:title="softwarecontainer::\lCgroupsGatewayError">
<polygon fill="white" stroke="black" points="269,-73.5 269,-103.5 382,-103.5 382,-73.5 269,-73.5"/>
<text text-anchor="start" x="277" y="-91.5" font-family="Helvetica,sans-Serif" font-size="10.00">softwarecontainer::</text>
<text text-anchor="middle" x="325.5" y="-80.5" font-family="Helvetica,sans-Serif" font-size="10.00">CgroupsGatewayError</text>
</a>
</g>
</g>
<!-- Node1&#45;&gt;Node3 -->
<g id="edge2" class="edge"><title>Node1&#45;&gt;Node3</title>
<path fill="none" stroke="midnightblue" d="M243.29,-74.965C251.82,-76.3866 260.457,-77.8262 268.757,-79.2095"/>
<polygon fill="midnightblue" stroke="midnightblue" points="243.793,-71.5006 233.353,-73.3089 242.642,-78.4054 243.793,-71.5006"/>
</g>
<!-- Node7 -->
<g id="node7" class="node"><title>Node7</title>
<g id="a_node7"><a xlink:href="classsoftwarecontainer_1_1_network_gateway_error.html" target="_top" xlink:title="softwarecontainer::\lNetworkGatewayError">
<polygon fill="white" stroke="black" points="269,-24.5 269,-54.5 382,-54.5 382,-24.5 269,-24.5"/>
<text text-anchor="start" x="277" y="-42.5" font-family="Helvetica,sans-Serif" font-size="10.00">softwarecontainer::</text>
<text text-anchor="middle" x="325.5" y="-31.5" font-family="Helvetica,sans-Serif" font-size="10.00">NetworkGatewayError</text>
</a>
</g>
</g>
<!-- Node1&#45;&gt;Node7 -->
<g id="edge6" class="edge"><title>Node1&#45;&gt;Node7</title>
<path fill="none" stroke="midnightblue" d="M243.29,-52.4936C251.82,-51.1288 260.457,-49.7468 268.757,-48.4189"/>
<polygon fill="midnightblue" stroke="midnightblue" points="242.675,-49.0474 233.353,-54.0834 243.781,-55.9595 242.675,-49.0474"/>
</g>
<!-- Node2 -->
<g id="node2" class="node"><title>Node2</title>
<polygon fill="white" stroke="#bfbfbf" points="0,-54 0,-73 78,-73 78,-54 0,-54"/>
<text text-anchor="middle" x="39" y="-61" font-family="Helvetica,sans-Serif" font-size="10.00">std::exception</text>
</g>
<!-- Node2&#45;&gt;Node1 -->
<g id="edge1" class="edge"><title>Node2&#45;&gt;Node1</title>
<path fill="none" stroke="midnightblue" d="M88.4181,-63.5C96.5843,-63.5 105.141,-63.5 113.54,-63.5"/>
<polygon fill="midnightblue" stroke="midnightblue" points="88.3245,-60.0001 78.3245,-63.5 88.3245,-67.0001 88.3245,-60.0001"/>
</g>
<!-- Node4 -->
<g id="node4" class="node"><title>Node4</title>
<g id="a_node4"><a xlink:href="classsoftwarecontainer_1_1_bad_suffix_error.html" target="_top" xlink:title="softwarecontainer::\lBadSuffixError">
<polygon fill="white" stroke="black" points="418,-147.5 418,-177.5 518,-177.5 518,-147.5 418,-147.5"/>
<text text-anchor="start" x="426" y="-165.5" font-family="Helvetica,sans-Serif" font-size="10.00">softwarecontainer::</text>
<text text-anchor="middle" x="468" y="-154.5" font-family="Helvetica,sans-Serif" font-size="10.00">BadSuffixError</text>
</a>
</g>
</g>
<!-- Node3&#45;&gt;Node4 -->
<g id="edge3" class="edge"><title>Node3&#45;&gt;Node4</title>
<path fill="none" stroke="midnightblue" d="M362.481,-108.645C379.26,-117.914 399.554,-128.949 418,-138.5 423.72,-141.462 429.859,-144.543 435.79,-147.472"/>
<polygon fill="midnightblue" stroke="midnightblue" points="363.998,-105.484 353.555,-103.697 360.605,-111.606 363.998,-105.484"/>
</g>
<!-- Node5 -->
<g id="node5" class="node"><title>Node5</title>
<g id="a_node5"><a xlink:href="classsoftwarecontainer_1_1_j_son_error.html" target="_top" xlink:title="softwarecontainer::\lJSonError">
<polygon fill="white" stroke="black" points="418,-98.5 418,-128.5 518,-128.5 518,-98.5 418,-98.5"/>
<text text-anchor="start" x="426" y="-116.5" font-family="Helvetica,sans-Serif" font-size="10.00">softwarecontainer::</text>
<text text-anchor="middle" x="468" y="-105.5" font-family="Helvetica,sans-Serif" font-size="10.00">JSonError</text>
</a>
</g>
</g>
<!-- Node3&#45;&gt;Node5 -->
<g id="edge4" class="edge"><title>Node3&#45;&gt;Node5</title>
<path fill="none" stroke="midnightblue" d="M392.102,-100.173C400.747,-101.711 409.486,-103.266 417.792,-104.744"/>
<polygon fill="midnightblue" stroke="midnightblue" points="392.488,-96.6867 382.029,-98.3807 391.262,-103.578 392.488,-96.6867"/>
</g>
<!-- Node6 -->
<g id="node6" class="node"><title>Node6</title>
<g id="a_node6"><a xlink:href="classsoftwarecontainer_1_1_limit_range_error.html" target="_top" xlink:title="softwarecontainer::\lLimitRangeError">
<polygon fill="white" stroke="black" points="418,-49.5 418,-79.5 518,-79.5 518,-49.5 418,-49.5"/>
<text text-anchor="start" x="426" y="-67.5" font-family="Helvetica,sans-Serif" font-size="10.00">softwarecontainer::</text>
<text text-anchor="middle" x="468" y="-56.5" font-family="Helvetica,sans-Serif" font-size="10.00">LimitRangeError</text>
</a>
</g>
</g>
<!-- Node3&#45;&gt;Node6 -->
<g id="edge5" class="edge"><title>Node3&#45;&gt;Node6</title>
<path fill="none" stroke="midnightblue" d="M392.102,-77.2939C400.747,-75.8173 409.486,-74.3245 417.792,-72.9056"/>
<polygon fill="midnightblue" stroke="midnightblue" points="391.297,-73.8807 382.029,-79.0146 392.476,-80.7807 391.297,-73.8807"/>
</g>
<!-- Node8 -->
<g id="node8" class="node"><title>Node8</title>
<g id="a_node8"><a xlink:href="classsoftwarecontainer_1_1_i_p_allocation_error.html" target="_top" xlink:title="softwarecontainer::\lIPAllocationError">
<polygon fill="white" stroke="black" points="418,-0.5 418,-30.5 518,-30.5 518,-0.5 418,-0.5"/>
<text text-anchor="start" x="426" y="-18.5" font-family="Helvetica,sans-Serif" font-size="10.00">softwarecontainer::</text>
<text text-anchor="middle" x="468" y="-7.5" font-family="Helvetica,sans-Serif" font-size="10.00">IPAllocationError</text>
</a>
</g>
</g>
<!-- Node7&#45;&gt;Node8 -->
<g id="edge7" class="edge"><title>Node7&#45;&gt;Node8</title>
<path fill="none" stroke="midnightblue" d="M392.102,-28.2939C400.747,-26.8173 409.486,-25.3245 417.792,-23.9056"/>
<polygon fill="midnightblue" stroke="midnightblue" points="391.297,-24.8807 382.029,-30.0146 392.476,-31.7807 391.297,-24.8807"/>
</g>
</g>
</svg>
