<?xml version="1.0" encoding="UTF-8" standalone="no"?>
<!DOCTYPE svg PUBLIC "-//W3C//DTD SVG 1.1//EN"
 "http://www.w3.org/Graphics/SVG/1.1/DTD/svg11.dtd">
<!-- Generated by graphviz version 2.38.0 (20140413.2041)
 -->
<!-- Title: DBusCppAdaptor Pages: 1 -->
<svg width="461pt" height="116pt"
 viewBox="0.00 0.00 461.00 115.50" xmlns="http://www.w3.org/2000/svg" xmlns:xlink="http://www.w3.org/1999/xlink">
<g id="graph0" class="graph" transform="scale(1 1) rotate(0) translate(4 111.5)">
<title>DBusCppAdaptor</title>
<polygon fill="white" stroke="none" points="-4,4 -4,-111.5 457,-111.5 457,4 -4,4"/>
<!-- Node1 -->
<g id="node1" class="node"><title>Node1</title>
<polygon fill="#bfbfbf" stroke="black" points="360,-38.5 360,-57.5 453,-57.5 453,-38.5 360,-38.5"/>
<text text-anchor="middle" x="406.5" y="-45.5" font-family="Helvetica,sans-Serif" font-size="10.00">DBusCppAdaptor</text>
</g>
<!-- Node2 -->
<g id="node2" class="node"><title>Node2</title>
<g id="a_node2"><a xlink:href="classsoftwarecontainer_1_1_software_container_agent_adaptor.html" target="_top" xlink:title="softwarecontainer::\lSoftwareContainerAgentAdaptor">
<polygon fill="white" stroke="black" points="167,-77 167,-107 324,-107 324,-77 167,-77"/>
<text text-anchor="start" x="175" y="-95" font-family="Helvetica,sans-Serif" font-size="10.00">softwarecontainer::</text>
<text text-anchor="middle" x="245.5" y="-84" font-family="Helvetica,sans-Serif" font-size="10.00">SoftwareContainerAgentAdaptor</text>
</a>
</g>
</g>
<!-- Node2&#45;&gt;Node1 -->
<g id="edge1" class="edge"><title>Node2&#45;&gt;Node1</title>
<path fill="none" stroke="midnightblue" d="M310.45,-74.3031C331.096,-68.5899 353.197,-62.4738 370.888,-57.5783"/>
<polygon fill="midnightblue" stroke="midnightblue" points="309.478,-70.9404 300.774,-76.9808 311.345,-77.6869 309.478,-70.9404"/>
</g>
<!-- Node3 -->
<g id="node3" class="node"><title>Node3</title>
<polygon fill="white" stroke="#bfbfbf" points="0,-77 0,-107 131,-107 131,-77 0,-77"/>
<text text-anchor="start" x="8" y="-95" font-family="Helvetica,sans-Serif" font-size="10.00">com::pelagicore::Software</text>
<text text-anchor="middle" x="65.5" y="-84" font-family="Helvetica,sans-Serif" font-size="10.00">ContainerAgent_adaptor</text>
</g>
<!-- Node3&#45;&gt;Node2 -->
<g id="edge2" class="edge"><title>Node3&#45;&gt;Node2</title>
<path fill="none" stroke="midnightblue" d="M141.239,-92C149.711,-92 158.361,-92 166.869,-92"/>
<polygon fill="midnightblue" stroke="midnightblue" points="141.014,-88.5001 131.014,-92 141.014,-95.5001 141.014,-88.5001"/>
</g>
<!-- Node4 -->
<g id="node4" class="node"><title>Node4</title>
<polygon fill="white" stroke="#bfbfbf" points="174,-38.5 174,-57.5 317,-57.5 317,-38.5 174,-38.5"/>
<text text-anchor="middle" x="245.5" y="-45.5" font-family="Helvetica,sans-Serif" font-size="10.00">DBus::IntrospectableAdaptor</text>
</g>
<!-- Node4&#45;&gt;Node1 -->
<g id="edge3" class="edge"><title>Node4&#45;&gt;Node1</title>
<path fill="none" stroke="midnightblue" d="M327.353,-48C338.462,-48 349.535,-48 359.706,-48"/>
<polygon fill="midnightblue" stroke="midnightblue" points="327.166,-44.5001 317.166,-48 327.166,-51.5001 327.166,-44.5001"/>
</g>
<!-- Node5 -->
<g id="node5" class="node"><title>Node5</title>
<polygon fill="white" stroke="#bfbfbf" points="190.5,-0.5 190.5,-19.5 300.5,-19.5 300.5,-0.5 190.5,-0.5"/>
<text text-anchor="middle" x="245.5" y="-7.5" font-family="Helvetica,sans-Serif" font-size="10.00">DBus::ObjectAdaptor</text>
</g>
<!-- Node5&#45;&gt;Node1 -->
<g id="edge4" class="edge"><title>Node5&#45;&gt;Node1</title>
<path fill="none" stroke="midnightblue" d="M296.577,-21.968C318.858,-27.2931 344.729,-33.4762 365.666,-38.4799"/>
<polygon fill="midnightblue" stroke="midnightblue" points="297.162,-18.5094 286.622,-19.589 295.535,-25.3177 297.162,-18.5094"/>
</g>
</g>
</svg>
