<?xml version="1.0" encoding="UTF-8" standalone="no"?>
<!DOCTYPE svg PUBLIC "-//W3C//DTD SVG 1.1//EN"
 "http://www.w3.org/Graphics/SVG/1.1/DTD/svg11.dtd">
<!-- Generated by graphviz version 2.38.0 (20140413.2041)
 -->
<!-- Title: softwarecontainer::Netlink::linkUp Pages: 1 -->
<svg width="435pt" height="39pt"
 viewBox="0.00 0.00 435.00 39.00" xmlns="http://www.w3.org/2000/svg" xmlns:xlink="http://www.w3.org/1999/xlink">
<g id="graph0" class="graph" transform="scale(1 1) rotate(0) translate(4 35)">
<title>softwarecontainer::Netlink::linkUp</title>
<polygon fill="white" stroke="none" points="-4,4 -4,-35 431,-35 431,4 -4,4"/>
<!-- Node1 -->
<g id="node1" class="node"><title>Node1</title>
<polygon fill="#bfbfbf" stroke="black" points="0,-0.5 0,-30.5 100,-30.5 100,-0.5 0,-0.5"/>
<text text-anchor="start" x="8" y="-18.5" font-family="Helvetica,sans-Serif" font-size="10.00">softwarecontainer::</text>
<text text-anchor="middle" x="50" y="-7.5" font-family="Helvetica,sans-Serif" font-size="10.00">Netlink::linkUp</text>
</g>
<!-- Node2 -->
<g id="node2" class="node"><title>Node2</title>
<g id="a_node2"><a xlink:href="classsoftwarecontainer_1_1_netlink.html#a04e7cfff31da1e4c4576a052346ea598" target="_top" xlink:title="check for a kernel dump, and if not present, try to get one ">
<polygon fill="white" stroke="black" points="136,-0.5 136,-30.5 270,-30.5 270,-0.5 136,-0.5"/>
<text text-anchor="start" x="144" y="-18.5" font-family="Helvetica,sans-Serif" font-size="10.00">softwarecontainer::</text>
<text text-anchor="middle" x="203" y="-7.5" font-family="Helvetica,sans-Serif" font-size="10.00">Netlink::checkKernelDump</text>
</a>
</g>
</g>
<!-- Node1&#45;&gt;Node2 -->
<g id="edge1" class="edge"><title>Node1&#45;&gt;Node2</title>
<path fill="none" stroke="midnightblue" d="M100.025,-15.5C108.257,-15.5 116.97,-15.5 125.698,-15.5"/>
<polygon fill="midnightblue" stroke="midnightblue" points="125.921,-19.0001 135.921,-15.5 125.921,-12.0001 125.921,-19.0001"/>
</g>
<!-- Node3 -->
<g id="node3" class="node"><title>Node3</title>
<g id="a_node3"><a xlink:href="classsoftwarecontainer_1_1_netlink.html#ade23853f3df53186bd2601b3749db5e4" target="_top" xlink:title="get a dump of all links, addresses and routes from the kernel. ">
<polygon fill="white" stroke="black" points="306,-0.5 306,-30.5 427,-30.5 427,-0.5 306,-0.5"/>
<text text-anchor="start" x="314" y="-18.5" font-family="Helvetica,sans-Serif" font-size="10.00">softwarecontainer::</text>
<text text-anchor="middle" x="366.5" y="-7.5" font-family="Helvetica,sans-Serif" font-size="10.00">Netlink::getKernelDump</text>
</a>
</g>
</g>
<!-- Node2&#45;&gt;Node3 -->
<g id="edge2" class="edge"><title>Node2&#45;&gt;Node3</title>
<path fill="none" stroke="midnightblue" d="M270.154,-15.5C278.577,-15.5 287.218,-15.5 295.696,-15.5"/>
<polygon fill="midnightblue" stroke="midnightblue" points="295.93,-19.0001 305.93,-15.5 295.93,-12.0001 295.93,-19.0001"/>
</g>
</g>
</svg>
