<?xml version="1.0" encoding="UTF-8" standalone="no"?>
<!DOCTYPE svg PUBLIC "-//W3C//DTD SVG 1.1//EN"
 "http://www.w3.org/Graphics/SVG/1.1/DTD/svg11.dtd">
<!-- Generated by graphviz version 2.38.0 (20140413.2041)
 -->
<!-- Title: Gateway::hasContainer Pages: 1 -->
<svg width="524pt" height="187pt"
 viewBox="0.00 0.00 524.00 187.00" xmlns="http://www.w3.org/2000/svg" xmlns:xlink="http://www.w3.org/1999/xlink">
<g id="graph0" class="graph" transform="scale(1 1) rotate(0) translate(4 183)">
<title>Gateway::hasContainer</title>
<polygon fill="white" stroke="none" points="-4,4 -4,-183 520,-183 520,4 -4,4"/>
<!-- Node1 -->
<g id="node1" class="node"><title>Node1</title>
<polygon fill="#bfbfbf" stroke="black" points="0,-91.5 0,-110.5 119,-110.5 119,-91.5 0,-91.5"/>
<text text-anchor="middle" x="59.5" y="-98.5" font-family="Helvetica,sans-Serif" font-size="10.00">Gateway::hasContainer</text>
</g>
<!-- Node2 -->
<g id="node2" class="node"><title>Node2</title>
<g id="a_node2"><a xlink:href="class_gateway.html#aac80886a35b80d8003051e6926b59937" target="_top" xlink:title="Applies any configuration set by setConfig() ">
<polygon fill="white" stroke="black" points="189.5,-148.5 189.5,-167.5 285.5,-167.5 285.5,-148.5 189.5,-148.5"/>
<text text-anchor="middle" x="237.5" y="-155.5" font-family="Helvetica,sans-Serif" font-size="10.00">Gateway::activate</text>
</a>
</g>
</g>
<!-- Node1&#45;&gt;Node2 -->
<g id="edge1" class="edge"><title>Node1&#45;&gt;Node2</title>
<path fill="none" stroke="midnightblue" d="M96.6928,-114.111C114.231,-120.343 135.639,-127.773 155,-134 170.586,-139.013 187.979,-144.191 202.681,-148.448"/>
<polygon fill="midnightblue" stroke="midnightblue" points="97.4534,-110.666 86.8588,-110.598 95.0987,-117.258 97.4534,-110.666"/>
</g>
<!-- Node4 -->
<g id="node4" class="node"><title>Node4</title>
<g id="a_node4"><a xlink:href="class_network_gateway.html#ad19de4347291719074bde198fc61a94a" target="_top" xlink:title="Implements Gateway::activateGateway. ">
<polygon fill="white" stroke="black" points="369.5,-85 369.5,-115 502.5,-115 502.5,-85 369.5,-85"/>
<text text-anchor="start" x="377.5" y="-103" font-family="Helvetica,sans-Serif" font-size="10.00">NetworkGateway::activate</text>
<text text-anchor="middle" x="436" y="-92" font-family="Helvetica,sans-Serif" font-size="10.00">Gateway</text>
</a>
</g>
</g>
<!-- Node1&#45;&gt;Node4 -->
<g id="edge3" class="edge"><title>Node1&#45;&gt;Node4</title>
<path fill="none" stroke="midnightblue" d="M129.411,-101.163C181.705,-101.247 255.379,-101.281 320,-101 335.973,-100.931 353.193,-100.807 369.321,-100.67"/>
<polygon fill="midnightblue" stroke="midnightblue" points="129.252,-97.6628 119.246,-101.146 129.24,-104.663 129.252,-97.6628"/>
</g>
<!-- Node5 -->
<g id="node5" class="node"><title>Node5</title>
<g id="a_node5"><a xlink:href="class_gateway.html#a77348e5ce86b82302764b10e3203b42c" target="_top" xlink:title="Execute the given command in the container. ">
<polygon fill="white" stroke="black" points="164.5,-72.5 164.5,-91.5 310.5,-91.5 310.5,-72.5 164.5,-72.5"/>
<text text-anchor="middle" x="237.5" y="-79.5" font-family="Helvetica,sans-Serif" font-size="10.00">Gateway::executeInContainer</text>
</a>
</g>
</g>
<!-- Node1&#45;&gt;Node5 -->
<g id="edge4" class="edge"><title>Node1&#45;&gt;Node5</title>
<path fill="none" stroke="midnightblue" d="M129.124,-93.5917C140.687,-92.3434 152.72,-91.0445 164.369,-89.7869"/>
<polygon fill="midnightblue" stroke="midnightblue" points="128.672,-90.1201 119.105,-94.6733 129.423,-97.0797 128.672,-90.1201"/>
</g>
<!-- Node6 -->
<g id="node6" class="node"><title>Node6</title>
<g id="a_node6"><a xlink:href="class_gateway.html#a828b2dfa811c7fcce82d34b502e65112" target="_top" xlink:title="Set an environment variable in the associated container. ">
<polygon fill="white" stroke="black" points="155,-34.5 155,-53.5 320,-53.5 320,-34.5 155,-34.5"/>
<text text-anchor="middle" x="237.5" y="-41.5" font-family="Helvetica,sans-Serif" font-size="10.00">Gateway::setEnvironmentVariable</text>
</a>
</g>
</g>
<!-- Node1&#45;&gt;Node6 -->
<g id="edge6" class="edge"><title>Node1&#45;&gt;Node6</title>
<path fill="none" stroke="midnightblue" d="M90.8415,-87.4169C109.165,-79.5632 133.13,-69.9017 155,-63 166.223,-59.4584 178.503,-56.2558 190.047,-53.5323"/>
<polygon fill="midnightblue" stroke="midnightblue" points="89.3321,-84.2566 81.5533,-91.4498 92.12,-90.6775 89.3321,-84.2566"/>
</g>
<!-- Node3 -->
<g id="node3" class="node"><title>Node3</title>
<g id="a_node3"><a xlink:href="classsoftwarecontainer_1_1_software_container.html#af928f299cf15ecda5f625eaecd518f57" target="_top" xlink:title="Set the gateway configuration and activate them. ">
<polygon fill="white" stroke="black" points="358,-137.5 358,-178.5 514,-178.5 514,-137.5 358,-137.5"/>
<text text-anchor="start" x="366" y="-166.5" font-family="Helvetica,sans-Serif" font-size="10.00">softwarecontainer::</text>
<text text-anchor="start" x="366" y="-155.5" font-family="Helvetica,sans-Serif" font-size="10.00">SoftwareContainer::setGateway</text>
<text text-anchor="middle" x="436" y="-144.5" font-family="Helvetica,sans-Serif" font-size="10.00">Configs</text>
</a>
</g>
</g>
<!-- Node2&#45;&gt;Node3 -->
<g id="edge2" class="edge"><title>Node2&#45;&gt;Node3</title>
<path fill="none" stroke="midnightblue" d="M295.722,-158C315.062,-158 336.989,-158 357.627,-158"/>
<polygon fill="midnightblue" stroke="midnightblue" points="295.567,-154.5 285.567,-158 295.567,-161.5 295.567,-154.5"/>
</g>
<!-- Node5&#45;&gt;Node4 -->
<g id="edge5" class="edge"><title>Node5&#45;&gt;Node4</title>
<path fill="none" stroke="midnightblue" d="M320.606,-89.5211C336.903,-91.014 353.81,-92.5628 369.466,-93.9969"/>
<polygon fill="midnightblue" stroke="midnightblue" points="320.831,-86.0272 310.554,-88.6003 320.193,-92.998 320.831,-86.0272"/>
</g>
<!-- Node7 -->
<g id="node7" class="node"><title>Node7</title>
<g id="a_node7"><a xlink:href="class_pulse_gateway.html#a2ffb6fc3e0d690830fa4612111a60985" target="_top" xlink:title="Implements Gateway::activateGateway. ">
<polygon fill="white" stroke="black" points="356,-38.5 356,-57.5 516,-57.5 516,-38.5 356,-38.5"/>
<text text-anchor="middle" x="436" y="-45.5" font-family="Helvetica,sans-Serif" font-size="10.00">PulseGateway::activateGateway</text>
</a>
</g>
</g>
<!-- Node6&#45;&gt;Node7 -->
<g id="edge7" class="edge"><title>Node6&#45;&gt;Node7</title>
<path fill="none" stroke="midnightblue" d="M330.154,-45.8657C338.735,-46.0404 347.384,-46.2165 355.837,-46.3885"/>
<polygon fill="midnightblue" stroke="midnightblue" points="330.196,-42.366 320.127,-45.6616 330.053,-49.3645 330.196,-42.366"/>
</g>
<!-- Node8 -->
<g id="node8" class="node"><title>Node8</title>
<g id="a_node8"><a xlink:href="class_d_bus_gateway.html#ab974b6b05b985d64ba5609c64e8b13fb" target="_top" xlink:title="Implements Gateway::activateGateway. ">
<polygon fill="white" stroke="black" points="356,-0.5 356,-19.5 516,-19.5 516,-0.5 356,-0.5"/>
<text text-anchor="middle" x="436" y="-7.5" font-family="Helvetica,sans-Serif" font-size="10.00">DBusGateway::activateGateway</text>
</a>
</g>
</g>
<!-- Node6&#45;&gt;Node8 -->
<g id="edge8" class="edge"><title>Node6&#45;&gt;Node8</title>
<path fill="none" stroke="midnightblue" d="M303.535,-32.7472C328.305,-28.4612 356.267,-23.6229 380.016,-19.5138"/>
<polygon fill="midnightblue" stroke="midnightblue" points="302.754,-29.3301 293.497,-34.4839 303.948,-36.2276 302.754,-29.3301"/>
</g>
</g>
</svg>
