<?xml version="1.0" encoding="UTF-8" standalone="no"?>
<!DOCTYPE svg PUBLIC "-//W3C//DTD SVG 1.1//EN"
 "http://www.w3.org/Graphics/SVG/1.1/DTD/svg11.dtd">
<!-- Generated by graphviz version 2.38.0 (20140413.2041)
 -->
<!-- Title: softwarecontainer::ConfigError Pages: 1 -->
<svg width="360pt" height="284pt"
 viewBox="0.00 0.00 360.00 284.00" xmlns="http://www.w3.org/2000/svg" xmlns:xlink="http://www.w3.org/1999/xlink">
<g id="graph0" class="graph" transform="scale(1 1) rotate(0) translate(4 280)">
<title>softwarecontainer::ConfigError</title>
<polygon fill="white" stroke="none" points="-4,4 -4,-280 356,-280 356,4 -4,4"/>
<!-- Node1 -->
<g id="node1" class="node"><title>Node1</title>
<polygon fill="#bfbfbf" stroke="black" points="95,-122.5 95,-152.5 195,-152.5 195,-122.5 95,-122.5"/>
<text text-anchor="start" x="103" y="-140.5" font-family="Helvetica,sans-Serif" font-size="10.00">softwarecontainer::</text>
<text text-anchor="middle" x="145" y="-129.5" font-family="Helvetica,sans-Serif" font-size="10.00">ConfigError</text>
</g>
<!-- Node3 -->
<g id="node3" class="node"><title>Node3</title>
<g id="a_node3"><a xlink:href="classsoftwarecontainer_1_1_config_dependency_error.html" target="_top" xlink:title="softwarecontainer::\lConfigDependencyError">
<polygon fill="white" stroke="black" points="231,-245.5 231,-275.5 352,-275.5 352,-245.5 231,-245.5"/>
<text text-anchor="start" x="239" y="-263.5" font-family="Helvetica,sans-Serif" font-size="10.00">softwarecontainer::</text>
<text text-anchor="middle" x="291.5" y="-252.5" font-family="Helvetica,sans-Serif" font-size="10.00">ConfigDependencyError</text>
</a>
</g>
</g>
<!-- Node1&#45;&gt;Node3 -->
<g id="edge2" class="edge"><title>Node1&#45;&gt;Node3</title>
<path fill="none" stroke="midnightblue" d="M161.244,-161.027C176.575,-183.094 202.043,-215.724 231,-236.5 235.616,-239.812 240.754,-242.756 246.023,-245.349"/>
<polygon fill="midnightblue" stroke="midnightblue" points="164.013,-158.875 155.502,-152.566 158.221,-162.806 164.013,-158.875"/>
</g>
<!-- Node4 -->
<g id="node4" class="node"><title>Node4</title>
<g id="a_node4"><a xlink:href="classsoftwarecontainer_1_1_config_file_error.html" target="_top" xlink:title="An error occured in a Glib operation. ">
<polygon fill="white" stroke="black" points="241.5,-196.5 241.5,-226.5 341.5,-226.5 341.5,-196.5 241.5,-196.5"/>
<text text-anchor="start" x="249.5" y="-214.5" font-family="Helvetica,sans-Serif" font-size="10.00">softwarecontainer::</text>
<text text-anchor="middle" x="291.5" y="-203.5" font-family="Helvetica,sans-Serif" font-size="10.00">ConfigFileError</text>
</a>
</g>
</g>
<!-- Node1&#45;&gt;Node4 -->
<g id="edge3" class="edge"><title>Node1&#45;&gt;Node4</title>
<path fill="none" stroke="midnightblue" d="M178.395,-158.086C193.996,-167.601 213.153,-178.712 231,-187.5 237.295,-190.6 244.096,-193.628 250.771,-196.431"/>
<polygon fill="midnightblue" stroke="midnightblue" points="180.005,-154.967 169.656,-152.697 176.331,-160.925 180.005,-154.967"/>
</g>
<!-- Node5 -->
<g id="node5" class="node"><title>Node5</title>
<g id="a_node5"><a xlink:href="classsoftwarecontainer_1_1_config_internal_error.html" target="_top" xlink:title="An error occured which is an internal error in the config code. ">
<polygon fill="white" stroke="black" points="241.5,-147.5 241.5,-177.5 341.5,-177.5 341.5,-147.5 241.5,-147.5"/>
<text text-anchor="start" x="249.5" y="-165.5" font-family="Helvetica,sans-Serif" font-size="10.00">softwarecontainer::</text>
<text text-anchor="middle" x="291.5" y="-154.5" font-family="Helvetica,sans-Serif" font-size="10.00">ConfigInternalError</text>
</a>
</g>
</g>
<!-- Node1&#45;&gt;Node5 -->
<g id="edge4" class="edge"><title>Node1&#45;&gt;Node5</title>
<path fill="none" stroke="midnightblue" d="M205.267,-147.754C217.278,-149.832 229.784,-151.995 241.398,-154.005"/>
<polygon fill="midnightblue" stroke="midnightblue" points="205.775,-144.29 195.325,-146.034 204.581,-151.187 205.775,-144.29"/>
</g>
<!-- Node6 -->
<g id="node6" class="node"><title>Node6</title>
<g id="a_node6"><a xlink:href="classsoftwarecontainer_1_1_config_mandatory_error.html" target="_top" xlink:title="softwarecontainer::\lConfigMandatoryError">
<polygon fill="white" stroke="black" points="235.5,-98.5 235.5,-128.5 347.5,-128.5 347.5,-98.5 235.5,-98.5"/>
<text text-anchor="start" x="243.5" y="-116.5" font-family="Helvetica,sans-Serif" font-size="10.00">softwarecontainer::</text>
<text text-anchor="middle" x="291.5" y="-105.5" font-family="Helvetica,sans-Serif" font-size="10.00">ConfigMandatoryError</text>
</a>
</g>
</g>
<!-- Node1&#45;&gt;Node6 -->
<g id="edge5" class="edge"><title>Node1&#45;&gt;Node6</title>
<path fill="none" stroke="midnightblue" d="M205.501,-127.618C215.412,-125.971 225.653,-124.27 235.447,-122.644"/>
<polygon fill="midnightblue" stroke="midnightblue" points="204.616,-124.216 195.325,-129.308 205.763,-131.122 204.616,-124.216"/>
</g>
<!-- Node7 -->
<g id="node7" class="node"><title>Node7</title>
<g id="a_node7"><a xlink:href="classsoftwarecontainer_1_1_config_not_found_error.html" target="_top" xlink:title="A requested config item could not be found in any of the config sources. ">
<polygon fill="white" stroke="black" points="237,-49.5 237,-79.5 346,-79.5 346,-49.5 237,-49.5"/>
<text text-anchor="start" x="245" y="-67.5" font-family="Helvetica,sans-Serif" font-size="10.00">softwarecontainer::</text>
<text text-anchor="middle" x="291.5" y="-56.5" font-family="Helvetica,sans-Serif" font-size="10.00">ConfigNotFoundError</text>
</a>
</g>
</g>
<!-- Node1&#45;&gt;Node7 -->
<g id="edge6" class="edge"><title>Node1&#45;&gt;Node7</title>
<path fill="none" stroke="midnightblue" d="M178.779,-117.172C194.329,-107.902 213.334,-97.1029 231,-88.5 237.309,-85.4277 244.116,-82.4141 250.794,-79.6163"/>
<polygon fill="midnightblue" stroke="midnightblue" points="176.819,-114.267 170.059,-122.425 180.431,-120.263 176.819,-114.267"/>
</g>
<!-- Node8 -->
<g id="node8" class="node"><title>Node8</title>
<g id="a_node8"><a xlink:href="classsoftwarecontainer_1_1_config_unknown_error.html" target="_top" xlink:title="A config is found which is not defined in ConfigDefinition. ">
<polygon fill="white" stroke="black" points="238,-0.5 238,-30.5 345,-30.5 345,-0.5 238,-0.5"/>
<text text-anchor="start" x="246" y="-18.5" font-family="Helvetica,sans-Serif" font-size="10.00">softwarecontainer::</text>
<text text-anchor="middle" x="291.5" y="-7.5" font-family="Helvetica,sans-Serif" font-size="10.00">ConfigUnknownError</text>
</a>
</g>
</g>
<!-- Node1&#45;&gt;Node8 -->
<g id="edge7" class="edge"><title>Node1&#45;&gt;Node8</title>
<path fill="none" stroke="midnightblue" d="M161.554,-113.851C176.95,-92.019 202.32,-59.9685 231,-39.5 235.714,-36.1353 240.969,-33.1473 246.349,-30.5217"/>
<polygon fill="midnightblue" stroke="midnightblue" points="158.568,-112.016 155.776,-122.237 164.333,-115.988 158.568,-112.016"/>
</g>
<!-- Node2 -->
<g id="node2" class="node"><title>Node2</title>
<polygon fill="white" stroke="#bfbfbf" points="0,-128 0,-147 59,-147 59,-128 0,-128"/>
<text text-anchor="middle" x="29.5" y="-135" font-family="Helvetica,sans-Serif" font-size="10.00">exception</text>
</g>
<!-- Node2&#45;&gt;Node1 -->
<g id="edge1" class="edge"><title>Node2&#45;&gt;Node1</title>
<path fill="none" stroke="midnightblue" d="M69.1515,-137.5C77.3383,-137.5 86.0864,-137.5 94.6093,-137.5"/>
<polygon fill="midnightblue" stroke="midnightblue" points="69.1409,-134 59.1408,-137.5 69.1408,-141 69.1409,-134"/>
</g>
</g>
</svg>
