<?xml version="1.0" encoding="UTF-8" standalone="no"?>
<!DOCTYPE svg PUBLIC "-//W3C//DTD SVG 1.1//EN"
 "http://www.w3.org/Graphics/SVG/1.1/DTD/svg11.dtd">
<!-- Generated by graphviz version 2.38.0 (20140413.2041)
 -->
<!-- Title: softwarecontainer::FileToolkitWithUndo::createDirectory Pages: 1 -->
<svg width="425pt" height="246pt"
 viewBox="0.00 0.00 425.00 245.50" xmlns="http://www.w3.org/2000/svg" xmlns:xlink="http://www.w3.org/1999/xlink">
<g id="graph0" class="graph" transform="scale(1 1) rotate(0) translate(4 241.5)">
<title>softwarecontainer::FileToolkitWithUndo::createDirectory</title>
<polygon fill="white" stroke="none" points="-4,4 -4,-241.5 421,-241.5 421,4 -4,4"/>
<!-- Node1 -->
<g id="node1" class="node"><title>Node1</title>
<polygon fill="#bfbfbf" stroke="black" points="0,-98.5 0,-139.5 105,-139.5 105,-98.5 0,-98.5"/>
<text text-anchor="start" x="8" y="-127.5" font-family="Helvetica,sans-Serif" font-size="10.00">softwarecontainer::</text>
<text text-anchor="start" x="8" y="-116.5" font-family="Helvetica,sans-Serif" font-size="10.00">FileToolkitWithUndo</text>
<text text-anchor="middle" x="52.5" y="-105.5" font-family="Helvetica,sans-Serif" font-size="10.00">::createDirectory</text>
</g>
<!-- Node2 -->
<g id="node2" class="node"><title>Node2</title>
<g id="a_node2"><a xlink:href="class_container.html#af602c6e290b0f9f5abb78bbc3b0828cd" target="_top" xlink:title="Bind mount a directory from the host into the container. ">
<polygon fill="white" stroke="black" points="146.5,-207 146.5,-237 283.5,-237 283.5,-207 146.5,-207"/>
<text text-anchor="start" x="154.5" y="-225" font-family="Helvetica,sans-Serif" font-size="10.00">Container::bindMountFolder</text>
<text text-anchor="middle" x="215" y="-214" font-family="Helvetica,sans-Serif" font-size="10.00">InContainer</text>
</a>
</g>
</g>
<!-- Node1&#45;&gt;Node2 -->
<g id="edge1" class="edge"><title>Node1&#45;&gt;Node2</title>
<path fill="none" stroke="midnightblue" d="M78.825,-147.173C95.167,-163.914 117.67,-184.455 141,-198 146.769,-201.349 153.069,-204.306 159.473,-206.895"/>
<polygon fill="midnightblue" stroke="midnightblue" points="81.2076,-144.6 71.7691,-139.787 76.1461,-149.436 81.2076,-144.6"/>
</g>
<!-- Node3 -->
<g id="node3" class="node"><title>Node3</title>
<g id="a_node3"><a xlink:href="classsoftwarecontainer_1_1_workspace.html#a3478c4690122b5057dd98df517e629ba" target="_top" xlink:title="Check if the workspace is present and create it if needed. ">
<polygon fill="white" stroke="black" points="141,-158 141,-188 289,-188 289,-158 141,-158"/>
<text text-anchor="start" x="149" y="-176" font-family="Helvetica,sans-Serif" font-size="10.00">softwarecontainer::</text>
<text text-anchor="middle" x="215" y="-165" font-family="Helvetica,sans-Serif" font-size="10.00">Workspace::checkWorkspace</text>
</a>
</g>
</g>
<!-- Node1&#45;&gt;Node3 -->
<g id="edge2" class="edge"><title>Node1&#45;&gt;Node3</title>
<path fill="none" stroke="midnightblue" d="M114.749,-140.11C123.552,-143.112 132.503,-146.147 141,-149 149.726,-151.93 159.052,-155.025 168.02,-157.981"/>
<polygon fill="midnightblue" stroke="midnightblue" points="115.878,-136.797 105.283,-136.875 113.615,-143.421 115.878,-136.797"/>
</g>
<!-- Node4 -->
<g id="node4" class="node"><title>Node4</title>
<g id="a_node4"><a xlink:href="classsoftwarecontainer_1_1_file_toolkit_with_undo.html#a2e2789ba9649ed6abf7a1c3ab3025daa" target="_top" xlink:title="createParentDirectory Recursively tries to create the directory pointed to by path. ">
<polygon fill="white" stroke="black" points="156,-98.5 156,-139.5 274,-139.5 274,-98.5 156,-98.5"/>
<text text-anchor="start" x="164" y="-127.5" font-family="Helvetica,sans-Serif" font-size="10.00">softwarecontainer::</text>
<text text-anchor="start" x="164" y="-116.5" font-family="Helvetica,sans-Serif" font-size="10.00">FileToolkitWithUndo</text>
<text text-anchor="middle" x="215" y="-105.5" font-family="Helvetica,sans-Serif" font-size="10.00">::createParentDirectory</text>
</a>
</g>
</g>
<!-- Node1&#45;&gt;Node4 -->
<g id="edge3" class="edge"><title>Node1&#45;&gt;Node4</title>
<path fill="none" stroke="midnightblue" d="M115.188,-112.413C128.511,-112.175 142.557,-112.198 155.744,-112.481"/>
<polygon fill="midnightblue" stroke="midnightblue" points="115.083,-108.915 105.167,-112.646 115.245,-115.913 115.083,-108.915"/>
</g>
<!-- Node5 -->
<g id="node5" class="node"><title>Node5</title>
<g id="a_node5"><a xlink:href="class_container.html#a0665ab6bbf3018c8cf478d3a0ee7f956" target="_top" xlink:title="Setup the container for preloading. ">
<polygon fill="white" stroke="black" points="165,-60.5 165,-79.5 265,-79.5 265,-60.5 165,-60.5"/>
<text text-anchor="middle" x="215" y="-67.5" font-family="Helvetica,sans-Serif" font-size="10.00">Container::initialize</text>
</a>
</g>
</g>
<!-- Node1&#45;&gt;Node5 -->
<g id="edge5" class="edge"><title>Node1&#45;&gt;Node5</title>
<path fill="none" stroke="midnightblue" d="M114.592,-97.3966C123.418,-94.4674 132.418,-91.5841 141,-89 152.035,-85.6774 164.109,-82.394 175.205,-79.5154"/>
<polygon fill="midnightblue" stroke="midnightblue" points="113.476,-94.0794 105.11,-100.581 115.704,-100.715 113.476,-94.0794"/>
</g>
<!-- Node6 -->
<g id="node6" class="node"><title>Node6</title>
<g id="a_node6"><a xlink:href="classsoftwarecontainer_1_1_file_toolkit_with_undo.html#ab46eccba563b861f100d9ce7fa9ca4d6" target="_top" xlink:title="overlayMount Mount a directory with an overlay on top of it. ">
<polygon fill="white" stroke="black" points="162.5,-0.5 162.5,-41.5 267.5,-41.5 267.5,-0.5 162.5,-0.5"/>
<text text-anchor="start" x="170.5" y="-29.5" font-family="Helvetica,sans-Serif" font-size="10.00">softwarecontainer::</text>
<text text-anchor="start" x="170.5" y="-18.5" font-family="Helvetica,sans-Serif" font-size="10.00">FileToolkitWithUndo</text>
<text text-anchor="middle" x="215" y="-7.5" font-family="Helvetica,sans-Serif" font-size="10.00">::overlayMount</text>
</a>
</g>
</g>
<!-- Node1&#45;&gt;Node6 -->
<g id="edge6" class="edge"><title>Node1&#45;&gt;Node6</title>
<path fill="none" stroke="midnightblue" d="M84.4061,-91.6422C100.527,-78.2603 121.014,-62.5838 141,-51 147.757,-47.0835 155.124,-43.4238 162.495,-40.1007"/>
<polygon fill="midnightblue" stroke="midnightblue" points="81.7859,-89.2736 76.3995,-98.397 86.2997,-94.6239 81.7859,-89.2736"/>
</g>
<!-- Node4&#45;&gt;Node1 -->
<g id="edge4" class="edge"><title>Node4&#45;&gt;Node1</title>
<path fill="none" stroke="midnightblue" d="M145.518,-125.685C131.997,-125.835 118.019,-125.725 105.167,-125.354"/>
<polygon fill="midnightblue" stroke="midnightblue" points="145.802,-129.181 155.744,-125.519 145.688,-122.182 145.802,-129.181"/>
</g>
<!-- Node7 -->
<g id="node7" class="node"><title>Node7</title>
<g id="a_node7"><a xlink:href="class_container.html#a32b1856163054cc997f19aae33babb6a" target="_top" xlink:title="create Creates a new lxc_container and creates it with all the initialization. ">
<polygon fill="white" stroke="black" points="325,-11.5 325,-30.5 417,-30.5 417,-11.5 325,-11.5"/>
<text text-anchor="middle" x="371" y="-18.5" font-family="Helvetica,sans-Serif" font-size="10.00">Container::create</text>
</a>
</g>
</g>
<!-- Node6&#45;&gt;Node7 -->
<g id="edge7" class="edge"><title>Node6&#45;&gt;Node7</title>
<path fill="none" stroke="midnightblue" d="M277.878,-21C293.589,-21 310.175,-21 324.878,-21"/>
<polygon fill="midnightblue" stroke="midnightblue" points="277.708,-17.5001 267.708,-21 277.708,-24.5001 277.708,-17.5001"/>
</g>
</g>
</svg>
