<?xml version="1.0" encoding="UTF-8" standalone="no"?>
<!DOCTYPE svg PUBLIC "-//W3C//DTD SVG 1.1//EN"
 "http://www.w3.org/Graphics/SVG/1.1/DTD/svg11.dtd">
<!-- Generated by graphviz version 2.38.0 (20140413.2041)
 -->
<!-- Title: Gateway::hasContainer Pages: 1 -->
<svg width="524pt" height="139pt"
 viewBox="0.00 0.00 524.00 139.00" xmlns="http://www.w3.org/2000/svg" xmlns:xlink="http://www.w3.org/1999/xlink">
<g id="graph0" class="graph" transform="scale(1 1) rotate(0) translate(4 135)">
<title>Gateway::hasContainer</title>
<polygon fill="white" stroke="none" points="-4,4 -4,-135 520,-135 520,4 -4,4"/>
<!-- Node1 -->
<g id="node1" class="node"><title>Node1</title>
<polygon fill="#bfbfbf" stroke="black" points="0,-62.5 0,-81.5 119,-81.5 119,-62.5 0,-62.5"/>
<text text-anchor="middle" x="59.5" y="-69.5" font-family="Helvetica,sans-Serif" font-size="10.00">Gateway::hasContainer</text>
</g>
<!-- Node2 -->
<g id="node2" class="node"><title>Node2</title>
<g id="a_node2"><a xlink:href="class_gateway.html#aac80886a35b80d8003051e6926b59937" target="_top" xlink:title="Applies any configuration set by setConfig() ">
<polygon fill="white" stroke="black" points="189.5,-100.5 189.5,-119.5 285.5,-119.5 285.5,-100.5 189.5,-100.5"/>
<text text-anchor="middle" x="237.5" y="-107.5" font-family="Helvetica,sans-Serif" font-size="10.00">Gateway::activate</text>
</a>
</g>
</g>
<!-- Node1&#45;&gt;Node2 -->
<g id="edge1" class="edge"><title>Node1&#45;&gt;Node2</title>
<path fill="none" stroke="midnightblue" d="M114.933,-83.7526C139.819,-89.1258 168.919,-95.4086 192.407,-100.48"/>
<polygon fill="midnightblue" stroke="midnightblue" points="115.426,-80.2784 104.912,-81.589 113.948,-87.1207 115.426,-80.2784"/>
</g>
<!-- Node4 -->
<g id="node4" class="node"><title>Node4</title>
<g id="a_node4"><a xlink:href="class_gateway.html#a77348e5ce86b82302764b10e3203b42c" target="_top" xlink:title="Execute the given command in the container. ">
<polygon fill="white" stroke="black" points="164.5,-62.5 164.5,-81.5 310.5,-81.5 310.5,-62.5 164.5,-62.5"/>
<text text-anchor="middle" x="237.5" y="-69.5" font-family="Helvetica,sans-Serif" font-size="10.00">Gateway::executeInContainer</text>
</a>
</g>
</g>
<!-- Node1&#45;&gt;Node4 -->
<g id="edge3" class="edge"><title>Node1&#45;&gt;Node4</title>
<path fill="none" stroke="midnightblue" d="M129.124,-72C140.687,-72 152.72,-72 164.369,-72"/>
<polygon fill="midnightblue" stroke="midnightblue" points="129.105,-68.5001 119.105,-72 129.105,-75.5001 129.105,-68.5001"/>
</g>
<!-- Node5 -->
<g id="node5" class="node"><title>Node5</title>
<g id="a_node5"><a xlink:href="class_gateway.html#a828b2dfa811c7fcce82d34b502e65112" target="_top" xlink:title="Set an environment variable in the associated container. ">
<polygon fill="white" stroke="black" points="155,-24.5 155,-43.5 320,-43.5 320,-24.5 155,-24.5"/>
<text text-anchor="middle" x="237.5" y="-31.5" font-family="Helvetica,sans-Serif" font-size="10.00">Gateway::setEnvironmentVariable</text>
</a>
</g>
</g>
<!-- Node1&#45;&gt;Node5 -->
<g id="edge4" class="edge"><title>Node1&#45;&gt;Node5</title>
<path fill="none" stroke="midnightblue" d="M114.933,-60.2474C139.819,-54.8742 168.919,-48.5914 192.407,-43.5201"/>
<polygon fill="midnightblue" stroke="midnightblue" points="113.948,-56.8793 104.912,-62.411 115.426,-63.7216 113.948,-56.8793"/>
</g>
<!-- Node3 -->
<g id="node3" class="node"><title>Node3</title>
<g id="a_node3"><a xlink:href="classsoftwarecontainer_1_1_software_container.html#af928f299cf15ecda5f625eaecd518f57" target="_top" xlink:title="Set the gateway configuration and activate them. ">
<polygon fill="white" stroke="black" points="358,-89.5 358,-130.5 514,-130.5 514,-89.5 358,-89.5"/>
<text text-anchor="start" x="366" y="-118.5" font-family="Helvetica,sans-Serif" font-size="10.00">softwarecontainer::</text>
<text text-anchor="start" x="366" y="-107.5" font-family="Helvetica,sans-Serif" font-size="10.00">SoftwareContainer::setGateway</text>
<text text-anchor="middle" x="436" y="-96.5" font-family="Helvetica,sans-Serif" font-size="10.00">Configs</text>
</a>
</g>
</g>
<!-- Node2&#45;&gt;Node3 -->
<g id="edge2" class="edge"><title>Node2&#45;&gt;Node3</title>
<path fill="none" stroke="midnightblue" d="M295.722,-110C315.062,-110 336.989,-110 357.627,-110"/>
<polygon fill="midnightblue" stroke="midnightblue" points="295.567,-106.5 285.567,-110 295.567,-113.5 295.567,-106.5"/>
</g>
<!-- Node6 -->
<g id="node6" class="node"><title>Node6</title>
<g id="a_node6"><a xlink:href="class_pulse_gateway.html#a2ffb6fc3e0d690830fa4612111a60985" target="_top" xlink:title="Implements Gateway::activateGateway. ">
<polygon fill="white" stroke="black" points="356,-38.5 356,-57.5 516,-57.5 516,-38.5 356,-38.5"/>
<text text-anchor="middle" x="436" y="-45.5" font-family="Helvetica,sans-Serif" font-size="10.00">PulseGateway::activateGateway</text>
</a>
</g>
</g>
<!-- Node5&#45;&gt;Node6 -->
<g id="edge5" class="edge"><title>Node5&#45;&gt;Node6</title>
<path fill="none" stroke="midnightblue" d="M330.154,-40.53C338.735,-41.1414 347.384,-41.7576 355.837,-42.3599"/>
<polygon fill="midnightblue" stroke="midnightblue" points="330.35,-37.0352 320.127,-39.8156 329.853,-44.0175 330.35,-37.0352"/>
</g>
<!-- Node7 -->
<g id="node7" class="node"><title>Node7</title>
<g id="a_node7"><a xlink:href="class_d_bus_gateway.html#ab974b6b05b985d64ba5609c64e8b13fb" target="_top" xlink:title="Implements Gateway::activateGateway. ">
<polygon fill="white" stroke="black" points="356,-0.5 356,-19.5 516,-19.5 516,-0.5 356,-0.5"/>
<text text-anchor="middle" x="436" y="-7.5" font-family="Helvetica,sans-Serif" font-size="10.00">DBusGateway::activateGateway</text>
</a>
</g>
</g>
<!-- Node5&#45;&gt;Node7 -->
<g id="edge6" class="edge"><title>Node5&#45;&gt;Node7</title>
<path fill="none" stroke="midnightblue" d="M326.572,-23.2431C336.765,-21.9981 347.106,-20.7351 357.15,-19.5084"/>
<polygon fill="midnightblue" stroke="midnightblue" points="325.946,-19.7935 316.444,-24.4801 326.795,-26.7418 325.946,-19.7935"/>
</g>
</g>
</svg>
