<?xml version="1.0" encoding="UTF-8" standalone="no"?>
<!DOCTYPE svg PUBLIC "-//W3C//DTD SVG 1.1//EN"
 "http://www.w3.org/Graphics/SVG/1.1/DTD/svg11.dtd">
<!-- Generated by graphviz version 2.38.0 (20140413.2041)
 -->
<!-- Title: softwarecontainer::DBusGatewayInstance::DBusGatewayInstance Pages: 1 -->
<svg width="414pt" height="103pt"
 viewBox="0.00 0.00 414.00 102.91" xmlns="http://www.w3.org/2000/svg" xmlns:xlink="http://www.w3.org/1999/xlink">
<g id="graph0" class="graph" transform="scale(1 1) rotate(0) translate(4 98.9103)">
<title>softwarecontainer::DBusGatewayInstance::DBusGatewayInstance</title>
<polygon fill="white" stroke="none" points="-4,4 -4,-98.9103 410,-98.9103 410,4 -4,4"/>
<!-- Node1 -->
<g id="node1" class="node"><title>Node1</title>
<polygon fill="#bfbfbf" stroke="black" points="0,-44 0,-85 124,-85 124,-44 0,-44"/>
<text text-anchor="start" x="8" y="-73" font-family="Helvetica,sans-Serif" font-size="10.00">softwarecontainer::</text>
<text text-anchor="start" x="8" y="-62" font-family="Helvetica,sans-Serif" font-size="10.00">DBusGatewayInstance</text>
<text text-anchor="middle" x="62" y="-51" font-family="Helvetica,sans-Serif" font-size="10.00">::DBusGatewayInstance</text>
</g>
<!-- Node2 -->
<g id="node2" class="node"><title>Node2</title>
<g id="a_node2"><a xlink:href="classsoftwarecontainer_1_1_gateway.html#ab36bbea283733b3714fa07d8c9d68c87" target="_top" xlink:title="Returns the ID of the gateway. ">
<polygon fill="white" stroke="black" points="306,-46.5 306,-76.5 406,-76.5 406,-46.5 306,-46.5"/>
<text text-anchor="start" x="314" y="-64.5" font-family="Helvetica,sans-Serif" font-size="10.00">softwarecontainer::</text>
<text text-anchor="middle" x="356" y="-53.5" font-family="Helvetica,sans-Serif" font-size="10.00">Gateway::id</text>
</a>
</g>
</g>
<!-- Node1&#45;&gt;Node2 -->
<g id="edge1" class="edge"><title>Node1&#45;&gt;Node2</title>
<path fill="none" stroke="midnightblue" d="M124.123,-82.7387C135.925,-85.5513 148.268,-88.0125 160,-89.5 208.501,-95.6496 221.729,-97.2459 270,-89.5 282.71,-87.4605 296.096,-83.8083 308.39,-79.801"/>
<polygon fill="midnightblue" stroke="midnightblue" points="309.643,-83.0717 317.981,-76.535 307.386,-76.4454 309.643,-83.0717"/>
</g>
<!-- Node3 -->
<g id="node3" class="node"><title>Node3</title>
<g id="a_node3"><a xlink:href="classsoftwarecontainer_1_1_gateway.html#ad7679d3dce9fe0e239f3614d6ee667c5" target="_top" xlink:title="Is the gateway activated or not? ">
<polygon fill="white" stroke="black" points="160,-49.5 160,-79.5 270,-79.5 270,-49.5 160,-49.5"/>
<text text-anchor="start" x="168" y="-67.5" font-family="Helvetica,sans-Serif" font-size="10.00">softwarecontainer::</text>
<text text-anchor="middle" x="215" y="-56.5" font-family="Helvetica,sans-Serif" font-size="10.00">Gateway::isActivated</text>
</a>
</g>
</g>
<!-- Node1&#45;&gt;Node3 -->
<g id="edge2" class="edge"><title>Node1&#45;&gt;Node3</title>
<path fill="none" stroke="midnightblue" d="M124.417,-64.5C132.776,-64.5 141.374,-64.5 149.781,-64.5"/>
<polygon fill="midnightblue" stroke="midnightblue" points="149.912,-68.0001 159.912,-64.5 149.912,-61.0001 149.912,-68.0001"/>
</g>
<!-- Node4 -->
<g id="node4" class="node"><title>Node4</title>
<g id="a_node4"><a xlink:href="classsoftwarecontainer_1_1_gateway.html#af38a5c8ee0ff839a0134eefce61ba7a3" target="_top" xlink:title="Restore system to the state prior to launching of gateway. ">
<polygon fill="white" stroke="black" points="164.5,-0.5 164.5,-30.5 265.5,-30.5 265.5,-0.5 164.5,-0.5"/>
<text text-anchor="start" x="172.5" y="-18.5" font-family="Helvetica,sans-Serif" font-size="10.00">softwarecontainer::</text>
<text text-anchor="middle" x="215" y="-7.5" font-family="Helvetica,sans-Serif" font-size="10.00">Gateway::teardown</text>
</a>
</g>
</g>
<!-- Node1&#45;&gt;Node4 -->
<g id="edge3" class="edge"><title>Node1&#45;&gt;Node4</title>
<path fill="none" stroke="midnightblue" d="M124.417,-44.5698C135.42,-40.9995 146.836,-37.2949 157.686,-33.7741"/>
<polygon fill="midnightblue" stroke="midnightblue" points="159.032,-37.0172 167.463,-30.6014 156.871,-30.359 159.032,-37.0172"/>
</g>
<!-- Node4&#45;&gt;Node2 -->
<g id="edge4" class="edge"><title>Node4&#45;&gt;Node2</title>
<path fill="none" stroke="midnightblue" d="M261.514,-30.5621C273.754,-34.6128 287.125,-39.0379 299.829,-43.2421"/>
<polygon fill="midnightblue" stroke="midnightblue" points="298.791,-46.585 309.384,-46.404 300.99,-39.9394 298.791,-46.585"/>
</g>
</g>
</svg>
