<?xml version="1.0" encoding="UTF-8" standalone="no"?>
<!DOCTYPE svg PUBLIC "-//W3C//DTD SVG 1.1//EN"
 "http://www.w3.org/Graphics/SVG/1.1/DTD/svg11.dtd">
<!-- Generated by graphviz version 2.38.0 (20140413.2041)
 -->
<!-- Title: softwarecontainer::FunctionJob Pages: 1 -->
<svg width="113pt" height="253pt"
 viewBox="0.00 0.00 113.00 253.00" xmlns="http://www.w3.org/2000/svg" xmlns:xlink="http://www.w3.org/1999/xlink">
<g id="graph0" class="graph" transform="scale(1 1) rotate(0) translate(4 249)">
<title>softwarecontainer::FunctionJob</title>
<polygon fill="white" stroke="none" points="-4,4 -4,-249 109,-249 109,4 -4,4"/>
<!-- Node1 -->
<g id="node1" class="node"><title>Node1</title>
<polygon fill="#bfbfbf" stroke="black" points="2.5,-0.5 2.5,-30.5 102.5,-30.5 102.5,-0.5 2.5,-0.5"/>
<text text-anchor="start" x="10.5" y="-18.5" font-family="Helvetica,sans-Serif" font-size="10.00">softwarecontainer::</text>
<text text-anchor="middle" x="52.5" y="-7.5" font-family="Helvetica,sans-Serif" font-size="10.00">FunctionJob</text>
</g>
<!-- Node2 -->
<g id="node2" class="node"><title>Node2</title>
<g id="a_node2"><a xlink:href="classsoftwarecontainer_1_1_job_abstract.html" target="_top" xlink:title="Abstract class for jobs which get executed inside a container. ">
<polygon fill="white" stroke="black" points="2.5,-68.5 2.5,-98.5 102.5,-98.5 102.5,-68.5 2.5,-68.5"/>
<text text-anchor="start" x="10.5" y="-86.5" font-family="Helvetica,sans-Serif" font-size="10.00">softwarecontainer::</text>
<text text-anchor="middle" x="52.5" y="-75.5" font-family="Helvetica,sans-Serif" font-size="10.00">JobAbstract</text>
</a>
</g>
</g>
<!-- Node2&#45;&gt;Node1 -->
<g id="edge1" class="edge"><title>Node2&#45;&gt;Node1</title>
<path fill="none" stroke="midnightblue" d="M52.5,-58.0322C52.5,-48.8606 52.5,-38.7449 52.5,-30.7931"/>
<polygon fill="midnightblue" stroke="midnightblue" points="49.0001,-58.1789 52.5,-68.179 56.0001,-58.179 49.0001,-58.1789"/>
</g>
<!-- Node3 -->
<g id="node3" class="node"><title>Node3</title>
<g id="a_node3"><a xlink:href="classsoftwarecontainer_1_1_software_container.html" target="_top" xlink:title="softwarecontainer::\lSoftwareContainer">
<polygon fill="white" stroke="black" points="2.5,-146.5 2.5,-176.5 102.5,-176.5 102.5,-146.5 2.5,-146.5"/>
<text text-anchor="start" x="10.5" y="-164.5" font-family="Helvetica,sans-Serif" font-size="10.00">softwarecontainer::</text>
<text text-anchor="middle" x="52.5" y="-153.5" font-family="Helvetica,sans-Serif" font-size="10.00">SoftwareContainer</text>
</a>
</g>
</g>
<!-- Node3&#45;&gt;Node2 -->
<g id="edge2" class="edge"><title>Node3&#45;&gt;Node2</title>
<path fill="none" stroke="#9a32cd" stroke-dasharray="5,2" d="M52.5,-136.09C52.5,-123.757 52.5,-109.224 52.5,-98.7309"/>
<polygon fill="#9a32cd" stroke="#9a32cd" points="49.0001,-136.205 52.5,-146.205 56.0001,-136.205 49.0001,-136.205"/>
<text text-anchor="middle" x="66.5" y="-120" font-family="Helvetica,sans-Serif" font-size="10.00"> m_sc</text>
</g>
<!-- Node4 -->
<g id="node4" class="node"><title>Node4</title>
<g id="a_node4"><a xlink:href="classsoftwarecontainer_1_1_file_toolkit_with_undo.html" target="_top" xlink:title="softwarecontainer::\lFileToolkitWithUndo">
<polygon fill="white" stroke="black" points="0,-214.5 0,-244.5 105,-244.5 105,-214.5 0,-214.5"/>
<text text-anchor="start" x="8" y="-232.5" font-family="Helvetica,sans-Serif" font-size="10.00">softwarecontainer::</text>
<text text-anchor="middle" x="52.5" y="-221.5" font-family="Helvetica,sans-Serif" font-size="10.00">FileToolkitWithUndo</text>
</a>
</g>
</g>
<!-- Node4&#45;&gt;Node3 -->
<g id="edge3" class="edge"><title>Node4&#45;&gt;Node3</title>
<path fill="none" stroke="#8b1a1a" d="M52.5,-204.032C52.5,-194.861 52.5,-184.745 52.5,-176.793"/>
<polygon fill="#8b1a1a" stroke="#8b1a1a" points="49.0001,-204.179 52.5,-214.179 56.0001,-204.179 49.0001,-204.179"/>
</g>
</g>
</svg>
