<?xml version="1.0" encoding="UTF-8" standalone="no"?>
<!DOCTYPE svg PUBLIC "-//W3C//DTD SVG 1.1//EN"
 "http://www.w3.org/Graphics/SVG/1.1/DTD/svg11.dtd">
<!-- Generated by graphviz version 2.38.0 (20140413.2041)
 -->
<!-- Title: softwarecontainer::CgroupsGatewayError Pages: 1 -->
<svg width="526pt" height="137pt"
 viewBox="0.00 0.00 526.00 137.00" xmlns="http://www.w3.org/2000/svg" xmlns:xlink="http://www.w3.org/1999/xlink">
<g id="graph0" class="graph" transform="scale(1 1) rotate(0) translate(4 133)">
<title>softwarecontainer::CgroupsGatewayError</title>
<polygon fill="white" stroke="none" points="-4,4 -4,-133 522,-133 522,4 -4,4"/>
<!-- Node1 -->
<g id="node1" class="node"><title>Node1</title>
<polygon fill="#bfbfbf" stroke="black" points="269,-49.5 269,-79.5 382,-79.5 382,-49.5 269,-49.5"/>
<text text-anchor="start" x="277" y="-67.5" font-family="Helvetica,sans-Serif" font-size="10.00">softwarecontainer::</text>
<text text-anchor="middle" x="325.5" y="-56.5" font-family="Helvetica,sans-Serif" font-size="10.00">CgroupsGatewayError</text>
</g>
<!-- Node4 -->
<g id="node4" class="node"><title>Node4</title>
<g id="a_node4"><a xlink:href="classsoftwarecontainer_1_1_bad_suffix_error.html" target="_top" xlink:title="softwarecontainer::\lBadSuffixError">
<polygon fill="white" stroke="black" points="418,-98.5 418,-128.5 518,-128.5 518,-98.5 418,-98.5"/>
<text text-anchor="start" x="426" y="-116.5" font-family="Helvetica,sans-Serif" font-size="10.00">softwarecontainer::</text>
<text text-anchor="middle" x="468" y="-105.5" font-family="Helvetica,sans-Serif" font-size="10.00">BadSuffixError</text>
</a>
</g>
</g>
<!-- Node1&#45;&gt;Node4 -->
<g id="edge3" class="edge"><title>Node1&#45;&gt;Node4</title>
<path fill="none" stroke="midnightblue" d="M379.648,-83.0355C394.158,-88.0959 409.704,-93.5177 423.6,-98.3641"/>
<polygon fill="midnightblue" stroke="midnightblue" points="380.396,-79.5897 369.801,-79.6014 378.091,-86.1993 380.396,-79.5897"/>
</g>
<!-- Node5 -->
<g id="node5" class="node"><title>Node5</title>
<g id="a_node5"><a xlink:href="classsoftwarecontainer_1_1_j_son_error.html" target="_top" xlink:title="softwarecontainer::\lJSonError">
<polygon fill="white" stroke="black" points="418,-49.5 418,-79.5 518,-79.5 518,-49.5 418,-49.5"/>
<text text-anchor="start" x="426" y="-67.5" font-family="Helvetica,sans-Serif" font-size="10.00">softwarecontainer::</text>
<text text-anchor="middle" x="468" y="-56.5" font-family="Helvetica,sans-Serif" font-size="10.00">JSonError</text>
</a>
</g>
</g>
<!-- Node1&#45;&gt;Node5 -->
<g id="edge4" class="edge"><title>Node1&#45;&gt;Node5</title>
<path fill="none" stroke="midnightblue" d="M392.102,-64.5C400.747,-64.5 409.486,-64.5 417.792,-64.5"/>
<polygon fill="midnightblue" stroke="midnightblue" points="392.029,-61.0001 382.029,-64.5 392.029,-68.0001 392.029,-61.0001"/>
</g>
<!-- Node6 -->
<g id="node6" class="node"><title>Node6</title>
<g id="a_node6"><a xlink:href="classsoftwarecontainer_1_1_limit_range_error.html" target="_top" xlink:title="softwarecontainer::\lLimitRangeError">
<polygon fill="white" stroke="black" points="418,-0.5 418,-30.5 518,-30.5 518,-0.5 418,-0.5"/>
<text text-anchor="start" x="426" y="-18.5" font-family="Helvetica,sans-Serif" font-size="10.00">softwarecontainer::</text>
<text text-anchor="middle" x="468" y="-7.5" font-family="Helvetica,sans-Serif" font-size="10.00">LimitRangeError</text>
</a>
</g>
</g>
<!-- Node1&#45;&gt;Node6 -->
<g id="edge5" class="edge"><title>Node1&#45;&gt;Node6</title>
<path fill="none" stroke="midnightblue" d="M379.648,-45.9645C394.158,-40.9041 409.704,-35.4823 423.6,-30.6359"/>
<polygon fill="midnightblue" stroke="midnightblue" points="378.091,-42.8007 369.801,-49.3986 380.396,-49.4103 378.091,-42.8007"/>
</g>
<!-- Node2 -->
<g id="node2" class="node"><title>Node2</title>
<g id="a_node2"><a xlink:href="classsoftwarecontainer_1_1_software_container_error.html" target="_top" xlink:title="softwarecontainer::\lSoftwareContainerError">
<polygon fill="white" stroke="black" points="114,-49.5 114,-79.5 233,-79.5 233,-49.5 114,-49.5"/>
<text text-anchor="start" x="122" y="-67.5" font-family="Helvetica,sans-Serif" font-size="10.00">softwarecontainer::</text>
<text text-anchor="middle" x="173.5" y="-56.5" font-family="Helvetica,sans-Serif" font-size="10.00">SoftwareContainerError</text>
</a>
</g>
</g>
<!-- Node2&#45;&gt;Node1 -->
<g id="edge1" class="edge"><title>Node2&#45;&gt;Node1</title>
<path fill="none" stroke="midnightblue" d="M243.568,-64.5C252.008,-64.5 260.547,-64.5 268.757,-64.5"/>
<polygon fill="midnightblue" stroke="midnightblue" points="243.353,-61.0001 233.353,-64.5 243.353,-68.0001 243.353,-61.0001"/>
</g>
<!-- Node3 -->
<g id="node3" class="node"><title>Node3</title>
<polygon fill="white" stroke="#bfbfbf" points="0,-55 0,-74 78,-74 78,-55 0,-55"/>
<text text-anchor="middle" x="39" y="-62" font-family="Helvetica,sans-Serif" font-size="10.00">std::exception</text>
</g>
<!-- Node3&#45;&gt;Node2 -->
<g id="edge2" class="edge"><title>Node3&#45;&gt;Node2</title>
<path fill="none" stroke="midnightblue" d="M88.4181,-64.5C96.5843,-64.5 105.141,-64.5 113.54,-64.5"/>
<polygon fill="midnightblue" stroke="midnightblue" points="88.3245,-61.0001 78.3245,-64.5 88.3245,-68.0001 88.3245,-61.0001"/>
</g>
</g>
</svg>
