<?xml version="1.0" encoding="UTF-8" standalone="no"?>
<!DOCTYPE svg PUBLIC "-//W3C//DTD SVG 1.1//EN"
 "http://www.w3.org/Graphics/SVG/1.1/DTD/svg11.dtd">
<!-- Generated by graphviz version 2.38.0 (20140413.2041)
 -->
<!-- Title: ObservableProperty&lt; Type &gt; Pages: 1 -->
<svg width="273pt" height="195pt"
 viewBox="0.00 0.00 272.50 195.00" xmlns="http://www.w3.org/2000/svg" xmlns:xlink="http://www.w3.org/1999/xlink">
<g id="graph0" class="graph" transform="scale(1 1) rotate(0) translate(4 191)">
<title>ObservableProperty&lt; Type &gt;</title>
<polygon fill="white" stroke="none" points="-4,4 -4,-191 268.5,-191 268.5,4 -4,4"/>
<!-- Node1 -->
<g id="node1" class="node"><title>Node1</title>
<polygon fill="#bfbfbf" stroke="black" points="87,-156.5 87,-186.5 190,-186.5 190,-156.5 87,-156.5"/>
<text text-anchor="start" x="95" y="-174.5" font-family="Helvetica,sans-Serif" font-size="10.00">ObservableProperty</text>
<text text-anchor="middle" x="138.5" y="-163.5" font-family="Helvetica,sans-Serif" font-size="10.00">&lt; Type &gt;</text>
</g>
<!-- Node2 -->
<g id="node2" class="node"><title>Node2</title>
<g id="a_node2"><a xlink:href="class_observable_writable_property.html" target="_top" xlink:title="ObservableWritableProperty\l\&lt; Type \&gt;">
<polygon fill="white" stroke="black" points="0,-78.5 0,-108.5 139,-108.5 139,-78.5 0,-78.5"/>
<text text-anchor="start" x="8" y="-96.5" font-family="Helvetica,sans-Serif" font-size="10.00">ObservableWritableProperty</text>
<text text-anchor="middle" x="69.5" y="-85.5" font-family="Helvetica,sans-Serif" font-size="10.00">&lt; Type &gt;</text>
</a>
</g>
</g>
<!-- Node1&#45;&gt;Node2 -->
<g id="edge1" class="edge"><title>Node1&#45;&gt;Node2</title>
<path fill="none" stroke="midnightblue" d="M118.681,-148.671C107.025,-135.832 92.6201,-119.966 82.4202,-108.731"/>
<polygon fill="midnightblue" stroke="midnightblue" points="116.208,-151.154 125.522,-156.205 121.391,-146.448 116.208,-151.154"/>
</g>
<!-- Node4 -->
<g id="node4" class="node"><title>Node4</title>
<g id="a_node4"><a xlink:href="class_observable_property.html" target="_top" xlink:title="ObservableProperty\l\&lt; ContainerState \&gt;">
<polygon fill="white" stroke="black" points="157,-78.5 157,-108.5 260,-108.5 260,-78.5 157,-78.5"/>
<text text-anchor="start" x="165" y="-96.5" font-family="Helvetica,sans-Serif" font-size="10.00">ObservableProperty</text>
<text text-anchor="middle" x="208.5" y="-85.5" font-family="Helvetica,sans-Serif" font-size="10.00">&lt; ContainerState &gt;</text>
</a>
</g>
</g>
<!-- Node1&#45;&gt;Node4 -->
<g id="edge3" class="edge"><title>Node1&#45;&gt;Node4</title>
<path fill="none" stroke="orange" stroke-dasharray="5,2" d="M158.606,-148.671C170.431,-135.832 185.045,-119.966 195.393,-108.731"/>
<polygon fill="orange" stroke="orange" points="155.867,-146.478 151.666,-156.205 161.016,-151.221 155.867,-146.478"/>
<text text-anchor="middle" x="221" y="-130" font-family="Helvetica,sans-Serif" font-size="10.00"> &lt; ContainerState &gt;</text>
</g>
<!-- Node3 -->
<g id="node3" class="node"><title>Node3</title>
<g id="a_node3"><a xlink:href="class_observable_writable_property.html" target="_top" xlink:title="ObservableWritableProperty\l\&lt; ContainerState \&gt;">
<polygon fill="white" stroke="black" points="73,-0.5 73,-30.5 212,-30.5 212,-0.5 73,-0.5"/>
<text text-anchor="start" x="81" y="-18.5" font-family="Helvetica,sans-Serif" font-size="10.00">ObservableWritableProperty</text>
<text text-anchor="middle" x="142.5" y="-7.5" font-family="Helvetica,sans-Serif" font-size="10.00">&lt; ContainerState &gt;</text>
</a>
</g>
</g>
<!-- Node2&#45;&gt;Node3 -->
<g id="edge2" class="edge"><title>Node2&#45;&gt;Node3</title>
<path fill="none" stroke="orange" stroke-dasharray="5,2" d="M76.1851,-68.6674C78.9116,-61.7965 82.6053,-54.6406 87.5,-49 93.8968,-41.6283 102.395,-35.4844 110.794,-30.5951"/>
<polygon fill="orange" stroke="orange" points="72.8076,-67.7257 72.8552,-78.3204 79.4249,-70.0084 72.8076,-67.7257"/>
<text text-anchor="middle" x="131" y="-52" font-family="Helvetica,sans-Serif" font-size="10.00"> &lt; ContainerState &gt;</text>
</g>
<!-- Node4&#45;&gt;Node3 -->
<g id="edge4" class="edge"><title>Node4&#45;&gt;Node3</title>
<path fill="none" stroke="midnightblue" d="M194.315,-69.8099C189.602,-62.878 184.115,-55.4007 178.5,-49 172.836,-42.5436 165.971,-36.0727 159.76,-30.6239"/>
<polygon fill="midnightblue" stroke="midnightblue" points="191.401,-71.7489 199.824,-78.1766 197.248,-67.8996 191.401,-71.7489"/>
</g>
</g>
</svg>
