<?xml version="1.0" encoding="UTF-8" standalone="no"?>
<!DOCTYPE svg PUBLIC "-//W3C//DTD SVG 1.1//EN"
 "http://www.w3.org/Graphics/SVG/1.1/DTD/svg11.dtd">
<!-- Generated by graphviz version 2.38.0 (20140413.2041)
 -->
<!-- Title: softwarecontainer::JSONParser::read Pages: 1 -->
<svg width="665pt" height="383pt"
 viewBox="0.00 0.00 665.00 382.50" xmlns="http://www.w3.org/2000/svg" xmlns:xlink="http://www.w3.org/1999/xlink">
<g id="graph0" class="graph" transform="scale(1 1) rotate(0) translate(4 378.5)">
<title>softwarecontainer::JSONParser::read</title>
<polygon fill="white" stroke="none" points="-4,4 -4,-378.5 661,-378.5 661,4 -4,4"/>
<!-- Node1 -->
<g id="node1" class="node"><title>Node1</title>
<polygon fill="#bfbfbf" stroke="black" points="0,-175 0,-205 100,-205 100,-175 0,-175"/>
<text text-anchor="start" x="8" y="-193" font-family="Helvetica,sans-Serif" font-size="10.00">softwarecontainer::</text>
<text text-anchor="middle" x="50" y="-182" font-family="Helvetica,sans-Serif" font-size="10.00">JSONParser::read</text>
</g>
<!-- Node2 -->
<g id="node2" class="node"><title>Node2</title>
<g id="a_node2"><a xlink:href="class_network_gateway_parser.html#ad6e18790fde52761a094651adcfd2c36" target="_top" xlink:title="Parses NetworkGateway configuration into IPTableEntry. ">
<polygon fill="white" stroke="black" points="136,-344 136,-374 316,-374 316,-344 136,-344"/>
<text text-anchor="start" x="144" y="-362" font-family="Helvetica,sans-Serif" font-size="10.00">NetworkGatewayParser</text>
<text text-anchor="middle" x="226" y="-351" font-family="Helvetica,sans-Serif" font-size="10.00">::parseNetworkGatewayConfiguration</text>
</a>
</g>
</g>
<!-- Node1&#45;&gt;Node2 -->
<g id="edge1" class="edge"><title>Node1&#45;&gt;Node2</title>
<path fill="none" stroke="midnightblue" d="M58.942,-215.027C70.5777,-247.599 95.3967,-304.006 136,-335 140.452,-338.399 145.351,-341.317 150.49,-343.822"/>
<polygon fill="midnightblue" stroke="midnightblue" points="62.1787,-213.675 55.6241,-205.351 55.5572,-215.946 62.1787,-213.675"/>
</g>
<!-- Node4 -->
<g id="node4" class="node"><title>Node4</title>
<g id="a_node4"><a xlink:href="class_environment_gateway.html#a6d276aa7c522c95276243f327f49abae" target="_top" xlink:title="Gateway specific parsing of config elements. ">
<polygon fill="white" stroke="black" points="171,-295 171,-325 281,-325 281,-295 171,-295"/>
<text text-anchor="start" x="179" y="-313" font-family="Helvetica,sans-Serif" font-size="10.00">EnvironmentGateway</text>
<text text-anchor="middle" x="226" y="-302" font-family="Helvetica,sans-Serif" font-size="10.00">::readConfigElement</text>
</a>
</g>
</g>
<!-- Node1&#45;&gt;Node4 -->
<g id="edge3" class="edge"><title>Node1&#45;&gt;Node4</title>
<path fill="none" stroke="midnightblue" d="M65.8817,-213.572C80.9486,-235.523 106.23,-267.553 136,-286 146.475,-292.491 158.7,-297.248 170.675,-300.728"/>
<polygon fill="midnightblue" stroke="midnightblue" points="68.7132,-211.509 60.2508,-205.134 62.8907,-215.395 68.7132,-211.509"/>
</g>
<!-- Node5 -->
<g id="node5" class="node"><title>Node5</title>
<g id="a_node5"><a xlink:href="class_wayland_gateway.html#aa5d2ff63631d237339cd7ec7b25f7517" target="_top" xlink:title="Gateway specific parsing of config elements. ">
<polygon fill="white" stroke="black" points="152.5,-246 152.5,-276 299.5,-276 299.5,-246 152.5,-246"/>
<text text-anchor="start" x="160.5" y="-264" font-family="Helvetica,sans-Serif" font-size="10.00">WaylandGateway::readConfig</text>
<text text-anchor="middle" x="226" y="-253" font-family="Helvetica,sans-Serif" font-size="10.00">Element</text>
</a>
</g>
</g>
<!-- Node1&#45;&gt;Node5 -->
<g id="edge4" class="edge"><title>Node1&#45;&gt;Node5</title>
<path fill="none" stroke="midnightblue" d="M83.4462,-210.367C98.9247,-219.444 117.966,-229.708 136,-237 144.16,-240.299 152.922,-243.289 161.65,-245.949"/>
<polygon fill="midnightblue" stroke="midnightblue" points="85.1591,-207.314 74.7789,-205.192 81.5702,-213.324 85.1591,-207.314"/>
</g>
<!-- Node6 -->
<g id="node6" class="node"><title>Node6</title>
<g id="a_node6"><a xlink:href="class_cgroups_gateway.html#a6b77885877877af00df49b5aa539592d" target="_top" xlink:title="Gateway specific parsing of config elements. ">
<polygon fill="white" stroke="black" points="153,-197 153,-227 299,-227 299,-197 153,-197"/>
<text text-anchor="start" x="161" y="-215" font-family="Helvetica,sans-Serif" font-size="10.00">CgroupsGateway::readConfig</text>
<text text-anchor="middle" x="226" y="-204" font-family="Helvetica,sans-Serif" font-size="10.00">Element</text>
</a>
</g>
</g>
<!-- Node1&#45;&gt;Node6 -->
<g id="edge5" class="edge"><title>Node1&#45;&gt;Node6</title>
<path fill="none" stroke="midnightblue" d="M110.558,-197.53C124.134,-199.247 138.703,-201.089 152.744,-202.864"/>
<polygon fill="midnightblue" stroke="midnightblue" points="110.756,-194.028 100.396,-196.245 109.878,-200.972 110.756,-194.028"/>
</g>
<!-- Node7 -->
<g id="node7" class="node"><title>Node7</title>
<g id="a_node7"><a xlink:href="class_file_gateway.html#a4b3a520a2cce350f9b143138fe47ae29" target="_top" xlink:title="Gateway specific parsing of config elements. ">
<polygon fill="white" stroke="black" points="145.5,-158.5 145.5,-177.5 306.5,-177.5 306.5,-158.5 145.5,-158.5"/>
<text text-anchor="middle" x="226" y="-165.5" font-family="Helvetica,sans-Serif" font-size="10.00">FileGateway::readConfigElement</text>
</a>
</g>
</g>
<!-- Node1&#45;&gt;Node7 -->
<g id="edge6" class="edge"><title>Node1&#45;&gt;Node7</title>
<path fill="none" stroke="midnightblue" d="M110.359,-182.495C123.045,-180.891 136.607,-179.176 149.8,-177.508"/>
<polygon fill="midnightblue" stroke="midnightblue" points="109.878,-179.028 100.396,-183.755 110.756,-185.972 109.878,-179.028"/>
</g>
<!-- Node8 -->
<g id="node8" class="node"><title>Node8</title>
<g id="a_node8"><a xlink:href="class_pulse_gateway.html#a844a0451090129a4e19459e26afc8eca" target="_top" xlink:title="Gateway specific parsing of config elements. ">
<polygon fill="white" stroke="black" points="159,-109 159,-139 293,-139 293,-109 159,-109"/>
<text text-anchor="start" x="167" y="-127" font-family="Helvetica,sans-Serif" font-size="10.00">PulseGateway::readConfig</text>
<text text-anchor="middle" x="226" y="-116" font-family="Helvetica,sans-Serif" font-size="10.00">Element</text>
</a>
</g>
</g>
<!-- Node1&#45;&gt;Node8 -->
<g id="edge7" class="edge"><title>Node1&#45;&gt;Node8</title>
<path fill="none" stroke="midnightblue" d="M88.382,-170.215C102.987,-162.953 120.035,-155.039 136,-149 145.457,-145.423 155.65,-142.092 165.643,-139.103"/>
<polygon fill="midnightblue" stroke="midnightblue" points="86.5203,-167.235 79.1727,-174.868 89.6767,-173.483 86.5203,-167.235"/>
</g>
<!-- Node9 -->
<g id="node9" class="node"><title>Node9</title>
<g id="a_node9"><a xlink:href="class_device_node_gateway.html#a2dd67af3fe7d8a0fcd26abde8c1e3e74" target="_top" xlink:title="Gateway specific parsing of config elements. ">
<polygon fill="white" stroke="black" points="168,-60 168,-90 284,-90 284,-60 168,-60"/>
<text text-anchor="start" x="176" y="-78" font-family="Helvetica,sans-Serif" font-size="10.00">DeviceNodeGateway::</text>
<text text-anchor="middle" x="226" y="-67" font-family="Helvetica,sans-Serif" font-size="10.00">readConfigElement</text>
</a>
</g>
</g>
<!-- Node1&#45;&gt;Node9 -->
<g id="edge8" class="edge"><title>Node1&#45;&gt;Node9</title>
<path fill="none" stroke="midnightblue" d="M67.2405,-166.679C82.6716,-146.217 107.678,-117.127 136,-100 145.613,-94.1863 156.624,-89.6828 167.548,-86.2076"/>
<polygon fill="midnightblue" stroke="midnightblue" points="64.3304,-164.729 61.2317,-174.861 69.9722,-168.873 64.3304,-164.729"/>
</g>
<!-- Node10 -->
<g id="node10" class="node"><title>Node10</title>
<g id="a_node10"><a xlink:href="classsoftwarecontainer_1_1_software_container_agent.html#aab15b844d7ed80339448a2005ea1cc9d" target="_top" xlink:title="Tries to read a config in json format for a container. ">
<polygon fill="white" stroke="black" points="164.5,-0.5 164.5,-41.5 287.5,-41.5 287.5,-0.5 164.5,-0.5"/>
<text text-anchor="start" x="172.5" y="-29.5" font-family="Helvetica,sans-Serif" font-size="10.00">softwarecontainer::</text>
<text text-anchor="start" x="172.5" y="-18.5" font-family="Helvetica,sans-Serif" font-size="10.00">SoftwareContainerAgent</text>
<text text-anchor="middle" x="226" y="-7.5" font-family="Helvetica,sans-Serif" font-size="10.00">::readConfigElement</text>
</a>
</g>
</g>
<!-- Node1&#45;&gt;Node10 -->
<g id="edge9" class="edge"><title>Node1&#45;&gt;Node10</title>
<path fill="none" stroke="midnightblue" d="M59.7676,-165.243C72.065,-133.99 97.3556,-80.6204 136,-50 144.279,-43.4399 154.092,-38.3415 164.125,-34.3855"/>
<polygon fill="midnightblue" stroke="midnightblue" points="56.3677,-164.338 56.0948,-174.929 62.913,-166.82 56.3677,-164.338"/>
</g>
<!-- Node3 -->
<g id="node3" class="node"><title>Node3</title>
<g id="a_node3"><a xlink:href="class_network_gateway.html#a255e2b6c7d6b5b50fd2e096850c6f29c" target="_top" xlink:title="Gateway specific parsing of config elements. ">
<polygon fill="white" stroke="black" points="352,-344 352,-374 498,-374 498,-344 352,-344"/>
<text text-anchor="start" x="360" y="-362" font-family="Helvetica,sans-Serif" font-size="10.00">NetworkGateway::readConfig</text>
<text text-anchor="middle" x="425" y="-351" font-family="Helvetica,sans-Serif" font-size="10.00">Element</text>
</a>
</g>
</g>
<!-- Node2&#45;&gt;Node3 -->
<g id="edge2" class="edge"><title>Node2&#45;&gt;Node3</title>
<path fill="none" stroke="midnightblue" d="M326.355,-359C334.949,-359 343.535,-359 351.85,-359"/>
<polygon fill="midnightblue" stroke="midnightblue" points="326.278,-355.5 316.278,-359 326.278,-362.5 326.278,-355.5"/>
</g>
<!-- Node11 -->
<g id="node11" class="node"><title>Node11</title>
<g id="a_node11"><a xlink:href="classsoftwarecontainer_1_1_software_container_agent.html#a990e86f21dead80c727462618ecf0e91" target="_top" xlink:title="Parse config needed for starting up the container in a correct manner. ">
<polygon fill="white" stroke="black" points="363.5,-0.5 363.5,-41.5 486.5,-41.5 486.5,-0.5 363.5,-0.5"/>
<text text-anchor="start" x="371.5" y="-29.5" font-family="Helvetica,sans-Serif" font-size="10.00">softwarecontainer::</text>
<text text-anchor="start" x="371.5" y="-18.5" font-family="Helvetica,sans-Serif" font-size="10.00">SoftwareContainerAgent</text>
<text text-anchor="middle" x="425" y="-7.5" font-family="Helvetica,sans-Serif" font-size="10.00">::parseConfig</text>
</a>
</g>
</g>
<!-- Node10&#45;&gt;Node11 -->
<g id="edge10" class="edge"><title>Node10&#45;&gt;Node11</title>
<path fill="none" stroke="midnightblue" d="M297.772,-21C319.283,-21 342.715,-21 363.487,-21"/>
<polygon fill="midnightblue" stroke="midnightblue" points="297.714,-17.5001 287.714,-21 297.714,-24.5001 297.714,-17.5001"/>
</g>
<!-- Node12 -->
<g id="node12" class="node"><title>Node12</title>
<g id="a_node12"><a xlink:href="classsoftwarecontainer_1_1_software_container_agent.html#ac5cafaf71af5858bb97f84c6fe1de917" target="_top" xlink:title="Create a new container. ">
<polygon fill="white" stroke="black" points="534,-0.5 534,-41.5 657,-41.5 657,-0.5 534,-0.5"/>
<text text-anchor="start" x="542" y="-29.5" font-family="Helvetica,sans-Serif" font-size="10.00">softwarecontainer::</text>
<text text-anchor="start" x="542" y="-18.5" font-family="Helvetica,sans-Serif" font-size="10.00">SoftwareContainerAgent</text>
<text text-anchor="middle" x="595.5" y="-7.5" font-family="Helvetica,sans-Serif" font-size="10.00">::createContainer</text>
</a>
</g>
</g>
<!-- Node11&#45;&gt;Node12 -->
<g id="edge11" class="edge"><title>Node11&#45;&gt;Node12</title>
<path fill="none" stroke="midnightblue" d="M496.991,-21C509.219,-21 521.83,-21 533.757,-21"/>
<polygon fill="midnightblue" stroke="midnightblue" points="496.832,-17.5001 486.832,-21 496.832,-24.5001 496.832,-17.5001"/>
</g>
</g>
</svg>
