<?xml version="1.0" encoding="UTF-8" standalone="no"?>
<!DOCTYPE svg PUBLIC "-//W3C//DTD SVG 1.1//EN"
 "http://www.w3.org/Graphics/SVG/1.1/DTD/svg11.dtd">
<!-- Generated by graphviz version 2.38.0 (20140413.2041)
 -->
<!-- Title: Gateway::getContainer Pages: 1 -->
<svg width="522pt" height="134pt"
 viewBox="0.00 0.00 522.00 133.96" xmlns="http://www.w3.org/2000/svg" xmlns:xlink="http://www.w3.org/1999/xlink">
<g id="graph0" class="graph" transform="scale(1 1) rotate(0) translate(4 129.956)">
<title>Gateway::getContainer</title>
<polygon fill="white" stroke="none" points="-4,4 -4,-129.956 518,-129.956 518,4 -4,4"/>
<!-- Node1 -->
<g id="node1" class="node"><title>Node1</title>
<polygon fill="#bfbfbf" stroke="black" points="0,-60.5 0,-79.5 117,-79.5 117,-60.5 0,-60.5"/>
<text text-anchor="middle" x="58.5" y="-67.5" font-family="Helvetica,sans-Serif" font-size="10.00">Gateway::getContainer</text>
</g>
<!-- Node2 -->
<g id="node2" class="node"><title>Node2</title>
<g id="a_node2"><a xlink:href="class_pulse_gateway.html#a2ffb6fc3e0d690830fa4612111a60985" target="_top" xlink:title="Implements Gateway::activateGateway. ">
<polygon fill="white" stroke="black" points="354,-82.5 354,-101.5 514,-101.5 514,-82.5 354,-82.5"/>
<text text-anchor="middle" x="434" y="-89.5" font-family="Helvetica,sans-Serif" font-size="10.00">PulseGateway::activateGateway</text>
</a>
</g>
</g>
<!-- Node1&#45;&gt;Node2 -->
<g id="edge1" class="edge"><title>Node1&#45;&gt;Node2</title>
<path fill="none" stroke="midnightblue" d="M81.7319,-84.9213C99.9901,-96.2261 126.989,-110.83 153,-117 240.851,-137.838 347.955,-115.503 400.606,-101.511"/>
<polygon fill="midnightblue" stroke="midnightblue" points="83.5872,-81.9534 73.2731,-79.5306 79.8252,-87.8565 83.5872,-81.9534"/>
</g>
<!-- Node3 -->
<g id="node3" class="node"><title>Node3</title>
<g id="a_node3"><a xlink:href="class_device_node_gateway.html#a626ac7de0fa9acc167d1b355cbb3d8ee" target="_top" xlink:title="Implements Gateway::activateGateway. ">
<polygon fill="white" stroke="black" points="177.5,-77 177.5,-107 293.5,-107 293.5,-77 177.5,-77"/>
<text text-anchor="start" x="185.5" y="-95" font-family="Helvetica,sans-Serif" font-size="10.00">DeviceNodeGateway::</text>
<text text-anchor="middle" x="235.5" y="-84" font-family="Helvetica,sans-Serif" font-size="10.00">activateGateway</text>
</a>
</g>
</g>
<!-- Node1&#45;&gt;Node3 -->
<g id="edge2" class="edge"><title>Node1&#45;&gt;Node3</title>
<path fill="none" stroke="midnightblue" d="M127.417,-78.5382C143.927,-80.6137 161.418,-82.8125 177.371,-84.818"/>
<polygon fill="midnightblue" stroke="midnightblue" points="127.645,-75.0393 117.287,-77.2646 126.772,-81.9847 127.645,-75.0393"/>
</g>
<!-- Node4 -->
<g id="node4" class="node"><title>Node4</title>
<g id="a_node4"><a xlink:href="class_gateway.html#a77348e5ce86b82302764b10e3203b42c" target="_top" xlink:title="Execute the given command in the container. ">
<polygon fill="white" stroke="black" points="162.5,-38.5 162.5,-57.5 308.5,-57.5 308.5,-38.5 162.5,-38.5"/>
<text text-anchor="middle" x="235.5" y="-45.5" font-family="Helvetica,sans-Serif" font-size="10.00">Gateway::executeInContainer</text>
</a>
</g>
</g>
<!-- Node1&#45;&gt;Node4 -->
<g id="edge3" class="edge"><title>Node1&#45;&gt;Node4</title>
<path fill="none" stroke="midnightblue" d="M127.265,-61.4809C138.786,-60.0326 150.789,-58.5237 162.416,-57.062"/>
<polygon fill="midnightblue" stroke="midnightblue" points="126.772,-58.0153 117.287,-62.7354 127.645,-64.9607 126.772,-58.0153"/>
</g>
<!-- Node5 -->
<g id="node5" class="node"><title>Node5</title>
<g id="a_node5"><a xlink:href="class_gateway.html#a828b2dfa811c7fcce82d34b502e65112" target="_top" xlink:title="Set an environment variable in the associated container. ">
<polygon fill="white" stroke="black" points="153,-0.5 153,-19.5 318,-19.5 318,-0.5 153,-0.5"/>
<text text-anchor="middle" x="235.5" y="-7.5" font-family="Helvetica,sans-Serif" font-size="10.00">Gateway::setEnvironmentVariable</text>
</a>
</g>
</g>
<!-- Node1&#45;&gt;Node5 -->
<g id="edge4" class="edge"><title>Node1&#45;&gt;Node5</title>
<path fill="none" stroke="midnightblue" d="M87.639,-56.0347C105.928,-47.3677 130.475,-36.4932 153,-29 163.753,-25.4229 175.519,-22.2617 186.683,-19.5951"/>
<polygon fill="midnightblue" stroke="midnightblue" points="85.9284,-52.9736 78.4328,-60.4614 88.9618,-59.2822 85.9284,-52.9736"/>
</g>
<!-- Node5&#45;&gt;Node2 -->
<g id="edge5" class="edge"><title>Node5&#45;&gt;Node2</title>
<path fill="none" stroke="midnightblue" d="M296.924,-22.1313C304.115,-24.1471 311.282,-26.4322 318,-29 356.063,-43.5494 397.122,-68.5535 418.377,-82.2788"/>
<polygon fill="midnightblue" stroke="midnightblue" points="297.705,-18.7175 287.143,-19.5481 295.917,-25.4855 297.705,-18.7175"/>
</g>
<!-- Node6 -->
<g id="node6" class="node"><title>Node6</title>
<g id="a_node6"><a xlink:href="class_d_bus_gateway.html#ab974b6b05b985d64ba5609c64e8b13fb" target="_top" xlink:title="Implements Gateway::activateGateway. ">
<polygon fill="white" stroke="black" points="354,-0.5 354,-19.5 514,-19.5 514,-0.5 354,-0.5"/>
<text text-anchor="middle" x="434" y="-7.5" font-family="Helvetica,sans-Serif" font-size="10.00">DBusGateway::activateGateway</text>
</a>
</g>
</g>
<!-- Node5&#45;&gt;Node6 -->
<g id="edge6" class="edge"><title>Node5&#45;&gt;Node6</title>
<path fill="none" stroke="midnightblue" d="M328.154,-10C336.735,-10 345.384,-10 353.837,-10"/>
<polygon fill="midnightblue" stroke="midnightblue" points="328.127,-6.5001 318.127,-10 328.127,-13.5001 328.127,-6.5001"/>
</g>
</g>
</svg>
