<?xml version="1.0" encoding="UTF-8" standalone="no"?>
<!DOCTYPE svg PUBLIC "-//W3C//DTD SVG 1.1//EN"
 "http://www.w3.org/Graphics/SVG/1.1/DTD/svg11.dtd">
<!-- Generated by graphviz version 2.38.0 (20140413.2041)
 -->
<!-- Title: Container::bindMountFolderInContainer Pages: 1 -->
<svg width="440pt" height="110pt"
 viewBox="0.00 0.00 440.00 110.00" xmlns="http://www.w3.org/2000/svg" xmlns:xlink="http://www.w3.org/1999/xlink">
<g id="graph0" class="graph" transform="scale(1 1) rotate(0) translate(4 106)">
<title>Container::bindMountFolderInContainer</title>
<polygon fill="white" stroke="none" points="-4,4 -4,-106 436,-106 436,4 -4,4"/>
<!-- Node1 -->
<g id="node1" class="node"><title>Node1</title>
<polygon fill="#bfbfbf" stroke="black" points="0,-36 0,-66 137,-66 137,-36 0,-36"/>
<text text-anchor="start" x="8" y="-54" font-family="Helvetica,sans-Serif" font-size="10.00">Container::bindMountFolder</text>
<text text-anchor="middle" x="68.5" y="-43" font-family="Helvetica,sans-Serif" font-size="10.00">InContainer</text>
</g>
<!-- Node2 -->
<g id="node2" class="node"><title>Node2</title>
<g id="a_node2"><a xlink:href="classsoftwarecontainer_1_1_file_toolkit_with_undo.html#aff5073fb683649d6753baae354d202b9" target="_top" xlink:title="createDirectory Create a directory, and if successful append it to a list of dirs to be deleted in th...">
<polygon fill="white" stroke="black" points="173,-60.5 173,-101.5 278,-101.5 278,-60.5 173,-60.5"/>
<text text-anchor="start" x="181" y="-89.5" font-family="Helvetica,sans-Serif" font-size="10.00">softwarecontainer::</text>
<text text-anchor="start" x="181" y="-78.5" font-family="Helvetica,sans-Serif" font-size="10.00">FileToolkitWithUndo</text>
<text text-anchor="middle" x="225.5" y="-67.5" font-family="Helvetica,sans-Serif" font-size="10.00">::createDirectory</text>
</a>
</g>
</g>
<!-- Node1&#45;&gt;Node2 -->
<g id="edge1" class="edge"><title>Node1&#45;&gt;Node2</title>
<path fill="none" stroke="midnightblue" d="M137.034,-64.0712C145.502,-65.7101 154.131,-67.3803 162.509,-69.0017"/>
<polygon fill="midnightblue" stroke="midnightblue" points="162.091,-72.4857 172.574,-70.9498 163.421,-65.6133 162.091,-72.4857"/>
</g>
<!-- Node4 -->
<g id="node4" class="node"><title>Node4</title>
<g id="a_node4"><a xlink:href="classsoftwarecontainer_1_1_file_toolkit_with_undo.html#a649391903bf1a0eec92c829713117a74" target="_top" xlink:title="tempDir Creates a temporary directory at templatePath. ">
<polygon fill="white" stroke="black" points="173,-0.5 173,-41.5 278,-41.5 278,-0.5 173,-0.5"/>
<text text-anchor="start" x="181" y="-29.5" font-family="Helvetica,sans-Serif" font-size="10.00">softwarecontainer::</text>
<text text-anchor="start" x="181" y="-18.5" font-family="Helvetica,sans-Serif" font-size="10.00">FileToolkitWithUndo</text>
<text text-anchor="middle" x="225.5" y="-7.5" font-family="Helvetica,sans-Serif" font-size="10.00">::tempDir</text>
</a>
</g>
</g>
<!-- Node1&#45;&gt;Node4 -->
<g id="edge4" class="edge"><title>Node1&#45;&gt;Node4</title>
<path fill="none" stroke="midnightblue" d="M137.034,-37.9288C145.502,-36.2899 154.131,-34.6197 162.509,-32.9983"/>
<polygon fill="midnightblue" stroke="midnightblue" points="163.421,-36.3867 172.574,-31.0502 162.091,-29.5143 163.421,-36.3867"/>
</g>
<!-- Node3 -->
<g id="node3" class="node"><title>Node3</title>
<g id="a_node3"><a xlink:href="classsoftwarecontainer_1_1_file_toolkit_with_undo.html#a2e2789ba9649ed6abf7a1c3ab3025daa" target="_top" xlink:title="createParentDirectory Recursively tries to create the directory pointed to by path. ">
<polygon fill="white" stroke="black" points="314,-60.5 314,-101.5 432,-101.5 432,-60.5 314,-60.5"/>
<text text-anchor="start" x="322" y="-89.5" font-family="Helvetica,sans-Serif" font-size="10.00">softwarecontainer::</text>
<text text-anchor="start" x="322" y="-78.5" font-family="Helvetica,sans-Serif" font-size="10.00">FileToolkitWithUndo</text>
<text text-anchor="middle" x="373" y="-67.5" font-family="Helvetica,sans-Serif" font-size="10.00">::createParentDirectory</text>
</a>
</g>
</g>
<!-- Node2&#45;&gt;Node3 -->
<g id="edge2" class="edge"><title>Node2&#45;&gt;Node3</title>
<path fill="none" stroke="midnightblue" d="M278.208,-74.5075C286.485,-74.2995 295.161,-74.2176 303.753,-74.2615"/>
<polygon fill="midnightblue" stroke="midnightblue" points="303.733,-77.7614 313.771,-74.371 303.81,-70.7618 303.733,-77.7614"/>
</g>
<!-- Node3&#45;&gt;Node2 -->
<g id="edge3" class="edge"><title>Node3&#45;&gt;Node2</title>
<path fill="none" stroke="midnightblue" d="M313.771,-87.629C305.411,-87.77 296.784,-87.7878 288.357,-87.6823"/>
<polygon fill="midnightblue" stroke="midnightblue" points="288.271,-84.1802 278.208,-87.4925 288.14,-91.1789 288.271,-84.1802"/>
</g>
</g>
</svg>
