<?xml version="1.0" encoding="UTF-8" standalone="no"?>
<!DOCTYPE svg PUBLIC "-//W3C//DTD SVG 1.1//EN"
 "http://www.w3.org/Graphics/SVG/1.1/DTD/svg11.dtd">
<!-- Generated by graphviz version 2.38.0 (20140413.2041)
 -->
<!-- Title: softwarecontainer::Container::initialize Pages: 1 -->
<svg width="415pt" height="159pt"
 viewBox="0.00 0.00 415.00 158.50" xmlns="http://www.w3.org/2000/svg" xmlns:xlink="http://www.w3.org/1999/xlink">
<g id="graph0" class="graph" transform="scale(1 1) rotate(0) translate(4 154.5)">
<title>softwarecontainer::Container::initialize</title>
<polygon fill="white" stroke="none" points="-4,4 -4,-154.5 411,-154.5 411,4 -4,4"/>
<!-- Node1 -->
<g id="node1" class="node"><title>Node1</title>
<polygon fill="#bfbfbf" stroke="black" points="0,-36 0,-66 100,-66 100,-36 0,-36"/>
<text text-anchor="start" x="8" y="-54" font-family="Helvetica,sans-Serif" font-size="10.00">softwarecontainer::</text>
<text text-anchor="middle" x="50" y="-43" font-family="Helvetica,sans-Serif" font-size="10.00">Container::initialize</text>
</g>
<!-- Node2 -->
<g id="node2" class="node"><title>Node2</title>
<g id="a_node2"><a xlink:href="classsoftwarecontainer_1_1_file_toolkit_with_undo.html#a35eb42bdace2695fb3e96cb84a535213" target="_top" xlink:title="createDirectory Create a directory, and if successful append it to a list of dirs to be deleted in th...">
<polygon fill="white" stroke="black" points="148.5,-60.5 148.5,-101.5 253.5,-101.5 253.5,-60.5 148.5,-60.5"/>
<text text-anchor="start" x="156.5" y="-89.5" font-family="Helvetica,sans-Serif" font-size="10.00">softwarecontainer::</text>
<text text-anchor="start" x="156.5" y="-78.5" font-family="Helvetica,sans-Serif" font-size="10.00">FileToolkitWithUndo</text>
<text text-anchor="middle" x="201" y="-67.5" font-family="Helvetica,sans-Serif" font-size="10.00">::createDirectory</text>
</a>
</g>
</g>
<!-- Node1&#45;&gt;Node2 -->
<g id="edge1" class="edge"><title>Node1&#45;&gt;Node2</title>
<path fill="none" stroke="midnightblue" d="M100.201,-60.9063C112.374,-63.3573 125.57,-66.0141 138.257,-68.5686"/>
<polygon fill="midnightblue" stroke="midnightblue" points="137.8,-72.0466 148.294,-70.5893 139.181,-65.1843 137.8,-72.0466"/>
</g>
<!-- Node5 -->
<g id="node5" class="node"><title>Node5</title>
<g id="a_node5"><a xlink:href="classsoftwarecontainer_1_1_file_toolkit_with_undo.html#ae175c6d1e33a358cb015c851590518d5" target="_top" xlink:title="createSharedMountPoint Make the mount point shared, ie new mount points created in one bind mount wil...">
<polygon fill="white" stroke="black" points="136,-0.5 136,-41.5 266,-41.5 266,-0.5 136,-0.5"/>
<text text-anchor="start" x="144" y="-29.5" font-family="Helvetica,sans-Serif" font-size="10.00">softwarecontainer::</text>
<text text-anchor="start" x="144" y="-18.5" font-family="Helvetica,sans-Serif" font-size="10.00">FileToolkitWithUndo</text>
<text text-anchor="middle" x="201" y="-7.5" font-family="Helvetica,sans-Serif" font-size="10.00">::createSharedMountPoint</text>
</a>
</g>
</g>
<!-- Node1&#45;&gt;Node5 -->
<g id="edge5" class="edge"><title>Node1&#45;&gt;Node5</title>
<path fill="none" stroke="midnightblue" d="M100.201,-41.0937C108.516,-39.4197 117.307,-37.6496 126.087,-35.8817"/>
<polygon fill="midnightblue" stroke="midnightblue" points="126.858,-39.2969 135.97,-33.8919 125.476,-32.4346 126.858,-39.2969"/>
</g>
<!-- Node3 -->
<g id="node3" class="node"><title>Node3</title>
<g id="a_node3"><a xlink:href="namespacesoftwarecontainer.html#a44f64c34c09d1ffdb18428b41f0d9e91" target="_top" xlink:title="isDirectory Check if path is a directory ">
<polygon fill="white" stroke="black" points="304.5,-120 304.5,-150 404.5,-150 404.5,-120 304.5,-120"/>
<text text-anchor="start" x="312.5" y="-138" font-family="Helvetica,sans-Serif" font-size="10.00">softwarecontainer::</text>
<text text-anchor="middle" x="354.5" y="-127" font-family="Helvetica,sans-Serif" font-size="10.00">isDirectory</text>
</a>
</g>
</g>
<!-- Node2&#45;&gt;Node3 -->
<g id="edge2" class="edge"><title>Node2&#45;&gt;Node3</title>
<path fill="none" stroke="midnightblue" d="M253.714,-99.4327C269.189,-104.949 286.157,-110.997 301.641,-116.516"/>
<polygon fill="midnightblue" stroke="midnightblue" points="300.47,-119.814 311.064,-119.874 302.82,-113.22 300.47,-119.814"/>
</g>
<!-- Node4 -->
<g id="node4" class="node"><title>Node4</title>
<g id="a_node4"><a xlink:href="classsoftwarecontainer_1_1_file_toolkit_with_undo.html#a44a19890b72a635b3134cb2a07fc0875" target="_top" xlink:title="checks whether given path is already added to clean up handlers or not ">
<polygon fill="white" stroke="black" points="302,-60.5 302,-101.5 407,-101.5 407,-60.5 302,-60.5"/>
<text text-anchor="start" x="310" y="-89.5" font-family="Helvetica,sans-Serif" font-size="10.00">softwarecontainer::</text>
<text text-anchor="start" x="310" y="-78.5" font-family="Helvetica,sans-Serif" font-size="10.00">FileToolkitWithUndo</text>
<text text-anchor="middle" x="354.5" y="-67.5" font-family="Helvetica,sans-Serif" font-size="10.00">::pathInList</text>
</a>
</g>
</g>
<!-- Node2&#45;&gt;Node4 -->
<g id="edge3" class="edge"><title>Node2&#45;&gt;Node4</title>
<path fill="none" stroke="midnightblue" d="M253.714,-74.5616C265.835,-74.2372 278.873,-74.1661 291.395,-74.3483"/>
<polygon fill="midnightblue" stroke="midnightblue" points="291.692,-77.855 301.762,-74.5609 291.836,-70.8565 291.692,-77.855"/>
</g>
<!-- Node4&#45;&gt;Node2 -->
<g id="edge4" class="edge"><title>Node4&#45;&gt;Node2</title>
<path fill="none" stroke="midnightblue" d="M301.762,-87.4391C289.64,-87.7631 276.602,-87.8339 264.08,-87.6513"/>
<polygon fill="midnightblue" stroke="midnightblue" points="263.784,-84.1446 253.714,-87.4384 263.64,-91.1431 263.784,-84.1446"/>
</g>
</g>
</svg>
