<?xml version="1.0" encoding="UTF-8" standalone="no"?>
<!DOCTYPE svg PUBLIC "-//W3C//DTD SVG 1.1//EN"
 "http://www.w3.org/Graphics/SVG/1.1/DTD/svg11.dtd">
<!-- Generated by graphviz version 2.38.0 (20140413.2041)
 -->
<!-- Title: softwarecontainer::FileToolkitWithUndo::overlayMount Pages: 1 -->
<svg width="408pt" height="50pt"
 viewBox="0.00 0.00 408.00 50.00" xmlns="http://www.w3.org/2000/svg" xmlns:xlink="http://www.w3.org/1999/xlink">
<g id="graph0" class="graph" transform="scale(1 1) rotate(0) translate(4 46)">
<title>softwarecontainer::FileToolkitWithUndo::overlayMount</title>
<polygon fill="white" stroke="none" points="-4,4 -4,-46 404,-46 404,4 -4,4"/>
<!-- Node1 -->
<g id="node1" class="node"><title>Node1</title>
<polygon fill="#bfbfbf" stroke="black" points="0,-0.5 0,-41.5 105,-41.5 105,-0.5 0,-0.5"/>
<text text-anchor="start" x="8" y="-29.5" font-family="Helvetica,sans-Serif" font-size="10.00">softwarecontainer::</text>
<text text-anchor="start" x="8" y="-18.5" font-family="Helvetica,sans-Serif" font-size="10.00">FileToolkitWithUndo</text>
<text text-anchor="middle" x="52.5" y="-7.5" font-family="Helvetica,sans-Serif" font-size="10.00">::overlayMount</text>
</g>
<!-- Node2 -->
<g id="node2" class="node"><title>Node2</title>
<g id="a_node2"><a xlink:href="classsoftwarecontainer_1_1_file_toolkit_with_undo.html#aff5073fb683649d6753baae354d202b9" target="_top" xlink:title="createDirectory Create a directory, and if successful append it to a list of dirs to be deleted in th...">
<polygon fill="white" stroke="black" points="141,-0.5 141,-41.5 246,-41.5 246,-0.5 141,-0.5"/>
<text text-anchor="start" x="149" y="-29.5" font-family="Helvetica,sans-Serif" font-size="10.00">softwarecontainer::</text>
<text text-anchor="start" x="149" y="-18.5" font-family="Helvetica,sans-Serif" font-size="10.00">FileToolkitWithUndo</text>
<text text-anchor="middle" x="193.5" y="-7.5" font-family="Helvetica,sans-Serif" font-size="10.00">::createDirectory</text>
</a>
</g>
</g>
<!-- Node1&#45;&gt;Node2 -->
<g id="edge1" class="edge"><title>Node1&#45;&gt;Node2</title>
<path fill="none" stroke="midnightblue" d="M105.258,-21C113.49,-21 122.077,-21 130.514,-21"/>
<polygon fill="midnightblue" stroke="midnightblue" points="130.698,-24.5001 140.698,-21 130.698,-17.5001 130.698,-24.5001"/>
</g>
<!-- Node3 -->
<g id="node3" class="node"><title>Node3</title>
<g id="a_node3"><a xlink:href="classsoftwarecontainer_1_1_file_toolkit_with_undo.html#a2e2789ba9649ed6abf7a1c3ab3025daa" target="_top" xlink:title="createParentDirectory Recursively tries to create the directory pointed to by path. ">
<polygon fill="white" stroke="black" points="282,-0.5 282,-41.5 400,-41.5 400,-0.5 282,-0.5"/>
<text text-anchor="start" x="290" y="-29.5" font-family="Helvetica,sans-Serif" font-size="10.00">softwarecontainer::</text>
<text text-anchor="start" x="290" y="-18.5" font-family="Helvetica,sans-Serif" font-size="10.00">FileToolkitWithUndo</text>
<text text-anchor="middle" x="341" y="-7.5" font-family="Helvetica,sans-Serif" font-size="10.00">::createParentDirectory</text>
</a>
</g>
</g>
<!-- Node2&#45;&gt;Node3 -->
<g id="edge2" class="edge"><title>Node2&#45;&gt;Node3</title>
<path fill="none" stroke="midnightblue" d="M246.208,-14.5075C254.485,-14.2995 263.161,-14.2176 271.753,-14.2615"/>
<polygon fill="midnightblue" stroke="midnightblue" points="271.733,-17.7614 281.771,-14.371 271.81,-10.7618 271.733,-17.7614"/>
</g>
<!-- Node3&#45;&gt;Node2 -->
<g id="edge3" class="edge"><title>Node3&#45;&gt;Node2</title>
<path fill="none" stroke="midnightblue" d="M281.771,-27.629C273.411,-27.77 264.784,-27.7878 256.357,-27.6823"/>
<polygon fill="midnightblue" stroke="midnightblue" points="256.271,-24.1802 246.208,-27.4925 256.14,-31.1789 256.271,-24.1802"/>
</g>
</g>
</svg>
