<?xml version="1.0" encoding="UTF-8" standalone="no"?>
<!DOCTYPE svg PUBLIC "-//W3C//DTD SVG 1.1//EN"
 "http://www.w3.org/Graphics/SVG/1.1/DTD/svg11.dtd">
<!-- Generated by graphviz version 2.38.0 (20140413.2041)
 -->
<!-- Title: softwarecontainer::SoftwareContainer::suspend Pages: 1 -->
<svg width="284pt" height="39pt"
 viewBox="0.00 0.00 284.00 39.00" xmlns="http://www.w3.org/2000/svg" xmlns:xlink="http://www.w3.org/1999/xlink">
<g id="graph0" class="graph" transform="scale(1 1) rotate(0) translate(4 35)">
<title>softwarecontainer::SoftwareContainer::suspend</title>
<polygon fill="white" stroke="none" points="-4,4 -4,-35 280,-35 280,4 -4,4"/>
<!-- Node1 -->
<g id="node1" class="node"><title>Node1</title>
<polygon fill="#bfbfbf" stroke="black" points="0,-0.5 0,-30.5 140,-30.5 140,-0.5 0,-0.5"/>
<text text-anchor="start" x="8" y="-18.5" font-family="Helvetica,sans-Serif" font-size="10.00">softwarecontainer::</text>
<text text-anchor="middle" x="70" y="-7.5" font-family="Helvetica,sans-Serif" font-size="10.00">SoftwareContainer::suspend</text>
</g>
<!-- Node2 -->
<g id="node2" class="node"><title>Node2</title>
<g id="a_node2"><a xlink:href="namespacesoftwarecontainer.html#a51a25e6a54b7bb79fc5b4ce8902a31a4" target="_top" xlink:title="isError Check if ReturnCode indicates Error or not ">
<polygon fill="white" stroke="black" points="176,-0.5 176,-30.5 276,-30.5 276,-0.5 176,-0.5"/>
<text text-anchor="start" x="184" y="-18.5" font-family="Helvetica,sans-Serif" font-size="10.00">softwarecontainer::</text>
<text text-anchor="middle" x="226" y="-7.5" font-family="Helvetica,sans-Serif" font-size="10.00">isError</text>
</a>
</g>
</g>
<!-- Node1&#45;&gt;Node2 -->
<g id="edge1" class="edge"><title>Node1&#45;&gt;Node2</title>
<path fill="none" stroke="midnightblue" d="M140.341,-15.5C148.855,-15.5 157.495,-15.5 165.839,-15.5"/>
<polygon fill="midnightblue" stroke="midnightblue" points="165.842,-19.0001 175.842,-15.5 165.842,-12.0001 165.842,-19.0001"/>
</g>
</g>
</svg>
