<?xml version="1.0" encoding="UTF-8" standalone="no"?>
<!DOCTYPE svg PUBLIC "-//W3C//DTD SVG 1.1//EN"
 "http://www.w3.org/Graphics/SVG/1.1/DTD/svg11.dtd">
<!-- Generated by graphviz version 2.38.0 (20140413.2041)
 -->
<!-- Title: softwarecontainer::FileToolkitWithUndo::createDirectory Pages: 1 -->
<svg width="455pt" height="148pt"
 viewBox="0.00 0.00 455.00 147.50" xmlns="http://www.w3.org/2000/svg" xmlns:xlink="http://www.w3.org/1999/xlink">
<g id="graph0" class="graph" transform="scale(1 1) rotate(0) translate(4 143.5)">
<title>softwarecontainer::FileToolkitWithUndo::createDirectory</title>
<polygon fill="white" stroke="none" points="-4,4 -4,-143.5 451,-143.5 451,4 -4,4"/>
<!-- Node1 -->
<g id="node1" class="node"><title>Node1</title>
<polygon fill="#bfbfbf" stroke="black" points="0,-54.5 0,-95.5 105,-95.5 105,-54.5 0,-54.5"/>
<text text-anchor="start" x="8" y="-83.5" font-family="Helvetica,sans-Serif" font-size="10.00">softwarecontainer::</text>
<text text-anchor="start" x="8" y="-72.5" font-family="Helvetica,sans-Serif" font-size="10.00">FileToolkitWithUndo</text>
<text text-anchor="middle" x="52.5" y="-61.5" font-family="Helvetica,sans-Serif" font-size="10.00">::createDirectory</text>
</g>
<!-- Node2 -->
<g id="node2" class="node"><title>Node2</title>
<g id="a_node2"><a xlink:href="classsoftwarecontainer_1_1_workspace.html#af9be59382096de97cfab692bc5c89114" target="_top" xlink:title="Check if the workspace is present and create it if needed. ">
<polygon fill="white" stroke="black" points="141,-109 141,-139 289,-139 289,-109 141,-109"/>
<text text-anchor="start" x="149" y="-127" font-family="Helvetica,sans-Serif" font-size="10.00">softwarecontainer::</text>
<text text-anchor="middle" x="215" y="-116" font-family="Helvetica,sans-Serif" font-size="10.00">Workspace::checkWorkspace</text>
</a>
</g>
</g>
<!-- Node1&#45;&gt;Node2 -->
<g id="edge1" class="edge"><title>Node1&#45;&gt;Node2</title>
<path fill="none" stroke="midnightblue" d="M115.188,-93.8331C131.551,-98.8287 149.004,-104.157 164.617,-108.924"/>
<polygon fill="midnightblue" stroke="midnightblue" points="115.753,-90.3461 105.167,-90.7736 113.709,-97.0411 115.753,-90.3461"/>
</g>
<!-- Node4 -->
<g id="node4" class="node"><title>Node4</title>
<g id="a_node4"><a xlink:href="classsoftwarecontainer_1_1_container.html#a8461f293ef5db5ee5fbdeddd24f36214" target="_top" xlink:title="Setup the container for startup. ">
<polygon fill="white" stroke="black" points="165,-60 165,-90 265,-90 265,-60 165,-60"/>
<text text-anchor="start" x="173" y="-78" font-family="Helvetica,sans-Serif" font-size="10.00">softwarecontainer::</text>
<text text-anchor="middle" x="215" y="-67" font-family="Helvetica,sans-Serif" font-size="10.00">Container::initialize</text>
</a>
</g>
</g>
<!-- Node1&#45;&gt;Node4 -->
<g id="edge3" class="edge"><title>Node1&#45;&gt;Node4</title>
<path fill="none" stroke="midnightblue" d="M115.237,-75C131.681,-75 149.222,-75 164.889,-75"/>
<polygon fill="midnightblue" stroke="midnightblue" points="115.167,-71.5001 105.167,-75 115.167,-78.5001 115.167,-71.5001"/>
</g>
<!-- Node5 -->
<g id="node5" class="node"><title>Node5</title>
<g id="a_node5"><a xlink:href="classsoftwarecontainer_1_1_file_toolkit_with_undo.html#ab46eccba563b861f100d9ce7fa9ca4d6" target="_top" xlink:title="overlayMount Mount a directory with an overlay on top of it. ">
<polygon fill="white" stroke="black" points="162.5,-0.5 162.5,-41.5 267.5,-41.5 267.5,-0.5 162.5,-0.5"/>
<text text-anchor="start" x="170.5" y="-29.5" font-family="Helvetica,sans-Serif" font-size="10.00">softwarecontainer::</text>
<text text-anchor="start" x="170.5" y="-18.5" font-family="Helvetica,sans-Serif" font-size="10.00">FileToolkitWithUndo</text>
<text text-anchor="middle" x="215" y="-7.5" font-family="Helvetica,sans-Serif" font-size="10.00">::overlayMount</text>
</a>
</g>
</g>
<!-- Node1&#45;&gt;Node5 -->
<g id="edge4" class="edge"><title>Node1&#45;&gt;Node5</title>
<path fill="none" stroke="midnightblue" d="M114.796,-54.3769C130.513,-49.089 147.259,-43.4549 162.43,-38.3506"/>
<polygon fill="midnightblue" stroke="midnightblue" points="113.528,-51.1106 105.167,-57.6168 115.761,-57.7452 113.528,-51.1106"/>
</g>
<!-- Node3 -->
<g id="node3" class="node"><title>Node3</title>
<g id="a_node3"><a xlink:href="classsoftwarecontainer_1_1_workspace.html#a4cca8749e6f3bd90452511ede207f5e5" target="_top" xlink:title="Creates a workspace. ">
<polygon fill="white" stroke="black" points="325,-109 325,-139 447,-139 447,-109 325,-109"/>
<text text-anchor="start" x="333" y="-127" font-family="Helvetica,sans-Serif" font-size="10.00">softwarecontainer::</text>
<text text-anchor="middle" x="386" y="-116" font-family="Helvetica,sans-Serif" font-size="10.00">Workspace::Workspace</text>
</a>
</g>
</g>
<!-- Node2&#45;&gt;Node3 -->
<g id="edge2" class="edge"><title>Node2&#45;&gt;Node3</title>
<path fill="none" stroke="midnightblue" d="M299.28,-124C307.941,-124 316.619,-124 324.95,-124"/>
<polygon fill="midnightblue" stroke="midnightblue" points="299.143,-120.5 289.143,-124 299.143,-127.5 299.143,-120.5"/>
</g>
<!-- Node6 -->
<g id="node6" class="node"><title>Node6</title>
<g id="a_node6"><a xlink:href="classsoftwarecontainer_1_1_container.html#a6c57689a4a21b8c9342c53c7e8743203" target="_top" xlink:title="create Creates a new lxc_container and creates it with all the initialization. ">
<polygon fill="white" stroke="black" points="336,-6 336,-36 436,-36 436,-6 336,-6"/>
<text text-anchor="start" x="344" y="-24" font-family="Helvetica,sans-Serif" font-size="10.00">softwarecontainer::</text>
<text text-anchor="middle" x="386" y="-13" font-family="Helvetica,sans-Serif" font-size="10.00">Container::create</text>
</a>
</g>
</g>
<!-- Node5&#45;&gt;Node6 -->
<g id="edge5" class="edge"><title>Node5&#45;&gt;Node6</title>
<path fill="none" stroke="midnightblue" d="M277.729,-21C296.82,-21 317.586,-21 335.717,-21"/>
<polygon fill="midnightblue" stroke="midnightblue" points="277.624,-17.5001 267.624,-21 277.624,-24.5001 277.624,-17.5001"/>
</g>
</g>
</svg>
