<?xml version="1.0" encoding="UTF-8" standalone="no"?>
<!DOCTYPE svg PUBLIC "-//W3C//DTD SVG 1.1//EN"
 "http://www.w3.org/Graphics/SVG/1.1/DTD/svg11.dtd">
<!-- Generated by graphviz version 2.38.0 (20140413.2041)
 -->
<!-- Title: Container::bindMountFileInContainer Pages: 1 -->
<svg width="274pt" height="50pt"
 viewBox="0.00 0.00 274.00 50.00" xmlns="http://www.w3.org/2000/svg" xmlns:xlink="http://www.w3.org/1999/xlink">
<g id="graph0" class="graph" transform="scale(1 1) rotate(0) translate(4 46)">
<title>Container::bindMountFileInContainer</title>
<polygon fill="white" stroke="none" points="-4,4 -4,-46 270,-46 270,4 -4,4"/>
<!-- Node1 -->
<g id="node1" class="node"><title>Node1</title>
<polygon fill="#bfbfbf" stroke="black" points="0,-6 0,-36 125,-36 125,-6 0,-6"/>
<text text-anchor="start" x="8" y="-24" font-family="Helvetica,sans-Serif" font-size="10.00">Container::bindMountFile</text>
<text text-anchor="middle" x="62.5" y="-13" font-family="Helvetica,sans-Serif" font-size="10.00">InContainer</text>
</g>
<!-- Node2 -->
<g id="node2" class="node"><title>Node2</title>
<g id="a_node2"><a xlink:href="classsoftwarecontainer_1_1_file_toolkit_with_undo.html#a44a19890b72a635b3134cb2a07fc0875" target="_top" xlink:title="checks whether given path is already added to clean up handlers or not ">
<polygon fill="white" stroke="black" points="161,-0.5 161,-41.5 266,-41.5 266,-0.5 161,-0.5"/>
<text text-anchor="start" x="169" y="-29.5" font-family="Helvetica,sans-Serif" font-size="10.00">softwarecontainer::</text>
<text text-anchor="start" x="169" y="-18.5" font-family="Helvetica,sans-Serif" font-size="10.00">FileToolkitWithUndo</text>
<text text-anchor="middle" x="213.5" y="-7.5" font-family="Helvetica,sans-Serif" font-size="10.00">::pathInList</text>
</a>
</g>
</g>
<!-- Node1&#45;&gt;Node2 -->
<g id="edge1" class="edge"><title>Node1&#45;&gt;Node2</title>
<path fill="none" stroke="midnightblue" d="M125.395,-21C133.808,-21 142.442,-21 150.85,-21"/>
<polygon fill="midnightblue" stroke="midnightblue" points="150.965,-24.5001 160.965,-21 150.965,-17.5001 150.965,-24.5001"/>
</g>
</g>
</svg>
