<?xml version="1.0" encoding="UTF-8" standalone="no"?>
<!DOCTYPE svg PUBLIC "-//W3C//DTD SVG 1.1//EN"
 "http://www.w3.org/Graphics/SVG/1.1/DTD/svg11.dtd">
<!-- Generated by graphviz version 2.38.0 (20140413.2041)
 -->
<!-- Title: Container Pages: 1 -->
<svg width="280pt" height="95pt"
 viewBox="0.00 0.00 280.00 95.00" xmlns="http://www.w3.org/2000/svg" xmlns:xlink="http://www.w3.org/1999/xlink">
<g id="graph0" class="graph" transform="scale(1 1) rotate(0) translate(4 91)">
<title>Container</title>
<polygon fill="white" stroke="none" points="-4,4 -4,-91 276,-91 276,4 -4,4"/>
<!-- Node1 -->
<g id="node1" class="node"><title>Node1</title>
<polygon fill="#bfbfbf" stroke="black" points="94.5,-0.5 94.5,-19.5 157.5,-19.5 157.5,-0.5 94.5,-0.5"/>
<text text-anchor="middle" x="126" y="-7.5" font-family="Helvetica,sans-Serif" font-size="10.00">Container</text>
</g>
<!-- Node2 -->
<g id="node2" class="node"><title>Node2</title>
<g id="a_node2"><a xlink:href="classsoftwarecontainer_1_1_file_toolkit_with_undo.html" target="_top" xlink:title="softwarecontainer::\lFileToolkitWithUndo">
<polygon fill="white" stroke="black" points="0,-56.5 0,-86.5 108,-86.5 108,-56.5 0,-56.5"/>
<text text-anchor="start" x="8" y="-74.5" font-family="Helvetica,sans-Serif" font-size="10.00">softwarecontainer::</text>
<text text-anchor="middle" x="54" y="-63.5" font-family="Helvetica,sans-Serif" font-size="10.00">FileToolkitWithUndo</text>
</a>
</g>
</g>
<!-- Node2&#45;&gt;Node1 -->
<g id="edge1" class="edge"><title>Node2&#45;&gt;Node1</title>
<path fill="none" stroke="#8b1a1a" d="M78.9358,-49.8934C91.4603,-39.5432 105.964,-27.5577 115.523,-19.6578"/>
<polygon fill="#8b1a1a" stroke="#8b1a1a" points="76.5419,-47.3311 71.063,-56.3993 81.0011,-52.7271 76.5419,-47.3311"/>
</g>
<!-- Node3 -->
<g id="node3" class="node"><title>Node3</title>
<g id="a_node3"><a xlink:href="class_container_abstract_interface.html" target="_top" xlink:title="ContainerAbstractInterface">
<polygon fill="white" stroke="black" points="126,-62 126,-81 272,-81 272,-62 126,-62"/>
<text text-anchor="middle" x="199" y="-69" font-family="Helvetica,sans-Serif" font-size="10.00">ContainerAbstractInterface</text>
</a>
</g>
</g>
<!-- Node3&#45;&gt;Node1 -->
<g id="edge2" class="edge"><title>Node3&#45;&gt;Node1</title>
<path fill="none" stroke="midnightblue" d="M180.563,-55.4727C166.601,-44.0925 147.924,-28.8694 136.44,-19.5091"/>
<polygon fill="midnightblue" stroke="midnightblue" points="178.578,-58.3701 188.541,-61.9751 183.001,-52.9442 178.578,-58.3701"/>
</g>
</g>
</svg>
