<?xml version="1.0" encoding="UTF-8" standalone="no"?>
<!DOCTYPE svg PUBLIC "-//W3C//DTD SVG 1.1//EN"
 "http://www.w3.org/Graphics/SVG/1.1/DTD/svg11.dtd">
<!-- Generated by graphviz version 2.38.0 (20140413.2041)
 -->
<!-- Title: softwarecontainer::Gateway::hasContainer Pages: 1 -->
<svg width="488pt" height="208pt"
 viewBox="0.00 0.00 488.00 207.50" xmlns="http://www.w3.org/2000/svg" xmlns:xlink="http://www.w3.org/1999/xlink">
<g id="graph0" class="graph" transform="scale(1 1) rotate(0) translate(4 203.5)">
<title>softwarecontainer::Gateway::hasContainer</title>
<polygon fill="white" stroke="none" points="-4,4 -4,-203.5 484,-203.5 484,4 -4,4"/>
<!-- Node1 -->
<g id="node1" class="node"><title>Node1</title>
<polygon fill="#bfbfbf" stroke="black" points="0,-120 0,-150 119,-150 119,-120 0,-120"/>
<text text-anchor="start" x="8" y="-138" font-family="Helvetica,sans-Serif" font-size="10.00">softwarecontainer::</text>
<text text-anchor="middle" x="59.5" y="-127" font-family="Helvetica,sans-Serif" font-size="10.00">Gateway::hasContainer</text>
</g>
<!-- Node2 -->
<g id="node2" class="node"><title>Node2</title>
<g id="a_node2"><a xlink:href="classsoftwarecontainer_1_1_gateway.html#abd136fffb30a625ca5ab4abe06adc680" target="_top" xlink:title="Applies any configuration set by setConfig() ">
<polygon fill="white" stroke="black" points="163.5,-166 163.5,-196 263.5,-196 263.5,-166 163.5,-166"/>
<text text-anchor="start" x="171.5" y="-184" font-family="Helvetica,sans-Serif" font-size="10.00">softwarecontainer::</text>
<text text-anchor="middle" x="213.5" y="-173" font-family="Helvetica,sans-Serif" font-size="10.00">Gateway::activate</text>
</a>
</g>
</g>
<!-- Node1&#45;&gt;Node2 -->
<g id="edge1" class="edge"><title>Node1&#45;&gt;Node2</title>
<path fill="none" stroke="midnightblue" d="M120.05,-153.022C134.404,-157.366 149.581,-161.959 163.396,-166.14"/>
<polygon fill="midnightblue" stroke="midnightblue" points="120.856,-149.609 110.27,-150.062 118.828,-156.309 120.856,-149.609"/>
</g>
<!-- Node4 -->
<g id="node4" class="node"><title>Node4</title>
<g id="a_node4"><a xlink:href="classsoftwarecontainer_1_1_network_gateway.html#a8a08792ecd43b1694222ca286514ee21" target="_top" xlink:title="Implements Gateway::activateGateway. ">
<polygon fill="white" stroke="black" points="308,-120 308,-150 480,-150 480,-120 308,-120"/>
<text text-anchor="start" x="316" y="-138" font-family="Helvetica,sans-Serif" font-size="10.00">softwarecontainer::</text>
<text text-anchor="middle" x="394" y="-127" font-family="Helvetica,sans-Serif" font-size="10.00">NetworkGateway::activateGateway</text>
</a>
</g>
</g>
<!-- Node1&#45;&gt;Node4 -->
<g id="edge3" class="edge"><title>Node1&#45;&gt;Node4</title>
<path fill="none" stroke="midnightblue" d="M129.265,-135C181.051,-135 252.348,-135 307.757,-135"/>
<polygon fill="midnightblue" stroke="midnightblue" points="129.179,-131.5 119.179,-135 129.179,-138.5 129.179,-131.5"/>
</g>
<!-- Node5 -->
<g id="node5" class="node"><title>Node5</title>
<g id="a_node5"><a xlink:href="classsoftwarecontainer_1_1_gateway.html#a6f0a60c9f29ea869916f7524085b3e5f" target="_top" xlink:title="Get a handle to the associated container. ">
<polygon fill="white" stroke="black" points="155,-71 155,-101 272,-101 272,-71 155,-71"/>
<text text-anchor="start" x="163" y="-89" font-family="Helvetica,sans-Serif" font-size="10.00">softwarecontainer::</text>
<text text-anchor="middle" x="213.5" y="-78" font-family="Helvetica,sans-Serif" font-size="10.00">Gateway::getContainer</text>
</a>
</g>
</g>
<!-- Node1&#45;&gt;Node5 -->
<g id="edge4" class="edge"><title>Node1&#45;&gt;Node5</title>
<path fill="none" stroke="midnightblue" d="M117.14,-116.741C133.172,-111.573 150.436,-106.008 165.809,-101.052"/>
<polygon fill="midnightblue" stroke="midnightblue" points="115.789,-113.499 107.345,-119.899 117.937,-120.161 115.789,-113.499"/>
</g>
<!-- Node3 -->
<g id="node3" class="node"><title>Node3</title>
<g id="a_node3"><a xlink:href="classsoftwarecontainer_1_1_d_bus_gateway.html#af84424bf49120532516ea0660b5857f1" target="_top" xlink:title="Activates both dbus session instances. ">
<polygon fill="white" stroke="black" points="333.5,-169 333.5,-199 454.5,-199 454.5,-169 333.5,-169"/>
<text text-anchor="start" x="341.5" y="-187" font-family="Helvetica,sans-Serif" font-size="10.00">softwarecontainer::</text>
<text text-anchor="middle" x="394" y="-176" font-family="Helvetica,sans-Serif" font-size="10.00">DBusGateway::activate</text>
</a>
</g>
</g>
<!-- Node2&#45;&gt;Node3 -->
<g id="edge2" class="edge"><title>Node2&#45;&gt;Node3</title>
<path fill="none" stroke="midnightblue" d="M273.855,-181.998C293.018,-182.32 314.259,-182.677 333.437,-182.999"/>
<polygon fill="midnightblue" stroke="midnightblue" points="273.806,-178.496 263.748,-181.828 273.688,-185.495 273.806,-178.496"/>
</g>
<!-- Node5&#45;&gt;Node4 -->
<g id="edge6" class="edge"><title>Node5&#45;&gt;Node4</title>
<path fill="none" stroke="midnightblue" d="M279.42,-103.821C298.693,-109.112 319.604,-114.852 338.169,-119.948"/>
<polygon fill="midnightblue" stroke="midnightblue" points="280.082,-100.374 269.512,-101.101 278.229,-107.124 280.082,-100.374"/>
</g>
<!-- Node6 -->
<g id="node6" class="node"><title>Node6</title>
<g id="a_node6"><a xlink:href="classsoftwarecontainer_1_1_device_node_gateway.html#a9e912027cad4fff3ed4d9a9581f45227" target="_top" xlink:title="Implements Gateway::activateGateway. ">
<polygon fill="white" stroke="black" points="319,-60.5 319,-101.5 469,-101.5 469,-60.5 319,-60.5"/>
<text text-anchor="start" x="327" y="-89.5" font-family="Helvetica,sans-Serif" font-size="10.00">softwarecontainer::</text>
<text text-anchor="start" x="327" y="-78.5" font-family="Helvetica,sans-Serif" font-size="10.00">DeviceNodeGateway::activate</text>
<text text-anchor="middle" x="394" y="-67.5" font-family="Helvetica,sans-Serif" font-size="10.00">Gateway</text>
</a>
</g>
</g>
<!-- Node5&#45;&gt;Node6 -->
<g id="edge5" class="edge"><title>Node5&#45;&gt;Node6</title>
<path fill="none" stroke="midnightblue" d="M282.666,-84.0906C294.464,-83.7601 306.784,-83.415 318.735,-83.0803"/>
<polygon fill="midnightblue" stroke="midnightblue" points="282.352,-80.5979 272.454,-84.3766 282.548,-87.5952 282.352,-80.5979"/>
</g>
<!-- Node7 -->
<g id="node7" class="node"><title>Node7</title>
<g id="a_node7"><a xlink:href="classsoftwarecontainer_1_1_d_bus_gateway_instance.html#a8dc149286b57b259c95d53c130b9a129" target="_top" xlink:title="Implements Gateway::activateGateway. ">
<polygon fill="white" stroke="black" points="335,-0.5 335,-41.5 453,-41.5 453,-0.5 335,-0.5"/>
<text text-anchor="start" x="343" y="-29.5" font-family="Helvetica,sans-Serif" font-size="10.00">softwarecontainer::</text>
<text text-anchor="start" x="343" y="-18.5" font-family="Helvetica,sans-Serif" font-size="10.00">DBusGatewayInstance</text>
<text text-anchor="middle" x="394" y="-7.5" font-family="Helvetica,sans-Serif" font-size="10.00">::activateGateway</text>
</a>
</g>
</g>
<!-- Node5&#45;&gt;Node7 -->
<g id="edge7" class="edge"><title>Node5&#45;&gt;Node7</title>
<path fill="none" stroke="midnightblue" d="M264.052,-67.2525C278.226,-61.9438 293.706,-56.1972 308,-51 316.677,-47.845 325.87,-44.5508 334.879,-41.3491"/>
<polygon fill="midnightblue" stroke="midnightblue" points="262.611,-64.0549 254.478,-70.8456 265.07,-70.6085 262.611,-64.0549"/>
</g>
</g>
</svg>
