<?xml version="1.0" encoding="UTF-8" standalone="no"?>
<!DOCTYPE svg PUBLIC "-//W3C//DTD SVG 1.1//EN"
 "http://www.w3.org/Graphics/SVG/1.1/DTD/svg11.dtd">
<!-- Generated by graphviz version 2.38.0 (20140413.2041)
 -->
<!-- Title: softwarecontainer::SoftwareContainer::previouslyConfigured Pages: 1 -->
<svg width="438pt" height="99pt"
 viewBox="0.00 0.00 438.00 98.50" xmlns="http://www.w3.org/2000/svg" xmlns:xlink="http://www.w3.org/1999/xlink">
<g id="graph0" class="graph" transform="scale(1 1) rotate(0) translate(4 94.5)">
<title>softwarecontainer::SoftwareContainer::previouslyConfigured</title>
<polygon fill="white" stroke="none" points="-4,4 -4,-94.5 434,-94.5 434,4 -4,4"/>
<!-- Node1 -->
<g id="node1" class="node"><title>Node1</title>
<polygon fill="#bfbfbf" stroke="black" points="0,-26.5 0,-67.5 148,-67.5 148,-26.5 0,-26.5"/>
<text text-anchor="start" x="8" y="-55.5" font-family="Helvetica,sans-Serif" font-size="10.00">softwarecontainer::</text>
<text text-anchor="start" x="8" y="-44.5" font-family="Helvetica,sans-Serif" font-size="10.00">SoftwareContainer::previously</text>
<text text-anchor="middle" x="74" y="-33.5" font-family="Helvetica,sans-Serif" font-size="10.00">Configured</text>
</g>
<!-- Node2 -->
<g id="node2" class="node"><title>Node2</title>
<g id="a_node2"><a xlink:href="classsoftwarecontainer_1_1_file_toolkit_with_undo.html#a35eb42bdace2695fb3e96cb84a535213" target="_top" xlink:title="createDirectory Create a directory, and if successful append it to a list of dirs to be deleted in th...">
<polygon fill="white" stroke="black" points="184,-1.5 184,-42.5 289,-42.5 289,-1.5 184,-1.5"/>
<text text-anchor="start" x="192" y="-30.5" font-family="Helvetica,sans-Serif" font-size="10.00">softwarecontainer::</text>
<text text-anchor="start" x="192" y="-19.5" font-family="Helvetica,sans-Serif" font-size="10.00">FileToolkitWithUndo</text>
<text text-anchor="middle" x="236.5" y="-8.5" font-family="Helvetica,sans-Serif" font-size="10.00">::createDirectory</text>
</a>
</g>
</g>
<!-- Node1&#45;&gt;Node2 -->
<g id="edge1" class="edge"><title>Node1&#45;&gt;Node2</title>
<path fill="none" stroke="midnightblue" d="M148.205,-35.5974C156.786,-34.2607 165.476,-32.9071 173.878,-31.5985"/>
<polygon fill="midnightblue" stroke="midnightblue" points="174.614,-35.0261 183.956,-30.0287 173.536,-28.1095 174.614,-35.0261"/>
</g>
<!-- Node3 -->
<g id="node3" class="node"><title>Node3</title>
<g id="a_node3"><a xlink:href="namespacesoftwarecontainer.html#a44f64c34c09d1ffdb18428b41f0d9e91" target="_top" xlink:title="isDirectory Check if path is a directory ">
<polygon fill="white" stroke="black" points="327.5,-60 327.5,-90 427.5,-90 427.5,-60 327.5,-60"/>
<text text-anchor="start" x="335.5" y="-78" font-family="Helvetica,sans-Serif" font-size="10.00">softwarecontainer::</text>
<text text-anchor="middle" x="377.5" y="-67" font-family="Helvetica,sans-Serif" font-size="10.00">isDirectory</text>
</a>
</g>
</g>
<!-- Node1&#45;&gt;Node3 -->
<g id="edge5" class="edge"><title>Node1&#45;&gt;Node3</title>
<path fill="none" stroke="midnightblue" d="M148.37,-53.8138C200.281,-58.6347 268.988,-65.0154 317.387,-69.5103"/>
<polygon fill="midnightblue" stroke="midnightblue" points="317.113,-72.9998 327.394,-70.4395 317.76,-66.0297 317.113,-72.9998"/>
</g>
<!-- Node2&#45;&gt;Node3 -->
<g id="edge2" class="edge"><title>Node2&#45;&gt;Node3</title>
<path fill="none" stroke="midnightblue" d="M289.258,-41.7352C301.683,-46.4727 314.919,-51.5193 327.227,-56.2124"/>
<polygon fill="midnightblue" stroke="midnightblue" points="326.275,-59.5952 336.866,-59.8877 328.769,-53.0545 326.275,-59.5952"/>
</g>
<!-- Node4 -->
<g id="node4" class="node"><title>Node4</title>
<g id="a_node4"><a xlink:href="classsoftwarecontainer_1_1_file_toolkit_with_undo.html#a44a19890b72a635b3134cb2a07fc0875" target="_top" xlink:title="checks whether given path is already added to clean up handlers or not ">
<polygon fill="white" stroke="black" points="325,-0.5 325,-41.5 430,-41.5 430,-0.5 325,-0.5"/>
<text text-anchor="start" x="333" y="-29.5" font-family="Helvetica,sans-Serif" font-size="10.00">softwarecontainer::</text>
<text text-anchor="start" x="333" y="-18.5" font-family="Helvetica,sans-Serif" font-size="10.00">FileToolkitWithUndo</text>
<text text-anchor="middle" x="377.5" y="-7.5" font-family="Helvetica,sans-Serif" font-size="10.00">::pathInList</text>
</a>
</g>
</g>
<!-- Node2&#45;&gt;Node4 -->
<g id="edge3" class="edge"><title>Node2&#45;&gt;Node4</title>
<path fill="none" stroke="midnightblue" d="M289.258,-15.077C297.49,-14.829 306.077,-14.7125 314.514,-14.7311"/>
<polygon fill="midnightblue" stroke="midnightblue" points="314.668,-18.2325 324.698,-14.8211 314.73,-11.2328 314.668,-18.2325"/>
</g>
<!-- Node4&#45;&gt;Node2 -->
<g id="edge4" class="edge"><title>Node4&#45;&gt;Node2</title>
<path fill="none" stroke="midnightblue" d="M324.698,-27.9243C316.466,-28.1718 307.878,-28.2878 299.441,-28.2688"/>
<polygon fill="midnightblue" stroke="midnightblue" points="299.289,-24.7674 289.258,-28.1782 299.227,-31.7671 299.289,-24.7674"/>
</g>
</g>
</svg>
