<?xml version="1.0" encoding="UTF-8" standalone="no"?>
<!DOCTYPE svg PUBLIC "-//W3C//DTD SVG 1.1//EN"
 "http://www.w3.org/Graphics/SVG/1.1/DTD/svg11.dtd">
<!-- Generated by graphviz version 2.38.0 (20140413.2041)
 -->
<!-- Title: softwarecontainer::Gateway Pages: 1 -->
<svg width="262pt" height="332pt"
 viewBox="0.00 0.00 262.00 332.00" xmlns="http://www.w3.org/2000/svg" xmlns:xlink="http://www.w3.org/1999/xlink">
<g id="graph0" class="graph" transform="scale(1 1) rotate(0) translate(4 328)">
<title>softwarecontainer::Gateway</title>
<polygon fill="white" stroke="none" points="-4,4 -4,-328 258,-328 258,4 -4,4"/>
<!-- Node1 -->
<g id="node1" class="node"><title>Node1</title>
<polygon fill="#bfbfbf" stroke="black" points="0,-147 0,-177 100,-177 100,-147 0,-147"/>
<text text-anchor="start" x="8" y="-165" font-family="Helvetica,sans-Serif" font-size="10.00">softwarecontainer::</text>
<text text-anchor="middle" x="50" y="-154" font-family="Helvetica,sans-Serif" font-size="10.00">Gateway</text>
</g>
<!-- Node2 -->
<g id="node2" class="node"><title>Node2</title>
<g id="a_node2"><a xlink:href="class_cgroups_gateway.html" target="_top" xlink:title="The cgroups gateway sets cgroups related settings for the container. ">
<polygon fill="white" stroke="black" points="149,-304.5 149,-323.5 241,-323.5 241,-304.5 149,-304.5"/>
<text text-anchor="middle" x="195" y="-311.5" font-family="Helvetica,sans-Serif" font-size="10.00">CgroupsGateway</text>
</a>
</g>
</g>
<!-- Node1&#45;&gt;Node2 -->
<g id="edge1" class="edge"><title>Node1&#45;&gt;Node2</title>
<path fill="none" stroke="midnightblue" d="M60.5051,-186.443C73.3003,-216.245 98.8325,-266.193 136,-295 141.025,-298.895 146.881,-302.007 152.901,-304.491"/>
<polygon fill="midnightblue" stroke="midnightblue" points="63.7217,-185.062 56.6557,-177.168 57.2564,-187.745 63.7217,-185.062"/>
</g>
<!-- Node3 -->
<g id="node3" class="node"><title>Node3</title>
<g id="a_node3"><a xlink:href="class_d_bus_gateway.html" target="_top" xlink:title="DBusGateway">
<polygon fill="white" stroke="black" points="155,-266.5 155,-285.5 235,-285.5 235,-266.5 155,-266.5"/>
<text text-anchor="middle" x="195" y="-273.5" font-family="Helvetica,sans-Serif" font-size="10.00">DBusGateway</text>
</a>
</g>
</g>
<!-- Node1&#45;&gt;Node3 -->
<g id="edge2" class="edge"><title>Node1&#45;&gt;Node3</title>
<path fill="none" stroke="midnightblue" d="M66.4157,-185.335C81.7121,-206.792 107.015,-238.062 136,-257 141.855,-260.825 148.545,-263.941 155.252,-266.459"/>
<polygon fill="midnightblue" stroke="midnightblue" points="69.2612,-183.296 60.6796,-177.083 63.5134,-187.292 69.2612,-183.296"/>
</g>
<!-- Node4 -->
<g id="node4" class="node"><title>Node4</title>
<g id="a_node4"><a xlink:href="class_d_bus_gateway_instance.html" target="_top" xlink:title="DBus Gateway takes care of spawning and killing the DBus proxies. ">
<polygon fill="white" stroke="black" points="136,-228.5 136,-247.5 254,-247.5 254,-228.5 136,-228.5"/>
<text text-anchor="middle" x="195" y="-235.5" font-family="Helvetica,sans-Serif" font-size="10.00">DBusGatewayInstance</text>
</a>
</g>
</g>
<!-- Node1&#45;&gt;Node4 -->
<g id="edge3" class="edge"><title>Node1&#45;&gt;Node4</title>
<path fill="none" stroke="midnightblue" d="M78.7138,-183.422C94.7847,-195.103 115.787,-209.145 136,-219 143.429,-222.622 151.715,-225.801 159.647,-228.47"/>
<polygon fill="midnightblue" stroke="midnightblue" points="80.4496,-180.352 70.3292,-177.217 76.2856,-185.979 80.4496,-180.352"/>
</g>
<!-- Node5 -->
<g id="node5" class="node"><title>Node5</title>
<g id="a_node5"><a xlink:href="class_device_node_gateway.html" target="_top" xlink:title="This gateway is responsible for exposing device nodes in an LXC container. ">
<polygon fill="white" stroke="black" points="140,-190.5 140,-209.5 250,-209.5 250,-190.5 140,-190.5"/>
<text text-anchor="middle" x="195" y="-197.5" font-family="Helvetica,sans-Serif" font-size="10.00">DeviceNodeGateway</text>
</a>
</g>
</g>
<!-- Node1&#45;&gt;Node5 -->
<g id="edge4" class="edge"><title>Node1&#45;&gt;Node5</title>
<path fill="none" stroke="midnightblue" d="M110.22,-177.737C126.527,-182.07 143.711,-186.637 158.244,-190.498"/>
<polygon fill="midnightblue" stroke="midnightblue" points="110.776,-174.263 100.212,-175.077 108.978,-181.028 110.776,-174.263"/>
</g>
<!-- Node6 -->
<g id="node6" class="node"><title>Node6</title>
<g id="a_node6"><a xlink:href="class_environment_gateway.html" target="_top" xlink:title="Environment Gateway is used to define environment variables to the container. ">
<polygon fill="white" stroke="black" points="140,-152.5 140,-171.5 250,-171.5 250,-152.5 140,-152.5"/>
<text text-anchor="middle" x="195" y="-159.5" font-family="Helvetica,sans-Serif" font-size="10.00">EnvironmentGateway</text>
</a>
</g>
</g>
<!-- Node1&#45;&gt;Node6 -->
<g id="edge5" class="edge"><title>Node1&#45;&gt;Node6</title>
<path fill="none" stroke="midnightblue" d="M110.263,-162C120.048,-162 130.148,-162 139.801,-162"/>
<polygon fill="midnightblue" stroke="midnightblue" points="110.213,-158.5 100.212,-162 110.212,-165.5 110.213,-158.5"/>
</g>
<!-- Node7 -->
<g id="node7" class="node"><title>Node7</title>
<g id="a_node7"><a xlink:href="class_file_gateway.html" target="_top" xlink:title="This gateway lets you map files (including socket files) or folders from the host into the container&#39;...">
<polygon fill="white" stroke="black" points="159.5,-114.5 159.5,-133.5 230.5,-133.5 230.5,-114.5 159.5,-114.5"/>
<text text-anchor="middle" x="195" y="-121.5" font-family="Helvetica,sans-Serif" font-size="10.00">FileGateway</text>
</a>
</g>
</g>
<!-- Node1&#45;&gt;Node7 -->
<g id="edge6" class="edge"><title>Node1&#45;&gt;Node7</title>
<path fill="none" stroke="midnightblue" d="M109.923,-146.342C126.651,-141.897 144.327,-137.2 159.133,-133.265"/>
<polygon fill="midnightblue" stroke="midnightblue" points="108.978,-142.972 100.212,-148.923 110.776,-149.737 108.978,-142.972"/>
</g>
<!-- Node8 -->
<g id="node8" class="node"><title>Node8</title>
<g id="a_node8"><a xlink:href="class_network_gateway.html" target="_top" xlink:title="Sets up and manages network access and routing to the container. ">
<polygon fill="white" stroke="black" points="149,-76.5 149,-95.5 241,-95.5 241,-76.5 149,-76.5"/>
<text text-anchor="middle" x="195" y="-83.5" font-family="Helvetica,sans-Serif" font-size="10.00">NetworkGateway</text>
</a>
</g>
</g>
<!-- Node1&#45;&gt;Node8 -->
<g id="edge7" class="edge"><title>Node1&#45;&gt;Node8</title>
<path fill="none" stroke="midnightblue" d="M78.7138,-140.578C94.7847,-128.897 115.787,-114.855 136,-105 143.429,-101.378 151.715,-98.1993 159.647,-95.53"/>
<polygon fill="midnightblue" stroke="midnightblue" points="76.2856,-138.021 70.3292,-146.783 80.4496,-143.648 76.2856,-138.021"/>
</g>
<!-- Node9 -->
<g id="node9" class="node"><title>Node9</title>
<g id="a_node9"><a xlink:href="class_pulse_gateway.html" target="_top" xlink:title="The PulseAudio Gateway is used to provide access to the host system PulseAudio server. ">
<polygon fill="white" stroke="black" points="155,-38.5 155,-57.5 235,-57.5 235,-38.5 155,-38.5"/>
<text text-anchor="middle" x="195" y="-45.5" font-family="Helvetica,sans-Serif" font-size="10.00">PulseGateway</text>
</a>
</g>
</g>
<!-- Node1&#45;&gt;Node9 -->
<g id="edge8" class="edge"><title>Node1&#45;&gt;Node9</title>
<path fill="none" stroke="midnightblue" d="M66.4157,-138.665C81.7121,-117.208 107.015,-85.9376 136,-67 141.855,-63.1749 148.545,-60.0592 155.252,-57.5415"/>
<polygon fill="midnightblue" stroke="midnightblue" points="63.5134,-136.708 60.6796,-146.917 69.2612,-140.704 63.5134,-136.708"/>
</g>
<!-- Node10 -->
<g id="node10" class="node"><title>Node10</title>
<g id="a_node10"><a xlink:href="class_wayland_gateway.html" target="_top" xlink:title="WaylandGateway">
<polygon fill="white" stroke="black" points="148,-0.5 148,-19.5 242,-19.5 242,-0.5 148,-0.5"/>
<text text-anchor="middle" x="195" y="-7.5" font-family="Helvetica,sans-Serif" font-size="10.00">WaylandGateway</text>
</a>
</g>
</g>
<!-- Node1&#45;&gt;Node10 -->
<g id="edge9" class="edge"><title>Node1&#45;&gt;Node10</title>
<path fill="none" stroke="midnightblue" d="M60.5051,-137.557C73.3003,-107.755 98.8325,-57.807 136,-29 141.025,-25.1053 146.881,-21.9926 152.901,-19.5092"/>
<polygon fill="midnightblue" stroke="midnightblue" points="57.2564,-136.255 56.6557,-146.832 63.7217,-138.938 57.2564,-136.255"/>
</g>
</g>
</svg>
