<?xml version="1.0" encoding="UTF-8" standalone="no"?>
<!DOCTYPE svg PUBLIC "-//W3C//DTD SVG 1.1//EN"
 "http://www.w3.org/Graphics/SVG/1.1/DTD/svg11.dtd">
<!-- Generated by graphviz version 2.38.0 (20140413.2041)
 -->
<!-- Title: softwarecontainer::JSONParser::read Pages: 1 -->
<svg width="523pt" height="316pt"
 viewBox="0.00 0.00 523.00 315.50" xmlns="http://www.w3.org/2000/svg" xmlns:xlink="http://www.w3.org/1999/xlink">
<g id="graph0" class="graph" transform="scale(1 1) rotate(0) translate(4 311.5)">
<title>softwarecontainer::JSONParser::read</title>
<polygon fill="white" stroke="none" points="-4,4 -4,-311.5 519,-311.5 519,4 -4,4"/>
<!-- Node1 -->
<g id="node1" class="node"><title>Node1</title>
<polygon fill="#bfbfbf" stroke="black" points="0,-133.5 0,-163.5 100,-163.5 100,-133.5 0,-133.5"/>
<text text-anchor="start" x="8" y="-151.5" font-family="Helvetica,sans-Serif" font-size="10.00">softwarecontainer::</text>
<text text-anchor="middle" x="50" y="-140.5" font-family="Helvetica,sans-Serif" font-size="10.00">JSONParser::read</text>
</g>
<!-- Node2 -->
<g id="node2" class="node"><title>Node2</title>
<g id="a_node2"><a xlink:href="classsoftwarecontainer_1_1_base_config_store.html#a221eb2cc8b8b5818d81b6d246a545c3b" target="_top" xlink:title="Creates a new BaseConfigStore object and searches for Service Manifests (of file type json) in the in...">
<polygon fill="white" stroke="black" points="152,-266 152,-307 300,-307 300,-266 152,-266"/>
<text text-anchor="start" x="160" y="-295" font-family="Helvetica,sans-Serif" font-size="10.00">softwarecontainer::</text>
<text text-anchor="start" x="160" y="-284" font-family="Helvetica,sans-Serif" font-size="10.00">BaseConfigStore::BaseConfig</text>
<text text-anchor="middle" x="226" y="-273" font-family="Helvetica,sans-Serif" font-size="10.00">Store</text>
</a>
</g>
</g>
<!-- Node1&#45;&gt;Node2 -->
<g id="edge1" class="edge"><title>Node1&#45;&gt;Node2</title>
<path fill="none" stroke="midnightblue" d="M64.0196,-172.642C78.5046,-197.33 104.121,-235.137 136,-257.5 140.922,-260.953 146.281,-264.014 151.847,-266.724"/>
<polygon fill="midnightblue" stroke="midnightblue" points="67.0181,-170.835 59.0233,-163.883 60.9376,-174.303 67.0181,-170.835"/>
</g>
<!-- Node3 -->
<g id="node3" class="node"><title>Node3</title>
<g id="a_node3"><a xlink:href="classsoftwarecontainer_1_1_device.html#aa33cc58571e5d38aec05227d633dc9de" target="_top" xlink:title="Configures this device by parsing the supplied JSON configuration string. ">
<polygon fill="white" stroke="black" points="176,-217.5 176,-247.5 276,-247.5 276,-217.5 176,-217.5"/>
<text text-anchor="start" x="184" y="-235.5" font-family="Helvetica,sans-Serif" font-size="10.00">softwarecontainer::</text>
<text text-anchor="middle" x="226" y="-224.5" font-family="Helvetica,sans-Serif" font-size="10.00">Device::parse</text>
</a>
</g>
</g>
<!-- Node1&#45;&gt;Node3 -->
<g id="edge2" class="edge"><title>Node1&#45;&gt;Node3</title>
<path fill="none" stroke="midnightblue" d="M76.3206,-169.963C92.4961,-182.732 114.419,-198.366 136,-208.5 148.458,-214.35 162.589,-218.978 175.864,-222.545"/>
<polygon fill="midnightblue" stroke="midnightblue" points="78.3998,-167.143 68.4181,-163.591 74.0061,-172.593 78.3998,-167.143"/>
</g>
<!-- Node5 -->
<g id="node5" class="node"><title>Node5</title>
<g id="a_node5"><a xlink:href="classsoftwarecontainer_1_1_network_gateway_parser.html#a7c21bd04a853bc2fe599f16c32bca05b" target="_top" xlink:title="Parses NetworkGateway configuration into IPTableEntry. ">
<polygon fill="white" stroke="black" points="136,-158 136,-199 316,-199 316,-158 136,-158"/>
<text text-anchor="start" x="144" y="-187" font-family="Helvetica,sans-Serif" font-size="10.00">softwarecontainer::</text>
<text text-anchor="start" x="144" y="-176" font-family="Helvetica,sans-Serif" font-size="10.00">NetworkGatewayParser</text>
<text text-anchor="middle" x="226" y="-165" font-family="Helvetica,sans-Serif" font-size="10.00">::parseNetworkGatewayConfiguration</text>
</a>
</g>
</g>
<!-- Node1&#45;&gt;Node5 -->
<g id="edge4" class="edge"><title>Node1&#45;&gt;Node5</title>
<path fill="none" stroke="midnightblue" d="M110.3,-158.724C118.591,-160.154 127.256,-161.648 135.949,-163.146"/>
<polygon fill="midnightblue" stroke="midnightblue" points="110.845,-155.267 100.396,-157.017 109.656,-162.165 110.845,-155.267"/>
</g>
<!-- Node7 -->
<g id="node7" class="node"><title>Node7</title>
<g id="a_node7"><a xlink:href="classsoftwarecontainer_1_1_wayland_gateway.html#a8d94bc12193d9066eaa851c749840d82" target="_top" xlink:title="Gateway specific parsing of config elements. ">
<polygon fill="white" stroke="black" points="152.5,-98 152.5,-139 299.5,-139 299.5,-98 152.5,-98"/>
<text text-anchor="start" x="160.5" y="-127" font-family="Helvetica,sans-Serif" font-size="10.00">softwarecontainer::</text>
<text text-anchor="start" x="160.5" y="-116" font-family="Helvetica,sans-Serif" font-size="10.00">WaylandGateway::readConfig</text>
<text text-anchor="middle" x="226" y="-105" font-family="Helvetica,sans-Serif" font-size="10.00">Element</text>
</a>
</g>
</g>
<!-- Node1&#45;&gt;Node7 -->
<g id="edge6" class="edge"><title>Node1&#45;&gt;Node7</title>
<path fill="none" stroke="midnightblue" d="M110.494,-138.242C123.983,-135.917 138.455,-133.422 152.417,-131.014"/>
<polygon fill="midnightblue" stroke="midnightblue" points="109.656,-134.835 100.396,-139.983 110.845,-141.733 109.656,-134.835"/>
</g>
<!-- Node8 -->
<g id="node8" class="node"><title>Node8</title>
<g id="a_node8"><a xlink:href="classsoftwarecontainer_1_1_pulse_gateway.html#a5b89dda3e94723ecacddfc77ee0f84a1" target="_top" xlink:title="Gateway specific parsing of config elements. ">
<polygon fill="white" stroke="black" points="141,-49.5 141,-79.5 311,-79.5 311,-49.5 141,-49.5"/>
<text text-anchor="start" x="149" y="-67.5" font-family="Helvetica,sans-Serif" font-size="10.00">softwarecontainer::</text>
<text text-anchor="middle" x="226" y="-56.5" font-family="Helvetica,sans-Serif" font-size="10.00">PulseGateway::readConfigElement</text>
</a>
</g>
</g>
<!-- Node1&#45;&gt;Node8 -->
<g id="edge7" class="edge"><title>Node1&#45;&gt;Node8</title>
<path fill="none" stroke="midnightblue" d="M76.3206,-127.037C92.4961,-114.268 114.419,-98.6343 136,-88.5 143.243,-85.0988 151.051,-82.1107 158.929,-79.504"/>
<polygon fill="midnightblue" stroke="midnightblue" points="74.0061,-124.407 68.4181,-133.409 78.3998,-129.857 74.0061,-124.407"/>
</g>
<!-- Node9 -->
<g id="node9" class="node"><title>Node9</title>
<g id="a_node9"><a xlink:href="classsoftwarecontainer_1_1_j_s_o_n_parser.html#add62ac3a9cf40edcc4f48b8a53f6d312" target="_top" xlink:title="Reads an optional value from a JSON object. ">
<polygon fill="white" stroke="black" points="159.5,-0.5 159.5,-30.5 292.5,-30.5 292.5,-0.5 159.5,-0.5"/>
<text text-anchor="start" x="167.5" y="-18.5" font-family="Helvetica,sans-Serif" font-size="10.00">softwarecontainer::</text>
<text text-anchor="middle" x="226" y="-7.5" font-family="Helvetica,sans-Serif" font-size="10.00">JSONParser::readOptional</text>
</a>
</g>
</g>
<!-- Node1&#45;&gt;Node9 -->
<g id="edge8" class="edge"><title>Node1&#45;&gt;Node9</title>
<path fill="none" stroke="midnightblue" d="M63.6572,-124.721C77.9933,-100.053 103.628,-62.1244 136,-40.5 143.073,-35.7751 151.032,-31.935 159.208,-28.816"/>
<polygon fill="midnightblue" stroke="midnightblue" points="60.5901,-123.034 58.7255,-133.464 66.687,-126.473 60.5901,-123.034"/>
</g>
<!-- Node4 -->
<g id="node4" class="node"><title>Node4</title>
<g id="a_node4"><a xlink:href="classsoftwarecontainer_1_1_device_node_gateway.html#a97faa249cb97d85ec37b0d923ad6e1a3" target="_top" xlink:title="Gateway specific parsing of config elements. ">
<polygon fill="white" stroke="black" points="352,-215 352,-256 515,-256 515,-215 352,-215"/>
<text text-anchor="start" x="360" y="-244" font-family="Helvetica,sans-Serif" font-size="10.00">softwarecontainer::</text>
<text text-anchor="start" x="360" y="-233" font-family="Helvetica,sans-Serif" font-size="10.00">DeviceNodeGateway::readConfig</text>
<text text-anchor="middle" x="433.5" y="-222" font-family="Helvetica,sans-Serif" font-size="10.00">Element</text>
</a>
</g>
</g>
<!-- Node3&#45;&gt;Node4 -->
<g id="edge3" class="edge"><title>Node3&#45;&gt;Node4</title>
<path fill="none" stroke="midnightblue" d="M286.338,-233.366C306.813,-233.665 330.105,-234.005 351.985,-234.325"/>
<polygon fill="midnightblue" stroke="midnightblue" points="286.272,-229.865 276.222,-233.219 286.17,-236.864 286.272,-229.865"/>
</g>
<!-- Node6 -->
<g id="node6" class="node"><title>Node6</title>
<g id="a_node6"><a xlink:href="classsoftwarecontainer_1_1_network_gateway.html#a9e47cb8f232090f67d3655c35dc15549" target="_top" xlink:title="Gateway specific parsing of config elements. ">
<polygon fill="white" stroke="black" points="360.5,-155 360.5,-196 506.5,-196 506.5,-155 360.5,-155"/>
<text text-anchor="start" x="368.5" y="-184" font-family="Helvetica,sans-Serif" font-size="10.00">softwarecontainer::</text>
<text text-anchor="start" x="368.5" y="-173" font-family="Helvetica,sans-Serif" font-size="10.00">NetworkGateway::readConfig</text>
<text text-anchor="middle" x="433.5" y="-162" font-family="Helvetica,sans-Serif" font-size="10.00">Element</text>
</a>
</g>
</g>
<!-- Node5&#45;&gt;Node6 -->
<g id="edge5" class="edge"><title>Node5&#45;&gt;Node6</title>
<path fill="none" stroke="midnightblue" d="M326.295,-177.05C337.772,-176.883 349.306,-176.715 360.324,-176.554"/>
<polygon fill="midnightblue" stroke="midnightblue" points="326.187,-173.552 316.239,-177.197 326.289,-180.551 326.187,-173.552"/>
</g>
</g>
</svg>
