<?xml version="1.0" encoding="UTF-8" standalone="no"?>
<!DOCTYPE svg PUBLIC "-//W3C//DTD SVG 1.1//EN"
 "http://www.w3.org/Graphics/SVG/1.1/DTD/svg11.dtd">
<!-- Generated by graphviz version 2.38.0 (20140413.2041)
 -->
<!-- Title: softwarecontainer::JSONParser::readOptional Pages: 1 -->
<svg width="288pt" height="88pt"
 viewBox="0.00 0.00 288.00 88.00" xmlns="http://www.w3.org/2000/svg" xmlns:xlink="http://www.w3.org/1999/xlink">
<g id="graph0" class="graph" transform="scale(1 1) rotate(0) translate(4 84)">
<title>softwarecontainer::JSONParser::readOptional</title>
<polygon fill="white" stroke="none" points="-4,4 -4,-84 284,-84 284,4 -4,4"/>
<!-- Node1 -->
<g id="node1" class="node"><title>Node1</title>
<polygon fill="#bfbfbf" stroke="black" points="0,-24.5 0,-54.5 133,-54.5 133,-24.5 0,-24.5"/>
<text text-anchor="start" x="8" y="-42.5" font-family="Helvetica,sans-Serif" font-size="10.00">softwarecontainer::</text>
<text text-anchor="middle" x="66.5" y="-31.5" font-family="Helvetica,sans-Serif" font-size="10.00">JSONParser::readOptional</text>
</g>
<!-- Node2 -->
<g id="node2" class="node"><title>Node2</title>
<g id="a_node2"><a xlink:href="classsoftwarecontainer_1_1_j_s_o_n_parser.html#afd27128a637a8f3f44223bf3442651b7" target="_top" xlink:title="Checks if a given JSON object contains a certain key. ">
<polygon fill="white" stroke="black" points="169,-49.5 169,-79.5 280,-79.5 280,-49.5 169,-49.5"/>
<text text-anchor="start" x="177" y="-67.5" font-family="Helvetica,sans-Serif" font-size="10.00">softwarecontainer::</text>
<text text-anchor="middle" x="224.5" y="-56.5" font-family="Helvetica,sans-Serif" font-size="10.00">JSONParser::hasKey</text>
</a>
</g>
</g>
<!-- Node1&#45;&gt;Node2 -->
<g id="edge1" class="edge"><title>Node1&#45;&gt;Node2</title>
<path fill="none" stroke="midnightblue" d="M133.206,-50.0298C141.612,-51.377 150.214,-52.7554 158.607,-54.1005"/>
<polygon fill="midnightblue" stroke="midnightblue" points="158.287,-57.5937 168.714,-55.7203 159.394,-50.6819 158.287,-57.5937"/>
</g>
<!-- Node3 -->
<g id="node3" class="node"><title>Node3</title>
<g id="a_node3"><a xlink:href="classsoftwarecontainer_1_1_j_s_o_n_parser.html#a7ea50df505b43684c4a1d82ca6cb6e82" target="_top" xlink:title="Reads a string from a JSON Object. ">
<polygon fill="white" stroke="black" points="174.5,-0.5 174.5,-30.5 274.5,-30.5 274.5,-0.5 174.5,-0.5"/>
<text text-anchor="start" x="182.5" y="-18.5" font-family="Helvetica,sans-Serif" font-size="10.00">softwarecontainer::</text>
<text text-anchor="middle" x="224.5" y="-7.5" font-family="Helvetica,sans-Serif" font-size="10.00">JSONParser::read</text>
</a>
</g>
</g>
<!-- Node1&#45;&gt;Node3 -->
<g id="edge2" class="edge"><title>Node1&#45;&gt;Node3</title>
<path fill="none" stroke="midnightblue" d="M133.206,-29.3914C143.573,-27.7965 154.237,-26.1558 164.441,-24.586"/>
<polygon fill="midnightblue" stroke="midnightblue" points="165.112,-28.0241 174.463,-23.0441 164.047,-21.1054 165.112,-28.0241"/>
</g>
</g>
</svg>
