<?xml version="1.0" encoding="UTF-8" standalone="no"?>
<!DOCTYPE svg PUBLIC "-//W3C//DTD SVG 1.1//EN"
 "http://www.w3.org/Graphics/SVG/1.1/DTD/svg11.dtd">
<!-- Generated by graphviz version 2.38.0 (20140413.2041)
 -->
<!-- Title: softwarecontainer::SoftwareContainer::addGateway Pages: 1 -->
<svg width="319pt" height="39pt"
 viewBox="0.00 0.00 319.00 39.00" xmlns="http://www.w3.org/2000/svg" xmlns:xlink="http://www.w3.org/1999/xlink">
<g id="graph0" class="graph" transform="scale(1 1) rotate(0) translate(4 35)">
<title>softwarecontainer::SoftwareContainer::addGateway</title>
<polygon fill="white" stroke="none" points="-4,4 -4,-35 315,-35 315,4 -4,4"/>
<!-- Node1 -->
<g id="node1" class="node"><title>Node1</title>
<polygon fill="#bfbfbf" stroke="black" points="0,-0.5 0,-30.5 158,-30.5 158,-0.5 0,-0.5"/>
<text text-anchor="start" x="8" y="-18.5" font-family="Helvetica,sans-Serif" font-size="10.00">softwarecontainer::</text>
<text text-anchor="middle" x="79" y="-7.5" font-family="Helvetica,sans-Serif" font-size="10.00">SoftwareContainer::addGateway</text>
</g>
<!-- Node2 -->
<g id="node2" class="node"><title>Node2</title>
<g id="a_node2"><a xlink:href="classsoftwarecontainer_1_1_gateway.html#ae2779e1333424281c1826794c1db82cb" target="_top" xlink:title="Set the associated container for this gateway. ">
<polygon fill="white" stroke="black" points="194,-0.5 194,-30.5 311,-30.5 311,-0.5 194,-0.5"/>
<text text-anchor="start" x="202" y="-18.5" font-family="Helvetica,sans-Serif" font-size="10.00">softwarecontainer::</text>
<text text-anchor="middle" x="252.5" y="-7.5" font-family="Helvetica,sans-Serif" font-size="10.00">Gateway::setContainer</text>
</a>
</g>
</g>
<!-- Node1&#45;&gt;Node2 -->
<g id="edge1" class="edge"><title>Node1&#45;&gt;Node2</title>
<path fill="none" stroke="midnightblue" d="M158.222,-15.5C166.764,-15.5 175.406,-15.5 183.806,-15.5"/>
<polygon fill="midnightblue" stroke="midnightblue" points="183.908,-19.0001 193.908,-15.5 183.908,-12.0001 183.908,-19.0001"/>
</g>
</g>
</svg>
