<?xml version="1.0" encoding="UTF-8" standalone="no"?>
<!DOCTYPE svg PUBLIC "-//W3C//DTD SVG 1.1//EN"
 "http://www.w3.org/Graphics/SVG/1.1/DTD/svg11.dtd">
<!-- Generated by graphviz version 2.38.0 (20140413.2041)
 -->
<!-- Title: softwarecontainer::Netlink::hasAddress Pages: 1 -->
<svg width="326pt" height="39pt"
 viewBox="0.00 0.00 326.00 39.00" xmlns="http://www.w3.org/2000/svg" xmlns:xlink="http://www.w3.org/1999/xlink">
<g id="graph0" class="graph" transform="scale(1 1) rotate(0) translate(4 35)">
<title>softwarecontainer::Netlink::hasAddress</title>
<polygon fill="white" stroke="none" points="-4,4 -4,-35 322,-35 322,4 -4,4"/>
<!-- Node1 -->
<g id="node1" class="node"><title>Node1</title>
<polygon fill="#bfbfbf" stroke="black" points="0,-0.5 0,-30.5 105,-30.5 105,-0.5 0,-0.5"/>
<text text-anchor="start" x="8" y="-18.5" font-family="Helvetica,sans-Serif" font-size="10.00">softwarecontainer::</text>
<text text-anchor="middle" x="52.5" y="-7.5" font-family="Helvetica,sans-Serif" font-size="10.00">Netlink::hasAddress</text>
</g>
<!-- Node2 -->
<g id="node2" class="node"><title>Node2</title>
<g id="a_node2"><a xlink:href="classsoftwarecontainer_1_1_network_gateway.html#adf3c1eff6621486ea81748e23cc9cbbb" target="_top" xlink:title="Implements Gateway::teardownGateway. ">
<polygon fill="white" stroke="black" points="141,-0.5 141,-30.5 318,-30.5 318,-0.5 141,-0.5"/>
<text text-anchor="start" x="149" y="-18.5" font-family="Helvetica,sans-Serif" font-size="10.00">softwarecontainer::</text>
<text text-anchor="middle" x="229.5" y="-7.5" font-family="Helvetica,sans-Serif" font-size="10.00">NetworkGateway::teardownGateway</text>
</a>
</g>
</g>
<!-- Node1&#45;&gt;Node2 -->
<g id="edge1" class="edge"><title>Node1&#45;&gt;Node2</title>
<path fill="none" stroke="midnightblue" d="M115.071,-15.5C123.439,-15.5 132.154,-15.5 140.872,-15.5"/>
<polygon fill="midnightblue" stroke="midnightblue" points="115.059,-12.0001 105.059,-15.5 115.059,-19.0001 115.059,-12.0001"/>
</g>
</g>
</svg>
