<?xml version="1.0" encoding="UTF-8" standalone="no"?>
<!DOCTYPE svg PUBLIC "-//W3C//DTD SVG 1.1//EN"
 "http://www.w3.org/Graphics/SVG/1.1/DTD/svg11.dtd">
<!-- Generated by graphviz version 2.38.0 (20140413.2041)
 -->
<!-- Title: softwarecontainer::SoftwareContainerAbstractInterface Pages: 1 -->
<svg width="181pt" height="106pt"
 viewBox="0.00 0.00 181.00 106.00" xmlns="http://www.w3.org/2000/svg" xmlns:xlink="http://www.w3.org/1999/xlink">
<g id="graph0" class="graph" transform="scale(1 1) rotate(0) translate(4 102)">
<title>softwarecontainer::SoftwareContainerAbstractInterface</title>
<polygon fill="white" stroke="none" points="-4,4 -4,-102 177,-102 177,4 -4,4"/>
<!-- Node1 -->
<g id="node1" class="node"><title>Node1</title>
<polygon fill="#bfbfbf" stroke="black" points="0,-67.5 0,-97.5 173,-97.5 173,-67.5 0,-67.5"/>
<text text-anchor="start" x="8" y="-85.5" font-family="Helvetica,sans-Serif" font-size="10.00">softwarecontainer::</text>
<text text-anchor="middle" x="86.5" y="-74.5" font-family="Helvetica,sans-Serif" font-size="10.00">SoftwareContainerAbstractInterface</text>
</g>
<!-- Node2 -->
<g id="node2" class="node"><title>Node2</title>
<g id="a_node2"><a xlink:href="classsoftwarecontainer_1_1_software_container.html" target="_top" xlink:title="An abstraction of concrete container implementations. ">
<polygon fill="white" stroke="black" points="36.5,-0.5 36.5,-30.5 136.5,-30.5 136.5,-0.5 36.5,-0.5"/>
<text text-anchor="start" x="44.5" y="-18.5" font-family="Helvetica,sans-Serif" font-size="10.00">softwarecontainer::</text>
<text text-anchor="middle" x="86.5" y="-7.5" font-family="Helvetica,sans-Serif" font-size="10.00">SoftwareContainer</text>
</a>
</g>
</g>
<!-- Node1&#45;&gt;Node2 -->
<g id="edge1" class="edge"><title>Node1&#45;&gt;Node2</title>
<path fill="none" stroke="midnightblue" d="M86.5,-57.1081C86.5,-48.1539 86.5,-38.3227 86.5,-30.5765"/>
<polygon fill="midnightblue" stroke="midnightblue" points="83.0001,-57.3959 86.5,-67.396 90.0001,-57.396 83.0001,-57.3959"/>
</g>
</g>
</svg>
