<?xml version="1.0" encoding="UTF-8" standalone="no"?>
<!DOCTYPE svg PUBLIC "-//W3C//DTD SVG 1.1//EN"
 "http://www.w3.org/Graphics/SVG/1.1/DTD/svg11.dtd">
<!-- Generated by graphviz version 2.38.0 (20140413.2041)
 -->
<!-- Title: softwarecontainer::Gateway::hasContainer Pages: 1 -->
<svg width="536pt" height="182pt"
 viewBox="0.00 0.00 536.00 181.50" xmlns="http://www.w3.org/2000/svg" xmlns:xlink="http://www.w3.org/1999/xlink">
<g id="graph0" class="graph" transform="scale(1 1) rotate(0) translate(4 177.5)">
<title>softwarecontainer::Gateway::hasContainer</title>
<polygon fill="white" stroke="none" points="-4,4 -4,-177.5 532,-177.5 532,4 -4,4"/>
<!-- Node1 -->
<g id="node1" class="node"><title>Node1</title>
<polygon fill="#bfbfbf" stroke="black" points="0,-77 0,-107 119,-107 119,-77 0,-77"/>
<text text-anchor="start" x="8" y="-95" font-family="Helvetica,sans-Serif" font-size="10.00">softwarecontainer::</text>
<text text-anchor="middle" x="59.5" y="-84" font-family="Helvetica,sans-Serif" font-size="10.00">Gateway::hasContainer</text>
</g>
<!-- Node2 -->
<g id="node2" class="node"><title>Node2</title>
<g id="a_node2"><a xlink:href="classsoftwarecontainer_1_1_gateway.html#aa62fd6a17abb2762b8d62cc85c7750c7" target="_top" xlink:title="Applies any configuration set by setConfig() ">
<polygon fill="white" stroke="black" points="187.5,-143 187.5,-173 287.5,-173 287.5,-143 187.5,-143"/>
<text text-anchor="start" x="195.5" y="-161" font-family="Helvetica,sans-Serif" font-size="10.00">softwarecontainer::</text>
<text text-anchor="middle" x="237.5" y="-150" font-family="Helvetica,sans-Serif" font-size="10.00">Gateway::activate</text>
</a>
</g>
</g>
<!-- Node1&#45;&gt;Node2 -->
<g id="edge1" class="edge"><title>Node1&#45;&gt;Node2</title>
<path fill="none" stroke="midnightblue" d="M109.393,-110.746C124.046,-116.332 140.164,-122.444 155,-128 168.131,-132.918 182.478,-138.222 195.423,-142.982"/>
<polygon fill="midnightblue" stroke="midnightblue" points="110.595,-107.459 100.004,-107.163 108.099,-113.998 110.595,-107.459"/>
</g>
<!-- Node4 -->
<g id="node4" class="node"><title>Node4</title>
<g id="a_node4"><a xlink:href="classsoftwarecontainer_1_1_network_gateway.html#a8a08792ecd43b1694222ca286514ee21" target="_top" xlink:title="Implements Gateway::activateGateway. ">
<polygon fill="white" stroke="black" points="356,-77 356,-107 528,-107 528,-77 356,-77"/>
<text text-anchor="start" x="364" y="-95" font-family="Helvetica,sans-Serif" font-size="10.00">softwarecontainer::</text>
<text text-anchor="middle" x="442" y="-84" font-family="Helvetica,sans-Serif" font-size="10.00">NetworkGateway::activateGateway</text>
</a>
</g>
</g>
<!-- Node1&#45;&gt;Node4 -->
<g id="edge3" class="edge"><title>Node1&#45;&gt;Node4</title>
<path fill="none" stroke="midnightblue" d="M129.312,-93.6262C137.96,-93.7805 146.685,-93.912 155,-94 228.329,-94.7759 246.669,-94.606 320,-94 331.555,-93.9045 343.73,-93.7577 355.725,-93.5861"/>
<polygon fill="midnightblue" stroke="midnightblue" points="129.289,-90.1252 119.225,-93.4357 129.157,-97.124 129.289,-90.1252"/>
</g>
<!-- Node5 -->
<g id="node5" class="node"><title>Node5</title>
<g id="a_node5"><a xlink:href="classsoftwarecontainer_1_1_gateway.html#ae352621efe21b022c5829068e9019c44" target="_top" xlink:title="Execute the given command in the container. ">
<polygon fill="white" stroke="black" points="164.5,-55 164.5,-85 310.5,-85 310.5,-55 164.5,-55"/>
<text text-anchor="start" x="172.5" y="-73" font-family="Helvetica,sans-Serif" font-size="10.00">softwarecontainer::</text>
<text text-anchor="middle" x="237.5" y="-62" font-family="Helvetica,sans-Serif" font-size="10.00">Gateway::executeInContainer</text>
</a>
</g>
</g>
<!-- Node1&#45;&gt;Node5 -->
<g id="edge4" class="edge"><title>Node1&#45;&gt;Node5</title>
<path fill="none" stroke="midnightblue" d="M129.124,-83.4219C140.687,-81.9766 152.72,-80.4725 164.369,-79.0164"/>
<polygon fill="midnightblue" stroke="midnightblue" points="128.594,-79.9609 119.105,-84.6743 129.462,-86.9069 128.594,-79.9609"/>
</g>
<!-- Node6 -->
<g id="node6" class="node"><title>Node6</title>
<g id="a_node6"><a xlink:href="classsoftwarecontainer_1_1_gateway.html#a20f57ddde85b938d67104625e774a714" target="_top" xlink:title="Set an environment variable in the associated container. ">
<polygon fill="white" stroke="black" points="155,-6 155,-36 320,-36 320,-6 155,-6"/>
<text text-anchor="start" x="163" y="-24" font-family="Helvetica,sans-Serif" font-size="10.00">softwarecontainer::</text>
<text text-anchor="middle" x="237.5" y="-13" font-family="Helvetica,sans-Serif" font-size="10.00">Gateway::setEnvironmentVariable</text>
</a>
</g>
</g>
<!-- Node1&#45;&gt;Node6 -->
<g id="edge6" class="edge"><title>Node1&#45;&gt;Node6</title>
<path fill="none" stroke="midnightblue" d="M96.8048,-72.0765C114.105,-63.0699 135.283,-52.7373 155,-45 163.101,-41.821 171.797,-38.8325 180.383,-36.1156"/>
<polygon fill="midnightblue" stroke="midnightblue" points="94.838,-69.1569 87.6267,-76.9189 98.1044,-75.3481 94.838,-69.1569"/>
</g>
<!-- Node3 -->
<g id="node3" class="node"><title>Node3</title>
<g id="a_node3"><a xlink:href="classsoftwarecontainer_1_1_d_bus_gateway.html#a7ba4cdcf870915d57f9f36ed68f7c33a" target="_top" xlink:title="Activates both dbus session instances. ">
<polygon fill="white" stroke="black" points="381.5,-143 381.5,-173 502.5,-173 502.5,-143 381.5,-143"/>
<text text-anchor="start" x="389.5" y="-161" font-family="Helvetica,sans-Serif" font-size="10.00">softwarecontainer::</text>
<text text-anchor="middle" x="442" y="-150" font-family="Helvetica,sans-Serif" font-size="10.00">DBusGateway::activate</text>
</a>
</g>
</g>
<!-- Node2&#45;&gt;Node3 -->
<g id="edge2" class="edge"><title>Node2&#45;&gt;Node3</title>
<path fill="none" stroke="midnightblue" d="M297.723,-158C324.007,-158 354.885,-158 381.232,-158"/>
<polygon fill="midnightblue" stroke="midnightblue" points="297.52,-154.5 287.52,-158 297.52,-161.5 297.52,-154.5"/>
</g>
<!-- Node5&#45;&gt;Node4 -->
<g id="edge5" class="edge"><title>Node5&#45;&gt;Node4</title>
<path fill="none" stroke="midnightblue" d="M320.829,-78.9444C332.417,-80.2033 344.348,-81.4995 355.985,-82.7638"/>
<polygon fill="midnightblue" stroke="midnightblue" points="321.069,-75.45 310.75,-77.8493 320.313,-82.409 321.069,-75.45"/>
</g>
<!-- Node7 -->
<g id="node7" class="node"><title>Node7</title>
<g id="a_node7"><a xlink:href="classsoftwarecontainer_1_1_d_bus_gateway_instance.html#a8dc149286b57b259c95d53c130b9a129" target="_top" xlink:title="Implements Gateway::activateGateway. ">
<polygon fill="white" stroke="black" points="383,-0.5 383,-41.5 501,-41.5 501,-0.5 383,-0.5"/>
<text text-anchor="start" x="391" y="-29.5" font-family="Helvetica,sans-Serif" font-size="10.00">softwarecontainer::</text>
<text text-anchor="start" x="391" y="-18.5" font-family="Helvetica,sans-Serif" font-size="10.00">DBusGatewayInstance</text>
<text text-anchor="middle" x="442" y="-7.5" font-family="Helvetica,sans-Serif" font-size="10.00">::activateGateway</text>
</a>
</g>
</g>
<!-- Node6&#45;&gt;Node7 -->
<g id="edge7" class="edge"><title>Node6&#45;&gt;Node7</title>
<path fill="none" stroke="midnightblue" d="M330.677,-21C348.435,-21 366.569,-21 382.869,-21"/>
<polygon fill="midnightblue" stroke="midnightblue" points="330.281,-17.5001 320.281,-21 330.281,-24.5001 330.281,-17.5001"/>
</g>
</g>
</svg>
