<?xml version="1.0" encoding="UTF-8" standalone="no"?>
<!DOCTYPE svg PUBLIC "-//W3C//DTD SVG 1.1//EN"
 "http://www.w3.org/Graphics/SVG/1.1/DTD/svg11.dtd">
<!-- Generated by graphviz version 2.38.0 (20140413.2041)
 -->
<!-- Title: DBusCppAdaptor Pages: 1 -->
<svg width="640pt" height="130pt"
 viewBox="0.00 0.00 640.00 129.50" xmlns="http://www.w3.org/2000/svg" xmlns:xlink="http://www.w3.org/1999/xlink">
<g id="graph0" class="graph" transform="scale(1 1) rotate(0) translate(4 125.5)">
<title>DBusCppAdaptor</title>
<polygon fill="white" stroke="none" points="-4,4 -4,-125.5 636,-125.5 636,4 -4,4"/>
<!-- Node1 -->
<g id="node1" class="node"><title>Node1</title>
<polygon fill="#bfbfbf" stroke="black" points="539,-38.5 539,-57.5 632,-57.5 632,-38.5 539,-38.5"/>
<text text-anchor="middle" x="585.5" y="-45.5" font-family="Helvetica,sans-Serif" font-size="10.00">DBusCppAdaptor</text>
</g>
<!-- Node2 -->
<g id="node2" class="node"><title>Node2</title>
<g id="a_node2"><a xlink:href="classsoftwarecontainer_1_1_software_container_agent_adaptor.html" target="_top" xlink:title="softwarecontainer::\lSoftwareContainerAgentAdaptor">
<polygon fill="white" stroke="black" points="345,-77 345,-107 502,-107 502,-77 345,-77"/>
<text text-anchor="start" x="353" y="-95" font-family="Helvetica,sans-Serif" font-size="10.00">softwarecontainer::</text>
<text text-anchor="middle" x="423.5" y="-84" font-family="Helvetica,sans-Serif" font-size="10.00">SoftwareContainerAgentAdaptor</text>
</a>
</g>
</g>
<!-- Node2&#45;&gt;Node1 -->
<g id="edge1" class="edge"><title>Node2&#45;&gt;Node1</title>
<path fill="none" stroke="midnightblue" d="M488.852,-74.3031C509.628,-68.5899 531.868,-62.4738 549.67,-57.5783"/>
<polygon fill="midnightblue" stroke="midnightblue" points="487.829,-70.9544 479.115,-76.9808 489.686,-77.7038 487.829,-70.9544"/>
</g>
<!-- Node3 -->
<g id="node3" class="node"><title>Node3</title>
<polygon fill="white" stroke="#bfbfbf" points="137,-91 137,-121 268,-121 268,-91 137,-91"/>
<text text-anchor="start" x="145" y="-109" font-family="Helvetica,sans-Serif" font-size="10.00">com::pelagicore::Software</text>
<text text-anchor="middle" x="202.5" y="-98" font-family="Helvetica,sans-Serif" font-size="10.00">ContainerAgent_adaptor</text>
</g>
<!-- Node3&#45;&gt;Node2 -->
<g id="edge2" class="edge"><title>Node3&#45;&gt;Node2</title>
<path fill="none" stroke="midnightblue" d="M278.089,-101.232C299.627,-99.8549 323.177,-98.3494 344.894,-96.9611"/>
<polygon fill="midnightblue" stroke="midnightblue" points="277.779,-97.7443 268.023,-101.875 278.226,-104.73 277.779,-97.7443"/>
</g>
<!-- Node4 -->
<g id="node4" class="node"><title>Node4</title>
<g id="a_node4"><a xlink:href="classsoftwarecontainer_1_1_software_container_agent.html" target="_top" xlink:title="A wrapper class. ">
<polygon fill="white" stroke="black" points="141,-42 141,-72 264,-72 264,-42 141,-42"/>
<text text-anchor="start" x="149" y="-60" font-family="Helvetica,sans-Serif" font-size="10.00">softwarecontainer::</text>
<text text-anchor="middle" x="202.5" y="-49" font-family="Helvetica,sans-Serif" font-size="10.00">SoftwareContainerAgent</text>
</a>
</g>
</g>
<!-- Node4&#45;&gt;Node2 -->
<g id="edge3" class="edge"><title>Node4&#45;&gt;Node2</title>
<path fill="none" stroke="#9a32cd" stroke-dasharray="5,2" d="M274.357,-68.3242C296.854,-71.9195 321.846,-75.9138 344.798,-79.5819"/>
<polygon fill="#9a32cd" stroke="#9a32cd" points="274.64,-64.8251 264.213,-66.703 273.535,-71.7373 274.64,-64.8251"/>
<text text-anchor="middle" x="306.5" y="-80" font-family="Helvetica,sans-Serif" font-size="10.00"> m_agent</text>
</g>
<!-- Node5 -->
<g id="node5" class="node"><title>Node5</title>
<g id="a_node5"><a xlink:href="classsoftwarecontainer_1_1_j_s_o_n_parser.html" target="_top" xlink:title="Convenience layer for the Jansson JSON parser. ">
<polygon fill="white" stroke="black" points="0,-42 0,-72 100,-72 100,-42 0,-42"/>
<text text-anchor="start" x="8" y="-60" font-family="Helvetica,sans-Serif" font-size="10.00">softwarecontainer::</text>
<text text-anchor="middle" x="50" y="-49" font-family="Helvetica,sans-Serif" font-size="10.00">JSONParser</text>
</a>
</g>
</g>
<!-- Node5&#45;&gt;Node4 -->
<g id="edge4" class="edge"><title>Node5&#45;&gt;Node4</title>
<path fill="none" stroke="darkgreen" d="M110.493,-57C120.458,-57 130.809,-57 140.804,-57"/>
<polygon fill="darkgreen" stroke="darkgreen" points="110.279,-53.5001 100.279,-57 110.279,-60.5001 110.279,-53.5001"/>
</g>
<!-- Node6 -->
<g id="node6" class="node"><title>Node6</title>
<polygon fill="white" stroke="#bfbfbf" points="352,-38.5 352,-57.5 495,-57.5 495,-38.5 352,-38.5"/>
<text text-anchor="middle" x="423.5" y="-45.5" font-family="Helvetica,sans-Serif" font-size="10.00">DBus::IntrospectableAdaptor</text>
</g>
<!-- Node6&#45;&gt;Node1 -->
<g id="edge5" class="edge"><title>Node6&#45;&gt;Node1</title>
<path fill="none" stroke="midnightblue" d="M505.201,-48C516.666,-48 528.112,-48 538.597,-48"/>
<polygon fill="midnightblue" stroke="midnightblue" points="505.144,-44.5001 495.144,-48 505.144,-51.5001 505.144,-44.5001"/>
</g>
<!-- Node7 -->
<g id="node7" class="node"><title>Node7</title>
<polygon fill="white" stroke="#bfbfbf" points="368.5,-0.5 368.5,-19.5 478.5,-19.5 478.5,-0.5 368.5,-0.5"/>
<text text-anchor="middle" x="423.5" y="-7.5" font-family="Helvetica,sans-Serif" font-size="10.00">DBus::ObjectAdaptor</text>
</g>
<!-- Node7&#45;&gt;Node1 -->
<g id="edge6" class="edge"><title>Node7&#45;&gt;Node1</title>
<path fill="none" stroke="midnightblue" d="M474.892,-21.968C497.313,-27.2931 523.347,-33.4762 544.416,-38.4799"/>
<polygon fill="midnightblue" stroke="midnightblue" points="475.413,-18.4945 464.875,-19.589 473.795,-25.3051 475.413,-18.4945"/>
</g>
</g>
</svg>
