<?xml version="1.0" encoding="UTF-8" standalone="no"?>
<!DOCTYPE svg PUBLIC "-//W3C//DTD SVG 1.1//EN"
 "http://www.w3.org/Graphics/SVG/1.1/DTD/svg11.dtd">
<!-- Generated by graphviz version 2.38.0 (20140413.2041)
 -->
<!-- Title: DBusCppAdaptor Pages: 1 -->
<svg width="503pt" height="141pt"
 viewBox="0.00 0.00 503.00 140.50" xmlns="http://www.w3.org/2000/svg" xmlns:xlink="http://www.w3.org/1999/xlink">
<g id="graph0" class="graph" transform="scale(1 1) rotate(0) translate(4 136.5)">
<title>DBusCppAdaptor</title>
<polygon fill="white" stroke="none" points="-4,4 -4,-136.5 499,-136.5 499,4 -4,4"/>
<!-- Node1 -->
<g id="node1" class="node"><title>Node1</title>
<polygon fill="#bfbfbf" stroke="black" points="402,-38.5 402,-57.5 495,-57.5 495,-38.5 402,-38.5"/>
<text text-anchor="middle" x="448.5" y="-45.5" font-family="Helvetica,sans-Serif" font-size="10.00">DBusCppAdaptor</text>
</g>
<!-- Node2 -->
<g id="node2" class="node"><title>Node2</title>
<g id="a_node2"><a xlink:href="classsoftwarecontainer_1_1_software_container_agent_adaptor.html" target="_top" xlink:title="softwarecontainer::\lSoftwareContainerAgentAdaptor">
<polygon fill="white" stroke="black" points="208,-77 208,-107 365,-107 365,-77 208,-77"/>
<text text-anchor="start" x="216" y="-95" font-family="Helvetica,sans-Serif" font-size="10.00">softwarecontainer::</text>
<text text-anchor="middle" x="286.5" y="-84" font-family="Helvetica,sans-Serif" font-size="10.00">SoftwareContainerAgentAdaptor</text>
</a>
</g>
</g>
<!-- Node2&#45;&gt;Node1 -->
<g id="edge1" class="edge"><title>Node2&#45;&gt;Node1</title>
<path fill="none" stroke="midnightblue" d="M351.852,-74.3031C372.628,-68.5899 394.868,-62.4738 412.67,-57.5783"/>
<polygon fill="midnightblue" stroke="midnightblue" points="350.829,-70.9544 342.115,-76.9808 352.686,-77.7038 350.829,-70.9544"/>
</g>
<!-- Node3 -->
<g id="node3" class="node"><title>Node3</title>
<polygon fill="white" stroke="#bfbfbf" points="0,-102 0,-132 131,-132 131,-102 0,-102"/>
<text text-anchor="start" x="8" y="-120" font-family="Helvetica,sans-Serif" font-size="10.00">com::pelagicore::Software</text>
<text text-anchor="middle" x="65.5" y="-109" font-family="Helvetica,sans-Serif" font-size="10.00">ContainerAgent_adaptor</text>
</g>
<!-- Node3&#45;&gt;Node2 -->
<g id="edge2" class="edge"><title>Node3&#45;&gt;Node2</title>
<path fill="none" stroke="midnightblue" d="M141.089,-108.485C162.627,-106.027 186.177,-103.338 207.894,-100.859"/>
<polygon fill="midnightblue" stroke="midnightblue" points="140.561,-105.023 131.023,-109.634 141.355,-111.978 140.561,-105.023"/>
</g>
<!-- Node4 -->
<g id="node4" class="node"><title>Node4</title>
<g id="a_node4"><a xlink:href="classsoftwarecontainer_1_1_software_container_agent.html" target="_top" xlink:title="A wrapper class. ">
<polygon fill="white" stroke="black" points="4,-53 4,-83 127,-83 127,-53 4,-53"/>
<text text-anchor="start" x="12" y="-71" font-family="Helvetica,sans-Serif" font-size="10.00">softwarecontainer::</text>
<text text-anchor="middle" x="65.5" y="-60" font-family="Helvetica,sans-Serif" font-size="10.00">SoftwareContainerAgent</text>
</a>
</g>
</g>
<!-- Node4&#45;&gt;Node2 -->
<g id="edge3" class="edge"><title>Node4&#45;&gt;Node2</title>
<path fill="none" stroke="#9a32cd" stroke-dasharray="5,2" d="M137.357,-75.7652C159.854,-78.2305 184.846,-80.9695 207.798,-83.4847"/>
<polygon fill="#9a32cd" stroke="#9a32cd" points="137.535,-72.2638 127.213,-74.6535 136.772,-79.2221 137.535,-72.2638"/>
<text text-anchor="middle" x="169.5" y="-85" font-family="Helvetica,sans-Serif" font-size="10.00"> m_agent</text>
</g>
<!-- Node5 -->
<g id="node5" class="node"><title>Node5</title>
<polygon fill="white" stroke="#bfbfbf" points="215,-38.5 215,-57.5 358,-57.5 358,-38.5 215,-38.5"/>
<text text-anchor="middle" x="286.5" y="-45.5" font-family="Helvetica,sans-Serif" font-size="10.00">DBus::IntrospectableAdaptor</text>
</g>
<!-- Node5&#45;&gt;Node1 -->
<g id="edge4" class="edge"><title>Node5&#45;&gt;Node1</title>
<path fill="none" stroke="midnightblue" d="M368.201,-48C379.666,-48 391.112,-48 401.597,-48"/>
<polygon fill="midnightblue" stroke="midnightblue" points="368.144,-44.5001 358.144,-48 368.144,-51.5001 368.144,-44.5001"/>
</g>
<!-- Node6 -->
<g id="node6" class="node"><title>Node6</title>
<polygon fill="white" stroke="#bfbfbf" points="231.5,-0.5 231.5,-19.5 341.5,-19.5 341.5,-0.5 231.5,-0.5"/>
<text text-anchor="middle" x="286.5" y="-7.5" font-family="Helvetica,sans-Serif" font-size="10.00">DBus::ObjectAdaptor</text>
</g>
<!-- Node6&#45;&gt;Node1 -->
<g id="edge5" class="edge"><title>Node6&#45;&gt;Node1</title>
<path fill="none" stroke="midnightblue" d="M337.892,-21.968C360.313,-27.2931 386.347,-33.4762 407.416,-38.4799"/>
<polygon fill="midnightblue" stroke="midnightblue" points="338.413,-18.4945 327.875,-19.589 336.795,-25.3051 338.413,-18.4945"/>
</g>
</g>
</svg>
