<?xml version="1.0" encoding="UTF-8" standalone="no"?>
<!DOCTYPE svg PUBLIC "-//W3C//DTD SVG 1.1//EN"
 "http://www.w3.org/Graphics/SVG/1.1/DTD/svg11.dtd">
<!-- Generated by graphviz version 2.38.0 (20140413.2041)
 -->
<!-- Title: softwarecontainer::Container::stop Pages: 1 -->
<svg width="530pt" height="61pt"
 viewBox="0.00 0.00 530.00 61.00" xmlns="http://www.w3.org/2000/svg" xmlns:xlink="http://www.w3.org/1999/xlink">
<g id="graph0" class="graph" transform="scale(1 1) rotate(0) translate(4 57)">
<title>softwarecontainer::Container::stop</title>
<polygon fill="white" stroke="none" points="-4,4 -4,-57 526,-57 526,4 -4,4"/>
<!-- Node1 -->
<g id="node1" class="node"><title>Node1</title>
<polygon fill="#bfbfbf" stroke="black" points="0,-22.5 0,-52.5 100,-52.5 100,-22.5 0,-22.5"/>
<text text-anchor="start" x="8" y="-40.5" font-family="Helvetica,sans-Serif" font-size="10.00">softwarecontainer::</text>
<text text-anchor="middle" x="50" y="-29.5" font-family="Helvetica,sans-Serif" font-size="10.00">Container::stop</text>
</g>
<!-- Node2 -->
<g id="node2" class="node"><title>Node2</title>
<g id="a_node2"><a xlink:href="classsoftwarecontainer_1_1_container.html#a485f695e1f3afb402ca83d447fdd6acd" target="_top" xlink:title="Calls shutdown on the lxc container. ">
<polygon fill="white" stroke="black" points="136,-22.5 136,-52.5 243,-52.5 243,-22.5 136,-22.5"/>
<text text-anchor="start" x="144" y="-40.5" font-family="Helvetica,sans-Serif" font-size="10.00">softwarecontainer::</text>
<text text-anchor="middle" x="189.5" y="-29.5" font-family="Helvetica,sans-Serif" font-size="10.00">Container::shutdown</text>
</a>
</g>
</g>
<!-- Node1&#45;&gt;Node2 -->
<g id="edge1" class="edge"><title>Node1&#45;&gt;Node2</title>
<path fill="none" stroke="midnightblue" d="M110.442,-37.5C118.902,-37.5 127.554,-37.5 135.872,-37.5"/>
<polygon fill="midnightblue" stroke="midnightblue" points="110.252,-34.0001 100.252,-37.5 110.252,-41.0001 110.252,-34.0001"/>
</g>
<!-- Node3 -->
<g id="node3" class="node"><title>Node3</title>
<g id="a_node3"><a xlink:href="classsoftwarecontainer_1_1_container.html#ad7a8f200ecda3e0e3f3fcf6dd0ad6d6d" target="_top" xlink:title="Constructor. ">
<polygon fill="white" stroke="black" points="415,-22.5 415,-52.5 522,-52.5 522,-22.5 415,-22.5"/>
<text text-anchor="start" x="423" y="-40.5" font-family="Helvetica,sans-Serif" font-size="10.00">softwarecontainer::</text>
<text text-anchor="middle" x="468.5" y="-29.5" font-family="Helvetica,sans-Serif" font-size="10.00">Container::Container</text>
</a>
</g>
</g>
<!-- Node2&#45;&gt;Node3 -->
<g id="edge2" class="edge"><title>Node2&#45;&gt;Node3</title>
<path fill="none" stroke="midnightblue" d="M253.389,-39.8945C261.993,-40.1453 270.714,-40.3596 279,-40.5 323.438,-41.253 334.562,-41.253 379,-40.5 390.528,-40.3047 402.898,-39.9663 414.626,-39.5854"/>
<polygon fill="midnightblue" stroke="midnightblue" points="253.477,-36.3956 243.374,-39.5854 253.261,-43.3923 253.477,-36.3956"/>
</g>
<!-- Node4 -->
<g id="node4" class="node"><title>Node4</title>
<g id="a_node4"><a xlink:href="classsoftwarecontainer_1_1_container.html#ad5e7ca390a1783272fbe703f29a791ae" target="_top" xlink:title="Calls shutdown, and then destroys the container. ">
<polygon fill="white" stroke="black" points="279,-0.5 279,-30.5 379,-30.5 379,-0.5 279,-0.5"/>
<text text-anchor="start" x="287" y="-18.5" font-family="Helvetica,sans-Serif" font-size="10.00">softwarecontainer::</text>
<text text-anchor="middle" x="329" y="-7.5" font-family="Helvetica,sans-Serif" font-size="10.00">Container::destroy</text>
</a>
</g>
</g>
<!-- Node2&#45;&gt;Node4 -->
<g id="edge3" class="edge"><title>Node2&#45;&gt;Node4</title>
<path fill="none" stroke="midnightblue" d="M253.231,-27.4631C261.794,-26.093 270.482,-24.7028 278.76,-23.3784"/>
<polygon fill="midnightblue" stroke="midnightblue" points="252.589,-24.0211 243.268,-29.0571 253.695,-30.9332 252.589,-24.0211"/>
</g>
<!-- Node4&#45;&gt;Node3 -->
<g id="edge4" class="edge"><title>Node4&#45;&gt;Node3</title>
<path fill="none" stroke="midnightblue" d="M389.163,-24.966C397.712,-26.3339 406.462,-27.734 414.872,-29.0795"/>
<polygon fill="midnightblue" stroke="midnightblue" points="389.68,-21.5043 379.252,-23.3804 388.574,-28.4164 389.68,-21.5043"/>
</g>
</g>
</svg>
