<?xml version="1.0" encoding="UTF-8" standalone="no"?>
<!DOCTYPE svg PUBLIC "-//W3C//DTD SVG 1.1//EN"
 "http://www.w3.org/Graphics/SVG/1.1/DTD/svg11.dtd">
<!-- Generated by graphviz version 2.38.0 (20140413.2041)
 -->
<!-- Title: softwarecontainer::DBusGateway::teardown Pages: 1 -->
<svg width="335pt" height="39pt"
 viewBox="0.00 0.00 335.00 39.00" xmlns="http://www.w3.org/2000/svg" xmlns:xlink="http://www.w3.org/1999/xlink">
<g id="graph0" class="graph" transform="scale(1 1) rotate(0) translate(4 35)">
<title>softwarecontainer::DBusGateway::teardown</title>
<polygon fill="white" stroke="none" points="-4,4 -4,-35 331,-35 331,4 -4,4"/>
<!-- Node1 -->
<g id="node1" class="node"><title>Node1</title>
<polygon fill="#bfbfbf" stroke="black" points="0,-0.5 0,-30.5 126,-30.5 126,-0.5 0,-0.5"/>
<text text-anchor="start" x="8" y="-18.5" font-family="Helvetica,sans-Serif" font-size="10.00">softwarecontainer::</text>
<text text-anchor="middle" x="63" y="-7.5" font-family="Helvetica,sans-Serif" font-size="10.00">DBusGateway::teardown</text>
</g>
<!-- Node2 -->
<g id="node2" class="node"><title>Node2</title>
<g id="a_node2"><a xlink:href="classsoftwarecontainer_1_1_d_bus_gateway.html#af76e2c939b1666958697217f9b5b7a2d" target="_top" xlink:title="Stubbed since this class only does containment. ">
<polygon fill="white" stroke="black" points="162,-0.5 162,-30.5 327,-30.5 327,-0.5 162,-0.5"/>
<text text-anchor="start" x="170" y="-18.5" font-family="Helvetica,sans-Serif" font-size="10.00">softwarecontainer::</text>
<text text-anchor="middle" x="244.5" y="-7.5" font-family="Helvetica,sans-Serif" font-size="10.00">DBusGateway::teardownGateway</text>
</a>
</g>
</g>
<!-- Node1&#45;&gt;Node2 -->
<g id="edge1" class="edge"><title>Node1&#45;&gt;Node2</title>
<path fill="none" stroke="midnightblue" d="M136.192,-15.5C144.632,-15.5 153.288,-15.5 161.845,-15.5"/>
<polygon fill="midnightblue" stroke="midnightblue" points="136.025,-12.0001 126.025,-15.5 136.025,-19.0001 136.025,-12.0001"/>
</g>
</g>
</svg>
