<?xml version="1.0" encoding="UTF-8" standalone="no"?>
<!DOCTYPE svg PUBLIC "-//W3C//DTD SVG 1.1//EN"
 "http://www.w3.org/Graphics/SVG/1.1/DTD/svg11.dtd">
<!-- Generated by graphviz version 2.38.0 (20140413.2041)
 -->
<!-- Title: softwarecontainer::JSONParser::read Pages: 1 -->
<svg width="585pt" height="50pt"
 viewBox="0.00 0.00 585.00 50.00" xmlns="http://www.w3.org/2000/svg" xmlns:xlink="http://www.w3.org/1999/xlink">
<g id="graph0" class="graph" transform="scale(1 1) rotate(0) translate(4 46)">
<title>softwarecontainer::JSONParser::read</title>
<polygon fill="white" stroke="none" points="-4,4 -4,-46 581,-46 581,4 -4,4"/>
<!-- Node1 -->
<g id="node1" class="node"><title>Node1</title>
<polygon fill="#bfbfbf" stroke="black" points="0,-6 0,-36 100,-36 100,-6 0,-6"/>
<text text-anchor="start" x="8" y="-24" font-family="Helvetica,sans-Serif" font-size="10.00">softwarecontainer::</text>
<text text-anchor="middle" x="50" y="-13" font-family="Helvetica,sans-Serif" font-size="10.00">JSONParser::read</text>
</g>
<!-- Node2 -->
<g id="node2" class="node"><title>Node2</title>
<g id="a_node2"><a xlink:href="classsoftwarecontainer_1_1_software_container_agent.html#aab15b844d7ed80339448a2005ea1cc9d" target="_top" xlink:title="Tries to read a config in json format for a container. ">
<polygon fill="white" stroke="black" points="136,-0.5 136,-41.5 259,-41.5 259,-0.5 136,-0.5"/>
<text text-anchor="start" x="144" y="-29.5" font-family="Helvetica,sans-Serif" font-size="10.00">softwarecontainer::</text>
<text text-anchor="start" x="144" y="-18.5" font-family="Helvetica,sans-Serif" font-size="10.00">SoftwareContainerAgent</text>
<text text-anchor="middle" x="197.5" y="-7.5" font-family="Helvetica,sans-Serif" font-size="10.00">::readConfigElement</text>
</a>
</g>
</g>
<!-- Node1&#45;&gt;Node2 -->
<g id="edge1" class="edge"><title>Node1&#45;&gt;Node2</title>
<path fill="none" stroke="midnightblue" d="M110.384,-21C118.811,-21 127.485,-21 135.934,-21"/>
<polygon fill="midnightblue" stroke="midnightblue" points="110.26,-17.5001 100.26,-21 110.26,-24.5001 110.26,-17.5001"/>
</g>
<!-- Node3 -->
<g id="node3" class="node"><title>Node3</title>
<g id="a_node3"><a xlink:href="classsoftwarecontainer_1_1_software_container_agent.html#a990e86f21dead80c727462618ecf0e91" target="_top" xlink:title="Parse config needed for starting up the container in a correct manner. ">
<polygon fill="white" stroke="black" points="295,-0.5 295,-41.5 418,-41.5 418,-0.5 295,-0.5"/>
<text text-anchor="start" x="303" y="-29.5" font-family="Helvetica,sans-Serif" font-size="10.00">softwarecontainer::</text>
<text text-anchor="start" x="303" y="-18.5" font-family="Helvetica,sans-Serif" font-size="10.00">SoftwareContainerAgent</text>
<text text-anchor="middle" x="356.5" y="-7.5" font-family="Helvetica,sans-Serif" font-size="10.00">::parseConfig</text>
</a>
</g>
</g>
<!-- Node2&#45;&gt;Node3 -->
<g id="edge2" class="edge"><title>Node2&#45;&gt;Node3</title>
<path fill="none" stroke="midnightblue" d="M269.21,-21C277.807,-21 286.53,-21 294.961,-21"/>
<polygon fill="midnightblue" stroke="midnightblue" points="269.2,-17.5001 259.2,-21 269.2,-24.5001 269.2,-17.5001"/>
</g>
<!-- Node4 -->
<g id="node4" class="node"><title>Node4</title>
<g id="a_node4"><a xlink:href="classsoftwarecontainer_1_1_software_container_agent.html#ac5cafaf71af5858bb97f84c6fe1de917" target="_top" xlink:title="Create a new container. ">
<polygon fill="white" stroke="black" points="454,-0.5 454,-41.5 577,-41.5 577,-0.5 454,-0.5"/>
<text text-anchor="start" x="462" y="-29.5" font-family="Helvetica,sans-Serif" font-size="10.00">softwarecontainer::</text>
<text text-anchor="start" x="462" y="-18.5" font-family="Helvetica,sans-Serif" font-size="10.00">SoftwareContainerAgent</text>
<text text-anchor="middle" x="515.5" y="-7.5" font-family="Helvetica,sans-Serif" font-size="10.00">::createContainer</text>
</a>
</g>
</g>
<!-- Node3&#45;&gt;Node4 -->
<g id="edge3" class="edge"><title>Node3&#45;&gt;Node4</title>
<path fill="none" stroke="midnightblue" d="M428.21,-21C436.807,-21 445.53,-21 453.961,-21"/>
<polygon fill="midnightblue" stroke="midnightblue" points="428.2,-17.5001 418.2,-21 428.2,-24.5001 428.2,-17.5001"/>
</g>
</g>
</svg>
