<?xml version="1.0" encoding="UTF-8" standalone="no"?>
<!DOCTYPE svg PUBLIC "-//W3C//DTD SVG 1.1//EN"
 "http://www.w3.org/Graphics/SVG/1.1/DTD/svg11.dtd">
<!-- Generated by graphviz version 2.38.0 (20140413.2041)
 -->
<!-- Title: Gateway::id Pages: 1 -->
<svg width="409pt" height="142pt"
 viewBox="0.00 0.00 409.00 142.00" xmlns="http://www.w3.org/2000/svg" xmlns:xlink="http://www.w3.org/1999/xlink">
<g id="graph0" class="graph" transform="scale(1 1) rotate(0) translate(4 138)">
<title>Gateway::id</title>
<polygon fill="white" stroke="none" points="-4,4 -4,-138 405,-138 405,4 -4,4"/>
<!-- Node1 -->
<g id="node1" class="node"><title>Node1</title>
<polygon fill="#bfbfbf" stroke="black" points="0,-57.5 0,-76.5 69,-76.5 69,-57.5 0,-57.5"/>
<text text-anchor="middle" x="34.5" y="-64.5" font-family="Helvetica,sans-Serif" font-size="10.00">Gateway::id</text>
</g>
<!-- Node2 -->
<g id="node2" class="node"><title>Node2</title>
<g id="a_node2"><a xlink:href="class_gateway.html#aac80886a35b80d8003051e6926b59937" target="_top" xlink:title="Applies any configuration set by setConfig() ">
<polygon fill="white" stroke="black" points="109,-114.5 109,-133.5 205,-133.5 205,-114.5 109,-114.5"/>
<text text-anchor="middle" x="157" y="-121.5" font-family="Helvetica,sans-Serif" font-size="10.00">Gateway::activate</text>
</a>
</g>
</g>
<!-- Node1&#45;&gt;Node2 -->
<g id="edge1" class="edge"><title>Node1&#45;&gt;Node2</title>
<path fill="none" stroke="midnightblue" d="M64.9474,-81.0098C77.313,-86.8857 91.8505,-93.7842 105,-100 115.086,-104.767 126.302,-110.048 135.642,-114.44"/>
<polygon fill="midnightblue" stroke="midnightblue" points="66.0983,-77.6816 55.5641,-76.5493 63.093,-84.0037 66.0983,-77.6816"/>
</g>
<!-- Node3 -->
<g id="node3" class="node"><title>Node3</title>
<g id="a_node3"><a xlink:href="classsoftwarecontainer_1_1_software_container.html#af928f299cf15ecda5f625eaecd518f57" target="_top" xlink:title="Set the gateway configuration and activate them. ">
<polygon fill="white" stroke="black" points="245,-65.5 245,-106.5 401,-106.5 401,-65.5 245,-65.5"/>
<text text-anchor="start" x="253" y="-94.5" font-family="Helvetica,sans-Serif" font-size="10.00">softwarecontainer::</text>
<text text-anchor="start" x="253" y="-83.5" font-family="Helvetica,sans-Serif" font-size="10.00">SoftwareContainer::setGateway</text>
<text text-anchor="middle" x="323" y="-72.5" font-family="Helvetica,sans-Serif" font-size="10.00">Configs</text>
</a>
</g>
</g>
<!-- Node1&#45;&gt;Node3 -->
<g id="edge5" class="edge"><title>Node1&#45;&gt;Node3</title>
<path fill="none" stroke="midnightblue" d="M79.2753,-69.9031C123.197,-72.8158 191.761,-77.3629 244.83,-80.8823"/>
<polygon fill="midnightblue" stroke="midnightblue" points="79.4174,-66.4049 69.2077,-69.2354 78.9541,-73.3896 79.4174,-66.4049"/>
</g>
<!-- Node4 -->
<g id="node4" class="node"><title>Node4</title>
<g id="a_node4"><a xlink:href="class_gateway.html#a04d31b1ed232f5376c5cf79e30fa2593" target="_top" xlink:title="Configure this gateway according to the supplied JSON configuration string. ">
<polygon fill="white" stroke="black" points="105,-38.5 105,-57.5 209,-57.5 209,-38.5 105,-38.5"/>
<text text-anchor="middle" x="157" y="-45.5" font-family="Helvetica,sans-Serif" font-size="10.00">Gateway::setConfig</text>
</a>
</g>
</g>
<!-- Node1&#45;&gt;Node4 -->
<g id="edge3" class="edge"><title>Node1&#45;&gt;Node4</title>
<path fill="none" stroke="midnightblue" d="M79.2074,-60.1084C87.4431,-58.8098 96.1259,-57.4407 104.572,-56.1089"/>
<polygon fill="midnightblue" stroke="midnightblue" points="78.3988,-56.6926 69.066,-61.7074 79.4891,-63.6071 78.3988,-56.6926"/>
</g>
<!-- Node5 -->
<g id="node5" class="node"><title>Node5</title>
<g id="a_node5"><a xlink:href="class_gateway.html#a12bc56e21985047b61012932394b4512" target="_top" xlink:title="Restore system to the state prior to launching of gateway. ">
<polygon fill="white" stroke="black" points="106.5,-0.5 106.5,-19.5 207.5,-19.5 207.5,-0.5 106.5,-0.5"/>
<text text-anchor="middle" x="157" y="-7.5" font-family="Helvetica,sans-Serif" font-size="10.00">Gateway::teardown</text>
</a>
</g>
</g>
<!-- Node1&#45;&gt;Node5 -->
<g id="edge6" class="edge"><title>Node1&#45;&gt;Node5</title>
<path fill="none" stroke="midnightblue" d="M60.3067,-52.3043C73.3731,-44.8556 89.8011,-35.9427 105,-29 112.391,-25.6238 120.572,-22.3717 128.178,-19.5414"/>
<polygon fill="midnightblue" stroke="midnightblue" points="58.3598,-49.387 51.4522,-57.4203 61.8618,-55.448 58.3598,-49.387"/>
</g>
<!-- Node2&#45;&gt;Node3 -->
<g id="edge2" class="edge"><title>Node2&#45;&gt;Node3</title>
<path fill="none" stroke="midnightblue" d="M209.436,-112.082C220.689,-109.474 232.838,-106.66 244.847,-103.877"/>
<polygon fill="midnightblue" stroke="midnightblue" points="208.336,-108.744 199.384,-114.411 209.916,-115.563 208.336,-108.744"/>
</g>
<!-- Node4&#45;&gt;Node3 -->
<g id="edge4" class="edge"><title>Node4&#45;&gt;Node3</title>
<path fill="none" stroke="midnightblue" d="M209.436,-59.9182C220.689,-62.5255 232.838,-65.3404 244.847,-68.1231"/>
<polygon fill="midnightblue" stroke="midnightblue" points="209.916,-56.4367 199.384,-57.589 208.336,-63.256 209.916,-56.4367"/>
</g>
</g>
</svg>
