<?xml version="1.0" encoding="UTF-8" standalone="no"?>
<!DOCTYPE svg PUBLIC "-//W3C//DTD SVG 1.1//EN"
 "http://www.w3.org/Graphics/SVG/1.1/DTD/svg11.dtd">
<!-- Generated by graphviz version 2.38.0 (20140413.2041)
 -->
<!-- Title: softwarecontainer::ConfigDependencyError Pages: 1 -->
<svg width="129pt" height="229pt"
 viewBox="0.00 0.00 129.00 229.00" xmlns="http://www.w3.org/2000/svg" xmlns:xlink="http://www.w3.org/1999/xlink">
<g id="graph0" class="graph" transform="scale(1 1) rotate(0) translate(4 225)">
<title>softwarecontainer::ConfigDependencyError</title>
<polygon fill="white" stroke="none" points="-4,4 -4,-225 125,-225 125,4 -4,4"/>
<!-- Node1 -->
<g id="node1" class="node"><title>Node1</title>
<polygon fill="#bfbfbf" stroke="black" points="-7.10543e-15,-0.5 -7.10543e-15,-30.5 121,-30.5 121,-0.5 -7.10543e-15,-0.5"/>
<text text-anchor="start" x="8" y="-18.5" font-family="Helvetica,sans-Serif" font-size="10.00">softwarecontainer::</text>
<text text-anchor="middle" x="60.5" y="-7.5" font-family="Helvetica,sans-Serif" font-size="10.00">ConfigDependencyError</text>
</g>
<!-- Node2 -->
<g id="node2" class="node"><title>Node2</title>
<g id="a_node2"><a xlink:href="classsoftwarecontainer_1_1_config_error.html" target="_top" xlink:title="softwarecontainer::\lConfigError">
<polygon fill="white" stroke="black" points="10.5,-67.5 10.5,-97.5 110.5,-97.5 110.5,-67.5 10.5,-67.5"/>
<text text-anchor="start" x="18.5" y="-85.5" font-family="Helvetica,sans-Serif" font-size="10.00">softwarecontainer::</text>
<text text-anchor="middle" x="60.5" y="-74.5" font-family="Helvetica,sans-Serif" font-size="10.00">ConfigError</text>
</a>
</g>
</g>
<!-- Node2&#45;&gt;Node1 -->
<g id="edge1" class="edge"><title>Node2&#45;&gt;Node1</title>
<path fill="none" stroke="midnightblue" d="M60.5,-57.1081C60.5,-48.1539 60.5,-38.3227 60.5,-30.5765"/>
<polygon fill="midnightblue" stroke="midnightblue" points="57.0001,-57.3959 60.5,-67.396 64.0001,-57.396 57.0001,-57.3959"/>
</g>
<!-- Node3 -->
<g id="node3" class="node"><title>Node3</title>
<g id="a_node3"><a xlink:href="classsoftwarecontainer_1_1_software_container_error.html" target="_top" xlink:title="softwarecontainer::\lSoftwareContainerError">
<polygon fill="white" stroke="black" points="1,-134.5 1,-164.5 120,-164.5 120,-134.5 1,-134.5"/>
<text text-anchor="start" x="9" y="-152.5" font-family="Helvetica,sans-Serif" font-size="10.00">softwarecontainer::</text>
<text text-anchor="middle" x="60.5" y="-141.5" font-family="Helvetica,sans-Serif" font-size="10.00">SoftwareContainerError</text>
</a>
</g>
</g>
<!-- Node3&#45;&gt;Node2 -->
<g id="edge2" class="edge"><title>Node3&#45;&gt;Node2</title>
<path fill="none" stroke="midnightblue" d="M60.5,-124.108C60.5,-115.154 60.5,-105.323 60.5,-97.5765"/>
<polygon fill="midnightblue" stroke="midnightblue" points="57.0001,-124.396 60.5,-134.396 64.0001,-124.396 57.0001,-124.396"/>
</g>
<!-- Node4 -->
<g id="node4" class="node"><title>Node4</title>
<polygon fill="white" stroke="#bfbfbf" points="21.5,-201.5 21.5,-220.5 99.5,-220.5 99.5,-201.5 21.5,-201.5"/>
<text text-anchor="middle" x="60.5" y="-208.5" font-family="Helvetica,sans-Serif" font-size="10.00">std::exception</text>
</g>
<!-- Node4&#45;&gt;Node3 -->
<g id="edge3" class="edge"><title>Node4&#45;&gt;Node3</title>
<path fill="none" stroke="midnightblue" d="M60.5,-191.235C60.5,-182.586 60.5,-172.497 60.5,-164.523"/>
<polygon fill="midnightblue" stroke="midnightblue" points="57.0001,-191.475 60.5,-201.475 64.0001,-191.475 57.0001,-191.475"/>
</g>
</g>
</svg>
