<?xml version="1.0" encoding="UTF-8" standalone="no"?>
<!DOCTYPE svg PUBLIC "-//W3C//DTD SVG 1.1//EN"
 "http://www.w3.org/Graphics/SVG/1.1/DTD/svg11.dtd">
<!-- Generated by graphviz version 2.38.0 (20140413.2041)
 -->
<!-- Title: PulseGateway::activateGateway Pages: 1 -->
<svg width="524pt" height="66pt"
 viewBox="0.00 0.00 524.00 66.00" xmlns="http://www.w3.org/2000/svg" xmlns:xlink="http://www.w3.org/1999/xlink">
<g id="graph0" class="graph" transform="scale(1 1) rotate(0) translate(4 62)">
<title>PulseGateway::activateGateway</title>
<polygon fill="white" stroke="none" points="-4,4 -4,-62 520,-62 520,4 -4,4"/>
<!-- Node1 -->
<g id="node1" class="node"><title>Node1</title>
<polygon fill="#bfbfbf" stroke="black" points="0,-19.5 0,-38.5 160,-38.5 160,-19.5 0,-19.5"/>
<text text-anchor="middle" x="80" y="-26.5" font-family="Helvetica,sans-Serif" font-size="10.00">PulseGateway::activateGateway</text>
</g>
<!-- Node2 -->
<g id="node2" class="node"><title>Node2</title>
<g id="a_node2"><a xlink:href="class_gateway.html#ab03846b347174727f70ab4e4ce5db09f" target="_top" xlink:title="Get a handle to the associated container. ">
<polygon fill="white" stroke="black" points="398,-38.5 398,-57.5 515,-57.5 515,-38.5 398,-38.5"/>
<text text-anchor="middle" x="456.5" y="-45.5" font-family="Helvetica,sans-Serif" font-size="10.00">Gateway::getContainer</text>
</a>
</g>
</g>
<!-- Node1&#45;&gt;Node2 -->
<g id="edge1" class="edge"><title>Node1&#45;&gt;Node2</title>
<path fill="none" stroke="midnightblue" d="M160.422,-33.0294C227.844,-36.4501 323.56,-41.3061 387.502,-44.5502"/>
<polygon fill="midnightblue" stroke="midnightblue" points="387.711,-48.0652 397.875,-45.0765 388.066,-41.0742 387.711,-48.0652"/>
</g>
<!-- Node3 -->
<g id="node3" class="node"><title>Node3</title>
<g id="a_node3"><a xlink:href="class_gateway.html#a828b2dfa811c7fcce82d34b502e65112" target="_top" xlink:title="Set an environment variable in the associated container. ">
<polygon fill="white" stroke="black" points="196,-0.5 196,-19.5 361,-19.5 361,-0.5 196,-0.5"/>
<text text-anchor="middle" x="278.5" y="-7.5" font-family="Helvetica,sans-Serif" font-size="10.00">Gateway::setEnvironmentVariable</text>
</a>
</g>
</g>
<!-- Node1&#45;&gt;Node3 -->
<g id="edge2" class="edge"><title>Node1&#45;&gt;Node3</title>
<path fill="none" stroke="midnightblue" d="M160.075,-21.3541C168.506,-20.5388 177.134,-19.7046 185.696,-18.8767"/>
<polygon fill="midnightblue" stroke="midnightblue" points="186.085,-22.3556 195.701,-17.9093 185.411,-15.3881 186.085,-22.3556"/>
</g>
<!-- Node3&#45;&gt;Node2 -->
<g id="edge3" class="edge"><title>Node3&#45;&gt;Node2</title>
<path fill="none" stroke="midnightblue" d="M323.912,-19.589C347.451,-24.6713 376.557,-30.9554 401.405,-36.3203"/>
<polygon fill="midnightblue" stroke="midnightblue" points="400.894,-39.7906 411.407,-38.4799 402.371,-32.9482 400.894,-39.7906"/>
</g>
<!-- Node4 -->
<g id="node4" class="node"><title>Node4</title>
<g id="a_node4"><a xlink:href="class_gateway.html#ad66eea64014d7eb2927c1f576b3cf2b2" target="_top" xlink:title="Check if the gateway has an associated container. ">
<polygon fill="white" stroke="black" points="397,-0.5 397,-19.5 516,-19.5 516,-0.5 397,-0.5"/>
<text text-anchor="middle" x="456.5" y="-7.5" font-family="Helvetica,sans-Serif" font-size="10.00">Gateway::hasContainer</text>
</a>
</g>
</g>
<!-- Node3&#45;&gt;Node4 -->
<g id="edge4" class="edge"><title>Node3&#45;&gt;Node4</title>
<path fill="none" stroke="midnightblue" d="M361.06,-10C369.626,-10 378.274,-10 386.677,-10"/>
<polygon fill="midnightblue" stroke="midnightblue" points="386.783,-13.5001 396.783,-10 386.783,-6.5001 386.783,-13.5001"/>
</g>
</g>
</svg>
