<?xml version="1.0" encoding="UTF-8" standalone="no"?>
<!DOCTYPE svg PUBLIC "-//W3C//DTD SVG 1.1//EN"
 "http://www.w3.org/Graphics/SVG/1.1/DTD/svg11.dtd">
<!-- Generated by graphviz version 2.38.0 (20140413.2041)
 -->
<!-- Title: softwarecontainer::IPTableEntry::interpretRuleWithProtocol Pages: 1 -->
<svg width="307pt" height="50pt"
 viewBox="0.00 0.00 307.00 50.00" xmlns="http://www.w3.org/2000/svg" xmlns:xlink="http://www.w3.org/1999/xlink">
<g id="graph0" class="graph" transform="scale(1 1) rotate(0) translate(4 46)">
<title>softwarecontainer::IPTableEntry::interpretRuleWithProtocol</title>
<polygon fill="white" stroke="none" points="-4,4 -4,-46 303,-46 303,4 -4,4"/>
<!-- Node1 -->
<g id="node1" class="node"><title>Node1</title>
<polygon fill="#bfbfbf" stroke="black" points="0,-0.5 0,-41.5 135,-41.5 135,-0.5 0,-0.5"/>
<text text-anchor="start" x="8" y="-29.5" font-family="Helvetica,sans-Serif" font-size="10.00">softwarecontainer::</text>
<text text-anchor="start" x="8" y="-18.5" font-family="Helvetica,sans-Serif" font-size="10.00">IPTableEntry::interpretRule</text>
<text text-anchor="middle" x="67.5" y="-7.5" font-family="Helvetica,sans-Serif" font-size="10.00">WithProtocol</text>
</g>
<!-- Node2 -->
<g id="node2" class="node"><title>Node2</title>
<g id="a_node2"><a xlink:href="classsoftwarecontainer_1_1_i_p_table_entry.html#a32434517552a206584064f605f73061a" target="_top" xlink:title="Applies all rules to iptables. ">
<polygon fill="white" stroke="black" points="171,-6 171,-36 299,-36 299,-6 171,-6"/>
<text text-anchor="start" x="179" y="-24" font-family="Helvetica,sans-Serif" font-size="10.00">softwarecontainer::</text>
<text text-anchor="middle" x="235" y="-13" font-family="Helvetica,sans-Serif" font-size="10.00">IPTableEntry::applyRules</text>
</a>
</g>
</g>
<!-- Node1&#45;&gt;Node2 -->
<g id="edge1" class="edge"><title>Node1&#45;&gt;Node2</title>
<path fill="none" stroke="midnightblue" d="M145.617,-21C154.096,-21 162.654,-21 170.933,-21"/>
<polygon fill="midnightblue" stroke="midnightblue" points="145.338,-17.5001 135.338,-21 145.338,-24.5001 145.338,-17.5001"/>
</g>
</g>
</svg>
