<?xml version="1.0" encoding="UTF-8" standalone="no"?>
<!DOCTYPE svg PUBLIC "-//W3C//DTD SVG 1.1//EN"
 "http://www.w3.org/Graphics/SVG/1.1/DTD/svg11.dtd">
<!-- Generated by graphviz version 2.38.0 (20140413.2041)
 -->
<!-- Title: Netlink::linkUp Pages: 1 -->
<svg width="437pt" height="28pt"
 viewBox="0.00 0.00 437.00 28.00" xmlns="http://www.w3.org/2000/svg" xmlns:xlink="http://www.w3.org/1999/xlink">
<g id="graph0" class="graph" transform="scale(1 1) rotate(0) translate(4 24)">
<title>Netlink::linkUp</title>
<polygon fill="white" stroke="none" points="-4,4 -4,-24 433,-24 433,4 -4,4"/>
<!-- Node1 -->
<g id="node1" class="node"><title>Node1</title>
<polygon fill="#bfbfbf" stroke="black" points="0,-0.5 0,-19.5 85,-19.5 85,-0.5 0,-0.5"/>
<text text-anchor="middle" x="42.5" y="-7.5" font-family="Helvetica,sans-Serif" font-size="10.00">Netlink::linkUp</text>
</g>
<!-- Node2 -->
<g id="node2" class="node"><title>Node2</title>
<g id="a_node2"><a xlink:href="class_netlink.html#af2756a7ed673d086466f75d57de09fdf" target="_top" xlink:title="check for a kernel dump, and if not present, try to get one ">
<polygon fill="white" stroke="black" points="121,-0.5 121,-19.5 263,-19.5 263,-0.5 121,-0.5"/>
<text text-anchor="middle" x="192" y="-7.5" font-family="Helvetica,sans-Serif" font-size="10.00">Netlink::checkKernelDump</text>
</a>
</g>
</g>
<!-- Node1&#45;&gt;Node2 -->
<g id="edge1" class="edge"><title>Node1&#45;&gt;Node2</title>
<path fill="none" stroke="midnightblue" d="M85.373,-10C93.3312,-10 101.903,-10 110.598,-10"/>
<polygon fill="midnightblue" stroke="midnightblue" points="110.834,-13.5001 120.834,-10 110.834,-6.5001 110.834,-13.5001"/>
</g>
<!-- Node3 -->
<g id="node3" class="node"><title>Node3</title>
<g id="a_node3"><a xlink:href="class_netlink.html#a1764702f3ed67ae491696c7632dea0cd" target="_top" xlink:title="get a dump of all links, addresses and routes from the kernel. ">
<polygon fill="white" stroke="black" points="299,-0.5 299,-19.5 429,-19.5 429,-0.5 299,-0.5"/>
<text text-anchor="middle" x="364" y="-7.5" font-family="Helvetica,sans-Serif" font-size="10.00">Netlink::getKernelDump</text>
</a>
</g>
</g>
<!-- Node2&#45;&gt;Node3 -->
<g id="edge2" class="edge"><title>Node2&#45;&gt;Node3</title>
<path fill="none" stroke="midnightblue" d="M263.127,-10C271.515,-10 280.103,-10 288.549,-10"/>
<polygon fill="midnightblue" stroke="midnightblue" points="288.759,-13.5001 298.759,-10 288.759,-6.5001 288.759,-13.5001"/>
</g>
</g>
</svg>
