<?xml version="1.0" encoding="UTF-8" standalone="no"?>
<!DOCTYPE svg PUBLIC "-//W3C//DTD SVG 1.1//EN"
 "http://www.w3.org/Graphics/SVG/1.1/DTD/svg11.dtd">
<!-- Generated by graphviz version 2.38.0 (20140413.2041)
 -->
<!-- Title: softwarecontainer::Gateway::hasContainer Pages: 1 -->
<svg width="642pt" height="202pt"
 viewBox="0.00 0.00 642.00 201.50" xmlns="http://www.w3.org/2000/svg" xmlns:xlink="http://www.w3.org/1999/xlink">
<g id="graph0" class="graph" transform="scale(1 1) rotate(0) translate(4 197.5)">
<title>softwarecontainer::Gateway::hasContainer</title>
<polygon fill="white" stroke="none" points="-4,4 -4,-197.5 638,-197.5 638,4 -4,4"/>
<!-- Node1 -->
<g id="node1" class="node"><title>Node1</title>
<polygon fill="#bfbfbf" stroke="black" points="0,-86 0,-116 119,-116 119,-86 0,-86"/>
<text text-anchor="start" x="8" y="-104" font-family="Helvetica,sans-Serif" font-size="10.00">softwarecontainer::</text>
<text text-anchor="middle" x="59.5" y="-93" font-family="Helvetica,sans-Serif" font-size="10.00">Gateway::hasContainer</text>
</g>
<!-- Node2 -->
<g id="node2" class="node"><title>Node2</title>
<g id="a_node2"><a xlink:href="classsoftwarecontainer_1_1_gateway.html#abd136fffb30a625ca5ab4abe06adc680" target="_top" xlink:title="Applies any configuration set by setConfig() ">
<polygon fill="white" stroke="black" points="163.5,-160 163.5,-190 263.5,-190 263.5,-160 163.5,-160"/>
<text text-anchor="start" x="171.5" y="-178" font-family="Helvetica,sans-Serif" font-size="10.00">softwarecontainer::</text>
<text text-anchor="middle" x="213.5" y="-167" font-family="Helvetica,sans-Serif" font-size="10.00">Gateway::activate</text>
</a>
</g>
</g>
<!-- Node1&#45;&gt;Node2 -->
<g id="edge1" class="edge"><title>Node1&#45;&gt;Node2</title>
<path fill="none" stroke="midnightblue" d="M100.634,-120.539C126.012,-132.894 158.313,-148.62 181.675,-159.993"/>
<polygon fill="midnightblue" stroke="midnightblue" points="102.149,-117.384 91.6263,-116.154 99.0853,-123.678 102.149,-117.384"/>
</g>
<!-- Node4 -->
<g id="node4" class="node"><title>Node4</title>
<g id="a_node4"><a xlink:href="classsoftwarecontainer_1_1_network_gateway.html#a8a08792ecd43b1694222ca286514ee21" target="_top" xlink:title="Implements Gateway::activateGateway. ">
<polygon fill="white" stroke="black" points="308,-114 308,-144 480,-144 480,-114 308,-114"/>
<text text-anchor="start" x="316" y="-132" font-family="Helvetica,sans-Serif" font-size="10.00">softwarecontainer::</text>
<text text-anchor="middle" x="394" y="-121" font-family="Helvetica,sans-Serif" font-size="10.00">NetworkGateway::activateGateway</text>
</a>
</g>
</g>
<!-- Node1&#45;&gt;Node4 -->
<g id="edge3" class="edge"><title>Node1&#45;&gt;Node4</title>
<path fill="none" stroke="midnightblue" d="M129.265,-106.791C181.051,-111.152 252.348,-117.156 307.757,-121.822"/>
<polygon fill="midnightblue" stroke="midnightblue" points="129.437,-103.293 119.179,-105.941 128.85,-110.268 129.437,-103.293"/>
</g>
<!-- Node5 -->
<g id="node5" class="node"><title>Node5</title>
<g id="a_node5"><a xlink:href="classsoftwarecontainer_1_1_gateway.html#a6f0a60c9f29ea869916f7524085b3e5f" target="_top" xlink:title="Get a handle to the associated container. ">
<polygon fill="white" stroke="black" points="155,-62 155,-92 272,-92 272,-62 155,-62"/>
<text text-anchor="start" x="163" y="-80" font-family="Helvetica,sans-Serif" font-size="10.00">softwarecontainer::</text>
<text text-anchor="middle" x="213.5" y="-69" font-family="Helvetica,sans-Serif" font-size="10.00">Gateway::getContainer</text>
</a>
</g>
</g>
<!-- Node1&#45;&gt;Node5 -->
<g id="edge4" class="edge"><title>Node1&#45;&gt;Node5</title>
<path fill="none" stroke="midnightblue" d="M129.245,-90.1455C137.816,-88.7921 146.512,-87.4192 154.89,-86.0964"/>
<polygon fill="midnightblue" stroke="midnightblue" points="128.599,-86.7041 119.267,-91.721 129.691,-93.6184 128.599,-86.7041"/>
</g>
<!-- Node7 -->
<g id="node7" class="node"><title>Node7</title>
<g id="a_node7"><a xlink:href="classsoftwarecontainer_1_1_gateway.html#ab048dec9bf64f292e2a9c7f10c3e784b" target="_top" xlink:title="Set an environment variable in the associated container. ">
<polygon fill="white" stroke="black" points="311.5,-6 311.5,-36 476.5,-36 476.5,-6 311.5,-6"/>
<text text-anchor="start" x="319.5" y="-24" font-family="Helvetica,sans-Serif" font-size="10.00">softwarecontainer::</text>
<text text-anchor="middle" x="394" y="-13" font-family="Helvetica,sans-Serif" font-size="10.00">Gateway::setEnvironmentVariable</text>
</a>
</g>
</g>
<!-- Node1&#45;&gt;Node7 -->
<g id="edge9" class="edge"><title>Node1&#45;&gt;Node7</title>
<path fill="none" stroke="midnightblue" d="M92.7491,-80.6922C110.473,-70.4702 133.227,-58.8293 155,-52 205.593,-36.1313 264.694,-28.3788 311.345,-24.5948"/>
<polygon fill="midnightblue" stroke="midnightblue" points="90.8025,-77.777 83.9713,-85.8754 94.3618,-83.8046 90.8025,-77.777"/>
</g>
<!-- Node3 -->
<g id="node3" class="node"><title>Node3</title>
<g id="a_node3"><a xlink:href="classsoftwarecontainer_1_1_d_bus_gateway.html#af84424bf49120532516ea0660b5857f1" target="_top" xlink:title="Activates both dbus session instances. ">
<polygon fill="white" stroke="black" points="333.5,-163 333.5,-193 454.5,-193 454.5,-163 333.5,-163"/>
<text text-anchor="start" x="341.5" y="-181" font-family="Helvetica,sans-Serif" font-size="10.00">softwarecontainer::</text>
<text text-anchor="middle" x="394" y="-170" font-family="Helvetica,sans-Serif" font-size="10.00">DBusGateway::activate</text>
</a>
</g>
</g>
<!-- Node2&#45;&gt;Node3 -->
<g id="edge2" class="edge"><title>Node2&#45;&gt;Node3</title>
<path fill="none" stroke="midnightblue" d="M273.855,-175.998C293.018,-176.32 314.259,-176.677 333.437,-176.999"/>
<polygon fill="midnightblue" stroke="midnightblue" points="273.806,-172.496 263.748,-175.828 273.688,-179.495 273.806,-172.496"/>
</g>
<!-- Node5&#45;&gt;Node4 -->
<g id="edge6" class="edge"><title>Node5&#45;&gt;Node4</title>
<path fill="none" stroke="midnightblue" d="M274.169,-95.0218C285.399,-98.3702 297.052,-101.815 308,-105 318.012,-107.912 328.703,-110.971 339.005,-113.893"/>
<polygon fill="midnightblue" stroke="midnightblue" points="275.02,-91.6234 264.437,-92.113 273.016,-98.3302 275.02,-91.6234"/>
</g>
<!-- Node6 -->
<g id="node6" class="node"><title>Node6</title>
<g id="a_node6"><a xlink:href="classsoftwarecontainer_1_1_device_node_gateway.html#a9e912027cad4fff3ed4d9a9581f45227" target="_top" xlink:title="Implements Gateway::activateGateway. ">
<polygon fill="white" stroke="black" points="319,-54.5 319,-95.5 469,-95.5 469,-54.5 319,-54.5"/>
<text text-anchor="start" x="327" y="-83.5" font-family="Helvetica,sans-Serif" font-size="10.00">softwarecontainer::</text>
<text text-anchor="start" x="327" y="-72.5" font-family="Helvetica,sans-Serif" font-size="10.00">DeviceNodeGateway::activate</text>
<text text-anchor="middle" x="394" y="-61.5" font-family="Helvetica,sans-Serif" font-size="10.00">Gateway</text>
</a>
</g>
</g>
<!-- Node5&#45;&gt;Node6 -->
<g id="edge5" class="edge"><title>Node5&#45;&gt;Node6</title>
<path fill="none" stroke="midnightblue" d="M282.666,-76.2362C294.464,-76.104 306.784,-75.966 318.735,-75.8321"/>
<polygon fill="midnightblue" stroke="midnightblue" points="282.414,-72.7387 272.454,-76.3507 282.492,-79.7383 282.414,-72.7387"/>
</g>
<!-- Node5&#45;&gt;Node7 -->
<g id="edge7" class="edge"><title>Node5&#45;&gt;Node7</title>
<path fill="none" stroke="midnightblue" d="M266.715,-58.5675C280.123,-53.9892 294.557,-49.1948 308,-45 317.661,-41.9854 327.99,-38.9299 338.001,-36.0551"/>
<polygon fill="midnightblue" stroke="midnightblue" points="265.481,-55.2905 257.162,-61.8514 267.757,-61.9103 265.481,-55.2905"/>
</g>
<!-- Node8 -->
<g id="node8" class="node"><title>Node8</title>
<g id="a_node8"><a xlink:href="classsoftwarecontainer_1_1_d_bus_gateway_instance.html#a8dc149286b57b259c95d53c130b9a129" target="_top" xlink:title="Implements Gateway::activateGateway. ">
<polygon fill="white" stroke="black" points="516,-0.5 516,-41.5 634,-41.5 634,-0.5 516,-0.5"/>
<text text-anchor="start" x="524" y="-29.5" font-family="Helvetica,sans-Serif" font-size="10.00">softwarecontainer::</text>
<text text-anchor="start" x="524" y="-18.5" font-family="Helvetica,sans-Serif" font-size="10.00">DBusGatewayInstance</text>
<text text-anchor="middle" x="575" y="-7.5" font-family="Helvetica,sans-Serif" font-size="10.00">::activateGateway</text>
</a>
</g>
</g>
<!-- Node7&#45;&gt;Node8 -->
<g id="edge8" class="edge"><title>Node7&#45;&gt;Node8</title>
<path fill="none" stroke="midnightblue" d="M486.938,-21C496.824,-21 506.669,-21 515.992,-21"/>
<polygon fill="midnightblue" stroke="midnightblue" points="486.643,-17.5001 476.643,-21 486.643,-24.5001 486.643,-17.5001"/>
</g>
</g>
</svg>
