<?xml version="1.0" encoding="UTF-8" standalone="no"?>
<!DOCTYPE svg PUBLIC "-//W3C//DTD SVG 1.1//EN"
 "http://www.w3.org/Graphics/SVG/1.1/DTD/svg11.dtd">
<!-- Generated by graphviz version 2.38.0 (20140413.2041)
 -->
<!-- Title: softwarecontainer::SoftwareContainerError Pages: 1 -->
<svg width="591pt" height="651pt"
 viewBox="0.00 0.00 591.00 651.00" xmlns="http://www.w3.org/2000/svg" xmlns:xlink="http://www.w3.org/1999/xlink">
<g id="graph0" class="graph" transform="scale(1 1) rotate(0) translate(4 647)">
<title>softwarecontainer::SoftwareContainerError</title>
<polygon fill="white" stroke="none" points="-4,4 -4,-647 587,-647 587,4 -4,4"/>
<!-- Node1 -->
<g id="node1" class="node"><title>Node1</title>
<polygon fill="#bfbfbf" stroke="black" points="114,-122.5 114,-152.5 233,-152.5 233,-122.5 114,-122.5"/>
<text text-anchor="start" x="122" y="-140.5" font-family="Helvetica,sans-Serif" font-size="10.00">softwarecontainer::</text>
<text text-anchor="middle" x="173.5" y="-129.5" font-family="Helvetica,sans-Serif" font-size="10.00">SoftwareContainerError</text>
</g>
<!-- Node3 -->
<g id="node3" class="node"><title>Node3</title>
<g id="a_node3"><a xlink:href="classsoftwarecontainer_1_1_cgroups_gateway_error.html" target="_top" xlink:title="softwarecontainer::\lCgroupsGatewayError">
<polygon fill="white" stroke="black" points="284.5,-538.5 284.5,-568.5 397.5,-568.5 397.5,-538.5 284.5,-538.5"/>
<text text-anchor="start" x="292.5" y="-556.5" font-family="Helvetica,sans-Serif" font-size="10.00">softwarecontainer::</text>
<text text-anchor="middle" x="341" y="-545.5" font-family="Helvetica,sans-Serif" font-size="10.00">CgroupsGatewayError</text>
</a>
</g>
</g>
<!-- Node1&#45;&gt;Node3 -->
<g id="edge2" class="edge"><title>Node1&#45;&gt;Node3</title>
<path fill="none" stroke="midnightblue" d="M184.337,-162.226C215.101,-239.555 308.92,-475.377 333.858,-538.062"/>
<polygon fill="midnightblue" stroke="midnightblue" points="187.535,-160.797 180.587,-152.799 181.031,-163.385 187.535,-160.797"/>
</g>
<!-- Node7 -->
<g id="node7" class="node"><title>Node7</title>
<g id="a_node7"><a xlink:href="classsoftwarecontainer_1_1_config_error.html" target="_top" xlink:title="softwarecontainer::\lConfigError">
<polygon fill="white" stroke="black" points="291,-318.5 291,-348.5 391,-348.5 391,-318.5 291,-318.5"/>
<text text-anchor="start" x="299" y="-336.5" font-family="Helvetica,sans-Serif" font-size="10.00">softwarecontainer::</text>
<text text-anchor="middle" x="341" y="-325.5" font-family="Helvetica,sans-Serif" font-size="10.00">ConfigError</text>
</a>
</g>
</g>
<!-- Node1&#45;&gt;Node7 -->
<g id="edge6" class="edge"><title>Node1&#45;&gt;Node7</title>
<path fill="none" stroke="midnightblue" d="M193.736,-160.281C227.924,-200.769 298.383,-284.213 327.245,-318.394"/>
<polygon fill="midnightblue" stroke="midnightblue" points="196.337,-157.937 187.212,-152.554 190.989,-162.453 196.337,-157.937"/>
</g>
<!-- Node14 -->
<g id="node14" class="node"><title>Node14</title>
<g id="a_node14"><a xlink:href="classsoftwarecontainer_1_1_config_store_error.html" target="_top" xlink:title="softwarecontainer::\lConfigStoreError">
<polygon fill="white" stroke="black" points="291,-147.5 291,-177.5 391,-177.5 391,-147.5 291,-147.5"/>
<text text-anchor="start" x="299" y="-165.5" font-family="Helvetica,sans-Serif" font-size="10.00">softwarecontainer::</text>
<text text-anchor="middle" x="341" y="-154.5" font-family="Helvetica,sans-Serif" font-size="10.00">ConfigStoreError</text>
</a>
</g>
</g>
<!-- Node1&#45;&gt;Node14 -->
<g id="edge13" class="edge"><title>Node1&#45;&gt;Node14</title>
<path fill="none" stroke="midnightblue" d="M243.632,-147.943C259.522,-150.343 276.101,-152.848 290.938,-155.089"/>
<polygon fill="midnightblue" stroke="midnightblue" points="243.726,-144.417 233.315,-146.384 242.68,-151.339 243.726,-144.417"/>
</g>
<!-- Node18 -->
<g id="node18" class="node"><title>Node18</title>
<g id="a_node18"><a xlink:href="classsoftwarecontainer_1_1_container_option_parse_error.html" target="_top" xlink:title="softwarecontainer::\lContainerOptionParseError">
<polygon fill="white" stroke="black" points="274,-98.5 274,-128.5 408,-128.5 408,-98.5 274,-98.5"/>
<text text-anchor="start" x="282" y="-116.5" font-family="Helvetica,sans-Serif" font-size="10.00">softwarecontainer::</text>
<text text-anchor="middle" x="341" y="-105.5" font-family="Helvetica,sans-Serif" font-size="10.00">ContainerOptionParseError</text>
</a>
</g>
</g>
<!-- Node1&#45;&gt;Node18 -->
<g id="edge17" class="edge"><title>Node1&#45;&gt;Node18</title>
<path fill="none" stroke="midnightblue" d="M243.281,-127.526C253.366,-126.063 263.735,-124.56 273.767,-123.105"/>
<polygon fill="midnightblue" stroke="midnightblue" points="242.709,-124.072 233.315,-128.971 243.714,-130.999 242.709,-124.072"/>
</g>
<!-- Node19 -->
<g id="node19" class="node"><title>Node19</title>
<g id="a_node19"><a xlink:href="classsoftwarecontainer_1_1_network_gateway_error.html" target="_top" xlink:title="softwarecontainer::\lNetworkGatewayError">
<polygon fill="white" stroke="black" points="284.5,-49.5 284.5,-79.5 397.5,-79.5 397.5,-49.5 284.5,-49.5"/>
<text text-anchor="start" x="292.5" y="-67.5" font-family="Helvetica,sans-Serif" font-size="10.00">softwarecontainer::</text>
<text text-anchor="middle" x="341" y="-56.5" font-family="Helvetica,sans-Serif" font-size="10.00">NetworkGatewayError</text>
</a>
</g>
</g>
<!-- Node1&#45;&gt;Node19 -->
<g id="edge18" class="edge"><title>Node1&#45;&gt;Node19</title>
<path fill="none" stroke="midnightblue" d="M210.102,-117.403C227.551,-107.978 249.055,-96.9835 269,-88.5 276.424,-85.3424 284.416,-82.3066 292.266,-79.5188"/>
<polygon fill="midnightblue" stroke="midnightblue" points="207.959,-114.585 200.861,-122.451 211.315,-120.728 207.959,-114.585"/>
</g>
<!-- Node21 -->
<g id="node21" class="node"><title>Node21</title>
<g id="a_node21"><a xlink:href="classsoftwarecontainer_1_1_software_container_agent_error.html" target="_top" xlink:title="An error occured in SoftwareContainerAgent. ">
<polygon fill="white" stroke="black" points="269,-0.5 269,-30.5 413,-30.5 413,-0.5 269,-0.5"/>
<text text-anchor="start" x="277" y="-18.5" font-family="Helvetica,sans-Serif" font-size="10.00">softwarecontainer::</text>
<text text-anchor="middle" x="341" y="-7.5" font-family="Helvetica,sans-Serif" font-size="10.00">SoftwareContainerAgentError</text>
</a>
</g>
</g>
<!-- Node1&#45;&gt;Node21 -->
<g id="edge20" class="edge"><title>Node1&#45;&gt;Node21</title>
<path fill="none" stroke="midnightblue" d="M191.567,-114.208C208.843,-92.1428 237.45,-59.4905 269,-39.5 274.386,-36.0876 280.311,-33.1022 286.371,-30.5054"/>
<polygon fill="midnightblue" stroke="midnightblue" points="188.609,-112.314 185.306,-122.381 194.165,-116.571 188.609,-112.314"/>
</g>
<!-- Node2 -->
<g id="node2" class="node"><title>Node2</title>
<polygon fill="white" stroke="#bfbfbf" points="0,-128 0,-147 78,-147 78,-128 0,-128"/>
<text text-anchor="middle" x="39" y="-135" font-family="Helvetica,sans-Serif" font-size="10.00">std::exception</text>
</g>
<!-- Node2&#45;&gt;Node1 -->
<g id="edge1" class="edge"><title>Node2&#45;&gt;Node1</title>
<path fill="none" stroke="midnightblue" d="M88.4181,-137.5C96.5843,-137.5 105.141,-137.5 113.54,-137.5"/>
<polygon fill="midnightblue" stroke="midnightblue" points="88.3245,-134 78.3245,-137.5 88.3245,-141 88.3245,-134"/>
</g>
<!-- Node4 -->
<g id="node4" class="node"><title>Node4</title>
<g id="a_node4"><a xlink:href="classsoftwarecontainer_1_1_bad_suffix_error.html" target="_top" xlink:title="softwarecontainer::\lBadSuffixError">
<polygon fill="white" stroke="black" points="466,-612.5 466,-642.5 566,-642.5 566,-612.5 466,-612.5"/>
<text text-anchor="start" x="474" y="-630.5" font-family="Helvetica,sans-Serif" font-size="10.00">softwarecontainer::</text>
<text text-anchor="middle" x="516" y="-619.5" font-family="Helvetica,sans-Serif" font-size="10.00">BadSuffixError</text>
</a>
</g>
</g>
<!-- Node3&#45;&gt;Node4 -->
<g id="edge3" class="edge"><title>Node3&#45;&gt;Node4</title>
<path fill="none" stroke="midnightblue" d="M381.7,-573.073C401.699,-582.67 426.434,-594.146 449,-603.5 456.321,-606.535 464.179,-609.576 471.83,-612.424"/>
<polygon fill="midnightblue" stroke="midnightblue" points="383.109,-569.866 372.582,-568.67 380.065,-576.17 383.109,-569.866"/>
</g>
<!-- Node5 -->
<g id="node5" class="node"><title>Node5</title>
<g id="a_node5"><a xlink:href="classsoftwarecontainer_1_1_j_son_error.html" target="_top" xlink:title="softwarecontainer::\lJSonError">
<polygon fill="white" stroke="black" points="466,-563.5 466,-593.5 566,-593.5 566,-563.5 466,-563.5"/>
<text text-anchor="start" x="474" y="-581.5" font-family="Helvetica,sans-Serif" font-size="10.00">softwarecontainer::</text>
<text text-anchor="middle" x="516" y="-570.5" font-family="Helvetica,sans-Serif" font-size="10.00">JSonError</text>
</a>
</g>
</g>
<!-- Node3&#45;&gt;Node5 -->
<g id="edge4" class="edge"><title>Node3&#45;&gt;Node5</title>
<path fill="none" stroke="midnightblue" d="M407.634,-562.985C426.949,-565.776 447.74,-568.78 465.834,-571.395"/>
<polygon fill="midnightblue" stroke="midnightblue" points="408.088,-559.514 397.691,-561.548 407.087,-566.442 408.088,-559.514"/>
</g>
<!-- Node6 -->
<g id="node6" class="node"><title>Node6</title>
<g id="a_node6"><a xlink:href="classsoftwarecontainer_1_1_limit_range_error.html" target="_top" xlink:title="softwarecontainer::\lLimitRangeError">
<polygon fill="white" stroke="black" points="466,-514.5 466,-544.5 566,-544.5 566,-514.5 466,-514.5"/>
<text text-anchor="start" x="474" y="-532.5" font-family="Helvetica,sans-Serif" font-size="10.00">softwarecontainer::</text>
<text text-anchor="middle" x="516" y="-521.5" font-family="Helvetica,sans-Serif" font-size="10.00">LimitRangeError</text>
</a>
</g>
</g>
<!-- Node3&#45;&gt;Node6 -->
<g id="edge5" class="edge"><title>Node3&#45;&gt;Node6</title>
<path fill="none" stroke="midnightblue" d="M407.634,-544.395C426.949,-541.715 447.74,-538.831 465.834,-536.321"/>
<polygon fill="midnightblue" stroke="midnightblue" points="407.115,-540.933 397.691,-545.774 408.077,-547.867 407.115,-540.933"/>
</g>
<!-- Node8 -->
<g id="node8" class="node"><title>Node8</title>
<g id="a_node8"><a xlink:href="classsoftwarecontainer_1_1_config_dependency_error.html" target="_top" xlink:title="softwarecontainer::\lConfigDependencyError">
<polygon fill="white" stroke="black" points="455.5,-465.5 455.5,-495.5 576.5,-495.5 576.5,-465.5 455.5,-465.5"/>
<text text-anchor="start" x="463.5" y="-483.5" font-family="Helvetica,sans-Serif" font-size="10.00">softwarecontainer::</text>
<text text-anchor="middle" x="516" y="-472.5" font-family="Helvetica,sans-Serif" font-size="10.00">ConfigDependencyError</text>
</a>
</g>
</g>
<!-- Node7&#45;&gt;Node8 -->
<g id="edge7" class="edge"><title>Node7&#45;&gt;Node8</title>
<path fill="none" stroke="midnightblue" d="M357.043,-357.125C375.607,-384.54 409.593,-429.435 449,-456.5 453.925,-459.882 459.382,-462.849 464.988,-465.435"/>
<polygon fill="midnightblue" stroke="midnightblue" points="359.799,-354.947 351.354,-348.549 353.966,-358.816 359.799,-354.947"/>
</g>
<!-- Node9 -->
<g id="node9" class="node"><title>Node9</title>
<g id="a_node9"><a xlink:href="classsoftwarecontainer_1_1_config_file_error.html" target="_top" xlink:title="An error occured in a Glib operation. ">
<polygon fill="white" stroke="black" points="466,-416.5 466,-446.5 566,-446.5 566,-416.5 466,-416.5"/>
<text text-anchor="start" x="474" y="-434.5" font-family="Helvetica,sans-Serif" font-size="10.00">softwarecontainer::</text>
<text text-anchor="middle" x="516" y="-423.5" font-family="Helvetica,sans-Serif" font-size="10.00">ConfigFileError</text>
</a>
</g>
</g>
<!-- Node7&#45;&gt;Node9 -->
<g id="edge8" class="edge"><title>Node7&#45;&gt;Node9</title>
<path fill="none" stroke="midnightblue" d="M368.868,-354.979C389.802,-370.98 420.077,-392.556 449,-407.5 455.283,-410.746 462.106,-413.753 468.903,-416.463"/>
<polygon fill="midnightblue" stroke="midnightblue" points="370.825,-352.068 360.775,-348.714 366.54,-357.603 370.825,-352.068"/>
</g>
<!-- Node10 -->
<g id="node10" class="node"><title>Node10</title>
<g id="a_node10"><a xlink:href="classsoftwarecontainer_1_1_config_internal_error.html" target="_top" xlink:title="An error occured which is an internal error in the config code. ">
<polygon fill="white" stroke="black" points="466,-367.5 466,-397.5 566,-397.5 566,-367.5 466,-367.5"/>
<text text-anchor="start" x="474" y="-385.5" font-family="Helvetica,sans-Serif" font-size="10.00">softwarecontainer::</text>
<text text-anchor="middle" x="516" y="-374.5" font-family="Helvetica,sans-Serif" font-size="10.00">ConfigInternalError</text>
</a>
</g>
</g>
<!-- Node7&#45;&gt;Node10 -->
<g id="edge9" class="edge"><title>Node7&#45;&gt;Node10</title>
<path fill="none" stroke="midnightblue" d="M400.93,-350.191C422.029,-356.167 445.572,-362.835 465.765,-368.555"/>
<polygon fill="midnightblue" stroke="midnightblue" points="401.687,-346.768 391.112,-347.41 399.78,-353.503 401.687,-346.768"/>
</g>
<!-- Node11 -->
<g id="node11" class="node"><title>Node11</title>
<g id="a_node11"><a xlink:href="classsoftwarecontainer_1_1_config_mandatory_error.html" target="_top" xlink:title="softwarecontainer::\lConfigMandatoryError">
<polygon fill="white" stroke="black" points="460,-318.5 460,-348.5 572,-348.5 572,-318.5 460,-318.5"/>
<text text-anchor="start" x="468" y="-336.5" font-family="Helvetica,sans-Serif" font-size="10.00">softwarecontainer::</text>
<text text-anchor="middle" x="516" y="-325.5" font-family="Helvetica,sans-Serif" font-size="10.00">ConfigMandatoryError</text>
</a>
</g>
</g>
<!-- Node7&#45;&gt;Node11 -->
<g id="edge10" class="edge"><title>Node7&#45;&gt;Node11</title>
<path fill="none" stroke="midnightblue" d="M401.168,-333.5C420.22,-333.5 441.243,-333.5 459.983,-333.5"/>
<polygon fill="midnightblue" stroke="midnightblue" points="401.112,-330 391.112,-333.5 401.112,-337 401.112,-330"/>
</g>
<!-- Node12 -->
<g id="node12" class="node"><title>Node12</title>
<g id="a_node12"><a xlink:href="classsoftwarecontainer_1_1_config_not_found_error.html" target="_top" xlink:title="A requested config item could not be found in any of the config sources. ">
<polygon fill="white" stroke="black" points="461.5,-269.5 461.5,-299.5 570.5,-299.5 570.5,-269.5 461.5,-269.5"/>
<text text-anchor="start" x="469.5" y="-287.5" font-family="Helvetica,sans-Serif" font-size="10.00">softwarecontainer::</text>
<text text-anchor="middle" x="516" y="-276.5" font-family="Helvetica,sans-Serif" font-size="10.00">ConfigNotFoundError</text>
</a>
</g>
</g>
<!-- Node7&#45;&gt;Node12 -->
<g id="edge11" class="edge"><title>Node7&#45;&gt;Node12</title>
<path fill="none" stroke="midnightblue" d="M400.914,-316.813C420.659,-311.221 442.547,-305.021 461.826,-299.561"/>
<polygon fill="midnightblue" stroke="midnightblue" points="399.78,-313.497 391.112,-319.59 401.687,-320.232 399.78,-313.497"/>
</g>
<!-- Node13 -->
<g id="node13" class="node"><title>Node13</title>
<g id="a_node13"><a xlink:href="classsoftwarecontainer_1_1_config_unknown_error.html" target="_top" xlink:title="A config is found which is not defined in ConfigDefinition. ">
<polygon fill="white" stroke="black" points="462.5,-220.5 462.5,-250.5 569.5,-250.5 569.5,-220.5 462.5,-220.5"/>
<text text-anchor="start" x="470.5" y="-238.5" font-family="Helvetica,sans-Serif" font-size="10.00">softwarecontainer::</text>
<text text-anchor="middle" x="516" y="-227.5" font-family="Helvetica,sans-Serif" font-size="10.00">ConfigUnknownError</text>
</a>
</g>
</g>
<!-- Node7&#45;&gt;Node13 -->
<g id="edge12" class="edge"><title>Node7&#45;&gt;Node13</title>
<path fill="none" stroke="midnightblue" d="M369.355,-312.159C390.327,-296.475 420.43,-275.388 449,-260.5 455.846,-256.933 463.319,-253.607 470.696,-250.62"/>
<polygon fill="midnightblue" stroke="midnightblue" points="367.096,-309.479 361.234,-318.304 371.32,-315.061 367.096,-309.479"/>
</g>
<!-- Node15 -->
<g id="node15" class="node"><title>Node15</title>
<g id="a_node15"><a xlink:href="classsoftwarecontainer_1_1_capability_parse_error.html" target="_top" xlink:title="An error occured in ConfigStore when parsing a Capability in a Service Manifest. ">
<polygon fill="white" stroke="black" points="462.5,-171.5 462.5,-201.5 569.5,-201.5 569.5,-171.5 462.5,-171.5"/>
<text text-anchor="start" x="470.5" y="-189.5" font-family="Helvetica,sans-Serif" font-size="10.00">softwarecontainer::</text>
<text text-anchor="middle" x="516" y="-178.5" font-family="Helvetica,sans-Serif" font-size="10.00">CapabilityParseError</text>
</a>
</g>
</g>
<!-- Node14&#45;&gt;Node15 -->
<g id="edge14" class="edge"><title>Node14&#45;&gt;Node15</title>
<path fill="none" stroke="midnightblue" d="M401.277,-170.723C421.137,-173.479 443.128,-176.529 462.437,-179.208"/>
<polygon fill="midnightblue" stroke="midnightblue" points="401.498,-167.221 391.112,-169.313 400.536,-174.154 401.498,-167.221"/>
</g>
<!-- Node16 -->
<g id="node16" class="node"><title>Node16</title>
<g id="a_node16"><a xlink:href="classsoftwarecontainer_1_1_service_manifest_parse_error.html" target="_top" xlink:title="An error occured in ConfigStore when parsing a Service Manifest. ">
<polygon fill="white" stroke="black" points="449,-122.5 449,-152.5 583,-152.5 583,-122.5 449,-122.5"/>
<text text-anchor="start" x="457" y="-140.5" font-family="Helvetica,sans-Serif" font-size="10.00">softwarecontainer::</text>
<text text-anchor="middle" x="516" y="-129.5" font-family="Helvetica,sans-Serif" font-size="10.00">ServiceManifestParseError</text>
</a>
</g>
</g>
<!-- Node14&#45;&gt;Node16 -->
<g id="edge15" class="edge"><title>Node14&#45;&gt;Node16</title>
<path fill="none" stroke="midnightblue" d="M401.04,-153.968C416.468,-151.739 433.197,-149.321 448.964,-147.043"/>
<polygon fill="midnightblue" stroke="midnightblue" points="400.509,-150.509 391.112,-155.403 401.51,-157.437 400.509,-150.509"/>
</g>
<!-- Node17 -->
<g id="node17" class="node"><title>Node17</title>
<g id="a_node17"><a xlink:href="classsoftwarecontainer_1_1_service_manifest_path_error.html" target="_top" xlink:title="An error occured in ConfigStore relating to the path to the Service Manifest(s) ">
<polygon fill="white" stroke="black" points="452,-73.5 452,-103.5 580,-103.5 580,-73.5 452,-73.5"/>
<text text-anchor="start" x="460" y="-91.5" font-family="Helvetica,sans-Serif" font-size="10.00">softwarecontainer::</text>
<text text-anchor="middle" x="516" y="-80.5" font-family="Helvetica,sans-Serif" font-size="10.00">ServiceManifestPathError</text>
</a>
</g>
</g>
<!-- Node14&#45;&gt;Node17 -->
<g id="edge16" class="edge"><title>Node14&#45;&gt;Node17</title>
<path fill="none" stroke="midnightblue" d="M399.821,-143.625C404.343,-141.701 408.786,-139.655 413,-137.5 430.343,-128.63 431.703,-121.459 449,-112.5 455.279,-109.248 462.101,-106.237 468.897,-103.526"/>
<polygon fill="midnightblue" stroke="midnightblue" points="398.435,-140.41 390.474,-147.4 401.057,-146.901 398.435,-140.41"/>
</g>
<!-- Node20 -->
<g id="node20" class="node"><title>Node20</title>
<g id="a_node20"><a xlink:href="classsoftwarecontainer_1_1_i_p_allocation_error.html" target="_top" xlink:title="softwarecontainer::\lIPAllocationError">
<polygon fill="white" stroke="black" points="466,-24.5 466,-54.5 566,-54.5 566,-24.5 466,-24.5"/>
<text text-anchor="start" x="474" y="-42.5" font-family="Helvetica,sans-Serif" font-size="10.00">softwarecontainer::</text>
<text text-anchor="middle" x="516" y="-31.5" font-family="Helvetica,sans-Serif" font-size="10.00">IPAllocationError</text>
</a>
</g>
</g>
<!-- Node19&#45;&gt;Node20 -->
<g id="edge19" class="edge"><title>Node19&#45;&gt;Node20</title>
<path fill="none" stroke="midnightblue" d="M407.634,-55.0153C426.949,-52.2241 447.74,-49.2197 465.834,-46.605"/>
<polygon fill="midnightblue" stroke="midnightblue" points="407.087,-51.5579 397.691,-56.4522 408.088,-58.4859 407.087,-51.5579"/>
</g>
</g>
</svg>
