<?xml version="1.0" encoding="UTF-8" standalone="no"?>
<!DOCTYPE svg PUBLIC "-//W3C//DTD SVG 1.1//EN"
 "http://www.w3.org/Graphics/SVG/1.1/DTD/svg11.dtd">
<!-- Generated by graphviz version 2.38.0 (20140413.2041)
 -->
<!-- Title: softwarecontainer::SoftwareContainer::updateGatewayConfiguration Pages: 1 -->
<svg width="746pt" height="142pt"
 viewBox="0.00 0.00 746.00 142.00" xmlns="http://www.w3.org/2000/svg" xmlns:xlink="http://www.w3.org/1999/xlink">
<g id="graph0" class="graph" transform="scale(1 1) rotate(0) translate(4 138)">
<title>softwarecontainer::SoftwareContainer::updateGatewayConfiguration</title>
<polygon fill="white" stroke="none" points="-4,4 -4,-138 742,-138 742,4 -4,4"/>
<!-- Node1 -->
<g id="node1" class="node"><title>Node1</title>
<polygon fill="#bfbfbf" stroke="black" points="0,-46.5 0,-87.5 186,-87.5 186,-46.5 0,-46.5"/>
<text text-anchor="start" x="8" y="-75.5" font-family="Helvetica,sans-Serif" font-size="10.00">softwarecontainer::</text>
<text text-anchor="start" x="8" y="-64.5" font-family="Helvetica,sans-Serif" font-size="10.00">SoftwareContainer::updateGateway</text>
<text text-anchor="middle" x="93" y="-53.5" font-family="Helvetica,sans-Serif" font-size="10.00">Configuration</text>
</g>
<!-- Node2 -->
<g id="node2" class="node"><title>Node2</title>
<g id="a_node2"><a xlink:href="classsoftwarecontainer_1_1_software_container.html#af928f299cf15ecda5f625eaecd518f57" target="_top" xlink:title="Set the gateway configuration and activate them. ">
<polygon fill="white" stroke="black" points="222,-46.5 222,-87.5 389,-87.5 389,-46.5 222,-46.5"/>
<text text-anchor="start" x="230" y="-75.5" font-family="Helvetica,sans-Serif" font-size="10.00">softwarecontainer::</text>
<text text-anchor="start" x="230" y="-64.5" font-family="Helvetica,sans-Serif" font-size="10.00">SoftwareContainer::setGateway</text>
<text text-anchor="middle" x="305.5" y="-53.5" font-family="Helvetica,sans-Serif" font-size="10.00">Configs</text>
</a>
</g>
</g>
<!-- Node1&#45;&gt;Node2 -->
<g id="edge1" class="edge"><title>Node1&#45;&gt;Node2</title>
<path fill="none" stroke="midnightblue" d="M186.022,-67C194.61,-67 203.317,-67 211.91,-67"/>
<polygon fill="midnightblue" stroke="midnightblue" points="211.93,-70.5001 221.93,-67 211.93,-63.5001 211.93,-70.5001"/>
</g>
<!-- Node3 -->
<g id="node3" class="node"><title>Node3</title>
<g id="a_node3"><a xlink:href="class_gateway.html#a01028fc541340b53b0330c03dafb6bfe" target="_top" xlink:title="Gateway::id">
<polygon fill="white" stroke="black" points="625,-57.5 625,-76.5 696,-76.5 696,-57.5 625,-57.5"/>
<text text-anchor="middle" x="660.5" y="-64.5" font-family="Helvetica,sans-Serif" font-size="10.00">Gateway::id</text>
</a>
</g>
</g>
<!-- Node2&#45;&gt;Node3 -->
<g id="edge2" class="edge"><title>Node2&#45;&gt;Node3</title>
<path fill="none" stroke="midnightblue" d="M389.263,-67C459.669,-67 558.108,-67 614.688,-67"/>
<polygon fill="midnightblue" stroke="midnightblue" points="614.749,-70.5001 624.749,-67 614.749,-63.5001 614.749,-70.5001"/>
</g>
<!-- Node4 -->
<g id="node4" class="node"><title>Node4</title>
<g id="a_node4"><a xlink:href="class_gateway.html#a04d31b1ed232f5376c5cf79e30fa2593" target="_top" xlink:title="Configure this gateway according to the supplied JSON configuration string. ">
<polygon fill="white" stroke="black" points="432,-114.5 432,-133.5 540,-133.5 540,-114.5 432,-114.5"/>
<text text-anchor="middle" x="486" y="-121.5" font-family="Helvetica,sans-Serif" font-size="10.00">Gateway::setConfig</text>
</a>
</g>
</g>
<!-- Node2&#45;&gt;Node4 -->
<g id="edge3" class="edge"><title>Node2&#45;&gt;Node4</title>
<path fill="none" stroke="midnightblue" d="M370.943,-87.5783C395.883,-95.5425 423.631,-104.403 445.513,-111.391"/>
<polygon fill="midnightblue" stroke="midnightblue" points="444.532,-114.752 455.123,-114.459 446.662,-108.083 444.532,-114.752"/>
</g>
<!-- Node6 -->
<g id="node6" class="node"><title>Node6</title>
<g id="a_node6"><a xlink:href="class_gateway.html#a88ae41c7b14da49561d025bd99047e81" target="_top" xlink:title="Is the gateway configured or not? ">
<polygon fill="white" stroke="black" points="425,-38.5 425,-57.5 547,-57.5 547,-38.5 425,-38.5"/>
<text text-anchor="middle" x="486" y="-45.5" font-family="Helvetica,sans-Serif" font-size="10.00">Gateway::isConfigured</text>
</a>
</g>
</g>
<!-- Node2&#45;&gt;Node6 -->
<g id="edge5" class="edge"><title>Node2&#45;&gt;Node6</title>
<path fill="none" stroke="midnightblue" d="M389.218,-58.1952C397.777,-57.2843 406.415,-56.3648 414.817,-55.4704"/>
<polygon fill="midnightblue" stroke="midnightblue" points="415.354,-58.9331 424.928,-54.3943 414.613,-51.9725 415.354,-58.9331"/>
</g>
<!-- Node7 -->
<g id="node7" class="node"><title>Node7</title>
<g id="a_node7"><a xlink:href="class_gateway.html#aac80886a35b80d8003051e6926b59937" target="_top" xlink:title="Applies any configuration set by setConfig() ">
<polygon fill="white" stroke="black" points="435.5,-0.5 435.5,-19.5 536.5,-19.5 536.5,-0.5 435.5,-0.5"/>
<text text-anchor="middle" x="486" y="-7.5" font-family="Helvetica,sans-Serif" font-size="10.00">Gateway::activate</text>
</a>
</g>
</g>
<!-- Node2&#45;&gt;Node7 -->
<g id="edge6" class="edge"><title>Node2&#45;&gt;Node7</title>
<path fill="none" stroke="midnightblue" d="M370.446,-46.4473C388.115,-40.781 407.297,-34.6414 425,-29 431.505,-26.927 438.409,-24.7341 445.13,-22.6032"/>
<polygon fill="midnightblue" stroke="midnightblue" points="446.301,-25.9036 454.777,-19.5469 444.187,-19.2304 446.301,-25.9036"/>
</g>
<!-- Node5 -->
<g id="node5" class="node"><title>Node5</title>
<g id="a_node5"><a xlink:href="class_gateway.html#a4413c4a754da11031de372bc0b278d92" target="_top" xlink:title="Gateway specific parsing of config elements. ">
<polygon fill="white" stroke="black" points="583,-114.5 583,-133.5 738,-133.5 738,-114.5 583,-114.5"/>
<text text-anchor="middle" x="660.5" y="-121.5" font-family="Helvetica,sans-Serif" font-size="10.00">Gateway::readConfigElement</text>
</a>
</g>
</g>
<!-- Node4&#45;&gt;Node5 -->
<g id="edge4" class="edge"><title>Node4&#45;&gt;Node5</title>
<path fill="none" stroke="midnightblue" d="M540.163,-124C550.471,-124 561.522,-124 572.587,-124"/>
<polygon fill="midnightblue" stroke="midnightblue" points="572.732,-127.5 582.732,-124 572.732,-120.5 572.732,-127.5"/>
</g>
<!-- Node7&#45;&gt;Node3 -->
<g id="edge8" class="edge"><title>Node7&#45;&gt;Node3</title>
<path fill="none" stroke="midnightblue" d="M517.56,-19.5535C527.01,-22.541 537.446,-25.874 547,-29 572.147,-37.2277 600.355,-46.7567 622.235,-54.2142"/>
<polygon fill="midnightblue" stroke="midnightblue" points="621.215,-57.5641 631.809,-57.4828 623.477,-50.9395 621.215,-57.5641"/>
</g>
<!-- Node8 -->
<g id="node8" class="node"><title>Node8</title>
<g id="a_node8"><a xlink:href="class_gateway.html#ad66eea64014d7eb2927c1f576b3cf2b2" target="_top" xlink:title="Check if the gateway has an associated container. ">
<polygon fill="white" stroke="black" points="597,-0.5 597,-19.5 724,-19.5 724,-0.5 597,-0.5"/>
<text text-anchor="middle" x="660.5" y="-7.5" font-family="Helvetica,sans-Serif" font-size="10.00">Gateway::hasContainer</text>
</a>
</g>
</g>
<!-- Node7&#45;&gt;Node8 -->
<g id="edge7" class="edge"><title>Node7&#45;&gt;Node8</title>
<path fill="none" stroke="midnightblue" d="M536.894,-10C552.386,-10 569.792,-10 586.517,-10"/>
<polygon fill="midnightblue" stroke="midnightblue" points="586.82,-13.5001 596.819,-10 586.819,-6.5001 586.82,-13.5001"/>
</g>
</g>
</svg>
