<?xml version="1.0" encoding="UTF-8" standalone="no"?>
<!DOCTYPE svg PUBLIC "-//W3C//DTD SVG 1.1//EN"
 "http://www.w3.org/Graphics/SVG/1.1/DTD/svg11.dtd">
<!-- Generated by graphviz version 2.38.0 (20140413.2041)
 -->
<!-- Title: DBusGateway::activate Pages: 1 -->
<svg width="436pt" height="112pt"
 viewBox="0.00 0.00 436.00 112.00" xmlns="http://www.w3.org/2000/svg" xmlns:xlink="http://www.w3.org/1999/xlink">
<g id="graph0" class="graph" transform="scale(1 1) rotate(0) translate(4 108)">
<title>DBusGateway::activate</title>
<polygon fill="white" stroke="none" points="-4,4 -4,-108 432,-108 432,4 -4,4"/>
<!-- Node1 -->
<g id="node1" class="node"><title>Node1</title>
<polygon fill="#bfbfbf" stroke="black" points="0,-30 0,-49 121,-49 121,-30 0,-30"/>
<text text-anchor="middle" x="60.5" y="-37" font-family="Helvetica,sans-Serif" font-size="10.00">DBusGateway::activate</text>
</g>
<!-- Node2 -->
<g id="node2" class="node"><title>Node2</title>
<g id="a_node2"><a xlink:href="classsoftwarecontainer_1_1_gateway.html#a3d23a057d7039df33dd5ed47302f0d58" target="_top" xlink:title="Applies any configuration set by setConfig() ">
<polygon fill="white" stroke="black" points="165,-49.5 165,-79.5 265,-79.5 265,-49.5 165,-49.5"/>
<text text-anchor="start" x="173" y="-67.5" font-family="Helvetica,sans-Serif" font-size="10.00">softwarecontainer::</text>
<text text-anchor="middle" x="215" y="-56.5" font-family="Helvetica,sans-Serif" font-size="10.00">Gateway::activate</text>
</a>
</g>
</g>
<!-- Node1&#45;&gt;Node2 -->
<g id="edge1" class="edge"><title>Node1&#45;&gt;Node2</title>
<path fill="none" stroke="midnightblue" d="M119.589,-49.0227C131.047,-50.9011 143.086,-52.8747 154.587,-54.7601"/>
<polygon fill="midnightblue" stroke="midnightblue" points="154.093,-58.2258 164.527,-56.3897 155.225,-51.318 154.093,-58.2258"/>
</g>
<!-- Node5 -->
<g id="node5" class="node"><title>Node5</title>
<g id="a_node5"><a xlink:href="classsoftwarecontainer_1_1_gateway.html#a88ae41c7b14da49561d025bd99047e81" target="_top" xlink:title="Is the gateway configured or not? ">
<polygon fill="white" stroke="black" points="157,-0.5 157,-30.5 273,-30.5 273,-0.5 157,-0.5"/>
<text text-anchor="start" x="165" y="-18.5" font-family="Helvetica,sans-Serif" font-size="10.00">softwarecontainer::</text>
<text text-anchor="middle" x="215" y="-7.5" font-family="Helvetica,sans-Serif" font-size="10.00">Gateway::isConfigured</text>
</a>
</g>
</g>
<!-- Node1&#45;&gt;Node5 -->
<g id="edge4" class="edge"><title>Node1&#45;&gt;Node5</title>
<path fill="none" stroke="midnightblue" d="M121.334,-30.0834C129.731,-28.762 138.406,-27.3967 146.927,-26.0558"/>
<polygon fill="midnightblue" stroke="midnightblue" points="147.497,-29.5092 156.832,-24.497 146.409,-22.5943 147.497,-29.5092"/>
</g>
<!-- Node3 -->
<g id="node3" class="node"><title>Node3</title>
<g id="a_node3"><a xlink:href="classsoftwarecontainer_1_1_gateway.html#ad66eea64014d7eb2927c1f576b3cf2b2" target="_top" xlink:title="Check if the gateway has an associated container. ">
<polygon fill="white" stroke="black" points="309,-73.5 309,-103.5 428,-103.5 428,-73.5 309,-73.5"/>
<text text-anchor="start" x="317" y="-91.5" font-family="Helvetica,sans-Serif" font-size="10.00">softwarecontainer::</text>
<text text-anchor="middle" x="368.5" y="-80.5" font-family="Helvetica,sans-Serif" font-size="10.00">Gateway::hasContainer</text>
</a>
</g>
</g>
<!-- Node2&#45;&gt;Node3 -->
<g id="edge2" class="edge"><title>Node2&#45;&gt;Node3</title>
<path fill="none" stroke="midnightblue" d="M265.188,-72.2921C275.947,-73.9965 287.524,-75.8305 298.885,-77.6304"/>
<polygon fill="midnightblue" stroke="midnightblue" points="298.364,-81.0913 308.788,-79.1991 299.459,-74.1775 298.364,-81.0913"/>
</g>
<!-- Node4 -->
<g id="node4" class="node"><title>Node4</title>
<g id="a_node4"><a xlink:href="classsoftwarecontainer_1_1_gateway.html#af421b6ffb3db76240a491b2302e78699" target="_top" xlink:title="softwarecontainer::\lGateway::id">
<polygon fill="white" stroke="black" points="318.5,-24.5 318.5,-54.5 418.5,-54.5 418.5,-24.5 318.5,-24.5"/>
<text text-anchor="start" x="326.5" y="-42.5" font-family="Helvetica,sans-Serif" font-size="10.00">softwarecontainer::</text>
<text text-anchor="middle" x="368.5" y="-31.5" font-family="Helvetica,sans-Serif" font-size="10.00">Gateway::id</text>
</a>
</g>
</g>
<!-- Node2&#45;&gt;Node4 -->
<g id="edge3" class="edge"><title>Node2&#45;&gt;Node4</title>
<path fill="none" stroke="midnightblue" d="M265.188,-56.3832C278.884,-54.1231 293.907,-51.644 308.122,-49.2983"/>
<polygon fill="midnightblue" stroke="midnightblue" points="309.003,-52.7003 318.3,-47.6188 307.864,-45.7937 309.003,-52.7003"/>
</g>
</g>
</svg>
