<?xml version="1.0" encoding="UTF-8" standalone="no"?>
<!DOCTYPE svg PUBLIC "-//W3C//DTD SVG 1.1//EN"
 "http://www.w3.org/Graphics/SVG/1.1/DTD/svg11.dtd">
<!-- Generated by graphviz version 2.38.0 (20140413.2041)
 -->
<!-- Title: softwarecontainer::ObservableProperty&lt; Type &gt; Pages: 1 -->
<svg width="641pt" height="170pt"
 viewBox="0.00 0.00 641.00 170.00" xmlns="http://www.w3.org/2000/svg" xmlns:xlink="http://www.w3.org/1999/xlink">
<g id="graph0" class="graph" transform="scale(1 1) rotate(0) translate(4 166)">
<title>softwarecontainer::ObservableProperty&lt; Type &gt;</title>
<polygon fill="white" stroke="none" points="-4,4 -4,-166 637,-166 637,4 -4,4"/>
<!-- Node1 -->
<g id="node1" class="node"><title>Node1</title>
<polygon fill="#bfbfbf" stroke="black" points="0,-60.5 0,-101.5 109,-101.5 109,-60.5 0,-60.5"/>
<text text-anchor="start" x="8" y="-89.5" font-family="Helvetica,sans-Serif" font-size="10.00">softwarecontainer::</text>
<text text-anchor="start" x="8" y="-78.5" font-family="Helvetica,sans-Serif" font-size="10.00">ObservableProperty&lt;</text>
<text text-anchor="middle" x="54.5" y="-67.5" font-family="Helvetica,sans-Serif" font-size="10.00"> Type &gt;</text>
</g>
<!-- Node2 -->
<g id="node2" class="node"><title>Node2</title>
<g id="a_node2"><a xlink:href="classsoftwarecontainer_1_1_observable_writable_property.html" target="_top" xlink:title="softwarecontainer::\lObservableWritableProperty\l\&lt; Type \&gt;">
<polygon fill="white" stroke="black" points="232,-60.5 232,-101.5 371,-101.5 371,-60.5 232,-60.5"/>
<text text-anchor="start" x="240" y="-89.5" font-family="Helvetica,sans-Serif" font-size="10.00">softwarecontainer::</text>
<text text-anchor="start" x="240" y="-78.5" font-family="Helvetica,sans-Serif" font-size="10.00">ObservableWritableProperty</text>
<text text-anchor="middle" x="301.5" y="-67.5" font-family="Helvetica,sans-Serif" font-size="10.00">&lt; Type &gt;</text>
</a>
</g>
</g>
<!-- Node1&#45;&gt;Node2 -->
<g id="edge1" class="edge"><title>Node1&#45;&gt;Node2</title>
<path fill="none" stroke="midnightblue" d="M119.701,-81C154.211,-81 196.771,-81 231.928,-81"/>
<polygon fill="midnightblue" stroke="midnightblue" points="119.266,-77.5001 109.266,-81 119.266,-84.5001 119.266,-77.5001"/>
</g>
<!-- Node5 -->
<g id="node5" class="node"><title>Node5</title>
<g id="a_node5"><a xlink:href="classsoftwarecontainer_1_1_observable_property.html" target="_top" xlink:title="softwarecontainer::\lObservableProperty\&lt;\l ContainerState \&gt;">
<polygon fill="white" stroke="black" points="247,-120.5 247,-161.5 356,-161.5 356,-120.5 247,-120.5"/>
<text text-anchor="start" x="255" y="-149.5" font-family="Helvetica,sans-Serif" font-size="10.00">softwarecontainer::</text>
<text text-anchor="start" x="255" y="-138.5" font-family="Helvetica,sans-Serif" font-size="10.00">ObservableProperty&lt;</text>
<text text-anchor="middle" x="301.5" y="-127.5" font-family="Helvetica,sans-Serif" font-size="10.00"> ContainerState &gt;</text>
</a>
</g>
</g>
<!-- Node1&#45;&gt;Node5 -->
<g id="edge4" class="edge"><title>Node1&#45;&gt;Node5</title>
<path fill="none" stroke="orange" stroke-dasharray="5,2" d="M119.102,-96.576C158.762,-106.289 209.23,-118.648 246.859,-127.863"/>
<polygon fill="orange" stroke="orange" points="119.812,-93.1465 109.266,-94.1673 118.147,-99.9456 119.812,-93.1465"/>
<text text-anchor="middle" x="170.5" y="-121" font-family="Helvetica,sans-Serif" font-size="10.00"> &lt; ContainerState &gt;</text>
</g>
<!-- Node6 -->
<g id="node6" class="node"><title>Node6</title>
<g id="a_node6"><a xlink:href="classsoftwarecontainer_1_1_observable_property.html" target="_top" xlink:title="softwarecontainer::\lObservableProperty\&lt;\l ProcessState \&gt;">
<polygon fill="white" stroke="black" points="247,-0.5 247,-41.5 356,-41.5 356,-0.5 247,-0.5"/>
<text text-anchor="start" x="255" y="-29.5" font-family="Helvetica,sans-Serif" font-size="10.00">softwarecontainer::</text>
<text text-anchor="start" x="255" y="-18.5" font-family="Helvetica,sans-Serif" font-size="10.00">ObservableProperty&lt;</text>
<text text-anchor="middle" x="301.5" y="-7.5" font-family="Helvetica,sans-Serif" font-size="10.00"> ProcessState &gt;</text>
</a>
</g>
</g>
<!-- Node1&#45;&gt;Node6 -->
<g id="edge6" class="edge"><title>Node1&#45;&gt;Node6</title>
<path fill="none" stroke="orange" stroke-dasharray="5,2" d="M119.102,-65.424C158.762,-55.7115 209.23,-43.3519 246.859,-34.1365"/>
<polygon fill="orange" stroke="orange" points="118.147,-62.0544 109.266,-67.8327 119.812,-68.8535 118.147,-62.0544"/>
<text text-anchor="middle" x="170.5" y="-67" font-family="Helvetica,sans-Serif" font-size="10.00"> &lt; ProcessState &gt;</text>
</g>
<!-- Node3 -->
<g id="node3" class="node"><title>Node3</title>
<g id="a_node3"><a xlink:href="classsoftwarecontainer_1_1_observable_writable_property.html" target="_top" xlink:title="softwarecontainer::\lObservableWritableProperty\l\&lt; ContainerState \&gt;">
<polygon fill="white" stroke="black" points="494,-104.5 494,-145.5 633,-145.5 633,-104.5 494,-104.5"/>
<text text-anchor="start" x="502" y="-133.5" font-family="Helvetica,sans-Serif" font-size="10.00">softwarecontainer::</text>
<text text-anchor="start" x="502" y="-122.5" font-family="Helvetica,sans-Serif" font-size="10.00">ObservableWritableProperty</text>
<text text-anchor="middle" x="563.5" y="-111.5" font-family="Helvetica,sans-Serif" font-size="10.00">&lt; ContainerState &gt;</text>
</a>
</g>
</g>
<!-- Node2&#45;&gt;Node3 -->
<g id="edge2" class="edge"><title>Node2&#45;&gt;Node3</title>
<path fill="none" stroke="orange" stroke-dasharray="5,2" d="M381.115,-94.3041C417.068,-100.388 459.269,-107.53 493.914,-113.393"/>
<polygon fill="orange" stroke="orange" points="381.596,-90.8358 371.152,-92.618 380.428,-97.7376 381.596,-90.8358"/>
<text text-anchor="middle" x="432.5" y="-113" font-family="Helvetica,sans-Serif" font-size="10.00"> &lt; ContainerState &gt;</text>
</g>
<!-- Node4 -->
<g id="node4" class="node"><title>Node4</title>
<g id="a_node4"><a xlink:href="classsoftwarecontainer_1_1_observable_writable_property.html" target="_top" xlink:title="softwarecontainer::\lObservableWritableProperty\l\&lt; ProcessState \&gt;">
<polygon fill="white" stroke="black" points="494,-36.5 494,-77.5 633,-77.5 633,-36.5 494,-36.5"/>
<text text-anchor="start" x="502" y="-65.5" font-family="Helvetica,sans-Serif" font-size="10.00">softwarecontainer::</text>
<text text-anchor="start" x="502" y="-54.5" font-family="Helvetica,sans-Serif" font-size="10.00">ObservableWritableProperty</text>
<text text-anchor="middle" x="563.5" y="-43.5" font-family="Helvetica,sans-Serif" font-size="10.00">&lt; ProcessState &gt;</text>
</a>
</g>
</g>
<!-- Node2&#45;&gt;Node4 -->
<g id="edge3" class="edge"><title>Node2&#45;&gt;Node4</title>
<path fill="none" stroke="orange" stroke-dasharray="5,2" d="M381.115,-73.7432C417.068,-70.4245 459.269,-66.529 493.914,-63.331"/>
<polygon fill="orange" stroke="orange" points="380.788,-70.2584 371.152,-74.6629 381.431,-77.2288 380.788,-70.2584"/>
<text text-anchor="middle" x="432.5" y="-76" font-family="Helvetica,sans-Serif" font-size="10.00"> &lt; ProcessState &gt;</text>
</g>
<!-- Node5&#45;&gt;Node3 -->
<g id="edge5" class="edge"><title>Node5&#45;&gt;Node3</title>
<path fill="none" stroke="midnightblue" d="M366.146,-137.083C404.792,-134.705 454.126,-131.669 493.675,-129.235"/>
<polygon fill="midnightblue" stroke="midnightblue" points="365.823,-133.596 356.057,-137.704 366.253,-140.583 365.823,-133.596"/>
</g>
<!-- Node6&#45;&gt;Node4 -->
<g id="edge7" class="edge"><title>Node6&#45;&gt;Node4</title>
<path fill="none" stroke="midnightblue" d="M366.146,-29.8126C404.792,-35.1635 454.126,-41.9944 493.675,-47.4704"/>
<polygon fill="midnightblue" stroke="midnightblue" points="366.442,-26.3203 356.057,-28.4156 365.482,-33.2541 366.442,-26.3203"/>
</g>
</g>
</svg>
