<?xml version="1.0" encoding="UTF-8" standalone="no"?>
<!DOCTYPE svg PUBLIC "-//W3C//DTD SVG 1.1//EN"
 "http://www.w3.org/Graphics/SVG/1.1/DTD/svg11.dtd">
<!-- Generated by graphviz version 2.38.0 (20140413.2041)
 -->
<!-- Title: softwarecontainer::Container::create Pages: 1 -->
<svg width="531pt" height="148pt"
 viewBox="0.00 0.00 531.00 147.50" xmlns="http://www.w3.org/2000/svg" xmlns:xlink="http://www.w3.org/1999/xlink">
<g id="graph0" class="graph" transform="scale(1 1) rotate(0) translate(4 143.5)">
<title>softwarecontainer::Container::create</title>
<polygon fill="white" stroke="none" points="-4,4 -4,-143.5 527,-143.5 527,4 -4,4"/>
<!-- Node1 -->
<g id="node1" class="node"><title>Node1</title>
<polygon fill="#bfbfbf" stroke="black" points="0,-60 0,-90 100,-90 100,-60 0,-60"/>
<text text-anchor="start" x="8" y="-78" font-family="Helvetica,sans-Serif" font-size="10.00">softwarecontainer::</text>
<text text-anchor="middle" x="50" y="-67" font-family="Helvetica,sans-Serif" font-size="10.00">Container::create</text>
</g>
<!-- Node2 -->
<g id="node2" class="node"><title>Node2</title>
<g id="a_node2"><a xlink:href="classsoftwarecontainer_1_1_file_toolkit_with_undo.html#ab46eccba563b861f100d9ce7fa9ca4d6" target="_top" xlink:title="overlayMount Mount a directory with an overlay on top of it. ">
<polygon fill="white" stroke="black" points="136,-54.5 136,-95.5 241,-95.5 241,-54.5 136,-54.5"/>
<text text-anchor="start" x="144" y="-83.5" font-family="Helvetica,sans-Serif" font-size="10.00">softwarecontainer::</text>
<text text-anchor="start" x="144" y="-72.5" font-family="Helvetica,sans-Serif" font-size="10.00">FileToolkitWithUndo</text>
<text text-anchor="middle" x="188.5" y="-61.5" font-family="Helvetica,sans-Serif" font-size="10.00">::overlayMount</text>
</a>
</g>
</g>
<!-- Node1&#45;&gt;Node2 -->
<g id="edge1" class="edge"><title>Node1&#45;&gt;Node2</title>
<path fill="none" stroke="midnightblue" d="M100.28,-75C108.622,-75 117.376,-75 125.985,-75"/>
<polygon fill="midnightblue" stroke="midnightblue" points="125.993,-78.5001 135.992,-75 125.992,-71.5001 125.993,-78.5001"/>
</g>
<!-- Node3 -->
<g id="node3" class="node"><title>Node3</title>
<g id="a_node3"><a xlink:href="namespacesoftwarecontainer.html#a51a25e6a54b7bb79fc5b4ce8902a31a4" target="_top" xlink:title="isError Check if ReturnCode indicates Error or not ">
<polygon fill="white" stroke="black" points="420.5,-109 420.5,-139 520.5,-139 520.5,-109 420.5,-109"/>
<text text-anchor="start" x="428.5" y="-127" font-family="Helvetica,sans-Serif" font-size="10.00">softwarecontainer::</text>
<text text-anchor="middle" x="470.5" y="-116" font-family="Helvetica,sans-Serif" font-size="10.00">isError</text>
</a>
</g>
</g>
<!-- Node2&#45;&gt;Node3 -->
<g id="edge2" class="edge"><title>Node2&#45;&gt;Node3</title>
<path fill="none" stroke="midnightblue" d="M241.221,-94.942C252.848,-98.8025 265.231,-102.438 277,-105 320.941,-114.565 371.584,-119.322 409.894,-121.684"/>
<polygon fill="midnightblue" stroke="midnightblue" points="410.172,-125.206 420.357,-122.289 410.576,-118.218 410.172,-125.206"/>
</g>
<!-- Node4 -->
<g id="node4" class="node"><title>Node4</title>
<g id="a_node4"><a xlink:href="classsoftwarecontainer_1_1_file_toolkit_with_undo.html#aff5073fb683649d6753baae354d202b9" target="_top" xlink:title="createDirectory Create a directory, and if successful append it to a list of dirs to be deleted in th...">
<polygon fill="white" stroke="black" points="277,-54.5 277,-95.5 382,-95.5 382,-54.5 277,-54.5"/>
<text text-anchor="start" x="285" y="-83.5" font-family="Helvetica,sans-Serif" font-size="10.00">softwarecontainer::</text>
<text text-anchor="start" x="285" y="-72.5" font-family="Helvetica,sans-Serif" font-size="10.00">FileToolkitWithUndo</text>
<text text-anchor="middle" x="329.5" y="-61.5" font-family="Helvetica,sans-Serif" font-size="10.00">::createDirectory</text>
</a>
</g>
</g>
<!-- Node2&#45;&gt;Node4 -->
<g id="edge3" class="edge"><title>Node2&#45;&gt;Node4</title>
<path fill="none" stroke="midnightblue" d="M241.258,-75C249.49,-75 258.077,-75 266.514,-75"/>
<polygon fill="midnightblue" stroke="midnightblue" points="266.698,-78.5001 276.698,-75 266.698,-71.5001 266.698,-78.5001"/>
</g>
<!-- Node6 -->
<g id="node6" class="node"><title>Node6</title>
<g id="a_node6"><a xlink:href="classsoftwarecontainer_1_1_file_toolkit_with_undo.html#a44a19890b72a635b3134cb2a07fc0875" target="_top" xlink:title="checks whether given path is already added to clean up handlers or not ">
<polygon fill="white" stroke="black" points="418,-0.5 418,-41.5 523,-41.5 523,-0.5 418,-0.5"/>
<text text-anchor="start" x="426" y="-29.5" font-family="Helvetica,sans-Serif" font-size="10.00">softwarecontainer::</text>
<text text-anchor="start" x="426" y="-18.5" font-family="Helvetica,sans-Serif" font-size="10.00">FileToolkitWithUndo</text>
<text text-anchor="middle" x="470.5" y="-7.5" font-family="Helvetica,sans-Serif" font-size="10.00">::pathInList</text>
</a>
</g>
</g>
<!-- Node2&#45;&gt;Node6 -->
<g id="edge7" class="edge"><title>Node2&#45;&gt;Node6</title>
<path fill="none" stroke="midnightblue" d="M241.271,-55.284C252.896,-51.4107 265.265,-47.7126 277,-45 320.041,-35.0508 369.512,-28.9964 407.525,-25.4575"/>
<polygon fill="midnightblue" stroke="midnightblue" points="408.28,-28.9039 417.928,-24.5249 407.655,-21.9319 408.28,-28.9039"/>
</g>
<!-- Node4&#45;&gt;Node3 -->
<g id="edge5" class="edge"><title>Node4&#45;&gt;Node3</title>
<path fill="none" stroke="midnightblue" d="M382.258,-93.2458C393.716,-97.2847 405.863,-101.567 417.336,-105.611"/>
<polygon fill="midnightblue" stroke="midnightblue" points="416.191,-108.919 426.786,-108.942 418.518,-102.317 416.191,-108.919"/>
</g>
<!-- Node5 -->
<g id="node5" class="node"><title>Node5</title>
<g id="a_node5"><a xlink:href="namespacesoftwarecontainer.html#a44f64c34c09d1ffdb18428b41f0d9e91" target="_top" xlink:title="isDirectory Check if path is a directory ">
<polygon fill="white" stroke="black" points="420.5,-60 420.5,-90 520.5,-90 520.5,-60 420.5,-60"/>
<text text-anchor="start" x="428.5" y="-78" font-family="Helvetica,sans-Serif" font-size="10.00">softwarecontainer::</text>
<text text-anchor="middle" x="470.5" y="-67" font-family="Helvetica,sans-Serif" font-size="10.00">isDirectory</text>
</a>
</g>
</g>
<!-- Node4&#45;&gt;Node5 -->
<g id="edge4" class="edge"><title>Node4&#45;&gt;Node5</title>
<path fill="none" stroke="midnightblue" d="M382.258,-75C391.441,-75 401.067,-75 410.434,-75"/>
<polygon fill="midnightblue" stroke="midnightblue" points="410.463,-78.5001 420.463,-75 410.463,-71.5001 410.463,-78.5001"/>
</g>
<!-- Node4&#45;&gt;Node6 -->
<g id="edge6" class="edge"><title>Node4&#45;&gt;Node6</title>
<path fill="none" stroke="midnightblue" d="M382.258,-54.8924C390.761,-51.5892 399.643,-48.1385 408.348,-44.7567"/>
<polygon fill="midnightblue" stroke="midnightblue" points="409.644,-48.0081 417.698,-41.1244 407.11,-41.4832 409.644,-48.0081"/>
</g>
</g>
</svg>
