<?xml version="1.0" encoding="UTF-8" standalone="no"?>
<!DOCTYPE svg PUBLIC "-//W3C//DTD SVG 1.1//EN"
 "http://www.w3.org/Graphics/SVG/1.1/DTD/svg11.dtd">
<!-- Generated by graphviz version 2.38.0 (20140413.2041)
 -->
<!-- Title: softwarecontainer::FileToolkitWithUndo::createDirectory Pages: 1 -->
<svg width="455pt" height="207pt"
 viewBox="0.00 0.00 455.00 207.00" xmlns="http://www.w3.org/2000/svg" xmlns:xlink="http://www.w3.org/1999/xlink">
<g id="graph0" class="graph" transform="scale(1 1) rotate(0) translate(4 203)">
<title>softwarecontainer::FileToolkitWithUndo::createDirectory</title>
<polygon fill="white" stroke="none" points="-4,4 -4,-203 451,-203 451,4 -4,4"/>
<!-- Node1 -->
<g id="node1" class="node"><title>Node1</title>
<polygon fill="#bfbfbf" stroke="black" points="0,-78.5 0,-119.5 105,-119.5 105,-78.5 0,-78.5"/>
<text text-anchor="start" x="8" y="-107.5" font-family="Helvetica,sans-Serif" font-size="10.00">softwarecontainer::</text>
<text text-anchor="start" x="8" y="-96.5" font-family="Helvetica,sans-Serif" font-size="10.00">FileToolkitWithUndo</text>
<text text-anchor="middle" x="52.5" y="-85.5" font-family="Helvetica,sans-Serif" font-size="10.00">::createDirectory</text>
</g>
<!-- Node2 -->
<g id="node2" class="node"><title>Node2</title>
<g id="a_node2"><a xlink:href="classsoftwarecontainer_1_1_container.html#aad5106f2602758d80aafebdd34a7b0f9" target="_top" xlink:title="Tries to bind mount a directory in the container. ">
<polygon fill="white" stroke="black" points="146.5,-157.5 146.5,-198.5 283.5,-198.5 283.5,-157.5 146.5,-157.5"/>
<text text-anchor="start" x="154.5" y="-186.5" font-family="Helvetica,sans-Serif" font-size="10.00">softwarecontainer::</text>
<text text-anchor="start" x="154.5" y="-175.5" font-family="Helvetica,sans-Serif" font-size="10.00">Container::bindMountFolder</text>
<text text-anchor="middle" x="215" y="-164.5" font-family="Helvetica,sans-Serif" font-size="10.00">InContainer</text>
</a>
</g>
</g>
<!-- Node1&#45;&gt;Node2 -->
<g id="edge1" class="edge"><title>Node1&#45;&gt;Node2</title>
<path fill="none" stroke="midnightblue" d="M95.954,-124.859C110.06,-133.018 125.999,-141.779 141,-149 147.021,-151.898 153.411,-154.75 159.809,-157.466"/>
<polygon fill="midnightblue" stroke="midnightblue" points="97.3756,-121.636 86.9768,-119.607 93.8408,-127.678 97.3756,-121.636"/>
</g>
<!-- Node3 -->
<g id="node3" class="node"><title>Node3</title>
<g id="a_node3"><a xlink:href="classsoftwarecontainer_1_1_workspace.html#af9be59382096de97cfab692bc5c89114" target="_top" xlink:title="Check if the workspace is present and create it if needed. ">
<polygon fill="white" stroke="black" points="141,-109 141,-139 289,-139 289,-109 141,-109"/>
<text text-anchor="start" x="149" y="-127" font-family="Helvetica,sans-Serif" font-size="10.00">softwarecontainer::</text>
<text text-anchor="middle" x="215" y="-116" font-family="Helvetica,sans-Serif" font-size="10.00">Workspace::checkWorkspace</text>
</a>
</g>
</g>
<!-- Node1&#45;&gt;Node3 -->
<g id="edge2" class="edge"><title>Node1&#45;&gt;Node3</title>
<path fill="none" stroke="midnightblue" d="M115.215,-108.613C123.59,-109.917 132.25,-111.266 140.802,-112.599"/>
<polygon fill="midnightblue" stroke="midnightblue" points="115.586,-105.129 105.167,-107.048 114.509,-112.045 115.586,-105.129"/>
</g>
<!-- Node5 -->
<g id="node5" class="node"><title>Node5</title>
<g id="a_node5"><a xlink:href="classsoftwarecontainer_1_1_container.html#a8461f293ef5db5ee5fbdeddd24f36214" target="_top" xlink:title="Setup the container for preloading. ">
<polygon fill="white" stroke="black" points="165,-60 165,-90 265,-90 265,-60 165,-60"/>
<text text-anchor="start" x="173" y="-78" font-family="Helvetica,sans-Serif" font-size="10.00">softwarecontainer::</text>
<text text-anchor="middle" x="215" y="-67" font-family="Helvetica,sans-Serif" font-size="10.00">Container::initialize</text>
</a>
</g>
</g>
<!-- Node1&#45;&gt;Node5 -->
<g id="edge4" class="edge"><title>Node1&#45;&gt;Node5</title>
<path fill="none" stroke="midnightblue" d="M115.237,-89.7683C131.681,-87.3094 149.222,-84.6864 164.889,-82.3437"/>
<polygon fill="midnightblue" stroke="midnightblue" points="114.539,-86.3337 105.167,-91.2741 115.574,-93.2567 114.539,-86.3337"/>
</g>
<!-- Node6 -->
<g id="node6" class="node"><title>Node6</title>
<g id="a_node6"><a xlink:href="classsoftwarecontainer_1_1_file_toolkit_with_undo.html#ab46eccba563b861f100d9ce7fa9ca4d6" target="_top" xlink:title="overlayMount Mount a directory with an overlay on top of it. ">
<polygon fill="white" stroke="black" points="162.5,-0.5 162.5,-41.5 267.5,-41.5 267.5,-0.5 162.5,-0.5"/>
<text text-anchor="start" x="170.5" y="-29.5" font-family="Helvetica,sans-Serif" font-size="10.00">softwarecontainer::</text>
<text text-anchor="start" x="170.5" y="-18.5" font-family="Helvetica,sans-Serif" font-size="10.00">FileToolkitWithUndo</text>
<text text-anchor="middle" x="215" y="-7.5" font-family="Helvetica,sans-Serif" font-size="10.00">::overlayMount</text>
</a>
</g>
</g>
<!-- Node1&#45;&gt;Node6 -->
<g id="edge5" class="edge"><title>Node1&#45;&gt;Node6</title>
<path fill="none" stroke="midnightblue" d="M97.569,-73.5738C111.314,-65.984 126.637,-57.8643 141,-51 147.8,-47.7503 155.047,-44.5123 162.236,-41.4309"/>
<polygon fill="midnightblue" stroke="midnightblue" points="95.8216,-70.5408 88.7906,-78.4664 99.2295,-76.6552 95.8216,-70.5408"/>
</g>
<!-- Node4 -->
<g id="node4" class="node"><title>Node4</title>
<g id="a_node4"><a xlink:href="classsoftwarecontainer_1_1_workspace.html#a4cca8749e6f3bd90452511ede207f5e5" target="_top" xlink:title="Creates a workspace. ">
<polygon fill="white" stroke="black" points="325,-109 325,-139 447,-139 447,-109 325,-109"/>
<text text-anchor="start" x="333" y="-127" font-family="Helvetica,sans-Serif" font-size="10.00">softwarecontainer::</text>
<text text-anchor="middle" x="386" y="-116" font-family="Helvetica,sans-Serif" font-size="10.00">Workspace::Workspace</text>
</a>
</g>
</g>
<!-- Node3&#45;&gt;Node4 -->
<g id="edge3" class="edge"><title>Node3&#45;&gt;Node4</title>
<path fill="none" stroke="midnightblue" d="M299.28,-124C307.941,-124 316.619,-124 324.95,-124"/>
<polygon fill="midnightblue" stroke="midnightblue" points="299.143,-120.5 289.143,-124 299.143,-127.5 299.143,-120.5"/>
</g>
<!-- Node7 -->
<g id="node7" class="node"><title>Node7</title>
<g id="a_node7"><a xlink:href="classsoftwarecontainer_1_1_container.html#a6c57689a4a21b8c9342c53c7e8743203" target="_top" xlink:title="create Creates a new lxc_container and creates it with all the initialization. ">
<polygon fill="white" stroke="black" points="336,-6 336,-36 436,-36 436,-6 336,-6"/>
<text text-anchor="start" x="344" y="-24" font-family="Helvetica,sans-Serif" font-size="10.00">softwarecontainer::</text>
<text text-anchor="middle" x="386" y="-13" font-family="Helvetica,sans-Serif" font-size="10.00">Container::create</text>
</a>
</g>
</g>
<!-- Node6&#45;&gt;Node7 -->
<g id="edge6" class="edge"><title>Node6&#45;&gt;Node7</title>
<path fill="none" stroke="midnightblue" d="M277.729,-21C296.82,-21 317.586,-21 335.717,-21"/>
<polygon fill="midnightblue" stroke="midnightblue" points="277.624,-17.5001 267.624,-21 277.624,-24.5001 277.624,-17.5001"/>
</g>
</g>
</svg>
