<?xml version="1.0" encoding="UTF-8" standalone="no"?>
<!DOCTYPE svg PUBLIC "-//W3C//DTD SVG 1.1//EN"
 "http://www.w3.org/Graphics/SVG/1.1/DTD/svg11.dtd">
<!-- Generated by graphviz version 2.38.0 (20140413.2041)
 -->
<!-- Title: IPTableEntry::applyRules Pages: 1 -->
<svg width="314pt" height="66pt"
 viewBox="0.00 0.00 314.00 66.00" xmlns="http://www.w3.org/2000/svg" xmlns:xlink="http://www.w3.org/1999/xlink">
<g id="graph0" class="graph" transform="scale(1 1) rotate(0) translate(4 62)">
<title>IPTableEntry::applyRules</title>
<polygon fill="white" stroke="none" points="-4,4 -4,-62 310,-62 310,4 -4,4"/>
<!-- Node1 -->
<g id="node1" class="node"><title>Node1</title>
<polygon fill="#bfbfbf" stroke="black" points="0,-19.5 0,-38.5 128,-38.5 128,-19.5 0,-19.5"/>
<text text-anchor="middle" x="64" y="-26.5" font-family="Helvetica,sans-Serif" font-size="10.00">IPTableEntry::applyRules</text>
</g>
<!-- Node2 -->
<g id="node2" class="node"><title>Node2</title>
<g id="a_node2"><a xlink:href="class_i_p_table_entry.html#a6712bcba4d643a6c0ac74ff6fe5a3760" target="_top" xlink:title="This function Interprets defaultTarget rule to iptables applicable policy string. ...">
<polygon fill="white" stroke="black" points="164,-38.5 164,-57.5 306,-57.5 306,-38.5 164,-38.5"/>
<text text-anchor="middle" x="235" y="-45.5" font-family="Helvetica,sans-Serif" font-size="10.00">IPTableEntry::interpretPolicy</text>
</a>
</g>
</g>
<!-- Node1&#45;&gt;Node2 -->
<g id="edge1" class="edge"><title>Node1&#45;&gt;Node2</title>
<path fill="none" stroke="midnightblue" d="M128.41,-36.129C136.758,-37.0674 145.399,-38.0389 153.978,-39.0034"/>
<polygon fill="midnightblue" stroke="midnightblue" points="153.671,-42.4909 163.999,-40.1301 154.453,-35.5347 153.671,-42.4909"/>
</g>
<!-- Node3 -->
<g id="node3" class="node"><title>Node3</title>
<g id="a_node3"><a xlink:href="class_i_p_table_entry.html#ac090d9fee4b15b246d944d800ff0e12e" target="_top" xlink:title="Interprets a rule to iptables applicable string. ">
<polygon fill="white" stroke="black" points="167.5,-0.5 167.5,-19.5 302.5,-19.5 302.5,-0.5 167.5,-0.5"/>
<text text-anchor="middle" x="235" y="-7.5" font-family="Helvetica,sans-Serif" font-size="10.00">IPTableEntry::interpretRule</text>
</a>
</g>
</g>
<!-- Node1&#45;&gt;Node3 -->
<g id="edge2" class="edge"><title>Node1&#45;&gt;Node3</title>
<path fill="none" stroke="midnightblue" d="M128.41,-21.871C137.864,-20.8082 147.694,-19.703 157.385,-18.6135"/>
<polygon fill="midnightblue" stroke="midnightblue" points="157.865,-22.0817 167.411,-17.4863 157.083,-15.1255 157.865,-22.0817"/>
</g>
</g>
</svg>
