<?xml version="1.0" encoding="UTF-8" standalone="no"?>
<!DOCTYPE svg PUBLIC "-//W3C//DTD SVG 1.1//EN"
 "http://www.w3.org/Graphics/SVG/1.1/DTD/svg11.dtd">
<!-- Generated by graphviz version 2.38.0 (20140413.2041)
 -->
<!-- Title: softwarecontainer::SoftwareContainer::setGatewayConfigs Pages: 1 -->
<svg width="497pt" height="142pt"
 viewBox="0.00 0.00 497.00 142.00" xmlns="http://www.w3.org/2000/svg" xmlns:xlink="http://www.w3.org/1999/xlink">
<g id="graph0" class="graph" transform="scale(1 1) rotate(0) translate(4 138)">
<title>softwarecontainer::SoftwareContainer::setGatewayConfigs</title>
<polygon fill="white" stroke="none" points="-4,4 -4,-138 493,-138 493,4 -4,4"/>
<!-- Node1 -->
<g id="node1" class="node"><title>Node1</title>
<polygon fill="#bfbfbf" stroke="black" points="0,-46.5 0,-87.5 156,-87.5 156,-46.5 0,-46.5"/>
<text text-anchor="start" x="8" y="-75.5" font-family="Helvetica,sans-Serif" font-size="10.00">softwarecontainer::</text>
<text text-anchor="start" x="8" y="-64.5" font-family="Helvetica,sans-Serif" font-size="10.00">SoftwareContainer::setGateway</text>
<text text-anchor="middle" x="78" y="-53.5" font-family="Helvetica,sans-Serif" font-size="10.00">Configs</text>
</g>
<!-- Node2 -->
<g id="node2" class="node"><title>Node2</title>
<g id="a_node2"><a xlink:href="class_gateway.html#aac80886a35b80d8003051e6926b59937" target="_top" xlink:title="Applies any configuration set by setConfig() ">
<polygon fill="white" stroke="black" points="202,-114.5 202,-133.5 298,-133.5 298,-114.5 202,-114.5"/>
<text text-anchor="middle" x="250" y="-121.5" font-family="Helvetica,sans-Serif" font-size="10.00">Gateway::activate</text>
</a>
</g>
</g>
<!-- Node1&#45;&gt;Node2 -->
<g id="edge1" class="edge"><title>Node1&#45;&gt;Node2</title>
<path fill="none" stroke="midnightblue" d="M140.374,-87.5783C163.913,-95.4707 190.077,-104.244 210.829,-111.201"/>
<polygon fill="midnightblue" stroke="midnightblue" points="209.952,-114.599 220.546,-114.459 212.177,-107.962 209.952,-114.599"/>
</g>
<!-- Node4 -->
<g id="node4" class="node"><title>Node4</title>
<g id="a_node4"><a xlink:href="class_gateway.html#a01028fc541340b53b0330c03dafb6bfe" target="_top" xlink:title="Gateway::id">
<polygon fill="white" stroke="black" points="382,-76.5 382,-95.5 451,-95.5 451,-76.5 382,-76.5"/>
<text text-anchor="middle" x="416.5" y="-83.5" font-family="Helvetica,sans-Serif" font-size="10.00">Gateway::id</text>
</a>
</g>
</g>
<!-- Node1&#45;&gt;Node4 -->
<g id="edge4" class="edge"><title>Node1&#45;&gt;Node4</title>
<path fill="none" stroke="midnightblue" d="M156.2,-71.359C222.917,-75.1261 316.968,-80.4365 371.551,-83.5185"/>
<polygon fill="midnightblue" stroke="midnightblue" points="371.413,-87.0162 381.595,-84.0856 371.808,-80.0273 371.413,-87.0162"/>
</g>
<!-- Node5 -->
<g id="node5" class="node"><title>Node5</title>
<g id="a_node5"><a xlink:href="class_gateway.html#a88ae41c7b14da49561d025bd99047e81" target="_top" xlink:title="Is the gateway configured or not? ">
<polygon fill="white" stroke="black" points="192,-38.5 192,-57.5 308,-57.5 308,-38.5 192,-38.5"/>
<text text-anchor="middle" x="250" y="-45.5" font-family="Helvetica,sans-Serif" font-size="10.00">Gateway::isConfigured</text>
</a>
</g>
</g>
<!-- Node1&#45;&gt;Node5 -->
<g id="edge5" class="edge"><title>Node1&#45;&gt;Node5</title>
<path fill="none" stroke="midnightblue" d="M156.042,-58.3895C164.598,-57.4331 173.263,-56.4647 181.686,-55.5233"/>
<polygon fill="midnightblue" stroke="midnightblue" points="182.267,-58.9803 191.816,-54.3912 181.489,-52.0236 182.267,-58.9803"/>
</g>
<!-- Node6 -->
<g id="node6" class="node"><title>Node6</title>
<g id="a_node6"><a xlink:href="class_gateway.html#a04d31b1ed232f5376c5cf79e30fa2593" target="_top" xlink:title="Configure this gateway according to the supplied JSON configuration string. ">
<polygon fill="white" stroke="black" points="198,-0.5 198,-19.5 302,-19.5 302,-0.5 198,-0.5"/>
<text text-anchor="middle" x="250" y="-7.5" font-family="Helvetica,sans-Serif" font-size="10.00">Gateway::setConfig</text>
</a>
</g>
</g>
<!-- Node1&#45;&gt;Node6 -->
<g id="edge6" class="edge"><title>Node1&#45;&gt;Node6</title>
<path fill="none" stroke="midnightblue" d="M139.981,-46.4603C156.83,-40.794 175.121,-34.6512 192,-29 198.037,-26.9788 204.435,-24.8414 210.679,-22.7582"/>
<polygon fill="midnightblue" stroke="midnightblue" points="211.911,-26.037 220.29,-19.5535 209.696,-19.3964 211.911,-26.037"/>
</g>
<!-- Node3 -->
<g id="node3" class="node"><title>Node3</title>
<g id="a_node3"><a xlink:href="class_gateway.html#ad66eea64014d7eb2927c1f576b3cf2b2" target="_top" xlink:title="Check if the gateway has an associated container. ">
<polygon fill="white" stroke="black" points="357,-114.5 357,-133.5 476,-133.5 476,-114.5 357,-114.5"/>
<text text-anchor="middle" x="416.5" y="-121.5" font-family="Helvetica,sans-Serif" font-size="10.00">Gateway::hasContainer</text>
</a>
</g>
</g>
<!-- Node2&#45;&gt;Node3 -->
<g id="edge2" class="edge"><title>Node2&#45;&gt;Node3</title>
<path fill="none" stroke="midnightblue" d="M298.139,-124C313.313,-124 330.45,-124 346.846,-124"/>
<polygon fill="midnightblue" stroke="midnightblue" points="346.934,-127.5 356.934,-124 346.934,-120.5 346.934,-127.5"/>
</g>
<!-- Node2&#45;&gt;Node4 -->
<g id="edge3" class="edge"><title>Node2&#45;&gt;Node4</title>
<path fill="none" stroke="midnightblue" d="M292.51,-114.411C316.77,-108.807 347.355,-101.742 371.956,-96.0587"/>
<polygon fill="midnightblue" stroke="midnightblue" points="372.796,-99.457 381.752,-93.7959 371.221,-92.6366 372.796,-99.457"/>
</g>
<!-- Node6&#45;&gt;Node4 -->
<g id="edge7" class="edge"><title>Node6&#45;&gt;Node4</title>
<path fill="none" stroke="midnightblue" d="M282.709,-19.5339C291.04,-22.319 299.945,-25.5504 308,-29 337.264,-41.533 369.326,-59.0627 390.752,-71.3632"/>
<polygon fill="midnightblue" stroke="midnightblue" points="389.114,-74.4596 399.521,-76.4473 392.625,-68.4037 389.114,-74.4596"/>
</g>
<!-- Node7 -->
<g id="node7" class="node"><title>Node7</title>
<g id="a_node7"><a xlink:href="class_gateway.html#a4413c4a754da11031de372bc0b278d92" target="_top" xlink:title="Gateway specific parsing of config elements. ">
<polygon fill="white" stroke="black" points="344,-0.5 344,-19.5 489,-19.5 489,-0.5 344,-0.5"/>
<text text-anchor="middle" x="416.5" y="-7.5" font-family="Helvetica,sans-Serif" font-size="10.00">Gateway::readConfigElement</text>
</a>
</g>
</g>
<!-- Node6&#45;&gt;Node7 -->
<g id="edge8" class="edge"><title>Node6&#45;&gt;Node7</title>
<path fill="none" stroke="midnightblue" d="M302.147,-10C312.153,-10 322.88,-10 333.598,-10"/>
<polygon fill="midnightblue" stroke="midnightblue" points="333.849,-13.5001 343.849,-10 333.849,-6.5001 333.849,-13.5001"/>
</g>
</g>
</svg>
