<?xml version="1.0" encoding="UTF-8" standalone="no"?>
<!DOCTYPE svg PUBLIC "-//W3C//DTD SVG 1.1//EN"
 "http://www.w3.org/Graphics/SVG/1.1/DTD/svg11.dtd">
<!-- Generated by graphviz version 2.38.0 (20140413.2041)
 -->
<!-- Title: softwarecontainer::Container::bindMountInContainer Pages: 1 -->
<svg width="498pt" height="213pt"
 viewBox="0.00 0.00 498.00 213.00" xmlns="http://www.w3.org/2000/svg" xmlns:xlink="http://www.w3.org/1999/xlink">
<g id="graph0" class="graph" transform="scale(1 1) rotate(0) translate(4 209)">
<title>softwarecontainer::Container::bindMountInContainer</title>
<polygon fill="white" stroke="none" points="-4,4 -4,-209 494,-209 494,4 -4,4"/>
<!-- Node1 -->
<g id="node1" class="node"><title>Node1</title>
<polygon fill="#bfbfbf" stroke="black" points="0,-93.5 0,-123.5 160,-123.5 160,-93.5 0,-93.5"/>
<text text-anchor="start" x="8" y="-111.5" font-family="Helvetica,sans-Serif" font-size="10.00">softwarecontainer::</text>
<text text-anchor="middle" x="80" y="-100.5" font-family="Helvetica,sans-Serif" font-size="10.00">Container::bindMountInContainer</text>
</g>
<!-- Node2 -->
<g id="node2" class="node"><title>Node2</title>
<g id="a_node2"><a xlink:href="classsoftwarecontainer_1_1_file_toolkit_with_undo.html#a35eb42bdace2695fb3e96cb84a535213" target="_top" xlink:title="createDirectory Create a directory, and if successful append it to a list of dirs to be deleted in th...">
<polygon fill="white" stroke="black" points="204.5,-137 204.5,-178 309.5,-178 309.5,-137 204.5,-137"/>
<text text-anchor="start" x="212.5" y="-166" font-family="Helvetica,sans-Serif" font-size="10.00">softwarecontainer::</text>
<text text-anchor="start" x="212.5" y="-155" font-family="Helvetica,sans-Serif" font-size="10.00">FileToolkitWithUndo</text>
<text text-anchor="middle" x="257" y="-144" font-family="Helvetica,sans-Serif" font-size="10.00">::createDirectory</text>
</a>
</g>
</g>
<!-- Node1&#45;&gt;Node2 -->
<g id="edge1" class="edge"><title>Node1&#45;&gt;Node2</title>
<path fill="none" stroke="midnightblue" d="M134.934,-123.601C153.835,-128.894 175.198,-134.876 194.661,-140.325"/>
<polygon fill="midnightblue" stroke="midnightblue" points="193.768,-143.71 204.341,-143.036 195.655,-136.969 193.768,-143.71"/>
</g>
<!-- Node3 -->
<g id="node3" class="node"><title>Node3</title>
<g id="a_node3"><a xlink:href="namespacesoftwarecontainer.html#a44f64c34c09d1ffdb18428b41f0d9e91" target="_top" xlink:title="isDirectory Check if path is a directory ">
<polygon fill="white" stroke="black" points="372,-174.5 372,-204.5 472,-204.5 472,-174.5 372,-174.5"/>
<text text-anchor="start" x="380" y="-192.5" font-family="Helvetica,sans-Serif" font-size="10.00">softwarecontainer::</text>
<text text-anchor="middle" x="422" y="-181.5" font-family="Helvetica,sans-Serif" font-size="10.00">isDirectory</text>
</a>
</g>
</g>
<!-- Node1&#45;&gt;Node3 -->
<g id="edge8" class="edge"><title>Node1&#45;&gt;Node3</title>
<path fill="none" stroke="midnightblue" d="M96.4658,-123.723C117.122,-142.886 155.803,-174.827 196,-187.5 250.207,-204.59 315.476,-202.9 361.723,-198.256"/>
<polygon fill="midnightblue" stroke="midnightblue" points="362.311,-201.713 371.877,-197.159 361.558,-194.754 362.311,-201.713"/>
</g>
<!-- Node4 -->
<g id="node4" class="node"><title>Node4</title>
<g id="a_node4"><a xlink:href="classsoftwarecontainer_1_1_file_toolkit_with_undo.html#a44a19890b72a635b3134cb2a07fc0875" target="_top" xlink:title="checks whether given path is already added to clean up handlers or not ">
<polygon fill="white" stroke="black" points="369.5,-111 369.5,-152 474.5,-152 474.5,-111 369.5,-111"/>
<text text-anchor="start" x="377.5" y="-140" font-family="Helvetica,sans-Serif" font-size="10.00">softwarecontainer::</text>
<text text-anchor="start" x="377.5" y="-129" font-family="Helvetica,sans-Serif" font-size="10.00">FileToolkitWithUndo</text>
<text text-anchor="middle" x="422" y="-118" font-family="Helvetica,sans-Serif" font-size="10.00">::pathInList</text>
</a>
</g>
</g>
<!-- Node1&#45;&gt;Node4 -->
<g id="edge9" class="edge"><title>Node1&#45;&gt;Node4</title>
<path fill="none" stroke="midnightblue" d="M160.286,-113.863C220.969,-117.968 303.461,-123.549 359.278,-127.325"/>
<polygon fill="midnightblue" stroke="midnightblue" points="359.165,-130.825 369.378,-128.008 359.637,-123.841 359.165,-130.825"/>
</g>
<!-- Node5 -->
<g id="node5" class="node"><title>Node5</title>
<g id="a_node5"><a xlink:href="classsoftwarecontainer_1_1_container.html#a480d9a7d3a2c0ee9d1756a2bdfc29f59" target="_top" xlink:title="synchronous version of execute ">
<polygon fill="white" stroke="black" points="196,-49.5 196,-79.5 318,-79.5 318,-49.5 196,-49.5"/>
<text text-anchor="start" x="204" y="-67.5" font-family="Helvetica,sans-Serif" font-size="10.00">softwarecontainer::</text>
<text text-anchor="middle" x="257" y="-56.5" font-family="Helvetica,sans-Serif" font-size="10.00">Container::executeSync</text>
</a>
</g>
</g>
<!-- Node1&#45;&gt;Node5 -->
<g id="edge4" class="edge"><title>Node1&#45;&gt;Node5</title>
<path fill="none" stroke="midnightblue" d="M140.736,-93.4808C155.437,-89.7844 171.305,-85.7947 186.427,-81.9926"/>
<polygon fill="midnightblue" stroke="midnightblue" points="187.392,-85.359 196.237,-79.5262 185.685,-78.5703 187.392,-85.359"/>
</g>
<!-- Node8 -->
<g id="node8" class="node"><title>Node8</title>
<g id="a_node8"><a xlink:href="namespacesoftwarecontainer.html#ae8835f968ab1d43b4a395b0097490734" target="_top" xlink:title="existsInFileSystem Check if path exists ">
<polygon fill="white" stroke="black" points="206.5,-0.5 206.5,-30.5 307.5,-30.5 307.5,-0.5 206.5,-0.5"/>
<text text-anchor="start" x="214.5" y="-18.5" font-family="Helvetica,sans-Serif" font-size="10.00">softwarecontainer::</text>
<text text-anchor="middle" x="257" y="-7.5" font-family="Helvetica,sans-Serif" font-size="10.00">existsInFileSystem</text>
</a>
</g>
</g>
<!-- Node1&#45;&gt;Node8 -->
<g id="edge7" class="edge"><title>Node1&#45;&gt;Node8</title>
<path fill="none" stroke="midnightblue" d="M103.735,-93.3736C126.505,-78.5837 162.835,-55.9505 196,-39.5 199.31,-37.858 202.762,-36.2411 206.264,-34.6703"/>
<polygon fill="midnightblue" stroke="midnightblue" points="207.802,-37.8184 215.589,-30.6336 205.021,-31.3945 207.802,-37.8184"/>
</g>
<!-- Node2&#45;&gt;Node3 -->
<g id="edge2" class="edge"><title>Node2&#45;&gt;Node3</title>
<path fill="none" stroke="midnightblue" d="M309.574,-167.625C326.259,-170.901 344.887,-174.558 362.064,-177.93"/>
<polygon fill="midnightblue" stroke="midnightblue" points="361.497,-181.385 371.984,-179.877 362.846,-174.516 361.497,-181.385"/>
</g>
<!-- Node2&#45;&gt;Node4 -->
<g id="edge3" class="edge"><title>Node2&#45;&gt;Node4</title>
<path fill="none" stroke="midnightblue" d="M309.574,-149.273C325.408,-146.748 342.992,-143.943 359.425,-141.322"/>
<polygon fill="midnightblue" stroke="midnightblue" points="360.158,-144.749 369.482,-139.718 359.055,-137.837 360.158,-144.749"/>
</g>
<!-- Node6 -->
<g id="node6" class="node"><title>Node6</title>
<g id="a_node6"><a xlink:href="classsoftwarecontainer_1_1_container.html#ae18efbb5f1588ed2211d7e876ede84ab" target="_top" xlink:title="Start a process from the given command line, with an environment consisting of the variables previous...">
<polygon fill="white" stroke="black" points="372,-54.5 372,-84.5 472,-84.5 472,-54.5 372,-54.5"/>
<text text-anchor="start" x="380" y="-72.5" font-family="Helvetica,sans-Serif" font-size="10.00">softwarecontainer::</text>
<text text-anchor="middle" x="422" y="-61.5" font-family="Helvetica,sans-Serif" font-size="10.00">Container::execute</text>
</a>
</g>
</g>
<!-- Node5&#45;&gt;Node6 -->
<g id="edge5" class="edge"><title>Node5&#45;&gt;Node6</title>
<path fill="none" stroke="midnightblue" d="M318.232,-66.3476C332.462,-66.7841 347.623,-67.2492 361.807,-67.6843"/>
<polygon fill="midnightblue" stroke="midnightblue" points="361.832,-71.1866 371.935,-67.9949 362.047,-64.1899 361.832,-71.1866"/>
</g>
<!-- Node7 -->
<g id="node7" class="node"><title>Node7</title>
<g id="a_node7"><a xlink:href="namespacesoftwarecontainer.html#aee26a680bb2961627889d39c9f874b2c" target="_top" xlink:title="waitForProcessTermination Waits for a process to terminate and then returns the status of the process...">
<polygon fill="white" stroke="black" points="354,-5.5 354,-35.5 490,-35.5 490,-5.5 354,-5.5"/>
<text text-anchor="start" x="362" y="-23.5" font-family="Helvetica,sans-Serif" font-size="10.00">softwarecontainer::</text>
<text text-anchor="middle" x="422" y="-12.5" font-family="Helvetica,sans-Serif" font-size="10.00">waitForProcessTermination</text>
</a>
</g>
</g>
<!-- Node5&#45;&gt;Node7 -->
<g id="edge6" class="edge"><title>Node5&#45;&gt;Node7</title>
<path fill="none" stroke="midnightblue" d="M313.639,-49.4808C327.072,-45.8548 341.55,-41.9466 355.392,-38.2101"/>
<polygon fill="midnightblue" stroke="midnightblue" points="356.592,-41.5114 365.335,-35.5262 354.768,-34.7533 356.592,-41.5114"/>
</g>
</g>
</svg>
