<?xml version="1.0" encoding="UTF-8" standalone="no"?>
<!DOCTYPE svg PUBLIC "-//W3C//DTD SVG 1.1//EN"
 "http://www.w3.org/Graphics/SVG/1.1/DTD/svg11.dtd">
<!-- Generated by graphviz version 2.38.0 (20140413.2041)
 -->
<!-- Title: softwarecontainer::Container::bindMountFileInContainer Pages: 1 -->
<svg width="283pt" height="50pt"
 viewBox="0.00 0.00 283.00 50.00" xmlns="http://www.w3.org/2000/svg" xmlns:xlink="http://www.w3.org/1999/xlink">
<g id="graph0" class="graph" transform="scale(1 1) rotate(0) translate(4 46)">
<title>softwarecontainer::Container::bindMountFileInContainer</title>
<polygon fill="white" stroke="none" points="-4,4 -4,-46 279,-46 279,4 -4,4"/>
<!-- Node1 -->
<g id="node1" class="node"><title>Node1</title>
<polygon fill="#bfbfbf" stroke="black" points="0,-0.5 0,-41.5 134,-41.5 134,-0.5 0,-0.5"/>
<text text-anchor="start" x="8" y="-29.5" font-family="Helvetica,sans-Serif" font-size="10.00">softwarecontainer::</text>
<text text-anchor="start" x="8" y="-18.5" font-family="Helvetica,sans-Serif" font-size="10.00">Container::bindMountFileIn</text>
<text text-anchor="middle" x="67" y="-7.5" font-family="Helvetica,sans-Serif" font-size="10.00">Container</text>
</g>
<!-- Node2 -->
<g id="node2" class="node"><title>Node2</title>
<g id="a_node2"><a xlink:href="classsoftwarecontainer_1_1_file_toolkit_with_undo.html#a44a19890b72a635b3134cb2a07fc0875" target="_top" xlink:title="checks whether given path is already added to clean up handlers or not ">
<polygon fill="white" stroke="black" points="170,-0.5 170,-41.5 275,-41.5 275,-0.5 170,-0.5"/>
<text text-anchor="start" x="178" y="-29.5" font-family="Helvetica,sans-Serif" font-size="10.00">softwarecontainer::</text>
<text text-anchor="start" x="178" y="-18.5" font-family="Helvetica,sans-Serif" font-size="10.00">FileToolkitWithUndo</text>
<text text-anchor="middle" x="222.5" y="-7.5" font-family="Helvetica,sans-Serif" font-size="10.00">::pathInList</text>
</a>
</g>
</g>
<!-- Node1&#45;&gt;Node2 -->
<g id="edge1" class="edge"><title>Node1&#45;&gt;Node2</title>
<path fill="none" stroke="midnightblue" d="M134.435,-21C142.845,-21 151.423,-21 159.756,-21"/>
<polygon fill="midnightblue" stroke="midnightblue" points="159.771,-24.5001 169.771,-21 159.771,-17.5001 159.771,-24.5001"/>
</g>
</g>
</svg>
