<?xml version="1.0" encoding="UTF-8" standalone="no"?>
<!DOCTYPE svg PUBLIC "-//W3C//DTD SVG 1.1//EN"
 "http://www.w3.org/Graphics/SVG/1.1/DTD/svg11.dtd">
<!-- Generated by graphviz version 2.38.0 (20140413.2041)
 -->
<!-- Title: Container Pages: 1 -->
<svg width="266pt" height="95pt"
 viewBox="0.00 0.00 265.50 95.00" xmlns="http://www.w3.org/2000/svg" xmlns:xlink="http://www.w3.org/1999/xlink">
<g id="graph0" class="graph" transform="scale(1 1) rotate(0) translate(4 91)">
<title>Container</title>
<polygon fill="white" stroke="none" points="-4,4 -4,-91 261.5,-91 261.5,4 -4,4"/>
<!-- Node1 -->
<g id="node1" class="node"><title>Node1</title>
<polygon fill="#bfbfbf" stroke="black" points="92,-0.5 92,-19.5 151,-19.5 151,-0.5 92,-0.5"/>
<text text-anchor="middle" x="121.5" y="-7.5" font-family="Helvetica,sans-Serif" font-size="10.00">Container</text>
</g>
<!-- Node2 -->
<g id="node2" class="node"><title>Node2</title>
<g id="a_node2"><a xlink:href="classsoftwarecontainer_1_1_file_toolkit_with_undo.html" target="_top" xlink:title="softwarecontainer::\lFileToolkitWithUndo">
<polygon fill="white" stroke="black" points="0,-56.5 0,-86.5 105,-86.5 105,-56.5 0,-56.5"/>
<text text-anchor="start" x="8" y="-74.5" font-family="Helvetica,sans-Serif" font-size="10.00">softwarecontainer::</text>
<text text-anchor="middle" x="52.5" y="-63.5" font-family="Helvetica,sans-Serif" font-size="10.00">FileToolkitWithUndo</text>
</a>
</g>
</g>
<!-- Node2&#45;&gt;Node1 -->
<g id="edge1" class="edge"><title>Node2&#45;&gt;Node1</title>
<path fill="none" stroke="#8b1a1a" d="M76.7402,-49.5972C88.6638,-39.3153 102.386,-27.4824 111.46,-19.6578"/>
<polygon fill="#8b1a1a" stroke="#8b1a1a" points="74.1395,-47.2182 68.852,-56.3993 78.7109,-52.5194 74.1395,-47.2182"/>
</g>
<!-- Node3 -->
<g id="node3" class="node"><title>Node3</title>
<g id="a_node3"><a xlink:href="class_container_abstract_interface.html" target="_top" xlink:title="ContainerAbstractInterface">
<polygon fill="white" stroke="black" points="123.5,-62 123.5,-81 257.5,-81 257.5,-62 123.5,-62"/>
<text text-anchor="middle" x="190.5" y="-69" font-family="Helvetica,sans-Serif" font-size="10.00">ContainerAbstractInterface</text>
</a>
</g>
</g>
<!-- Node3&#45;&gt;Node1 -->
<g id="edge2" class="edge"><title>Node3&#45;&gt;Node1</title>
<path fill="none" stroke="midnightblue" d="M172.699,-55.1496C159.544,-43.8058 142.12,-28.7811 131.368,-19.5091"/>
<polygon fill="midnightblue" stroke="midnightblue" points="170.755,-58.0952 180.614,-61.9751 175.326,-52.794 170.755,-58.0952"/>
</g>
</g>
</svg>
