<?xml version="1.0" encoding="UTF-8" standalone="no"?>
<!DOCTYPE svg PUBLIC "-//W3C//DTD SVG 1.1//EN"
 "http://www.w3.org/Graphics/SVG/1.1/DTD/svg11.dtd">
<!-- Generated by graphviz version 2.38.0 (20140413.2041)
 -->
<!-- Title: softwarecontainer::DeviceNodeGateway::activateGateway Pages: 1 -->
<svg width="466pt" height="235pt"
 viewBox="0.00 0.00 466.00 235.00" xmlns="http://www.w3.org/2000/svg" xmlns:xlink="http://www.w3.org/1999/xlink">
<g id="graph0" class="graph" transform="scale(1 1) rotate(0) translate(4 231)">
<title>softwarecontainer::DeviceNodeGateway::activateGateway</title>
<polygon fill="white" stroke="none" points="-4,4 -4,-231 462,-231 462,4 -4,4"/>
<!-- Node1 -->
<g id="node1" class="node"><title>Node1</title>
<polygon fill="#bfbfbf" stroke="black" points="0,-88 0,-129 150,-129 150,-88 0,-88"/>
<text text-anchor="start" x="8" y="-117" font-family="Helvetica,sans-Serif" font-size="10.00">softwarecontainer::</text>
<text text-anchor="start" x="8" y="-106" font-family="Helvetica,sans-Serif" font-size="10.00">DeviceNodeGateway::activate</text>
<text text-anchor="middle" x="75" y="-95" font-family="Helvetica,sans-Serif" font-size="10.00">Gateway</text>
</g>
<!-- Node2 -->
<g id="node2" class="node"><title>Node2</title>
<g id="a_node2"><a xlink:href="classsoftwarecontainer_1_1_file_toolkit_with_undo.html#aff5073fb683649d6753baae354d202b9" target="_top" xlink:title="createDirectory Create a directory, and if successful append it to a list of dirs to be deleted in th...">
<polygon fill="white" stroke="black" points="192,-137 192,-178 297,-178 297,-137 192,-137"/>
<text text-anchor="start" x="200" y="-166" font-family="Helvetica,sans-Serif" font-size="10.00">softwarecontainer::</text>
<text text-anchor="start" x="200" y="-155" font-family="Helvetica,sans-Serif" font-size="10.00">FileToolkitWithUndo</text>
<text text-anchor="middle" x="244.5" y="-144" font-family="Helvetica,sans-Serif" font-size="10.00">::createDirectory</text>
</a>
</g>
</g>
<!-- Node1&#45;&gt;Node2 -->
<g id="edge1" class="edge"><title>Node1&#45;&gt;Node2</title>
<path fill="none" stroke="midnightblue" d="M146.55,-129.138C158.305,-132.577 170.417,-136.12 181.926,-139.487"/>
<polygon fill="midnightblue" stroke="midnightblue" points="181.281,-142.945 191.862,-142.394 183.247,-136.227 181.281,-142.945"/>
</g>
<!-- Node3 -->
<g id="node3" class="node"><title>Node3</title>
<g id="a_node3"><a xlink:href="namespacesoftwarecontainer.html#a44f64c34c09d1ffdb18428b41f0d9e91" target="_top" xlink:title="isDirectory Check if path is a directory ">
<polygon fill="white" stroke="black" points="348.5,-196.5 348.5,-226.5 448.5,-226.5 448.5,-196.5 348.5,-196.5"/>
<text text-anchor="start" x="356.5" y="-214.5" font-family="Helvetica,sans-Serif" font-size="10.00">softwarecontainer::</text>
<text text-anchor="middle" x="398.5" y="-203.5" font-family="Helvetica,sans-Serif" font-size="10.00">isDirectory</text>
</a>
</g>
</g>
<!-- Node1&#45;&gt;Node3 -->
<g id="edge8" class="edge"><title>Node1&#45;&gt;Node3</title>
<path fill="none" stroke="midnightblue" d="M97.5744,-129.207C118.415,-147.858 151.776,-174.308 186,-187.5 235.001,-206.388 294.773,-211.702 338.258,-212.691"/>
<polygon fill="midnightblue" stroke="midnightblue" points="338.335,-216.193 348.389,-212.851 338.445,-209.194 338.335,-216.193"/>
</g>
<!-- Node4 -->
<g id="node4" class="node"><title>Node4</title>
<g id="a_node4"><a xlink:href="namespacesoftwarecontainer.html#a51a25e6a54b7bb79fc5b4ce8902a31a4" target="_top" xlink:title="isError Check if ReturnCode indicates Error or not ">
<polygon fill="white" stroke="black" points="348.5,-88.5 348.5,-118.5 448.5,-118.5 448.5,-88.5 348.5,-88.5"/>
<text text-anchor="start" x="356.5" y="-106.5" font-family="Helvetica,sans-Serif" font-size="10.00">softwarecontainer::</text>
<text text-anchor="middle" x="398.5" y="-95.5" font-family="Helvetica,sans-Serif" font-size="10.00">isError</text>
</a>
</g>
</g>
<!-- Node1&#45;&gt;Node4 -->
<g id="edge9" class="edge"><title>Node1&#45;&gt;Node4</title>
<path fill="none" stroke="midnightblue" d="M150.162,-107.347C207.186,-106.46 284.93,-105.251 337.937,-104.426"/>
<polygon fill="midnightblue" stroke="midnightblue" points="338.251,-107.922 348.195,-104.267 338.142,-100.923 338.251,-107.922"/>
</g>
<!-- Node6 -->
<g id="node6" class="node"><title>Node6</title>
<g id="a_node6"><a xlink:href="namespacesoftwarecontainer.html#ae8835f968ab1d43b4a395b0097490734" target="_top" xlink:title="existsInFileSystem Check if path exists ">
<polygon fill="white" stroke="black" points="194,-49.5 194,-79.5 295,-79.5 295,-49.5 194,-49.5"/>
<text text-anchor="start" x="202" y="-67.5" font-family="Helvetica,sans-Serif" font-size="10.00">softwarecontainer::</text>
<text text-anchor="middle" x="244.5" y="-56.5" font-family="Helvetica,sans-Serif" font-size="10.00">existsInFileSystem</text>
</a>
</g>
</g>
<!-- Node1&#45;&gt;Node6 -->
<g id="edge5" class="edge"><title>Node1&#45;&gt;Node6</title>
<path fill="none" stroke="midnightblue" d="M150.443,-88.9447C161.682,-85.9925 173.147,-82.9809 184.015,-80.126"/>
<polygon fill="midnightblue" stroke="midnightblue" points="185.022,-83.4803 193.804,-77.5544 183.243,-76.71 185.022,-83.4803"/>
</g>
<!-- Node7 -->
<g id="node7" class="node"><title>Node7</title>
<g id="a_node7"><a xlink:href="classsoftwarecontainer_1_1_gateway.html#a6f0a60c9f29ea869916f7524085b3e5f" target="_top" xlink:title="Get a handle to the associated container. ">
<polygon fill="white" stroke="black" points="186,-0.5 186,-30.5 303,-30.5 303,-0.5 186,-0.5"/>
<text text-anchor="start" x="194" y="-18.5" font-family="Helvetica,sans-Serif" font-size="10.00">softwarecontainer::</text>
<text text-anchor="middle" x="244.5" y="-7.5" font-family="Helvetica,sans-Serif" font-size="10.00">Gateway::getContainer</text>
</a>
</g>
</g>
<!-- Node1&#45;&gt;Node7 -->
<g id="edge6" class="edge"><title>Node1&#45;&gt;Node7</title>
<path fill="none" stroke="midnightblue" d="M106.025,-87.7769C127.704,-73.2884 157.974,-54.013 186,-39.5 189.12,-37.8841 192.375,-36.2919 195.679,-34.7434"/>
<polygon fill="midnightblue" stroke="midnightblue" points="197.378,-37.8164 205.052,-30.5114 194.497,-31.4365 197.378,-37.8164"/>
</g>
<!-- Node2&#45;&gt;Node3 -->
<g id="edge2" class="edge"><title>Node2&#45;&gt;Node3</title>
<path fill="none" stroke="midnightblue" d="M297.385,-175.933C312.911,-181.449 329.935,-187.497 345.47,-193.016"/>
<polygon fill="midnightblue" stroke="midnightblue" points="344.329,-196.325 354.924,-196.374 346.673,-189.729 344.329,-196.325"/>
</g>
<!-- Node2&#45;&gt;Node4 -->
<g id="edge3" class="edge"><title>Node2&#45;&gt;Node4</title>
<path fill="none" stroke="midnightblue" d="M297.385,-139.067C312.911,-133.551 329.935,-127.503 345.47,-121.984"/>
<polygon fill="midnightblue" stroke="midnightblue" points="346.673,-125.271 354.924,-118.626 344.329,-118.675 346.673,-125.271"/>
</g>
<!-- Node5 -->
<g id="node5" class="node"><title>Node5</title>
<g id="a_node5"><a xlink:href="classsoftwarecontainer_1_1_file_toolkit_with_undo.html#a44a19890b72a635b3134cb2a07fc0875" target="_top" xlink:title="checks whether given path is already added to clean up handlers or not ">
<polygon fill="white" stroke="black" points="346,-137 346,-178 451,-178 451,-137 346,-137"/>
<text text-anchor="start" x="354" y="-166" font-family="Helvetica,sans-Serif" font-size="10.00">softwarecontainer::</text>
<text text-anchor="start" x="354" y="-155" font-family="Helvetica,sans-Serif" font-size="10.00">FileToolkitWithUndo</text>
<text text-anchor="middle" x="398.5" y="-144" font-family="Helvetica,sans-Serif" font-size="10.00">::pathInList</text>
</a>
</g>
</g>
<!-- Node2&#45;&gt;Node5 -->
<g id="edge4" class="edge"><title>Node2&#45;&gt;Node5</title>
<path fill="none" stroke="midnightblue" d="M297.385,-157.5C309.735,-157.5 323.034,-157.5 335.777,-157.5"/>
<polygon fill="midnightblue" stroke="midnightblue" points="335.849,-161 345.849,-157.5 335.849,-154 335.849,-161"/>
</g>
<!-- Node8 -->
<g id="node8" class="node"><title>Node8</title>
<g id="a_node8"><a xlink:href="classsoftwarecontainer_1_1_gateway.html#a5e1b860ea7c1ed7b69d2e5dd7021a527" target="_top" xlink:title="Check if the gateway has an associated container. ">
<polygon fill="white" stroke="black" points="339,-0.5 339,-30.5 458,-30.5 458,-0.5 339,-0.5"/>
<text text-anchor="start" x="347" y="-18.5" font-family="Helvetica,sans-Serif" font-size="10.00">softwarecontainer::</text>
<text text-anchor="middle" x="398.5" y="-7.5" font-family="Helvetica,sans-Serif" font-size="10.00">Gateway::hasContainer</text>
</a>
</g>
</g>
<!-- Node7&#45;&gt;Node8 -->
<g id="edge7" class="edge"><title>Node7&#45;&gt;Node8</title>
<path fill="none" stroke="midnightblue" d="M303.398,-15.5C311.629,-15.5 320.161,-15.5 328.576,-15.5"/>
<polygon fill="midnightblue" stroke="midnightblue" points="328.755,-19.0001 338.755,-15.5 328.755,-12.0001 328.755,-19.0001"/>
</g>
</g>
</svg>
