<?xml version="1.0" encoding="UTF-8" standalone="no"?>
<!DOCTYPE svg PUBLIC "-//W3C//DTD SVG 1.1//EN"
 "http://www.w3.org/Graphics/SVG/1.1/DTD/svg11.dtd">
<!-- Generated by graphviz version 2.38.0 (20140413.2041)
 -->
<!-- Title: softwarecontainer::ObservableWritableProperty&lt; Type &gt; Pages: 1 -->
<svg width="157pt" height="128pt"
 viewBox="0.00 0.00 157.00 128.00" xmlns="http://www.w3.org/2000/svg" xmlns:xlink="http://www.w3.org/1999/xlink">
<g id="graph0" class="graph" transform="scale(1 1) rotate(0) translate(4 124)">
<title>softwarecontainer::ObservableWritableProperty&lt; Type &gt;</title>
<polygon fill="white" stroke="none" points="-4,4 -4,-124 153,-124 153,4 -4,4"/>
<!-- Node1 -->
<g id="node1" class="node"><title>Node1</title>
<polygon fill="#bfbfbf" stroke="black" points="-1.42109e-14,-0.5 -1.42109e-14,-41.5 149,-41.5 149,-0.5 -1.42109e-14,-0.5"/>
<text text-anchor="start" x="8" y="-29.5" font-family="Helvetica,sans-Serif" font-size="10.00">softwarecontainer::</text>
<text text-anchor="start" x="8" y="-18.5" font-family="Helvetica,sans-Serif" font-size="10.00">ObservableWritableProperty</text>
<text text-anchor="middle" x="74.5" y="-7.5" font-family="Helvetica,sans-Serif" font-size="10.00">&lt; Type &gt;</text>
</g>
<!-- Node2 -->
<g id="node2" class="node"><title>Node2</title>
<g id="a_node2"><a xlink:href="classsoftwarecontainer_1_1_observable_property.html" target="_top" xlink:title="softwarecontainer::\lObservableProperty\&lt;\l Type \&gt;">
<polygon fill="white" stroke="black" points="15,-78.5 15,-119.5 134,-119.5 134,-78.5 15,-78.5"/>
<text text-anchor="start" x="23" y="-107.5" font-family="Helvetica,sans-Serif" font-size="10.00">softwarecontainer::</text>
<text text-anchor="start" x="23" y="-96.5" font-family="Helvetica,sans-Serif" font-size="10.00">ObservableProperty&lt;</text>
<text text-anchor="middle" x="74.5" y="-85.5" font-family="Helvetica,sans-Serif" font-size="10.00"> Type &gt;</text>
</a>
</g>
</g>
<!-- Node2&#45;&gt;Node1 -->
<g id="edge1" class="edge"><title>Node2&#45;&gt;Node1</title>
<path fill="none" stroke="midnightblue" d="M74.5,-68.2965C74.5,-59.3009 74.5,-49.6532 74.5,-41.5056"/>
<polygon fill="midnightblue" stroke="midnightblue" points="71.0001,-68.4281 74.5,-78.4281 78.0001,-68.4281 71.0001,-68.4281"/>
</g>
</g>
</svg>
