<?xml version="1.0" encoding="UTF-8" standalone="no"?>
<!DOCTYPE svg PUBLIC "-//W3C//DTD SVG 1.1//EN"
 "http://www.w3.org/Graphics/SVG/1.1/DTD/svg11.dtd">
<!-- Generated by graphviz version 2.38.0 (20140413.2041)
 -->
<!-- Title: softwarecontainer::SoftwareContainer::setGatewayConfigs Pages: 1 -->
<svg width="567pt" height="50pt"
 viewBox="0.00 0.00 567.00 50.00" xmlns="http://www.w3.org/2000/svg" xmlns:xlink="http://www.w3.org/1999/xlink">
<g id="graph0" class="graph" transform="scale(1 1) rotate(0) translate(4 46)">
<title>softwarecontainer::SoftwareContainer::setGatewayConfigs</title>
<polygon fill="white" stroke="none" points="-4,4 -4,-46 563,-46 563,4 -4,4"/>
<!-- Node1 -->
<g id="node1" class="node"><title>Node1</title>
<polygon fill="#bfbfbf" stroke="black" points="0,-0.5 0,-41.5 167,-41.5 167,-0.5 0,-0.5"/>
<text text-anchor="start" x="8" y="-29.5" font-family="Helvetica,sans-Serif" font-size="10.00">softwarecontainer::</text>
<text text-anchor="start" x="8" y="-18.5" font-family="Helvetica,sans-Serif" font-size="10.00">SoftwareContainer::setGateway</text>
<text text-anchor="middle" x="83.5" y="-7.5" font-family="Helvetica,sans-Serif" font-size="10.00">Configs</text>
</g>
<!-- Node2 -->
<g id="node2" class="node"><title>Node2</title>
<g id="a_node2"><a xlink:href="classsoftwarecontainer_1_1_software_container.html#a7db71d975b5bbfebe48e50769cf726b9" target="_top" xlink:title="Continues the &#39;launch&#39; phase by allowing gateway configurations to be set. ">
<polygon fill="white" stroke="black" points="203,-0.5 203,-41.5 389,-41.5 389,-0.5 203,-0.5"/>
<text text-anchor="start" x="211" y="-29.5" font-family="Helvetica,sans-Serif" font-size="10.00">softwarecontainer::</text>
<text text-anchor="start" x="211" y="-18.5" font-family="Helvetica,sans-Serif" font-size="10.00">SoftwareContainer::updateGateway</text>
<text text-anchor="middle" x="296" y="-7.5" font-family="Helvetica,sans-Serif" font-size="10.00">Configuration</text>
</a>
</g>
</g>
<!-- Node1&#45;&gt;Node2 -->
<g id="edge1" class="edge"><title>Node1&#45;&gt;Node2</title>
<path fill="none" stroke="midnightblue" d="M177.363,-21C185.841,-21 194.428,-21 202.899,-21"/>
<polygon fill="midnightblue" stroke="midnightblue" points="177.091,-17.5001 167.091,-21 177.091,-24.5001 177.091,-17.5001"/>
</g>
<!-- Node3 -->
<g id="node3" class="node"><title>Node3</title>
<g id="a_node3"><a xlink:href="classsoftwarecontainer_1_1_software_container_agent.html#ae19799cb9be607a08a674179713adcf8" target="_top" xlink:title="Set configuration for the container gateways. ">
<polygon fill="white" stroke="black" points="425,-0.5 425,-41.5 559,-41.5 559,-0.5 425,-0.5"/>
<text text-anchor="start" x="433" y="-29.5" font-family="Helvetica,sans-Serif" font-size="10.00">softwarecontainer::</text>
<text text-anchor="start" x="433" y="-18.5" font-family="Helvetica,sans-Serif" font-size="10.00">SoftwareContainerAgent</text>
<text text-anchor="middle" x="492" y="-7.5" font-family="Helvetica,sans-Serif" font-size="10.00">::setGatewayConfigs</text>
</a>
</g>
</g>
<!-- Node2&#45;&gt;Node3 -->
<g id="edge2" class="edge"><title>Node2&#45;&gt;Node3</title>
<path fill="none" stroke="midnightblue" d="M399.324,-21C407.965,-21 416.549,-21 424.802,-21"/>
<polygon fill="midnightblue" stroke="midnightblue" points="399.171,-17.5001 389.171,-21 399.171,-24.5001 399.171,-17.5001"/>
</g>
</g>
</svg>
