<?xml version="1.0" encoding="UTF-8" standalone="no"?>
<!DOCTYPE svg PUBLIC "-//W3C//DTD SVG 1.1//EN"
 "http://www.w3.org/Graphics/SVG/1.1/DTD/svg11.dtd">
<!-- Generated by graphviz version 2.38.0 (20140413.2041)
 -->
<!-- Title: softwarecontainer::FileToolkitWithUndo::createDirectory Pages: 1 -->
<svg width="455pt" height="187pt"
 viewBox="0.00 0.00 455.00 186.50" xmlns="http://www.w3.org/2000/svg" xmlns:xlink="http://www.w3.org/1999/xlink">
<g id="graph0" class="graph" transform="scale(1 1) rotate(0) translate(4 182.5)">
<title>softwarecontainer::FileToolkitWithUndo::createDirectory</title>
<polygon fill="white" stroke="none" points="-4,4 -4,-182.5 451,-182.5 451,4 -4,4"/>
<!-- Node1 -->
<g id="node1" class="node"><title>Node1</title>
<polygon fill="#bfbfbf" stroke="black" points="0,-71.5 0,-112.5 105,-112.5 105,-71.5 0,-71.5"/>
<text text-anchor="start" x="8" y="-100.5" font-family="Helvetica,sans-Serif" font-size="10.00">softwarecontainer::</text>
<text text-anchor="start" x="8" y="-89.5" font-family="Helvetica,sans-Serif" font-size="10.00">FileToolkitWithUndo</text>
<text text-anchor="middle" x="52.5" y="-78.5" font-family="Helvetica,sans-Serif" font-size="10.00">::createDirectory</text>
</g>
<!-- Node2 -->
<g id="node2" class="node"><title>Node2</title>
<g id="a_node2"><a xlink:href="class_container.html#aba9a50a9d2cd38f04d384e00ab489998" target="_top" xlink:title="Tries to bind mount a directory in the container. ">
<polygon fill="white" stroke="black" points="146.5,-148 146.5,-178 283.5,-178 283.5,-148 146.5,-148"/>
<text text-anchor="start" x="154.5" y="-166" font-family="Helvetica,sans-Serif" font-size="10.00">Container::bindMountFolder</text>
<text text-anchor="middle" x="215" y="-155" font-family="Helvetica,sans-Serif" font-size="10.00">InContainer</text>
</a>
</g>
</g>
<!-- Node1&#45;&gt;Node2 -->
<g id="edge1" class="edge"><title>Node1&#45;&gt;Node2</title>
<path fill="none" stroke="midnightblue" d="M97.3266,-117.482C111.062,-124.937 126.441,-132.754 141,-139 148.356,-142.156 156.274,-145.151 164.086,-147.887"/>
<polygon fill="midnightblue" stroke="midnightblue" points="99.011,-114.414 88.5632,-112.655 95.6339,-120.546 99.011,-114.414"/>
</g>
<!-- Node3 -->
<g id="node3" class="node"><title>Node3</title>
<g id="a_node3"><a xlink:href="classsoftwarecontainer_1_1_workspace.html#a3478c4690122b5057dd98df517e629ba" target="_top" xlink:title="Check if the workspace is present and create it if needed. ">
<polygon fill="white" stroke="black" points="141,-99 141,-129 289,-129 289,-99 141,-99"/>
<text text-anchor="start" x="149" y="-117" font-family="Helvetica,sans-Serif" font-size="10.00">softwarecontainer::</text>
<text text-anchor="middle" x="215" y="-106" font-family="Helvetica,sans-Serif" font-size="10.00">Workspace::checkWorkspace</text>
</a>
</g>
</g>
<!-- Node1&#45;&gt;Node3 -->
<g id="edge2" class="edge"><title>Node1&#45;&gt;Node3</title>
<path fill="none" stroke="midnightblue" d="M115.215,-100.459C123.59,-101.607 132.25,-102.794 140.802,-103.967"/>
<polygon fill="midnightblue" stroke="midnightblue" points="115.549,-96.9726 105.167,-99.082 114.599,-103.908 115.549,-96.9726"/>
</g>
<!-- Node5 -->
<g id="node5" class="node"><title>Node5</title>
<g id="a_node5"><a xlink:href="class_container.html#a0665ab6bbf3018c8cf478d3a0ee7f956" target="_top" xlink:title="Setup the container for preloading. ">
<polygon fill="white" stroke="black" points="165,-60.5 165,-79.5 265,-79.5 265,-60.5 165,-60.5"/>
<text text-anchor="middle" x="215" y="-67.5" font-family="Helvetica,sans-Serif" font-size="10.00">Container::initialize</text>
</a>
</g>
</g>
<!-- Node1&#45;&gt;Node5 -->
<g id="edge4" class="edge"><title>Node1&#45;&gt;Node5</title>
<path fill="none" stroke="midnightblue" d="M115.237,-83.5376C131.681,-81.2836 149.222,-78.8792 164.889,-76.7317"/>
<polygon fill="midnightblue" stroke="midnightblue" points="114.599,-80.0923 105.167,-84.918 115.549,-87.0274 114.599,-80.0923"/>
</g>
<!-- Node6 -->
<g id="node6" class="node"><title>Node6</title>
<g id="a_node6"><a xlink:href="classsoftwarecontainer_1_1_file_toolkit_with_undo.html#ab46eccba563b861f100d9ce7fa9ca4d6" target="_top" xlink:title="overlayMount Mount a directory with an overlay on top of it. ">
<polygon fill="white" stroke="black" points="162.5,-0.5 162.5,-41.5 267.5,-41.5 267.5,-0.5 162.5,-0.5"/>
<text text-anchor="start" x="170.5" y="-29.5" font-family="Helvetica,sans-Serif" font-size="10.00">softwarecontainer::</text>
<text text-anchor="start" x="170.5" y="-18.5" font-family="Helvetica,sans-Serif" font-size="10.00">FileToolkitWithUndo</text>
<text text-anchor="middle" x="215" y="-7.5" font-family="Helvetica,sans-Serif" font-size="10.00">::overlayMount</text>
</a>
</g>
</g>
<!-- Node1&#45;&gt;Node6 -->
<g id="edge5" class="edge"><title>Node1&#45;&gt;Node6</title>
<path fill="none" stroke="midnightblue" d="M105.614,-67.0782C117.214,-61.6712 129.487,-56.0594 141,-51 148.15,-47.8578 155.735,-44.6275 163.207,-41.5043"/>
<polygon fill="midnightblue" stroke="midnightblue" points="104.052,-63.9445 96.4816,-71.3561 107.022,-70.2834 104.052,-63.9445"/>
</g>
<!-- Node4 -->
<g id="node4" class="node"><title>Node4</title>
<g id="a_node4"><a xlink:href="classsoftwarecontainer_1_1_workspace.html#a94db01244419924778d7578332415a97" target="_top" xlink:title="Creates a workspace. ">
<polygon fill="white" stroke="black" points="325,-99 325,-129 447,-129 447,-99 325,-99"/>
<text text-anchor="start" x="333" y="-117" font-family="Helvetica,sans-Serif" font-size="10.00">softwarecontainer::</text>
<text text-anchor="middle" x="386" y="-106" font-family="Helvetica,sans-Serif" font-size="10.00">Workspace::Workspace</text>
</a>
</g>
</g>
<!-- Node3&#45;&gt;Node4 -->
<g id="edge3" class="edge"><title>Node3&#45;&gt;Node4</title>
<path fill="none" stroke="midnightblue" d="M299.28,-114C307.941,-114 316.619,-114 324.95,-114"/>
<polygon fill="midnightblue" stroke="midnightblue" points="299.143,-110.5 289.143,-114 299.143,-117.5 299.143,-110.5"/>
</g>
<!-- Node7 -->
<g id="node7" class="node"><title>Node7</title>
<g id="a_node7"><a xlink:href="class_container.html#a32b1856163054cc997f19aae33babb6a" target="_top" xlink:title="create Creates a new lxc_container and creates it with all the initialization. ">
<polygon fill="white" stroke="black" points="340,-11.5 340,-30.5 432,-30.5 432,-11.5 340,-11.5"/>
<text text-anchor="middle" x="386" y="-18.5" font-family="Helvetica,sans-Serif" font-size="10.00">Container::create</text>
</a>
</g>
</g>
<!-- Node6&#45;&gt;Node7 -->
<g id="edge6" class="edge"><title>Node6&#45;&gt;Node7</title>
<path fill="none" stroke="midnightblue" d="M277.858,-21C298.429,-21 320.932,-21 339.982,-21"/>
<polygon fill="midnightblue" stroke="midnightblue" points="277.624,-17.5001 267.624,-21 277.624,-24.5001 277.624,-17.5001"/>
</g>
</g>
</svg>
