<?xml version="1.0" encoding="UTF-8" standalone="no"?>
<!DOCTYPE svg PUBLIC "-//W3C//DTD SVG 1.1//EN"
 "http://www.w3.org/Graphics/SVG/1.1/DTD/svg11.dtd">
<!-- Generated by graphviz version 2.38.0 (20140413.2041)
 -->
<!-- Title: softwarecontainer::FileToolkitWithUndo::createParentDirectory Pages: 1 -->
<svg width="579pt" height="187pt"
 viewBox="0.00 0.00 579.00 186.50" xmlns="http://www.w3.org/2000/svg" xmlns:xlink="http://www.w3.org/1999/xlink">
<g id="graph0" class="graph" transform="scale(1 1) rotate(0) translate(4 182.5)">
<title>softwarecontainer::FileToolkitWithUndo::createParentDirectory</title>
<polygon fill="white" stroke="none" points="-4,4 -4,-182.5 575,-182.5 575,4 -4,4"/>
<!-- Node1 -->
<g id="node1" class="node"><title>Node1</title>
<polygon fill="#bfbfbf" stroke="black" points="0,-66 0,-107 118,-107 118,-66 0,-66"/>
<text text-anchor="start" x="8" y="-95" font-family="Helvetica,sans-Serif" font-size="10.00">softwarecontainer::</text>
<text text-anchor="start" x="8" y="-84" font-family="Helvetica,sans-Serif" font-size="10.00">FileToolkitWithUndo</text>
<text text-anchor="middle" x="59" y="-73" font-family="Helvetica,sans-Serif" font-size="10.00">::createParentDirectory</text>
</g>
<!-- Node2 -->
<g id="node2" class="node"><title>Node2</title>
<g id="a_node2"><a xlink:href="classsoftwarecontainer_1_1_file_toolkit_with_undo.html#aff5073fb683649d6753baae354d202b9" target="_top" xlink:title="createDirectory Create a directory, and if successful append it to a list of dirs to be deleted in th...">
<polygon fill="white" stroke="black" points="154,-66 154,-107 259,-107 259,-66 154,-66"/>
<text text-anchor="start" x="162" y="-95" font-family="Helvetica,sans-Serif" font-size="10.00">softwarecontainer::</text>
<text text-anchor="start" x="162" y="-84" font-family="Helvetica,sans-Serif" font-size="10.00">FileToolkitWithUndo</text>
<text text-anchor="middle" x="206.5" y="-73" font-family="Helvetica,sans-Serif" font-size="10.00">::createDirectory</text>
</a>
</g>
</g>
<!-- Node1&#45;&gt;Node2 -->
<g id="edge1" class="edge"><title>Node1&#45;&gt;Node2</title>
<path fill="none" stroke="midnightblue" d="M128.588,-79.7598C137.044,-79.7199 145.575,-79.8018 153.722,-80.0057"/>
<polygon fill="midnightblue" stroke="midnightblue" points="128.304,-76.2626 118.342,-79.8691 128.379,-83.2622 128.304,-76.2626"/>
</g>
<!-- Node2&#45;&gt;Node1 -->
<g id="edge2" class="edge"><title>Node2&#45;&gt;Node1</title>
<path fill="none" stroke="midnightblue" d="M143.625,-93.1825C135.241,-93.2873 126.661,-93.2701 118.342,-93.1309"/>
<polygon fill="midnightblue" stroke="midnightblue" points="143.789,-96.6802 153.722,-92.9943 143.658,-89.6814 143.789,-96.6802"/>
</g>
<!-- Node3 -->
<g id="node3" class="node"><title>Node3</title>
<g id="a_node3"><a xlink:href="classsoftwarecontainer_1_1_file_toolkit_with_undo.html#ab46eccba563b861f100d9ce7fa9ca4d6" target="_top" xlink:title="overlayMount Mount a directory with an overlay on top of it. ">
<polygon fill="white" stroke="black" points="316.5,-137 316.5,-178 421.5,-178 421.5,-137 316.5,-137"/>
<text text-anchor="start" x="324.5" y="-166" font-family="Helvetica,sans-Serif" font-size="10.00">softwarecontainer::</text>
<text text-anchor="start" x="324.5" y="-155" font-family="Helvetica,sans-Serif" font-size="10.00">FileToolkitWithUndo</text>
<text text-anchor="middle" x="369" y="-144" font-family="Helvetica,sans-Serif" font-size="10.00">::overlayMount</text>
</a>
</g>
</g>
<!-- Node2&#45;&gt;Node3 -->
<g id="edge3" class="edge"><title>Node2&#45;&gt;Node3</title>
<path fill="none" stroke="midnightblue" d="M259.614,-111.422C271.214,-116.829 283.487,-122.441 295,-127.5 302.15,-130.642 309.735,-133.872 317.207,-136.996"/>
<polygon fill="midnightblue" stroke="midnightblue" points="261.022,-108.217 250.482,-107.144 258.052,-114.556 261.022,-108.217"/>
</g>
<!-- Node5 -->
<g id="node5" class="node"><title>Node5</title>
<g id="a_node5"><a xlink:href="class_container.html#a0665ab6bbf3018c8cf478d3a0ee7f956" target="_top" xlink:title="Setup the container for preloading. ">
<polygon fill="white" stroke="black" points="319,-99 319,-118 419,-118 419,-99 319,-99"/>
<text text-anchor="middle" x="369" y="-106" font-family="Helvetica,sans-Serif" font-size="10.00">Container::initialize</text>
</a>
</g>
</g>
<!-- Node2&#45;&gt;Node5 -->
<g id="edge5" class="edge"><title>Node2&#45;&gt;Node5</title>
<path fill="none" stroke="midnightblue" d="M269.237,-94.9624C285.681,-97.2164 303.222,-99.6208 318.889,-101.768"/>
<polygon fill="midnightblue" stroke="midnightblue" points="269.549,-91.4726 259.167,-93.582 268.599,-98.4077 269.549,-91.4726"/>
</g>
<!-- Node6 -->
<g id="node6" class="node"><title>Node6</title>
<g id="a_node6"><a xlink:href="class_container.html#aba9a50a9d2cd38f04d384e00ab489998" target="_top" xlink:title="Tries to bind mount a directory in the container. ">
<polygon fill="white" stroke="black" points="300.5,-49.5 300.5,-79.5 437.5,-79.5 437.5,-49.5 300.5,-49.5"/>
<text text-anchor="start" x="308.5" y="-67.5" font-family="Helvetica,sans-Serif" font-size="10.00">Container::bindMountFolder</text>
<text text-anchor="middle" x="369" y="-56.5" font-family="Helvetica,sans-Serif" font-size="10.00">InContainer</text>
</a>
</g>
</g>
<!-- Node2&#45;&gt;Node6 -->
<g id="edge6" class="edge"><title>Node2&#45;&gt;Node6</title>
<path fill="none" stroke="midnightblue" d="M269.188,-78.0443C279.377,-76.6478 289.987,-75.1933 300.313,-73.7779"/>
<polygon fill="midnightblue" stroke="midnightblue" points="268.599,-74.5923 259.167,-79.418 269.549,-81.5274 268.599,-74.5923"/>
</g>
<!-- Node7 -->
<g id="node7" class="node"><title>Node7</title>
<g id="a_node7"><a xlink:href="classsoftwarecontainer_1_1_workspace.html#a3478c4690122b5057dd98df517e629ba" target="_top" xlink:title="Check if the workspace is present and create it if needed. ">
<polygon fill="white" stroke="black" points="295,-0.5 295,-30.5 443,-30.5 443,-0.5 295,-0.5"/>
<text text-anchor="start" x="303" y="-18.5" font-family="Helvetica,sans-Serif" font-size="10.00">softwarecontainer::</text>
<text text-anchor="middle" x="369" y="-7.5" font-family="Helvetica,sans-Serif" font-size="10.00">Workspace::checkWorkspace</text>
</a>
</g>
</g>
<!-- Node2&#45;&gt;Node7 -->
<g id="edge7" class="edge"><title>Node2&#45;&gt;Node7</title>
<path fill="none" stroke="midnightblue" d="M252.55,-61.122C265.999,-54.0105 280.914,-46.5716 295,-40.5 303.119,-37.0002 311.904,-33.6433 320.472,-30.5883"/>
<polygon fill="midnightblue" stroke="midnightblue" points="250.661,-58.1629 243.501,-65.9721 253.968,-64.3325 250.661,-58.1629"/>
</g>
<!-- Node4 -->
<g id="node4" class="node"><title>Node4</title>
<g id="a_node4"><a xlink:href="class_container.html#a32b1856163054cc997f19aae33babb6a" target="_top" xlink:title="create Creates a new lxc_container and creates it with all the initialization. ">
<polygon fill="white" stroke="black" points="479,-148 479,-167 571,-167 571,-148 479,-148"/>
<text text-anchor="middle" x="525" y="-155" font-family="Helvetica,sans-Serif" font-size="10.00">Container::create</text>
</a>
</g>
</g>
<!-- Node3&#45;&gt;Node4 -->
<g id="edge4" class="edge"><title>Node3&#45;&gt;Node4</title>
<path fill="none" stroke="midnightblue" d="M431.878,-157.5C447.589,-157.5 464.175,-157.5 478.878,-157.5"/>
<polygon fill="midnightblue" stroke="midnightblue" points="431.708,-154 421.708,-157.5 431.708,-161 431.708,-154"/>
</g>
</g>
</svg>
