<?xml version="1.0" encoding="UTF-8" standalone="no"?>
<!DOCTYPE svg PUBLIC "-//W3C//DTD SVG 1.1//EN"
 "http://www.w3.org/Graphics/SVG/1.1/DTD/svg11.dtd">
<!-- Generated by graphviz version 2.38.0 (20140413.2041)
 -->
<!-- Title: Netlink::checkKernelDump Pages: 1 -->
<svg width="309pt" height="104pt"
 viewBox="0.00 0.00 309.00 104.00" xmlns="http://www.w3.org/2000/svg" xmlns:xlink="http://www.w3.org/1999/xlink">
<g id="graph0" class="graph" transform="scale(1 1) rotate(0) translate(4 100)">
<title>Netlink::checkKernelDump</title>
<polygon fill="white" stroke="none" points="-4,4 -4,-100 305,-100 305,4 -4,4"/>
<!-- Node1 -->
<g id="node1" class="node"><title>Node1</title>
<polygon fill="#bfbfbf" stroke="black" points="0,-38.5 0,-57.5 142,-57.5 142,-38.5 0,-38.5"/>
<text text-anchor="middle" x="71" y="-45.5" font-family="Helvetica,sans-Serif" font-size="10.00">Netlink::checkKernelDump</text>
</g>
<!-- Node2 -->
<g id="node2" class="node"><title>Node2</title>
<g id="a_node2"><a xlink:href="class_netlink.html#ad4bf08fab49ab14314e4925ecedd8cb6" target="_top" xlink:title="Get all addresses associated with the given interface index. ">
<polygon fill="white" stroke="black" points="178,-76.5 178,-95.5 301,-95.5 301,-76.5 178,-76.5"/>
<text text-anchor="middle" x="239.5" y="-83.5" font-family="Helvetica,sans-Serif" font-size="10.00">Netlink::findAddresses</text>
</a>
</g>
</g>
<!-- Node1&#45;&gt;Node2 -->
<g id="edge1" class="edge"><title>Node1&#45;&gt;Node2</title>
<path fill="none" stroke="midnightblue" d="M123.809,-59.8243C147.283,-65.1816 174.665,-71.4311 196.787,-76.4799"/>
<polygon fill="midnightblue" stroke="midnightblue" points="124.543,-56.4019 114.015,-57.589 122.985,-63.2264 124.543,-56.4019"/>
</g>
<!-- Node3 -->
<g id="node3" class="node"><title>Node3</title>
<g id="a_node3"><a xlink:href="class_netlink.html#a2d30154efaa239d181651a953720f916" target="_top" xlink:title="Check that the device given is a network bridge. ">
<polygon fill="white" stroke="black" points="193.5,-38.5 193.5,-57.5 285.5,-57.5 285.5,-38.5 193.5,-38.5"/>
<text text-anchor="middle" x="239.5" y="-45.5" font-family="Helvetica,sans-Serif" font-size="10.00">Netlink::findLink</text>
</a>
</g>
</g>
<!-- Node1&#45;&gt;Node3 -->
<g id="edge2" class="edge"><title>Node1&#45;&gt;Node3</title>
<path fill="none" stroke="midnightblue" d="M152.296,-48C166.318,-48 180.453,-48 193.105,-48"/>
<polygon fill="midnightblue" stroke="midnightblue" points="152.128,-44.5001 142.128,-48 152.128,-51.5001 152.128,-44.5001"/>
</g>
<!-- Node4 -->
<g id="node4" class="node"><title>Node4</title>
<g id="a_node4"><a xlink:href="class_netlink.html#a543fb0107278eb2bf932cfa52a615f7a" target="_top" xlink:title="Bring the given interface up. ">
<polygon fill="white" stroke="black" points="197,-0.5 197,-19.5 282,-19.5 282,-0.5 197,-0.5"/>
<text text-anchor="middle" x="239.5" y="-7.5" font-family="Helvetica,sans-Serif" font-size="10.00">Netlink::linkUp</text>
</a>
</g>
</g>
<!-- Node1&#45;&gt;Node4 -->
<g id="edge3" class="edge"><title>Node1&#45;&gt;Node4</title>
<path fill="none" stroke="midnightblue" d="M123.809,-36.1757C147.283,-30.8184 174.665,-24.5689 196.787,-19.5201"/>
<polygon fill="midnightblue" stroke="midnightblue" points="122.985,-32.7736 114.015,-38.411 124.543,-39.5981 122.985,-32.7736"/>
</g>
</g>
</svg>
