<?xml version="1.0" encoding="UTF-8" standalone="no"?>
<!DOCTYPE svg PUBLIC "-//W3C//DTD SVG 1.1//EN"
 "http://www.w3.org/Graphics/SVG/1.1/DTD/svg11.dtd">
<!-- Generated by graphviz version 2.38.0 (20140413.2041)
 -->
<!-- Title: softwarecontainer::FileToolkitWithUndo::createDirectory Pages: 1 -->
<svg width="775pt" height="220pt"
 viewBox="0.00 0.00 775.00 220.42" xmlns="http://www.w3.org/2000/svg" xmlns:xlink="http://www.w3.org/1999/xlink">
<g id="graph0" class="graph" transform="scale(1 1) rotate(0) translate(4 216.42)">
<title>softwarecontainer::FileToolkitWithUndo::createDirectory</title>
<polygon fill="white" stroke="none" points="-4,4 -4,-216.42 771,-216.42 771,4 -4,4"/>
<!-- Node1 -->
<g id="node1" class="node"><title>Node1</title>
<polygon fill="#bfbfbf" stroke="black" points="0,-84.5 0,-125.5 105,-125.5 105,-84.5 0,-84.5"/>
<text text-anchor="start" x="8" y="-113.5" font-family="Helvetica,sans-Serif" font-size="10.00">softwarecontainer::</text>
<text text-anchor="start" x="8" y="-102.5" font-family="Helvetica,sans-Serif" font-size="10.00">FileToolkitWithUndo</text>
<text text-anchor="middle" x="52.5" y="-91.5" font-family="Helvetica,sans-Serif" font-size="10.00">::createDirectory</text>
</g>
<!-- Node2 -->
<g id="node2" class="node"><title>Node2</title>
<g id="a_node2"><a xlink:href="classsoftwarecontainer_1_1_container.html#ae5445d6a0c4b8b006ed38b3c01bb870c" target="_top" xlink:title="Tries to bind mount a path from host to container. ">
<polygon fill="white" stroke="black" points="607,-66 607,-96 767,-96 767,-66 607,-66"/>
<text text-anchor="start" x="615" y="-84" font-family="Helvetica,sans-Serif" font-size="10.00">softwarecontainer::</text>
<text text-anchor="middle" x="687" y="-73" font-family="Helvetica,sans-Serif" font-size="10.00">Container::bindMountInContainer</text>
</a>
</g>
</g>
<!-- Node1&#45;&gt;Node2 -->
<g id="edge1" class="edge"><title>Node1&#45;&gt;Node2</title>
<path fill="none" stroke="midnightblue" d="M71.1028,-134.301C86.4166,-156.695 110.862,-185.88 141,-199 201.31,-225.256 223.419,-204.085 289,-199 415.47,-189.193 452.429,-200.075 571,-155 608.283,-140.827 646.158,-113.387 667.792,-96.1966"/>
<polygon fill="midnightblue" stroke="midnightblue" points="73.9215,-132.218 65.4951,-125.795 68.0773,-136.071 73.9215,-132.218"/>
</g>
<!-- Node3 -->
<g id="node3" class="node"><title>Node3</title>
<g id="a_node3"><a xlink:href="classsoftwarecontainer_1_1_container.html#a25102e42007fb34a93d982b231ae6c78" target="_top" xlink:title="Setup the container for startup. ">
<polygon fill="white" stroke="black" points="165,-159 165,-189 265,-189 265,-159 165,-159"/>
<text text-anchor="start" x="173" y="-177" font-family="Helvetica,sans-Serif" font-size="10.00">softwarecontainer::</text>
<text text-anchor="middle" x="215" y="-166" font-family="Helvetica,sans-Serif" font-size="10.00">Container::initialize</text>
</a>
</g>
</g>
<!-- Node1&#45;&gt;Node3 -->
<g id="edge2" class="edge"><title>Node1&#45;&gt;Node3</title>
<path fill="none" stroke="midnightblue" d="M108.547,-129.83C119.285,-134.59 130.476,-139.493 141,-144 152.588,-148.962 165.275,-154.233 176.775,-158.948"/>
<polygon fill="midnightblue" stroke="midnightblue" points="109.814,-126.563 99.2549,-125.697 106.969,-132.959 109.814,-126.563"/>
</g>
<!-- Node4 -->
<g id="node4" class="node"><title>Node4</title>
<g id="a_node4"><a xlink:href="classsoftwarecontainer_1_1_file_toolkit_with_undo.html#a14711e649249d7f0b7e264c7d426ea23" target="_top" xlink:title="overlayMount Mount a directory with an overlay on top of it. ">
<polygon fill="white" stroke="black" points="325,-109.5 325,-150.5 430,-150.5 430,-109.5 325,-109.5"/>
<text text-anchor="start" x="333" y="-138.5" font-family="Helvetica,sans-Serif" font-size="10.00">softwarecontainer::</text>
<text text-anchor="start" x="333" y="-127.5" font-family="Helvetica,sans-Serif" font-size="10.00">FileToolkitWithUndo</text>
<text text-anchor="middle" x="377.5" y="-116.5" font-family="Helvetica,sans-Serif" font-size="10.00">::overlayMount</text>
</a>
</g>
</g>
<!-- Node1&#45;&gt;Node4 -->
<g id="edge3" class="edge"><title>Node1&#45;&gt;Node4</title>
<path fill="none" stroke="midnightblue" d="M115.265,-109.781C176.064,-114.486 267.852,-121.591 324.879,-126.005"/>
<polygon fill="midnightblue" stroke="midnightblue" points="115.278,-106.271 105.037,-108.989 114.738,-113.25 115.278,-106.271"/>
</g>
<!-- Node6 -->
<g id="node6" class="node"><title>Node6</title>
<g id="a_node6"><a xlink:href="classsoftwarecontainer_1_1_file_toolkit_with_undo.html#a44a19890b72a635b3134cb2a07fc0875" target="_top" xlink:title="checks whether given path is already added to clean up handlers or not ">
<polygon fill="white" stroke="black" points="162.5,-60.5 162.5,-101.5 267.5,-101.5 267.5,-60.5 162.5,-60.5"/>
<text text-anchor="start" x="170.5" y="-89.5" font-family="Helvetica,sans-Serif" font-size="10.00">softwarecontainer::</text>
<text text-anchor="start" x="170.5" y="-78.5" font-family="Helvetica,sans-Serif" font-size="10.00">FileToolkitWithUndo</text>
<text text-anchor="middle" x="215" y="-67.5" font-family="Helvetica,sans-Serif" font-size="10.00">::pathInList</text>
</a>
</g>
</g>
<!-- Node1&#45;&gt;Node6 -->
<g id="edge5" class="edge"><title>Node1&#45;&gt;Node6</title>
<path fill="none" stroke="midnightblue" d="M115.242,-89.1798C130.829,-86.5713 147.402,-84.1719 162.43,-82.3601"/>
<polygon fill="midnightblue" stroke="midnightblue" points="114.425,-85.7689 105.167,-90.9201 115.617,-92.6668 114.425,-85.7689"/>
</g>
<!-- Node9 -->
<g id="node9" class="node"><title>Node9</title>
<g id="a_node9"><a xlink:href="classsoftwarecontainer_1_1_software_container.html#aa699253aa7955f9d41c78324d5f49184" target="_top" xlink:title="Indicates if gateways have been configured previously. ">
<polygon fill="white" stroke="black" points="141,-0.5 141,-41.5 289,-41.5 289,-0.5 141,-0.5"/>
<text text-anchor="start" x="149" y="-29.5" font-family="Helvetica,sans-Serif" font-size="10.00">softwarecontainer::</text>
<text text-anchor="start" x="149" y="-18.5" font-family="Helvetica,sans-Serif" font-size="10.00">SoftwareContainer::previously</text>
<text text-anchor="middle" x="215" y="-7.5" font-family="Helvetica,sans-Serif" font-size="10.00">Configured</text>
</a>
</g>
</g>
<!-- Node1&#45;&gt;Node9 -->
<g id="edge12" class="edge"><title>Node1&#45;&gt;Node9</title>
<path fill="none" stroke="midnightblue" d="M92.429,-79.0892C107.316,-69.6866 124.648,-59.3357 141,-51 147.348,-47.7641 154.129,-44.605 160.905,-41.625"/>
<polygon fill="midnightblue" stroke="midnightblue" points="90.5141,-76.1592 83.9723,-84.4933 94.2834,-82.0577 90.5141,-76.1592"/>
</g>
<!-- Node5 -->
<g id="node5" class="node"><title>Node5</title>
<g id="a_node5"><a xlink:href="classsoftwarecontainer_1_1_container.html#a67f48ee29e9294f4f42436e1297d34c7" target="_top" xlink:title="create Creates a new lxc_container and creates it with all the initialization. ">
<polygon fill="white" stroke="black" points="468.5,-115 468.5,-145 568.5,-145 568.5,-115 468.5,-115"/>
<text text-anchor="start" x="476.5" y="-133" font-family="Helvetica,sans-Serif" font-size="10.00">softwarecontainer::</text>
<text text-anchor="middle" x="518.5" y="-122" font-family="Helvetica,sans-Serif" font-size="10.00">Container::create</text>
</a>
</g>
</g>
<!-- Node4&#45;&gt;Node5 -->
<g id="edge4" class="edge"><title>Node4&#45;&gt;Node5</title>
<path fill="none" stroke="midnightblue" d="M440.363,-130C449.775,-130 459.375,-130 468.463,-130"/>
<polygon fill="midnightblue" stroke="midnightblue" points="440.259,-126.5 430.258,-130 440.258,-133.5 440.259,-126.5"/>
</g>
<!-- Node6&#45;&gt;Node1 -->
<g id="edge7" class="edge"><title>Node6&#45;&gt;Node1</title>
<path fill="none" stroke="midnightblue" d="M152.359,-96.8034C136.775,-99.4128 120.201,-101.814 105.167,-103.628"/>
<polygon fill="midnightblue" stroke="midnightblue" points="153.172,-100.215 162.43,-95.0627 151.98,-93.3171 153.172,-100.215"/>
</g>
<!-- Node6&#45;&gt;Node2 -->
<g id="edge6" class="edge"><title>Node6&#45;&gt;Node2</title>
<path fill="none" stroke="midnightblue" d="M277.865,-81C362.436,-81 514.197,-81 606.927,-81"/>
<polygon fill="midnightblue" stroke="midnightblue" points="277.643,-77.5001 267.643,-81 277.643,-84.5001 277.643,-77.5001"/>
</g>
<!-- Node6&#45;&gt;Node4 -->
<g id="edge8" class="edge"><title>Node6&#45;&gt;Node4</title>
<path fill="none" stroke="midnightblue" d="M277.296,-99.7136C293.013,-104.512 309.759,-109.624 324.93,-114.256"/>
<polygon fill="midnightblue" stroke="midnightblue" points="278.253,-96.3461 267.667,-96.7736 276.209,-103.041 278.253,-96.3461"/>
</g>
<!-- Node7 -->
<g id="node7" class="node"><title>Node7</title>
<g id="a_node7"><a xlink:href="classsoftwarecontainer_1_1_file_toolkit_with_undo.html#a649391903bf1a0eec92c829713117a74" target="_top" xlink:title="tempDir Creates a temporary directory at templatePath. ">
<polygon fill="white" stroke="black" points="325,-11.5 325,-52.5 430,-52.5 430,-11.5 325,-11.5"/>
<text text-anchor="start" x="333" y="-40.5" font-family="Helvetica,sans-Serif" font-size="10.00">softwarecontainer::</text>
<text text-anchor="start" x="333" y="-29.5" font-family="Helvetica,sans-Serif" font-size="10.00">FileToolkitWithUndo</text>
<text text-anchor="middle" x="377.5" y="-18.5" font-family="Helvetica,sans-Serif" font-size="10.00">::tempDir</text>
</a>
</g>
</g>
<!-- Node6&#45;&gt;Node7 -->
<g id="edge9" class="edge"><title>Node6&#45;&gt;Node7</title>
<path fill="none" stroke="midnightblue" d="M277.296,-62.2864C293.013,-57.4881 309.759,-52.3757 324.93,-47.7441"/>
<polygon fill="midnightblue" stroke="midnightblue" points="276.209,-58.9589 267.667,-65.2264 278.253,-65.6539 276.209,-58.9589"/>
</g>
<!-- Node8 -->
<g id="node8" class="node"><title>Node8</title>
<g id="a_node8"><a xlink:href="classsoftwarecontainer_1_1_file_toolkit_with_undo.html#a8f6b5cda214c9e412ab73313bc95d785" target="_top" xlink:title="bindMount Bind mount a src directory to another position dst. ">
<polygon fill="white" stroke="black" points="466,-11.5 466,-52.5 571,-52.5 571,-11.5 466,-11.5"/>
<text text-anchor="start" x="474" y="-40.5" font-family="Helvetica,sans-Serif" font-size="10.00">softwarecontainer::</text>
<text text-anchor="start" x="474" y="-29.5" font-family="Helvetica,sans-Serif" font-size="10.00">FileToolkitWithUndo</text>
<text text-anchor="middle" x="518.5" y="-18.5" font-family="Helvetica,sans-Serif" font-size="10.00">::bindMount</text>
</a>
</g>
</g>
<!-- Node7&#45;&gt;Node8 -->
<g id="edge10" class="edge"><title>Node7&#45;&gt;Node8</title>
<path fill="none" stroke="midnightblue" d="M440.441,-32C448.878,-32 457.466,-32 465.698,-32"/>
<polygon fill="midnightblue" stroke="midnightblue" points="440.259,-28.5001 430.258,-32 440.258,-35.5001 440.259,-28.5001"/>
</g>
<!-- Node8&#45;&gt;Node2 -->
<g id="edge11" class="edge"><title>Node8&#45;&gt;Node2</title>
<path fill="none" stroke="midnightblue" d="M580.946,-50.0833C598.668,-55.2988 617.809,-60.9317 634.835,-65.9424"/>
<polygon fill="midnightblue" stroke="midnightblue" points="581.85,-46.701 571.269,-47.2353 579.874,-53.4162 581.85,-46.701"/>
</g>
</g>
</svg>
