<?xml version="1.0" encoding="UTF-8" standalone="no"?>
<!DOCTYPE svg PUBLIC "-//W3C//DTD SVG 1.1//EN"
 "http://www.w3.org/Graphics/SVG/1.1/DTD/svg11.dtd">
<!-- Generated by graphviz version 2.38.0 (20140413.2041)
 -->
<!-- Title: softwarecontainer::SoftwareContainer::SoftwareContainer Pages: 1 -->
<svg width="428pt" height="50pt"
 viewBox="0.00 0.00 428.00 50.00" xmlns="http://www.w3.org/2000/svg" xmlns:xlink="http://www.w3.org/1999/xlink">
<g id="graph0" class="graph" transform="scale(1 1) rotate(0) translate(4 46)">
<title>softwarecontainer::SoftwareContainer::SoftwareContainer</title>
<polygon fill="white" stroke="none" points="-4,4 -4,-46 424,-46 424,4 -4,4"/>
<!-- Node1 -->
<g id="node1" class="node"><title>Node1</title>
<polygon fill="#bfbfbf" stroke="black" points="0,-0.5 0,-41.5 143,-41.5 143,-0.5 0,-0.5"/>
<text text-anchor="start" x="8" y="-29.5" font-family="Helvetica,sans-Serif" font-size="10.00">softwarecontainer::</text>
<text text-anchor="start" x="8" y="-18.5" font-family="Helvetica,sans-Serif" font-size="10.00">SoftwareContainer::Software</text>
<text text-anchor="middle" x="71.5" y="-7.5" font-family="Helvetica,sans-Serif" font-size="10.00">Container</text>
</g>
<!-- Node2 -->
<g id="node2" class="node"><title>Node2</title>
<g id="a_node2"><a xlink:href="classsoftwarecontainer_1_1_file_toolkit_with_undo.html#a23627ceb25a3727f6288b2d1132c027c" target="_top" xlink:title="tmpfsMount Mount a tmpfs in the dst path and limit size of the tmpfs to maxSize ">
<polygon fill="white" stroke="black" points="179,-0.5 179,-41.5 284,-41.5 284,-0.5 179,-0.5"/>
<text text-anchor="start" x="187" y="-29.5" font-family="Helvetica,sans-Serif" font-size="10.00">softwarecontainer::</text>
<text text-anchor="start" x="187" y="-18.5" font-family="Helvetica,sans-Serif" font-size="10.00">FileToolkitWithUndo</text>
<text text-anchor="middle" x="231.5" y="-7.5" font-family="Helvetica,sans-Serif" font-size="10.00">::tmpfsMount</text>
</a>
</g>
</g>
<!-- Node1&#45;&gt;Node2 -->
<g id="edge1" class="edge"><title>Node1&#45;&gt;Node2</title>
<path fill="none" stroke="midnightblue" d="M143.182,-21C151.71,-21 160.369,-21 168.756,-21"/>
<polygon fill="midnightblue" stroke="midnightblue" points="168.823,-24.5001 178.823,-21 168.823,-17.5001 168.823,-24.5001"/>
</g>
<!-- Node3 -->
<g id="node3" class="node"><title>Node3</title>
<g id="a_node3"><a xlink:href="namespacesoftwarecontainer.html#acaa3372166baaae42d0d55577b99308e" target="_top" xlink:title="isDirectoryEmpty Check if path is empty ">
<polygon fill="white" stroke="black" points="320,-6 320,-36 420,-36 420,-6 320,-6"/>
<text text-anchor="start" x="328" y="-24" font-family="Helvetica,sans-Serif" font-size="10.00">softwarecontainer::</text>
<text text-anchor="middle" x="370" y="-13" font-family="Helvetica,sans-Serif" font-size="10.00">isDirectoryEmpty</text>
</a>
</g>
</g>
<!-- Node2&#45;&gt;Node3 -->
<g id="edge2" class="edge"><title>Node2&#45;&gt;Node3</title>
<path fill="none" stroke="midnightblue" d="M284.105,-21C292.371,-21 300.983,-21 309.416,-21"/>
<polygon fill="midnightblue" stroke="midnightblue" points="309.579,-24.5001 319.579,-21 309.579,-17.5001 309.579,-24.5001"/>
</g>
</g>
</svg>
