<?xml version="1.0" encoding="UTF-8" standalone="no"?>
<!DOCTYPE svg PUBLIC "-//W3C//DTD SVG 1.1//EN"
 "http://www.w3.org/Graphics/SVG/1.1/DTD/svg11.dtd">
<!-- Generated by graphviz version 2.38.0 (20140413.2041)
 -->
<!-- Title: RecursiveCopy::copy Pages: 1 -->
<svg width="309pt" height="99pt"
 viewBox="0.00 0.00 309.00 98.50" xmlns="http://www.w3.org/2000/svg" xmlns:xlink="http://www.w3.org/1999/xlink">
<g id="graph0" class="graph" transform="scale(1 1) rotate(0) translate(4 94.5)">
<title>RecursiveCopy::copy</title>
<polygon fill="white" stroke="none" points="-4,4 -4,-94.5 305,-94.5 305,4 -4,4"/>
<!-- Node1 -->
<g id="node1" class="node"><title>Node1</title>
<polygon fill="#bfbfbf" stroke="black" points="0,-38.5 0,-57.5 113,-57.5 113,-38.5 0,-38.5"/>
<text text-anchor="middle" x="56.5" y="-45.5" font-family="Helvetica,sans-Serif" font-size="10.00">RecursiveCopy::copy</text>
</g>
<!-- Node2 -->
<g id="node2" class="node"><title>Node2</title>
<g id="a_node2"><a xlink:href="class_overlay_sync_cleanup_handler.html#a65e86b29438617c079a6aadfe6a0ff5c" target="_top" xlink:title="clean Performs the cleanup handling. ">
<polygon fill="white" stroke="black" points="149,-60 149,-90 301,-90 301,-60 149,-60"/>
<text text-anchor="start" x="157" y="-78" font-family="Helvetica,sans-Serif" font-size="10.00">OverlaySyncCleanupHandler</text>
<text text-anchor="middle" x="225" y="-67" font-family="Helvetica,sans-Serif" font-size="10.00">::clean</text>
</a>
</g>
</g>
<!-- Node1&#45;&gt;Node2 -->
<g id="edge1" class="edge"><title>Node1&#45;&gt;Node2</title>
<path fill="none" stroke="midnightblue" d="M123.403,-58.687C131.718,-60.0353 140.274,-61.4228 148.719,-62.7923"/>
<polygon fill="midnightblue" stroke="midnightblue" points="123.837,-55.2116 113.405,-57.0657 122.716,-62.1214 123.837,-55.2116"/>
</g>
<!-- Node3 -->
<g id="node3" class="node"><title>Node3</title>
<g id="a_node3"><a xlink:href="classsoftwarecontainer_1_1_file_toolkit_with_undo.html#a011797b9d1387882a5b013d0c97ccbfd" target="_top" xlink:title="syncOverlayMount Copy the directory structure from upper layer to the lower layer ...">
<polygon fill="white" stroke="black" points="170,-0.5 170,-41.5 280,-41.5 280,-0.5 170,-0.5"/>
<text text-anchor="start" x="178" y="-29.5" font-family="Helvetica,sans-Serif" font-size="10.00">softwarecontainer::</text>
<text text-anchor="start" x="178" y="-18.5" font-family="Helvetica,sans-Serif" font-size="10.00">FileToolkitWithUndo</text>
<text text-anchor="middle" x="225" y="-7.5" font-family="Helvetica,sans-Serif" font-size="10.00">::syncOverlayMount</text>
</a>
</g>
</g>
<!-- Node1&#45;&gt;Node3 -->
<g id="edge2" class="edge"><title>Node1&#45;&gt;Node3</title>
<path fill="none" stroke="midnightblue" d="M123.401,-37.3133C138.831,-34.8113 155.092,-32.1743 169.936,-29.7671"/>
<polygon fill="midnightblue" stroke="midnightblue" points="122.716,-33.8786 113.405,-38.9343 123.837,-40.7884 122.716,-33.8786"/>
</g>
</g>
</svg>
