<?xml version="1.0" encoding="UTF-8" standalone="no"?>
<!DOCTYPE svg PUBLIC "-//W3C//DTD SVG 1.1//EN"
 "http://www.w3.org/Graphics/SVG/1.1/DTD/svg11.dtd">
<!-- Generated by graphviz version 2.38.0 (20140413.2041)
 -->
<!-- Title: softwarecontainer::RecursiveCopy::copy Pages: 1 -->
<svg width="298pt" height="110pt"
 viewBox="0.00 0.00 298.00 110.00" xmlns="http://www.w3.org/2000/svg" xmlns:xlink="http://www.w3.org/1999/xlink">
<g id="graph0" class="graph" transform="scale(1 1) rotate(0) translate(4 106)">
<title>softwarecontainer::RecursiveCopy::copy</title>
<polygon fill="white" stroke="none" points="-4,4 -4,-106 294,-106 294,4 -4,4"/>
<!-- Node1 -->
<g id="node1" class="node"><title>Node1</title>
<polygon fill="#bfbfbf" stroke="black" points="0,-36 0,-66 111,-66 111,-36 0,-36"/>
<text text-anchor="start" x="8" y="-54" font-family="Helvetica,sans-Serif" font-size="10.00">softwarecontainer::</text>
<text text-anchor="middle" x="55.5" y="-43" font-family="Helvetica,sans-Serif" font-size="10.00">RecursiveCopy::copy</text>
</g>
<!-- Node2 -->
<g id="node2" class="node"><title>Node2</title>
<g id="a_node2"><a xlink:href="classsoftwarecontainer_1_1_overlay_sync_cleanup_handler.html#a50bbd9b5ae0d2da6e14c79eb83ea1855" target="_top" xlink:title="clean Performs the cleanup handling. ">
<polygon fill="white" stroke="black" points="147,-60.5 147,-101.5 290,-101.5 290,-60.5 147,-60.5"/>
<text text-anchor="start" x="155" y="-89.5" font-family="Helvetica,sans-Serif" font-size="10.00">softwarecontainer::</text>
<text text-anchor="start" x="155" y="-78.5" font-family="Helvetica,sans-Serif" font-size="10.00">OverlaySyncCleanupHandler</text>
<text text-anchor="middle" x="218.5" y="-67.5" font-family="Helvetica,sans-Serif" font-size="10.00">::clean</text>
</a>
</g>
</g>
<!-- Node1&#45;&gt;Node2 -->
<g id="edge1" class="edge"><title>Node1&#45;&gt;Node2</title>
<path fill="none" stroke="midnightblue" d="M120.869,-62.9943C129.39,-64.5819 138.161,-66.2163 146.781,-67.8225"/>
<polygon fill="midnightblue" stroke="midnightblue" points="121.479,-59.5478 111.007,-61.1566 120.197,-66.4293 121.479,-59.5478"/>
</g>
<!-- Node3 -->
<g id="node3" class="node"><title>Node3</title>
<g id="a_node3"><a xlink:href="classsoftwarecontainer_1_1_file_toolkit_with_undo.html#a011797b9d1387882a5b013d0c97ccbfd" target="_top" xlink:title="syncOverlayMount Copy the directory structure from upper layer to the lower layer ...">
<polygon fill="white" stroke="black" points="166,-0.5 166,-41.5 271,-41.5 271,-0.5 166,-0.5"/>
<text text-anchor="start" x="174" y="-29.5" font-family="Helvetica,sans-Serif" font-size="10.00">softwarecontainer::</text>
<text text-anchor="start" x="174" y="-18.5" font-family="Helvetica,sans-Serif" font-size="10.00">FileToolkitWithUndo</text>
<text text-anchor="middle" x="218.5" y="-7.5" font-family="Helvetica,sans-Serif" font-size="10.00">::syncOverlayMount</text>
</a>
</g>
</g>
<!-- Node1&#45;&gt;Node3 -->
<g id="edge2" class="edge"><title>Node1&#45;&gt;Node3</title>
<path fill="none" stroke="midnightblue" d="M121.134,-38.9564C135.972,-36.1915 151.56,-33.287 165.769,-30.6392"/>
<polygon fill="midnightblue" stroke="midnightblue" points="120.197,-35.5707 111.007,-40.8434 121.479,-42.4522 120.197,-35.5707"/>
</g>
</g>
</svg>
