<?xml version="1.0" encoding="UTF-8" standalone="no"?>
<!DOCTYPE svg PUBLIC "-//W3C//DTD SVG 1.1//EN"
 "http://www.w3.org/Graphics/SVG/1.1/DTD/svg11.dtd">
<!-- Generated by graphviz version 2.38.0 (20140413.2041)
 -->
<!-- Title: Gateway::getContainer Pages: 1 -->
<svg width="550pt" height="134pt"
 viewBox="0.00 0.00 550.00 134.20" xmlns="http://www.w3.org/2000/svg" xmlns:xlink="http://www.w3.org/1999/xlink">
<g id="graph0" class="graph" transform="scale(1 1) rotate(0) translate(4 130.201)">
<title>Gateway::getContainer</title>
<polygon fill="white" stroke="none" points="-4,4 -4,-130.201 546,-130.201 546,4 -4,4"/>
<!-- Node1 -->
<g id="node1" class="node"><title>Node1</title>
<polygon fill="#bfbfbf" stroke="black" points="0,-60.5 0,-79.5 125,-79.5 125,-60.5 0,-60.5"/>
<text text-anchor="middle" x="62.5" y="-67.5" font-family="Helvetica,sans-Serif" font-size="10.00">Gateway::getContainer</text>
</g>
<!-- Node2 -->
<g id="node2" class="node"><title>Node2</title>
<g id="a_node2"><a xlink:href="class_pulse_gateway.html#a2ffb6fc3e0d690830fa4612111a60985" target="_top" xlink:title="Implements Gateway::activateGateway. ">
<polygon fill="white" stroke="black" points="374,-82.5 374,-101.5 542,-101.5 542,-82.5 374,-82.5"/>
<text text-anchor="middle" x="458" y="-89.5" font-family="Helvetica,sans-Serif" font-size="10.00">PulseGateway::activateGateway</text>
</a>
</g>
</g>
<!-- Node1&#45;&gt;Node2 -->
<g id="edge1" class="edge"><title>Node1&#45;&gt;Node2</title>
<path fill="none" stroke="midnightblue" d="M86.5135,-84.773C105.608,-96.1026 133.922,-110.814 161,-117 254.012,-138.248 367.173,-115.73 422.788,-101.606"/>
<polygon fill="midnightblue" stroke="midnightblue" points="88.2858,-81.7544 77.926,-79.5351 84.6407,-87.7305 88.2858,-81.7544"/>
</g>
<!-- Node3 -->
<g id="node3" class="node"><title>Node3</title>
<g id="a_node3"><a xlink:href="class_device_node_gateway.html#a626ac7de0fa9acc167d1b355cbb3d8ee" target="_top" xlink:title="Implements Gateway::activateGateway. ">
<polygon fill="white" stroke="black" points="189,-77 189,-107 310,-107 310,-77 189,-77"/>
<text text-anchor="start" x="197" y="-95" font-family="Helvetica,sans-Serif" font-size="10.00">DeviceNodeGateway::</text>
<text text-anchor="middle" x="249.5" y="-84" font-family="Helvetica,sans-Serif" font-size="10.00">activateGateway</text>
</a>
</g>
</g>
<!-- Node1&#45;&gt;Node3 -->
<g id="edge2" class="edge"><title>Node1&#45;&gt;Node3</title>
<path fill="none" stroke="midnightblue" d="M135.354,-78.5448C153.009,-80.6443 171.722,-82.8696 188.737,-84.8931"/>
<polygon fill="midnightblue" stroke="midnightblue" points="135.446,-75.0311 125.102,-77.3257 134.619,-81.9821 135.446,-75.0311"/>
</g>
<!-- Node4 -->
<g id="node4" class="node"><title>Node4</title>
<g id="a_node4"><a xlink:href="class_gateway.html#a77348e5ce86b82302764b10e3203b42c" target="_top" xlink:title="Execute the given command in the container. ">
<polygon fill="white" stroke="black" points="171.5,-38.5 171.5,-57.5 327.5,-57.5 327.5,-38.5 171.5,-38.5"/>
<text text-anchor="middle" x="249.5" y="-45.5" font-family="Helvetica,sans-Serif" font-size="10.00">Gateway::executeInContainer</text>
</a>
</g>
</g>
<!-- Node1&#45;&gt;Node4 -->
<g id="edge3" class="edge"><title>Node1&#45;&gt;Node4</title>
<path fill="none" stroke="midnightblue" d="M135.339,-61.457C147.15,-60.0524 159.435,-58.5915 171.368,-57.1724"/>
<polygon fill="midnightblue" stroke="midnightblue" points="134.619,-58.0179 125.102,-62.6743 135.446,-64.9689 134.619,-58.0179"/>
</g>
<!-- Node5 -->
<g id="node5" class="node"><title>Node5</title>
<g id="a_node5"><a xlink:href="class_gateway.html#a828b2dfa811c7fcce82d34b502e65112" target="_top" xlink:title="Set an environment variable in the associated container. ">
<polygon fill="white" stroke="black" points="161,-0.5 161,-19.5 338,-19.5 338,-0.5 161,-0.5"/>
<text text-anchor="middle" x="249.5" y="-7.5" font-family="Helvetica,sans-Serif" font-size="10.00">Gateway::setEnvironmentVariable</text>
</a>
</g>
</g>
<!-- Node1&#45;&gt;Node5 -->
<g id="edge4" class="edge"><title>Node1&#45;&gt;Node5</title>
<path fill="none" stroke="midnightblue" d="M92.3424,-56.2159C111.477,-47.4867 137.333,-36.4756 161,-29 172.414,-25.3948 184.878,-22.2395 196.727,-19.5895"/>
<polygon fill="midnightblue" stroke="midnightblue" points="90.8683,-53.0414 83.2622,-60.4169 93.8076,-59.3944 90.8683,-53.0414"/>
</g>
<!-- Node5&#45;&gt;Node2 -->
<g id="edge5" class="edge"><title>Node5&#45;&gt;Node2</title>
<path fill="none" stroke="midnightblue" d="M315.475,-22.0229C323.156,-24.0552 330.814,-26.3739 338,-29 377.521,-43.4425 420.297,-68.7215 442.213,-82.458"/>
<polygon fill="midnightblue" stroke="midnightblue" points="316.315,-18.6254 305.765,-19.6002 314.62,-25.4171 316.315,-18.6254"/>
</g>
<!-- Node6 -->
<g id="node6" class="node"><title>Node6</title>
<g id="a_node6"><a xlink:href="class_d_bus_gateway.html#ab974b6b05b985d64ba5609c64e8b13fb" target="_top" xlink:title="Implements Gateway::activateGateway. ">
<polygon fill="white" stroke="black" points="374,-0.5 374,-19.5 542,-19.5 542,-0.5 374,-0.5"/>
<text text-anchor="middle" x="458" y="-7.5" font-family="Helvetica,sans-Serif" font-size="10.00">DBusGateway::activateGateway</text>
</a>
</g>
</g>
<!-- Node5&#45;&gt;Node6 -->
<g id="edge6" class="edge"><title>Node5&#45;&gt;Node6</title>
<path fill="none" stroke="midnightblue" d="M348.144,-10C356.755,-10 365.418,-10 373.892,-10"/>
<polygon fill="midnightblue" stroke="midnightblue" points="348.075,-6.5001 338.075,-10 348.075,-13.5001 348.075,-6.5001"/>
</g>
</g>
</svg>
