<?xml version="1.0" encoding="UTF-8" standalone="no"?>
<!DOCTYPE svg PUBLIC "-//W3C//DTD SVG 1.1//EN"
 "http://www.w3.org/Graphics/SVG/1.1/DTD/svg11.dtd">
<!-- Generated by graphviz version 2.38.0 (20140413.2041)
 -->
<!-- Title: softwarecontainer::Gateway::getContainer Pages: 1 -->
<svg width="495pt" height="88pt"
 viewBox="0.00 0.00 495.00 88.00" xmlns="http://www.w3.org/2000/svg" xmlns:xlink="http://www.w3.org/1999/xlink">
<g id="graph0" class="graph" transform="scale(1 1) rotate(0) translate(4 84)">
<title>softwarecontainer::Gateway::getContainer</title>
<polygon fill="white" stroke="none" points="-4,4 -4,-84 491,-84 491,4 -4,4"/>
<!-- Node1 -->
<g id="node1" class="node"><title>Node1</title>
<polygon fill="#bfbfbf" stroke="black" points="0,-24.5 0,-54.5 117,-54.5 117,-24.5 0,-24.5"/>
<text text-anchor="start" x="8" y="-42.5" font-family="Helvetica,sans-Serif" font-size="10.00">softwarecontainer::</text>
<text text-anchor="middle" x="58.5" y="-31.5" font-family="Helvetica,sans-Serif" font-size="10.00">Gateway::getContainer</text>
</g>
<!-- Node2 -->
<g id="node2" class="node"><title>Node2</title>
<g id="a_node2"><a xlink:href="classsoftwarecontainer_1_1_gateway.html#a77348e5ce86b82302764b10e3203b42c" target="_top" xlink:title="Execute the given command in the container. ">
<polygon fill="white" stroke="black" points="162.5,-49.5 162.5,-79.5 308.5,-79.5 308.5,-49.5 162.5,-49.5"/>
<text text-anchor="start" x="170.5" y="-67.5" font-family="Helvetica,sans-Serif" font-size="10.00">softwarecontainer::</text>
<text text-anchor="middle" x="235.5" y="-56.5" font-family="Helvetica,sans-Serif" font-size="10.00">Gateway::executeInContainer</text>
</a>
</g>
</g>
<!-- Node1&#45;&gt;Node2 -->
<g id="edge1" class="edge"><title>Node1&#45;&gt;Node2</title>
<path fill="none" stroke="midnightblue" d="M127.265,-49.1808C138.786,-50.8266 150.789,-52.5412 162.416,-54.2023"/>
<polygon fill="midnightblue" stroke="midnightblue" points="127.681,-45.7047 117.287,-47.7552 126.691,-52.6343 127.681,-45.7047"/>
</g>
<!-- Node4 -->
<g id="node4" class="node"><title>Node4</title>
<g id="a_node4"><a xlink:href="classsoftwarecontainer_1_1_gateway.html#a828b2dfa811c7fcce82d34b502e65112" target="_top" xlink:title="Set an environment variable in the associated container. ">
<polygon fill="white" stroke="black" points="153,-0.5 153,-30.5 318,-30.5 318,-0.5 153,-0.5"/>
<text text-anchor="start" x="161" y="-18.5" font-family="Helvetica,sans-Serif" font-size="10.00">softwarecontainer::</text>
<text text-anchor="middle" x="235.5" y="-7.5" font-family="Helvetica,sans-Serif" font-size="10.00">Gateway::setEnvironmentVariable</text>
</a>
</g>
</g>
<!-- Node1&#45;&gt;Node4 -->
<g id="edge3" class="edge"><title>Node1&#45;&gt;Node4</title>
<path fill="none" stroke="midnightblue" d="M127.297,-30.2022C135.623,-29.0602 144.201,-27.8839 152.706,-26.7174"/>
<polygon fill="midnightblue" stroke="midnightblue" points="126.718,-26.7486 117.287,-31.575 127.669,-33.6837 126.718,-26.7486"/>
</g>
<!-- Node3 -->
<g id="node3" class="node"><title>Node3</title>
<g id="a_node3"><a xlink:href="class_network_gateway.html#ad19de4347291719074bde198fc61a94a" target="_top" xlink:title="Implements Gateway::activateGateway. ">
<polygon fill="white" stroke="black" points="354,-49.5 354,-79.5 487,-79.5 487,-49.5 354,-49.5"/>
<text text-anchor="start" x="362" y="-67.5" font-family="Helvetica,sans-Serif" font-size="10.00">NetworkGateway::activate</text>
<text text-anchor="middle" x="420.5" y="-56.5" font-family="Helvetica,sans-Serif" font-size="10.00">Gateway</text>
</a>
</g>
</g>
<!-- Node2&#45;&gt;Node3 -->
<g id="edge2" class="edge"><title>Node2&#45;&gt;Node3</title>
<path fill="none" stroke="midnightblue" d="M318.785,-64.5C330.497,-64.5 342.413,-64.5 353.754,-64.5"/>
<polygon fill="midnightblue" stroke="midnightblue" points="318.564,-61.0001 308.564,-64.5 318.564,-68.0001 318.564,-61.0001"/>
</g>
<!-- Node5 -->
<g id="node5" class="node"><title>Node5</title>
<g id="a_node5"><a xlink:href="class_d_bus_gateway_instance.html#af0c68c68bda6b051a4f3feecb5749be4" target="_top" xlink:title="Implements Gateway::activateGateway. ">
<polygon fill="white" stroke="black" points="361.5,-0.5 361.5,-30.5 479.5,-30.5 479.5,-0.5 361.5,-0.5"/>
<text text-anchor="start" x="369.5" y="-18.5" font-family="Helvetica,sans-Serif" font-size="10.00">DBusGatewayInstance</text>
<text text-anchor="middle" x="420.5" y="-7.5" font-family="Helvetica,sans-Serif" font-size="10.00">::activateGateway</text>
</a>
</g>
</g>
<!-- Node4&#45;&gt;Node5 -->
<g id="edge4" class="edge"><title>Node4&#45;&gt;Node5</title>
<path fill="none" stroke="midnightblue" d="M328.389,-15.5C339.612,-15.5 350.828,-15.5 361.36,-15.5"/>
<polygon fill="midnightblue" stroke="midnightblue" points="328.099,-12.0001 318.099,-15.5 328.099,-19.0001 328.099,-12.0001"/>
</g>
</g>
</svg>
