<?xml version="1.0" encoding="UTF-8" standalone="no"?>
<!DOCTYPE svg PUBLIC "-//W3C//DTD SVG 1.1//EN"
 "http://www.w3.org/Graphics/SVG/1.1/DTD/svg11.dtd">
<!-- Generated by graphviz version 2.38.0 (20140413.2041)
 -->
<!-- Title: Gateway::setEnvironmentVariable Pages: 1 -->
<svg width="389pt" height="66pt"
 viewBox="0.00 0.00 389.00 66.00" xmlns="http://www.w3.org/2000/svg" xmlns:xlink="http://www.w3.org/1999/xlink">
<g id="graph0" class="graph" transform="scale(1 1) rotate(0) translate(4 62)">
<title>Gateway::setEnvironmentVariable</title>
<polygon fill="white" stroke="none" points="-4,4 -4,-62 385,-62 385,4 -4,4"/>
<!-- Node1 -->
<g id="node1" class="node"><title>Node1</title>
<polygon fill="#bfbfbf" stroke="black" points="0,-19.5 0,-38.5 177,-38.5 177,-19.5 0,-19.5"/>
<text text-anchor="middle" x="88.5" y="-26.5" font-family="Helvetica,sans-Serif" font-size="10.00">Gateway::setEnvironmentVariable</text>
</g>
<!-- Node2 -->
<g id="node2" class="node"><title>Node2</title>
<g id="a_node2"><a xlink:href="class_pulse_gateway.html#a2ffb6fc3e0d690830fa4612111a60985" target="_top" xlink:title="Implements Gateway::activateGateway. ">
<polygon fill="white" stroke="black" points="213,-38.5 213,-57.5 381,-57.5 381,-38.5 213,-38.5"/>
<text text-anchor="middle" x="297" y="-45.5" font-family="Helvetica,sans-Serif" font-size="10.00">PulseGateway::activateGateway</text>
</a>
</g>
</g>
<!-- Node1&#45;&gt;Node2 -->
<g id="edge1" class="edge"><title>Node1&#45;&gt;Node2</title>
<path fill="none" stroke="midnightblue" d="M187.144,-37.9842C195.755,-38.7765 204.418,-39.5735 212.892,-40.3532"/>
<polygon fill="midnightblue" stroke="midnightblue" points="187.353,-34.4887 177.075,-37.0577 186.712,-41.4593 187.353,-34.4887"/>
</g>
<!-- Node3 -->
<g id="node3" class="node"><title>Node3</title>
<g id="a_node3"><a xlink:href="class_d_bus_gateway.html#ab974b6b05b985d64ba5609c64e8b13fb" target="_top" xlink:title="Implements Gateway::activateGateway. ">
<polygon fill="white" stroke="black" points="213,-0.5 213,-19.5 381,-19.5 381,-0.5 213,-0.5"/>
<text text-anchor="middle" x="297" y="-7.5" font-family="Helvetica,sans-Serif" font-size="10.00">DBusGateway::activateGateway</text>
</a>
</g>
</g>
<!-- Node1&#45;&gt;Node3 -->
<g id="edge2" class="edge"><title>Node1&#45;&gt;Node3</title>
<path fill="none" stroke="midnightblue" d="M187.144,-20.0158C195.755,-19.2235 204.418,-18.4265 212.892,-17.6468"/>
<polygon fill="midnightblue" stroke="midnightblue" points="186.712,-16.5407 177.075,-20.9423 187.353,-23.5113 186.712,-16.5407"/>
</g>
</g>
</svg>
