<?xml version="1.0" encoding="UTF-8" standalone="no"?>
<!DOCTYPE svg PUBLIC "-//W3C//DTD SVG 1.1//EN"
 "http://www.w3.org/Graphics/SVG/1.1/DTD/svg11.dtd">
<!-- Generated by graphviz version 2.38.0 (20140413.2041)
 -->
<!-- Title: softwarecontainer::FileToolkitWithUndo::pathInList Pages: 1 -->
<svg width="531pt" height="159pt"
 viewBox="0.00 0.00 531.00 158.50" xmlns="http://www.w3.org/2000/svg" xmlns:xlink="http://www.w3.org/1999/xlink">
<g id="graph0" class="graph" transform="scale(1 1) rotate(0) translate(4 154.5)">
<title>softwarecontainer::FileToolkitWithUndo::pathInList</title>
<polygon fill="white" stroke="none" points="-4,4 -4,-154.5 527,-154.5 527,4 -4,4"/>
<!-- Node1 -->
<g id="node1" class="node"><title>Node1</title>
<polygon fill="#bfbfbf" stroke="black" points="0,-57.5 0,-98.5 105,-98.5 105,-57.5 0,-57.5"/>
<text text-anchor="start" x="8" y="-86.5" font-family="Helvetica,sans-Serif" font-size="10.00">softwarecontainer::</text>
<text text-anchor="start" x="8" y="-75.5" font-family="Helvetica,sans-Serif" font-size="10.00">FileToolkitWithUndo</text>
<text text-anchor="middle" x="52.5" y="-64.5" font-family="Helvetica,sans-Serif" font-size="10.00">::pathInList</text>
</g>
<!-- Node2 -->
<g id="node2" class="node"><title>Node2</title>
<g id="a_node2"><a xlink:href="classsoftwarecontainer_1_1_file_toolkit_with_undo.html#aff5073fb683649d6753baae354d202b9" target="_top" xlink:title="createDirectory Create a directory, and if successful append it to a list of dirs to be deleted in th...">
<polygon fill="white" stroke="black" points="141,-106.5 141,-147.5 246,-147.5 246,-106.5 141,-106.5"/>
<text text-anchor="start" x="149" y="-135.5" font-family="Helvetica,sans-Serif" font-size="10.00">softwarecontainer::</text>
<text text-anchor="start" x="149" y="-124.5" font-family="Helvetica,sans-Serif" font-size="10.00">FileToolkitWithUndo</text>
<text text-anchor="middle" x="193.5" y="-113.5" font-family="Helvetica,sans-Serif" font-size="10.00">::createDirectory</text>
</a>
</g>
</g>
<!-- Node1&#45;&gt;Node2 -->
<g id="edge1" class="edge"><title>Node1&#45;&gt;Node2</title>
<path fill="none" stroke="midnightblue" d="M114.885,-99.6394C123.501,-102.677 132.285,-105.773 140.698,-108.739"/>
<polygon fill="midnightblue" stroke="midnightblue" points="115.853,-96.2696 105.258,-96.2458 113.526,-102.871 115.853,-96.2696"/>
</g>
<!-- Node4 -->
<g id="node4" class="node"><title>Node4</title>
<g id="a_node4"><a xlink:href="classsoftwarecontainer_1_1_file_toolkit_with_undo.html#ab46eccba563b861f100d9ce7fa9ca4d6" target="_top" xlink:title="overlayMount Mount a directory with an overlay on top of it. ">
<polygon fill="white" stroke="black" points="282,-60.5 282,-101.5 387,-101.5 387,-60.5 282,-60.5"/>
<text text-anchor="start" x="290" y="-89.5" font-family="Helvetica,sans-Serif" font-size="10.00">softwarecontainer::</text>
<text text-anchor="start" x="290" y="-78.5" font-family="Helvetica,sans-Serif" font-size="10.00">FileToolkitWithUndo</text>
<text text-anchor="middle" x="334.5" y="-67.5" font-family="Helvetica,sans-Serif" font-size="10.00">::overlayMount</text>
</a>
</g>
</g>
<!-- Node1&#45;&gt;Node4 -->
<g id="edge5" class="edge"><title>Node1&#45;&gt;Node4</title>
<path fill="none" stroke="midnightblue" d="M115.205,-78.6611C165.11,-79.1958 234.58,-79.9401 281.645,-80.4444"/>
<polygon fill="midnightblue" stroke="midnightblue" points="115.22,-75.1612 105.183,-78.5537 115.145,-82.1608 115.22,-75.1612"/>
</g>
<!-- Node6 -->
<g id="node6" class="node"><title>Node6</title>
<g id="a_node6"><a xlink:href="classsoftwarecontainer_1_1_file_toolkit_with_undo.html#a649391903bf1a0eec92c829713117a74" target="_top" xlink:title="tempDir Creates a temporary directory at templatePath. ">
<polygon fill="white" stroke="black" points="141,-5.5 141,-46.5 246,-46.5 246,-5.5 141,-5.5"/>
<text text-anchor="start" x="149" y="-34.5" font-family="Helvetica,sans-Serif" font-size="10.00">softwarecontainer::</text>
<text text-anchor="start" x="149" y="-23.5" font-family="Helvetica,sans-Serif" font-size="10.00">FileToolkitWithUndo</text>
<text text-anchor="middle" x="193.5" y="-12.5" font-family="Helvetica,sans-Serif" font-size="10.00">::tempDir</text>
</a>
</g>
</g>
<!-- Node1&#45;&gt;Node6 -->
<g id="edge6" class="edge"><title>Node1&#45;&gt;Node6</title>
<path fill="none" stroke="midnightblue" d="M114.885,-55.0357C123.501,-51.8127 132.285,-48.5265 140.698,-45.3791"/>
<polygon fill="midnightblue" stroke="midnightblue" points="113.398,-51.8551 105.258,-58.6371 115.851,-58.4113 113.398,-51.8551"/>
</g>
<!-- Node3 -->
<g id="node3" class="node"><title>Node3</title>
<g id="a_node3"><a xlink:href="classsoftwarecontainer_1_1_container.html#a8461f293ef5db5ee5fbdeddd24f36214" target="_top" xlink:title="Setup the container for startup. ">
<polygon fill="white" stroke="black" points="284.5,-120 284.5,-150 384.5,-150 384.5,-120 284.5,-120"/>
<text text-anchor="start" x="292.5" y="-138" font-family="Helvetica,sans-Serif" font-size="10.00">softwarecontainer::</text>
<text text-anchor="middle" x="334.5" y="-127" font-family="Helvetica,sans-Serif" font-size="10.00">Container::initialize</text>
</a>
</g>
</g>
<!-- Node2&#45;&gt;Node3 -->
<g id="edge2" class="edge"><title>Node2&#45;&gt;Node3</title>
<path fill="none" stroke="midnightblue" d="M256.363,-130.56C265.775,-131.102 275.375,-131.655 284.463,-132.178"/>
<polygon fill="midnightblue" stroke="midnightblue" points="256.443,-127.059 246.258,-129.979 256.041,-134.048 256.443,-127.059"/>
</g>
<!-- Node2&#45;&gt;Node4 -->
<g id="edge3" class="edge"><title>Node2&#45;&gt;Node4</title>
<path fill="none" stroke="midnightblue" d="M255.885,-106.685C264.501,-103.834 273.285,-100.927 281.698,-98.143"/>
<polygon fill="midnightblue" stroke="midnightblue" points="254.652,-103.407 246.258,-109.871 256.852,-110.052 254.652,-103.407"/>
</g>
<!-- Node5 -->
<g id="node5" class="node"><title>Node5</title>
<g id="a_node5"><a xlink:href="classsoftwarecontainer_1_1_container.html#a6c57689a4a21b8c9342c53c7e8743203" target="_top" xlink:title="create Creates a new lxc_container and creates it with all the initialization. ">
<polygon fill="white" stroke="black" points="423,-66 423,-96 523,-96 523,-66 423,-66"/>
<text text-anchor="start" x="431" y="-84" font-family="Helvetica,sans-Serif" font-size="10.00">softwarecontainer::</text>
<text text-anchor="middle" x="473" y="-73" font-family="Helvetica,sans-Serif" font-size="10.00">Container::create</text>
</a>
</g>
</g>
<!-- Node4&#45;&gt;Node5 -->
<g id="edge4" class="edge"><title>Node4&#45;&gt;Node5</title>
<path fill="none" stroke="midnightblue" d="M397.324,-81C405.785,-81 414.378,-81 422.579,-81"/>
<polygon fill="midnightblue" stroke="midnightblue" points="397.105,-77.5001 387.105,-81 397.105,-84.5001 397.105,-77.5001"/>
</g>
<!-- Node7 -->
<g id="node7" class="node"><title>Node7</title>
<g id="a_node7"><a xlink:href="classsoftwarecontainer_1_1_file_toolkit_with_undo.html#a33c6fa5ecfb8e370ae8bb6aedf568336" target="_top" xlink:title="bindMount Bind mount a src directory to another position dst. ">
<polygon fill="white" stroke="black" points="282,-0.5 282,-41.5 387,-41.5 387,-0.5 282,-0.5"/>
<text text-anchor="start" x="290" y="-29.5" font-family="Helvetica,sans-Serif" font-size="10.00">softwarecontainer::</text>
<text text-anchor="start" x="290" y="-18.5" font-family="Helvetica,sans-Serif" font-size="10.00">FileToolkitWithUndo</text>
<text text-anchor="middle" x="334.5" y="-7.5" font-family="Helvetica,sans-Serif" font-size="10.00">::bindMount</text>
</a>
</g>
</g>
<!-- Node6&#45;&gt;Node7 -->
<g id="edge7" class="edge"><title>Node6&#45;&gt;Node7</title>
<path fill="none" stroke="midnightblue" d="M256.441,-23.7719C264.878,-23.4684 273.466,-23.1595 281.698,-22.8634"/>
<polygon fill="midnightblue" stroke="midnightblue" points="256.126,-20.2809 246.258,-24.1382 256.378,-27.2763 256.126,-20.2809"/>
</g>
</g>
</svg>
