<?xml version="1.0" encoding="UTF-8" standalone="no"?>
<!DOCTYPE svg PUBLIC "-//W3C//DTD SVG 1.1//EN"
 "http://www.w3.org/Graphics/SVG/1.1/DTD/svg11.dtd">
<!-- Generated by graphviz version 2.38.0 (20140413.2041)
 -->
<!-- Title: softwarecontainer::SoftwareContainer::getContainer Pages: 1 -->
<svg width="394pt" height="137pt"
 viewBox="0.00 0.00 394.00 137.00" xmlns="http://www.w3.org/2000/svg" xmlns:xlink="http://www.w3.org/1999/xlink">
<g id="graph0" class="graph" transform="scale(1 1) rotate(0) translate(4 133)">
<title>softwarecontainer::SoftwareContainer::getContainer</title>
<polygon fill="white" stroke="none" points="-4,4 -4,-133 390,-133 390,4 -4,4"/>
<!-- Node1 -->
<g id="node1" class="node"><title>Node1</title>
<polygon fill="#bfbfbf" stroke="black" points="0,-49.5 0,-79.5 159,-79.5 159,-49.5 0,-49.5"/>
<text text-anchor="start" x="8" y="-67.5" font-family="Helvetica,sans-Serif" font-size="10.00">softwarecontainer::</text>
<text text-anchor="middle" x="79.5" y="-56.5" font-family="Helvetica,sans-Serif" font-size="10.00">SoftwareContainer::getContainer</text>
</g>
<!-- Node2 -->
<g id="node2" class="node"><title>Node2</title>
<g id="a_node2"><a xlink:href="classsoftwarecontainer_1_1_software_container.html#a7bf541dc506ae1293441a3f734a8cde4" target="_top" xlink:title="Should only be called on containers in state &#39;READY&#39;. ">
<polygon fill="white" stroke="black" points="216,-98.5 216,-128.5 365,-128.5 365,-98.5 216,-98.5"/>
<text text-anchor="start" x="224" y="-116.5" font-family="Helvetica,sans-Serif" font-size="10.00">softwarecontainer::</text>
<text text-anchor="middle" x="290.5" y="-105.5" font-family="Helvetica,sans-Serif" font-size="10.00">SoftwareContainer::bindMount</text>
</a>
</g>
</g>
<!-- Node1&#45;&gt;Node2 -->
<g id="edge1" class="edge"><title>Node1&#45;&gt;Node2</title>
<path fill="none" stroke="midnightblue" d="M154.422,-81.8309C177.626,-87.2712 203.036,-93.2285 225.494,-98.4938"/>
<polygon fill="midnightblue" stroke="midnightblue" points="155.162,-78.4097 144.627,-79.5346 153.564,-85.2249 155.162,-78.4097"/>
</g>
<!-- Node3 -->
<g id="node3" class="node"><title>Node3</title>
<g id="a_node3"><a xlink:href="classsoftwarecontainer_1_1_software_container.html#a911b62ba4d9307275f59698d2ae69467" target="_top" xlink:title="Create a job that can run a command in a container. ">
<polygon fill="white" stroke="black" points="195,-49.5 195,-79.5 386,-79.5 386,-49.5 195,-49.5"/>
<text text-anchor="start" x="203" y="-67.5" font-family="Helvetica,sans-Serif" font-size="10.00">softwarecontainer::</text>
<text text-anchor="middle" x="290.5" y="-56.5" font-family="Helvetica,sans-Serif" font-size="10.00">SoftwareContainer::createCommandJob</text>
</a>
</g>
</g>
<!-- Node1&#45;&gt;Node3 -->
<g id="edge2" class="edge"><title>Node1&#45;&gt;Node3</title>
<path fill="none" stroke="midnightblue" d="M169.348,-64.5C177.723,-64.5 186.235,-64.5 194.663,-64.5"/>
<polygon fill="midnightblue" stroke="midnightblue" points="169.216,-61.0001 159.216,-64.5 169.216,-68.0001 169.216,-61.0001"/>
</g>
<!-- Node4 -->
<g id="node4" class="node"><title>Node4</title>
<g id="a_node4"><a xlink:href="classsoftwarecontainer_1_1_software_container.html#a47be9e4b2c49aedf67cd23404c9d4eee" target="_top" xlink:title="Create a job that can run a function in a container. ">
<polygon fill="white" stroke="black" points="198.5,-0.5 198.5,-30.5 382.5,-30.5 382.5,-0.5 198.5,-0.5"/>
<text text-anchor="start" x="206.5" y="-18.5" font-family="Helvetica,sans-Serif" font-size="10.00">softwarecontainer::</text>
<text text-anchor="middle" x="290.5" y="-7.5" font-family="Helvetica,sans-Serif" font-size="10.00">SoftwareContainer::createFunctionJob</text>
</a>
</g>
</g>
<!-- Node1&#45;&gt;Node4 -->
<g id="edge3" class="edge"><title>Node1&#45;&gt;Node4</title>
<path fill="none" stroke="midnightblue" d="M154.422,-47.1691C177.626,-41.7288 203.036,-35.7715 225.494,-30.5062"/>
<polygon fill="midnightblue" stroke="midnightblue" points="153.564,-43.7751 144.627,-49.4654 155.162,-50.5903 153.564,-43.7751"/>
</g>
</g>
</svg>
