<?xml version="1.0" encoding="UTF-8" standalone="no"?>
<!DOCTYPE svg PUBLIC "-//W3C//DTD SVG 1.1//EN"
 "http://www.w3.org/Graphics/SVG/1.1/DTD/svg11.dtd">
<!-- Generated by graphviz version 2.38.0 (20140413.2041)
 -->
<!-- Title: softwarecontainer::SoftwareContainer::setGatewayConfigs Pages: 1 -->
<svg width="524pt" height="142pt"
 viewBox="0.00 0.00 524.00 142.00" xmlns="http://www.w3.org/2000/svg" xmlns:xlink="http://www.w3.org/1999/xlink">
<g id="graph0" class="graph" transform="scale(1 1) rotate(0) translate(4 138)">
<title>softwarecontainer::SoftwareContainer::setGatewayConfigs</title>
<polygon fill="white" stroke="none" points="-4,4 -4,-138 520,-138 520,4 -4,4"/>
<!-- Node1 -->
<g id="node1" class="node"><title>Node1</title>
<polygon fill="#bfbfbf" stroke="black" points="0,-46.5 0,-87.5 167,-87.5 167,-46.5 0,-46.5"/>
<text text-anchor="start" x="8" y="-75.5" font-family="Helvetica,sans-Serif" font-size="10.00">softwarecontainer::</text>
<text text-anchor="start" x="8" y="-64.5" font-family="Helvetica,sans-Serif" font-size="10.00">SoftwareContainer::setGateway</text>
<text text-anchor="middle" x="83.5" y="-53.5" font-family="Helvetica,sans-Serif" font-size="10.00">Configs</text>
</g>
<!-- Node2 -->
<g id="node2" class="node"><title>Node2</title>
<g id="a_node2"><a xlink:href="class_gateway.html#aac80886a35b80d8003051e6926b59937" target="_top" xlink:title="Applies any configuration set by setConfig() ">
<polygon fill="white" stroke="black" points="213.5,-114.5 213.5,-133.5 314.5,-133.5 314.5,-114.5 213.5,-114.5"/>
<text text-anchor="middle" x="264" y="-121.5" font-family="Helvetica,sans-Serif" font-size="10.00">Gateway::activate</text>
</a>
</g>
</g>
<!-- Node1&#45;&gt;Node2 -->
<g id="edge1" class="edge"><title>Node1&#45;&gt;Node2</title>
<path fill="none" stroke="midnightblue" d="M148.943,-87.5783C173.883,-95.5425 201.631,-104.403 223.513,-111.391"/>
<polygon fill="midnightblue" stroke="midnightblue" points="222.532,-114.752 233.123,-114.459 224.662,-108.083 222.532,-114.752"/>
</g>
<!-- Node4 -->
<g id="node4" class="node"><title>Node4</title>
<g id="a_node4"><a xlink:href="class_gateway.html#a01028fc541340b53b0330c03dafb6bfe" target="_top" xlink:title="Gateway::id">
<polygon fill="white" stroke="black" points="403,-76.5 403,-95.5 474,-95.5 474,-76.5 403,-76.5"/>
<text text-anchor="middle" x="438.5" y="-83.5" font-family="Helvetica,sans-Serif" font-size="10.00">Gateway::id</text>
</a>
</g>
</g>
<!-- Node1&#45;&gt;Node4 -->
<g id="edge4" class="edge"><title>Node1&#45;&gt;Node4</title>
<path fill="none" stroke="midnightblue" d="M167.263,-71.4547C237.669,-75.2442 336.108,-80.5426 392.688,-83.588"/>
<polygon fill="midnightblue" stroke="midnightblue" points="392.575,-87.0869 402.749,-84.1295 392.951,-80.097 392.575,-87.0869"/>
</g>
<!-- Node5 -->
<g id="node5" class="node"><title>Node5</title>
<g id="a_node5"><a xlink:href="class_gateway.html#a88ae41c7b14da49561d025bd99047e81" target="_top" xlink:title="Is the gateway configured or not? ">
<polygon fill="white" stroke="black" points="203,-38.5 203,-57.5 325,-57.5 325,-38.5 203,-38.5"/>
<text text-anchor="middle" x="264" y="-45.5" font-family="Helvetica,sans-Serif" font-size="10.00">Gateway::isConfigured</text>
</a>
</g>
</g>
<!-- Node1&#45;&gt;Node5 -->
<g id="edge5" class="edge"><title>Node1&#45;&gt;Node5</title>
<path fill="none" stroke="midnightblue" d="M167.218,-58.1952C175.777,-57.2843 184.415,-56.3648 192.817,-55.4704"/>
<polygon fill="midnightblue" stroke="midnightblue" points="193.354,-58.9331 202.928,-54.3943 192.613,-51.9725 193.354,-58.9331"/>
</g>
<!-- Node6 -->
<g id="node6" class="node"><title>Node6</title>
<g id="a_node6"><a xlink:href="class_gateway.html#a04d31b1ed232f5376c5cf79e30fa2593" target="_top" xlink:title="Configure this gateway according to the supplied JSON configuration string. ">
<polygon fill="white" stroke="black" points="210,-0.5 210,-19.5 318,-19.5 318,-0.5 210,-0.5"/>
<text text-anchor="middle" x="264" y="-7.5" font-family="Helvetica,sans-Serif" font-size="10.00">Gateway::setConfig</text>
</a>
</g>
</g>
<!-- Node1&#45;&gt;Node6 -->
<g id="edge6" class="edge"><title>Node1&#45;&gt;Node6</title>
<path fill="none" stroke="midnightblue" d="M148.446,-46.4473C166.115,-40.781 185.297,-34.6414 203,-29 209.505,-26.927 216.409,-24.7341 223.13,-22.6032"/>
<polygon fill="midnightblue" stroke="midnightblue" points="224.301,-25.9036 232.777,-19.5469 222.187,-19.2304 224.301,-25.9036"/>
</g>
<!-- Node3 -->
<g id="node3" class="node"><title>Node3</title>
<g id="a_node3"><a xlink:href="class_gateway.html#ad66eea64014d7eb2927c1f576b3cf2b2" target="_top" xlink:title="Check if the gateway has an associated container. ">
<polygon fill="white" stroke="black" points="375,-114.5 375,-133.5 502,-133.5 502,-114.5 375,-114.5"/>
<text text-anchor="middle" x="438.5" y="-121.5" font-family="Helvetica,sans-Serif" font-size="10.00">Gateway::hasContainer</text>
</a>
</g>
</g>
<!-- Node2&#45;&gt;Node3 -->
<g id="edge2" class="edge"><title>Node2&#45;&gt;Node3</title>
<path fill="none" stroke="midnightblue" d="M314.894,-124C330.386,-124 347.792,-124 364.517,-124"/>
<polygon fill="midnightblue" stroke="midnightblue" points="364.82,-127.5 374.819,-124 364.819,-120.5 364.82,-127.5"/>
</g>
<!-- Node2&#45;&gt;Node4 -->
<g id="edge3" class="edge"><title>Node2&#45;&gt;Node4</title>
<path fill="none" stroke="midnightblue" d="M308.529,-114.411C334.346,-108.724 366.994,-101.532 392.983,-95.8067"/>
<polygon fill="midnightblue" stroke="midnightblue" points="393.936,-99.1808 402.948,-93.6114 392.43,-92.3447 393.936,-99.1808"/>
</g>
<!-- Node7 -->
<g id="node7" class="node"><title>Node7</title>
<g id="a_node7"><a xlink:href="class_gateway.html#a4413c4a754da11031de372bc0b278d92" target="_top" xlink:title="Gateway specific parsing of config elements. ">
<polygon fill="white" stroke="black" points="361,-0.5 361,-19.5 516,-19.5 516,-0.5 361,-0.5"/>
<text text-anchor="middle" x="438.5" y="-7.5" font-family="Helvetica,sans-Serif" font-size="10.00">Gateway::readConfigElement</text>
</a>
</g>
</g>
<!-- Node6&#45;&gt;Node7 -->
<g id="edge7" class="edge"><title>Node6&#45;&gt;Node7</title>
<path fill="none" stroke="midnightblue" d="M318.163,-10C328.471,-10 339.522,-10 350.587,-10"/>
<polygon fill="midnightblue" stroke="midnightblue" points="350.732,-13.5001 360.732,-10 350.732,-6.5001 350.732,-13.5001"/>
</g>
</g>
</svg>
