<?xml version="1.0" encoding="UTF-8" standalone="no"?>
<!DOCTYPE svg PUBLIC "-//W3C//DTD SVG 1.1//EN"
 "http://www.w3.org/Graphics/SVG/1.1/DTD/svg11.dtd">
<!-- Generated by graphviz version 2.38.0 (20140413.2041)
 -->
<!-- Title: softwarecontainer::FileToolkitWithUndo::bindMount Pages: 1 -->
<svg width="286pt" height="50pt"
 viewBox="0.00 0.00 286.00 50.00" xmlns="http://www.w3.org/2000/svg" xmlns:xlink="http://www.w3.org/1999/xlink">
<g id="graph0" class="graph" transform="scale(1 1) rotate(0) translate(4 46)">
<title>softwarecontainer::FileToolkitWithUndo::bindMount</title>
<polygon fill="white" stroke="none" points="-4,4 -4,-46 282,-46 282,4 -4,4"/>
<!-- Node1 -->
<g id="node1" class="node"><title>Node1</title>
<polygon fill="#bfbfbf" stroke="black" points="0,-0.5 0,-41.5 105,-41.5 105,-0.5 0,-0.5"/>
<text text-anchor="start" x="8" y="-29.5" font-family="Helvetica,sans-Serif" font-size="10.00">softwarecontainer::</text>
<text text-anchor="start" x="8" y="-18.5" font-family="Helvetica,sans-Serif" font-size="10.00">FileToolkitWithUndo</text>
<text text-anchor="middle" x="52.5" y="-7.5" font-family="Helvetica,sans-Serif" font-size="10.00">::bindMount</text>
</g>
<!-- Node2 -->
<g id="node2" class="node"><title>Node2</title>
<g id="a_node2"><a xlink:href="class_container.html#af602c6e290b0f9f5abb78bbc3b0828cd" target="_top" xlink:title="Bind mount a directory from the host into the container. ">
<polygon fill="white" stroke="black" points="141,-6 141,-36 278,-36 278,-6 141,-6"/>
<text text-anchor="start" x="149" y="-24" font-family="Helvetica,sans-Serif" font-size="10.00">Container::bindMountFolder</text>
<text text-anchor="middle" x="209.5" y="-13" font-family="Helvetica,sans-Serif" font-size="10.00">InContainer</text>
</a>
</g>
</g>
<!-- Node1&#45;&gt;Node2 -->
<g id="edge1" class="edge"><title>Node1&#45;&gt;Node2</title>
<path fill="none" stroke="midnightblue" d="M115.226,-21C123.646,-21 132.325,-21 140.842,-21"/>
<polygon fill="midnightblue" stroke="midnightblue" points="115.113,-17.5001 105.113,-21 115.113,-24.5001 115.113,-17.5001"/>
</g>
</g>
</svg>
