<?xml version="1.0" encoding="UTF-8" standalone="no"?>
<!DOCTYPE svg PUBLIC "-//W3C//DTD SVG 1.1//EN"
 "http://www.w3.org/Graphics/SVG/1.1/DTD/svg11.dtd">
<!-- Generated by graphviz version 2.38.0 (20140413.2041)
 -->
<!-- Title: RecursiveCopy::getInstance Pages: 1 -->
<svg width="343pt" height="99pt"
 viewBox="0.00 0.00 343.00 98.50" xmlns="http://www.w3.org/2000/svg" xmlns:xlink="http://www.w3.org/1999/xlink">
<g id="graph0" class="graph" transform="scale(1 1) rotate(0) translate(4 94.5)">
<title>RecursiveCopy::getInstance</title>
<polygon fill="white" stroke="none" points="-4,4 -4,-94.5 339,-94.5 339,4 -4,4"/>
<!-- Node1 -->
<g id="node1" class="node"><title>Node1</title>
<polygon fill="#bfbfbf" stroke="black" points="0,-38.5 0,-57.5 147,-57.5 147,-38.5 0,-38.5"/>
<text text-anchor="middle" x="73.5" y="-45.5" font-family="Helvetica,sans-Serif" font-size="10.00">RecursiveCopy::getInstance</text>
</g>
<!-- Node2 -->
<g id="node2" class="node"><title>Node2</title>
<g id="a_node2"><a xlink:href="class_overlay_sync_cleanup_handler.html#a65e86b29438617c079a6aadfe6a0ff5c" target="_top" xlink:title="clean Performs the cleanup handling. ">
<polygon fill="white" stroke="black" points="183,-60 183,-90 335,-90 335,-60 183,-60"/>
<text text-anchor="start" x="191" y="-78" font-family="Helvetica,sans-Serif" font-size="10.00">OverlaySyncCleanupHandler</text>
<text text-anchor="middle" x="259" y="-67" font-family="Helvetica,sans-Serif" font-size="10.00">::clean</text>
</a>
</g>
</g>
<!-- Node1&#45;&gt;Node2 -->
<g id="edge1" class="edge"><title>Node1&#45;&gt;Node2</title>
<path fill="none" stroke="midnightblue" d="M149.27,-59.0016C160.368,-60.6345 171.808,-62.3178 182.912,-63.9516"/>
<polygon fill="midnightblue" stroke="midnightblue" points="149.598,-55.5123 139.195,-57.5192 148.579,-62.4377 149.598,-55.5123"/>
</g>
<!-- Node3 -->
<g id="node3" class="node"><title>Node3</title>
<g id="a_node3"><a xlink:href="classsoftwarecontainer_1_1_file_toolkit_with_undo.html#a011797b9d1387882a5b013d0c97ccbfd" target="_top" xlink:title="syncOverlayMount Copy the directory structure from upper layer to the lower layer ...">
<polygon fill="white" stroke="black" points="204,-0.5 204,-41.5 314,-41.5 314,-0.5 204,-0.5"/>
<text text-anchor="start" x="212" y="-29.5" font-family="Helvetica,sans-Serif" font-size="10.00">softwarecontainer::</text>
<text text-anchor="start" x="212" y="-18.5" font-family="Helvetica,sans-Serif" font-size="10.00">FileToolkitWithUndo</text>
<text text-anchor="middle" x="259" y="-7.5" font-family="Helvetica,sans-Serif" font-size="10.00">::syncOverlayMount</text>
</a>
</g>
</g>
<!-- Node1&#45;&gt;Node3 -->
<g id="edge2" class="edge"><title>Node1&#45;&gt;Node3</title>
<path fill="none" stroke="midnightblue" d="M149.246,-37.002C167.544,-34.3095 186.778,-31.4795 203.897,-28.9607"/>
<polygon fill="midnightblue" stroke="midnightblue" points="148.579,-33.5623 139.195,-38.4808 149.598,-40.4877 148.579,-33.5623"/>
</g>
</g>
</svg>
