<?xml version="1.0" encoding="UTF-8" standalone="no"?>
<!DOCTYPE svg PUBLIC "-//W3C//DTD SVG 1.1//EN"
 "http://www.w3.org/Graphics/SVG/1.1/DTD/svg11.dtd">
<!-- Generated by graphviz version 2.38.0 (20140413.2041)
 -->
<!-- Title: softwarecontainer::Gateway::isConfigured Pages: 1 -->
<svg width="301pt" height="66pt"
 viewBox="0.00 0.00 301.00 66.00" xmlns="http://www.w3.org/2000/svg" xmlns:xlink="http://www.w3.org/1999/xlink">
<g id="graph0" class="graph" transform="scale(1 1) rotate(0) translate(4 62)">
<title>softwarecontainer::Gateway::isConfigured</title>
<polygon fill="white" stroke="none" points="-4,4 -4,-62 297,-62 297,4 -4,4"/>
<!-- Node1 -->
<g id="node1" class="node"><title>Node1</title>
<polygon fill="#bfbfbf" stroke="black" points="0,-14 0,-44 116,-44 116,-14 0,-14"/>
<text text-anchor="start" x="8" y="-32" font-family="Helvetica,sans-Serif" font-size="10.00">softwarecontainer::</text>
<text text-anchor="middle" x="58" y="-21" font-family="Helvetica,sans-Serif" font-size="10.00">Gateway::isConfigured</text>
</g>
<!-- Node2 -->
<g id="node2" class="node"><title>Node2</title>
<g id="a_node2"><a xlink:href="class_d_bus_gateway.html#af46946bb52d1b9b6a2ec77df3df2e3e0" target="_top" xlink:title="Activates both dbus session instances. ">
<polygon fill="white" stroke="black" points="162,-38.5 162,-57.5 283,-57.5 283,-38.5 162,-38.5"/>
<text text-anchor="middle" x="222.5" y="-45.5" font-family="Helvetica,sans-Serif" font-size="10.00">DBusGateway::activate</text>
</a>
</g>
</g>
<!-- Node1&#45;&gt;Node2 -->
<g id="edge1" class="edge"><title>Node1&#45;&gt;Node2</title>
<path fill="none" stroke="midnightblue" d="M126.506,-36.8931C138.276,-38.2692 150.442,-39.6916 161.977,-41.0404"/>
<polygon fill="midnightblue" stroke="midnightblue" points="126.63,-33.3838 116.291,-35.6987 125.817,-40.3364 126.63,-33.3838"/>
</g>
<!-- Node3 -->
<g id="node3" class="node"><title>Node3</title>
<g id="a_node3"><a xlink:href="class_d_bus_gateway.html#a9d53d37dc2aec2e5d41554c25241e746" target="_top" xlink:title="Is the gateway configured or not? ">
<polygon fill="white" stroke="black" points="152,-0.5 152,-19.5 293,-19.5 293,-0.5 152,-0.5"/>
<text text-anchor="middle" x="222.5" y="-7.5" font-family="Helvetica,sans-Serif" font-size="10.00">DBusGateway::isConfigured</text>
</a>
</g>
</g>
<!-- Node1&#45;&gt;Node3 -->
<g id="edge2" class="edge"><title>Node1&#45;&gt;Node3</title>
<path fill="none" stroke="midnightblue" d="M126.427,-21.1162C134.84,-20.1325 143.457,-19.125 151.902,-18.1376"/>
<polygon fill="midnightblue" stroke="midnightblue" points="125.817,-17.6636 116.291,-22.3013 126.63,-24.6162 125.817,-17.6636"/>
</g>
</g>
</svg>
