<?xml version="1.0" encoding="UTF-8" standalone="no"?>
<!DOCTYPE svg PUBLIC "-//W3C//DTD SVG 1.1//EN"
 "http://www.w3.org/Graphics/SVG/1.1/DTD/svg11.dtd">
<!-- Generated by graphviz version 2.38.0 (20140413.2041)
 -->
<!-- Title: Container::create Pages: 1 -->
<svg width="536pt" height="50pt"
 viewBox="0.00 0.00 536.00 50.00" xmlns="http://www.w3.org/2000/svg" xmlns:xlink="http://www.w3.org/1999/xlink">
<g id="graph0" class="graph" transform="scale(1 1) rotate(0) translate(4 46)">
<title>Container::create</title>
<polygon fill="white" stroke="none" points="-4,4 -4,-46 532,-46 532,4 -4,4"/>
<!-- Node1 -->
<g id="node1" class="node"><title>Node1</title>
<polygon fill="#bfbfbf" stroke="black" points="0,-11.5 0,-30.5 92,-30.5 92,-11.5 0,-11.5"/>
<text text-anchor="middle" x="46" y="-18.5" font-family="Helvetica,sans-Serif" font-size="10.00">Container::create</text>
</g>
<!-- Node2 -->
<g id="node2" class="node"><title>Node2</title>
<g id="a_node2"><a xlink:href="classsoftwarecontainer_1_1_file_toolkit_with_undo.html#ab46eccba563b861f100d9ce7fa9ca4d6" target="_top" xlink:title="overlayMount Mount a directory with an overlay on top of it. ">
<polygon fill="white" stroke="black" points="128,-0.5 128,-41.5 233,-41.5 233,-0.5 128,-0.5"/>
<text text-anchor="start" x="136" y="-29.5" font-family="Helvetica,sans-Serif" font-size="10.00">softwarecontainer::</text>
<text text-anchor="start" x="136" y="-18.5" font-family="Helvetica,sans-Serif" font-size="10.00">FileToolkitWithUndo</text>
<text text-anchor="middle" x="180.5" y="-7.5" font-family="Helvetica,sans-Serif" font-size="10.00">::overlayMount</text>
</a>
</g>
</g>
<!-- Node1&#45;&gt;Node2 -->
<g id="edge1" class="edge"><title>Node1&#45;&gt;Node2</title>
<path fill="none" stroke="midnightblue" d="M92.2284,-21C100.33,-21 108.899,-21 117.378,-21"/>
<polygon fill="midnightblue" stroke="midnightblue" points="117.638,-24.5001 127.637,-21 117.637,-17.5001 117.638,-24.5001"/>
</g>
<!-- Node3 -->
<g id="node3" class="node"><title>Node3</title>
<g id="a_node3"><a xlink:href="classsoftwarecontainer_1_1_file_toolkit_with_undo.html#aff5073fb683649d6753baae354d202b9" target="_top" xlink:title="createDirectory Create a directory, and if successful append it to a list of dirs to be deleted in th...">
<polygon fill="white" stroke="black" points="269,-0.5 269,-41.5 374,-41.5 374,-0.5 269,-0.5"/>
<text text-anchor="start" x="277" y="-29.5" font-family="Helvetica,sans-Serif" font-size="10.00">softwarecontainer::</text>
<text text-anchor="start" x="277" y="-18.5" font-family="Helvetica,sans-Serif" font-size="10.00">FileToolkitWithUndo</text>
<text text-anchor="middle" x="321.5" y="-7.5" font-family="Helvetica,sans-Serif" font-size="10.00">::createDirectory</text>
</a>
</g>
</g>
<!-- Node2&#45;&gt;Node3 -->
<g id="edge2" class="edge"><title>Node2&#45;&gt;Node3</title>
<path fill="none" stroke="midnightblue" d="M233.258,-21C241.49,-21 250.077,-21 258.514,-21"/>
<polygon fill="midnightblue" stroke="midnightblue" points="258.698,-24.5001 268.698,-21 258.698,-17.5001 258.698,-24.5001"/>
</g>
<!-- Node4 -->
<g id="node4" class="node"><title>Node4</title>
<g id="a_node4"><a xlink:href="classsoftwarecontainer_1_1_file_toolkit_with_undo.html#a2e2789ba9649ed6abf7a1c3ab3025daa" target="_top" xlink:title="createParentDirectory Recursively tries to create the directory pointed to by path. ">
<polygon fill="white" stroke="black" points="410,-0.5 410,-41.5 528,-41.5 528,-0.5 410,-0.5"/>
<text text-anchor="start" x="418" y="-29.5" font-family="Helvetica,sans-Serif" font-size="10.00">softwarecontainer::</text>
<text text-anchor="start" x="418" y="-18.5" font-family="Helvetica,sans-Serif" font-size="10.00">FileToolkitWithUndo</text>
<text text-anchor="middle" x="469" y="-7.5" font-family="Helvetica,sans-Serif" font-size="10.00">::createParentDirectory</text>
</a>
</g>
</g>
<!-- Node3&#45;&gt;Node4 -->
<g id="edge3" class="edge"><title>Node3&#45;&gt;Node4</title>
<path fill="none" stroke="midnightblue" d="M374.208,-14.5075C382.485,-14.2995 391.161,-14.2176 399.753,-14.2615"/>
<polygon fill="midnightblue" stroke="midnightblue" points="399.733,-17.7614 409.771,-14.371 399.81,-10.7618 399.733,-17.7614"/>
</g>
<!-- Node4&#45;&gt;Node3 -->
<g id="edge4" class="edge"><title>Node4&#45;&gt;Node3</title>
<path fill="none" stroke="midnightblue" d="M409.771,-27.629C401.411,-27.77 392.784,-27.7878 384.357,-27.6823"/>
<polygon fill="midnightblue" stroke="midnightblue" points="384.271,-24.1802 374.208,-27.4925 384.14,-31.1789 384.271,-24.1802"/>
</g>
</g>
</svg>
