<?xml version="1.0" encoding="UTF-8" standalone="no"?>
<!DOCTYPE svg PUBLIC "-//W3C//DTD SVG 1.1//EN"
 "http://www.w3.org/Graphics/SVG/1.1/DTD/svg11.dtd">
<!-- Generated by graphviz version 2.38.0 (20140413.2041)
 -->
<!-- Title: softwarecontainer::Netlink::findAddresses Pages: 1 -->
<svg width="587pt" height="99pt"
 viewBox="0.00 0.00 587.00 99.00" xmlns="http://www.w3.org/2000/svg" xmlns:xlink="http://www.w3.org/1999/xlink">
<g id="graph0" class="graph" transform="scale(1 1) rotate(0) translate(4 95)">
<title>softwarecontainer::Netlink::findAddresses</title>
<polygon fill="white" stroke="none" points="-4,4 -4,-95 583,-95 583,4 -4,4"/>
<!-- Node1 -->
<g id="node1" class="node"><title>Node1</title>
<polygon fill="#bfbfbf" stroke="black" points="0,-0.5 0,-30.5 116,-30.5 116,-0.5 0,-0.5"/>
<text text-anchor="start" x="8" y="-18.5" font-family="Helvetica,sans-Serif" font-size="10.00">softwarecontainer::</text>
<text text-anchor="middle" x="58" y="-7.5" font-family="Helvetica,sans-Serif" font-size="10.00">Netlink::findAddresses</text>
</g>
<!-- Node2 -->
<g id="node2" class="node"><title>Node2</title>
<g id="a_node2"><a xlink:href="classsoftwarecontainer_1_1_netlink.html#acf303ede6bab6850147376b9a0d3ea7b" target="_top" xlink:title="check for a kernel dump, and if not present, try to get one ">
<polygon fill="white" stroke="black" points="152,-22.5 152,-52.5 286,-52.5 286,-22.5 152,-22.5"/>
<text text-anchor="start" x="160" y="-40.5" font-family="Helvetica,sans-Serif" font-size="10.00">softwarecontainer::</text>
<text text-anchor="middle" x="219" y="-29.5" font-family="Helvetica,sans-Serif" font-size="10.00">Netlink::checkKernelDump</text>
</a>
</g>
</g>
<!-- Node1&#45;&gt;Node2 -->
<g id="edge1" class="edge"><title>Node1&#45;&gt;Node2</title>
<path fill="none" stroke="midnightblue" d="M116.403,-23.4425C124.65,-24.5837 133.242,-25.7725 141.784,-26.9544"/>
<polygon fill="midnightblue" stroke="midnightblue" points="141.379,-30.4316 151.764,-28.3353 142.338,-23.4976 141.379,-30.4316"/>
</g>
<!-- Node4 -->
<g id="node4" class="node"><title>Node4</title>
<g id="a_node4"><a xlink:href="namespacesoftwarecontainer.html#a51a25e6a54b7bb79fc5b4ce8902a31a4" target="_top" xlink:title="isError Check if ReturnCode indicates Error or not ">
<polygon fill="white" stroke="black" points="479,-16.5 479,-46.5 579,-46.5 579,-16.5 479,-16.5"/>
<text text-anchor="start" x="487" y="-34.5" font-family="Helvetica,sans-Serif" font-size="10.00">softwarecontainer::</text>
<text text-anchor="middle" x="529" y="-23.5" font-family="Helvetica,sans-Serif" font-size="10.00">isError</text>
</a>
</g>
</g>
<!-- Node1&#45;&gt;Node4 -->
<g id="edge5" class="edge"><title>Node1&#45;&gt;Node4</title>
<path fill="none" stroke="midnightblue" d="M116.045,-13.3691C127.926,-13.0069 140.37,-12.6875 152,-12.5 211.548,-11.5398 226.49,-10.1675 286,-12.5 348.51,-14.9501 419.894,-20.9471 468.843,-25.5539"/>
<polygon fill="midnightblue" stroke="midnightblue" points="468.65,-29.0512 478.936,-26.5141 469.313,-22.0827 468.65,-29.0512"/>
</g>
<!-- Node3 -->
<g id="node3" class="node"><title>Node3</title>
<g id="a_node3"><a xlink:href="classsoftwarecontainer_1_1_netlink.html#a1756adb8382b2ed3c1518567862139c1" target="_top" xlink:title="get a dump of all links, addresses and routes from the kernel. ">
<polygon fill="white" stroke="black" points="322,-60.5 322,-90.5 443,-90.5 443,-60.5 322,-60.5"/>
<text text-anchor="start" x="330" y="-78.5" font-family="Helvetica,sans-Serif" font-size="10.00">softwarecontainer::</text>
<text text-anchor="middle" x="382.5" y="-67.5" font-family="Helvetica,sans-Serif" font-size="10.00">Netlink::getKernelDump</text>
</a>
</g>
</g>
<!-- Node2&#45;&gt;Node3 -->
<g id="edge2" class="edge"><title>Node2&#45;&gt;Node3</title>
<path fill="none" stroke="midnightblue" d="M283.829,-52.5186C293.023,-54.682 302.524,-56.9174 311.825,-59.1059"/>
<polygon fill="midnightblue" stroke="midnightblue" points="311.279,-62.573 321.815,-61.4565 312.883,-55.7591 311.279,-62.573"/>
</g>
<!-- Node2&#45;&gt;Node4 -->
<g id="edge4" class="edge"><title>Node2&#45;&gt;Node4</title>
<path fill="none" stroke="midnightblue" d="M286.074,-36.2128C340.261,-35.1572 416.291,-33.6761 468.58,-32.6575"/>
<polygon fill="midnightblue" stroke="midnightblue" points="468.778,-36.1544 478.708,-32.4602 468.642,-29.1558 468.778,-36.1544"/>
</g>
<!-- Node3&#45;&gt;Node4 -->
<g id="edge3" class="edge"><title>Node3&#45;&gt;Node4</title>
<path fill="none" stroke="midnightblue" d="M432.825,-60.4808C444.566,-56.9055 457.208,-53.0559 469.323,-49.3671"/>
<polygon fill="midnightblue" stroke="midnightblue" points="470.351,-52.7128 478.898,-46.4516 468.312,-46.0163 470.351,-52.7128"/>
</g>
</g>
</svg>
