<?xml version="1.0" encoding="UTF-8" standalone="no"?>
<!DOCTYPE svg PUBLIC "-//W3C//DTD SVG 1.1//EN"
 "http://www.w3.org/Graphics/SVG/1.1/DTD/svg11.dtd">
<!-- Generated by graphviz version 2.38.0 (20140413.2041)
 -->
<!-- Title: softwarecontainer::Netlink::findLink Pages: 1 -->
<svg width="571pt" height="99pt"
 viewBox="0.00 0.00 571.00 99.00" xmlns="http://www.w3.org/2000/svg" xmlns:xlink="http://www.w3.org/1999/xlink">
<g id="graph0" class="graph" transform="scale(1 1) rotate(0) translate(4 95)">
<title>softwarecontainer::Netlink::findLink</title>
<polygon fill="white" stroke="none" points="-4,4 -4,-95 567,-95 567,4 -4,4"/>
<!-- Node1 -->
<g id="node1" class="node"><title>Node1</title>
<polygon fill="#bfbfbf" stroke="black" points="0,-0.5 0,-30.5 100,-30.5 100,-0.5 0,-0.5"/>
<text text-anchor="start" x="8" y="-18.5" font-family="Helvetica,sans-Serif" font-size="10.00">softwarecontainer::</text>
<text text-anchor="middle" x="50" y="-7.5" font-family="Helvetica,sans-Serif" font-size="10.00">Netlink::findLink</text>
</g>
<!-- Node2 -->
<g id="node2" class="node"><title>Node2</title>
<g id="a_node2"><a xlink:href="classsoftwarecontainer_1_1_netlink.html#acf303ede6bab6850147376b9a0d3ea7b" target="_top" xlink:title="check for a kernel dump, and if not present, try to get one ">
<polygon fill="white" stroke="black" points="136,-22.5 136,-52.5 270,-52.5 270,-22.5 136,-22.5"/>
<text text-anchor="start" x="144" y="-40.5" font-family="Helvetica,sans-Serif" font-size="10.00">softwarecontainer::</text>
<text text-anchor="middle" x="203" y="-29.5" font-family="Helvetica,sans-Serif" font-size="10.00">Netlink::checkKernelDump</text>
</a>
</g>
</g>
<!-- Node1&#45;&gt;Node2 -->
<g id="edge1" class="edge"><title>Node1&#45;&gt;Node2</title>
<path fill="none" stroke="midnightblue" d="M100.025,-22.6428C108.347,-23.8552 117.16,-25.1392 125.982,-26.4245"/>
<polygon fill="midnightblue" stroke="midnightblue" points="125.521,-29.8942 135.921,-27.8726 126.53,-22.9674 125.521,-29.8942"/>
</g>
<!-- Node4 -->
<g id="node4" class="node"><title>Node4</title>
<g id="a_node4"><a xlink:href="namespacesoftwarecontainer.html#a51a25e6a54b7bb79fc5b4ce8902a31a4" target="_top" xlink:title="isError Check if ReturnCode indicates Error or not ">
<polygon fill="white" stroke="black" points="463,-16.5 463,-46.5 563,-46.5 563,-16.5 463,-16.5"/>
<text text-anchor="start" x="471" y="-34.5" font-family="Helvetica,sans-Serif" font-size="10.00">softwarecontainer::</text>
<text text-anchor="middle" x="513" y="-23.5" font-family="Helvetica,sans-Serif" font-size="10.00">isError</text>
</a>
</g>
</g>
<!-- Node1&#45;&gt;Node4 -->
<g id="edge5" class="edge"><title>Node1&#45;&gt;Node4</title>
<path fill="none" stroke="midnightblue" d="M100.433,-13.4605C112.095,-13.061 124.484,-12.7032 136,-12.5 195.546,-11.4495 210.49,-10.1675 270,-12.5 332.51,-14.9501 403.894,-20.9471 452.843,-25.5539"/>
<polygon fill="midnightblue" stroke="midnightblue" points="452.65,-29.0512 462.936,-26.5141 453.313,-22.0827 452.65,-29.0512"/>
</g>
<!-- Node3 -->
<g id="node3" class="node"><title>Node3</title>
<g id="a_node3"><a xlink:href="classsoftwarecontainer_1_1_netlink.html#a1756adb8382b2ed3c1518567862139c1" target="_top" xlink:title="get a dump of all links, addresses and routes from the kernel. ">
<polygon fill="white" stroke="black" points="306,-60.5 306,-90.5 427,-90.5 427,-60.5 306,-60.5"/>
<text text-anchor="start" x="314" y="-78.5" font-family="Helvetica,sans-Serif" font-size="10.00">softwarecontainer::</text>
<text text-anchor="middle" x="366.5" y="-67.5" font-family="Helvetica,sans-Serif" font-size="10.00">Netlink::getKernelDump</text>
</a>
</g>
</g>
<!-- Node2&#45;&gt;Node3 -->
<g id="edge2" class="edge"><title>Node2&#45;&gt;Node3</title>
<path fill="none" stroke="midnightblue" d="M267.829,-52.5186C277.023,-54.682 286.524,-56.9174 295.825,-59.1059"/>
<polygon fill="midnightblue" stroke="midnightblue" points="295.279,-62.573 305.815,-61.4565 296.883,-55.7591 295.279,-62.573"/>
</g>
<!-- Node2&#45;&gt;Node4 -->
<g id="edge4" class="edge"><title>Node2&#45;&gt;Node4</title>
<path fill="none" stroke="midnightblue" d="M270.074,-36.2128C324.261,-35.1572 400.291,-33.6761 452.58,-32.6575"/>
<polygon fill="midnightblue" stroke="midnightblue" points="452.778,-36.1544 462.708,-32.4602 452.642,-29.1558 452.778,-36.1544"/>
</g>
<!-- Node3&#45;&gt;Node4 -->
<g id="edge3" class="edge"><title>Node3&#45;&gt;Node4</title>
<path fill="none" stroke="midnightblue" d="M416.825,-60.4808C428.566,-56.9055 441.208,-53.0559 453.323,-49.3671"/>
<polygon fill="midnightblue" stroke="midnightblue" points="454.351,-52.7128 462.898,-46.4516 452.312,-46.0163 454.351,-52.7128"/>
</g>
</g>
</svg>
