<?xml version="1.0" encoding="UTF-8" standalone="no"?>
<!DOCTYPE svg PUBLIC "-//W3C//DTD SVG 1.1//EN"
 "http://www.w3.org/Graphics/SVG/1.1/DTD/svg11.dtd">
<!-- Generated by graphviz version 2.38.0 (20140413.2041)
 -->
<!-- Title: DBusGateway::activateGateway Pages: 1 -->
<svg width="552pt" height="66pt"
 viewBox="0.00 0.00 552.00 66.00" xmlns="http://www.w3.org/2000/svg" xmlns:xlink="http://www.w3.org/1999/xlink">
<g id="graph0" class="graph" transform="scale(1 1) rotate(0) translate(4 62)">
<title>DBusGateway::activateGateway</title>
<polygon fill="white" stroke="none" points="-4,4 -4,-62 548,-62 548,4 -4,4"/>
<!-- Node1 -->
<g id="node1" class="node"><title>Node1</title>
<polygon fill="#bfbfbf" stroke="black" points="0,-19.5 0,-38.5 168,-38.5 168,-19.5 0,-19.5"/>
<text text-anchor="middle" x="84" y="-26.5" font-family="Helvetica,sans-Serif" font-size="10.00">DBusGateway::activateGateway</text>
</g>
<!-- Node2 -->
<g id="node2" class="node"><title>Node2</title>
<g id="a_node2"><a xlink:href="class_gateway.html#a828b2dfa811c7fcce82d34b502e65112" target="_top" xlink:title="Set an environment variable in the associated container. ">
<polygon fill="white" stroke="black" points="204,-19.5 204,-38.5 381,-38.5 381,-19.5 204,-19.5"/>
<text text-anchor="middle" x="292.5" y="-26.5" font-family="Helvetica,sans-Serif" font-size="10.00">Gateway::setEnvironmentVariable</text>
</a>
</g>
</g>
<!-- Node1&#45;&gt;Node2 -->
<g id="edge1" class="edge"><title>Node1&#45;&gt;Node2</title>
<path fill="none" stroke="midnightblue" d="M168.099,-29C176.557,-29 185.202,-29 193.797,-29"/>
<polygon fill="midnightblue" stroke="midnightblue" points="193.848,-32.5001 203.848,-29 193.848,-25.5001 193.848,-32.5001"/>
</g>
<!-- Node3 -->
<g id="node3" class="node"><title>Node3</title>
<g id="a_node3"><a xlink:href="class_gateway.html#ab03846b347174727f70ab4e4ce5db09f" target="_top" xlink:title="Get a handle to the associated container. ">
<polygon fill="white" stroke="black" points="418,-38.5 418,-57.5 543,-57.5 543,-38.5 418,-38.5"/>
<text text-anchor="middle" x="480.5" y="-45.5" font-family="Helvetica,sans-Serif" font-size="10.00">Gateway::getContainer</text>
</a>
</g>
</g>
<!-- Node2&#45;&gt;Node3 -->
<g id="edge2" class="edge"><title>Node2&#45;&gt;Node3</title>
<path fill="none" stroke="midnightblue" d="M381.054,-37.9436C389.993,-38.8568 399,-39.7769 407.742,-40.6699"/>
<polygon fill="midnightblue" stroke="midnightblue" points="407.559,-44.1694 417.863,-41.7038 408.271,-37.2056 407.559,-44.1694"/>
</g>
<!-- Node4 -->
<g id="node4" class="node"><title>Node4</title>
<g id="a_node4"><a xlink:href="class_gateway.html#ad66eea64014d7eb2927c1f576b3cf2b2" target="_top" xlink:title="Check if the gateway has an associated container. ">
<polygon fill="white" stroke="black" points="417,-0.5 417,-19.5 544,-19.5 544,-0.5 417,-0.5"/>
<text text-anchor="middle" x="480.5" y="-7.5" font-family="Helvetica,sans-Serif" font-size="10.00">Gateway::hasContainer</text>
</a>
</g>
</g>
<!-- Node2&#45;&gt;Node4 -->
<g id="edge3" class="edge"><title>Node2&#45;&gt;Node4</title>
<path fill="none" stroke="midnightblue" d="M381.054,-20.0564C389.628,-19.1805 398.264,-18.2983 406.67,-17.4397"/>
<polygon fill="midnightblue" stroke="midnightblue" points="407.196,-20.9042 416.788,-16.406 406.484,-13.9405 407.196,-20.9042"/>
</g>
</g>
</svg>
