<?xml version="1.0" encoding="UTF-8" standalone="no"?>
<!DOCTYPE svg PUBLIC "-//W3C//DTD SVG 1.1//EN"
 "http://www.w3.org/Graphics/SVG/1.1/DTD/svg11.dtd">
<!-- Generated by graphviz version 2.38.0 (20140413.2041)
 -->
<!-- Title: softwarecontainer::FileToolkitWithUndo::tempDir Pages: 1 -->
<svg width="427pt" height="50pt"
 viewBox="0.00 0.00 427.00 50.00" xmlns="http://www.w3.org/2000/svg" xmlns:xlink="http://www.w3.org/1999/xlink">
<g id="graph0" class="graph" transform="scale(1 1) rotate(0) translate(4 46)">
<title>softwarecontainer::FileToolkitWithUndo::tempDir</title>
<polygon fill="white" stroke="none" points="-4,4 -4,-46 423,-46 423,4 -4,4"/>
<!-- Node1 -->
<g id="node1" class="node"><title>Node1</title>
<polygon fill="#bfbfbf" stroke="black" points="0,-0.5 0,-41.5 105,-41.5 105,-0.5 0,-0.5"/>
<text text-anchor="start" x="8" y="-29.5" font-family="Helvetica,sans-Serif" font-size="10.00">softwarecontainer::</text>
<text text-anchor="start" x="8" y="-18.5" font-family="Helvetica,sans-Serif" font-size="10.00">FileToolkitWithUndo</text>
<text text-anchor="middle" x="52.5" y="-7.5" font-family="Helvetica,sans-Serif" font-size="10.00">::tempDir</text>
</g>
<!-- Node2 -->
<g id="node2" class="node"><title>Node2</title>
<g id="a_node2"><a xlink:href="classsoftwarecontainer_1_1_file_toolkit_with_undo.html#a33c6fa5ecfb8e370ae8bb6aedf568336" target="_top" xlink:title="bindMount Bind mount a src directory to another position dst. ">
<polygon fill="white" stroke="black" points="141,-0.5 141,-41.5 246,-41.5 246,-0.5 141,-0.5"/>
<text text-anchor="start" x="149" y="-29.5" font-family="Helvetica,sans-Serif" font-size="10.00">softwarecontainer::</text>
<text text-anchor="start" x="149" y="-18.5" font-family="Helvetica,sans-Serif" font-size="10.00">FileToolkitWithUndo</text>
<text text-anchor="middle" x="193.5" y="-7.5" font-family="Helvetica,sans-Serif" font-size="10.00">::bindMount</text>
</a>
</g>
</g>
<!-- Node1&#45;&gt;Node2 -->
<g id="edge1" class="edge"><title>Node1&#45;&gt;Node2</title>
<path fill="none" stroke="midnightblue" d="M115.441,-21C123.878,-21 132.466,-21 140.698,-21"/>
<polygon fill="midnightblue" stroke="midnightblue" points="115.259,-17.5001 105.258,-21 115.258,-24.5001 115.259,-17.5001"/>
</g>
<!-- Node3 -->
<g id="node3" class="node"><title>Node3</title>
<g id="a_node3"><a xlink:href="class_container.html#af602c6e290b0f9f5abb78bbc3b0828cd" target="_top" xlink:title="Bind mount a directory from the host into the container. ">
<polygon fill="white" stroke="black" points="282,-6 282,-36 419,-36 419,-6 282,-6"/>
<text text-anchor="start" x="290" y="-24" font-family="Helvetica,sans-Serif" font-size="10.00">Container::bindMountFolder</text>
<text text-anchor="middle" x="350.5" y="-13" font-family="Helvetica,sans-Serif" font-size="10.00">InContainer</text>
</a>
</g>
</g>
<!-- Node2&#45;&gt;Node3 -->
<g id="edge2" class="edge"><title>Node2&#45;&gt;Node3</title>
<path fill="none" stroke="midnightblue" d="M256.226,-21C264.646,-21 273.325,-21 281.842,-21"/>
<polygon fill="midnightblue" stroke="midnightblue" points="256.113,-17.5001 246.113,-21 256.113,-24.5001 256.113,-17.5001"/>
</g>
</g>
</svg>
