<?xml version="1.0" encoding="UTF-8" standalone="no"?>
<!DOCTYPE svg PUBLIC "-//W3C//DTD SVG 1.1//EN"
 "http://www.w3.org/Graphics/SVG/1.1/DTD/svg11.dtd">
<!-- Generated by graphviz version 2.38.0 (20140413.2041)
 -->
<!-- Title: softwarecontainer::Workspace::checkWorkspace Pages: 1 -->
<svg width="438pt" height="147pt"
 viewBox="0.00 0.00 438.00 147.00" xmlns="http://www.w3.org/2000/svg" xmlns:xlink="http://www.w3.org/1999/xlink">
<g id="graph0" class="graph" transform="scale(1 1) rotate(0) translate(4 143)">
<title>softwarecontainer::Workspace::checkWorkspace</title>
<polygon fill="white" stroke="none" points="-4,4 -4,-143 434,-143 434,4 -4,4"/>
<!-- Node1 -->
<g id="node1" class="node"><title>Node1</title>
<polygon fill="#bfbfbf" stroke="black" points="0,-54.5 0,-84.5 148,-84.5 148,-54.5 0,-54.5"/>
<text text-anchor="start" x="8" y="-72.5" font-family="Helvetica,sans-Serif" font-size="10.00">softwarecontainer::</text>
<text text-anchor="middle" x="74" y="-61.5" font-family="Helvetica,sans-Serif" font-size="10.00">Workspace::checkWorkspace</text>
</g>
<!-- Node2 -->
<g id="node2" class="node"><title>Node2</title>
<g id="a_node2"><a xlink:href="classsoftwarecontainer_1_1_file_toolkit_with_undo.html#aff5073fb683649d6753baae354d202b9" target="_top" xlink:title="createDirectory Create a directory, and if successful append it to a list of dirs to be deleted in th...">
<polygon fill="white" stroke="black" points="184,-49 184,-90 289,-90 289,-49 184,-49"/>
<text text-anchor="start" x="192" y="-78" font-family="Helvetica,sans-Serif" font-size="10.00">softwarecontainer::</text>
<text text-anchor="start" x="192" y="-67" font-family="Helvetica,sans-Serif" font-size="10.00">FileToolkitWithUndo</text>
<text text-anchor="middle" x="236.5" y="-56" font-family="Helvetica,sans-Serif" font-size="10.00">::createDirectory</text>
</a>
</g>
</g>
<!-- Node1&#45;&gt;Node2 -->
<g id="edge1" class="edge"><title>Node1&#45;&gt;Node2</title>
<path fill="none" stroke="midnightblue" d="M148.205,-69.5C156.786,-69.5 165.476,-69.5 173.878,-69.5"/>
<polygon fill="midnightblue" stroke="midnightblue" points="173.956,-73.0001 183.956,-69.5 173.956,-66.0001 173.956,-73.0001"/>
</g>
<!-- Node3 -->
<g id="node3" class="node"><title>Node3</title>
<g id="a_node3"><a xlink:href="namespacesoftwarecontainer.html#a44f64c34c09d1ffdb18428b41f0d9e91" target="_top" xlink:title="isDirectory Check if path is a directory ">
<polygon fill="white" stroke="black" points="327.5,-108.5 327.5,-138.5 427.5,-138.5 427.5,-108.5 327.5,-108.5"/>
<text text-anchor="start" x="335.5" y="-126.5" font-family="Helvetica,sans-Serif" font-size="10.00">softwarecontainer::</text>
<text text-anchor="middle" x="377.5" y="-115.5" font-family="Helvetica,sans-Serif" font-size="10.00">isDirectory</text>
</a>
</g>
</g>
<!-- Node1&#45;&gt;Node3 -->
<g id="edge5" class="edge"><title>Node1&#45;&gt;Node3</title>
<path fill="none" stroke="midnightblue" d="M123.745,-84.5359C142.446,-89.8756 164.076,-95.5377 184,-99.5 228.082,-108.267 278.517,-114.415 316.702,-118.293"/>
<polygon fill="midnightblue" stroke="midnightblue" points="316.835,-121.823 327.131,-119.327 317.525,-114.857 316.835,-121.823"/>
</g>
<!-- Node4 -->
<g id="node4" class="node"><title>Node4</title>
<g id="a_node4"><a xlink:href="namespacesoftwarecontainer.html#a51a25e6a54b7bb79fc5b4ce8902a31a4" target="_top" xlink:title="isError Check if ReturnCode indicates Error or not ">
<polygon fill="white" stroke="black" points="327.5,-0.5 327.5,-30.5 427.5,-30.5 427.5,-0.5 327.5,-0.5"/>
<text text-anchor="start" x="335.5" y="-18.5" font-family="Helvetica,sans-Serif" font-size="10.00">softwarecontainer::</text>
<text text-anchor="middle" x="377.5" y="-7.5" font-family="Helvetica,sans-Serif" font-size="10.00">isError</text>
</a>
</g>
</g>
<!-- Node1&#45;&gt;Node4 -->
<g id="edge6" class="edge"><title>Node1&#45;&gt;Node4</title>
<path fill="none" stroke="midnightblue" d="M123.745,-54.4641C142.446,-49.1244 164.076,-43.4623 184,-39.5 228.082,-30.7334 278.517,-24.5848 316.702,-20.707"/>
<polygon fill="midnightblue" stroke="midnightblue" points="317.525,-24.1426 327.131,-19.6732 316.835,-17.1767 317.525,-24.1426"/>
</g>
<!-- Node2&#45;&gt;Node3 -->
<g id="edge2" class="edge"><title>Node2&#45;&gt;Node3</title>
<path fill="none" stroke="midnightblue" d="M289.258,-89.6076C302.052,-94.5778 315.706,-99.882 328.321,-104.783"/>
<polygon fill="midnightblue" stroke="midnightblue" points="327.146,-108.081 337.735,-108.44 329.681,-101.556 327.146,-108.081"/>
</g>
<!-- Node2&#45;&gt;Node4 -->
<g id="edge3" class="edge"><title>Node2&#45;&gt;Node4</title>
<path fill="none" stroke="midnightblue" d="M289.258,-49.3924C302.052,-44.4222 315.706,-39.118 328.321,-34.217"/>
<polygon fill="midnightblue" stroke="midnightblue" points="329.681,-37.4437 337.735,-30.56 327.146,-30.9188 329.681,-37.4437"/>
</g>
<!-- Node5 -->
<g id="node5" class="node"><title>Node5</title>
<g id="a_node5"><a xlink:href="classsoftwarecontainer_1_1_file_toolkit_with_undo.html#a44a19890b72a635b3134cb2a07fc0875" target="_top" xlink:title="checks whether given path is already added to clean up handlers or not ">
<polygon fill="white" stroke="black" points="325,-49 325,-90 430,-90 430,-49 325,-49"/>
<text text-anchor="start" x="333" y="-78" font-family="Helvetica,sans-Serif" font-size="10.00">softwarecontainer::</text>
<text text-anchor="start" x="333" y="-67" font-family="Helvetica,sans-Serif" font-size="10.00">FileToolkitWithUndo</text>
<text text-anchor="middle" x="377.5" y="-56" font-family="Helvetica,sans-Serif" font-size="10.00">::pathInList</text>
</a>
</g>
</g>
<!-- Node2&#45;&gt;Node5 -->
<g id="edge4" class="edge"><title>Node2&#45;&gt;Node5</title>
<path fill="none" stroke="midnightblue" d="M289.258,-69.5C297.49,-69.5 306.077,-69.5 314.514,-69.5"/>
<polygon fill="midnightblue" stroke="midnightblue" points="314.698,-73.0001 324.698,-69.5 314.698,-66.0001 314.698,-73.0001"/>
</g>
</g>
</svg>
