<?xml version="1.0" encoding="UTF-8" standalone="no"?>
<!DOCTYPE svg PUBLIC "-//W3C//DTD SVG 1.1//EN"
 "http://www.w3.org/Graphics/SVG/1.1/DTD/svg11.dtd">
<!-- Generated by graphviz version 2.38.0 (20140413.2041)
 -->
<!-- Title: softwarecontainer::DBusGatewayInstance::activateGateway Pages: 1 -->
<svg width="635pt" height="127pt"
 viewBox="0.00 0.00 635.00 127.00" xmlns="http://www.w3.org/2000/svg" xmlns:xlink="http://www.w3.org/1999/xlink">
<g id="graph0" class="graph" transform="scale(1 1) rotate(0) translate(4 123)">
<title>softwarecontainer::DBusGatewayInstance::activateGateway</title>
<polygon fill="white" stroke="none" points="-4,4 -4,-123 631,-123 631,4 -4,4"/>
<!-- Node1 -->
<g id="node1" class="node"><title>Node1</title>
<polygon fill="#bfbfbf" stroke="black" points="0,-39 0,-80 118,-80 118,-39 0,-39"/>
<text text-anchor="start" x="8" y="-68" font-family="Helvetica,sans-Serif" font-size="10.00">softwarecontainer::</text>
<text text-anchor="start" x="8" y="-57" font-family="Helvetica,sans-Serif" font-size="10.00">DBusGatewayInstance</text>
<text text-anchor="middle" x="59" y="-46" font-family="Helvetica,sans-Serif" font-size="10.00">::activateGateway</text>
</g>
<!-- Node2 -->
<g id="node2" class="node"><title>Node2</title>
<g id="a_node2"><a xlink:href="classsoftwarecontainer_1_1_gateway.html#ab048dec9bf64f292e2a9c7f10c3e784b" target="_top" xlink:title="Set an environment variable in the associated container. ">
<polygon fill="white" stroke="black" points="154,-44.5 154,-74.5 319,-74.5 319,-44.5 154,-44.5"/>
<text text-anchor="start" x="162" y="-62.5" font-family="Helvetica,sans-Serif" font-size="10.00">softwarecontainer::</text>
<text text-anchor="middle" x="236.5" y="-51.5" font-family="Helvetica,sans-Serif" font-size="10.00">Gateway::setEnvironmentVariable</text>
</a>
</g>
</g>
<!-- Node1&#45;&gt;Node2 -->
<g id="edge1" class="edge"><title>Node1&#45;&gt;Node2</title>
<path fill="none" stroke="midnightblue" d="M118.439,-59.5C126.609,-59.5 135.162,-59.5 143.767,-59.5"/>
<polygon fill="midnightblue" stroke="midnightblue" points="143.871,-63.0001 153.871,-59.5 143.871,-56.0001 143.871,-63.0001"/>
</g>
<!-- Node3 -->
<g id="node3" class="node"><title>Node3</title>
<g id="a_node3"><a xlink:href="classsoftwarecontainer_1_1_gateway.html#a6f0a60c9f29ea869916f7524085b3e5f" target="_top" xlink:title="Get a handle to the associated container. ">
<polygon fill="white" stroke="black" points="355,-88.5 355,-118.5 472,-118.5 472,-88.5 355,-88.5"/>
<text text-anchor="start" x="363" y="-106.5" font-family="Helvetica,sans-Serif" font-size="10.00">softwarecontainer::</text>
<text text-anchor="middle" x="413.5" y="-95.5" font-family="Helvetica,sans-Serif" font-size="10.00">Gateway::getContainer</text>
</a>
</g>
</g>
<!-- Node2&#45;&gt;Node3 -->
<g id="edge2" class="edge"><title>Node2&#45;&gt;Node3</title>
<path fill="none" stroke="midnightblue" d="M297.236,-74.5192C312.506,-78.3586 329.034,-82.5144 344.678,-86.4476"/>
<polygon fill="midnightblue" stroke="midnightblue" points="344.257,-89.9505 354.808,-88.9946 345.964,-83.1618 344.257,-89.9505"/>
</g>
<!-- Node4 -->
<g id="node4" class="node"><title>Node4</title>
<g id="a_node4"><a xlink:href="classsoftwarecontainer_1_1_gateway.html#a5e1b860ea7c1ed7b69d2e5dd7021a527" target="_top" xlink:title="Check if the gateway has an associated container. ">
<polygon fill="white" stroke="black" points="508,-68.5 508,-98.5 627,-98.5 627,-68.5 508,-68.5"/>
<text text-anchor="start" x="516" y="-86.5" font-family="Helvetica,sans-Serif" font-size="10.00">softwarecontainer::</text>
<text text-anchor="middle" x="567.5" y="-75.5" font-family="Helvetica,sans-Serif" font-size="10.00">Gateway::hasContainer</text>
</a>
</g>
</g>
<!-- Node2&#45;&gt;Node4 -->
<g id="edge4" class="edge"><title>Node2&#45;&gt;Node4</title>
<path fill="none" stroke="midnightblue" d="M319.249,-65.4634C374.2,-69.472 445.81,-74.6959 497.811,-78.4893"/>
<polygon fill="midnightblue" stroke="midnightblue" points="497.711,-81.9912 507.939,-79.2281 498.22,-75.0097 497.711,-81.9912"/>
</g>
<!-- Node5 -->
<g id="node5" class="node"><title>Node5</title>
<g id="a_node5"><a xlink:href="namespacesoftwarecontainer.html#a7e308629b69d1bcc3bc5e8ceac9b5a2a" target="_top" xlink:title="isSuccess Check if ReturnCode indicates Success or not ">
<polygon fill="white" stroke="black" points="363.5,-0.5 363.5,-30.5 463.5,-30.5 463.5,-0.5 363.5,-0.5"/>
<text text-anchor="start" x="371.5" y="-18.5" font-family="Helvetica,sans-Serif" font-size="10.00">softwarecontainer::</text>
<text text-anchor="middle" x="413.5" y="-7.5" font-family="Helvetica,sans-Serif" font-size="10.00">isSuccess</text>
</a>
</g>
</g>
<!-- Node2&#45;&gt;Node5 -->
<g id="edge5" class="edge"><title>Node2&#45;&gt;Node5</title>
<path fill="none" stroke="midnightblue" d="M297.236,-44.4808C315.448,-39.9016 335.451,-34.8722 353.608,-30.3071"/>
<polygon fill="midnightblue" stroke="midnightblue" points="354.637,-33.6574 363.482,-27.8246 352.93,-26.8687 354.637,-33.6574"/>
</g>
<!-- Node3&#45;&gt;Node4 -->
<g id="edge3" class="edge"><title>Node3&#45;&gt;Node4</title>
<path fill="none" stroke="midnightblue" d="M472.398,-95.8818C480.629,-94.7988 489.161,-93.6762 497.576,-92.5689"/>
<polygon fill="midnightblue" stroke="midnightblue" points="498.297,-96.0043 507.755,-91.2296 497.384,-89.0642 498.297,-96.0043"/>
</g>
<!-- Node6 -->
<g id="node6" class="node"><title>Node6</title>
<g id="a_node6"><a xlink:href="namespacesoftwarecontainer.html#a51a25e6a54b7bb79fc5b4ce8902a31a4" target="_top" xlink:title="isError Check if ReturnCode indicates Error or not ">
<polygon fill="white" stroke="black" points="517.5,-0.5 517.5,-30.5 617.5,-30.5 617.5,-0.5 517.5,-0.5"/>
<text text-anchor="start" x="525.5" y="-18.5" font-family="Helvetica,sans-Serif" font-size="10.00">softwarecontainer::</text>
<text text-anchor="middle" x="567.5" y="-7.5" font-family="Helvetica,sans-Serif" font-size="10.00">isError</text>
</a>
</g>
</g>
<!-- Node5&#45;&gt;Node6 -->
<g id="edge6" class="edge"><title>Node5&#45;&gt;Node6</title>
<path fill="none" stroke="midnightblue" d="M463.85,-15.5C477.661,-15.5 492.817,-15.5 507.144,-15.5"/>
<polygon fill="midnightblue" stroke="midnightblue" points="507.398,-19.0001 517.398,-15.5 507.398,-12.0001 507.398,-19.0001"/>
</g>
</g>
</svg>
