<?xml version="1.0" encoding="UTF-8" standalone="no"?>
<!DOCTYPE svg PUBLIC "-//W3C//DTD SVG 1.1//EN"
 "http://www.w3.org/Graphics/SVG/1.1/DTD/svg11.dtd">
<!-- Generated by graphviz version 2.38.0 (20140413.2041)
 -->
<!-- Title: agent/src/capability/configstore.h Pages: 1 -->
<svg width="444pt" height="218pt"
 viewBox="0.00 0.00 444.00 218.00" xmlns="http://www.w3.org/2000/svg" xmlns:xlink="http://www.w3.org/1999/xlink">
<g id="graph0" class="graph" transform="scale(1 1) rotate(0) translate(4 214)">
<title>agent/src/capability/configstore.h</title>
<polygon fill="white" stroke="none" points="-4,4 -4,-214 440,-214 440,4 -4,4"/>
<!-- Node1 -->
<g id="node1" class="node"><title>Node1</title>
<polygon fill="#bfbfbf" stroke="black" points="113.5,-179.5 113.5,-209.5 214.5,-209.5 214.5,-179.5 113.5,-179.5"/>
<text text-anchor="start" x="121.5" y="-197.5" font-family="Helvetica,sans-Serif" font-size="10.00">agent/src/capability</text>
<text text-anchor="middle" x="164" y="-186.5" font-family="Helvetica,sans-Serif" font-size="10.00">/configstore.h</text>
</g>
<!-- Node2 -->
<g id="node2" class="node"><title>Node2</title>
<g id="a_node2"><a xlink:href="configstore_8cpp_source.html" target="_top" xlink:title="agent/src/capability\l/configstore.cpp">
<polygon fill="white" stroke="black" points="36.5,-112.5 36.5,-142.5 137.5,-142.5 137.5,-112.5 36.5,-112.5"/>
<text text-anchor="start" x="44.5" y="-130.5" font-family="Helvetica,sans-Serif" font-size="10.00">agent/src/capability</text>
<text text-anchor="middle" x="87" y="-119.5" font-family="Helvetica,sans-Serif" font-size="10.00">/configstore.cpp</text>
</a>
</g>
</g>
<!-- Node1&#45;&gt;Node2 -->
<g id="edge1" class="edge"><title>Node1&#45;&gt;Node2</title>
<path fill="none" stroke="midnightblue" d="M139.577,-172.883C127.876,-163.005 114.162,-151.429 103.675,-142.577"/>
<polygon fill="midnightblue" stroke="midnightblue" points="137.393,-175.62 147.292,-179.396 141.908,-170.271 137.393,-175.62"/>
</g>
<!-- Node3 -->
<g id="node3" class="node"><title>Node3</title>
<g id="a_node3"><a xlink:href="softwarecontaineragent_8h.html" target="_top" xlink:title="Contains the softwarecontainer::SoftwareContainerAgent class. ">
<polygon fill="white" stroke="black" points="156,-118 156,-137 326,-137 326,-118 156,-118"/>
<text text-anchor="middle" x="241" y="-125" font-family="Helvetica,sans-Serif" font-size="10.00">agent/src/softwarecontaineragent.h</text>
</a>
</g>
</g>
<!-- Node1&#45;&gt;Node3 -->
<g id="edge2" class="edge"><title>Node1&#45;&gt;Node3</title>
<path fill="none" stroke="midnightblue" d="M188.673,-172.672C202.89,-160.671 220.008,-146.22 230.7,-137.195"/>
<polygon fill="midnightblue" stroke="midnightblue" points="186.092,-170.271 180.708,-179.396 190.607,-175.62 186.092,-170.271"/>
</g>
<!-- Node4 -->
<g id="node4" class="node"><title>Node4</title>
<g id="a_node4"><a xlink:href="softwarecontaineragentadaptor_8h_source.html" target="_top" xlink:title="agent/src/softwarecontaineragentadaptor.h">
<polygon fill="white" stroke="black" points="36,-56.5 36,-75.5 238,-75.5 238,-56.5 36,-56.5"/>
<text text-anchor="middle" x="137" y="-63.5" font-family="Helvetica,sans-Serif" font-size="10.00">agent/src/softwarecontaineragentadaptor.h</text>
</a>
</g>
</g>
<!-- Node3&#45;&gt;Node4 -->
<g id="edge3" class="edge"><title>Node3&#45;&gt;Node4</title>
<path fill="none" stroke="midnightblue" d="M217.23,-112.901C197.12,-101.396 168.928,-85.2667 151.873,-75.5091"/>
<polygon fill="midnightblue" stroke="midnightblue" points="215.681,-116.047 226.099,-117.975 219.158,-109.971 215.681,-116.047"/>
</g>
<!-- Node7 -->
<g id="node7" class="node"><title>Node7</title>
<g id="a_node7"><a xlink:href="softwarecontaineragent_8cpp_source.html" target="_top" xlink:title="agent/src/softwarecontaineragent.cpp">
<polygon fill="white" stroke="black" points="256,-56.5 256,-75.5 436,-75.5 436,-56.5 256,-56.5"/>
<text text-anchor="middle" x="346" y="-63.5" font-family="Helvetica,sans-Serif" font-size="10.00">agent/src/softwarecontaineragent.cpp</text>
</a>
</g>
</g>
<!-- Node3&#45;&gt;Node7 -->
<g id="edge6" class="edge"><title>Node3&#45;&gt;Node7</title>
<path fill="none" stroke="midnightblue" d="M264.999,-112.901C285.302,-101.396 313.765,-85.2667 330.984,-75.5091"/>
<polygon fill="midnightblue" stroke="midnightblue" points="263.019,-110 256.044,-117.975 266.47,-116.09 263.019,-110"/>
</g>
<!-- Node5 -->
<g id="node5" class="node"><title>Node5</title>
<g id="a_node5"><a xlink:href="main_8cpp_source.html" target="_top" xlink:title="agent/src/main.cpp">
<polygon fill="white" stroke="black" points="0,-0.5 0,-19.5 100,-19.5 100,-0.5 0,-0.5"/>
<text text-anchor="middle" x="50" y="-7.5" font-family="Helvetica,sans-Serif" font-size="10.00">agent/src/main.cpp</text>
</a>
</g>
</g>
<!-- Node4&#45;&gt;Node5 -->
<g id="edge4" class="edge"><title>Node4&#45;&gt;Node5</title>
<path fill="none" stroke="midnightblue" d="M114.284,-50.9005C98.3311,-40.9986 77.5025,-28.0705 63.9434,-19.6545"/>
<polygon fill="midnightblue" stroke="midnightblue" points="112.68,-54.024 123.022,-56.324 116.371,-48.0765 112.68,-54.024"/>
</g>
<!-- Node6 -->
<g id="node6" class="node"><title>Node6</title>
<g id="a_node6"><a xlink:href="softwarecontaineragentadaptor_8cpp_source.html" target="_top" xlink:title="agent/src/softwarecontaineragentadaptor.cpp">
<polygon fill="white" stroke="black" points="118,-0.5 118,-19.5 330,-19.5 330,-0.5 118,-0.5"/>
<text text-anchor="middle" x="224" y="-7.5" font-family="Helvetica,sans-Serif" font-size="10.00">agent/src/softwarecontaineragentadaptor.cpp</text>
</a>
</g>
</g>
<!-- Node4&#45;&gt;Node6 -->
<g id="edge5" class="edge"><title>Node4&#45;&gt;Node6</title>
<path fill="none" stroke="midnightblue" d="M159.716,-50.9005C175.669,-40.9986 196.497,-28.0705 210.057,-19.6545"/>
<polygon fill="midnightblue" stroke="midnightblue" points="157.629,-48.0765 150.978,-56.324 161.32,-54.024 157.629,-48.0765"/>
</g>
</g>
</svg>
