<?xml version="1.0" encoding="UTF-8" standalone="no"?>
<!DOCTYPE svg PUBLIC "-//W3C//DTD SVG 1.1//EN"
 "http://www.w3.org/Graphics/SVG/1.1/DTD/svg11.dtd">
<!-- Generated by graphviz version 2.38.0 (20140413.2041)
 -->
<!-- Title: agent/src/capability/configstore.h Pages: 1 -->
<svg width="883pt" height="207pt"
 viewBox="0.00 0.00 883.00 207.00" xmlns="http://www.w3.org/2000/svg" xmlns:xlink="http://www.w3.org/1999/xlink">
<g id="graph0" class="graph" transform="scale(1 1) rotate(0) translate(4 203)">
<title>agent/src/capability/configstore.h</title>
<polygon fill="white" stroke="none" points="-4,4 -4,-203 879,-203 879,4 -4,4"/>
<!-- Node1 -->
<g id="node1" class="node"><title>Node1</title>
<polygon fill="#bfbfbf" stroke="black" points="546.5,-168.5 546.5,-198.5 647.5,-198.5 647.5,-168.5 546.5,-168.5"/>
<text text-anchor="start" x="554.5" y="-186.5" font-family="Helvetica,sans-Serif" font-size="10.00">agent/src/capability</text>
<text text-anchor="middle" x="597" y="-175.5" font-family="Helvetica,sans-Serif" font-size="10.00">/configstore.h</text>
</g>
<!-- Node2 -->
<g id="node2" class="node"><title>Node2</title>
<g id="a_node2"><a xlink:href="softwarecontainer-common_8h_source.html" target="_top" xlink:title="softwarecontainer&#45;common.h">
<polygon fill="white" stroke="black" points="422.5,-112.5 422.5,-131.5 565.5,-131.5 565.5,-112.5 422.5,-112.5"/>
<text text-anchor="middle" x="494" y="-119.5" font-family="Helvetica,sans-Serif" font-size="10.00">softwarecontainer&#45;common.h</text>
</a>
</g>
</g>
<!-- Node1&#45;&gt;Node2 -->
<g id="edge1" class="edge"><title>Node1&#45;&gt;Node2</title>
<path fill="none" stroke="midnightblue" d="M572.59,-168.399C556.08,-158.862 534.377,-146.325 517.962,-136.842"/>
<polygon fill="midnightblue" stroke="midnightblue" points="519.397,-133.629 508.987,-131.658 515.896,-139.691 519.397,-133.629"/>
</g>
<!-- Node15 -->
<g id="node15" class="node"><title>Node15</title>
<g id="a_node15"><a xlink:href="jsonparser_8h_source.html" target="_top" xlink:title="jsonparser.h">
<polygon fill="white" stroke="black" points="665,-112.5 665,-131.5 735,-131.5 735,-112.5 665,-112.5"/>
<text text-anchor="middle" x="700" y="-119.5" font-family="Helvetica,sans-Serif" font-size="10.00">jsonparser.h</text>
</a>
</g>
</g>
<!-- Node1&#45;&gt;Node15 -->
<g id="edge14" class="edge"><title>Node1&#45;&gt;Node15</title>
<path fill="none" stroke="midnightblue" d="M621.41,-168.399C637.92,-158.862 659.623,-146.325 676.038,-136.842"/>
<polygon fill="midnightblue" stroke="midnightblue" points="678.104,-139.691 685.013,-131.658 674.603,-133.629 678.104,-139.691"/>
</g>
<!-- Node3 -->
<g id="node3" class="node"><title>Node3</title>
<polygon fill="white" stroke="#bfbfbf" points="212,-56.5 212,-75.5 274,-75.5 274,-56.5 212,-56.5"/>
<text text-anchor="middle" x="243" y="-63.5" font-family="Helvetica,sans-Serif" font-size="10.00">sys/wait.h</text>
</g>
<!-- Node2&#45;&gt;Node3 -->
<g id="edge2" class="edge"><title>Node2&#45;&gt;Node3</title>
<path fill="none" stroke="midnightblue" d="M453.729,-112.433C413.51,-103.863 349.65,-90.2179 284.393,-76.0766"/>
<polygon fill="midnightblue" stroke="midnightblue" points="284.85,-72.5944 274.336,-73.8954 283.367,-79.4353 284.85,-72.5944"/>
</g>
<!-- Node4 -->
<g id="node4" class="node"><title>Node4</title>
<polygon fill="white" stroke="#bfbfbf" points="292.5,-56.5 292.5,-75.5 363.5,-75.5 363.5,-56.5 292.5,-56.5"/>
<text text-anchor="middle" x="328" y="-63.5" font-family="Helvetica,sans-Serif" font-size="10.00">sys/mount.h</text>
</g>
<!-- Node2&#45;&gt;Node4 -->
<g id="edge3" class="edge"><title>Node2&#45;&gt;Node4</title>
<path fill="none" stroke="midnightblue" d="M467.697,-112.444C439.649,-103.32 395.056,-88.8133 363.816,-78.6509"/>
<polygon fill="midnightblue" stroke="midnightblue" points="364.772,-75.2816 354.18,-75.5164 362.607,-81.9383 364.772,-75.2816"/>
</g>
<!-- Node5 -->
<g id="node5" class="node"><title>Node5</title>
<polygon fill="white" stroke="#bfbfbf" points="382,-56.5 382,-75.5 442,-75.5 442,-56.5 382,-56.5"/>
<text text-anchor="middle" x="412" y="-63.5" font-family="Helvetica,sans-Serif" font-size="10.00">sys/stat.h</text>
</g>
<!-- Node2&#45;&gt;Node5 -->
<g id="edge4" class="edge"><title>Node2&#45;&gt;Node5</title>
<path fill="none" stroke="midnightblue" d="M480.825,-112.324C468.153,-103.979 448.767,-91.2122 433.794,-81.3524"/>
<polygon fill="midnightblue" stroke="midnightblue" points="435.419,-78.2313 425.142,-75.6545 431.569,-84.0776 435.419,-78.2313"/>
</g>
<!-- Node6 -->
<g id="node6" class="node"><title>Node6</title>
<polygon fill="white" stroke="#bfbfbf" points="460,-56.5 460,-75.5 528,-75.5 528,-56.5 460,-56.5"/>
<text text-anchor="middle" x="494" y="-63.5" font-family="Helvetica,sans-Serif" font-size="10.00">sys/types.h</text>
</g>
<!-- Node2&#45;&gt;Node6 -->
<g id="edge5" class="edge"><title>Node2&#45;&gt;Node6</title>
<path fill="none" stroke="midnightblue" d="M494,-112.083C494,-105.006 494,-94.8611 494,-85.9865"/>
<polygon fill="midnightblue" stroke="midnightblue" points="497.5,-85.751 494,-75.7511 490.5,-85.7511 497.5,-85.751"/>
</g>
<!-- Node7 -->
<g id="node7" class="node"><title>Node7</title>
<polygon fill="white" stroke="#bfbfbf" points="546.5,-56.5 546.5,-75.5 581.5,-75.5 581.5,-56.5 546.5,-56.5"/>
<text text-anchor="middle" x="564" y="-63.5" font-family="Helvetica,sans-Serif" font-size="10.00">map</text>
</g>
<!-- Node2&#45;&gt;Node7 -->
<g id="edge6" class="edge"><title>Node2&#45;&gt;Node7</title>
<path fill="none" stroke="midnightblue" d="M505.247,-112.324C515.797,-104.185 531.801,-91.8395 544.442,-82.0874"/>
<polygon fill="midnightblue" stroke="midnightblue" points="546.769,-84.7132 552.549,-75.8339 542.493,-79.1707 546.769,-84.7132"/>
</g>
<!-- Node8 -->
<g id="node8" class="node"><title>Node8</title>
<polygon fill="white" stroke="#bfbfbf" points="600,-56.5 600,-75.5 652,-75.5 652,-56.5 600,-56.5"/>
<text text-anchor="middle" x="626" y="-63.5" font-family="Helvetica,sans-Serif" font-size="10.00">memory</text>
</g>
<!-- Node2&#45;&gt;Node8 -->
<g id="edge7" class="edge"><title>Node2&#45;&gt;Node8</title>
<path fill="none" stroke="midnightblue" d="M514.916,-112.444C536.736,-103.517 571.15,-89.4387 595.892,-79.3168"/>
<polygon fill="midnightblue" stroke="midnightblue" points="597.252,-82.5422 605.182,-75.5164 594.601,-76.0634 597.252,-82.5422"/>
</g>
<!-- Node9 -->
<g id="node9" class="node"><title>Node9</title>
<polygon fill="white" stroke="#bfbfbf" points="0,-56.5 0,-75.5 44,-75.5 44,-56.5 0,-56.5"/>
<text text-anchor="middle" x="22" y="-63.5" font-family="Helvetica,sans-Serif" font-size="10.00">vector</text>
</g>
<!-- Node2&#45;&gt;Node9 -->
<g id="edge8" class="edge"><title>Node2&#45;&gt;Node9</title>
<path fill="none" stroke="midnightblue" d="M422.386,-117.679C336.795,-112.818 189.227,-101.619 54.3351,-75.9326"/>
<polygon fill="midnightblue" stroke="midnightblue" points="54.716,-72.4414 44.233,-73.9768 53.3854,-79.3138 54.716,-72.4414"/>
</g>
<!-- Node10 -->
<g id="node10" class="node"><title>Node10</title>
<polygon fill="white" stroke="#bfbfbf" points="670.5,-56.5 670.5,-75.5 729.5,-75.5 729.5,-56.5 670.5,-56.5"/>
<text text-anchor="middle" x="700" y="-63.5" font-family="Helvetica,sans-Serif" font-size="10.00">jansson.h</text>
</g>
<!-- Node2&#45;&gt;Node10 -->
<g id="edge9" class="edge"><title>Node2&#45;&gt;Node10</title>
<path fill="none" stroke="midnightblue" d="M526.641,-112.444C562.883,-102.943 621.387,-87.6072 660.264,-77.4161"/>
<polygon fill="midnightblue" stroke="midnightblue" points="661.401,-80.7365 670.187,-74.8151 659.626,-73.9652 661.401,-80.7365"/>
</g>
<!-- Node11 -->
<g id="node11" class="node"><title>Node11</title>
<polygon fill="white" stroke="#bfbfbf" points="62.5,-56.5 62.5,-75.5 193.5,-75.5 193.5,-56.5 62.5,-56.5"/>
<text text-anchor="middle" x="128" y="-63.5" font-family="Helvetica,sans-Serif" font-size="10.00">softwarecontainer&#45;config.h</text>
</g>
<!-- Node2&#45;&gt;Node11 -->
<g id="edge10" class="edge"><title>Node2&#45;&gt;Node11</title>
<path fill="none" stroke="midnightblue" d="M436.006,-112.444C370.686,-102.806 264.663,-87.1635 195.63,-76.9782"/>
<polygon fill="midnightblue" stroke="midnightblue" points="196.126,-73.5136 185.722,-75.5164 195.104,-80.4386 196.126,-73.5136"/>
</g>
<!-- Node12 -->
<g id="node12" class="node"><title>Node12</title>
<g id="a_node12"><a xlink:href="softwarecontainer-log_8h_source.html" target="_top" xlink:title="softwarecontainer&#45;log.h">
<polygon fill="white" stroke="black" points="748,-56.5 748,-75.5 866,-75.5 866,-56.5 748,-56.5"/>
<text text-anchor="middle" x="807" y="-63.5" font-family="Helvetica,sans-Serif" font-size="10.00">softwarecontainer&#45;log.h</text>
</a>
</g>
</g>
<!-- Node2&#45;&gt;Node12 -->
<g id="edge11" class="edge"><title>Node2&#45;&gt;Node12</title>
<path fill="none" stroke="midnightblue" d="M543.596,-112.444C598.999,-102.885 688.643,-87.4195 747.705,-77.2298"/>
<polygon fill="midnightblue" stroke="midnightblue" points="748.377,-80.6657 757.636,-75.5164 747.187,-73.7676 748.377,-80.6657"/>
</g>
<!-- Node13 -->
<g id="node13" class="node"><title>Node13</title>
<polygon fill="white" stroke="#bfbfbf" points="733,-0.5 733,-19.5 801,-19.5 801,-0.5 733,-0.5"/>
<text text-anchor="middle" x="767" y="-7.5" font-family="Helvetica,sans-Serif" font-size="10.00">ivi&#45;logging.h</text>
</g>
<!-- Node12&#45;&gt;Node13 -->
<g id="edge12" class="edge"><title>Node12&#45;&gt;Node13</title>
<path fill="none" stroke="midnightblue" d="M800.395,-56.083C794.745,-48.4554 786.455,-37.2645 779.549,-27.9408"/>
<polygon fill="midnightblue" stroke="midnightblue" points="782.247,-25.7034 773.482,-19.7511 776.622,-29.87 782.247,-25.7034"/>
</g>
<!-- Node14 -->
<g id="node14" class="node"><title>Node14</title>
<polygon fill="white" stroke="#bfbfbf" points="819,-0.5 819,-19.5 875,-19.5 875,-0.5 819,-0.5"/>
<text text-anchor="middle" x="847" y="-7.5" font-family="Helvetica,sans-Serif" font-size="10.00">glibmm.h</text>
</g>
<!-- Node12&#45;&gt;Node14 -->
<g id="edge13" class="edge"><title>Node12&#45;&gt;Node14</title>
<path fill="none" stroke="midnightblue" d="M813.605,-56.083C819.255,-48.4554 827.545,-37.2645 834.451,-27.9408"/>
<polygon fill="midnightblue" stroke="midnightblue" points="837.378,-29.87 840.518,-19.7511 831.753,-25.7034 837.378,-29.87"/>
</g>
<!-- Node15&#45;&gt;Node10 -->
<g id="edge16" class="edge"><title>Node15&#45;&gt;Node10</title>
<path fill="none" stroke="midnightblue" d="M700,-112.083C700,-105.006 700,-94.8611 700,-85.9865"/>
<polygon fill="midnightblue" stroke="midnightblue" points="703.5,-85.751 700,-75.7511 696.5,-85.7511 703.5,-85.751"/>
</g>
<!-- Node15&#45;&gt;Node12 -->
<g id="edge15" class="edge"><title>Node15&#45;&gt;Node12</title>
<path fill="none" stroke="midnightblue" d="M717.191,-112.324C734.351,-103.664 760.946,-90.2424 780.747,-80.249"/>
<polygon fill="midnightblue" stroke="midnightblue" points="782.501,-83.2847 789.851,-75.6545 779.347,-77.0354 782.501,-83.2847"/>
</g>
</g>
</svg>
