<?xml version="1.0" encoding="UTF-8" standalone="no"?>
<!DOCTYPE svg PUBLIC "-//W3C//DTD SVG 1.1//EN"
 "http://www.w3.org/Graphics/SVG/1.1/DTD/svg11.dtd">
<!-- Generated by graphviz version 2.38.0 (20140413.2041)
 -->
<!-- Title: agent/src/containerutilityinterface.h Pages: 1 -->
<svg width="266pt" height="140pt"
 viewBox="0.00 0.00 266.00 140.00" xmlns="http://www.w3.org/2000/svg" xmlns:xlink="http://www.w3.org/1999/xlink">
<g id="graph0" class="graph" transform="scale(1 1) rotate(0) translate(4 136)">
<title>agent/src/containerutilityinterface.h</title>
<polygon fill="white" stroke="none" points="-4,4 -4,-136 262,-136 262,4 -4,4"/>
<!-- Node1 -->
<g id="node1" class="node"><title>Node1</title>
<polygon fill="#bfbfbf" stroke="black" points="43.5,-112.5 43.5,-131.5 212.5,-131.5 212.5,-112.5 43.5,-112.5"/>
<text text-anchor="middle" x="128" y="-119.5" font-family="Helvetica,sans-Serif" font-size="10.00">agent/src/containerutilityinterface.h</text>
</g>
<!-- Node2 -->
<g id="node2" class="node"><title>Node2</title>
<g id="a_node2"><a xlink:href="softwarecontainer-log_8h_source.html" target="_top" xlink:title="softwarecontainer&#45;log.h">
<polygon fill="white" stroke="black" points="0,-56.5 0,-75.5 118,-75.5 118,-56.5 0,-56.5"/>
<text text-anchor="middle" x="59" y="-63.5" font-family="Helvetica,sans-Serif" font-size="10.00">softwarecontainer&#45;log.h</text>
</a>
</g>
</g>
<!-- Node1&#45;&gt;Node2 -->
<g id="edge1" class="edge"><title>Node1&#45;&gt;Node2</title>
<path fill="none" stroke="midnightblue" d="M116.914,-112.324C106.514,-104.185 90.7394,-91.8395 78.2784,-82.0874"/>
<polygon fill="midnightblue" stroke="midnightblue" points="80.3199,-79.2407 70.2878,-75.8339 76.0057,-84.7533 80.3199,-79.2407"/>
</g>
<!-- Node4 -->
<g id="node4" class="node"><title>Node4</title>
<g id="a_node4"><a xlink:href="softwarecontainererror_8h_source.html" target="_top" xlink:title="softwarecontainererror.h">
<polygon fill="white" stroke="black" points="136,-56.5 136,-75.5 258,-75.5 258,-56.5 136,-56.5"/>
<text text-anchor="middle" x="197" y="-63.5" font-family="Helvetica,sans-Serif" font-size="10.00">softwarecontainererror.h</text>
</a>
</g>
</g>
<!-- Node1&#45;&gt;Node4 -->
<g id="edge3" class="edge"><title>Node1&#45;&gt;Node4</title>
<path fill="none" stroke="midnightblue" d="M139.086,-112.324C149.486,-104.185 165.261,-91.8395 177.722,-82.0874"/>
<polygon fill="midnightblue" stroke="midnightblue" points="179.994,-84.7533 185.712,-75.8339 175.68,-79.2407 179.994,-84.7533"/>
</g>
<!-- Node3 -->
<g id="node3" class="node"><title>Node3</title>
<polygon fill="white" stroke="#bfbfbf" points="25,-0.5 25,-19.5 93,-19.5 93,-0.5 25,-0.5"/>
<text text-anchor="middle" x="59" y="-7.5" font-family="Helvetica,sans-Serif" font-size="10.00">ivi&#45;logging.h</text>
</g>
<!-- Node2&#45;&gt;Node3 -->
<g id="edge2" class="edge"><title>Node2&#45;&gt;Node3</title>
<path fill="none" stroke="midnightblue" d="M59,-56.083C59,-49.0059 59,-38.8611 59,-29.9865"/>
<polygon fill="midnightblue" stroke="midnightblue" points="62.5001,-29.751 59,-19.7511 55.5001,-29.7511 62.5001,-29.751"/>
</g>
<!-- Node5 -->
<g id="node5" class="node"><title>Node5</title>
<polygon fill="white" stroke="#bfbfbf" points="139.5,-0.5 139.5,-19.5 198.5,-19.5 198.5,-0.5 139.5,-0.5"/>
<text text-anchor="middle" x="169" y="-7.5" font-family="Helvetica,sans-Serif" font-size="10.00">exception</text>
</g>
<!-- Node4&#45;&gt;Node5 -->
<g id="edge4" class="edge"><title>Node4&#45;&gt;Node5</title>
<path fill="none" stroke="midnightblue" d="M192.376,-56.083C188.544,-48.6913 182.976,-37.9533 178.235,-28.8111"/>
<polygon fill="midnightblue" stroke="midnightblue" points="181.248,-27.0175 173.538,-19.7511 175.034,-30.2398 181.248,-27.0175"/>
</g>
<!-- Node6 -->
<g id="node6" class="node"><title>Node6</title>
<polygon fill="white" stroke="#bfbfbf" points="216.5,-0.5 216.5,-19.5 257.5,-19.5 257.5,-0.5 216.5,-0.5"/>
<text text-anchor="middle" x="237" y="-7.5" font-family="Helvetica,sans-Serif" font-size="10.00">string</text>
</g>
<!-- Node4&#45;&gt;Node6 -->
<g id="edge5" class="edge"><title>Node4&#45;&gt;Node6</title>
<path fill="none" stroke="midnightblue" d="M203.605,-56.083C209.255,-48.4554 217.545,-37.2645 224.451,-27.9408"/>
<polygon fill="midnightblue" stroke="midnightblue" points="227.378,-29.87 230.518,-19.7511 221.753,-25.7034 227.378,-29.87"/>
</g>
</g>
</svg>
