<?xml version="1.0" encoding="UTF-8" standalone="no"?>
<!DOCTYPE svg PUBLIC "-//W3C//DTD SVG 1.1//EN"
 "http://www.w3.org/Graphics/SVG/1.1/DTD/svg11.dtd">
<!-- Generated by graphviz version 2.38.0 (20140413.2041)
 -->
<!-- Title: agent/src/containerutilityinterface.h Pages: 1 -->
<svg width="639pt" height="420pt"
 viewBox="0.00 0.00 639.00 420.00" xmlns="http://www.w3.org/2000/svg" xmlns:xlink="http://www.w3.org/1999/xlink">
<g id="graph0" class="graph" transform="scale(1 1) rotate(0) translate(4 416)">
<title>agent/src/containerutilityinterface.h</title>
<polygon fill="white" stroke="none" points="-4,4 -4,-416 635,-416 635,4 -4,4"/>
<!-- Node1 -->
<g id="node1" class="node"><title>Node1</title>
<polygon fill="#bfbfbf" stroke="black" points="326.5,-392.5 326.5,-411.5 495.5,-411.5 495.5,-392.5 326.5,-392.5"/>
<text text-anchor="middle" x="411" y="-399.5" font-family="Helvetica,sans-Serif" font-size="10.00">agent/src/containerutilityinterface.h</text>
</g>
<!-- Node2 -->
<g id="node2" class="node"><title>Node2</title>
<g id="a_node2"><a xlink:href="softwarecontainer-log_8h_source.html" target="_top" xlink:title="softwarecontainer&#45;log.h">
<polygon fill="white" stroke="black" points="174,-56.5 174,-75.5 292,-75.5 292,-56.5 174,-56.5"/>
<text text-anchor="middle" x="233" y="-63.5" font-family="Helvetica,sans-Serif" font-size="10.00">softwarecontainer&#45;log.h</text>
</a>
</g>
</g>
<!-- Node1&#45;&gt;Node2 -->
<g id="edge1" class="edge"><title>Node1&#45;&gt;Node2</title>
<path fill="none" stroke="midnightblue" d="M326.339,-395.463C206.024,-385.233 0,-357.941 0,-291 0,-291 0,-291 0,-177 0,-103.923 94.8828,-79.3181 163.551,-71.0801"/>
<polygon fill="midnightblue" stroke="midnightblue" points="164.348,-74.5135 173.903,-69.9365 163.579,-67.5558 164.348,-74.5135"/>
</g>
<!-- Node4 -->
<g id="node4" class="node"><title>Node4</title>
<g id="a_node4"><a xlink:href="softwarecontainererror_8h_source.html" target="_top" xlink:title="softwarecontainererror.h">
<polygon fill="white" stroke="black" points="439,-336.5 439,-355.5 561,-355.5 561,-336.5 439,-336.5"/>
<text text-anchor="middle" x="500" y="-343.5" font-family="Helvetica,sans-Serif" font-size="10.00">softwarecontainererror.h</text>
</a>
</g>
</g>
<!-- Node1&#45;&gt;Node4 -->
<g id="edge3" class="edge"><title>Node1&#45;&gt;Node4</title>
<path fill="none" stroke="midnightblue" d="M425.299,-392.324C439.183,-383.9 460.492,-370.971 476.804,-361.074"/>
<polygon fill="midnightblue" stroke="midnightblue" points="479.002,-363.834 485.736,-355.655 475.371,-357.85 479.002,-363.834"/>
</g>
<!-- Node7 -->
<g id="node7" class="node"><title>Node7</title>
<g id="a_node7"><a xlink:href="config_8h_source.html" target="_top" xlink:title="config/config.h">
<polygon fill="white" stroke="black" points="381,-280.5 381,-299.5 461,-299.5 461,-280.5 381,-280.5"/>
<text text-anchor="middle" x="421" y="-287.5" font-family="Helvetica,sans-Serif" font-size="10.00">config/config.h</text>
</a>
</g>
</g>
<!-- Node1&#45;&gt;Node7 -->
<g id="edge6" class="edge"><title>Node1&#45;&gt;Node7</title>
<path fill="none" stroke="midnightblue" d="M411.785,-392.368C413.398,-374.617 417.121,-333.666 419.309,-309.597"/>
<polygon fill="midnightblue" stroke="midnightblue" points="422.799,-309.867 420.219,-299.591 415.828,-309.233 422.799,-309.867"/>
</g>
<!-- Node17 -->
<g id="node17" class="node"><title>Node17</title>
<g id="a_node17"><a xlink:href="filetoolkitwithundo_8h_source.html" target="_top" xlink:title="filetoolkitwithundo.h">
<polygon fill="white" stroke="black" points="236.5,-336.5 236.5,-355.5 339.5,-355.5 339.5,-336.5 236.5,-336.5"/>
<text text-anchor="middle" x="288" y="-343.5" font-family="Helvetica,sans-Serif" font-size="10.00">filetoolkitwithundo.h</text>
</a>
</g>
</g>
<!-- Node1&#45;&gt;Node17 -->
<g id="edge20" class="edge"><title>Node1&#45;&gt;Node17</title>
<path fill="none" stroke="midnightblue" d="M391.51,-392.444C371.358,-383.596 339.677,-369.687 316.669,-359.586"/>
<polygon fill="midnightblue" stroke="midnightblue" points="317.962,-356.332 307.399,-355.516 315.148,-362.741 317.962,-356.332"/>
</g>
<!-- Node22 -->
<g id="node22" class="node"><title>Node22</title>
<polygon fill="white" stroke="#bfbfbf" points="579,-336.5 579,-355.5 631,-355.5 631,-336.5 579,-336.5"/>
<text text-anchor="middle" x="605" y="-343.5" font-family="Helvetica,sans-Serif" font-size="10.00">memory</text>
</g>
<!-- Node1&#45;&gt;Node22 -->
<g id="edge29" class="edge"><title>Node1&#45;&gt;Node22</title>
<path fill="none" stroke="midnightblue" d="M441.74,-392.444C476.311,-382.821 532.393,-367.21 568.988,-357.024"/>
<polygon fill="midnightblue" stroke="midnightblue" points="570.064,-360.358 578.759,-354.304 568.187,-353.614 570.064,-360.358"/>
</g>
<!-- Node3 -->
<g id="node3" class="node"><title>Node3</title>
<polygon fill="white" stroke="#bfbfbf" points="199,-0.5 199,-19.5 267,-19.5 267,-0.5 199,-0.5"/>
<text text-anchor="middle" x="233" y="-7.5" font-family="Helvetica,sans-Serif" font-size="10.00">ivi&#45;logging.h</text>
</g>
<!-- Node2&#45;&gt;Node3 -->
<g id="edge2" class="edge"><title>Node2&#45;&gt;Node3</title>
<path fill="none" stroke="midnightblue" d="M233,-56.083C233,-49.0059 233,-38.8611 233,-29.9865"/>
<polygon fill="midnightblue" stroke="midnightblue" points="236.5,-29.751 233,-19.7511 229.5,-29.7511 236.5,-29.751"/>
</g>
<!-- Node5 -->
<g id="node5" class="node"><title>Node5</title>
<polygon fill="white" stroke="#bfbfbf" points="538.5,-280.5 538.5,-299.5 597.5,-299.5 597.5,-280.5 538.5,-280.5"/>
<text text-anchor="middle" x="568" y="-287.5" font-family="Helvetica,sans-Serif" font-size="10.00">exception</text>
</g>
<!-- Node4&#45;&gt;Node5 -->
<g id="edge4" class="edge"><title>Node4&#45;&gt;Node5</title>
<path fill="none" stroke="midnightblue" d="M510.925,-336.324C521.175,-328.185 536.721,-315.839 549.001,-306.087"/>
<polygon fill="midnightblue" stroke="midnightblue" points="551.221,-308.794 556.876,-299.834 546.868,-303.312 551.221,-308.794"/>
</g>
<!-- Node6 -->
<g id="node6" class="node"><title>Node6</title>
<polygon fill="white" stroke="#bfbfbf" points="479.5,-280.5 479.5,-299.5 520.5,-299.5 520.5,-280.5 479.5,-280.5"/>
<text text-anchor="middle" x="500" y="-287.5" font-family="Helvetica,sans-Serif" font-size="10.00">string</text>
</g>
<!-- Node4&#45;&gt;Node6 -->
<g id="edge5" class="edge"><title>Node4&#45;&gt;Node6</title>
<path fill="none" stroke="midnightblue" d="M500,-336.083C500,-329.006 500,-318.861 500,-309.986"/>
<polygon fill="midnightblue" stroke="midnightblue" points="503.5,-309.751 500,-299.751 496.5,-309.751 503.5,-309.751"/>
</g>
<!-- Node8 -->
<g id="node8" class="node"><title>Node8</title>
<g id="a_node8"><a xlink:href="softwarecontainer-common_8h_source.html" target="_top" xlink:title="softwarecontainer&#45;common.h">
<polygon fill="white" stroke="black" points="333.5,-112.5 333.5,-131.5 476.5,-131.5 476.5,-112.5 333.5,-112.5"/>
<text text-anchor="middle" x="405" y="-119.5" font-family="Helvetica,sans-Serif" font-size="10.00">softwarecontainer&#45;common.h</text>
</a>
</g>
</g>
<!-- Node7&#45;&gt;Node8 -->
<g id="edge7" class="edge"><title>Node7&#45;&gt;Node8</title>
<path fill="none" stroke="midnightblue" d="M424.344,-280.197C427.554,-271.24 432.176,-256.883 434,-244 439.251,-206.904 424.076,-164.534 413.742,-141.063"/>
<polygon fill="midnightblue" stroke="midnightblue" points="416.789,-139.313 409.425,-131.696 410.432,-142.243 416.789,-139.313"/>
</g>
<!-- Node12 -->
<g id="node12" class="node"><title>Node12</title>
<g id="a_node12"><a xlink:href="configloader_8h_source.html" target="_top" xlink:title="configloader.h">
<polygon fill="white" stroke="black" points="348.5,-224.5 348.5,-243.5 425.5,-243.5 425.5,-224.5 348.5,-224.5"/>
<text text-anchor="middle" x="387" y="-231.5" font-family="Helvetica,sans-Serif" font-size="10.00">configloader.h</text>
</a>
</g>
</g>
<!-- Node7&#45;&gt;Node12 -->
<g id="edge12" class="edge"><title>Node7&#45;&gt;Node12</title>
<path fill="none" stroke="midnightblue" d="M415.386,-280.083C410.633,-272.534 403.682,-261.495 397.848,-252.23"/>
<polygon fill="midnightblue" stroke="midnightblue" points="400.8,-250.349 392.51,-243.751 394.876,-254.078 400.8,-250.349"/>
</g>
<!-- Node13 -->
<g id="node13" class="node"><title>Node13</title>
<g id="a_node13"><a xlink:href="configsource_8h_source.html" target="_top" xlink:title="configsource.h">
<polygon fill="white" stroke="black" points="535,-224.5 535,-243.5 615,-243.5 615,-224.5 535,-224.5"/>
<text text-anchor="middle" x="575" y="-231.5" font-family="Helvetica,sans-Serif" font-size="10.00">configsource.h</text>
</a>
</g>
</g>
<!-- Node7&#45;&gt;Node13 -->
<g id="edge13" class="edge"><title>Node7&#45;&gt;Node13</title>
<path fill="none" stroke="midnightblue" d="M445.402,-280.444C471.197,-271.399 512.077,-257.064 541.018,-246.916"/>
<polygon fill="midnightblue" stroke="midnightblue" points="542.434,-250.128 550.712,-243.516 540.118,-243.523 542.434,-250.128"/>
</g>
<!-- Node16 -->
<g id="node16" class="node"><title>Node16</title>
<g id="a_node16"><a xlink:href="configdefinition_8h_source.html" target="_top" xlink:title="configdefinition.h">
<polygon fill="white" stroke="black" points="447,-168.5 447,-187.5 537,-187.5 537,-168.5 447,-168.5"/>
<text text-anchor="middle" x="492" y="-175.5" font-family="Helvetica,sans-Serif" font-size="10.00">configdefinition.h</text>
</a>
</g>
</g>
<!-- Node7&#45;&gt;Node16 -->
<g id="edge17" class="edge"><title>Node7&#45;&gt;Node16</title>
<path fill="none" stroke="midnightblue" d="M432.895,-280.19C443.39,-271.877 458.46,-258.548 468,-244 477.38,-229.697 483.744,-211.23 487.549,-197.638"/>
<polygon fill="midnightblue" stroke="midnightblue" points="491.038,-198.122 490.153,-187.564 484.261,-196.37 491.038,-198.122"/>
</g>
<!-- Node8&#45;&gt;Node2 -->
<g id="edge8" class="edge"><title>Node8&#45;&gt;Node2</title>
<path fill="none" stroke="midnightblue" d="M377.746,-112.444C348.559,-103.28 302.079,-88.6876 269.691,-78.5192"/>
<polygon fill="midnightblue" stroke="midnightblue" points="270.716,-75.1726 260.126,-75.5164 268.619,-81.8512 270.716,-75.1726"/>
</g>
<!-- Node9 -->
<g id="node9" class="node"><title>Node9</title>
<polygon fill="white" stroke="#bfbfbf" points="323.5,-56.5 323.5,-75.5 358.5,-75.5 358.5,-56.5 323.5,-56.5"/>
<text text-anchor="middle" x="341" y="-63.5" font-family="Helvetica,sans-Serif" font-size="10.00">map</text>
</g>
<!-- Node8&#45;&gt;Node9 -->
<g id="edge9" class="edge"><title>Node8&#45;&gt;Node9</title>
<path fill="none" stroke="midnightblue" d="M394.717,-112.324C385.164,-104.263 370.72,-92.0765 359.216,-82.3695"/>
<polygon fill="midnightblue" stroke="midnightblue" points="361.37,-79.6076 351.47,-75.8339 356.856,-84.9577 361.37,-79.6076"/>
</g>
<!-- Node10 -->
<g id="node10" class="node"><title>Node10</title>
<polygon fill="white" stroke="#bfbfbf" points="377,-56.5 377,-75.5 433,-75.5 433,-56.5 377,-56.5"/>
<text text-anchor="middle" x="405" y="-63.5" font-family="Helvetica,sans-Serif" font-size="10.00">glibmm.h</text>
</g>
<!-- Node8&#45;&gt;Node10 -->
<g id="edge10" class="edge"><title>Node8&#45;&gt;Node10</title>
<path fill="none" stroke="midnightblue" d="M405,-112.083C405,-105.006 405,-94.8611 405,-85.9865"/>
<polygon fill="midnightblue" stroke="midnightblue" points="408.5,-85.751 405,-75.7511 401.5,-85.7511 408.5,-85.751"/>
</g>
<!-- Node11 -->
<g id="node11" class="node"><title>Node11</title>
<polygon fill="white" stroke="#bfbfbf" points="451,-56.5 451,-75.5 513,-75.5 513,-56.5 451,-56.5"/>
<text text-anchor="middle" x="482" y="-63.5" font-family="Helvetica,sans-Serif" font-size="10.00">sys/wait.h</text>
</g>
<!-- Node8&#45;&gt;Node11 -->
<g id="edge11" class="edge"><title>Node8&#45;&gt;Node11</title>
<path fill="none" stroke="midnightblue" d="M417.371,-112.324C429.158,-104.058 447.132,-91.4527 461.136,-81.6322"/>
<polygon fill="midnightblue" stroke="midnightblue" points="463.482,-84.2619 469.659,-75.6545 459.462,-78.5307 463.482,-84.2619"/>
</g>
<!-- Node14 -->
<g id="node14" class="node"><title>Node14</title>
<g id="a_node14"><a xlink:href="configitem_8h_source.html" target="_top" xlink:title="configitem.h">
<polygon fill="white" stroke="black" points="555,-168.5 555,-187.5 625,-187.5 625,-168.5 555,-168.5"/>
<text text-anchor="middle" x="590" y="-175.5" font-family="Helvetica,sans-Serif" font-size="10.00">configitem.h</text>
</a>
</g>
</g>
<!-- Node13&#45;&gt;Node14 -->
<g id="edge14" class="edge"><title>Node13&#45;&gt;Node14</title>
<path fill="none" stroke="midnightblue" d="M577.477,-224.083C579.486,-216.849 582.386,-206.409 584.89,-197.397"/>
<polygon fill="midnightblue" stroke="midnightblue" points="588.265,-198.323 587.569,-187.751 581.52,-196.449 588.265,-198.323"/>
</g>
<!-- Node14&#45;&gt;Node8 -->
<g id="edge15" class="edge"><title>Node14&#45;&gt;Node8</title>
<path fill="none" stroke="midnightblue" d="M560.686,-168.444C529.158,-159.241 478.869,-144.562 444.014,-134.388"/>
<polygon fill="midnightblue" stroke="midnightblue" points="444.757,-130.959 434.177,-131.516 442.795,-137.678 444.757,-130.959"/>
</g>
<!-- Node15 -->
<g id="node15" class="node"><title>Node15</title>
<g id="a_node15"><a xlink:href="configtypes_8h_source.html" target="_top" xlink:title="configtypes.h">
<polygon fill="white" stroke="black" points="523.5,-112.5 523.5,-131.5 598.5,-131.5 598.5,-112.5 523.5,-112.5"/>
<text text-anchor="middle" x="561" y="-119.5" font-family="Helvetica,sans-Serif" font-size="10.00">configtypes.h</text>
</a>
</g>
</g>
<!-- Node14&#45;&gt;Node15 -->
<g id="edge16" class="edge"><title>Node14&#45;&gt;Node15</title>
<path fill="none" stroke="midnightblue" d="M585.211,-168.083C581.242,-160.691 575.475,-149.953 570.565,-140.811"/>
<polygon fill="midnightblue" stroke="midnightblue" points="573.514,-138.905 565.7,-131.751 567.347,-142.217 573.514,-138.905"/>
</g>
<!-- Node16&#45;&gt;Node8 -->
<g id="edge18" class="edge"><title>Node16&#45;&gt;Node8</title>
<path fill="none" stroke="midnightblue" d="M478.022,-168.324C464.45,-159.9 443.62,-146.971 427.675,-137.074"/>
<polygon fill="midnightblue" stroke="midnightblue" points="429.286,-133.954 418.943,-131.655 425.594,-139.902 429.286,-133.954"/>
</g>
<!-- Node16&#45;&gt;Node15 -->
<g id="edge19" class="edge"><title>Node16&#45;&gt;Node15</title>
<path fill="none" stroke="midnightblue" d="M503.086,-168.324C513.486,-160.185 529.261,-147.839 541.722,-138.087"/>
<polygon fill="midnightblue" stroke="midnightblue" points="543.994,-140.753 549.712,-131.834 539.68,-135.241 543.994,-140.753"/>
</g>
<!-- Node17&#45;&gt;Node8 -->
<g id="edge28" class="edge"><title>Node17&#45;&gt;Node8</title>
<path fill="none" stroke="midnightblue" d="M291.071,-336.246C298.314,-315.976 317.482,-264.454 339,-224 355.474,-193.028 378.64,-159.354 392.692,-139.768"/>
<polygon fill="midnightblue" stroke="midnightblue" points="395.585,-141.741 398.619,-131.59 389.917,-137.633 395.585,-141.741"/>
</g>
<!-- Node18 -->
<g id="node18" class="node"><title>Node18</title>
<g id="a_node18"><a xlink:href="mountcleanuphandler_8h_source.html" target="_top" xlink:title="mountcleanuphandler.h">
<polygon fill="white" stroke="black" points="174.5,-224.5 174.5,-243.5 291.5,-243.5 291.5,-224.5 174.5,-224.5"/>
<text text-anchor="middle" x="233" y="-231.5" font-family="Helvetica,sans-Serif" font-size="10.00">mountcleanuphandler.h</text>
</a>
</g>
</g>
<!-- Node17&#45;&gt;Node18 -->
<g id="edge21" class="edge"><title>Node17&#45;&gt;Node18</title>
<path fill="none" stroke="midnightblue" d="M283.684,-336.368C274.688,-318.376 253.775,-276.55 241.813,-252.627"/>
<polygon fill="midnightblue" stroke="midnightblue" points="244.898,-250.97 237.296,-243.591 238.637,-254.101 244.898,-250.97"/>
</g>
<!-- Node20 -->
<g id="node20" class="node"><title>Node20</title>
<g id="a_node20"><a xlink:href="createdir_8h_source.html" target="_top" xlink:title="createdir.h">
<polygon fill="white" stroke="black" points="114,-280.5 114,-299.5 176,-299.5 176,-280.5 114,-280.5"/>
<text text-anchor="middle" x="145" y="-287.5" font-family="Helvetica,sans-Serif" font-size="10.00">createdir.h</text>
</a>
</g>
</g>
<!-- Node17&#45;&gt;Node20 -->
<g id="edge25" class="edge"><title>Node17&#45;&gt;Node20</title>
<path fill="none" stroke="midnightblue" d="M265.341,-336.444C241.598,-327.478 204.091,-313.314 177.262,-303.183"/>
<polygon fill="midnightblue" stroke="midnightblue" points="178.144,-299.775 167.553,-299.516 175.671,-306.324 178.144,-299.775"/>
</g>
<!-- Node19 -->
<g id="node19" class="node"><title>Node19</title>
<g id="a_node19"><a xlink:href="cleanuphandler_8h_source.html" target="_top" xlink:title="cleanuphandler.h">
<polygon fill="white" stroke="black" points="188,-168.5 188,-187.5 278,-187.5 278,-168.5 188,-168.5"/>
<text text-anchor="middle" x="233" y="-175.5" font-family="Helvetica,sans-Serif" font-size="10.00">cleanuphandler.h</text>
</a>
</g>
</g>
<!-- Node18&#45;&gt;Node19 -->
<g id="edge22" class="edge"><title>Node18&#45;&gt;Node19</title>
<path fill="none" stroke="midnightblue" d="M233,-224.083C233,-217.006 233,-206.861 233,-197.986"/>
<polygon fill="midnightblue" stroke="midnightblue" points="236.5,-197.751 233,-187.751 229.5,-197.751 236.5,-197.751"/>
</g>
<!-- Node19&#45;&gt;Node2 -->
<g id="edge24" class="edge"><title>Node19&#45;&gt;Node2</title>
<path fill="none" stroke="midnightblue" d="M233,-168.368C233,-150.617 233,-109.666 233,-85.5974"/>
<polygon fill="midnightblue" stroke="midnightblue" points="236.5,-85.5914 233,-75.5914 229.5,-85.5915 236.5,-85.5914"/>
</g>
<!-- Node19&#45;&gt;Node8 -->
<g id="edge23" class="edge"><title>Node19&#45;&gt;Node8</title>
<path fill="none" stroke="midnightblue" d="M260.254,-168.444C289.441,-159.28 335.921,-144.688 368.309,-134.519"/>
<polygon fill="midnightblue" stroke="midnightblue" points="369.381,-137.851 377.874,-131.516 367.284,-131.173 369.381,-137.851"/>
</g>
<!-- Node21 -->
<g id="node21" class="node"><title>Node21</title>
<g id="a_node21"><a xlink:href="directorycleanuphandler_8h_source.html" target="_top" xlink:title="directorycleanuphandler.h">
<polygon fill="white" stroke="black" points="28,-224.5 28,-243.5 156,-243.5 156,-224.5 28,-224.5"/>
<text text-anchor="middle" x="92" y="-231.5" font-family="Helvetica,sans-Serif" font-size="10.00">directorycleanuphandler.h</text>
</a>
</g>
</g>
<!-- Node20&#45;&gt;Node21 -->
<g id="edge26" class="edge"><title>Node20&#45;&gt;Node21</title>
<path fill="none" stroke="midnightblue" d="M136.248,-280.083C128.53,-272.22 117.095,-260.569 107.783,-251.081"/>
<polygon fill="midnightblue" stroke="midnightblue" points="110.092,-248.436 100.589,-243.751 105.096,-253.34 110.092,-248.436"/>
</g>
<!-- Node21&#45;&gt;Node19 -->
<g id="edge27" class="edge"><title>Node21&#45;&gt;Node19</title>
<path fill="none" stroke="midnightblue" d="M114.342,-224.444C137.753,-215.478 174.736,-201.314 201.19,-191.183"/>
<polygon fill="midnightblue" stroke="midnightblue" points="202.676,-194.361 210.763,-187.516 200.172,-187.824 202.676,-194.361"/>
</g>
</g>
</svg>
