<?xml version="1.0" encoding="UTF-8" standalone="no"?>
<!DOCTYPE svg PUBLIC "-//W3C//DTD SVG 1.1//EN"
 "http://www.w3.org/Graphics/SVG/1.1/DTD/svg11.dtd">
<!-- Generated by graphviz version 2.38.0 (20140413.2041)
 -->
<!-- Title: agent/src Pages: 1 -->
<svg width="114pt" height="183pt"
 viewBox="0.00 0.00 114.00 183.00" xmlns="http://www.w3.org/2000/svg" xmlns:xlink="http://www.w3.org/1999/xlink">
<g id="graph0" class="graph" transform="scale(1 1) rotate(0) translate(4 179)">
<title>agent/src</title>
<polygon fill="white" stroke="none" points="-4,4 -4,-179 110,-179 110,4 -4,4"/>
<g id="clust1" class="cluster"><title>clusterdir_7729c337850573dc74d1ac4f90fc9ea2</title>
<g id="a_clust1"><a xlink:href="dir_7729c337850573dc74d1ac4f90fc9ea2.html" target="_top" xlink:title="agent">
<polygon fill="#ddddee" stroke="black" points="8,-8 8,-167 98,-167 98,-8 8,-8"/>
<text text-anchor="middle" x="53" y="-155" font-family="Helvetica,sans-Serif" font-size="10.00">agent</text>
</a>
</g>
</g>
<g id="clust2" class="cluster"><title>clusterdir_724cf3138c1364a179c3c90509b5ea66</title>
<g id="a_clust2"><a xlink:href="dir_724cf3138c1364a179c3c90509b5ea66.html" target="_top">
<polygon fill="#eeeeff" stroke="black" points="16,-16 16,-140 90,-140 90,-16 16,-16"/>
</a>
</g>
</g>
<!-- dir_724cf3138c1364a179c3c90509b5ea66 -->
<g id="node1" class="node"><title>dir_724cf3138c1364a179c3c90509b5ea66</title>
<text text-anchor="middle" x="53" y="-111.5" font-family="Helvetica,sans-Serif" font-size="10.00">src</text>
</g>
<!-- dir_1e0d3fca9063d50ad596a6c51f9cebb4 -->
<g id="node2" class="node"><title>dir_1e0d3fca9063d50ad596a6c51f9cebb4</title>
<g id="a_node2"><a xlink:href="dir_1e0d3fca9063d50ad596a6c51f9cebb4.html" target="_top" xlink:title="capability">
<polygon fill="white" stroke="black" points="82,-60 24,-60 24,-24 82,-24 82,-60"/>
<text text-anchor="middle" x="53" y="-39.5" font-family="Helvetica,sans-Serif" font-size="10.00">capability</text>
</a>
</g>
</g>
<!-- dir_724cf3138c1364a179c3c90509b5ea66&#45;&gt;dir_1e0d3fca9063d50ad596a6c51f9cebb4 -->
<g id="edge1" class="edge"><title>dir_724cf3138c1364a179c3c90509b5ea66&#45;&gt;dir_1e0d3fca9063d50ad596a6c51f9cebb4</title>
<path fill="none" stroke="black" d="M53,-95.6966C53,-87.9827 53,-78.7125 53,-70.1124"/>
<polygon fill="black" stroke="black" points="56.5001,-70.1043 53,-60.1043 49.5001,-70.1044 56.5001,-70.1043"/>
<g id="a_edge1&#45;headlabel"><a xlink:href="dir_000001_000002.html" target="_top" xlink:title="1">
<text text-anchor="middle" x="59.3393" y="-71.199" font-family="Helvetica,sans-Serif" font-size="10.00">1</text>
</a>
</g>
</g>
</g>
</svg>
