<?xml version="1.0" encoding="UTF-8" standalone="no"?>
<!DOCTYPE svg PUBLIC "-//W3C//DTD SVG 1.1//EN"
 "http://www.w3.org/Graphics/SVG/1.1/DTD/svg11.dtd">
<!-- Generated by graphviz version 2.38.0 (20140413.2041)
 -->
<!-- Title: agent/src Pages: 1 -->
<svg width="436pt" height="111pt"
 viewBox="0.00 0.00 436.00 111.00" xmlns="http://www.w3.org/2000/svg" xmlns:xlink="http://www.w3.org/1999/xlink">
<g id="graph0" class="graph" transform="scale(1 1) rotate(0) translate(4 107)">
<title>agent/src</title>
<polygon fill="white" stroke="none" points="-4,4 -4,-107 432,-107 432,4 -4,4"/>
<g id="clust1" class="cluster"><title>clusterdir_7729c337850573dc74d1ac4f90fc9ea2</title>
<g id="a_clust1"><a xlink:href="dir_7729c337850573dc74d1ac4f90fc9ea2.html" target="_top" xlink:title="agent">
<polygon fill="#ddddee" stroke="black" points="8,-8 8,-95 420,-95 420,-8 8,-8"/>
<text text-anchor="middle" x="214" y="-83" font-family="Helvetica,sans-Serif" font-size="10.00">agent</text>
</a>
</g>
</g>
<g id="clust2" class="cluster"><title>clusterdir_724cf3138c1364a179c3c90509b5ea66</title>
<g id="a_clust2"><a xlink:href="dir_724cf3138c1364a179c3c90509b5ea66.html" target="_top">
<polygon fill="#eeeeff" stroke="black" points="16,-16 16,-68 412,-68 412,-16 16,-16"/>
</a>
</g>
</g>
<!-- dir_724cf3138c1364a179c3c90509b5ea66 -->
<g id="node1" class="node"><title>dir_724cf3138c1364a179c3c90509b5ea66</title>
<text text-anchor="middle" x="377" y="-39.5" font-family="Helvetica,sans-Serif" font-size="10.00">src</text>
</g>
<!-- dir_1e0d3fca9063d50ad596a6c51f9cebb4 -->
<g id="node2" class="node"><title>dir_1e0d3fca9063d50ad596a6c51f9cebb4</title>
<g id="a_node2"><a xlink:href="dir_1e0d3fca9063d50ad596a6c51f9cebb4.html" target="_top" xlink:title="capability">
<polygon fill="white" stroke="black" points="332,-60 274,-60 274,-24 332,-24 332,-60"/>
<text text-anchor="middle" x="303" y="-39.5" font-family="Helvetica,sans-Serif" font-size="10.00">capability</text>
</a>
</g>
</g>
<!-- dir_91f28cb6b1af0be1ff9e84931ad37c4b -->
<g id="node3" class="node"><title>dir_91f28cb6b1af0be1ff9e84931ad37c4b</title>
<g id="a_node3"><a xlink:href="dir_91f28cb6b1af0be1ff9e84931ad37c4b.html" target="_top" xlink:title="config">
<polygon fill="white" stroke="black" points="256,-60 202,-60 202,-24 256,-24 256,-60"/>
<text text-anchor="middle" x="229" y="-39.5" font-family="Helvetica,sans-Serif" font-size="10.00">config</text>
</a>
</g>
</g>
<!-- dir_23b01691b4890a682c2c9668228f6ff1 -->
<g id="node4" class="node"><title>dir_23b01691b4890a682c2c9668228f6ff1</title>
<g id="a_node4"><a xlink:href="dir_23b01691b4890a682c2c9668228f6ff1.html" target="_top" xlink:title="containeroptions">
<polygon fill="white" stroke="black" points="184,-60 96,-60 96,-24 184,-24 184,-60"/>
<text text-anchor="middle" x="140" y="-39.5" font-family="Helvetica,sans-Serif" font-size="10.00">containeroptions</text>
</a>
</g>
</g>
<!-- dir_bb48e7a80dca20d1dd4bed3b8563412d -->
<g id="node5" class="node"><title>dir_bb48e7a80dca20d1dd4bed3b8563412d</title>
<g id="a_node5"><a xlink:href="dir_bb48e7a80dca20d1dd4bed3b8563412d.html" target="_top" xlink:title="dbus">
<polygon fill="white" stroke="black" points="78,-60 24,-60 24,-24 78,-24 78,-60"/>
<text text-anchor="middle" x="51" y="-39.5" font-family="Helvetica,sans-Serif" font-size="10.00">dbus</text>
</a>
</g>
</g>
</g>
</svg>
