<?xml version="1.0" encoding="UTF-8" standalone="no"?>
<!DOCTYPE svg PUBLIC "-//W3C//DTD SVG 1.1//EN"
 "http://www.w3.org/Graphics/SVG/1.1/DTD/svg11.dtd">
<!-- Generated by graphviz version 2.38.0 (20140413.2041)
 -->
<!-- Title: libsoftwarecontainer/src/gateway Pages: 1 -->
<svg width="570pt" height="111pt"
 viewBox="0.00 0.00 570.00 111.00" xmlns="http://www.w3.org/2000/svg" xmlns:xlink="http://www.w3.org/1999/xlink">
<g id="graph0" class="graph" transform="scale(1 1) rotate(0) translate(4 107)">
<title>libsoftwarecontainer/src/gateway</title>
<polygon fill="white" stroke="none" points="-4,4 -4,-107 566,-107 566,4 -4,4"/>
<g id="clust1" class="cluster"><title>clusterdir_dd2ca9362a6a20c7dd07ad4af02f7410</title>
<g id="a_clust1"><a xlink:href="dir_dd2ca9362a6a20c7dd07ad4af02f7410.html" target="_top" xlink:title="src">
<polygon fill="#ddddee" stroke="black" points="8,-8 8,-95 554,-95 554,-8 8,-8"/>
<text text-anchor="middle" x="281" y="-83" font-family="Helvetica,sans-Serif" font-size="10.00">src</text>
</a>
</g>
</g>
<g id="clust2" class="cluster"><title>clusterdir_615a625f06d0029b31ecf0aaf0ab070e</title>
<g id="a_clust2"><a xlink:href="dir_615a625f06d0029b31ecf0aaf0ab070e.html" target="_top">
<polygon fill="#eeeeff" stroke="black" points="16,-16 16,-68 546,-68 546,-16 16,-16"/>
</a>
</g>
</g>
<!-- dir_615a625f06d0029b31ecf0aaf0ab070e -->
<g id="node1" class="node"><title>dir_615a625f06d0029b31ecf0aaf0ab070e</title>
<text text-anchor="middle" x="511" y="-39.5" font-family="Helvetica,sans-Serif" font-size="10.00">gateway</text>
</g>
<!-- dir_646af10687434ab6c31bea5c882c000e -->
<g id="node2" class="node"><title>dir_646af10687434ab6c31bea5c882c000e</title>
<g id="a_node2"><a xlink:href="dir_646af10687434ab6c31bea5c882c000e.html" target="_top" xlink:title="cgroups">
<polygon fill="white" stroke="black" points="466,-60 412,-60 412,-24 466,-24 466,-60"/>
<text text-anchor="middle" x="439" y="-39.5" font-family="Helvetica,sans-Serif" font-size="10.00">cgroups</text>
</a>
</g>
</g>
<!-- dir_db4010e8f7409dcb486f91942cb8935a -->
<g id="node3" class="node"><title>dir_db4010e8f7409dcb486f91942cb8935a</title>
<g id="a_node3"><a xlink:href="dir_db4010e8f7409dcb486f91942cb8935a.html" target="_top" xlink:title="dbus">
<polygon fill="white" stroke="black" points="394,-60 340,-60 340,-24 394,-24 394,-60"/>
<text text-anchor="middle" x="367" y="-39.5" font-family="Helvetica,sans-Serif" font-size="10.00">dbus</text>
</a>
</g>
</g>
<!-- dir_385e7606189d1fb5ca15ea16396c7241 -->
<g id="node4" class="node"><title>dir_385e7606189d1fb5ca15ea16396c7241</title>
<g id="a_node4"><a xlink:href="dir_385e7606189d1fb5ca15ea16396c7241.html" target="_top" xlink:title="devicenode">
<polygon fill="white" stroke="black" points="322,-60 256,-60 256,-24 322,-24 322,-60"/>
<text text-anchor="middle" x="289" y="-39.5" font-family="Helvetica,sans-Serif" font-size="10.00">devicenode</text>
</a>
</g>
</g>
<!-- dir_0fa704ff3a6f29536320c0056049a312 -->
<g id="node5" class="node"><title>dir_0fa704ff3a6f29536320c0056049a312</title>
<g id="a_node5"><a xlink:href="dir_0fa704ff3a6f29536320c0056049a312.html" target="_top" xlink:title="environment">
<polygon fill="white" stroke="black" points="238,-60 168,-60 168,-24 238,-24 238,-60"/>
<text text-anchor="middle" x="203" y="-39.5" font-family="Helvetica,sans-Serif" font-size="10.00">environment</text>
</a>
</g>
</g>
<!-- dir_fb9b4f6d7638029c403f9b6e00db042e -->
<g id="node6" class="node"><title>dir_fb9b4f6d7638029c403f9b6e00db042e</title>
<g id="a_node6"><a xlink:href="dir_fb9b4f6d7638029c403f9b6e00db042e.html" target="_top" xlink:title="files">
<polygon fill="white" stroke="black" points="150,-60 96,-60 96,-24 150,-24 150,-60"/>
<text text-anchor="middle" x="123" y="-39.5" font-family="Helvetica,sans-Serif" font-size="10.00">files</text>
</a>
</g>
</g>
<!-- dir_9714d51461f33f26f35fbf1b742503d5 -->
<g id="node7" class="node"><title>dir_9714d51461f33f26f35fbf1b742503d5</title>
<g id="a_node7"><a xlink:href="dir_9714d51461f33f26f35fbf1b742503d5.html" target="_top" xlink:title="network">
<polygon fill="white" stroke="black" points="78,-60 24,-60 24,-24 78,-24 78,-60"/>
<text text-anchor="middle" x="51" y="-39.5" font-family="Helvetica,sans-Serif" font-size="10.00">network</text>
</a>
</g>
</g>
</g>
</svg>
