<?xml version="1.0" encoding="UTF-8" standalone="no"?>
<!DOCTYPE svg PUBLIC "-//W3C//DTD SVG 1.1//EN"
 "http://www.w3.org/Graphics/SVG/1.1/DTD/svg11.dtd">
<!-- Generated by graphviz version 2.38.0 (20140413.2041)
 -->
<!-- Title: libsoftwarecontainer/src Pages: 1 -->
<svg width="326pt" height="111pt"
 viewBox="0.00 0.00 326.00 111.00" xmlns="http://www.w3.org/2000/svg" xmlns:xlink="http://www.w3.org/1999/xlink">
<g id="graph0" class="graph" transform="scale(1 1) rotate(0) translate(4 107)">
<title>libsoftwarecontainer/src</title>
<polygon fill="white" stroke="none" points="-4,4 -4,-107 322,-107 322,4 -4,4"/>
<g id="clust1" class="cluster"><title>clusterdir_78035595f3e97b7ab7dd9b7dc26bcae3</title>
<g id="a_clust1"><a xlink:href="dir_78035595f3e97b7ab7dd9b7dc26bcae3.html" target="_top" xlink:title="libsoftwarecontainer">
<polygon fill="#ddddee" stroke="black" points="8,-8 8,-95 310,-95 310,-8 8,-8"/>
<text text-anchor="middle" x="159" y="-83" font-family="Helvetica,sans-Serif" font-size="10.00">libsoftwarecontainer</text>
</a>
</g>
</g>
<g id="clust2" class="cluster"><title>clusterdir_dd2ca9362a6a20c7dd07ad4af02f7410</title>
<g id="a_clust2"><a xlink:href="dir_dd2ca9362a6a20c7dd07ad4af02f7410.html" target="_top">
<polygon fill="#eeeeff" stroke="black" points="16,-16 16,-68 302,-68 302,-16 16,-16"/>
</a>
</g>
</g>
<!-- dir_dd2ca9362a6a20c7dd07ad4af02f7410 -->
<g id="node1" class="node"><title>dir_dd2ca9362a6a20c7dd07ad4af02f7410</title>
<text text-anchor="middle" x="267" y="-39.5" font-family="Helvetica,sans-Serif" font-size="10.00">src</text>
</g>
<!-- dir_ca9879a8483b47de1221e8365f75cd32 -->
<g id="node2" class="node"><title>dir_ca9879a8483b47de1221e8365f75cd32</title>
<g id="a_node2"><a xlink:href="dir_ca9879a8483b47de1221e8365f75cd32.html" target="_top" xlink:title="config">
<polygon fill="white" stroke="black" points="222,-60 168,-60 168,-24 222,-24 222,-60"/>
<text text-anchor="middle" x="195" y="-39.5" font-family="Helvetica,sans-Serif" font-size="10.00">config</text>
</a>
</g>
</g>
<!-- dir_615a625f06d0029b31ecf0aaf0ab070e -->
<g id="node3" class="node"><title>dir_615a625f06d0029b31ecf0aaf0ab070e</title>
<g id="a_node3"><a xlink:href="dir_615a625f06d0029b31ecf0aaf0ab070e.html" target="_top" xlink:title="gateway">
<polygon fill="white" stroke="red" points="150,-60 96,-60 96,-24 150,-24 150,-60"/>
<text text-anchor="middle" x="123" y="-39.5" font-family="Helvetica,sans-Serif" font-size="10.00">gateway</text>
</a>
</g>
</g>
<!-- dir_efbb2cb887292a89bf9534919b86704c -->
<g id="node4" class="node"><title>dir_efbb2cb887292a89bf9534919b86704c</title>
<g id="a_node4"><a xlink:href="dir_efbb2cb887292a89bf9534919b86704c.html" target="_top" xlink:title="jobs">
<polygon fill="white" stroke="black" points="78,-60 24,-60 24,-24 78,-24 78,-60"/>
<text text-anchor="middle" x="51" y="-39.5" font-family="Helvetica,sans-Serif" font-size="10.00">jobs</text>
</a>
</g>
</g>
</g>
</svg>
