<?xml version="1.0" encoding="UTF-8" standalone="no"?>
<!DOCTYPE svg PUBLIC "-//W3C//DTD SVG 1.1//EN"
 "http://www.w3.org/Graphics/SVG/1.1/DTD/svg11.dtd">
<!-- Generated by graphviz version 2.38.0 (20140413.2041)
 -->
<!-- Title: libsoftwarecontainer/src/generators.h Pages: 1 -->
<svg width="673pt" height="173pt"
 viewBox="0.00 0.00 672.50 173.00" xmlns="http://www.w3.org/2000/svg" xmlns:xlink="http://www.w3.org/1999/xlink">
<g id="graph0" class="graph" transform="scale(1 1) rotate(0) translate(4 169)">
<title>libsoftwarecontainer/src/generators.h</title>
<polygon fill="white" stroke="none" points="-4,4 -4,-169 668.5,-169 668.5,4 -4,4"/>
<!-- Node1 -->
<g id="node1" class="node"><title>Node1</title>
<polygon fill="#bfbfbf" stroke="black" points="330.5,-134.5 330.5,-164.5 434.5,-164.5 434.5,-134.5 330.5,-134.5"/>
<text text-anchor="start" x="338.5" y="-152.5" font-family="Helvetica,sans-Serif" font-size="10.00">libsoftwarecontainer</text>
<text text-anchor="middle" x="382.5" y="-141.5" font-family="Helvetica,sans-Serif" font-size="10.00">/src/generators.h</text>
</g>
<!-- Node2 -->
<g id="node2" class="node"><title>Node2</title>
<g id="a_node2"><a xlink:href="devicenodegateway_8cpp_source.html" target="_top" xlink:title="libsoftwarecontainer\l/src/gateway/devicenodegateway.cpp">
<polygon fill="white" stroke="black" points="0,-67.5 0,-97.5 181,-97.5 181,-67.5 0,-67.5"/>
<text text-anchor="start" x="8" y="-85.5" font-family="Helvetica,sans-Serif" font-size="10.00">libsoftwarecontainer</text>
<text text-anchor="middle" x="90.5" y="-74.5" font-family="Helvetica,sans-Serif" font-size="10.00">/src/gateway/devicenodegateway.cpp</text>
</a>
</g>
</g>
<!-- Node1&#45;&gt;Node2 -->
<g id="edge1" class="edge"><title>Node1&#45;&gt;Node2</title>
<path fill="none" stroke="midnightblue" d="M320.418,-134.68C271.239,-123.733 202.825,-108.504 153.427,-97.5078"/>
<polygon fill="midnightblue" stroke="midnightblue" points="319.775,-138.123 330.296,-136.879 321.296,-131.29 319.775,-138.123"/>
</g>
<!-- Node3 -->
<g id="node3" class="node"><title>Node3</title>
<g id="a_node3"><a xlink:href="networkgateway_8h_source.html" target="_top" xlink:title="libsoftwarecontainer\l/src/gateway/networkgateway.h">
<polygon fill="white" stroke="black" points="199,-67.5 199,-97.5 354,-97.5 354,-67.5 199,-67.5"/>
<text text-anchor="start" x="207" y="-85.5" font-family="Helvetica,sans-Serif" font-size="10.00">libsoftwarecontainer</text>
<text text-anchor="middle" x="276.5" y="-74.5" font-family="Helvetica,sans-Serif" font-size="10.00">/src/gateway/networkgateway.h</text>
</a>
</g>
</g>
<!-- Node1&#45;&gt;Node3 -->
<g id="edge2" class="edge"><title>Node1&#45;&gt;Node3</title>
<path fill="none" stroke="midnightblue" d="M350.725,-129.015C334.229,-118.9 314.448,-106.77 299.456,-97.5765"/>
<polygon fill="midnightblue" stroke="midnightblue" points="349.145,-132.152 359.5,-134.396 352.804,-126.185 349.145,-132.152"/>
</g>
<!-- Node4 -->
<g id="node4" class="node"><title>Node4</title>
<g id="a_node4"><a xlink:href="networkgateway_8cpp_source.html" target="_top" xlink:title="libsoftwarecontainer\l/src/gateway/networkgateway.cpp">
<polygon fill="white" stroke="black" points="246.5,-0.5 246.5,-30.5 412.5,-30.5 412.5,-0.5 246.5,-0.5"/>
<text text-anchor="start" x="254.5" y="-18.5" font-family="Helvetica,sans-Serif" font-size="10.00">libsoftwarecontainer</text>
<text text-anchor="middle" x="329.5" y="-7.5" font-family="Helvetica,sans-Serif" font-size="10.00">/src/gateway/networkgateway.cpp</text>
</a>
</g>
</g>
<!-- Node1&#45;&gt;Node4 -->
<g id="edge4" class="edge"><title>Node1&#45;&gt;Node4</title>
<path fill="none" stroke="midnightblue" d="M379.253,-124.46C376.447,-107.833 371.543,-85.4658 363.5,-67 357.76,-53.8217 348.523,-40.3929 341.124,-30.699"/>
<polygon fill="midnightblue" stroke="midnightblue" points="375.813,-125.115 380.806,-134.459 382.73,-124.04 375.813,-125.115"/>
</g>
<!-- Node5 -->
<g id="node5" class="node"><title>Node5</title>
<g id="a_node5"><a xlink:href="generators_8cpp_source.html" target="_top" xlink:title="libsoftwarecontainer\l/src/generators.cpp">
<polygon fill="white" stroke="black" points="410.5,-67.5 410.5,-97.5 514.5,-97.5 514.5,-67.5 410.5,-67.5"/>
<text text-anchor="start" x="418.5" y="-85.5" font-family="Helvetica,sans-Serif" font-size="10.00">libsoftwarecontainer</text>
<text text-anchor="middle" x="462.5" y="-74.5" font-family="Helvetica,sans-Serif" font-size="10.00">/src/generators.cpp</text>
</a>
</g>
</g>
<!-- Node1&#45;&gt;Node5 -->
<g id="edge5" class="edge"><title>Node1&#45;&gt;Node5</title>
<path fill="none" stroke="midnightblue" d="M407.875,-127.883C420.032,-118.005 434.279,-106.429 445.175,-97.5765"/>
<polygon fill="midnightblue" stroke="midnightblue" points="405.413,-125.374 399.859,-134.396 409.827,-130.806 405.413,-125.374"/>
</g>
<!-- Node6 -->
<g id="node6" class="node"><title>Node6</title>
<g id="a_node6"><a xlink:href="softwarecontainer_8cpp_source.html" target="_top" xlink:title="libsoftwarecontainer\l/src/softwarecontainer.cpp">
<polygon fill="white" stroke="black" points="532.5,-67.5 532.5,-97.5 664.5,-97.5 664.5,-67.5 532.5,-67.5"/>
<text text-anchor="start" x="540.5" y="-85.5" font-family="Helvetica,sans-Serif" font-size="10.00">libsoftwarecontainer</text>
<text text-anchor="middle" x="598.5" y="-74.5" font-family="Helvetica,sans-Serif" font-size="10.00">/src/softwarecontainer.cpp</text>
</a>
</g>
</g>
<!-- Node1&#45;&gt;Node6 -->
<g id="edge6" class="edge"><title>Node1&#45;&gt;Node6</title>
<path fill="none" stroke="midnightblue" d="M438.727,-131.58C473.81,-121.022 518.44,-107.592 551.608,-97.6109"/>
<polygon fill="midnightblue" stroke="midnightblue" points="437.67,-128.243 429.103,-134.476 439.687,-134.946 437.67,-128.243"/>
</g>
<!-- Node3&#45;&gt;Node4 -->
<g id="edge3" class="edge"><title>Node3&#45;&gt;Node4</title>
<path fill="none" stroke="midnightblue" d="M294.481,-59.4472C302.267,-49.8986 311.151,-39.0037 318.022,-30.5765"/>
<polygon fill="midnightblue" stroke="midnightblue" points="291.607,-57.434 288,-67.396 297.032,-61.8576 291.607,-57.434"/>
</g>
</g>
</svg>
