<?xml version="1.0" encoding="UTF-8" standalone="no"?>
<!DOCTYPE svg PUBLIC "-//W3C//DTD SVG 1.1//EN"
 "http://www.w3.org/Graphics/SVG/1.1/DTD/svg11.dtd">
<!-- Generated by graphviz version 2.38.0 (20140413.2041)
 -->
<!-- Title: libsoftwarecontainer/src/generators.h Pages: 1 -->
<svg width="851pt" height="207pt"
 viewBox="0.00 0.00 850.50 207.00" xmlns="http://www.w3.org/2000/svg" xmlns:xlink="http://www.w3.org/1999/xlink">
<g id="graph0" class="graph" transform="scale(1 1) rotate(0) translate(4 203)">
<title>libsoftwarecontainer/src/generators.h</title>
<polygon fill="white" stroke="none" points="-4,4 -4,-203 846.5,-203 846.5,4 -4,4"/>
<!-- Node1 -->
<g id="node1" class="node"><title>Node1</title>
<polygon fill="#bfbfbf" stroke="black" points="249,-168.5 249,-198.5 362,-198.5 362,-168.5 249,-168.5"/>
<text text-anchor="start" x="257" y="-186.5" font-family="Helvetica,sans-Serif" font-size="10.00">libsoftwarecontainer</text>
<text text-anchor="middle" x="305.5" y="-175.5" font-family="Helvetica,sans-Serif" font-size="10.00">/src/generators.h</text>
</g>
<!-- Node2 -->
<g id="node2" class="node"><title>Node2</title>
<polygon fill="white" stroke="#bfbfbf" points="224.5,-112.5 224.5,-131.5 268.5,-131.5 268.5,-112.5 224.5,-112.5"/>
<text text-anchor="middle" x="246.5" y="-119.5" font-family="Helvetica,sans-Serif" font-size="10.00">string</text>
</g>
<!-- Node1&#45;&gt;Node2 -->
<g id="edge1" class="edge"><title>Node1&#45;&gt;Node2</title>
<path fill="none" stroke="midnightblue" d="M291.518,-168.399C282.768,-159.575 271.471,-148.183 262.383,-139.018"/>
<polygon fill="midnightblue" stroke="midnightblue" points="264.612,-136.294 255.085,-131.658 259.641,-141.223 264.612,-136.294"/>
</g>
<!-- Node3 -->
<g id="node3" class="node"><title>Node3</title>
<g id="a_node3"><a xlink:href="softwarecontainer-common_8h_source.html" target="_top" xlink:title="softwarecontainer&#45;common.h">
<polygon fill="white" stroke="black" points="287,-112.5 287,-131.5 444,-131.5 444,-112.5 287,-112.5"/>
<text text-anchor="middle" x="365.5" y="-119.5" font-family="Helvetica,sans-Serif" font-size="10.00">softwarecontainer&#45;common.h</text>
</a>
</g>
</g>
<!-- Node1&#45;&gt;Node3 -->
<g id="edge2" class="edge"><title>Node1&#45;&gt;Node3</title>
<path fill="none" stroke="midnightblue" d="M319.719,-168.399C328.708,-159.486 340.338,-147.952 349.627,-138.741"/>
<polygon fill="midnightblue" stroke="midnightblue" points="352.133,-141.184 356.769,-131.658 347.204,-136.214 352.133,-141.184"/>
</g>
<!-- Node4 -->
<g id="node4" class="node"><title>Node4</title>
<polygon fill="white" stroke="#bfbfbf" points="0,-56.5 0,-75.5 63,-75.5 63,-56.5 0,-56.5"/>
<text text-anchor="middle" x="31.5" y="-63.5" font-family="Helvetica,sans-Serif" font-size="10.00">sys/wait.h</text>
</g>
<!-- Node3&#45;&gt;Node4 -->
<g id="edge3" class="edge"><title>Node3&#45;&gt;Node4</title>
<path fill="none" stroke="midnightblue" d="M302.433,-112.498C245.228,-104.517 158.352,-91.7282 73.3316,-76.0527"/>
<polygon fill="midnightblue" stroke="midnightblue" points="73.7148,-72.564 63.2435,-74.1772 72.4353,-79.4461 73.7148,-72.564"/>
</g>
<!-- Node5 -->
<g id="node5" class="node"><title>Node5</title>
<polygon fill="white" stroke="#bfbfbf" points="81.5,-56.5 81.5,-75.5 157.5,-75.5 157.5,-56.5 81.5,-56.5"/>
<text text-anchor="middle" x="119.5" y="-63.5" font-family="Helvetica,sans-Serif" font-size="10.00">sys/mount.h</text>
</g>
<!-- Node3&#45;&gt;Node5 -->
<g id="edge4" class="edge"><title>Node3&#45;&gt;Node5</title>
<path fill="none" stroke="midnightblue" d="M326.521,-112.444C283.48,-102.996 214.148,-87.7764 167.722,-77.5854"/>
<polygon fill="midnightblue" stroke="midnightblue" points="168.41,-74.1531 157.892,-75.4275 166.909,-80.9903 168.41,-74.1531"/>
</g>
<!-- Node6 -->
<g id="node6" class="node"><title>Node6</title>
<polygon fill="white" stroke="#bfbfbf" points="176,-56.5 176,-75.5 239,-75.5 239,-56.5 176,-56.5"/>
<text text-anchor="middle" x="207.5" y="-63.5" font-family="Helvetica,sans-Serif" font-size="10.00">sys/stat.h</text>
</g>
<!-- Node3&#45;&gt;Node6 -->
<g id="edge5" class="edge"><title>Node3&#45;&gt;Node6</title>
<path fill="none" stroke="midnightblue" d="M340.464,-112.444C313.884,-103.359 271.691,-88.9388 241.977,-78.7831"/>
<polygon fill="midnightblue" stroke="midnightblue" points="243.013,-75.4386 232.418,-75.5164 240.749,-82.0625 243.013,-75.4386"/>
</g>
<!-- Node7 -->
<g id="node7" class="node"><title>Node7</title>
<polygon fill="white" stroke="#bfbfbf" points="257,-56.5 257,-75.5 328,-75.5 328,-56.5 257,-56.5"/>
<text text-anchor="middle" x="292.5" y="-63.5" font-family="Helvetica,sans-Serif" font-size="10.00">sys/types.h</text>
</g>
<!-- Node3&#45;&gt;Node7 -->
<g id="edge6" class="edge"><title>Node3&#45;&gt;Node7</title>
<path fill="none" stroke="midnightblue" d="M353.771,-112.324C342.663,-104.107 325.758,-91.6017 312.517,-81.8069"/>
<polygon fill="midnightblue" stroke="midnightblue" points="314.563,-78.9671 304.442,-75.8339 310.4,-84.5948 314.563,-78.9671"/>
</g>
<!-- Node8 -->
<g id="node8" class="node"><title>Node8</title>
<polygon fill="white" stroke="#bfbfbf" points="346.5,-56.5 346.5,-75.5 384.5,-75.5 384.5,-56.5 346.5,-56.5"/>
<text text-anchor="middle" x="365.5" y="-63.5" font-family="Helvetica,sans-Serif" font-size="10.00">map</text>
</g>
<!-- Node3&#45;&gt;Node8 -->
<g id="edge7" class="edge"><title>Node3&#45;&gt;Node8</title>
<path fill="none" stroke="midnightblue" d="M365.5,-112.083C365.5,-105.006 365.5,-94.8611 365.5,-85.9865"/>
<polygon fill="midnightblue" stroke="midnightblue" points="369,-85.751 365.5,-75.7511 362,-85.7511 369,-85.751"/>
</g>
<!-- Node9 -->
<g id="node9" class="node"><title>Node9</title>
<polygon fill="white" stroke="#bfbfbf" points="403,-56.5 403,-75.5 460,-75.5 460,-56.5 403,-56.5"/>
<text text-anchor="middle" x="431.5" y="-63.5" font-family="Helvetica,sans-Serif" font-size="10.00">memory</text>
</g>
<!-- Node3&#45;&gt;Node9 -->
<g id="edge8" class="edge"><title>Node3&#45;&gt;Node9</title>
<path fill="none" stroke="midnightblue" d="M376.104,-112.324C385.956,-104.263 400.851,-92.0765 412.715,-82.3695"/>
<polygon fill="midnightblue" stroke="midnightblue" points="415.18,-84.8752 420.703,-75.8339 410.747,-79.4575 415.18,-84.8752"/>
</g>
<!-- Node10 -->
<g id="node10" class="node"><title>Node10</title>
<polygon fill="white" stroke="#bfbfbf" points="478,-56.5 478,-75.5 525,-75.5 525,-56.5 478,-56.5"/>
<text text-anchor="middle" x="501.5" y="-63.5" font-family="Helvetica,sans-Serif" font-size="10.00">vector</text>
</g>
<!-- Node3&#45;&gt;Node10 -->
<g id="edge9" class="edge"><title>Node3&#45;&gt;Node10</title>
<path fill="none" stroke="midnightblue" d="M387.05,-112.444C409.531,-103.517 444.988,-89.4387 470.48,-79.3168"/>
<polygon fill="midnightblue" stroke="midnightblue" points="472.049,-82.4598 480.051,-75.5164 469.465,-75.9539 472.049,-82.4598"/>
</g>
<!-- Node11 -->
<g id="node11" class="node"><title>Node11</title>
<polygon fill="white" stroke="#bfbfbf" points="543,-56.5 543,-75.5 686,-75.5 686,-56.5 543,-56.5"/>
<text text-anchor="middle" x="614.5" y="-63.5" font-family="Helvetica,sans-Serif" font-size="10.00">softwarecontainer&#45;config.h</text>
</g>
<!-- Node3&#45;&gt;Node11 -->
<g id="edge10" class="edge"><title>Node3&#45;&gt;Node11</title>
<path fill="none" stroke="midnightblue" d="M404.955,-112.444C448.392,-103.023 518.286,-87.8656 565.276,-77.6752"/>
<polygon fill="midnightblue" stroke="midnightblue" points="566.199,-81.0564 575.23,-75.5164 564.715,-74.2154 566.199,-81.0564"/>
</g>
<!-- Node12 -->
<g id="node12" class="node"><title>Node12</title>
<g id="a_node12"><a xlink:href="softwarecontainer-log_8h_source.html" target="_top" xlink:title="softwarecontainer&#45;log.h">
<polygon fill="white" stroke="black" points="704.5,-56.5 704.5,-75.5 832.5,-75.5 832.5,-56.5 704.5,-56.5"/>
<text text-anchor="middle" x="768.5" y="-63.5" font-family="Helvetica,sans-Serif" font-size="10.00">softwarecontainer&#45;log.h</text>
</a>
</g>
</g>
<!-- Node3&#45;&gt;Node12 -->
<g id="edge11" class="edge"><title>Node3&#45;&gt;Node12</title>
<path fill="none" stroke="midnightblue" d="M429.357,-112.444C501.575,-102.767 618.978,-87.0351 694.966,-76.8533"/>
<polygon fill="midnightblue" stroke="midnightblue" points="695.496,-80.3136 704.942,-75.5164 694.566,-73.3756 695.496,-80.3136"/>
</g>
<!-- Node13 -->
<g id="node13" class="node"><title>Node13</title>
<polygon fill="white" stroke="#bfbfbf" points="688.5,-0.5 688.5,-19.5 762.5,-19.5 762.5,-0.5 688.5,-0.5"/>
<text text-anchor="middle" x="725.5" y="-7.5" font-family="Helvetica,sans-Serif" font-size="10.00">ivi&#45;logging.h</text>
</g>
<!-- Node12&#45;&gt;Node13 -->
<g id="edge12" class="edge"><title>Node12&#45;&gt;Node13</title>
<path fill="none" stroke="midnightblue" d="M761.399,-56.083C755.263,-48.3768 746.23,-37.0333 738.761,-27.6531"/>
<polygon fill="midnightblue" stroke="midnightblue" points="741.436,-25.3936 732.468,-19.7511 735.96,-29.7542 741.436,-25.3936"/>
</g>
<!-- Node14 -->
<g id="node14" class="node"><title>Node14</title>
<polygon fill="white" stroke="#bfbfbf" points="780.5,-0.5 780.5,-19.5 842.5,-19.5 842.5,-0.5 780.5,-0.5"/>
<text text-anchor="middle" x="811.5" y="-7.5" font-family="Helvetica,sans-Serif" font-size="10.00">glibmm.h</text>
</g>
<!-- Node12&#45;&gt;Node14 -->
<g id="edge13" class="edge"><title>Node12&#45;&gt;Node14</title>
<path fill="none" stroke="midnightblue" d="M775.601,-56.083C781.737,-48.3768 790.77,-37.0333 798.239,-27.6531"/>
<polygon fill="midnightblue" stroke="midnightblue" points="801.04,-29.7542 804.532,-19.7511 795.564,-25.3936 801.04,-29.7542"/>
</g>
</g>
</svg>
