<?xml version="1.0" encoding="UTF-8" standalone="no"?>
<!DOCTYPE svg PUBLIC "-//W3C//DTD SVG 1.1//EN"
 "http://www.w3.org/Graphics/SVG/1.1/DTD/svg11.dtd">
<!-- Generated by graphviz version 2.38.0 (20140413.2041)
 -->
<!-- Title: libsoftwarecontainer/src/generators.h Pages: 1 -->
<svg width="882pt" height="207pt"
 viewBox="0.00 0.00 882.00 207.00" xmlns="http://www.w3.org/2000/svg" xmlns:xlink="http://www.w3.org/1999/xlink">
<g id="graph0" class="graph" transform="scale(1 1) rotate(0) translate(4 203)">
<title>libsoftwarecontainer/src/generators.h</title>
<polygon fill="white" stroke="none" points="-4,4 -4,-203 878,-203 878,4 -4,4"/>
<!-- Node1 -->
<g id="node1" class="node"><title>Node1</title>
<polygon fill="#bfbfbf" stroke="black" points="276,-168.5 276,-198.5 380,-198.5 380,-168.5 276,-168.5"/>
<text text-anchor="start" x="284" y="-186.5" font-family="Helvetica,sans-Serif" font-size="10.00">libsoftwarecontainer</text>
<text text-anchor="middle" x="328" y="-175.5" font-family="Helvetica,sans-Serif" font-size="10.00">/src/generators.h</text>
</g>
<!-- Node2 -->
<g id="node2" class="node"><title>Node2</title>
<polygon fill="white" stroke="#bfbfbf" points="252.5,-112.5 252.5,-131.5 293.5,-131.5 293.5,-112.5 252.5,-112.5"/>
<text text-anchor="middle" x="273" y="-119.5" font-family="Helvetica,sans-Serif" font-size="10.00">string</text>
</g>
<!-- Node1&#45;&gt;Node2 -->
<g id="edge1" class="edge"><title>Node1&#45;&gt;Node2</title>
<path fill="none" stroke="midnightblue" d="M314.966,-168.399C306.809,-159.575 296.278,-148.183 287.806,-139.018"/>
<polygon fill="midnightblue" stroke="midnightblue" points="290.361,-136.625 281.003,-131.658 285.221,-141.377 290.361,-136.625"/>
</g>
<!-- Node3 -->
<g id="node3" class="node"><title>Node3</title>
<g id="a_node3"><a xlink:href="softwarecontainer-common_8h_source.html" target="_top" xlink:title="softwarecontainer&#45;common.h">
<polygon fill="white" stroke="black" points="311.5,-112.5 311.5,-131.5 454.5,-131.5 454.5,-112.5 311.5,-112.5"/>
<text text-anchor="middle" x="383" y="-119.5" font-family="Helvetica,sans-Serif" font-size="10.00">softwarecontainer&#45;common.h</text>
</a>
</g>
</g>
<!-- Node1&#45;&gt;Node3 -->
<g id="edge2" class="edge"><title>Node1&#45;&gt;Node3</title>
<path fill="none" stroke="midnightblue" d="M341.034,-168.399C349.191,-159.575 359.722,-148.183 368.194,-139.018"/>
<polygon fill="midnightblue" stroke="midnightblue" points="370.779,-141.377 374.997,-131.658 365.639,-136.625 370.779,-141.377"/>
</g>
<!-- Node4 -->
<g id="node4" class="node"><title>Node4</title>
<polygon fill="white" stroke="#bfbfbf" points="0,-56.5 0,-75.5 62,-75.5 62,-56.5 0,-56.5"/>
<text text-anchor="middle" x="31" y="-63.5" font-family="Helvetica,sans-Serif" font-size="10.00">sys/wait.h</text>
</g>
<!-- Node3&#45;&gt;Node4 -->
<g id="edge3" class="edge"><title>Node3&#45;&gt;Node4</title>
<path fill="none" stroke="midnightblue" d="M313.042,-112.498C251.933,-104.708 160.636,-92.1973 72.3139,-76.1292"/>
<polygon fill="midnightblue" stroke="midnightblue" points="72.8631,-72.6716 62.3953,-74.3072 71.5984,-79.5564 72.8631,-72.6716"/>
</g>
<!-- Node5 -->
<g id="node5" class="node"><title>Node5</title>
<polygon fill="white" stroke="#bfbfbf" points="80.5,-56.5 80.5,-75.5 151.5,-75.5 151.5,-56.5 80.5,-56.5"/>
<text text-anchor="middle" x="116" y="-63.5" font-family="Helvetica,sans-Serif" font-size="10.00">sys/mount.h</text>
</g>
<!-- Node3&#45;&gt;Node5 -->
<g id="edge4" class="edge"><title>Node3&#45;&gt;Node5</title>
<path fill="none" stroke="midnightblue" d="M340.693,-112.444C291.857,-102.567 211.833,-86.382 161.632,-76.2288"/>
<polygon fill="midnightblue" stroke="midnightblue" points="162.196,-72.7722 151.7,-74.2203 160.808,-79.6333 162.196,-72.7722"/>
</g>
<!-- Node6 -->
<g id="node6" class="node"><title>Node6</title>
<polygon fill="white" stroke="#bfbfbf" points="170,-56.5 170,-75.5 230,-75.5 230,-56.5 170,-56.5"/>
<text text-anchor="middle" x="200" y="-63.5" font-family="Helvetica,sans-Serif" font-size="10.00">sys/stat.h</text>
</g>
<!-- Node3&#45;&gt;Node6 -->
<g id="edge5" class="edge"><title>Node3&#45;&gt;Node6</title>
<path fill="none" stroke="midnightblue" d="M354.003,-112.444C322.815,-103.241 273.07,-88.5617 238.592,-78.3879"/>
<polygon fill="midnightblue" stroke="midnightblue" points="239.443,-74.9898 228.861,-75.5164 237.462,-81.7036 239.443,-74.9898"/>
</g>
<!-- Node7 -->
<g id="node7" class="node"><title>Node7</title>
<polygon fill="white" stroke="#bfbfbf" points="248,-56.5 248,-75.5 316,-75.5 316,-56.5 248,-56.5"/>
<text text-anchor="middle" x="282" y="-63.5" font-family="Helvetica,sans-Serif" font-size="10.00">sys/types.h</text>
</g>
<!-- Node3&#45;&gt;Node7 -->
<g id="edge6" class="edge"><title>Node3&#45;&gt;Node7</title>
<path fill="none" stroke="midnightblue" d="M366.773,-112.324C350.649,-103.703 325.7,-90.3643 307.036,-80.3855"/>
<polygon fill="midnightblue" stroke="midnightblue" points="308.656,-77.283 298.187,-75.6545 305.356,-83.456 308.656,-77.283"/>
</g>
<!-- Node8 -->
<g id="node8" class="node"><title>Node8</title>
<polygon fill="white" stroke="#bfbfbf" points="334.5,-56.5 334.5,-75.5 369.5,-75.5 369.5,-56.5 334.5,-56.5"/>
<text text-anchor="middle" x="352" y="-63.5" font-family="Helvetica,sans-Serif" font-size="10.00">map</text>
</g>
<!-- Node3&#45;&gt;Node8 -->
<g id="edge7" class="edge"><title>Node3&#45;&gt;Node8</title>
<path fill="none" stroke="midnightblue" d="M377.881,-112.083C373.592,-104.613 367.342,-93.7244 362.058,-84.5199"/>
<polygon fill="midnightblue" stroke="midnightblue" points="365.038,-82.6811 357.024,-75.7511 358.967,-86.1662 365.038,-82.6811"/>
</g>
<!-- Node9 -->
<g id="node9" class="node"><title>Node9</title>
<polygon fill="white" stroke="#bfbfbf" points="388,-56.5 388,-75.5 440,-75.5 440,-56.5 388,-56.5"/>
<text text-anchor="middle" x="414" y="-63.5" font-family="Helvetica,sans-Serif" font-size="10.00">memory</text>
</g>
<!-- Node3&#45;&gt;Node9 -->
<g id="edge8" class="edge"><title>Node3&#45;&gt;Node9</title>
<path fill="none" stroke="midnightblue" d="M388.119,-112.083C392.408,-104.613 398.658,-93.7244 403.942,-84.5199"/>
<polygon fill="midnightblue" stroke="midnightblue" points="407.033,-86.1662 408.976,-75.7511 400.962,-82.6811 407.033,-86.1662"/>
</g>
<!-- Node10 -->
<g id="node10" class="node"><title>Node10</title>
<polygon fill="white" stroke="#bfbfbf" points="458,-56.5 458,-75.5 502,-75.5 502,-56.5 458,-56.5"/>
<text text-anchor="middle" x="480" y="-63.5" font-family="Helvetica,sans-Serif" font-size="10.00">vector</text>
</g>
<!-- Node3&#45;&gt;Node10 -->
<g id="edge9" class="edge"><title>Node3&#45;&gt;Node10</title>
<path fill="none" stroke="midnightblue" d="M398.585,-112.324C413.999,-103.743 437.812,-90.486 455.71,-80.5224"/>
<polygon fill="midnightblue" stroke="midnightblue" points="457.419,-83.5767 464.454,-75.6545 454.014,-77.4606 457.419,-83.5767"/>
</g>
<!-- Node11 -->
<g id="node11" class="node"><title>Node11</title>
<polygon fill="white" stroke="#bfbfbf" points="520.5,-56.5 520.5,-75.5 579.5,-75.5 579.5,-56.5 520.5,-56.5"/>
<text text-anchor="middle" x="550" y="-63.5" font-family="Helvetica,sans-Serif" font-size="10.00">jansson.h</text>
</g>
<!-- Node3&#45;&gt;Node11 -->
<g id="edge10" class="edge"><title>Node3&#45;&gt;Node11</title>
<path fill="none" stroke="midnightblue" d="M409.462,-112.444C437.678,-103.32 482.54,-88.8133 513.968,-78.6509"/>
<polygon fill="midnightblue" stroke="midnightblue" points="515.224,-81.9234 523.662,-75.5164 513.07,-75.263 515.224,-81.9234"/>
</g>
<!-- Node12 -->
<g id="node12" class="node"><title>Node12</title>
<polygon fill="white" stroke="#bfbfbf" points="597.5,-56.5 597.5,-75.5 728.5,-75.5 728.5,-56.5 597.5,-56.5"/>
<text text-anchor="middle" x="663" y="-63.5" font-family="Helvetica,sans-Serif" font-size="10.00">softwarecontainer&#45;config.h</text>
</g>
<!-- Node3&#45;&gt;Node12 -->
<g id="edge11" class="edge"><title>Node3&#45;&gt;Node12</title>
<path fill="none" stroke="midnightblue" d="M427.367,-112.444C476.622,-102.944 556.128,-87.611 608.971,-77.4198"/>
<polygon fill="midnightblue" stroke="midnightblue" points="609.684,-80.8469 618.841,-75.5164 608.359,-73.9735 609.684,-80.8469"/>
</g>
<!-- Node13 -->
<g id="node13" class="node"><title>Node13</title>
<g id="a_node13"><a xlink:href="softwarecontainer-log_8h_source.html" target="_top" xlink:title="softwarecontainer&#45;log.h">
<polygon fill="white" stroke="black" points="747,-56.5 747,-75.5 865,-75.5 865,-56.5 747,-56.5"/>
<text text-anchor="middle" x="806" y="-63.5" font-family="Helvetica,sans-Serif" font-size="10.00">softwarecontainer&#45;log.h</text>
</a>
</g>
</g>
<!-- Node3&#45;&gt;Node13 -->
<g id="edge12" class="edge"><title>Node3&#45;&gt;Node13</title>
<path fill="none" stroke="midnightblue" d="M451.07,-112.484C520.309,-103.797 631.007,-89.8369 736.476,-76.1921"/>
<polygon fill="midnightblue" stroke="midnightblue" points="737.197,-79.628 746.664,-74.8728 736.298,-72.686 737.197,-79.628"/>
</g>
<!-- Node14 -->
<g id="node14" class="node"><title>Node14</title>
<polygon fill="white" stroke="#bfbfbf" points="732,-0.5 732,-19.5 800,-19.5 800,-0.5 732,-0.5"/>
<text text-anchor="middle" x="766" y="-7.5" font-family="Helvetica,sans-Serif" font-size="10.00">ivi&#45;logging.h</text>
</g>
<!-- Node13&#45;&gt;Node14 -->
<g id="edge13" class="edge"><title>Node13&#45;&gt;Node14</title>
<path fill="none" stroke="midnightblue" d="M799.395,-56.083C793.745,-48.4554 785.455,-37.2645 778.549,-27.9408"/>
<polygon fill="midnightblue" stroke="midnightblue" points="781.247,-25.7034 772.482,-19.7511 775.622,-29.87 781.247,-25.7034"/>
</g>
<!-- Node15 -->
<g id="node15" class="node"><title>Node15</title>
<polygon fill="white" stroke="#bfbfbf" points="818,-0.5 818,-19.5 874,-19.5 874,-0.5 818,-0.5"/>
<text text-anchor="middle" x="846" y="-7.5" font-family="Helvetica,sans-Serif" font-size="10.00">glibmm.h</text>
</g>
<!-- Node13&#45;&gt;Node15 -->
<g id="edge14" class="edge"><title>Node13&#45;&gt;Node15</title>
<path fill="none" stroke="midnightblue" d="M812.605,-56.083C818.255,-48.4554 826.545,-37.2645 833.451,-27.9408"/>
<polygon fill="midnightblue" stroke="midnightblue" points="836.378,-29.87 839.518,-19.7511 830.753,-25.7034 836.378,-29.87"/>
</g>
</g>
</svg>
