<?xml version="1.0" encoding="UTF-8" standalone="no"?>
<!DOCTYPE svg PUBLIC "-//W3C//DTD SVG 1.1//EN"
 "http://www.w3.org/Graphics/SVG/1.1/DTD/svg11.dtd">
<!-- Generated by graphviz version 2.38.0 (20140413.2041)
 -->
<!-- Title: libsoftwarecontainer/src/generators.h Pages: 1 -->
<svg width="714pt" height="173pt"
 viewBox="0.00 0.00 713.50 173.00" xmlns="http://www.w3.org/2000/svg" xmlns:xlink="http://www.w3.org/1999/xlink">
<g id="graph0" class="graph" transform="scale(1 1) rotate(0) translate(4 169)">
<title>libsoftwarecontainer/src/generators.h</title>
<polygon fill="white" stroke="none" points="-4,4 -4,-169 709.5,-169 709.5,4 -4,4"/>
<!-- Node1 -->
<g id="node1" class="node"><title>Node1</title>
<polygon fill="#bfbfbf" stroke="black" points="347,-134.5 347,-164.5 460,-164.5 460,-134.5 347,-134.5"/>
<text text-anchor="start" x="355" y="-152.5" font-family="Helvetica,sans-Serif" font-size="10.00">libsoftwarecontainer</text>
<text text-anchor="middle" x="403.5" y="-141.5" font-family="Helvetica,sans-Serif" font-size="10.00">/src/generators.h</text>
</g>
<!-- Node2 -->
<g id="node2" class="node"><title>Node2</title>
<g id="a_node2"><a xlink:href="devicenodegateway_8cpp_source.html" target="_top" xlink:title="libsoftwarecontainer\l/src/gateway/devicenodegateway.cpp">
<polygon fill="white" stroke="black" points="0,-67.5 0,-97.5 193,-97.5 193,-67.5 0,-67.5"/>
<text text-anchor="start" x="8" y="-85.5" font-family="Helvetica,sans-Serif" font-size="10.00">libsoftwarecontainer</text>
<text text-anchor="middle" x="96.5" y="-74.5" font-family="Helvetica,sans-Serif" font-size="10.00">/src/gateway/devicenodegateway.cpp</text>
</a>
</g>
</g>
<!-- Node1&#45;&gt;Node2 -->
<g id="edge1" class="edge"><title>Node1&#45;&gt;Node2</title>
<path fill="none" stroke="midnightblue" d="M336.789,-134.376C285.21,-123.455 214.159,-108.411 162.707,-97.5178"/>
<polygon fill="midnightblue" stroke="midnightblue" points="336.326,-137.855 346.834,-136.502 337.776,-131.007 336.326,-137.855"/>
</g>
<!-- Node3 -->
<g id="node3" class="node"><title>Node3</title>
<g id="a_node3"><a xlink:href="networkgateway_8h_source.html" target="_top" xlink:title="libsoftwarecontainer\l/src/gateway/networkgateway.h">
<polygon fill="white" stroke="black" points="211.5,-67.5 211.5,-97.5 375.5,-97.5 375.5,-67.5 211.5,-67.5"/>
<text text-anchor="start" x="219.5" y="-85.5" font-family="Helvetica,sans-Serif" font-size="10.00">libsoftwarecontainer</text>
<text text-anchor="middle" x="293.5" y="-74.5" font-family="Helvetica,sans-Serif" font-size="10.00">/src/gateway/networkgateway.h</text>
</a>
</g>
</g>
<!-- Node1&#45;&gt;Node3 -->
<g id="edge2" class="edge"><title>Node1&#45;&gt;Node3</title>
<path fill="none" stroke="midnightblue" d="M371,-129.296C353.788,-119.125 333.024,-106.855 317.322,-97.5765"/>
<polygon fill="midnightblue" stroke="midnightblue" points="369.242,-132.322 379.632,-134.396 372.803,-126.295 369.242,-132.322"/>
</g>
<!-- Node4 -->
<g id="node4" class="node"><title>Node4</title>
<g id="a_node4"><a xlink:href="networkgateway_8cpp_source.html" target="_top" xlink:title="libsoftwarecontainer\l/src/gateway/networkgateway.cpp">
<polygon fill="white" stroke="black" points="260.5,-0.5 260.5,-30.5 436.5,-30.5 436.5,-0.5 260.5,-0.5"/>
<text text-anchor="start" x="268.5" y="-18.5" font-family="Helvetica,sans-Serif" font-size="10.00">libsoftwarecontainer</text>
<text text-anchor="middle" x="348.5" y="-7.5" font-family="Helvetica,sans-Serif" font-size="10.00">/src/gateway/networkgateway.cpp</text>
</a>
</g>
</g>
<!-- Node1&#45;&gt;Node4 -->
<g id="edge4" class="edge"><title>Node1&#45;&gt;Node4</title>
<path fill="none" stroke="midnightblue" d="M400.408,-124.391C397.673,-107.732 392.79,-85.3566 384.5,-67 378.473,-53.6545 368.69,-40.2362 360.842,-30.5888"/>
<polygon fill="midnightblue" stroke="midnightblue" points="396.967,-125.042 401.91,-134.413 403.889,-124.005 396.967,-125.042"/>
</g>
<!-- Node5 -->
<g id="node5" class="node"><title>Node5</title>
<g id="a_node5"><a xlink:href="generators_8cpp_source.html" target="_top" xlink:title="libsoftwarecontainer\l/src/generators.cpp">
<polygon fill="white" stroke="black" points="432,-67.5 432,-97.5 545,-97.5 545,-67.5 432,-67.5"/>
<text text-anchor="start" x="440" y="-85.5" font-family="Helvetica,sans-Serif" font-size="10.00">libsoftwarecontainer</text>
<text text-anchor="middle" x="488.5" y="-74.5" font-family="Helvetica,sans-Serif" font-size="10.00">/src/generators.cpp</text>
</a>
</g>
</g>
<!-- Node1&#45;&gt;Node5 -->
<g id="edge5" class="edge"><title>Node1&#45;&gt;Node5</title>
<path fill="none" stroke="midnightblue" d="M430.088,-128.168C443.086,-118.228 458.404,-106.514 470.092,-97.5765"/>
<polygon fill="midnightblue" stroke="midnightblue" points="427.761,-125.541 421.944,-134.396 432.013,-131.102 427.761,-125.541"/>
</g>
<!-- Node6 -->
<g id="node6" class="node"><title>Node6</title>
<g id="a_node6"><a xlink:href="softwarecontainer_8cpp_source.html" target="_top" xlink:title="libsoftwarecontainer\l/src/softwarecontainer.cpp">
<polygon fill="white" stroke="black" points="563.5,-67.5 563.5,-97.5 705.5,-97.5 705.5,-67.5 563.5,-67.5"/>
<text text-anchor="start" x="571.5" y="-85.5" font-family="Helvetica,sans-Serif" font-size="10.00">libsoftwarecontainer</text>
<text text-anchor="middle" x="634.5" y="-74.5" font-family="Helvetica,sans-Serif" font-size="10.00">/src/softwarecontainer.cpp</text>
</a>
</g>
</g>
<!-- Node1&#45;&gt;Node6 -->
<g id="edge6" class="edge"><title>Node1&#45;&gt;Node6</title>
<path fill="none" stroke="midnightblue" d="M463.152,-131.715C500.743,-121.137 548.729,-107.635 584.352,-97.6109"/>
<polygon fill="midnightblue" stroke="midnightblue" points="462.017,-128.398 453.339,-134.476 463.913,-135.136 462.017,-128.398"/>
</g>
<!-- Node3&#45;&gt;Node4 -->
<g id="edge3" class="edge"><title>Node3&#45;&gt;Node4</title>
<path fill="none" stroke="midnightblue" d="M311.916,-59.7362C320.053,-50.119 329.386,-39.0888 336.589,-30.5765"/>
<polygon fill="midnightblue" stroke="midnightblue" points="309.222,-57.5013 305.434,-67.396 314.565,-62.0229 309.222,-57.5013"/>
</g>
</g>
</svg>
