<?xml version="1.0" encoding="UTF-8" standalone="no"?>
<!DOCTYPE svg PUBLIC "-//W3C//DTD SVG 1.1//EN"
 "http://www.w3.org/Graphics/SVG/1.1/DTD/svg11.dtd">
<!-- Generated by graphviz version 2.38.0 (20140413.2041)
 -->
<!-- Title: Graphical Class Hierarchy Pages: 1 -->
<svg width="572pt" height="651pt"
 viewBox="0.00 0.00 572.00 651.00" xmlns="http://www.w3.org/2000/svg" xmlns:xlink="http://www.w3.org/1999/xlink">
<g id="graph0" class="graph" transform="scale(1 1) rotate(0) translate(4 647)">
<title>Graphical Class Hierarchy</title>
<polygon fill="white" stroke="none" points="-4,4 -4,-647 568,-647 568,4 -4,4"/>
<!-- Node1 -->
<g id="node1" class="node"><title>Node1</title>
<polygon fill="white" stroke="#bfbfbf" points="0,-177 0,-196 59,-196 59,-177 0,-177"/>
<text text-anchor="middle" x="29.5" y="-184" font-family="Helvetica,sans-Serif" font-size="10.00">exception</text>
</g>
<!-- Node2 -->
<g id="node2" class="node"><title>Node2</title>
<g id="a_node2"><a xlink:href="classsoftwarecontainer_1_1_gateway_error.html" target="_top" xlink:title="softwarecontainer::\lGatewayError">
<polygon fill="white" stroke="black" points="104.5,-220.5 104.5,-250.5 204.5,-250.5 204.5,-220.5 104.5,-220.5"/>
<text text-anchor="start" x="112.5" y="-238.5" font-family="Helvetica,sans-Serif" font-size="10.00">softwarecontainer::</text>
<text text-anchor="middle" x="154.5" y="-227.5" font-family="Helvetica,sans-Serif" font-size="10.00">GatewayError</text>
</a>
</g>
</g>
<!-- Node1&#45;&gt;Node2 -->
<g id="edge1" class="edge"><title>Node1&#45;&gt;Node2</title>
<path fill="none" stroke="midnightblue" d="M63.9652,-199.832C79.9017,-206.18 99.0336,-213.802 115.514,-220.367"/>
<polygon fill="midnightblue" stroke="midnightblue" points="65.0929,-196.513 54.5076,-196.064 62.5023,-203.016 65.0929,-196.513"/>
</g>
<!-- Node3 -->
<g id="node3" class="node"><title>Node3</title>
<g id="a_node3"><a xlink:href="classsoftwarecontainer_1_1_gateway_parser_error.html" target="_top" xlink:title="softwarecontainer::\lGatewayParserError">
<polygon fill="white" stroke="black" points="102,-171.5 102,-201.5 207,-201.5 207,-171.5 102,-171.5"/>
<text text-anchor="start" x="110" y="-189.5" font-family="Helvetica,sans-Serif" font-size="10.00">softwarecontainer::</text>
<text text-anchor="middle" x="154.5" y="-178.5" font-family="Helvetica,sans-Serif" font-size="10.00">GatewayParserError</text>
</a>
</g>
</g>
<!-- Node1&#45;&gt;Node3 -->
<g id="edge2" class="edge"><title>Node1&#45;&gt;Node3</title>
<path fill="none" stroke="midnightblue" d="M69.0594,-186.5C79.4877,-186.5 90.9432,-186.5 101.961,-186.5"/>
<polygon fill="midnightblue" stroke="midnightblue" points="69.0279,-183 59.0278,-186.5 69.0278,-190 69.0279,-183"/>
</g>
<!-- Node4 -->
<g id="node4" class="node"><title>Node4</title>
<g id="a_node4"><a xlink:href="classsoftwarecontainer_1_1_software_container_error.html" target="_top" xlink:title="softwarecontainer::\lSoftwareContainerError">
<polygon fill="white" stroke="black" points="95,-122.5 95,-152.5 214,-152.5 214,-122.5 95,-122.5"/>
<text text-anchor="start" x="103" y="-140.5" font-family="Helvetica,sans-Serif" font-size="10.00">softwarecontainer::</text>
<text text-anchor="middle" x="154.5" y="-129.5" font-family="Helvetica,sans-Serif" font-size="10.00">SoftwareContainerError</text>
</a>
</g>
</g>
<!-- Node1&#45;&gt;Node4 -->
<g id="edge3" class="edge"><title>Node1&#45;&gt;Node4</title>
<path fill="none" stroke="midnightblue" d="M63.9652,-173.168C79.9017,-166.82 99.0336,-159.198 115.514,-152.633"/>
<polygon fill="midnightblue" stroke="midnightblue" points="62.5023,-169.984 54.5076,-176.936 65.0929,-176.487 62.5023,-169.984"/>
</g>
<!-- Node5 -->
<g id="node5" class="node"><title>Node5</title>
<g id="a_node5"><a xlink:href="classsoftwarecontainer_1_1_cgroups_gateway_error.html" target="_top" xlink:title="softwarecontainer::\lCgroupsGatewayError">
<polygon fill="white" stroke="black" points="265.5,-538.5 265.5,-568.5 378.5,-568.5 378.5,-538.5 265.5,-538.5"/>
<text text-anchor="start" x="273.5" y="-556.5" font-family="Helvetica,sans-Serif" font-size="10.00">softwarecontainer::</text>
<text text-anchor="middle" x="322" y="-545.5" font-family="Helvetica,sans-Serif" font-size="10.00">CgroupsGatewayError</text>
</a>
</g>
</g>
<!-- Node4&#45;&gt;Node5 -->
<g id="edge4" class="edge"><title>Node4&#45;&gt;Node5</title>
<path fill="none" stroke="midnightblue" d="M210.892,-159.031C211.991,-160.131 213.03,-161.287 214,-162.5 269.297,-231.685 226.768,-273.033 250,-358.5 268.618,-426.991 300.626,-505.545 314.391,-538.115"/>
<polygon fill="midnightblue" stroke="midnightblue" points="212.86,-156.121 202.889,-152.542 208.451,-161.559 212.86,-156.121"/>
</g>
<!-- Node9 -->
<g id="node9" class="node"><title>Node9</title>
<g id="a_node9"><a xlink:href="classsoftwarecontainer_1_1_config_error.html" target="_top" xlink:title="softwarecontainer::\lConfigError">
<polygon fill="white" stroke="black" points="272,-318.5 272,-348.5 372,-348.5 372,-318.5 272,-318.5"/>
<text text-anchor="start" x="280" y="-336.5" font-family="Helvetica,sans-Serif" font-size="10.00">softwarecontainer::</text>
<text text-anchor="middle" x="322" y="-325.5" font-family="Helvetica,sans-Serif" font-size="10.00">ConfigError</text>
</a>
</g>
</g>
<!-- Node4&#45;&gt;Node9 -->
<g id="edge8" class="edge"><title>Node4&#45;&gt;Node9</title>
<path fill="none" stroke="midnightblue" d="M207.819,-157.791C209.981,-159.266 212.054,-160.835 214,-162.5 266.686,-207.581 301.881,-285.22 315.125,-318.087"/>
<polygon fill="midnightblue" stroke="midnightblue" points="209.497,-154.715 199.126,-152.55 205.883,-160.71 209.497,-154.715"/>
</g>
<!-- Node16 -->
<g id="node16" class="node"><title>Node16</title>
<g id="a_node16"><a xlink:href="classsoftwarecontainer_1_1_config_store_error.html" target="_top" xlink:title="softwarecontainer::\lConfigStoreError">
<polygon fill="white" stroke="black" points="272,-147.5 272,-177.5 372,-177.5 372,-147.5 272,-147.5"/>
<text text-anchor="start" x="280" y="-165.5" font-family="Helvetica,sans-Serif" font-size="10.00">softwarecontainer::</text>
<text text-anchor="middle" x="322" y="-154.5" font-family="Helvetica,sans-Serif" font-size="10.00">ConfigStoreError</text>
</a>
</g>
</g>
<!-- Node4&#45;&gt;Node16 -->
<g id="edge15" class="edge"><title>Node4&#45;&gt;Node16</title>
<path fill="none" stroke="midnightblue" d="M224.632,-147.943C240.522,-150.343 257.101,-152.848 271.938,-155.089"/>
<polygon fill="midnightblue" stroke="midnightblue" points="224.726,-144.417 214.315,-146.384 223.68,-151.339 224.726,-144.417"/>
</g>
<!-- Node20 -->
<g id="node20" class="node"><title>Node20</title>
<g id="a_node20"><a xlink:href="classsoftwarecontainer_1_1_container_option_parse_error.html" target="_top" xlink:title="softwarecontainer::\lContainerOptionParseError">
<polygon fill="white" stroke="black" points="255,-98.5 255,-128.5 389,-128.5 389,-98.5 255,-98.5"/>
<text text-anchor="start" x="263" y="-116.5" font-family="Helvetica,sans-Serif" font-size="10.00">softwarecontainer::</text>
<text text-anchor="middle" x="322" y="-105.5" font-family="Helvetica,sans-Serif" font-size="10.00">ContainerOptionParseError</text>
</a>
</g>
</g>
<!-- Node4&#45;&gt;Node20 -->
<g id="edge19" class="edge"><title>Node4&#45;&gt;Node20</title>
<path fill="none" stroke="midnightblue" d="M224.281,-127.526C234.366,-126.063 244.735,-124.56 254.767,-123.105"/>
<polygon fill="midnightblue" stroke="midnightblue" points="223.709,-124.072 214.315,-128.971 224.714,-130.999 223.709,-124.072"/>
</g>
<!-- Node21 -->
<g id="node21" class="node"><title>Node21</title>
<g id="a_node21"><a xlink:href="classsoftwarecontainer_1_1_network_gateway_error.html" target="_top" xlink:title="softwarecontainer::\lNetworkGatewayError">
<polygon fill="white" stroke="black" points="265.5,-49.5 265.5,-79.5 378.5,-79.5 378.5,-49.5 265.5,-49.5"/>
<text text-anchor="start" x="273.5" y="-67.5" font-family="Helvetica,sans-Serif" font-size="10.00">softwarecontainer::</text>
<text text-anchor="middle" x="322" y="-56.5" font-family="Helvetica,sans-Serif" font-size="10.00">NetworkGatewayError</text>
</a>
</g>
</g>
<!-- Node4&#45;&gt;Node21 -->
<g id="edge20" class="edge"><title>Node4&#45;&gt;Node21</title>
<path fill="none" stroke="midnightblue" d="M191.95,-117.572C209.281,-108.464 230.444,-97.8667 250,-89.5 258.05,-86.056 266.749,-82.7023 275.207,-79.6275"/>
<polygon fill="midnightblue" stroke="midnightblue" points="189.942,-114.675 182.75,-122.455 193.224,-120.858 189.942,-114.675"/>
</g>
<!-- Node23 -->
<g id="node23" class="node"><title>Node23</title>
<g id="a_node23"><a xlink:href="classsoftwarecontainer_1_1_software_container_agent_error.html" target="_top" xlink:title="An error occured in SoftwareContainerAgent. ">
<polygon fill="white" stroke="black" points="250,-0.5 250,-30.5 394,-30.5 394,-0.5 250,-0.5"/>
<text text-anchor="start" x="258" y="-18.5" font-family="Helvetica,sans-Serif" font-size="10.00">softwarecontainer::</text>
<text text-anchor="middle" x="322" y="-7.5" font-family="Helvetica,sans-Serif" font-size="10.00">SoftwareContainerAgentError</text>
</a>
</g>
</g>
<!-- Node4&#45;&gt;Node23 -->
<g id="edge22" class="edge"><title>Node4&#45;&gt;Node23</title>
<path fill="none" stroke="midnightblue" d="M172.965,-114.175C190.348,-92.4104 218.866,-60.3902 250,-40.5 255.947,-36.7008 262.544,-33.392 269.252,-30.5358"/>
<polygon fill="midnightblue" stroke="midnightblue" points="170.055,-112.214 166.651,-122.247 175.568,-116.527 170.055,-112.214"/>
</g>
<!-- Node6 -->
<g id="node6" class="node"><title>Node6</title>
<g id="a_node6"><a xlink:href="classsoftwarecontainer_1_1_bad_suffix_error.html" target="_top" xlink:title="softwarecontainer::\lBadSuffixError">
<polygon fill="white" stroke="black" points="447,-612.5 447,-642.5 547,-642.5 547,-612.5 447,-612.5"/>
<text text-anchor="start" x="455" y="-630.5" font-family="Helvetica,sans-Serif" font-size="10.00">softwarecontainer::</text>
<text text-anchor="middle" x="497" y="-619.5" font-family="Helvetica,sans-Serif" font-size="10.00">BadSuffixError</text>
</a>
</g>
</g>
<!-- Node5&#45;&gt;Node6 -->
<g id="edge5" class="edge"><title>Node5&#45;&gt;Node6</title>
<path fill="none" stroke="midnightblue" d="M362.7,-573.073C382.699,-582.67 407.434,-594.146 430,-603.5 437.321,-606.535 445.179,-609.576 452.83,-612.424"/>
<polygon fill="midnightblue" stroke="midnightblue" points="364.109,-569.866 353.582,-568.67 361.065,-576.17 364.109,-569.866"/>
</g>
<!-- Node7 -->
<g id="node7" class="node"><title>Node7</title>
<g id="a_node7"><a xlink:href="classsoftwarecontainer_1_1_j_son_error.html" target="_top" xlink:title="softwarecontainer::\lJSonError">
<polygon fill="white" stroke="black" points="447,-563.5 447,-593.5 547,-593.5 547,-563.5 447,-563.5"/>
<text text-anchor="start" x="455" y="-581.5" font-family="Helvetica,sans-Serif" font-size="10.00">softwarecontainer::</text>
<text text-anchor="middle" x="497" y="-570.5" font-family="Helvetica,sans-Serif" font-size="10.00">JSonError</text>
</a>
</g>
</g>
<!-- Node5&#45;&gt;Node7 -->
<g id="edge6" class="edge"><title>Node5&#45;&gt;Node7</title>
<path fill="none" stroke="midnightblue" d="M388.634,-562.985C407.949,-565.776 428.74,-568.78 446.834,-571.395"/>
<polygon fill="midnightblue" stroke="midnightblue" points="389.088,-559.514 378.691,-561.548 388.087,-566.442 389.088,-559.514"/>
</g>
<!-- Node8 -->
<g id="node8" class="node"><title>Node8</title>
<g id="a_node8"><a xlink:href="classsoftwarecontainer_1_1_limit_range_error.html" target="_top" xlink:title="softwarecontainer::\lLimitRangeError">
<polygon fill="white" stroke="black" points="447,-514.5 447,-544.5 547,-544.5 547,-514.5 447,-514.5"/>
<text text-anchor="start" x="455" y="-532.5" font-family="Helvetica,sans-Serif" font-size="10.00">softwarecontainer::</text>
<text text-anchor="middle" x="497" y="-521.5" font-family="Helvetica,sans-Serif" font-size="10.00">LimitRangeError</text>
</a>
</g>
</g>
<!-- Node5&#45;&gt;Node8 -->
<g id="edge7" class="edge"><title>Node5&#45;&gt;Node8</title>
<path fill="none" stroke="midnightblue" d="M388.634,-544.395C407.949,-541.715 428.74,-538.831 446.834,-536.321"/>
<polygon fill="midnightblue" stroke="midnightblue" points="388.115,-540.933 378.691,-545.774 389.077,-547.867 388.115,-540.933"/>
</g>
<!-- Node10 -->
<g id="node10" class="node"><title>Node10</title>
<g id="a_node10"><a xlink:href="classsoftwarecontainer_1_1_config_dependency_error.html" target="_top" xlink:title="softwarecontainer::\lConfigDependencyError">
<polygon fill="white" stroke="black" points="436.5,-465.5 436.5,-495.5 557.5,-495.5 557.5,-465.5 436.5,-465.5"/>
<text text-anchor="start" x="444.5" y="-483.5" font-family="Helvetica,sans-Serif" font-size="10.00">softwarecontainer::</text>
<text text-anchor="middle" x="497" y="-472.5" font-family="Helvetica,sans-Serif" font-size="10.00">ConfigDependencyError</text>
</a>
</g>
</g>
<!-- Node9&#45;&gt;Node10 -->
<g id="edge9" class="edge"><title>Node9&#45;&gt;Node10</title>
<path fill="none" stroke="midnightblue" d="M338.043,-357.125C356.607,-384.54 390.593,-429.435 430,-456.5 434.925,-459.882 440.382,-462.849 445.988,-465.435"/>
<polygon fill="midnightblue" stroke="midnightblue" points="340.799,-354.947 332.354,-348.549 334.966,-358.816 340.799,-354.947"/>
</g>
<!-- Node11 -->
<g id="node11" class="node"><title>Node11</title>
<g id="a_node11"><a xlink:href="classsoftwarecontainer_1_1_config_file_error.html" target="_top" xlink:title="An error occured in a Glib operation. ">
<polygon fill="white" stroke="black" points="447,-416.5 447,-446.5 547,-446.5 547,-416.5 447,-416.5"/>
<text text-anchor="start" x="455" y="-434.5" font-family="Helvetica,sans-Serif" font-size="10.00">softwarecontainer::</text>
<text text-anchor="middle" x="497" y="-423.5" font-family="Helvetica,sans-Serif" font-size="10.00">ConfigFileError</text>
</a>
</g>
</g>
<!-- Node9&#45;&gt;Node11 -->
<g id="edge10" class="edge"><title>Node9&#45;&gt;Node11</title>
<path fill="none" stroke="midnightblue" d="M349.868,-354.979C370.802,-370.98 401.077,-392.556 430,-407.5 436.283,-410.746 443.106,-413.753 449.903,-416.463"/>
<polygon fill="midnightblue" stroke="midnightblue" points="351.825,-352.068 341.775,-348.714 347.54,-357.603 351.825,-352.068"/>
</g>
<!-- Node12 -->
<g id="node12" class="node"><title>Node12</title>
<g id="a_node12"><a xlink:href="classsoftwarecontainer_1_1_config_internal_error.html" target="_top" xlink:title="An error occured which is an internal error in the config code. ">
<polygon fill="white" stroke="black" points="447,-367.5 447,-397.5 547,-397.5 547,-367.5 447,-367.5"/>
<text text-anchor="start" x="455" y="-385.5" font-family="Helvetica,sans-Serif" font-size="10.00">softwarecontainer::</text>
<text text-anchor="middle" x="497" y="-374.5" font-family="Helvetica,sans-Serif" font-size="10.00">ConfigInternalError</text>
</a>
</g>
</g>
<!-- Node9&#45;&gt;Node12 -->
<g id="edge11" class="edge"><title>Node9&#45;&gt;Node12</title>
<path fill="none" stroke="midnightblue" d="M381.93,-350.191C403.029,-356.167 426.572,-362.835 446.765,-368.555"/>
<polygon fill="midnightblue" stroke="midnightblue" points="382.687,-346.768 372.112,-347.41 380.78,-353.503 382.687,-346.768"/>
</g>
<!-- Node13 -->
<g id="node13" class="node"><title>Node13</title>
<g id="a_node13"><a xlink:href="classsoftwarecontainer_1_1_config_mandatory_error.html" target="_top" xlink:title="softwarecontainer::\lConfigMandatoryError">
<polygon fill="white" stroke="black" points="441,-318.5 441,-348.5 553,-348.5 553,-318.5 441,-318.5"/>
<text text-anchor="start" x="449" y="-336.5" font-family="Helvetica,sans-Serif" font-size="10.00">softwarecontainer::</text>
<text text-anchor="middle" x="497" y="-325.5" font-family="Helvetica,sans-Serif" font-size="10.00">ConfigMandatoryError</text>
</a>
</g>
</g>
<!-- Node9&#45;&gt;Node13 -->
<g id="edge12" class="edge"><title>Node9&#45;&gt;Node13</title>
<path fill="none" stroke="midnightblue" d="M382.168,-333.5C401.22,-333.5 422.243,-333.5 440.983,-333.5"/>
<polygon fill="midnightblue" stroke="midnightblue" points="382.112,-330 372.112,-333.5 382.112,-337 382.112,-330"/>
</g>
<!-- Node14 -->
<g id="node14" class="node"><title>Node14</title>
<g id="a_node14"><a xlink:href="classsoftwarecontainer_1_1_config_not_found_error.html" target="_top" xlink:title="A requested config item could not be found in any of the config sources. ">
<polygon fill="white" stroke="black" points="442.5,-269.5 442.5,-299.5 551.5,-299.5 551.5,-269.5 442.5,-269.5"/>
<text text-anchor="start" x="450.5" y="-287.5" font-family="Helvetica,sans-Serif" font-size="10.00">softwarecontainer::</text>
<text text-anchor="middle" x="497" y="-276.5" font-family="Helvetica,sans-Serif" font-size="10.00">ConfigNotFoundError</text>
</a>
</g>
</g>
<!-- Node9&#45;&gt;Node14 -->
<g id="edge13" class="edge"><title>Node9&#45;&gt;Node14</title>
<path fill="none" stroke="midnightblue" d="M381.914,-316.813C401.659,-311.221 423.547,-305.021 442.826,-299.561"/>
<polygon fill="midnightblue" stroke="midnightblue" points="380.78,-313.497 372.112,-319.59 382.687,-320.232 380.78,-313.497"/>
</g>
<!-- Node15 -->
<g id="node15" class="node"><title>Node15</title>
<g id="a_node15"><a xlink:href="classsoftwarecontainer_1_1_config_unknown_error.html" target="_top" xlink:title="A config is found which is not defined in ConfigDefinition. ">
<polygon fill="white" stroke="black" points="443.5,-220.5 443.5,-250.5 550.5,-250.5 550.5,-220.5 443.5,-220.5"/>
<text text-anchor="start" x="451.5" y="-238.5" font-family="Helvetica,sans-Serif" font-size="10.00">softwarecontainer::</text>
<text text-anchor="middle" x="497" y="-227.5" font-family="Helvetica,sans-Serif" font-size="10.00">ConfigUnknownError</text>
</a>
</g>
</g>
<!-- Node9&#45;&gt;Node15 -->
<g id="edge14" class="edge"><title>Node9&#45;&gt;Node15</title>
<path fill="none" stroke="midnightblue" d="M350.355,-312.159C371.327,-296.475 401.43,-275.388 430,-260.5 436.846,-256.933 444.319,-253.607 451.696,-250.62"/>
<polygon fill="midnightblue" stroke="midnightblue" points="348.096,-309.479 342.234,-318.304 352.32,-315.061 348.096,-309.479"/>
</g>
<!-- Node17 -->
<g id="node17" class="node"><title>Node17</title>
<g id="a_node17"><a xlink:href="classsoftwarecontainer_1_1_capability_parse_error.html" target="_top" xlink:title="An error occured in ConfigStore when parsing a Capability in a Service Manifest. ">
<polygon fill="white" stroke="black" points="443.5,-171.5 443.5,-201.5 550.5,-201.5 550.5,-171.5 443.5,-171.5"/>
<text text-anchor="start" x="451.5" y="-189.5" font-family="Helvetica,sans-Serif" font-size="10.00">softwarecontainer::</text>
<text text-anchor="middle" x="497" y="-178.5" font-family="Helvetica,sans-Serif" font-size="10.00">CapabilityParseError</text>
</a>
</g>
</g>
<!-- Node16&#45;&gt;Node17 -->
<g id="edge16" class="edge"><title>Node16&#45;&gt;Node17</title>
<path fill="none" stroke="midnightblue" d="M382.277,-170.723C402.137,-173.479 424.128,-176.529 443.437,-179.208"/>
<polygon fill="midnightblue" stroke="midnightblue" points="382.498,-167.221 372.112,-169.313 381.536,-174.154 382.498,-167.221"/>
</g>
<!-- Node18 -->
<g id="node18" class="node"><title>Node18</title>
<g id="a_node18"><a xlink:href="classsoftwarecontainer_1_1_service_manifest_parse_error.html" target="_top" xlink:title="An error occured in ConfigStore when parsing a Service Manifest. ">
<polygon fill="white" stroke="black" points="430,-122.5 430,-152.5 564,-152.5 564,-122.5 430,-122.5"/>
<text text-anchor="start" x="438" y="-140.5" font-family="Helvetica,sans-Serif" font-size="10.00">softwarecontainer::</text>
<text text-anchor="middle" x="497" y="-129.5" font-family="Helvetica,sans-Serif" font-size="10.00">ServiceManifestParseError</text>
</a>
</g>
</g>
<!-- Node16&#45;&gt;Node18 -->
<g id="edge17" class="edge"><title>Node16&#45;&gt;Node18</title>
<path fill="none" stroke="midnightblue" d="M382.04,-153.968C397.468,-151.739 414.197,-149.321 429.964,-147.043"/>
<polygon fill="midnightblue" stroke="midnightblue" points="381.509,-150.509 372.112,-155.403 382.51,-157.437 381.509,-150.509"/>
</g>
<!-- Node19 -->
<g id="node19" class="node"><title>Node19</title>
<g id="a_node19"><a xlink:href="classsoftwarecontainer_1_1_service_manifest_path_error.html" target="_top" xlink:title="An error occured in ConfigStore relating to the path to the Service Manifest(s) ">
<polygon fill="white" stroke="black" points="433,-73.5 433,-103.5 561,-103.5 561,-73.5 433,-73.5"/>
<text text-anchor="start" x="441" y="-91.5" font-family="Helvetica,sans-Serif" font-size="10.00">softwarecontainer::</text>
<text text-anchor="middle" x="497" y="-80.5" font-family="Helvetica,sans-Serif" font-size="10.00">ServiceManifestPathError</text>
</a>
</g>
</g>
<!-- Node16&#45;&gt;Node19 -->
<g id="edge18" class="edge"><title>Node16&#45;&gt;Node19</title>
<path fill="none" stroke="midnightblue" d="M381.62,-144.163C385.868,-142.386 390.036,-140.496 394,-138.5 411.398,-129.739 412.763,-122.574 430,-113.5 436.831,-109.904 444.297,-106.564 451.671,-103.572"/>
<polygon fill="midnightblue" stroke="midnightblue" points="380.256,-140.939 372.244,-147.87 382.83,-147.449 380.256,-140.939"/>
</g>
<!-- Node22 -->
<g id="node22" class="node"><title>Node22</title>
<g id="a_node22"><a xlink:href="classsoftwarecontainer_1_1_i_p_allocation_error.html" target="_top" xlink:title="softwarecontainer::\lIPAllocationError">
<polygon fill="white" stroke="black" points="447,-24.5 447,-54.5 547,-54.5 547,-24.5 447,-24.5"/>
<text text-anchor="start" x="455" y="-42.5" font-family="Helvetica,sans-Serif" font-size="10.00">softwarecontainer::</text>
<text text-anchor="middle" x="497" y="-31.5" font-family="Helvetica,sans-Serif" font-size="10.00">IPAllocationError</text>
</a>
</g>
</g>
<!-- Node21&#45;&gt;Node22 -->
<g id="edge21" class="edge"><title>Node21&#45;&gt;Node22</title>
<path fill="none" stroke="midnightblue" d="M388.634,-55.0153C407.949,-52.2241 428.74,-49.2197 446.834,-46.605"/>
<polygon fill="midnightblue" stroke="midnightblue" points="388.087,-51.5579 378.691,-56.4522 389.088,-58.4859 388.087,-51.5579"/>
</g>
</g>
</svg>
