<?xml version="1.0" encoding="UTF-8" standalone="no"?>
<!DOCTYPE svg PUBLIC "-//W3C//DTD SVG 1.1//EN"
 "http://www.w3.org/Graphics/SVG/1.1/DTD/svg11.dtd">
<!-- Generated by graphviz version 2.38.0 (20140413.2041)
 -->
<!-- Title: Graphical Class Hierarchy Pages: 1 -->
<svg width="515pt" height="333pt"
 viewBox="0.00 0.00 515.00 333.00" xmlns="http://www.w3.org/2000/svg" xmlns:xlink="http://www.w3.org/1999/xlink">
<g id="graph0" class="graph" transform="scale(1 1) rotate(0) translate(4 329)">
<title>Graphical Class Hierarchy</title>
<polygon fill="white" stroke="none" points="-4,4 -4,-329 511,-329 511,4 -4,4"/>
<!-- Node1 -->
<g id="node1" class="node"><title>Node1</title>
<polygon fill="white" stroke="#bfbfbf" points="0,-79 0,-98 59,-98 59,-79 0,-79"/>
<text text-anchor="middle" x="29.5" y="-86" font-family="Helvetica,sans-Serif" font-size="10.00">exception</text>
</g>
<!-- Node2 -->
<g id="node2" class="node"><title>Node2</title>
<g id="a_node2"><a xlink:href="classsoftwarecontainer_1_1_config_error.html" target="_top" xlink:title="softwarecontainer::\lConfigError">
<polygon fill="white" stroke="black" points="104.5,-147.5 104.5,-177.5 204.5,-177.5 204.5,-147.5 104.5,-147.5"/>
<text text-anchor="start" x="112.5" y="-165.5" font-family="Helvetica,sans-Serif" font-size="10.00">softwarecontainer::</text>
<text text-anchor="middle" x="154.5" y="-154.5" font-family="Helvetica,sans-Serif" font-size="10.00">ConfigError</text>
</a>
</g>
</g>
<!-- Node1&#45;&gt;Node2 -->
<g id="edge1" class="edge"><title>Node1&#45;&gt;Node2</title>
<path fill="none" stroke="midnightblue" d="M49.0446,-105.062C61.4427,-115.567 78.4579,-128.932 95,-138.5 100.607,-141.743 106.736,-144.766 112.85,-147.498"/>
<polygon fill="midnightblue" stroke="midnightblue" points="51.1139,-102.224 41.2615,-98.328 46.5337,-107.518 51.1139,-102.224"/>
</g>
<!-- Node9 -->
<g id="node9" class="node"><title>Node9</title>
<g id="a_node9"><a xlink:href="classsoftwarecontainer_1_1_gateway_error.html" target="_top" xlink:title="softwarecontainer::\lGatewayError">
<polygon fill="white" stroke="black" points="104.5,-98.5 104.5,-128.5 204.5,-128.5 204.5,-98.5 104.5,-98.5"/>
<text text-anchor="start" x="112.5" y="-116.5" font-family="Helvetica,sans-Serif" font-size="10.00">softwarecontainer::</text>
<text text-anchor="middle" x="154.5" y="-105.5" font-family="Helvetica,sans-Serif" font-size="10.00">GatewayError</text>
</a>
</g>
</g>
<!-- Node1&#45;&gt;Node9 -->
<g id="edge8" class="edge"><title>Node1&#45;&gt;Node9</title>
<path fill="none" stroke="midnightblue" d="M68.9508,-96.3152C80.1801,-98.5976 92.608,-101.124 104.401,-103.521"/>
<polygon fill="midnightblue" stroke="midnightblue" points="69.5246,-92.8603 59.0278,-94.2983 68.1303,-99.7201 69.5246,-92.8603"/>
</g>
<!-- Node10 -->
<g id="node10" class="node"><title>Node10</title>
<g id="a_node10"><a xlink:href="classsoftwarecontainer_1_1_gateway_parser_error.html" target="_top" xlink:title="softwarecontainer::\lGatewayParserError">
<polygon fill="white" stroke="black" points="102,-49.5 102,-79.5 207,-79.5 207,-49.5 102,-49.5"/>
<text text-anchor="start" x="110" y="-67.5" font-family="Helvetica,sans-Serif" font-size="10.00">softwarecontainer::</text>
<text text-anchor="middle" x="154.5" y="-56.5" font-family="Helvetica,sans-Serif" font-size="10.00">GatewayParserError</text>
</a>
</g>
</g>
<!-- Node1&#45;&gt;Node10 -->
<g id="edge9" class="edge"><title>Node1&#45;&gt;Node10</title>
<path fill="none" stroke="midnightblue" d="M69.0594,-80.9762C79.4877,-78.9414 90.9432,-76.7062 101.961,-74.5565"/>
<polygon fill="midnightblue" stroke="midnightblue" points="68.1724,-77.5832 59.0278,-82.9336 69.5131,-84.4536 68.1724,-77.5832"/>
</g>
<!-- Node11 -->
<g id="node11" class="node"><title>Node11</title>
<g id="a_node11"><a xlink:href="classsoftwarecontainer_1_1_software_container_error.html" target="_top" xlink:title="softwarecontainer::\lSoftwareContainerError">
<polygon fill="white" stroke="black" points="95,-0.5 95,-30.5 214,-30.5 214,-0.5 95,-0.5"/>
<text text-anchor="start" x="103" y="-18.5" font-family="Helvetica,sans-Serif" font-size="10.00">softwarecontainer::</text>
<text text-anchor="middle" x="154.5" y="-7.5" font-family="Helvetica,sans-Serif" font-size="10.00">SoftwareContainerError</text>
</a>
</g>
</g>
<!-- Node1&#45;&gt;Node11 -->
<g id="edge10" class="edge"><title>Node1&#45;&gt;Node11</title>
<path fill="none" stroke="midnightblue" d="M49.6454,-72.3703C62.0622,-62.3954 78.8757,-49.7711 95,-40.5 101.224,-36.9215 108.058,-33.5486 114.792,-30.5074"/>
<polygon fill="midnightblue" stroke="midnightblue" points="47.3365,-69.7372 41.8142,-78.7791 51.7698,-75.1545 47.3365,-69.7372"/>
</g>
<!-- Node3 -->
<g id="node3" class="node"><title>Node3</title>
<g id="a_node3"><a xlink:href="classsoftwarecontainer_1_1_config_dependency_error.html" target="_top" xlink:title="softwarecontainer::\lConfigDependencyError">
<polygon fill="white" stroke="black" points="250,-294.5 250,-324.5 371,-324.5 371,-294.5 250,-294.5"/>
<text text-anchor="start" x="258" y="-312.5" font-family="Helvetica,sans-Serif" font-size="10.00">softwarecontainer::</text>
<text text-anchor="middle" x="310.5" y="-301.5" font-family="Helvetica,sans-Serif" font-size="10.00">ConfigDependencyError</text>
</a>
</g>
</g>
<!-- Node2&#45;&gt;Node3 -->
<g id="edge2" class="edge"><title>Node2&#45;&gt;Node3</title>
<path fill="none" stroke="midnightblue" d="M168.758,-186.764C184.787,-214.098 214.127,-258.255 250,-285.5 254.435,-288.868 259.408,-291.837 264.538,-294.432"/>
<polygon fill="midnightblue" stroke="midnightblue" points="171.661,-184.791 163.655,-177.852 165.587,-188.269 171.661,-184.791"/>
</g>
<!-- Node4 -->
<g id="node4" class="node"><title>Node4</title>
<g id="a_node4"><a xlink:href="classsoftwarecontainer_1_1_config_file_error.html" target="_top" xlink:title="An error occured in a Glib operation. ">
<polygon fill="white" stroke="black" points="260.5,-245.5 260.5,-275.5 360.5,-275.5 360.5,-245.5 260.5,-245.5"/>
<text text-anchor="start" x="268.5" y="-263.5" font-family="Helvetica,sans-Serif" font-size="10.00">softwarecontainer::</text>
<text text-anchor="middle" x="310.5" y="-252.5" font-family="Helvetica,sans-Serif" font-size="10.00">ConfigFileError</text>
</a>
</g>
</g>
<!-- Node2&#45;&gt;Node4 -->
<g id="edge3" class="edge"><title>Node2&#45;&gt;Node4</title>
<path fill="none" stroke="midnightblue" d="M179.702,-184.575C198.024,-200.484 224.339,-221.675 250,-236.5 255.594,-239.732 261.707,-242.731 267.818,-245.437"/>
<polygon fill="midnightblue" stroke="midnightblue" points="181.693,-181.665 171.877,-177.679 177.065,-186.916 181.693,-181.665"/>
</g>
<!-- Node5 -->
<g id="node5" class="node"><title>Node5</title>
<g id="a_node5"><a xlink:href="classsoftwarecontainer_1_1_config_internal_error.html" target="_top" xlink:title="An error occured which is an internal error in the config code. ">
<polygon fill="white" stroke="black" points="260.5,-196.5 260.5,-226.5 360.5,-226.5 360.5,-196.5 260.5,-196.5"/>
<text text-anchor="start" x="268.5" y="-214.5" font-family="Helvetica,sans-Serif" font-size="10.00">softwarecontainer::</text>
<text text-anchor="middle" x="310.5" y="-203.5" font-family="Helvetica,sans-Serif" font-size="10.00">ConfigInternalError</text>
</a>
</g>
</g>
<!-- Node2&#45;&gt;Node5 -->
<g id="edge4" class="edge"><title>Node2&#45;&gt;Node5</title>
<path fill="none" stroke="midnightblue" d="M212.886,-180.759C229.129,-185.927 246.619,-191.492 262.195,-196.448"/>
<polygon fill="midnightblue" stroke="midnightblue" points="213.552,-177.298 202.962,-177.601 211.43,-183.969 213.552,-177.298"/>
</g>
<!-- Node6 -->
<g id="node6" class="node"><title>Node6</title>
<g id="a_node6"><a xlink:href="classsoftwarecontainer_1_1_config_mandatory_error.html" target="_top" xlink:title="softwarecontainer::\lConfigMandatoryError">
<polygon fill="white" stroke="black" points="254.5,-147.5 254.5,-177.5 366.5,-177.5 366.5,-147.5 254.5,-147.5"/>
<text text-anchor="start" x="262.5" y="-165.5" font-family="Helvetica,sans-Serif" font-size="10.00">softwarecontainer::</text>
<text text-anchor="middle" x="310.5" y="-154.5" font-family="Helvetica,sans-Serif" font-size="10.00">ConfigMandatoryError</text>
</a>
</g>
</g>
<!-- Node2&#45;&gt;Node6 -->
<g id="edge5" class="edge"><title>Node2&#45;&gt;Node6</title>
<path fill="none" stroke="midnightblue" d="M214.889,-162.5C227.883,-162.5 241.584,-162.5 254.402,-162.5"/>
<polygon fill="midnightblue" stroke="midnightblue" points="214.65,-159 204.65,-162.5 214.65,-166 214.65,-159"/>
</g>
<!-- Node7 -->
<g id="node7" class="node"><title>Node7</title>
<g id="a_node7"><a xlink:href="classsoftwarecontainer_1_1_config_not_found_error.html" target="_top" xlink:title="A requested config item could not be found in any of the config sources. ">
<polygon fill="white" stroke="black" points="256,-98.5 256,-128.5 365,-128.5 365,-98.5 256,-98.5"/>
<text text-anchor="start" x="264" y="-116.5" font-family="Helvetica,sans-Serif" font-size="10.00">softwarecontainer::</text>
<text text-anchor="middle" x="310.5" y="-105.5" font-family="Helvetica,sans-Serif" font-size="10.00">ConfigNotFoundError</text>
</a>
</g>
</g>
<!-- Node2&#45;&gt;Node7 -->
<g id="edge6" class="edge"><title>Node2&#45;&gt;Node7</title>
<path fill="none" stroke="midnightblue" d="M212.886,-144.241C229.129,-139.073 246.619,-133.508 262.195,-128.552"/>
<polygon fill="midnightblue" stroke="midnightblue" points="211.43,-141.031 202.962,-147.399 213.552,-147.702 211.43,-141.031"/>
</g>
<!-- Node8 -->
<g id="node8" class="node"><title>Node8</title>
<g id="a_node8"><a xlink:href="classsoftwarecontainer_1_1_config_unknown_error.html" target="_top" xlink:title="A config is found which is not defined in ConfigDefinition. ">
<polygon fill="white" stroke="black" points="257,-49.5 257,-79.5 364,-79.5 364,-49.5 257,-49.5"/>
<text text-anchor="start" x="265" y="-67.5" font-family="Helvetica,sans-Serif" font-size="10.00">softwarecontainer::</text>
<text text-anchor="middle" x="310.5" y="-56.5" font-family="Helvetica,sans-Serif" font-size="10.00">ConfigUnknownError</text>
</a>
</g>
</g>
<!-- Node2&#45;&gt;Node8 -->
<g id="edge7" class="edge"><title>Node2&#45;&gt;Node8</title>
<path fill="none" stroke="midnightblue" d="M208.486,-142.42C210.396,-141.179 212.243,-139.873 214,-138.5 235.295,-121.862 228.776,-106.228 250,-89.5 254.752,-85.7547 260.147,-82.4772 265.702,-79.6366"/>
<polygon fill="midnightblue" stroke="midnightblue" points="206.682,-139.42 199.775,-147.454 210.184,-145.481 206.682,-139.42"/>
</g>
<!-- Node12 -->
<g id="node12" class="node"><title>Node12</title>
<g id="a_node12"><a xlink:href="classsoftwarecontainer_1_1_network_gateway_error.html" target="_top" xlink:title="softwarecontainer::\lNetworkGatewayError">
<polygon fill="white" stroke="black" points="254,-0.5 254,-30.5 367,-30.5 367,-0.5 254,-0.5"/>
<text text-anchor="start" x="262" y="-18.5" font-family="Helvetica,sans-Serif" font-size="10.00">softwarecontainer::</text>
<text text-anchor="middle" x="310.5" y="-7.5" font-family="Helvetica,sans-Serif" font-size="10.00">NetworkGatewayError</text>
</a>
</g>
</g>
<!-- Node11&#45;&gt;Node12 -->
<g id="edge11" class="edge"><title>Node11&#45;&gt;Node12</title>
<path fill="none" stroke="midnightblue" d="M224.339,-15.5C234.196,-15.5 244.233,-15.5 253.794,-15.5"/>
<polygon fill="midnightblue" stroke="midnightblue" points="224.16,-12.0001 214.16,-15.5 224.16,-19.0001 224.16,-12.0001"/>
</g>
<!-- Node13 -->
<g id="node13" class="node"><title>Node13</title>
<g id="a_node13"><a xlink:href="classsoftwarecontainer_1_1_i_p_allocation_error.html" target="_top" xlink:title="softwarecontainer::\lIPAllocationError">
<polygon fill="white" stroke="black" points="407,-0.5 407,-30.5 507,-30.5 507,-0.5 407,-0.5"/>
<text text-anchor="start" x="415" y="-18.5" font-family="Helvetica,sans-Serif" font-size="10.00">softwarecontainer::</text>
<text text-anchor="middle" x="457" y="-7.5" font-family="Helvetica,sans-Serif" font-size="10.00">IPAllocationError</text>
</a>
</g>
</g>
<!-- Node12&#45;&gt;Node13 -->
<g id="edge12" class="edge"><title>Node12&#45;&gt;Node13</title>
<path fill="none" stroke="midnightblue" d="M377.56,-15.5C387.424,-15.5 397.443,-15.5 406.874,-15.5"/>
<polygon fill="midnightblue" stroke="midnightblue" points="377.368,-12.0001 367.367,-15.5 377.367,-19.0001 377.368,-12.0001"/>
</g>
</g>
</svg>
