<?xml version="1.0" encoding="UTF-8" standalone="no"?>
<!DOCTYPE svg PUBLIC "-//W3C//DTD SVG 1.1//EN"
 "http://www.w3.org/Graphics/SVG/1.1/DTD/svg11.dtd">
<!-- Generated by graphviz version 2.38.0 (20140413.2041)
 -->
<!-- Title: Graphical Class Hierarchy Pages: 1 -->
<svg width="365pt" height="284pt"
 viewBox="0.00 0.00 365.00 284.00" xmlns="http://www.w3.org/2000/svg" xmlns:xlink="http://www.w3.org/1999/xlink">
<g id="graph0" class="graph" transform="scale(1 1) rotate(0) translate(4 280)">
<title>Graphical Class Hierarchy</title>
<polygon fill="white" stroke="none" points="-4,4 -4,-280 361,-280 361,4 -4,4"/>
<!-- Node1 -->
<g id="node1" class="node"><title>Node1</title>
<polygon fill="white" stroke="#bfbfbf" points="0,-79 0,-98 59,-98 59,-79 0,-79"/>
<text text-anchor="middle" x="29.5" y="-86" font-family="Helvetica,sans-Serif" font-size="10.00">exception</text>
</g>
<!-- Node2 -->
<g id="node2" class="node"><title>Node2</title>
<g id="a_node2"><a xlink:href="classsoftwarecontainer_1_1_config_error.html" target="_top" xlink:title="softwarecontainer::\lConfigError">
<polygon fill="white" stroke="black" points="97.5,-122.5 97.5,-152.5 197.5,-152.5 197.5,-122.5 97.5,-122.5"/>
<text text-anchor="start" x="105.5" y="-140.5" font-family="Helvetica,sans-Serif" font-size="10.00">softwarecontainer::</text>
<text text-anchor="middle" x="147.5" y="-129.5" font-family="Helvetica,sans-Serif" font-size="10.00">ConfigError</text>
</a>
</g>
</g>
<!-- Node1&#45;&gt;Node2 -->
<g id="edge1" class="edge"><title>Node1&#45;&gt;Node2</title>
<path fill="none" stroke="midnightblue" d="M62.4868,-102.012C77.4305,-108.324 95.28,-115.864 110.675,-122.367"/>
<polygon fill="midnightblue" stroke="midnightblue" points="63.7152,-98.7311 53.1413,-98.064 60.9913,-105.179 63.7152,-98.7311"/>
</g>
<!-- Node9 -->
<g id="node9" class="node"><title>Node9</title>
<g id="a_node9"><a xlink:href="classsoftwarecontainer_1_1_gateway_error.html" target="_top" xlink:title="softwarecontainer::\lGatewayError">
<polygon fill="white" stroke="black" points="97.5,-73.5 97.5,-103.5 197.5,-103.5 197.5,-73.5 97.5,-73.5"/>
<text text-anchor="start" x="105.5" y="-91.5" font-family="Helvetica,sans-Serif" font-size="10.00">softwarecontainer::</text>
<text text-anchor="middle" x="147.5" y="-80.5" font-family="Helvetica,sans-Serif" font-size="10.00">GatewayError</text>
</a>
</g>
</g>
<!-- Node1&#45;&gt;Node9 -->
<g id="edge8" class="edge"><title>Node1&#45;&gt;Node9</title>
<path fill="none" stroke="midnightblue" d="M69.3492,-88.5C78.3388,-88.5 88.0199,-88.5 97.3844,-88.5"/>
<polygon fill="midnightblue" stroke="midnightblue" points="69.1742,-85.0001 59.1742,-88.5 69.1741,-92.0001 69.1742,-85.0001"/>
</g>
<!-- Node10 -->
<g id="node10" class="node"><title>Node10</title>
<g id="a_node10"><a xlink:href="classsoftwarecontainer_1_1_gateway_parser_error.html" target="_top" xlink:title="softwarecontainer::\lGatewayParserError">
<polygon fill="white" stroke="black" points="95,-24.5 95,-54.5 200,-54.5 200,-24.5 95,-24.5"/>
<text text-anchor="start" x="103" y="-42.5" font-family="Helvetica,sans-Serif" font-size="10.00">softwarecontainer::</text>
<text text-anchor="middle" x="147.5" y="-31.5" font-family="Helvetica,sans-Serif" font-size="10.00">GatewayParserError</text>
</a>
</g>
</g>
<!-- Node1&#45;&gt;Node10 -->
<g id="edge9" class="edge"><title>Node1&#45;&gt;Node10</title>
<path fill="none" stroke="midnightblue" d="M62.4868,-74.9883C77.4305,-68.6759 95.28,-61.136 110.675,-54.6328"/>
<polygon fill="midnightblue" stroke="midnightblue" points="60.9913,-71.8206 53.1413,-78.936 63.7152,-78.2689 60.9913,-71.8206"/>
</g>
<!-- Node3 -->
<g id="node3" class="node"><title>Node3</title>
<g id="a_node3"><a xlink:href="classsoftwarecontainer_1_1_config_dependency_error.html" target="_top" xlink:title="softwarecontainer::\lConfigDependencyError">
<polygon fill="white" stroke="black" points="236,-245.5 236,-275.5 357,-275.5 357,-245.5 236,-245.5"/>
<text text-anchor="start" x="244" y="-263.5" font-family="Helvetica,sans-Serif" font-size="10.00">softwarecontainer::</text>
<text text-anchor="middle" x="296.5" y="-252.5" font-family="Helvetica,sans-Serif" font-size="10.00">ConfigDependencyError</text>
</a>
</g>
</g>
<!-- Node2&#45;&gt;Node3 -->
<g id="edge2" class="edge"><title>Node2&#45;&gt;Node3</title>
<path fill="none" stroke="midnightblue" d="M164.343,-161.004C180.234,-183.055 206.528,-215.673 236,-236.5 240.73,-239.843 245.994,-242.818 251.379,-245.436"/>
<polygon fill="midnightblue" stroke="midnightblue" points="167.007,-158.709 158.385,-152.55 161.284,-162.741 167.007,-158.709"/>
</g>
<!-- Node4 -->
<g id="node4" class="node"><title>Node4</title>
<g id="a_node4"><a xlink:href="classsoftwarecontainer_1_1_config_file_error.html" target="_top" xlink:title="An error occured in a Glib operation. ">
<polygon fill="white" stroke="black" points="246.5,-196.5 246.5,-226.5 346.5,-226.5 346.5,-196.5 246.5,-196.5"/>
<text text-anchor="start" x="254.5" y="-214.5" font-family="Helvetica,sans-Serif" font-size="10.00">softwarecontainer::</text>
<text text-anchor="middle" x="296.5" y="-203.5" font-family="Helvetica,sans-Serif" font-size="10.00">ConfigFileError</text>
</a>
</g>
</g>
<!-- Node2&#45;&gt;Node4 -->
<g id="edge3" class="edge"><title>Node2&#45;&gt;Node4</title>
<path fill="none" stroke="midnightblue" d="M181.917,-158.016C197.992,-167.516 217.705,-178.634 236,-187.5 242.415,-190.609 249.341,-193.663 256.122,-196.496"/>
<polygon fill="midnightblue" stroke="midnightblue" points="183.291,-154.76 172.91,-152.639 179.702,-160.77 183.291,-154.76"/>
</g>
<!-- Node5 -->
<g id="node5" class="node"><title>Node5</title>
<g id="a_node5"><a xlink:href="classsoftwarecontainer_1_1_config_internal_error.html" target="_top" xlink:title="An error occured which is an internal error in the config code. ">
<polygon fill="white" stroke="black" points="246.5,-147.5 246.5,-177.5 346.5,-177.5 346.5,-147.5 246.5,-147.5"/>
<text text-anchor="start" x="254.5" y="-165.5" font-family="Helvetica,sans-Serif" font-size="10.00">softwarecontainer::</text>
<text text-anchor="middle" x="296.5" y="-154.5" font-family="Helvetica,sans-Serif" font-size="10.00">ConfigInternalError</text>
</a>
</g>
</g>
<!-- Node2&#45;&gt;Node5 -->
<g id="edge4" class="edge"><title>Node2&#45;&gt;Node5</title>
<path fill="none" stroke="midnightblue" d="M207.915,-147.605C220.651,-149.771 233.972,-152.036 246.272,-154.128"/>
<polygon fill="midnightblue" stroke="midnightblue" points="208.303,-144.12 197.858,-145.894 207.129,-151.021 208.303,-144.12"/>
</g>
<!-- Node6 -->
<g id="node6" class="node"><title>Node6</title>
<g id="a_node6"><a xlink:href="classsoftwarecontainer_1_1_config_mandatory_error.html" target="_top" xlink:title="softwarecontainer::\lConfigMandatoryError">
<polygon fill="white" stroke="black" points="240.5,-98.5 240.5,-128.5 352.5,-128.5 352.5,-98.5 240.5,-98.5"/>
<text text-anchor="start" x="248.5" y="-116.5" font-family="Helvetica,sans-Serif" font-size="10.00">softwarecontainer::</text>
<text text-anchor="middle" x="296.5" y="-105.5" font-family="Helvetica,sans-Serif" font-size="10.00">ConfigMandatoryError</text>
</a>
</g>
</g>
<!-- Node2&#45;&gt;Node6 -->
<g id="edge5" class="edge"><title>Node2&#45;&gt;Node6</title>
<path fill="none" stroke="midnightblue" d="M207.986,-127.788C218.715,-126.036 229.857,-124.217 240.452,-122.487"/>
<polygon fill="midnightblue" stroke="midnightblue" points="207.163,-124.376 197.858,-129.442 208.291,-131.284 207.163,-124.376"/>
</g>
<!-- Node7 -->
<g id="node7" class="node"><title>Node7</title>
<g id="a_node7"><a xlink:href="classsoftwarecontainer_1_1_config_not_found_error.html" target="_top" xlink:title="A requested config item could not be found in any of the config sources. ">
<polygon fill="white" stroke="black" points="242,-49.5 242,-79.5 351,-79.5 351,-49.5 242,-49.5"/>
<text text-anchor="start" x="250" y="-67.5" font-family="Helvetica,sans-Serif" font-size="10.00">softwarecontainer::</text>
<text text-anchor="middle" x="296.5" y="-56.5" font-family="Helvetica,sans-Serif" font-size="10.00">ConfigNotFoundError</text>
</a>
</g>
</g>
<!-- Node2&#45;&gt;Node7 -->
<g id="edge6" class="edge"><title>Node2&#45;&gt;Node7</title>
<path fill="none" stroke="midnightblue" d="M191.74,-117.943C194.559,-116.486 197.334,-114.998 200,-113.5 216.763,-104.078 219.059,-98.5989 236,-89.5 242.515,-86.0009 249.625,-82.6443 256.591,-79.5894"/>
<polygon fill="midnightblue" stroke="midnightblue" points="190.052,-114.873 182.666,-122.47 193.177,-121.137 190.052,-114.873"/>
</g>
<!-- Node8 -->
<g id="node8" class="node"><title>Node8</title>
<g id="a_node8"><a xlink:href="classsoftwarecontainer_1_1_config_unknown_error.html" target="_top" xlink:title="A config is found which is not defined in ConfigDefinition. ">
<polygon fill="white" stroke="black" points="243,-0.5 243,-30.5 350,-30.5 350,-0.5 243,-0.5"/>
<text text-anchor="start" x="251" y="-18.5" font-family="Helvetica,sans-Serif" font-size="10.00">softwarecontainer::</text>
<text text-anchor="middle" x="296.5" y="-7.5" font-family="Helvetica,sans-Serif" font-size="10.00">ConfigUnknownError</text>
</a>
</g>
</g>
<!-- Node2&#45;&gt;Node8 -->
<g id="edge7" class="edge"><title>Node2&#45;&gt;Node8</title>
<path fill="none" stroke="midnightblue" d="M196.606,-116.548C197.785,-115.572 198.92,-114.556 200,-113.5 225.86,-88.204 209.66,-65.2959 236,-40.5 240.079,-36.6599 244.835,-33.3662 249.847,-30.552"/>
<polygon fill="midnightblue" stroke="midnightblue" points="194.43,-113.8 188.285,-122.431 198.471,-119.516 194.43,-113.8"/>
</g>
</g>
</svg>
