<?xml version="1.0" encoding="UTF-8" standalone="no"?>
<!DOCTYPE svg PUBLIC "-//W3C//DTD SVG 1.1//EN"
 "http://www.w3.org/Graphics/SVG/1.1/DTD/svg11.dtd">
<!-- Generated by graphviz version 2.38.0 (20140413.2041)
 -->
<!-- Title: Graphical Class Hierarchy Pages: 1 -->
<svg width="541pt" height="126pt"
 viewBox="0.00 0.00 541.00 126.00" xmlns="http://www.w3.org/2000/svg" xmlns:xlink="http://www.w3.org/1999/xlink">
<g id="graph0" class="graph" transform="scale(1 1) rotate(0) translate(4 122)">
<title>Graphical Class Hierarchy</title>
<polygon fill="white" stroke="none" points="-4,4 -4,-122 537,-122 537,4 -4,4"/>
<!-- Node1 -->
<g id="node1" class="node"><title>Node1</title>
<polygon fill="white" stroke="#bfbfbf" points="189,-98.5 189,-117.5 300,-117.5 300,-98.5 189,-98.5"/>
<text text-anchor="middle" x="244.5" y="-105.5" font-family="Helvetica,sans-Serif" font-size="10.00">IntrospectableProxy</text>
</g>
<!-- Node2 -->
<g id="node2" class="node"><title>Node2</title>
<g id="a_node2"><a xlink:href="classsoftwarecontainer_1_1_agent_private_data_1_1_d_bus_cpp_proxy.html" target="_top" xlink:title="softwarecontainer::\lAgentPrivateData::DBusCppProxy">
<polygon fill="white" stroke="black" points="355,-55 355,-85 533,-85 533,-55 355,-55"/>
<text text-anchor="start" x="363" y="-73" font-family="Helvetica,sans-Serif" font-size="10.00">softwarecontainer::</text>
<text text-anchor="middle" x="444" y="-62" font-family="Helvetica,sans-Serif" font-size="10.00">AgentPrivateData::DBusCppProxy</text>
</a>
</g>
</g>
<!-- Node1&#45;&gt;Node2 -->
<g id="edge1" class="edge"><title>Node1&#45;&gt;Node2</title>
<path fill="none" stroke="midnightblue" d="M305.005,-96.551C323.854,-92.9243 344.981,-88.8593 364.93,-85.0211"/>
<polygon fill="midnightblue" stroke="midnightblue" points="304.241,-93.1336 295.083,-98.46 305.564,-100.008 304.241,-93.1336"/>
</g>
<!-- Node3 -->
<g id="node3" class="node"><title>Node3</title>
<polygon fill="white" stroke="#bfbfbf" points="207.5,-60.5 207.5,-79.5 281.5,-79.5 281.5,-60.5 207.5,-60.5"/>
<text text-anchor="middle" x="244.5" y="-67.5" font-family="Helvetica,sans-Serif" font-size="10.00">ObjectProxy</text>
</g>
<!-- Node3&#45;&gt;Node2 -->
<g id="edge2" class="edge"><title>Node3&#45;&gt;Node2</title>
<path fill="none" stroke="midnightblue" d="M291.806,-70C310.668,-70 333.126,-70 354.886,-70"/>
<polygon fill="midnightblue" stroke="midnightblue" points="291.725,-66.5001 281.725,-70 291.725,-73.5001 291.725,-66.5001"/>
</g>
<!-- Node4 -->
<g id="node4" class="node"><title>Node4</title>
<polygon fill="white" stroke="#bfbfbf" points="5.68434e-14,-6 5.68434e-14,-36 134,-36 134,-6 5.68434e-14,-6"/>
<text text-anchor="start" x="8" y="-24" font-family="Helvetica,sans-Serif" font-size="10.00">SoftwareContainerAgent</text>
<text text-anchor="middle" x="67" y="-13" font-family="Helvetica,sans-Serif" font-size="10.00">_proxy</text>
</g>
<!-- Node5 -->
<g id="node5" class="node"><title>Node5</title>
<g id="a_node5"><a xlink:href="classsoftwarecontainer_1_1_agent_private_data_1_1_software_container_agent_proxy.html" target="_top" xlink:title="softwarecontainer::\lAgentPrivateData::Software\lContainerAgentProxy">
<polygon fill="white" stroke="black" points="170,-0.5 170,-41.5 319,-41.5 319,-0.5 170,-0.5"/>
<text text-anchor="start" x="178" y="-29.5" font-family="Helvetica,sans-Serif" font-size="10.00">softwarecontainer::</text>
<text text-anchor="start" x="178" y="-18.5" font-family="Helvetica,sans-Serif" font-size="10.00">AgentPrivateData::Software</text>
<text text-anchor="middle" x="244.5" y="-7.5" font-family="Helvetica,sans-Serif" font-size="10.00">ContainerAgentProxy</text>
</a>
</g>
</g>
<!-- Node4&#45;&gt;Node5 -->
<g id="edge3" class="edge"><title>Node4&#45;&gt;Node5</title>
<path fill="none" stroke="midnightblue" d="M144.477,-21C152.854,-21 161.37,-21 169.714,-21"/>
<polygon fill="midnightblue" stroke="midnightblue" points="144.349,-17.5001 134.349,-21 144.349,-24.5001 144.349,-17.5001"/>
</g>
<!-- Node5&#45;&gt;Node2 -->
<g id="edge4" class="edge"><title>Node5&#45;&gt;Node2</title>
<path fill="none" stroke="midnightblue" d="M328.911,-41.6945C346.833,-46.1408 365.445,-50.7585 382.309,-54.9424"/>
<polygon fill="midnightblue" stroke="midnightblue" points="329.59,-38.2569 319.042,-39.2458 327.905,-45.0509 329.59,-38.2569"/>
</g>
</g>
</svg>
