<?xml version="1.0" encoding="UTF-8" standalone="no"?>
<!DOCTYPE svg PUBLIC "-//W3C//DTD SVG 1.1//EN"
 "http://www.w3.org/Graphics/SVG/1.1/DTD/svg11.dtd">
<!-- Generated by graphviz version 2.38.0 (20140413.2041)
 -->
<!-- Title: Graphical Class Hierarchy Pages: 1 -->
<svg width="515pt" height="418pt"
 viewBox="0.00 0.00 515.00 418.00" xmlns="http://www.w3.org/2000/svg" xmlns:xlink="http://www.w3.org/1999/xlink">
<g id="graph0" class="graph" transform="scale(1 1) rotate(0) translate(4 414)">
<title>Graphical Class Hierarchy</title>
<polygon fill="white" stroke="none" points="-4,4 -4,-414 511,-414 511,4 -4,4"/>
<!-- Node1 -->
<g id="node1" class="node"><title>Node1</title>
<polygon fill="white" stroke="#bfbfbf" points="0,-164 0,-183 59,-183 59,-164 0,-164"/>
<text text-anchor="middle" x="29.5" y="-171" font-family="Helvetica,sans-Serif" font-size="10.00">exception</text>
</g>
<!-- Node2 -->
<g id="node2" class="node"><title>Node2</title>
<g id="a_node2"><a xlink:href="classsoftwarecontainer_1_1_config_error.html" target="_top" xlink:title="softwarecontainer::\lConfigError">
<polygon fill="white" stroke="black" points="104.5,-232.5 104.5,-262.5 204.5,-262.5 204.5,-232.5 104.5,-232.5"/>
<text text-anchor="start" x="112.5" y="-250.5" font-family="Helvetica,sans-Serif" font-size="10.00">softwarecontainer::</text>
<text text-anchor="middle" x="154.5" y="-239.5" font-family="Helvetica,sans-Serif" font-size="10.00">ConfigError</text>
</a>
</g>
</g>
<!-- Node1&#45;&gt;Node2 -->
<g id="edge1" class="edge"><title>Node1&#45;&gt;Node2</title>
<path fill="none" stroke="midnightblue" d="M49.0446,-190.062C61.4427,-200.567 78.4579,-213.932 95,-223.5 100.607,-226.743 106.736,-229.766 112.85,-232.498"/>
<polygon fill="midnightblue" stroke="midnightblue" points="51.1139,-187.224 41.2615,-183.328 46.5337,-192.518 51.1139,-187.224"/>
</g>
<!-- Node9 -->
<g id="node9" class="node"><title>Node9</title>
<g id="a_node9"><a xlink:href="classsoftwarecontainer_1_1_gateway_error.html" target="_top" xlink:title="softwarecontainer::\lGatewayError">
<polygon fill="white" stroke="black" points="104.5,-183.5 104.5,-213.5 204.5,-213.5 204.5,-183.5 104.5,-183.5"/>
<text text-anchor="start" x="112.5" y="-201.5" font-family="Helvetica,sans-Serif" font-size="10.00">softwarecontainer::</text>
<text text-anchor="middle" x="154.5" y="-190.5" font-family="Helvetica,sans-Serif" font-size="10.00">GatewayError</text>
</a>
</g>
</g>
<!-- Node1&#45;&gt;Node9 -->
<g id="edge8" class="edge"><title>Node1&#45;&gt;Node9</title>
<path fill="none" stroke="midnightblue" d="M68.9508,-181.315C80.1801,-183.598 92.608,-186.124 104.401,-188.521"/>
<polygon fill="midnightblue" stroke="midnightblue" points="69.5246,-177.86 59.0278,-179.298 68.1303,-184.72 69.5246,-177.86"/>
</g>
<!-- Node10 -->
<g id="node10" class="node"><title>Node10</title>
<g id="a_node10"><a xlink:href="classsoftwarecontainer_1_1_gateway_parser_error.html" target="_top" xlink:title="softwarecontainer::\lGatewayParserError">
<polygon fill="white" stroke="black" points="102,-134.5 102,-164.5 207,-164.5 207,-134.5 102,-134.5"/>
<text text-anchor="start" x="110" y="-152.5" font-family="Helvetica,sans-Serif" font-size="10.00">softwarecontainer::</text>
<text text-anchor="middle" x="154.5" y="-141.5" font-family="Helvetica,sans-Serif" font-size="10.00">GatewayParserError</text>
</a>
</g>
</g>
<!-- Node1&#45;&gt;Node10 -->
<g id="edge9" class="edge"><title>Node1&#45;&gt;Node10</title>
<path fill="none" stroke="midnightblue" d="M69.0594,-165.976C79.4877,-163.941 90.9432,-161.706 101.961,-159.556"/>
<polygon fill="midnightblue" stroke="midnightblue" points="68.1724,-162.583 59.0278,-167.934 69.5131,-169.454 68.1724,-162.583"/>
</g>
<!-- Node11 -->
<g id="node11" class="node"><title>Node11</title>
<g id="a_node11"><a xlink:href="classsoftwarecontainer_1_1_software_container_error.html" target="_top" xlink:title="softwarecontainer::\lSoftwareContainerError">
<polygon fill="white" stroke="black" points="95,-85.5 95,-115.5 214,-115.5 214,-85.5 95,-85.5"/>
<text text-anchor="start" x="103" y="-103.5" font-family="Helvetica,sans-Serif" font-size="10.00">softwarecontainer::</text>
<text text-anchor="middle" x="154.5" y="-92.5" font-family="Helvetica,sans-Serif" font-size="10.00">SoftwareContainerError</text>
</a>
</g>
</g>
<!-- Node1&#45;&gt;Node11 -->
<g id="edge10" class="edge"><title>Node1&#45;&gt;Node11</title>
<path fill="none" stroke="midnightblue" d="M49.6454,-157.37C62.0622,-147.395 78.8757,-134.771 95,-125.5 101.224,-121.922 108.058,-118.549 114.792,-115.507"/>
<polygon fill="midnightblue" stroke="midnightblue" points="47.3365,-154.737 41.8142,-163.779 51.7698,-160.154 47.3365,-154.737"/>
</g>
<!-- Node3 -->
<g id="node3" class="node"><title>Node3</title>
<g id="a_node3"><a xlink:href="classsoftwarecontainer_1_1_config_dependency_error.html" target="_top" xlink:title="softwarecontainer::\lConfigDependencyError">
<polygon fill="white" stroke="black" points="250,-379.5 250,-409.5 371,-409.5 371,-379.5 250,-379.5"/>
<text text-anchor="start" x="258" y="-397.5" font-family="Helvetica,sans-Serif" font-size="10.00">softwarecontainer::</text>
<text text-anchor="middle" x="310.5" y="-386.5" font-family="Helvetica,sans-Serif" font-size="10.00">ConfigDependencyError</text>
</a>
</g>
</g>
<!-- Node2&#45;&gt;Node3 -->
<g id="edge2" class="edge"><title>Node2&#45;&gt;Node3</title>
<path fill="none" stroke="midnightblue" d="M168.758,-271.764C184.787,-299.098 214.127,-343.255 250,-370.5 254.435,-373.868 259.408,-376.837 264.538,-379.432"/>
<polygon fill="midnightblue" stroke="midnightblue" points="171.661,-269.791 163.655,-262.852 165.587,-273.269 171.661,-269.791"/>
</g>
<!-- Node4 -->
<g id="node4" class="node"><title>Node4</title>
<g id="a_node4"><a xlink:href="classsoftwarecontainer_1_1_config_file_error.html" target="_top" xlink:title="An error occured in a Glib operation. ">
<polygon fill="white" stroke="black" points="260.5,-330.5 260.5,-360.5 360.5,-360.5 360.5,-330.5 260.5,-330.5"/>
<text text-anchor="start" x="268.5" y="-348.5" font-family="Helvetica,sans-Serif" font-size="10.00">softwarecontainer::</text>
<text text-anchor="middle" x="310.5" y="-337.5" font-family="Helvetica,sans-Serif" font-size="10.00">ConfigFileError</text>
</a>
</g>
</g>
<!-- Node2&#45;&gt;Node4 -->
<g id="edge3" class="edge"><title>Node2&#45;&gt;Node4</title>
<path fill="none" stroke="midnightblue" d="M179.702,-269.575C198.024,-285.484 224.339,-306.675 250,-321.5 255.594,-324.732 261.707,-327.731 267.818,-330.437"/>
<polygon fill="midnightblue" stroke="midnightblue" points="181.693,-266.665 171.877,-262.679 177.065,-271.916 181.693,-266.665"/>
</g>
<!-- Node5 -->
<g id="node5" class="node"><title>Node5</title>
<g id="a_node5"><a xlink:href="classsoftwarecontainer_1_1_config_internal_error.html" target="_top" xlink:title="An error occured which is an internal error in the config code. ">
<polygon fill="white" stroke="black" points="260.5,-281.5 260.5,-311.5 360.5,-311.5 360.5,-281.5 260.5,-281.5"/>
<text text-anchor="start" x="268.5" y="-299.5" font-family="Helvetica,sans-Serif" font-size="10.00">softwarecontainer::</text>
<text text-anchor="middle" x="310.5" y="-288.5" font-family="Helvetica,sans-Serif" font-size="10.00">ConfigInternalError</text>
</a>
</g>
</g>
<!-- Node2&#45;&gt;Node5 -->
<g id="edge4" class="edge"><title>Node2&#45;&gt;Node5</title>
<path fill="none" stroke="midnightblue" d="M212.886,-265.759C229.129,-270.927 246.619,-276.492 262.195,-281.448"/>
<polygon fill="midnightblue" stroke="midnightblue" points="213.552,-262.298 202.962,-262.601 211.43,-268.969 213.552,-262.298"/>
</g>
<!-- Node6 -->
<g id="node6" class="node"><title>Node6</title>
<g id="a_node6"><a xlink:href="classsoftwarecontainer_1_1_config_mandatory_error.html" target="_top" xlink:title="softwarecontainer::\lConfigMandatoryError">
<polygon fill="white" stroke="black" points="254.5,-232.5 254.5,-262.5 366.5,-262.5 366.5,-232.5 254.5,-232.5"/>
<text text-anchor="start" x="262.5" y="-250.5" font-family="Helvetica,sans-Serif" font-size="10.00">softwarecontainer::</text>
<text text-anchor="middle" x="310.5" y="-239.5" font-family="Helvetica,sans-Serif" font-size="10.00">ConfigMandatoryError</text>
</a>
</g>
</g>
<!-- Node2&#45;&gt;Node6 -->
<g id="edge5" class="edge"><title>Node2&#45;&gt;Node6</title>
<path fill="none" stroke="midnightblue" d="M214.889,-247.5C227.883,-247.5 241.584,-247.5 254.402,-247.5"/>
<polygon fill="midnightblue" stroke="midnightblue" points="214.65,-244 204.65,-247.5 214.65,-251 214.65,-244"/>
</g>
<!-- Node7 -->
<g id="node7" class="node"><title>Node7</title>
<g id="a_node7"><a xlink:href="classsoftwarecontainer_1_1_config_not_found_error.html" target="_top" xlink:title="A requested config item could not be found in any of the config sources. ">
<polygon fill="white" stroke="black" points="256,-183.5 256,-213.5 365,-213.5 365,-183.5 256,-183.5"/>
<text text-anchor="start" x="264" y="-201.5" font-family="Helvetica,sans-Serif" font-size="10.00">softwarecontainer::</text>
<text text-anchor="middle" x="310.5" y="-190.5" font-family="Helvetica,sans-Serif" font-size="10.00">ConfigNotFoundError</text>
</a>
</g>
</g>
<!-- Node2&#45;&gt;Node7 -->
<g id="edge6" class="edge"><title>Node2&#45;&gt;Node7</title>
<path fill="none" stroke="midnightblue" d="M212.886,-229.241C229.129,-224.073 246.619,-218.508 262.195,-213.552"/>
<polygon fill="midnightblue" stroke="midnightblue" points="211.43,-226.031 202.962,-232.399 213.552,-232.702 211.43,-226.031"/>
</g>
<!-- Node8 -->
<g id="node8" class="node"><title>Node8</title>
<g id="a_node8"><a xlink:href="classsoftwarecontainer_1_1_config_unknown_error.html" target="_top" xlink:title="A config is found which is not defined in ConfigDefinition. ">
<polygon fill="white" stroke="black" points="257,-134.5 257,-164.5 364,-164.5 364,-134.5 257,-134.5"/>
<text text-anchor="start" x="265" y="-152.5" font-family="Helvetica,sans-Serif" font-size="10.00">softwarecontainer::</text>
<text text-anchor="middle" x="310.5" y="-141.5" font-family="Helvetica,sans-Serif" font-size="10.00">ConfigUnknownError</text>
</a>
</g>
</g>
<!-- Node2&#45;&gt;Node8 -->
<g id="edge7" class="edge"><title>Node2&#45;&gt;Node8</title>
<path fill="none" stroke="midnightblue" d="M208.486,-227.42C210.396,-226.179 212.243,-224.873 214,-223.5 235.295,-206.862 228.776,-191.228 250,-174.5 254.752,-170.755 260.147,-167.477 265.702,-164.637"/>
<polygon fill="midnightblue" stroke="midnightblue" points="206.682,-224.42 199.775,-232.454 210.184,-230.481 206.682,-224.42"/>
</g>
<!-- Node12 -->
<g id="node12" class="node"><title>Node12</title>
<g id="a_node12"><a xlink:href="classsoftwarecontainer_1_1_cgroups_gateway_error.html" target="_top" xlink:title="softwarecontainer::\lCgroupsGatewayError">
<polygon fill="white" stroke="black" points="254,-85.5 254,-115.5 367,-115.5 367,-85.5 254,-85.5"/>
<text text-anchor="start" x="262" y="-103.5" font-family="Helvetica,sans-Serif" font-size="10.00">softwarecontainer::</text>
<text text-anchor="middle" x="310.5" y="-92.5" font-family="Helvetica,sans-Serif" font-size="10.00">CgroupsGatewayError</text>
</a>
</g>
</g>
<!-- Node11&#45;&gt;Node12 -->
<g id="edge11" class="edge"><title>Node11&#45;&gt;Node12</title>
<path fill="none" stroke="midnightblue" d="M224.339,-100.5C234.196,-100.5 244.233,-100.5 253.794,-100.5"/>
<polygon fill="midnightblue" stroke="midnightblue" points="224.16,-97.0001 214.16,-100.5 224.16,-104 224.16,-97.0001"/>
</g>
<!-- Node16 -->
<g id="node16" class="node"><title>Node16</title>
<g id="a_node16"><a xlink:href="classsoftwarecontainer_1_1_network_gateway_error.html" target="_top" xlink:title="softwarecontainer::\lNetworkGatewayError">
<polygon fill="white" stroke="black" points="254,-24.5 254,-54.5 367,-54.5 367,-24.5 254,-24.5"/>
<text text-anchor="start" x="262" y="-42.5" font-family="Helvetica,sans-Serif" font-size="10.00">softwarecontainer::</text>
<text text-anchor="middle" x="310.5" y="-31.5" font-family="Helvetica,sans-Serif" font-size="10.00">NetworkGatewayError</text>
</a>
</g>
</g>
<!-- Node11&#45;&gt;Node16 -->
<g id="edge15" class="edge"><title>Node11&#45;&gt;Node16</title>
<path fill="none" stroke="midnightblue" d="M203.071,-81.6571C225.102,-72.9306 250.916,-62.7053 271.604,-54.5108"/>
<polygon fill="midnightblue" stroke="midnightblue" points="201.576,-78.4846 193.567,-85.4213 204.154,-84.9926 201.576,-78.4846"/>
</g>
<!-- Node13 -->
<g id="node13" class="node"><title>Node13</title>
<g id="a_node13"><a xlink:href="classsoftwarecontainer_1_1_bad_suffix_error.html" target="_top" xlink:title="softwarecontainer::\lBadSuffixError">
<polygon fill="white" stroke="black" points="407,-147.5 407,-177.5 507,-177.5 507,-147.5 407,-147.5"/>
<text text-anchor="start" x="415" y="-165.5" font-family="Helvetica,sans-Serif" font-size="10.00">softwarecontainer::</text>
<text text-anchor="middle" x="457" y="-154.5" font-family="Helvetica,sans-Serif" font-size="10.00">BadSuffixError</text>
</a>
</g>
</g>
<!-- Node12&#45;&gt;Node13 -->
<g id="edge12" class="edge"><title>Node12&#45;&gt;Node13</title>
<path fill="none" stroke="midnightblue" d="M357.217,-119.639C361.876,-121.61 366.535,-123.59 371,-125.5 387.721,-132.652 406.242,-140.699 421.716,-147.458"/>
<polygon fill="midnightblue" stroke="midnightblue" points="358.29,-116.293 347.716,-115.63 355.568,-122.742 358.29,-116.293"/>
</g>
<!-- Node14 -->
<g id="node14" class="node"><title>Node14</title>
<g id="a_node14"><a xlink:href="classsoftwarecontainer_1_1_j_son_error.html" target="_top" xlink:title="softwarecontainer::\lJSonError">
<polygon fill="white" stroke="black" points="407,-98.5 407,-128.5 507,-128.5 507,-98.5 407,-98.5"/>
<text text-anchor="start" x="415" y="-116.5" font-family="Helvetica,sans-Serif" font-size="10.00">softwarecontainer::</text>
<text text-anchor="middle" x="457" y="-105.5" font-family="Helvetica,sans-Serif" font-size="10.00">JSonError</text>
</a>
</g>
</g>
<!-- Node12&#45;&gt;Node14 -->
<g id="edge13" class="edge"><title>Node12&#45;&gt;Node14</title>
<path fill="none" stroke="midnightblue" d="M377.56,-106.443C387.424,-107.331 397.443,-108.232 406.874,-109.08"/>
<polygon fill="midnightblue" stroke="midnightblue" points="377.641,-102.936 367.367,-105.526 377.014,-109.908 377.641,-102.936"/>
</g>
<!-- Node15 -->
<g id="node15" class="node"><title>Node15</title>
<g id="a_node15"><a xlink:href="classsoftwarecontainer_1_1_limit_range_error.html" target="_top" xlink:title="softwarecontainer::\lLimitRangeError">
<polygon fill="white" stroke="black" points="407,-49.5 407,-79.5 507,-79.5 507,-49.5 407,-49.5"/>
<text text-anchor="start" x="415" y="-67.5" font-family="Helvetica,sans-Serif" font-size="10.00">softwarecontainer::</text>
<text text-anchor="middle" x="457" y="-56.5" font-family="Helvetica,sans-Serif" font-size="10.00">LimitRangeError</text>
</a>
</g>
</g>
<!-- Node12&#45;&gt;Node15 -->
<g id="edge14" class="edge"><title>Node12&#45;&gt;Node15</title>
<path fill="none" stroke="midnightblue" d="M377.248,-84.1198C387.213,-81.6373 397.343,-79.1134 406.874,-76.739"/>
<polygon fill="midnightblue" stroke="midnightblue" points="376.225,-80.7677 367.367,-86.5815 377.917,-87.5601 376.225,-80.7677"/>
</g>
<!-- Node17 -->
<g id="node17" class="node"><title>Node17</title>
<g id="a_node17"><a xlink:href="classsoftwarecontainer_1_1_i_p_allocation_error.html" target="_top" xlink:title="softwarecontainer::\lIPAllocationError">
<polygon fill="white" stroke="black" points="407,-0.5 407,-30.5 507,-30.5 507,-0.5 407,-0.5"/>
<text text-anchor="start" x="415" y="-18.5" font-family="Helvetica,sans-Serif" font-size="10.00">softwarecontainer::</text>
<text text-anchor="middle" x="457" y="-7.5" font-family="Helvetica,sans-Serif" font-size="10.00">IPAllocationError</text>
</a>
</g>
</g>
<!-- Node16&#45;&gt;Node17 -->
<g id="edge16" class="edge"><title>Node16&#45;&gt;Node17</title>
<path fill="none" stroke="midnightblue" d="M377.248,-28.5799C387.213,-26.9249 397.343,-25.2423 406.874,-23.6593"/>
<polygon fill="midnightblue" stroke="midnightblue" points="376.659,-25.1297 367.367,-30.221 377.806,-32.0351 376.659,-25.1297"/>
</g>
</g>
</svg>
