<?xml version="1.0" encoding="UTF-8" standalone="no"?>
<!DOCTYPE svg PUBLIC "-//W3C//DTD SVG 1.1//EN"
 "http://www.w3.org/Graphics/SVG/1.1/DTD/svg11.dtd">
<!-- Generated by graphviz version 2.38.0 (20140413.2041)
 -->
<!-- Title: Graphical Class Hierarchy Pages: 1 -->
<svg width="475pt" height="578pt"
 viewBox="0.00 0.00 475.00 578.00" xmlns="http://www.w3.org/2000/svg" xmlns:xlink="http://www.w3.org/1999/xlink">
<g id="graph0" class="graph" transform="scale(1 1) rotate(0) translate(4 574)">
<title>Graphical Class Hierarchy</title>
<polygon fill="white" stroke="none" points="-4,4 -4,-574 471,-574 471,4 -4,4"/>
<!-- Node1 -->
<g id="node1" class="node"><title>Node1</title>
<g id="a_node1"><a xlink:href="classsoftwarecontainer_1_1_executable.html" target="_top" xlink:title="softwarecontainer::\lExecutable">
<polygon fill="white" stroke="black" points="0,-539.5 0,-569.5 100,-569.5 100,-539.5 0,-539.5"/>
<text text-anchor="start" x="8" y="-557.5" font-family="Helvetica,sans-Serif" font-size="10.00">softwarecontainer::</text>
<text text-anchor="middle" x="50" y="-546.5" font-family="Helvetica,sans-Serif" font-size="10.00">Executable</text>
</a>
</g>
</g>
<!-- Node2 -->
<g id="node2" class="node"><title>Node2</title>
<g id="a_node2"><a xlink:href="classsoftwarecontainer_1_1_container_abstract_interface.html" target="_top" xlink:title="softwarecontainer::\lContainerAbstractInterface">
<polygon fill="white" stroke="black" points="155.5,-539.5 155.5,-569.5 289.5,-569.5 289.5,-539.5 155.5,-539.5"/>
<text text-anchor="start" x="163.5" y="-557.5" font-family="Helvetica,sans-Serif" font-size="10.00">softwarecontainer::</text>
<text text-anchor="middle" x="222.5" y="-546.5" font-family="Helvetica,sans-Serif" font-size="10.00">ContainerAbstractInterface</text>
</a>
</g>
</g>
<!-- Node1&#45;&gt;Node2 -->
<g id="edge1" class="edge"><title>Node1&#45;&gt;Node2</title>
<path fill="none" stroke="midnightblue" d="M110.647,-554.5C125.137,-554.5 140.714,-554.5 155.479,-554.5"/>
<polygon fill="midnightblue" stroke="midnightblue" points="110.316,-551 100.316,-554.5 110.316,-558 110.316,-551"/>
</g>
<!-- Node3 -->
<g id="node3" class="node"><title>Node3</title>
<g id="a_node3"><a xlink:href="classsoftwarecontainer_1_1_container.html" target="_top" xlink:title="The Container class is an abstraction of the specific containment technology used. ">
<polygon fill="white" stroke="black" points="356,-539.5 356,-569.5 456,-569.5 456,-539.5 356,-539.5"/>
<text text-anchor="start" x="364" y="-557.5" font-family="Helvetica,sans-Serif" font-size="10.00">softwarecontainer::</text>
<text text-anchor="middle" x="406" y="-546.5" font-family="Helvetica,sans-Serif" font-size="10.00">Container</text>
</a>
</g>
</g>
<!-- Node2&#45;&gt;Node3 -->
<g id="edge2" class="edge"><title>Node2&#45;&gt;Node3</title>
<path fill="none" stroke="midnightblue" d="M299.67,-554.5C318.653,-554.5 338.51,-554.5 355.801,-554.5"/>
<polygon fill="midnightblue" stroke="midnightblue" points="299.539,-551 289.539,-554.5 299.539,-558 299.539,-551"/>
</g>
<!-- Node4 -->
<g id="node4" class="node"><title>Node4</title>
<g id="a_node4"><a xlink:href="classsoftwarecontainer_1_1_file_toolkit_with_undo.html" target="_top" xlink:title="softwarecontainer::\lFileToolkitWithUndo">
<polygon fill="white" stroke="black" points="170,-490.5 170,-520.5 275,-520.5 275,-490.5 170,-490.5"/>
<text text-anchor="start" x="178" y="-508.5" font-family="Helvetica,sans-Serif" font-size="10.00">softwarecontainer::</text>
<text text-anchor="middle" x="222.5" y="-497.5" font-family="Helvetica,sans-Serif" font-size="10.00">FileToolkitWithUndo</text>
</a>
</g>
</g>
<!-- Node4&#45;&gt;Node3 -->
<g id="edge3" class="edge"><title>Node4&#45;&gt;Node3</title>
<path fill="none" stroke="#8b1a1a" d="M284.753,-522.037C307.909,-528.288 333.941,-535.316 355.846,-541.23"/>
<polygon fill="#8b1a1a" stroke="#8b1a1a" points="285.592,-518.638 275.025,-519.41 283.767,-525.396 285.592,-518.638"/>
</g>
<!-- Node5 -->
<g id="node5" class="node"><title>Node5</title>
<g id="a_node5"><a xlink:href="classsoftwarecontainer_1_1_container_utility_interface.html" target="_top" xlink:title="softwarecontainer::\lContainerUtilityInterface">
<polygon fill="white" stroke="black" points="345,-490.5 345,-520.5 467,-520.5 467,-490.5 345,-490.5"/>
<text text-anchor="start" x="353" y="-508.5" font-family="Helvetica,sans-Serif" font-size="10.00">softwarecontainer::</text>
<text text-anchor="middle" x="406" y="-497.5" font-family="Helvetica,sans-Serif" font-size="10.00">ContainerUtilityInterface</text>
</a>
</g>
</g>
<!-- Node4&#45;&gt;Node5 -->
<g id="edge4" class="edge"><title>Node4&#45;&gt;Node5</title>
<path fill="none" stroke="#8b1a1a" d="M285.175,-505.5C304.392,-505.5 325.554,-505.5 344.677,-505.5"/>
<polygon fill="#8b1a1a" stroke="#8b1a1a" points="285.025,-502 275.025,-505.5 285.025,-509 285.025,-502"/>
</g>
<!-- Node6 -->
<g id="node6" class="node"><title>Node6</title>
<g id="a_node6"><a xlink:href="classsoftwarecontainer_1_1_device_node_gateway.html" target="_top" xlink:title="This gateway is responsible for exposing device nodes in an LXC container. ">
<polygon fill="white" stroke="black" points="351,-392.5 351,-422.5 461,-422.5 461,-392.5 351,-392.5"/>
<text text-anchor="start" x="359" y="-410.5" font-family="Helvetica,sans-Serif" font-size="10.00">softwarecontainer::</text>
<text text-anchor="middle" x="406" y="-399.5" font-family="Helvetica,sans-Serif" font-size="10.00">DeviceNodeGateway</text>
</a>
</g>
</g>
<!-- Node4&#45;&gt;Node6 -->
<g id="edge5" class="edge"><title>Node4&#45;&gt;Node6</title>
<path fill="none" stroke="midnightblue" d="M284.903,-492.899C293.419,-489.656 301.728,-485.591 309,-480.5 331.137,-465.001 323.632,-448.044 345,-431.5 349.347,-428.135 354.228,-425.178 359.279,-422.598"/>
<polygon fill="midnightblue" stroke="midnightblue" points="283.563,-489.659 275.245,-496.222 285.84,-496.278 283.563,-489.659"/>
</g>
<!-- Node7 -->
<g id="node7" class="node"><title>Node7</title>
<g id="a_node7"><a xlink:href="classsoftwarecontainer_1_1_software_container.html" target="_top" xlink:title="An abstraction of concrete container implementations. ">
<polygon fill="white" stroke="black" points="356,-441.5 356,-471.5 456,-471.5 456,-441.5 356,-441.5"/>
<text text-anchor="start" x="364" y="-459.5" font-family="Helvetica,sans-Serif" font-size="10.00">softwarecontainer::</text>
<text text-anchor="middle" x="406" y="-448.5" font-family="Helvetica,sans-Serif" font-size="10.00">SoftwareContainer</text>
</a>
</g>
</g>
<!-- Node4&#45;&gt;Node7 -->
<g id="edge6" class="edge"><title>Node4&#45;&gt;Node7</title>
<path fill="none" stroke="#8b1a1a" d="M284.753,-488.963C307.909,-482.712 333.941,-475.684 355.846,-469.77"/>
<polygon fill="#8b1a1a" stroke="#8b1a1a" points="283.767,-485.604 275.025,-491.59 285.592,-492.362 283.767,-485.604"/>
</g>
<!-- Node8 -->
<g id="node8" class="node"><title>Node8</title>
<g id="a_node8"><a xlink:href="classsoftwarecontainer_1_1_gateway.html" target="_top" xlink:title="Gateway base class for SoftwareContainer. ">
<polygon fill="white" stroke="black" points="172.5,-196.5 172.5,-226.5 272.5,-226.5 272.5,-196.5 172.5,-196.5"/>
<text text-anchor="start" x="180.5" y="-214.5" font-family="Helvetica,sans-Serif" font-size="10.00">softwarecontainer::</text>
<text text-anchor="middle" x="222.5" y="-203.5" font-family="Helvetica,sans-Serif" font-size="10.00">Gateway</text>
</a>
</g>
</g>
<!-- Node8&#45;&gt;Node6 -->
<g id="edge10" class="edge"><title>Node8&#45;&gt;Node6</title>
<path fill="none" stroke="midnightblue" d="M235.179,-235.881C253.754,-272.342 293.278,-341.192 345,-382.5 349.762,-386.303 355.184,-389.614 360.777,-392.471"/>
<polygon fill="midnightblue" stroke="midnightblue" points="238.306,-234.309 230.707,-226.926 232.043,-237.436 238.306,-234.309"/>
</g>
<!-- Node9 -->
<g id="node9" class="node"><title>Node9</title>
<g id="a_node9"><a xlink:href="classsoftwarecontainer_1_1_cgroups_gateway.html" target="_top" xlink:title="The cgroups gateway sets cgroups related settings for the container. ">
<polygon fill="white" stroke="black" points="356,-245.5 356,-275.5 456,-275.5 456,-245.5 356,-245.5"/>
<text text-anchor="start" x="364" y="-263.5" font-family="Helvetica,sans-Serif" font-size="10.00">softwarecontainer::</text>
<text text-anchor="middle" x="406" y="-252.5" font-family="Helvetica,sans-Serif" font-size="10.00">CgroupsGateway</text>
</a>
</g>
</g>
<!-- Node8&#45;&gt;Node9 -->
<g id="edge7" class="edge"><title>Node8&#45;&gt;Node9</title>
<path fill="none" stroke="midnightblue" d="M282.548,-227.441C306.245,-233.839 333.241,-241.127 355.844,-247.229"/>
<polygon fill="midnightblue" stroke="midnightblue" points="283.183,-223.988 272.617,-224.76 281.359,-230.746 283.183,-223.988"/>
</g>
<!-- Node10 -->
<g id="node10" class="node"><title>Node10</title>
<g id="a_node10"><a xlink:href="classsoftwarecontainer_1_1_d_bus_gateway.html" target="_top" xlink:title="softwarecontainer::\lDBusGateway">
<polygon fill="white" stroke="black" points="356,-196.5 356,-226.5 456,-226.5 456,-196.5 356,-196.5"/>
<text text-anchor="start" x="364" y="-214.5" font-family="Helvetica,sans-Serif" font-size="10.00">softwarecontainer::</text>
<text text-anchor="middle" x="406" y="-203.5" font-family="Helvetica,sans-Serif" font-size="10.00">DBusGateway</text>
</a>
</g>
</g>
<!-- Node8&#45;&gt;Node10 -->
<g id="edge8" class="edge"><title>Node8&#45;&gt;Node10</title>
<path fill="none" stroke="midnightblue" d="M282.866,-211.5C306.486,-211.5 333.342,-211.5 355.844,-211.5"/>
<polygon fill="midnightblue" stroke="midnightblue" points="282.617,-208 272.617,-211.5 282.616,-215 282.617,-208"/>
</g>
<!-- Node11 -->
<g id="node11" class="node"><title>Node11</title>
<g id="a_node11"><a xlink:href="classsoftwarecontainer_1_1_d_bus_gateway_instance.html" target="_top" xlink:title="DBus Gateway takes care of spawning and killing the DBus proxies. ">
<polygon fill="white" stroke="black" points="347,-147.5 347,-177.5 465,-177.5 465,-147.5 347,-147.5"/>
<text text-anchor="start" x="355" y="-165.5" font-family="Helvetica,sans-Serif" font-size="10.00">softwarecontainer::</text>
<text text-anchor="middle" x="406" y="-154.5" font-family="Helvetica,sans-Serif" font-size="10.00">DBusGatewayInstance</text>
</a>
</g>
</g>
<!-- Node8&#45;&gt;Node11 -->
<g id="edge9" class="edge"><title>Node8&#45;&gt;Node11</title>
<path fill="none" stroke="midnightblue" d="M282.306,-195.624C303.861,-189.805 328.173,-183.241 349.436,-177.501"/>
<polygon fill="midnightblue" stroke="midnightblue" points="281.359,-192.254 272.617,-198.24 283.183,-199.012 281.359,-192.254"/>
</g>
<!-- Node12 -->
<g id="node12" class="node"><title>Node12</title>
<g id="a_node12"><a xlink:href="classsoftwarecontainer_1_1_environment_gateway.html" target="_top" xlink:title="Environment Gateway is used to define environment variables to the container. ">
<polygon fill="white" stroke="black" points="351,-98.5 351,-128.5 461,-128.5 461,-98.5 351,-98.5"/>
<text text-anchor="start" x="359" y="-116.5" font-family="Helvetica,sans-Serif" font-size="10.00">softwarecontainer::</text>
<text text-anchor="middle" x="406" y="-105.5" font-family="Helvetica,sans-Serif" font-size="10.00">EnvironmentGateway</text>
</a>
</g>
</g>
<!-- Node8&#45;&gt;Node12 -->
<g id="edge11" class="edge"><title>Node8&#45;&gt;Node12</title>
<path fill="none" stroke="midnightblue" d="M254.068,-190.919C278.163,-175.184 312.933,-153.539 345,-137.5 351.221,-134.388 357.948,-131.376 364.571,-128.598"/>
<polygon fill="midnightblue" stroke="midnightblue" points="252.128,-188.006 245.699,-196.428 255.976,-193.853 252.128,-188.006"/>
</g>
<!-- Node13 -->
<g id="node13" class="node"><title>Node13</title>
<g id="a_node13"><a xlink:href="classsoftwarecontainer_1_1_file_gateway.html" target="_top" xlink:title="This gateway lets you map files (including socket files) or folders from the host into the container&#39;...">
<polygon fill="white" stroke="black" points="356,-49.5 356,-79.5 456,-79.5 456,-49.5 356,-49.5"/>
<text text-anchor="start" x="364" y="-67.5" font-family="Helvetica,sans-Serif" font-size="10.00">softwarecontainer::</text>
<text text-anchor="middle" x="406" y="-56.5" font-family="Helvetica,sans-Serif" font-size="10.00">FileGateway</text>
</a>
</g>
</g>
<!-- Node8&#45;&gt;Node13 -->
<g id="edge12" class="edge"><title>Node8&#45;&gt;Node13</title>
<path fill="none" stroke="midnightblue" d="M241.518,-188.133C263.446,-161.034 302.803,-116.511 345,-88.5 349.954,-85.2115 355.428,-82.256 360.996,-79.6365"/>
<polygon fill="midnightblue" stroke="midnightblue" points="238.524,-186.274 235.03,-196.275 243.999,-190.636 238.524,-186.274"/>
</g>
<!-- Node14 -->
<g id="node14" class="node"><title>Node14</title>
<g id="a_node14"><a xlink:href="classsoftwarecontainer_1_1_network_gateway.html" target="_top" xlink:title="Sets up and manages network access and routing to the container. ">
<polygon fill="white" stroke="black" points="356,-0.5 356,-30.5 456,-30.5 456,-0.5 356,-0.5"/>
<text text-anchor="start" x="364" y="-18.5" font-family="Helvetica,sans-Serif" font-size="10.00">softwarecontainer::</text>
<text text-anchor="middle" x="406" y="-7.5" font-family="Helvetica,sans-Serif" font-size="10.00">NetworkGateway</text>
</a>
</g>
</g>
<!-- Node8&#45;&gt;Node14 -->
<g id="edge13" class="edge"><title>Node8&#45;&gt;Node14</title>
<path fill="none" stroke="midnightblue" d="M234.79,-187.435C253.102,-150.783 292.575,-80.8763 345,-39.5 349.315,-36.0942 354.177,-33.1129 359.217,-30.5184"/>
<polygon fill="midnightblue" stroke="midnightblue" points="231.645,-185.899 230.394,-196.42 237.933,-188.976 231.645,-185.899"/>
</g>
<!-- Node15 -->
<g id="node15" class="node"><title>Node15</title>
<g id="a_node15"><a xlink:href="classsoftwarecontainer_1_1_pulse_gateway.html" target="_top" xlink:title="The PulseAudio Gateway is used to provide access to the host system PulseAudio server. ">
<polygon fill="white" stroke="black" points="356,-343.5 356,-373.5 456,-373.5 456,-343.5 356,-343.5"/>
<text text-anchor="start" x="364" y="-361.5" font-family="Helvetica,sans-Serif" font-size="10.00">softwarecontainer::</text>
<text text-anchor="middle" x="406" y="-350.5" font-family="Helvetica,sans-Serif" font-size="10.00">PulseGateway</text>
</a>
</g>
</g>
<!-- Node8&#45;&gt;Node15 -->
<g id="edge14" class="edge"><title>Node8&#45;&gt;Node15</title>
<path fill="none" stroke="midnightblue" d="M241.629,-234.564C263.662,-261.333 303.119,-305.39 345,-333.5 350.528,-337.21 356.695,-340.539 362.913,-343.463"/>
<polygon fill="midnightblue" stroke="midnightblue" points="244.124,-232.084 235.106,-226.522 238.687,-236.493 244.124,-232.084"/>
</g>
<!-- Node16 -->
<g id="node16" class="node"><title>Node16</title>
<g id="a_node16"><a xlink:href="classsoftwarecontainer_1_1_wayland_gateway.html" target="_top" xlink:title="softwarecontainer::\lWaylandGateway">
<polygon fill="white" stroke="black" points="356,-294.5 356,-324.5 456,-324.5 456,-294.5 356,-294.5"/>
<text text-anchor="start" x="364" y="-312.5" font-family="Helvetica,sans-Serif" font-size="10.00">softwarecontainer::</text>
<text text-anchor="middle" x="406" y="-301.5" font-family="Helvetica,sans-Serif" font-size="10.00">WaylandGateway</text>
</a>
</g>
</g>
<!-- Node8&#45;&gt;Node16 -->
<g id="edge15" class="edge"><title>Node8&#45;&gt;Node16</title>
<path fill="none" stroke="midnightblue" d="M254.935,-232.127C279.051,-247.521 313.45,-268.557 345,-284.5 351.849,-287.961 359.293,-291.347 366.532,-294.454"/>
<polygon fill="midnightblue" stroke="midnightblue" points="256.527,-228.99 246.223,-226.526 252.742,-234.878 256.527,-228.99"/>
</g>
<!-- Node17 -->
<g id="node17" class="node"><title>Node17</title>
<g id="a_node17"><a xlink:href="classsoftwarecontainer_1_1_software_container_abstract_interface.html" target="_top" xlink:title="softwarecontainer::\lSoftwareContainerAbstractInterface">
<polygon fill="white" stroke="black" points="136,-441.5 136,-471.5 309,-471.5 309,-441.5 136,-441.5"/>
<text text-anchor="start" x="144" y="-459.5" font-family="Helvetica,sans-Serif" font-size="10.00">softwarecontainer::</text>
<text text-anchor="middle" x="222.5" y="-448.5" font-family="Helvetica,sans-Serif" font-size="10.00">SoftwareContainerAbstractInterface</text>
</a>
</g>
</g>
<!-- Node17&#45;&gt;Node7 -->
<g id="edge16" class="edge"><title>Node17&#45;&gt;Node7</title>
<path fill="none" stroke="midnightblue" d="M319.316,-456.5C331.918,-456.5 344.389,-456.5 355.754,-456.5"/>
<polygon fill="midnightblue" stroke="midnightblue" points="319.201,-453 309.201,-456.5 319.201,-460 319.201,-453"/>
</g>
</g>
</svg>
