<?xml version="1.0" encoding="UTF-8" standalone="no"?>
<!DOCTYPE svg PUBLIC "-//W3C//DTD SVG 1.1//EN"
 "http://www.w3.org/Graphics/SVG/1.1/DTD/svg11.dtd">
<!-- Generated by graphviz version 2.38.0 (20140413.2041)
 -->
<!-- Title: Graphical Class Hierarchy Pages: 1 -->
<svg width="304pt" height="142pt"
 viewBox="0.00 0.00 304.00 142.00" xmlns="http://www.w3.org/2000/svg" xmlns:xlink="http://www.w3.org/1999/xlink">
<g id="graph0" class="graph" transform="scale(1 1) rotate(0) translate(4 138)">
<title>Graphical Class Hierarchy</title>
<polygon fill="white" stroke="none" points="-4,4 -4,-138 300,-138 300,4 -4,4"/>
<!-- Node1 -->
<g id="node1" class="node"><title>Node1</title>
<g id="a_node1"><a xlink:href="classsoftwarecontainer_1_1_clean_up_handler.html" target="_top" xlink:title="softwarecontainer::\lCleanUpHandler">
<polygon fill="white" stroke="black" points="0,-52 0,-82 108,-82 108,-52 0,-52"/>
<text text-anchor="start" x="8" y="-70" font-family="Helvetica,sans-Serif" font-size="10.00">softwarecontainer::</text>
<text text-anchor="middle" x="54" y="-59" font-family="Helvetica,sans-Serif" font-size="10.00">CleanUpHandler</text>
</a>
</g>
</g>
<!-- Node2 -->
<g id="node2" class="node"><title>Node2</title>
<g id="a_node2"><a xlink:href="class_directory_clean_up_handler.html" target="_top" xlink:title="DirectoryCleanUpHandler">
<polygon fill="white" stroke="black" points="151,-114.5 151,-133.5 289,-133.5 289,-114.5 151,-114.5"/>
<text text-anchor="middle" x="220" y="-121.5" font-family="Helvetica,sans-Serif" font-size="10.00">DirectoryCleanUpHandler</text>
</a>
</g>
</g>
<!-- Node1&#45;&gt;Node2 -->
<g id="edge1" class="edge"><title>Node1&#45;&gt;Node2</title>
<path fill="none" stroke="midnightblue" d="M96.4688,-86.2889C111.274,-92.7509 128.201,-99.6621 144,-105 154.435,-108.526 165.88,-111.742 176.617,-114.486"/>
<polygon fill="midnightblue" stroke="midnightblue" points="97.6397,-82.9796 87.0791,-82.1283 94.8038,-89.3794 97.6397,-82.9796"/>
</g>
<!-- Node3 -->
<g id="node3" class="node"><title>Node3</title>
<g id="a_node3"><a xlink:href="class_file_clean_up_handler.html" target="_top" xlink:title="The FileCleanUpHandler class is a subclass of CleanUpHandler that deletes a file. ...">
<polygon fill="white" stroke="black" points="165,-76.5 165,-95.5 275,-95.5 275,-76.5 165,-76.5"/>
<text text-anchor="middle" x="220" y="-83.5" font-family="Helvetica,sans-Serif" font-size="10.00">FileCleanUpHandler</text>
</a>
</g>
</g>
<!-- Node1&#45;&gt;Node3 -->
<g id="edge2" class="edge"><title>Node1&#45;&gt;Node3</title>
<path fill="none" stroke="midnightblue" d="M118.211,-74.3232C133.617,-76.1081 149.958,-78.0013 164.897,-79.732"/>
<polygon fill="midnightblue" stroke="midnightblue" points="118.582,-70.8429 108.246,-73.1688 117.777,-77.7964 118.582,-70.8429"/>
</g>
<!-- Node4 -->
<g id="node4" class="node"><title>Node4</title>
<g id="a_node4"><a xlink:href="class_mount_clean_up_handler.html" target="_top" xlink:title="MountCleanUpHandler">
<polygon fill="white" stroke="black" points="157.5,-38.5 157.5,-57.5 282.5,-57.5 282.5,-38.5 157.5,-38.5"/>
<text text-anchor="middle" x="220" y="-45.5" font-family="Helvetica,sans-Serif" font-size="10.00">MountCleanUpHandler</text>
</a>
</g>
</g>
<!-- Node1&#45;&gt;Node4 -->
<g id="edge3" class="edge"><title>Node1&#45;&gt;Node4</title>
<path fill="none" stroke="midnightblue" d="M118.379,-59.6573C131.218,-58.1699 144.699,-56.608 157.473,-55.1281"/>
<polygon fill="midnightblue" stroke="midnightblue" points="117.777,-56.2036 108.246,-60.8312 118.582,-63.1571 117.777,-56.2036"/>
</g>
<!-- Node5 -->
<g id="node5" class="node"><title>Node5</title>
<g id="a_node5"><a xlink:href="class_overlay_sync_cleanup_handler.html" target="_top" xlink:title="The OverlaySyncCleanupHandler class is used to copy files on cleanup and can be added to the CleanupH...">
<polygon fill="white" stroke="black" points="144,-0.5 144,-19.5 296,-19.5 296,-0.5 144,-0.5"/>
<text text-anchor="middle" x="220" y="-7.5" font-family="Helvetica,sans-Serif" font-size="10.00">OverlaySyncCleanupHandler</text>
</a>
</g>
</g>
<!-- Node1&#45;&gt;Node5 -->
<g id="edge4" class="edge"><title>Node1&#45;&gt;Node5</title>
<path fill="none" stroke="midnightblue" d="M96.4688,-47.7111C111.274,-41.2491 128.201,-34.3379 144,-29 154.435,-25.4744 165.88,-22.258 176.617,-19.5144"/>
<polygon fill="midnightblue" stroke="midnightblue" points="94.8038,-44.6206 87.0791,-51.8717 97.6397,-51.0204 94.8038,-44.6206"/>
</g>
</g>
</svg>
