<?xml version="1.0" encoding="UTF-8" standalone="no"?>
<!DOCTYPE svg PUBLIC "-//W3C//DTD SVG 1.1//EN"
 "http://www.w3.org/Graphics/SVG/1.1/DTD/svg11.dtd">
<!-- Generated by graphviz version 2.38.0 (20140413.2041)
 -->
<!-- Title: Graphical Class Hierarchy Pages: 1 -->
<svg width="572pt" height="529pt"
 viewBox="0.00 0.00 572.00 529.00" xmlns="http://www.w3.org/2000/svg" xmlns:xlink="http://www.w3.org/1999/xlink">
<g id="graph0" class="graph" transform="scale(1 1) rotate(0) translate(4 525)">
<title>Graphical Class Hierarchy</title>
<polygon fill="white" stroke="none" points="-4,4 -4,-525 568,-525 568,4 -4,4"/>
<!-- Node1 -->
<g id="node1" class="node"><title>Node1</title>
<polygon fill="white" stroke="#bfbfbf" points="0,-239 0,-258 59,-258 59,-239 0,-239"/>
<text text-anchor="middle" x="29.5" y="-246" font-family="Helvetica,sans-Serif" font-size="10.00">exception</text>
</g>
<!-- Node2 -->
<g id="node2" class="node"><title>Node2</title>
<g id="a_node2"><a xlink:href="classsoftwarecontainer_1_1_config_error.html" target="_top" xlink:title="softwarecontainer::\lConfigError">
<polygon fill="white" stroke="black" points="104.5,-343.5 104.5,-373.5 204.5,-373.5 204.5,-343.5 104.5,-343.5"/>
<text text-anchor="start" x="112.5" y="-361.5" font-family="Helvetica,sans-Serif" font-size="10.00">softwarecontainer::</text>
<text text-anchor="middle" x="154.5" y="-350.5" font-family="Helvetica,sans-Serif" font-size="10.00">ConfigError</text>
</a>
</g>
</g>
<!-- Node1&#45;&gt;Node2 -->
<g id="edge1" class="edge"><title>Node1&#45;&gt;Node2</title>
<path fill="none" stroke="midnightblue" d="M49.0514,-265.091C72.8163,-286.344 113.668,-322.878 136.605,-343.391"/>
<polygon fill="midnightblue" stroke="midnightblue" points="51.2026,-262.319 41.4154,-258.262 46.5363,-267.537 51.2026,-262.319"/>
</g>
<!-- Node9 -->
<g id="node9" class="node"><title>Node9</title>
<g id="a_node9"><a xlink:href="classsoftwarecontainer_1_1_gateway_error.html" target="_top" xlink:title="softwarecontainer::\lGatewayError">
<polygon fill="white" stroke="black" points="104.5,-258.5 104.5,-288.5 204.5,-288.5 204.5,-258.5 104.5,-258.5"/>
<text text-anchor="start" x="112.5" y="-276.5" font-family="Helvetica,sans-Serif" font-size="10.00">softwarecontainer::</text>
<text text-anchor="middle" x="154.5" y="-265.5" font-family="Helvetica,sans-Serif" font-size="10.00">GatewayError</text>
</a>
</g>
</g>
<!-- Node1&#45;&gt;Node9 -->
<g id="edge8" class="edge"><title>Node1&#45;&gt;Node9</title>
<path fill="none" stroke="midnightblue" d="M68.9508,-256.315C80.1801,-258.598 92.608,-261.124 104.401,-263.521"/>
<polygon fill="midnightblue" stroke="midnightblue" points="69.5246,-252.86 59.0278,-254.298 68.1303,-259.72 69.5246,-252.86"/>
</g>
<!-- Node10 -->
<g id="node10" class="node"><title>Node10</title>
<g id="a_node10"><a xlink:href="classsoftwarecontainer_1_1_gateway_parser_error.html" target="_top" xlink:title="softwarecontainer::\lGatewayParserError">
<polygon fill="white" stroke="black" points="102,-209.5 102,-239.5 207,-239.5 207,-209.5 102,-209.5"/>
<text text-anchor="start" x="110" y="-227.5" font-family="Helvetica,sans-Serif" font-size="10.00">softwarecontainer::</text>
<text text-anchor="middle" x="154.5" y="-216.5" font-family="Helvetica,sans-Serif" font-size="10.00">GatewayParserError</text>
</a>
</g>
</g>
<!-- Node1&#45;&gt;Node10 -->
<g id="edge9" class="edge"><title>Node1&#45;&gt;Node10</title>
<path fill="none" stroke="midnightblue" d="M69.0594,-240.976C79.4877,-238.941 90.9432,-236.706 101.961,-234.556"/>
<polygon fill="midnightblue" stroke="midnightblue" points="68.1724,-237.583 59.0278,-242.934 69.5131,-244.454 68.1724,-237.583"/>
</g>
<!-- Node11 -->
<g id="node11" class="node"><title>Node11</title>
<g id="a_node11"><a xlink:href="classsoftwarecontainer_1_1_software_container_error.html" target="_top" xlink:title="softwarecontainer::\lSoftwareContainerError">
<polygon fill="white" stroke="black" points="95,-123.5 95,-153.5 214,-153.5 214,-123.5 95,-123.5"/>
<text text-anchor="start" x="103" y="-141.5" font-family="Helvetica,sans-Serif" font-size="10.00">softwarecontainer::</text>
<text text-anchor="middle" x="154.5" y="-130.5" font-family="Helvetica,sans-Serif" font-size="10.00">SoftwareContainerError</text>
</a>
</g>
</g>
<!-- Node1&#45;&gt;Node11 -->
<g id="edge10" class="edge"><title>Node1&#45;&gt;Node11</title>
<path fill="none" stroke="midnightblue" d="M49.0514,-231.909C72.8163,-210.656 113.668,-174.122 136.605,-153.609"/>
<polygon fill="midnightblue" stroke="midnightblue" points="46.5363,-229.463 41.4154,-238.738 51.2026,-234.681 46.5363,-229.463"/>
</g>
<!-- Node3 -->
<g id="node3" class="node"><title>Node3</title>
<g id="a_node3"><a xlink:href="classsoftwarecontainer_1_1_config_dependency_error.html" target="_top" xlink:title="softwarecontainer::\lConfigDependencyError">
<polygon fill="white" stroke="black" points="261.5,-490.5 261.5,-520.5 382.5,-520.5 382.5,-490.5 261.5,-490.5"/>
<text text-anchor="start" x="269.5" y="-508.5" font-family="Helvetica,sans-Serif" font-size="10.00">softwarecontainer::</text>
<text text-anchor="middle" x="322" y="-497.5" font-family="Helvetica,sans-Serif" font-size="10.00">ConfigDependencyError</text>
</a>
</g>
</g>
<!-- Node2&#45;&gt;Node3 -->
<g id="edge2" class="edge"><title>Node2&#45;&gt;Node3</title>
<path fill="none" stroke="midnightblue" d="M168.23,-382.696C183.944,-410.344 213.164,-455.156 250,-481.5 254.763,-484.906 260.045,-487.856 265.516,-490.406"/>
<polygon fill="midnightblue" stroke="midnightblue" points="171.15,-380.745 163.244,-373.691 165.026,-384.135 171.15,-380.745"/>
</g>
<!-- Node4 -->
<g id="node4" class="node"><title>Node4</title>
<g id="a_node4"><a xlink:href="classsoftwarecontainer_1_1_config_file_error.html" target="_top" xlink:title="An error occured in a Glib operation. ">
<polygon fill="white" stroke="black" points="272,-441.5 272,-471.5 372,-471.5 372,-441.5 272,-441.5"/>
<text text-anchor="start" x="280" y="-459.5" font-family="Helvetica,sans-Serif" font-size="10.00">softwarecontainer::</text>
<text text-anchor="middle" x="322" y="-448.5" font-family="Helvetica,sans-Serif" font-size="10.00">ConfigFileError</text>
</a>
</g>
</g>
<!-- Node2&#45;&gt;Node4 -->
<g id="edge3" class="edge"><title>Node2&#45;&gt;Node4</title>
<path fill="none" stroke="midnightblue" d="M179.124,-380.721C197.335,-396.884 223.765,-418.332 250,-432.5 256.869,-436.21 264.419,-439.499 271.952,-442.361"/>
<polygon fill="midnightblue" stroke="midnightblue" points="181.132,-377.818 171.365,-373.711 176.439,-383.012 181.132,-377.818"/>
</g>
<!-- Node5 -->
<g id="node5" class="node"><title>Node5</title>
<g id="a_node5"><a xlink:href="classsoftwarecontainer_1_1_config_internal_error.html" target="_top" xlink:title="An error occured which is an internal error in the config code. ">
<polygon fill="white" stroke="black" points="272,-392.5 272,-422.5 372,-422.5 372,-392.5 272,-392.5"/>
<text text-anchor="start" x="280" y="-410.5" font-family="Helvetica,sans-Serif" font-size="10.00">softwarecontainer::</text>
<text text-anchor="middle" x="322" y="-399.5" font-family="Helvetica,sans-Serif" font-size="10.00">ConfigInternalError</text>
</a>
</g>
</g>
<!-- Node2&#45;&gt;Node5 -->
<g id="edge4" class="edge"><title>Node2&#45;&gt;Node5</title>
<path fill="none" stroke="midnightblue" d="M214.381,-375.933C233.239,-381.516 253.906,-387.635 271.982,-392.987"/>
<polygon fill="midnightblue" stroke="midnightblue" points="215.29,-372.552 204.707,-373.069 213.302,-379.264 215.29,-372.552"/>
</g>
<!-- Node6 -->
<g id="node6" class="node"><title>Node6</title>
<g id="a_node6"><a xlink:href="classsoftwarecontainer_1_1_config_mandatory_error.html" target="_top" xlink:title="softwarecontainer::\lConfigMandatoryError">
<polygon fill="white" stroke="black" points="266,-343.5 266,-373.5 378,-373.5 378,-343.5 266,-343.5"/>
<text text-anchor="start" x="274" y="-361.5" font-family="Helvetica,sans-Serif" font-size="10.00">softwarecontainer::</text>
<text text-anchor="middle" x="322" y="-350.5" font-family="Helvetica,sans-Serif" font-size="10.00">ConfigMandatoryError</text>
</a>
</g>
</g>
<!-- Node2&#45;&gt;Node6 -->
<g id="edge5" class="edge"><title>Node2&#45;&gt;Node6</title>
<path fill="none" stroke="midnightblue" d="M214.863,-358.5C231.502,-358.5 249.516,-358.5 265.896,-358.5"/>
<polygon fill="midnightblue" stroke="midnightblue" points="214.707,-355 204.707,-358.5 214.707,-362 214.707,-355"/>
</g>
<!-- Node7 -->
<g id="node7" class="node"><title>Node7</title>
<g id="a_node7"><a xlink:href="classsoftwarecontainer_1_1_config_not_found_error.html" target="_top" xlink:title="A requested config item could not be found in any of the config sources. ">
<polygon fill="white" stroke="black" points="267.5,-294.5 267.5,-324.5 376.5,-324.5 376.5,-294.5 267.5,-294.5"/>
<text text-anchor="start" x="275.5" y="-312.5" font-family="Helvetica,sans-Serif" font-size="10.00">softwarecontainer::</text>
<text text-anchor="middle" x="322" y="-301.5" font-family="Helvetica,sans-Serif" font-size="10.00">ConfigNotFoundError</text>
</a>
</g>
</g>
<!-- Node2&#45;&gt;Node7 -->
<g id="edge6" class="edge"><title>Node2&#45;&gt;Node7</title>
<path fill="none" stroke="midnightblue" d="M214.368,-341.071C232.634,-335.663 252.598,-329.752 270.261,-324.522"/>
<polygon fill="midnightblue" stroke="midnightblue" points="213.302,-337.736 204.707,-343.931 215.29,-344.448 213.302,-337.736"/>
</g>
<!-- Node8 -->
<g id="node8" class="node"><title>Node8</title>
<g id="a_node8"><a xlink:href="classsoftwarecontainer_1_1_config_unknown_error.html" target="_top" xlink:title="A config is found which is not defined in ConfigDefinition. ">
<polygon fill="white" stroke="black" points="268.5,-245.5 268.5,-275.5 375.5,-275.5 375.5,-245.5 268.5,-245.5"/>
<text text-anchor="start" x="276.5" y="-263.5" font-family="Helvetica,sans-Serif" font-size="10.00">softwarecontainer::</text>
<text text-anchor="middle" x="322" y="-252.5" font-family="Helvetica,sans-Serif" font-size="10.00">ConfigUnknownError</text>
</a>
</g>
</g>
<!-- Node2&#45;&gt;Node8 -->
<g id="edge7" class="edge"><title>Node2&#45;&gt;Node8</title>
<path fill="none" stroke="midnightblue" d="M179.56,-336.405C197.811,-320.552 224.099,-299.587 250,-285.5 256.773,-281.816 264.196,-278.502 271.608,-275.584"/>
<polygon fill="midnightblue" stroke="midnightblue" points="176.948,-334.043 171.77,-343.286 181.582,-339.289 176.948,-334.043"/>
</g>
<!-- Node12 -->
<g id="node12" class="node"><title>Node12</title>
<g id="a_node12"><a xlink:href="classsoftwarecontainer_1_1_cgroups_gateway_error.html" target="_top" xlink:title="softwarecontainer::\lCgroupsGatewayError">
<polygon fill="white" stroke="black" points="265.5,-196.5 265.5,-226.5 378.5,-226.5 378.5,-196.5 265.5,-196.5"/>
<text text-anchor="start" x="273.5" y="-214.5" font-family="Helvetica,sans-Serif" font-size="10.00">softwarecontainer::</text>
<text text-anchor="middle" x="322" y="-203.5" font-family="Helvetica,sans-Serif" font-size="10.00">CgroupsGatewayError</text>
</a>
</g>
</g>
<!-- Node11&#45;&gt;Node12 -->
<g id="edge11" class="edge"><title>Node11&#45;&gt;Node12</title>
<path fill="none" stroke="midnightblue" d="M199.144,-157.751C226.537,-169.834 261.355,-185.191 286.752,-196.394"/>
<polygon fill="midnightblue" stroke="midnightblue" points="200.354,-154.459 189.792,-153.626 197.529,-160.864 200.354,-154.459"/>
</g>
<!-- Node16 -->
<g id="node16" class="node"><title>Node16</title>
<g id="a_node16"><a xlink:href="classsoftwarecontainer_1_1_config_store_error.html" target="_top" xlink:title="softwarecontainer::\lConfigStoreError">
<polygon fill="white" stroke="black" points="272,-123.5 272,-153.5 372,-153.5 372,-123.5 272,-123.5"/>
<text text-anchor="start" x="280" y="-141.5" font-family="Helvetica,sans-Serif" font-size="10.00">softwarecontainer::</text>
<text text-anchor="middle" x="322" y="-130.5" font-family="Helvetica,sans-Serif" font-size="10.00">ConfigStoreError</text>
</a>
</g>
</g>
<!-- Node11&#45;&gt;Node16 -->
<g id="edge15" class="edge"><title>Node11&#45;&gt;Node16</title>
<path fill="none" stroke="midnightblue" d="M224.632,-138.5C240.522,-138.5 257.101,-138.5 271.938,-138.5"/>
<polygon fill="midnightblue" stroke="midnightblue" points="224.315,-135 214.315,-138.5 224.315,-142 224.315,-135"/>
</g>
<!-- Node20 -->
<g id="node20" class="node"><title>Node20</title>
<g id="a_node20"><a xlink:href="classsoftwarecontainer_1_1_network_gateway_error.html" target="_top" xlink:title="softwarecontainer::\lNetworkGatewayError">
<polygon fill="white" stroke="black" points="265.5,-74.5 265.5,-104.5 378.5,-104.5 378.5,-74.5 265.5,-74.5"/>
<text text-anchor="start" x="273.5" y="-92.5" font-family="Helvetica,sans-Serif" font-size="10.00">softwarecontainer::</text>
<text text-anchor="middle" x="322" y="-81.5" font-family="Helvetica,sans-Serif" font-size="10.00">NetworkGatewayError</text>
</a>
</g>
</g>
<!-- Node11&#45;&gt;Node20 -->
<g id="edge19" class="edge"><title>Node11&#45;&gt;Node20</title>
<path fill="none" stroke="midnightblue" d="M216.184,-120.533C233.917,-115.283 253.108,-109.601 270.163,-104.552"/>
<polygon fill="midnightblue" stroke="midnightblue" points="215.101,-117.204 206.506,-123.399 217.088,-123.916 215.101,-117.204"/>
</g>
<!-- Node22 -->
<g id="node22" class="node"><title>Node22</title>
<g id="a_node22"><a xlink:href="classsoftwarecontainer_1_1_software_container_agent_error.html" target="_top" xlink:title="An error occured in SoftwareContainerAgent. ">
<polygon fill="white" stroke="black" points="250,-25.5 250,-55.5 394,-55.5 394,-25.5 250,-25.5"/>
<text text-anchor="start" x="258" y="-43.5" font-family="Helvetica,sans-Serif" font-size="10.00">softwarecontainer::</text>
<text text-anchor="middle" x="322" y="-32.5" font-family="Helvetica,sans-Serif" font-size="10.00">SoftwareContainerAgentError</text>
</a>
</g>
</g>
<!-- Node11&#45;&gt;Node22 -->
<g id="edge21" class="edge"><title>Node11&#45;&gt;Node22</title>
<path fill="none" stroke="midnightblue" d="M179.56,-116.405C197.811,-100.552 224.099,-79.5873 250,-65.5 256.773,-61.8161 264.196,-58.5023 271.608,-55.5837"/>
<polygon fill="midnightblue" stroke="midnightblue" points="176.948,-114.043 171.77,-123.286 181.582,-119.289 176.948,-114.043"/>
</g>
<!-- Node13 -->
<g id="node13" class="node"><title>Node13</title>
<g id="a_node13"><a xlink:href="classsoftwarecontainer_1_1_bad_suffix_error.html" target="_top" xlink:title="softwarecontainer::\lBadSuffixError">
<polygon fill="white" stroke="black" points="447,-294.5 447,-324.5 547,-324.5 547,-294.5 447,-294.5"/>
<text text-anchor="start" x="455" y="-312.5" font-family="Helvetica,sans-Serif" font-size="10.00">softwarecontainer::</text>
<text text-anchor="middle" x="497" y="-301.5" font-family="Helvetica,sans-Serif" font-size="10.00">BadSuffixError</text>
</a>
</g>
</g>
<!-- Node12&#45;&gt;Node13 -->
<g id="edge12" class="edge"><title>Node12&#45;&gt;Node13</title>
<path fill="none" stroke="midnightblue" d="M386.129,-231.334C388.868,-232.934 391.508,-234.653 394,-236.5 415.71,-252.592 408.373,-269.297 430,-285.5 435.074,-289.301 440.81,-292.549 446.729,-295.31"/>
<polygon fill="midnightblue" stroke="midnightblue" points="387.587,-228.147 377.102,-226.624 384.348,-234.353 387.587,-228.147"/>
</g>
<!-- Node14 -->
<g id="node14" class="node"><title>Node14</title>
<g id="a_node14"><a xlink:href="classsoftwarecontainer_1_1_j_son_error.html" target="_top" xlink:title="softwarecontainer::\lJSonError">
<polygon fill="white" stroke="black" points="447,-245.5 447,-275.5 547,-275.5 547,-245.5 447,-245.5"/>
<text text-anchor="start" x="455" y="-263.5" font-family="Helvetica,sans-Serif" font-size="10.00">softwarecontainer::</text>
<text text-anchor="middle" x="497" y="-252.5" font-family="Helvetica,sans-Serif" font-size="10.00">JSonError</text>
</a>
</g>
</g>
<!-- Node12&#45;&gt;Node14 -->
<g id="edge13" class="edge"><title>Node12&#45;&gt;Node14</title>
<path fill="none" stroke="midnightblue" d="M386.014,-229.348C406.109,-235.04 428.033,-241.249 446.983,-246.616"/>
<polygon fill="midnightblue" stroke="midnightblue" points="386.893,-225.959 376.317,-226.601 384.985,-232.694 386.893,-225.959"/>
</g>
<!-- Node15 -->
<g id="node15" class="node"><title>Node15</title>
<g id="a_node15"><a xlink:href="classsoftwarecontainer_1_1_limit_range_error.html" target="_top" xlink:title="softwarecontainer::\lLimitRangeError">
<polygon fill="white" stroke="black" points="447,-196.5 447,-226.5 547,-226.5 547,-196.5 447,-196.5"/>
<text text-anchor="start" x="455" y="-214.5" font-family="Helvetica,sans-Serif" font-size="10.00">softwarecontainer::</text>
<text text-anchor="middle" x="497" y="-203.5" font-family="Helvetica,sans-Serif" font-size="10.00">LimitRangeError</text>
</a>
</g>
</g>
<!-- Node12&#45;&gt;Node15 -->
<g id="edge14" class="edge"><title>Node12&#45;&gt;Node15</title>
<path fill="none" stroke="midnightblue" d="M388.9,-211.5C408.14,-211.5 428.823,-211.5 446.834,-211.5"/>
<polygon fill="midnightblue" stroke="midnightblue" points="388.691,-208 378.691,-211.5 388.691,-215 388.691,-208"/>
</g>
<!-- Node17 -->
<g id="node17" class="node"><title>Node17</title>
<g id="a_node17"><a xlink:href="classsoftwarecontainer_1_1_capability_parse_error.html" target="_top" xlink:title="An error occured in ConfigStore when parsing a Capability in a Service Manifest. ">
<polygon fill="white" stroke="black" points="443.5,-147.5 443.5,-177.5 550.5,-177.5 550.5,-147.5 443.5,-147.5"/>
<text text-anchor="start" x="451.5" y="-165.5" font-family="Helvetica,sans-Serif" font-size="10.00">softwarecontainer::</text>
<text text-anchor="middle" x="497" y="-154.5" font-family="Helvetica,sans-Serif" font-size="10.00">CapabilityParseError</text>
</a>
</g>
</g>
<!-- Node16&#45;&gt;Node17 -->
<g id="edge16" class="edge"><title>Node16&#45;&gt;Node17</title>
<path fill="none" stroke="midnightblue" d="M382.277,-146.723C402.137,-149.479 424.128,-152.529 443.437,-155.208"/>
<polygon fill="midnightblue" stroke="midnightblue" points="382.498,-143.221 372.112,-145.313 381.536,-150.154 382.498,-143.221"/>
</g>
<!-- Node18 -->
<g id="node18" class="node"><title>Node18</title>
<g id="a_node18"><a xlink:href="classsoftwarecontainer_1_1_service_manifest_parse_error.html" target="_top" xlink:title="An error occured in ConfigStore when parsing a Service Manifest. ">
<polygon fill="white" stroke="black" points="430,-98.5 430,-128.5 564,-128.5 564,-98.5 430,-98.5"/>
<text text-anchor="start" x="438" y="-116.5" font-family="Helvetica,sans-Serif" font-size="10.00">softwarecontainer::</text>
<text text-anchor="middle" x="497" y="-105.5" font-family="Helvetica,sans-Serif" font-size="10.00">ServiceManifestParseError</text>
</a>
</g>
</g>
<!-- Node16&#45;&gt;Node18 -->
<g id="edge17" class="edge"><title>Node16&#45;&gt;Node18</title>
<path fill="none" stroke="midnightblue" d="M382.04,-129.968C397.468,-127.739 414.197,-125.321 429.964,-123.043"/>
<polygon fill="midnightblue" stroke="midnightblue" points="381.509,-126.509 372.112,-131.403 382.51,-133.437 381.509,-126.509"/>
</g>
<!-- Node19 -->
<g id="node19" class="node"><title>Node19</title>
<g id="a_node19"><a xlink:href="classsoftwarecontainer_1_1_service_manifest_path_error.html" target="_top" xlink:title="An error occured in ConfigStore relating to the path to the Service Manifest(s) ">
<polygon fill="white" stroke="black" points="433,-49.5 433,-79.5 561,-79.5 561,-49.5 433,-49.5"/>
<text text-anchor="start" x="441" y="-67.5" font-family="Helvetica,sans-Serif" font-size="10.00">softwarecontainer::</text>
<text text-anchor="middle" x="497" y="-56.5" font-family="Helvetica,sans-Serif" font-size="10.00">ServiceManifestPathError</text>
</a>
</g>
</g>
<!-- Node16&#45;&gt;Node19 -->
<g id="edge18" class="edge"><title>Node16&#45;&gt;Node19</title>
<path fill="none" stroke="midnightblue" d="M381.62,-120.163C385.868,-118.386 390.036,-116.496 394,-114.5 411.398,-105.739 412.763,-98.5736 430,-89.5 436.831,-85.9044 444.297,-82.5644 451.671,-79.572"/>
<polygon fill="midnightblue" stroke="midnightblue" points="380.256,-116.939 372.244,-123.87 382.83,-123.449 380.256,-116.939"/>
</g>
<!-- Node21 -->
<g id="node21" class="node"><title>Node21</title>
<g id="a_node21"><a xlink:href="classsoftwarecontainer_1_1_i_p_allocation_error.html" target="_top" xlink:title="softwarecontainer::\lIPAllocationError">
<polygon fill="white" stroke="black" points="447,-0.5 447,-30.5 547,-30.5 547,-0.5 447,-0.5"/>
<text text-anchor="start" x="455" y="-18.5" font-family="Helvetica,sans-Serif" font-size="10.00">softwarecontainer::</text>
<text text-anchor="middle" x="497" y="-7.5" font-family="Helvetica,sans-Serif" font-size="10.00">IPAllocationError</text>
</a>
</g>
</g>
<!-- Node20&#45;&gt;Node21 -->
<g id="edge20" class="edge"><title>Node20&#45;&gt;Node21</title>
<path fill="none" stroke="midnightblue" d="M382.919,-70.6152C386.717,-68.999 390.441,-67.2921 394,-65.5 411.398,-56.7391 412.763,-49.5736 430,-40.5 436.831,-36.9044 444.297,-33.5644 451.671,-30.572"/>
<polygon fill="midnightblue" stroke="midnightblue" points="381.355,-67.4715 373.378,-74.4433 383.962,-73.9682 381.355,-67.4715"/>
</g>
</g>
</svg>
