<?xml version="1.0" encoding="UTF-8" standalone="no"?>
<!DOCTYPE svg PUBLIC "-//W3C//DTD SVG 1.1//EN"
 "http://www.w3.org/Graphics/SVG/1.1/DTD/svg11.dtd">
<!-- Generated by graphviz version 2.38.0 (20140413.2041)
 -->
<!-- Title: Graphical Class Hierarchy Pages: 1 -->
<svg width="432pt" height="578pt"
 viewBox="0.00 0.00 432.00 578.00" xmlns="http://www.w3.org/2000/svg" xmlns:xlink="http://www.w3.org/1999/xlink">
<g id="graph0" class="graph" transform="scale(1 1) rotate(0) translate(4 574)">
<title>Graphical Class Hierarchy</title>
<polygon fill="white" stroke="none" points="-4,4 -4,-574 428,-574 428,4 -4,4"/>
<!-- Node1 -->
<g id="node1" class="node"><title>Node1</title>
<g id="a_node1"><a xlink:href="classsoftwarecontainer_1_1_executable.html" target="_top" xlink:title="softwarecontainer::\lExecutable">
<polygon fill="white" stroke="black" points="0,-539.5 0,-569.5 100,-569.5 100,-539.5 0,-539.5"/>
<text text-anchor="start" x="8" y="-557.5" font-family="Helvetica,sans-Serif" font-size="10.00">softwarecontainer::</text>
<text text-anchor="middle" x="50" y="-546.5" font-family="Helvetica,sans-Serif" font-size="10.00">Executable</text>
</a>
</g>
</g>
<!-- Node2 -->
<g id="node2" class="node"><title>Node2</title>
<g id="a_node2"><a xlink:href="classsoftwarecontainer_1_1_container_abstract_interface.html" target="_top" xlink:title="softwarecontainer::\lContainerAbstractInterface">
<polygon fill="white" stroke="black" points="136,-539.5 136,-569.5 270,-569.5 270,-539.5 136,-539.5"/>
<text text-anchor="start" x="144" y="-557.5" font-family="Helvetica,sans-Serif" font-size="10.00">softwarecontainer::</text>
<text text-anchor="middle" x="203" y="-546.5" font-family="Helvetica,sans-Serif" font-size="10.00">ContainerAbstractInterface</text>
</a>
</g>
</g>
<!-- Node1&#45;&gt;Node2 -->
<g id="edge1" class="edge"><title>Node1&#45;&gt;Node2</title>
<path fill="none" stroke="midnightblue" d="M110.161,-554.5C118.611,-554.5 127.348,-554.5 135.921,-554.5"/>
<polygon fill="midnightblue" stroke="midnightblue" points="110.025,-551 100.025,-554.5 110.025,-558 110.025,-551"/>
</g>
<!-- Node3 -->
<g id="node3" class="node"><title>Node3</title>
<g id="a_node3"><a xlink:href="classsoftwarecontainer_1_1_container.html" target="_top" xlink:title="The Container class is an abstraction of the specific containment technology used. ">
<polygon fill="white" stroke="black" points="315,-539.5 315,-569.5 415,-569.5 415,-539.5 315,-539.5"/>
<text text-anchor="start" x="323" y="-557.5" font-family="Helvetica,sans-Serif" font-size="10.00">softwarecontainer::</text>
<text text-anchor="middle" x="365" y="-546.5" font-family="Helvetica,sans-Serif" font-size="10.00">Container</text>
</a>
</g>
</g>
<!-- Node2&#45;&gt;Node3 -->
<g id="edge2" class="edge"><title>Node2&#45;&gt;Node3</title>
<path fill="none" stroke="midnightblue" d="M280.261,-554.5C291.996,-554.5 303.838,-554.5 314.774,-554.5"/>
<polygon fill="midnightblue" stroke="midnightblue" points="280.002,-551 270.002,-554.5 280.002,-558 280.002,-551"/>
</g>
<!-- Node4 -->
<g id="node4" class="node"><title>Node4</title>
<g id="a_node4"><a xlink:href="classsoftwarecontainer_1_1_file_toolkit_with_undo.html" target="_top" xlink:title="softwarecontainer::\lFileToolkitWithUndo">
<polygon fill="white" stroke="black" points="150.5,-465.5 150.5,-495.5 255.5,-495.5 255.5,-465.5 150.5,-465.5"/>
<text text-anchor="start" x="158.5" y="-483.5" font-family="Helvetica,sans-Serif" font-size="10.00">softwarecontainer::</text>
<text text-anchor="middle" x="203" y="-472.5" font-family="Helvetica,sans-Serif" font-size="10.00">FileToolkitWithUndo</text>
</a>
</g>
</g>
<!-- Node4&#45;&gt;Node3 -->
<g id="edge3" class="edge"><title>Node4&#45;&gt;Node3</title>
<path fill="none" stroke="#8b1a1a" d="M242.861,-500.27C261.778,-509.708 284.934,-520.99 306,-530.5 312.655,-533.504 319.799,-536.58 326.72,-539.484"/>
<polygon fill="#8b1a1a" stroke="#8b1a1a" points="244.175,-497.013 233.667,-495.661 241.038,-503.271 244.175,-497.013"/>
</g>
<!-- Node5 -->
<g id="node5" class="node"><title>Node5</title>
<g id="a_node5"><a xlink:href="classsoftwarecontainer_1_1_device_node_gateway.html" target="_top" xlink:title="This gateway is responsible for exposing device nodes in an LXC container. ">
<polygon fill="white" stroke="black" points="310,-392.5 310,-422.5 420,-422.5 420,-392.5 310,-392.5"/>
<text text-anchor="start" x="318" y="-410.5" font-family="Helvetica,sans-Serif" font-size="10.00">softwarecontainer::</text>
<text text-anchor="middle" x="365" y="-399.5" font-family="Helvetica,sans-Serif" font-size="10.00">DeviceNodeGateway</text>
</a>
</g>
</g>
<!-- Node4&#45;&gt;Node5 -->
<g id="edge4" class="edge"><title>Node4&#45;&gt;Node5</title>
<path fill="none" stroke="midnightblue" d="M244.668,-460.988C263.295,-452.147 285.699,-441.649 306,-432.5 313.298,-429.211 321.15,-425.765 328.646,-422.519"/>
<polygon fill="midnightblue" stroke="midnightblue" points="243.105,-457.855 235.578,-465.312 246.112,-464.176 243.105,-457.855"/>
</g>
<!-- Node6 -->
<g id="node6" class="node"><title>Node6</title>
<g id="a_node6"><a xlink:href="classsoftwarecontainer_1_1_software_container.html" target="_top" xlink:title="softwarecontainer::\lSoftwareContainer">
<polygon fill="white" stroke="black" points="315,-490.5 315,-520.5 415,-520.5 415,-490.5 315,-490.5"/>
<text text-anchor="start" x="323" y="-508.5" font-family="Helvetica,sans-Serif" font-size="10.00">softwarecontainer::</text>
<text text-anchor="middle" x="365" y="-497.5" font-family="Helvetica,sans-Serif" font-size="10.00">SoftwareContainer</text>
</a>
</g>
</g>
<!-- Node4&#45;&gt;Node6 -->
<g id="edge5" class="edge"><title>Node4&#45;&gt;Node6</title>
<path fill="none" stroke="#8b1a1a" d="M265.496,-490.109C281.808,-492.658 299.206,-495.376 314.771,-497.808"/>
<polygon fill="#8b1a1a" stroke="#8b1a1a" points="265.926,-486.634 255.506,-488.548 264.845,-493.55 265.926,-486.634"/>
</g>
<!-- Node7 -->
<g id="node7" class="node"><title>Node7</title>
<g id="a_node7"><a xlink:href="classsoftwarecontainer_1_1_workspace.html" target="_top" xlink:title="Holds information about the container workspace. ">
<polygon fill="white" stroke="black" points="315,-441.5 315,-471.5 415,-471.5 415,-441.5 315,-441.5"/>
<text text-anchor="start" x="323" y="-459.5" font-family="Helvetica,sans-Serif" font-size="10.00">softwarecontainer::</text>
<text text-anchor="middle" x="365" y="-448.5" font-family="Helvetica,sans-Serif" font-size="10.00">Workspace</text>
</a>
</g>
</g>
<!-- Node4&#45;&gt;Node7 -->
<g id="edge6" class="edge"><title>Node4&#45;&gt;Node7</title>
<path fill="none" stroke="#8b1a1a" d="M265.496,-471.276C281.808,-468.829 299.206,-466.219 314.771,-463.884"/>
<polygon fill="#8b1a1a" stroke="#8b1a1a" points="264.876,-467.829 255.506,-472.774 265.914,-474.752 264.876,-467.829"/>
</g>
<!-- Node8 -->
<g id="node8" class="node"><title>Node8</title>
<g id="a_node8"><a xlink:href="classsoftwarecontainer_1_1_gateway.html" target="_top" xlink:title="Gateway base class for SoftwareContainer. ">
<polygon fill="white" stroke="black" points="153,-196.5 153,-226.5 253,-226.5 253,-196.5 153,-196.5"/>
<text text-anchor="start" x="161" y="-214.5" font-family="Helvetica,sans-Serif" font-size="10.00">softwarecontainer::</text>
<text text-anchor="middle" x="203" y="-203.5" font-family="Helvetica,sans-Serif" font-size="10.00">Gateway</text>
</a>
</g>
</g>
<!-- Node8&#45;&gt;Node5 -->
<g id="edge10" class="edge"><title>Node8&#45;&gt;Node5</title>
<path fill="none" stroke="midnightblue" d="M212.694,-235.997C226.873,-272.724 258.272,-342.149 306,-383.5 309.953,-386.925 314.463,-389.91 319.182,-392.498"/>
<polygon fill="midnightblue" stroke="midnightblue" points="215.942,-234.689 209.153,-226.556 209.388,-237.148 215.942,-234.689"/>
</g>
<!-- Node9 -->
<g id="node9" class="node"><title>Node9</title>
<g id="a_node9"><a xlink:href="classsoftwarecontainer_1_1_cgroups_gateway.html" target="_top" xlink:title="The cgroups gateway sets cgroups related settings for the container. ">
<polygon fill="white" stroke="black" points="315,-343.5 315,-373.5 415,-373.5 415,-343.5 315,-343.5"/>
<text text-anchor="start" x="323" y="-361.5" font-family="Helvetica,sans-Serif" font-size="10.00">softwarecontainer::</text>
<text text-anchor="middle" x="365" y="-350.5" font-family="Helvetica,sans-Serif" font-size="10.00">CgroupsGateway</text>
</a>
</g>
</g>
<!-- Node8&#45;&gt;Node9 -->
<g id="edge7" class="edge"><title>Node8&#45;&gt;Node9</title>
<path fill="none" stroke="midnightblue" d="M218.573,-235.301C236.281,-262.508 268.489,-306.838 306,-334.5 310.561,-337.863 315.662,-340.85 320.895,-343.475"/>
<polygon fill="midnightblue" stroke="midnightblue" points="221.465,-233.328 213.136,-226.78 215.564,-237.093 221.465,-233.328"/>
</g>
<!-- Node10 -->
<g id="node10" class="node"><title>Node10</title>
<g id="a_node10"><a xlink:href="classsoftwarecontainer_1_1_d_bus_gateway.html" target="_top" xlink:title="softwarecontainer::\lDBusGateway">
<polygon fill="white" stroke="black" points="315,-294.5 315,-324.5 415,-324.5 415,-294.5 315,-294.5"/>
<text text-anchor="start" x="323" y="-312.5" font-family="Helvetica,sans-Serif" font-size="10.00">softwarecontainer::</text>
<text text-anchor="middle" x="365" y="-301.5" font-family="Helvetica,sans-Serif" font-size="10.00">DBusGateway</text>
</a>
</g>
</g>
<!-- Node8&#45;&gt;Node10 -->
<g id="edge8" class="edge"><title>Node8&#45;&gt;Node10</title>
<path fill="none" stroke="midnightblue" d="M229.907,-232.933C249.869,-248.778 278.6,-270.174 306,-285.5 311.706,-288.692 317.924,-291.706 324.1,-294.45"/>
<polygon fill="midnightblue" stroke="midnightblue" points="231.907,-230.05 221.919,-226.516 227.523,-235.507 231.907,-230.05"/>
</g>
<!-- Node11 -->
<g id="node11" class="node"><title>Node11</title>
<g id="a_node11"><a xlink:href="classsoftwarecontainer_1_1_d_bus_gateway_instance.html" target="_top" xlink:title="DBus Gateway takes care of spawning and killing the DBus proxies. ">
<polygon fill="white" stroke="black" points="306,-245.5 306,-275.5 424,-275.5 424,-245.5 306,-245.5"/>
<text text-anchor="start" x="314" y="-263.5" font-family="Helvetica,sans-Serif" font-size="10.00">softwarecontainer::</text>
<text text-anchor="middle" x="365" y="-252.5" font-family="Helvetica,sans-Serif" font-size="10.00">DBusGatewayInstance</text>
</a>
</g>
</g>
<!-- Node8&#45;&gt;Node11 -->
<g id="edge9" class="edge"><title>Node8&#45;&gt;Node11</title>
<path fill="none" stroke="midnightblue" d="M263.144,-229.613C280.154,-234.822 298.516,-240.446 314.852,-245.448"/>
<polygon fill="midnightblue" stroke="midnightblue" points="263.897,-226.183 253.311,-226.601 261.848,-232.876 263.897,-226.183"/>
</g>
<!-- Node12 -->
<g id="node12" class="node"><title>Node12</title>
<g id="a_node12"><a xlink:href="classsoftwarecontainer_1_1_environment_gateway.html" target="_top" xlink:title="Environment Gateway is used to define environment variables to the container. ">
<polygon fill="white" stroke="black" points="310,-196.5 310,-226.5 420,-226.5 420,-196.5 310,-196.5"/>
<text text-anchor="start" x="318" y="-214.5" font-family="Helvetica,sans-Serif" font-size="10.00">softwarecontainer::</text>
<text text-anchor="middle" x="365" y="-203.5" font-family="Helvetica,sans-Serif" font-size="10.00">EnvironmentGateway</text>
</a>
</g>
</g>
<!-- Node8&#45;&gt;Node12 -->
<g id="edge11" class="edge"><title>Node8&#45;&gt;Node12</title>
<path fill="none" stroke="midnightblue" d="M263.608,-211.5C278.766,-211.5 294.969,-211.5 309.839,-211.5"/>
<polygon fill="midnightblue" stroke="midnightblue" points="263.311,-208 253.311,-211.5 263.311,-215 263.311,-208"/>
</g>
<!-- Node13 -->
<g id="node13" class="node"><title>Node13</title>
<g id="a_node13"><a xlink:href="classsoftwarecontainer_1_1_file_gateway.html" target="_top" xlink:title="This gateway lets you map files (including socket files) or folders from the host into the container&#39;...">
<polygon fill="white" stroke="black" points="315,-147.5 315,-177.5 415,-177.5 415,-147.5 315,-147.5"/>
<text text-anchor="start" x="323" y="-165.5" font-family="Helvetica,sans-Serif" font-size="10.00">softwarecontainer::</text>
<text text-anchor="middle" x="365" y="-154.5" font-family="Helvetica,sans-Serif" font-size="10.00">FileGateway</text>
</a>
</g>
</g>
<!-- Node8&#45;&gt;Node13 -->
<g id="edge12" class="edge"><title>Node8&#45;&gt;Node13</title>
<path fill="none" stroke="midnightblue" d="M263.144,-193.387C280.154,-188.178 298.516,-182.554 314.852,-177.552"/>
<polygon fill="midnightblue" stroke="midnightblue" points="261.848,-190.124 253.311,-196.399 263.897,-196.817 261.848,-190.124"/>
</g>
<!-- Node14 -->
<g id="node14" class="node"><title>Node14</title>
<g id="a_node14"><a xlink:href="classsoftwarecontainer_1_1_network_gateway.html" target="_top" xlink:title="Sets up and manages network access and routing to the container. ">
<polygon fill="white" stroke="black" points="315,-98.5 315,-128.5 415,-128.5 415,-98.5 315,-98.5"/>
<text text-anchor="start" x="323" y="-116.5" font-family="Helvetica,sans-Serif" font-size="10.00">softwarecontainer::</text>
<text text-anchor="middle" x="365" y="-105.5" font-family="Helvetica,sans-Serif" font-size="10.00">NetworkGateway</text>
</a>
</g>
</g>
<!-- Node8&#45;&gt;Node14 -->
<g id="edge13" class="edge"><title>Node8&#45;&gt;Node14</title>
<path fill="none" stroke="midnightblue" d="M230.754,-189.928C250.736,-174.43 279.122,-153.679 306,-138.5 312.206,-134.995 319,-131.659 325.683,-128.631"/>
<polygon fill="midnightblue" stroke="midnightblue" points="228.442,-187.293 222.733,-196.217 232.762,-192.801 228.442,-187.293"/>
</g>
<!-- Node15 -->
<g id="node15" class="node"><title>Node15</title>
<g id="a_node15"><a xlink:href="classsoftwarecontainer_1_1_pulse_gateway.html" target="_top" xlink:title="The PulseAudio Gateway is used to provide access to the host system PulseAudio server. ">
<polygon fill="white" stroke="black" points="315,-49.5 315,-79.5 415,-79.5 415,-49.5 315,-49.5"/>
<text text-anchor="start" x="323" y="-67.5" font-family="Helvetica,sans-Serif" font-size="10.00">softwarecontainer::</text>
<text text-anchor="middle" x="365" y="-56.5" font-family="Helvetica,sans-Serif" font-size="10.00">PulseGateway</text>
</a>
</g>
</g>
<!-- Node8&#45;&gt;Node15 -->
<g id="edge14" class="edge"><title>Node8&#45;&gt;Node15</title>
<path fill="none" stroke="midnightblue" d="M218.573,-187.699C236.281,-160.492 268.489,-116.162 306,-88.5 310.561,-85.1368 315.662,-82.1497 320.895,-79.5246"/>
<polygon fill="midnightblue" stroke="midnightblue" points="215.564,-185.907 213.136,-196.22 221.465,-189.672 215.564,-185.907"/>
</g>
<!-- Node16 -->
<g id="node16" class="node"><title>Node16</title>
<g id="a_node16"><a xlink:href="classsoftwarecontainer_1_1_wayland_gateway.html" target="_top" xlink:title="softwarecontainer::\lWaylandGateway">
<polygon fill="white" stroke="black" points="315,-0.5 315,-30.5 415,-30.5 415,-0.5 315,-0.5"/>
<text text-anchor="start" x="323" y="-18.5" font-family="Helvetica,sans-Serif" font-size="10.00">softwarecontainer::</text>
<text text-anchor="middle" x="365" y="-7.5" font-family="Helvetica,sans-Serif" font-size="10.00">WaylandGateway</text>
</a>
</g>
</g>
<!-- Node8&#45;&gt;Node16 -->
<g id="edge15" class="edge"><title>Node8&#45;&gt;Node16</title>
<path fill="none" stroke="midnightblue" d="M212.694,-187.003C226.873,-150.276 258.272,-80.8511 306,-39.5 309.953,-36.0748 314.463,-33.0903 319.182,-30.5017"/>
<polygon fill="midnightblue" stroke="midnightblue" points="209.388,-185.852 209.153,-196.444 215.942,-188.311 209.388,-185.852"/>
</g>
</g>
</svg>
