<?xml version="1.0" encoding="UTF-8" standalone="no"?>
<!DOCTYPE svg PUBLIC "-//W3C//DTD SVG 1.1//EN"
 "http://www.w3.org/Graphics/SVG/1.1/DTD/svg11.dtd">
<!-- Generated by graphviz version 2.38.0 (20140413.2041)
 -->
<!-- Title: Graphical Class Hierarchy Pages: 1 -->
<svg width="413pt" height="294pt"
 viewBox="0.00 0.00 413.00 294.00" xmlns="http://www.w3.org/2000/svg" xmlns:xlink="http://www.w3.org/1999/xlink">
<g id="graph0" class="graph" transform="scale(1 1) rotate(0) translate(4 290)">
<title>Graphical Class Hierarchy</title>
<polygon fill="white" stroke="none" points="-4,4 -4,-290 409,-290 409,4 -4,4"/>
<!-- Node1 -->
<g id="node1" class="node"><title>Node1</title>
<g id="a_node1"><a xlink:href="classsoftwarecontainer_1_1_j_s_o_n_parser.html" target="_top" xlink:title="Convenience layer for the Jansson JSON parser. ">
<polygon fill="white" stroke="black" points="0,-90 0,-120 100,-120 100,-90 0,-90"/>
<text text-anchor="start" x="8" y="-108" font-family="Helvetica,sans-Serif" font-size="10.00">softwarecontainer::</text>
<text text-anchor="middle" x="50" y="-97" font-family="Helvetica,sans-Serif" font-size="10.00">JSONParser</text>
</a>
</g>
</g>
<!-- Node2 -->
<g id="node2" class="node"><title>Node2</title>
<g id="a_node2"><a xlink:href="class_gateway.html" target="_top" xlink:title="Gateway base class for SoftwareContainer. ">
<polygon fill="white" stroke="black" points="169.5,-133.5 169.5,-152.5 225.5,-152.5 225.5,-133.5 169.5,-133.5"/>
<text text-anchor="middle" x="197.5" y="-140.5" font-family="Helvetica,sans-Serif" font-size="10.00">Gateway</text>
</a>
</g>
</g>
<!-- Node1&#45;&gt;Node2 -->
<g id="edge1" class="edge"><title>Node1&#45;&gt;Node2</title>
<path fill="none" stroke="darkgreen" d="M110.178,-120.455C130.687,-125.812 152.688,-131.558 169.346,-135.908"/>
<polygon fill="darkgreen" stroke="darkgreen" points="110.82,-117.006 100.26,-117.865 109.051,-123.778 110.82,-117.006"/>
</g>
<!-- Node11 -->
<g id="node11" class="node"><title>Node11</title>
<g id="a_node11"><a xlink:href="class_network_gateway_parser.html" target="_top" xlink:title="NetworkGatewayParser">
<polygon fill="white" stroke="black" points="137,-95.5 137,-114.5 258,-114.5 258,-95.5 137,-95.5"/>
<text text-anchor="middle" x="197.5" y="-102.5" font-family="Helvetica,sans-Serif" font-size="10.00">NetworkGatewayParser</text>
</a>
</g>
</g>
<!-- Node1&#45;&gt;Node11 -->
<g id="edge10" class="edge"><title>Node1&#45;&gt;Node11</title>
<path fill="none" stroke="darkgreen" d="M110.394,-105C119.159,-105 128.191,-105 136.959,-105"/>
<polygon fill="darkgreen" stroke="darkgreen" points="110.26,-101.5 100.26,-105 110.26,-108.5 110.26,-101.5"/>
</g>
<!-- Node12 -->
<g id="node12" class="node"><title>Node12</title>
<g id="a_node12"><a xlink:href="classsoftwarecontainer_1_1_software_container_agent.html" target="_top" xlink:title="A wrapper class. ">
<polygon fill="white" stroke="black" points="136,-46 136,-76 259,-76 259,-46 136,-46"/>
<text text-anchor="start" x="144" y="-64" font-family="Helvetica,sans-Serif" font-size="10.00">softwarecontainer::</text>
<text text-anchor="middle" x="197.5" y="-53" font-family="Helvetica,sans-Serif" font-size="10.00">SoftwareContainerAgent</text>
</a>
</g>
</g>
<!-- Node1&#45;&gt;Node12 -->
<g id="edge11" class="edge"><title>Node1&#45;&gt;Node12</title>
<path fill="none" stroke="darkgreen" d="M109.926,-87.1804C122.159,-83.4811 134.933,-79.6181 146.796,-76.0308"/>
<polygon fill="darkgreen" stroke="darkgreen" points="108.818,-83.8588 100.26,-90.1036 110.845,-90.5591 108.818,-83.8588"/>
</g>
<!-- Node3 -->
<g id="node3" class="node"><title>Node3</title>
<g id="a_node3"><a xlink:href="class_cgroups_gateway.html" target="_top" xlink:title="The cgroups gateway sets cgroups related settings for the container. ">
<polygon fill="white" stroke="black" points="304,-266.5 304,-285.5 396,-285.5 396,-266.5 304,-266.5"/>
<text text-anchor="middle" x="350" y="-273.5" font-family="Helvetica,sans-Serif" font-size="10.00">CgroupsGateway</text>
</a>
</g>
</g>
<!-- Node2&#45;&gt;Node3 -->
<g id="edge2" class="edge"><title>Node2&#45;&gt;Node3</title>
<path fill="none" stroke="midnightblue" d="M209.507,-161.283C225.42,-186.258 257.133,-230.908 295,-257 300.483,-260.778 306.795,-263.88 313.126,-266.401"/>
<polygon fill="midnightblue" stroke="midnightblue" points="212.456,-159.397 204.202,-152.754 206.512,-163.094 212.456,-159.397"/>
</g>
<!-- Node4 -->
<g id="node4" class="node"><title>Node4</title>
<g id="a_node4"><a xlink:href="class_d_bus_gateway.html" target="_top" xlink:title="DBus Gateway takes care of spawning and killing the DBus proxies. ">
<polygon fill="white" stroke="black" points="310,-228.5 310,-247.5 390,-247.5 390,-228.5 310,-228.5"/>
<text text-anchor="middle" x="350" y="-235.5" font-family="Helvetica,sans-Serif" font-size="10.00">DBusGateway</text>
</a>
</g>
</g>
<!-- Node2&#45;&gt;Node4 -->
<g id="edge3" class="edge"><title>Node2&#45;&gt;Node4</title>
<path fill="none" stroke="midnightblue" d="M215.725,-159.476C234.116,-176.334 264.723,-202.352 295,-219 301.619,-222.639 309.067,-225.792 316.269,-228.427"/>
<polygon fill="midnightblue" stroke="midnightblue" points="218.105,-156.91 208.403,-152.653 213.333,-162.031 218.105,-156.91"/>
</g>
<!-- Node5 -->
<g id="node5" class="node"><title>Node5</title>
<g id="a_node5"><a xlink:href="class_device_node_gateway.html" target="_top" xlink:title="This gateway is responsible for exposing device nodes in an LXC container. ">
<polygon fill="white" stroke="black" points="295,-190.5 295,-209.5 405,-209.5 405,-190.5 295,-190.5"/>
<text text-anchor="middle" x="350" y="-197.5" font-family="Helvetica,sans-Serif" font-size="10.00">DeviceNodeGateway</text>
</a>
</g>
</g>
<!-- Node2&#45;&gt;Node5 -->
<g id="edge4" class="edge"><title>Node2&#45;&gt;Node5</title>
<path fill="none" stroke="midnightblue" d="M231.677,-156.413C250.238,-163.829 273.833,-173.112 295,-181 303.475,-184.158 312.748,-187.472 321.181,-190.432"/>
<polygon fill="midnightblue" stroke="midnightblue" points="232.785,-153.087 222.201,-152.614 230.18,-159.584 232.785,-153.087"/>
</g>
<!-- Node6 -->
<g id="node6" class="node"><title>Node6</title>
<g id="a_node6"><a xlink:href="class_environment_gateway.html" target="_top" xlink:title="Environment Gateway is used to define environment variables to the container. ">
<polygon fill="white" stroke="black" points="295,-152.5 295,-171.5 405,-171.5 405,-152.5 295,-152.5"/>
<text text-anchor="middle" x="350" y="-159.5" font-family="Helvetica,sans-Serif" font-size="10.00">EnvironmentGateway</text>
</a>
</g>
</g>
<!-- Node2&#45;&gt;Node6 -->
<g id="edge5" class="edge"><title>Node2&#45;&gt;Node6</title>
<path fill="none" stroke="midnightblue" d="M235.753,-147.703C253.567,-149.952 275.232,-152.687 294.825,-155.161"/>
<polygon fill="midnightblue" stroke="midnightblue" points="236.114,-144.221 225.754,-146.441 235.237,-151.166 236.114,-144.221"/>
</g>
<!-- Node7 -->
<g id="node7" class="node"><title>Node7</title>
<g id="a_node7"><a xlink:href="class_file_gateway.html" target="_top" xlink:title="This gateway lets you map files (including socket files) or folders from the host into the container&#39;...">
<polygon fill="white" stroke="black" points="314.5,-114.5 314.5,-133.5 385.5,-133.5 385.5,-114.5 314.5,-114.5"/>
<text text-anchor="middle" x="350" y="-121.5" font-family="Helvetica,sans-Serif" font-size="10.00">FileGateway</text>
</a>
</g>
</g>
<!-- Node2&#45;&gt;Node7 -->
<g id="edge6" class="edge"><title>Node2&#45;&gt;Node7</title>
<path fill="none" stroke="midnightblue" d="M235.902,-138.278C259.891,-135.25 290.818,-131.345 314.266,-128.385"/>
<polygon fill="midnightblue" stroke="midnightblue" points="235.237,-134.834 225.754,-139.559 236.114,-141.779 235.237,-134.834"/>
</g>
<!-- Node8 -->
<g id="node8" class="node"><title>Node8</title>
<g id="a_node8"><a xlink:href="class_network_gateway.html" target="_top" xlink:title="Sets up and manages network access and routing to the container. ">
<polygon fill="white" stroke="black" points="304,-76.5 304,-95.5 396,-95.5 396,-76.5 304,-76.5"/>
<text text-anchor="middle" x="350" y="-83.5" font-family="Helvetica,sans-Serif" font-size="10.00">NetworkGateway</text>
</a>
</g>
</g>
<!-- Node2&#45;&gt;Node8 -->
<g id="edge7" class="edge"><title>Node2&#45;&gt;Node8</title>
<path fill="none" stroke="midnightblue" d="M235.41,-132.58C243.291,-130.031 251.498,-127.127 259,-124 275.699,-117.039 278.422,-112.244 295,-105 302.741,-101.617 311.294,-98.3864 319.268,-95.5793"/>
<polygon fill="midnightblue" stroke="midnightblue" points="234.187,-129.295 225.679,-135.609 236.267,-135.979 234.187,-129.295"/>
</g>
<!-- Node9 -->
<g id="node9" class="node"><title>Node9</title>
<g id="a_node9"><a xlink:href="class_pulse_gateway.html" target="_top" xlink:title="The PulseAudio Gateway is used to provide access to the host system PulseAudio server. ">
<polygon fill="white" stroke="black" points="310,-38.5 310,-57.5 390,-57.5 390,-38.5 310,-38.5"/>
<text text-anchor="middle" x="350" y="-45.5" font-family="Helvetica,sans-Serif" font-size="10.00">PulseGateway</text>
</a>
</g>
</g>
<!-- Node2&#45;&gt;Node9 -->
<g id="edge8" class="edge"><title>Node2&#45;&gt;Node9</title>
<path fill="none" stroke="midnightblue" d="M235.367,-135.925C243.694,-133.15 252.102,-129.308 259,-124 282.746,-105.727 271.568,-85.6746 295,-67 299.819,-63.1596 305.471,-60.065 311.27,-57.5801"/>
<polygon fill="midnightblue" stroke="midnightblue" points="234.357,-132.574 225.724,-138.716 236.303,-139.298 234.357,-132.574"/>
</g>
<!-- Node10 -->
<g id="node10" class="node"><title>Node10</title>
<g id="a_node10"><a xlink:href="class_wayland_gateway.html" target="_top" xlink:title="WaylandGateway">
<polygon fill="white" stroke="black" points="303,-0.5 303,-19.5 397,-19.5 397,-0.5 303,-0.5"/>
<text text-anchor="middle" x="350" y="-7.5" font-family="Helvetica,sans-Serif" font-size="10.00">WaylandGateway</text>
</a>
</g>
</g>
<!-- Node2&#45;&gt;Node10 -->
<g id="edge9" class="edge"><title>Node2&#45;&gt;Node10</title>
<path fill="none" stroke="midnightblue" d="M235.223,-137.197C243.846,-134.382 252.426,-130.204 259,-124 291.839,-93.0107 262.693,-60.5435 295,-29 298.982,-25.1119 303.806,-22.0157 308.913,-19.5509"/>
<polygon fill="midnightblue" stroke="midnightblue" points="234.299,-133.821 225.574,-139.83 236.142,-140.574 234.299,-133.821"/>
</g>
</g>
</svg>
