<?xml version="1.0" encoding="UTF-8" standalone="no"?>
<!DOCTYPE svg PUBLIC "-//W3C//DTD SVG 1.1//EN"
 "http://www.w3.org/Graphics/SVG/1.1/DTD/svg11.dtd">
<!-- Generated by graphviz version 2.38.0 (20140413.2041)
 -->
<!-- Title: Graphical Class Hierarchy Pages: 1 -->
<svg width="572pt" height="774pt"
 viewBox="0.00 0.00 572.00 774.00" xmlns="http://www.w3.org/2000/svg" xmlns:xlink="http://www.w3.org/1999/xlink">
<g id="graph0" class="graph" transform="scale(1 1) rotate(0) translate(4 770)">
<title>Graphical Class Hierarchy</title>
<polygon fill="white" stroke="none" points="-4,4 -4,-770 568,-770 568,4 -4,4"/>
<!-- Node1 -->
<g id="node1" class="node"><title>Node1</title>
<polygon fill="white" stroke="#bfbfbf" points="0,-251 0,-270 59,-270 59,-251 0,-251"/>
<text text-anchor="middle" x="29.5" y="-258" font-family="Helvetica,sans-Serif" font-size="10.00">exception</text>
</g>
<!-- Node2 -->
<g id="node2" class="node"><title>Node2</title>
<g id="a_node2"><a xlink:href="classsoftwarecontainer_1_1_gateway_error.html" target="_top" xlink:title="softwarecontainer::\lGatewayError">
<polygon fill="white" stroke="black" points="104.5,-294.5 104.5,-324.5 204.5,-324.5 204.5,-294.5 104.5,-294.5"/>
<text text-anchor="start" x="112.5" y="-312.5" font-family="Helvetica,sans-Serif" font-size="10.00">softwarecontainer::</text>
<text text-anchor="middle" x="154.5" y="-301.5" font-family="Helvetica,sans-Serif" font-size="10.00">GatewayError</text>
</a>
</g>
</g>
<!-- Node1&#45;&gt;Node2 -->
<g id="edge1" class="edge"><title>Node1&#45;&gt;Node2</title>
<path fill="none" stroke="midnightblue" d="M63.9652,-273.832C79.9017,-280.18 99.0336,-287.802 115.514,-294.367"/>
<polygon fill="midnightblue" stroke="midnightblue" points="65.0929,-270.513 54.5076,-270.064 62.5023,-277.016 65.0929,-270.513"/>
</g>
<!-- Node3 -->
<g id="node3" class="node"><title>Node3</title>
<g id="a_node3"><a xlink:href="classsoftwarecontainer_1_1_gateway_parser_error.html" target="_top" xlink:title="softwarecontainer::\lGatewayParserError">
<polygon fill="white" stroke="black" points="102,-245.5 102,-275.5 207,-275.5 207,-245.5 102,-245.5"/>
<text text-anchor="start" x="110" y="-263.5" font-family="Helvetica,sans-Serif" font-size="10.00">softwarecontainer::</text>
<text text-anchor="middle" x="154.5" y="-252.5" font-family="Helvetica,sans-Serif" font-size="10.00">GatewayParserError</text>
</a>
</g>
</g>
<!-- Node1&#45;&gt;Node3 -->
<g id="edge2" class="edge"><title>Node1&#45;&gt;Node3</title>
<path fill="none" stroke="midnightblue" d="M69.0594,-260.5C79.4877,-260.5 90.9432,-260.5 101.961,-260.5"/>
<polygon fill="midnightblue" stroke="midnightblue" points="69.0279,-257 59.0278,-260.5 69.0278,-264 69.0279,-257"/>
</g>
<!-- Node4 -->
<g id="node4" class="node"><title>Node4</title>
<g id="a_node4"><a xlink:href="classsoftwarecontainer_1_1_software_container_error.html" target="_top" xlink:title="softwarecontainer::\lSoftwareContainerError">
<polygon fill="white" stroke="black" points="95,-196.5 95,-226.5 214,-226.5 214,-196.5 95,-196.5"/>
<text text-anchor="start" x="103" y="-214.5" font-family="Helvetica,sans-Serif" font-size="10.00">softwarecontainer::</text>
<text text-anchor="middle" x="154.5" y="-203.5" font-family="Helvetica,sans-Serif" font-size="10.00">SoftwareContainerError</text>
</a>
</g>
</g>
<!-- Node1&#45;&gt;Node4 -->
<g id="edge3" class="edge"><title>Node1&#45;&gt;Node4</title>
<path fill="none" stroke="midnightblue" d="M63.9652,-247.168C79.9017,-240.82 99.0336,-233.198 115.514,-226.633"/>
<polygon fill="midnightblue" stroke="midnightblue" points="62.5023,-243.984 54.5076,-250.936 65.0929,-250.487 62.5023,-243.984"/>
</g>
<!-- Node5 -->
<g id="node5" class="node"><title>Node5</title>
<g id="a_node5"><a xlink:href="classsoftwarecontainer_1_1_cgroups_gateway_error.html" target="_top" xlink:title="softwarecontainer::\lCgroupsGatewayError">
<polygon fill="white" stroke="black" points="265.5,-661.5 265.5,-691.5 378.5,-691.5 378.5,-661.5 265.5,-661.5"/>
<text text-anchor="start" x="273.5" y="-679.5" font-family="Helvetica,sans-Serif" font-size="10.00">softwarecontainer::</text>
<text text-anchor="middle" x="322" y="-668.5" font-family="Helvetica,sans-Serif" font-size="10.00">CgroupsGatewayError</text>
</a>
</g>
</g>
<!-- Node4&#45;&gt;Node5 -->
<g id="edge4" class="edge"><title>Node4&#45;&gt;Node5</title>
<path fill="none" stroke="midnightblue" d="M211.022,-233.059C212.077,-234.151 213.073,-235.297 214,-236.5 281.166,-323.686 223.034,-374.797 250,-481.5 267.39,-550.312 300.061,-628.693 314.196,-661.167"/>
<polygon fill="midnightblue" stroke="midnightblue" points="213.227,-230.341 203.308,-226.618 208.74,-235.714 213.227,-230.341"/>
</g>
<!-- Node9 -->
<g id="node9" class="node"><title>Node9</title>
<g id="a_node9"><a xlink:href="classsoftwarecontainer_1_1_config_error.html" target="_top" xlink:title="softwarecontainer::\lConfigError">
<polygon fill="white" stroke="black" points="272,-441.5 272,-471.5 372,-471.5 372,-441.5 272,-441.5"/>
<text text-anchor="start" x="280" y="-459.5" font-family="Helvetica,sans-Serif" font-size="10.00">softwarecontainer::</text>
<text text-anchor="middle" x="322" y="-448.5" font-family="Helvetica,sans-Serif" font-size="10.00">ConfigError</text>
</a>
</g>
</g>
<!-- Node4&#45;&gt;Node9 -->
<g id="edge8" class="edge"><title>Node4&#45;&gt;Node9</title>
<path fill="none" stroke="midnightblue" d="M209.624,-232.408C211.166,-233.696 212.631,-235.058 214,-236.5 245.95,-270.15 230.255,-292.509 250,-334.5 268.771,-374.418 296.246,-418.516 310.906,-441.181"/>
<polygon fill="midnightblue" stroke="midnightblue" points="211.559,-229.49 201.372,-226.579 207.52,-235.207 211.559,-229.49"/>
</g>
<!-- Node16 -->
<g id="node16" class="node"><title>Node16</title>
<g id="a_node16"><a xlink:href="classsoftwarecontainer_1_1_config_store_error.html" target="_top" xlink:title="softwarecontainer::\lConfigStoreError">
<polygon fill="white" stroke="black" points="272,-294.5 272,-324.5 372,-324.5 372,-294.5 272,-294.5"/>
<text text-anchor="start" x="280" y="-312.5" font-family="Helvetica,sans-Serif" font-size="10.00">softwarecontainer::</text>
<text text-anchor="middle" x="322" y="-301.5" font-family="Helvetica,sans-Serif" font-size="10.00">ConfigStoreError</text>
</a>
</g>
</g>
<!-- Node4&#45;&gt;Node16 -->
<g id="edge15" class="edge"><title>Node4&#45;&gt;Node16</title>
<path fill="none" stroke="midnightblue" d="M207.419,-231.812C209.71,-233.287 211.918,-234.849 214,-236.5 235.173,-253.292 228.189,-269.545 250,-285.5 256.511,-290.263 264.033,-294.127 271.694,-297.247"/>
<polygon fill="midnightblue" stroke="midnightblue" points="208.672,-228.496 198.257,-226.553 205.187,-234.567 208.672,-228.496"/>
</g>
<!-- Node20 -->
<g id="node20" class="node"><title>Node20</title>
<g id="a_node20"><a xlink:href="classsoftwarecontainer_1_1_container_error.html" target="_top" xlink:title="An error has occured in the underlying container implementation. ">
<polygon fill="white" stroke="black" points="272,-245.5 272,-275.5 372,-275.5 372,-245.5 272,-245.5"/>
<text text-anchor="start" x="280" y="-263.5" font-family="Helvetica,sans-Serif" font-size="10.00">softwarecontainer::</text>
<text text-anchor="middle" x="322" y="-252.5" font-family="Helvetica,sans-Serif" font-size="10.00">ContainerError</text>
</a>
</g>
</g>
<!-- Node4&#45;&gt;Node20 -->
<g id="edge19" class="edge"><title>Node4&#45;&gt;Node20</title>
<path fill="none" stroke="midnightblue" d="M216.209,-229.474C234.526,-234.898 254.398,-240.781 271.863,-245.952"/>
<polygon fill="midnightblue" stroke="midnightblue" points="217.088,-226.084 206.506,-226.601 215.101,-232.796 217.088,-226.084"/>
</g>
<!-- Node21 -->
<g id="node21" class="node"><title>Node21</title>
<g id="a_node21"><a xlink:href="classsoftwarecontainer_1_1_container_option_parse_error.html" target="_top" xlink:title="softwarecontainer::\lContainerOptionParseError">
<polygon fill="white" stroke="black" points="255,-196.5 255,-226.5 389,-226.5 389,-196.5 255,-196.5"/>
<text text-anchor="start" x="263" y="-214.5" font-family="Helvetica,sans-Serif" font-size="10.00">softwarecontainer::</text>
<text text-anchor="middle" x="322" y="-203.5" font-family="Helvetica,sans-Serif" font-size="10.00">ContainerOptionParseError</text>
</a>
</g>
</g>
<!-- Node4&#45;&gt;Node21 -->
<g id="edge20" class="edge"><title>Node4&#45;&gt;Node21</title>
<path fill="none" stroke="midnightblue" d="M224.597,-211.5C234.582,-211.5 244.84,-211.5 254.767,-211.5"/>
<polygon fill="midnightblue" stroke="midnightblue" points="224.315,-208 214.315,-211.5 224.315,-215 224.315,-208"/>
</g>
<!-- Node22 -->
<g id="node22" class="node"><title>Node22</title>
<g id="a_node22"><a xlink:href="classsoftwarecontainer_1_1_invalid_container_error.html" target="_top" xlink:title="The container instance is in an invalid state and should not be used. ">
<polygon fill="white" stroke="black" points="268,-147.5 268,-177.5 376,-177.5 376,-147.5 268,-147.5"/>
<text text-anchor="start" x="276" y="-165.5" font-family="Helvetica,sans-Serif" font-size="10.00">softwarecontainer::</text>
<text text-anchor="middle" x="322" y="-154.5" font-family="Helvetica,sans-Serif" font-size="10.00">InvalidContainerError</text>
</a>
</g>
</g>
<!-- Node4&#45;&gt;Node22 -->
<g id="edge21" class="edge"><title>Node4&#45;&gt;Node22</title>
<path fill="none" stroke="midnightblue" d="M216.184,-193.533C233.917,-188.283 253.108,-182.601 270.163,-177.552"/>
<polygon fill="midnightblue" stroke="midnightblue" points="215.101,-190.204 206.506,-196.399 217.088,-196.916 215.101,-190.204"/>
</g>
<!-- Node23 -->
<g id="node23" class="node"><title>Node23</title>
<g id="a_node23"><a xlink:href="classsoftwarecontainer_1_1_invalid_operation_error.html" target="_top" xlink:title="A method was called which is inappropriate in the current state. ">
<polygon fill="white" stroke="black" points="268,-98.5 268,-128.5 376,-128.5 376,-98.5 268,-98.5"/>
<text text-anchor="start" x="276" y="-116.5" font-family="Helvetica,sans-Serif" font-size="10.00">softwarecontainer::</text>
<text text-anchor="middle" x="322" y="-105.5" font-family="Helvetica,sans-Serif" font-size="10.00">InvalidOperationError</text>
</a>
</g>
</g>
<!-- Node4&#45;&gt;Node23 -->
<g id="edge22" class="edge"><title>Node4&#45;&gt;Node23</title>
<path fill="none" stroke="midnightblue" d="M179.56,-189.405C197.811,-173.552 224.099,-152.587 250,-138.5 256.773,-134.816 264.196,-131.502 271.608,-128.584"/>
<polygon fill="midnightblue" stroke="midnightblue" points="176.948,-187.043 171.77,-196.286 181.582,-192.289 176.948,-187.043"/>
</g>
<!-- Node24 -->
<g id="node24" class="node"><title>Node24</title>
<g id="a_node24"><a xlink:href="classsoftwarecontainer_1_1_network_gateway_error.html" target="_top" xlink:title="softwarecontainer::\lNetworkGatewayError">
<polygon fill="white" stroke="black" points="265.5,-49.5 265.5,-79.5 378.5,-79.5 378.5,-49.5 265.5,-49.5"/>
<text text-anchor="start" x="273.5" y="-67.5" font-family="Helvetica,sans-Serif" font-size="10.00">softwarecontainer::</text>
<text text-anchor="middle" x="322" y="-56.5" font-family="Helvetica,sans-Serif" font-size="10.00">NetworkGatewayError</text>
</a>
</g>
</g>
<!-- Node4&#45;&gt;Node24 -->
<g id="edge23" class="edge"><title>Node4&#45;&gt;Node24</title>
<path fill="none" stroke="midnightblue" d="M168.336,-187.584C184.15,-160.241 213.465,-115.867 250,-89.5 255.298,-85.6761 261.235,-82.3923 267.36,-79.5834"/>
<polygon fill="midnightblue" stroke="midnightblue" points="165.178,-186.059 163.316,-196.488 171.276,-189.497 165.178,-186.059"/>
</g>
<!-- Node26 -->
<g id="node26" class="node"><title>Node26</title>
<g id="a_node26"><a xlink:href="classsoftwarecontainer_1_1_software_container_agent_error.html" target="_top" xlink:title="An error occured in SoftwareContainerAgent. ">
<polygon fill="white" stroke="black" points="250,-0.5 250,-30.5 394,-30.5 394,-0.5 250,-0.5"/>
<text text-anchor="start" x="258" y="-18.5" font-family="Helvetica,sans-Serif" font-size="10.00">softwarecontainer::</text>
<text text-anchor="middle" x="322" y="-7.5" font-family="Helvetica,sans-Serif" font-size="10.00">SoftwareContainerAgentError</text>
</a>
</g>
</g>
<!-- Node4&#45;&gt;Node26 -->
<g id="edge25" class="edge"><title>Node4&#45;&gt;Node26</title>
<path fill="none" stroke="midnightblue" d="M162.636,-186.891C174.644,-149.726 202.367,-79.3918 250,-39.5 254.09,-36.0748 258.691,-33.1311 263.534,-30.6025"/>
<polygon fill="midnightblue" stroke="midnightblue" points="159.294,-185.853 159.662,-196.441 165.977,-187.934 159.294,-185.853"/>
</g>
<!-- Node6 -->
<g id="node6" class="node"><title>Node6</title>
<g id="a_node6"><a xlink:href="classsoftwarecontainer_1_1_bad_suffix_error.html" target="_top" xlink:title="softwarecontainer::\lBadSuffixError">
<polygon fill="white" stroke="black" points="447,-735.5 447,-765.5 547,-765.5 547,-735.5 447,-735.5"/>
<text text-anchor="start" x="455" y="-753.5" font-family="Helvetica,sans-Serif" font-size="10.00">softwarecontainer::</text>
<text text-anchor="middle" x="497" y="-742.5" font-family="Helvetica,sans-Serif" font-size="10.00">BadSuffixError</text>
</a>
</g>
</g>
<!-- Node5&#45;&gt;Node6 -->
<g id="edge5" class="edge"><title>Node5&#45;&gt;Node6</title>
<path fill="none" stroke="midnightblue" d="M362.7,-696.073C382.699,-705.67 407.434,-717.146 430,-726.5 437.321,-729.535 445.179,-732.576 452.83,-735.424"/>
<polygon fill="midnightblue" stroke="midnightblue" points="364.109,-692.866 353.582,-691.67 361.065,-699.17 364.109,-692.866"/>
</g>
<!-- Node7 -->
<g id="node7" class="node"><title>Node7</title>
<g id="a_node7"><a xlink:href="classsoftwarecontainer_1_1_j_son_error.html" target="_top" xlink:title="softwarecontainer::\lJSonError">
<polygon fill="white" stroke="black" points="447,-686.5 447,-716.5 547,-716.5 547,-686.5 447,-686.5"/>
<text text-anchor="start" x="455" y="-704.5" font-family="Helvetica,sans-Serif" font-size="10.00">softwarecontainer::</text>
<text text-anchor="middle" x="497" y="-693.5" font-family="Helvetica,sans-Serif" font-size="10.00">JSonError</text>
</a>
</g>
</g>
<!-- Node5&#45;&gt;Node7 -->
<g id="edge6" class="edge"><title>Node5&#45;&gt;Node7</title>
<path fill="none" stroke="midnightblue" d="M388.634,-685.985C407.949,-688.776 428.74,-691.78 446.834,-694.395"/>
<polygon fill="midnightblue" stroke="midnightblue" points="389.088,-682.514 378.691,-684.548 388.087,-689.442 389.088,-682.514"/>
</g>
<!-- Node8 -->
<g id="node8" class="node"><title>Node8</title>
<g id="a_node8"><a xlink:href="classsoftwarecontainer_1_1_limit_range_error.html" target="_top" xlink:title="softwarecontainer::\lLimitRangeError">
<polygon fill="white" stroke="black" points="447,-637.5 447,-667.5 547,-667.5 547,-637.5 447,-637.5"/>
<text text-anchor="start" x="455" y="-655.5" font-family="Helvetica,sans-Serif" font-size="10.00">softwarecontainer::</text>
<text text-anchor="middle" x="497" y="-644.5" font-family="Helvetica,sans-Serif" font-size="10.00">LimitRangeError</text>
</a>
</g>
</g>
<!-- Node5&#45;&gt;Node8 -->
<g id="edge7" class="edge"><title>Node5&#45;&gt;Node8</title>
<path fill="none" stroke="midnightblue" d="M388.634,-667.395C407.949,-664.715 428.74,-661.831 446.834,-659.321"/>
<polygon fill="midnightblue" stroke="midnightblue" points="388.115,-663.933 378.691,-668.774 389.077,-670.867 388.115,-663.933"/>
</g>
<!-- Node10 -->
<g id="node10" class="node"><title>Node10</title>
<g id="a_node10"><a xlink:href="classsoftwarecontainer_1_1_config_dependency_error.html" target="_top" xlink:title="softwarecontainer::\lConfigDependencyError">
<polygon fill="white" stroke="black" points="436.5,-588.5 436.5,-618.5 557.5,-618.5 557.5,-588.5 436.5,-588.5"/>
<text text-anchor="start" x="444.5" y="-606.5" font-family="Helvetica,sans-Serif" font-size="10.00">softwarecontainer::</text>
<text text-anchor="middle" x="497" y="-595.5" font-family="Helvetica,sans-Serif" font-size="10.00">ConfigDependencyError</text>
</a>
</g>
</g>
<!-- Node9&#45;&gt;Node10 -->
<g id="edge9" class="edge"><title>Node9&#45;&gt;Node10</title>
<path fill="none" stroke="midnightblue" d="M338.043,-480.125C356.607,-507.54 390.593,-552.435 430,-579.5 434.925,-582.882 440.382,-585.849 445.988,-588.435"/>
<polygon fill="midnightblue" stroke="midnightblue" points="340.799,-477.947 332.354,-471.549 334.966,-481.816 340.799,-477.947"/>
</g>
<!-- Node11 -->
<g id="node11" class="node"><title>Node11</title>
<g id="a_node11"><a xlink:href="classsoftwarecontainer_1_1_config_file_error.html" target="_top" xlink:title="An error occured in a Glib operation. ">
<polygon fill="white" stroke="black" points="447,-539.5 447,-569.5 547,-569.5 547,-539.5 447,-539.5"/>
<text text-anchor="start" x="455" y="-557.5" font-family="Helvetica,sans-Serif" font-size="10.00">softwarecontainer::</text>
<text text-anchor="middle" x="497" y="-546.5" font-family="Helvetica,sans-Serif" font-size="10.00">ConfigFileError</text>
</a>
</g>
</g>
<!-- Node9&#45;&gt;Node11 -->
<g id="edge10" class="edge"><title>Node9&#45;&gt;Node11</title>
<path fill="none" stroke="midnightblue" d="M349.868,-477.979C370.802,-493.98 401.077,-515.556 430,-530.5 436.283,-533.746 443.106,-536.753 449.903,-539.463"/>
<polygon fill="midnightblue" stroke="midnightblue" points="351.825,-475.068 341.775,-471.714 347.54,-480.603 351.825,-475.068"/>
</g>
<!-- Node12 -->
<g id="node12" class="node"><title>Node12</title>
<g id="a_node12"><a xlink:href="classsoftwarecontainer_1_1_config_internal_error.html" target="_top" xlink:title="An error occured which is an internal error in the config code. ">
<polygon fill="white" stroke="black" points="447,-490.5 447,-520.5 547,-520.5 547,-490.5 447,-490.5"/>
<text text-anchor="start" x="455" y="-508.5" font-family="Helvetica,sans-Serif" font-size="10.00">softwarecontainer::</text>
<text text-anchor="middle" x="497" y="-497.5" font-family="Helvetica,sans-Serif" font-size="10.00">ConfigInternalError</text>
</a>
</g>
</g>
<!-- Node9&#45;&gt;Node12 -->
<g id="edge11" class="edge"><title>Node9&#45;&gt;Node12</title>
<path fill="none" stroke="midnightblue" d="M381.93,-473.191C403.029,-479.167 426.572,-485.835 446.765,-491.555"/>
<polygon fill="midnightblue" stroke="midnightblue" points="382.687,-469.768 372.112,-470.41 380.78,-476.503 382.687,-469.768"/>
</g>
<!-- Node13 -->
<g id="node13" class="node"><title>Node13</title>
<g id="a_node13"><a xlink:href="classsoftwarecontainer_1_1_config_mandatory_error.html" target="_top" xlink:title="softwarecontainer::\lConfigMandatoryError">
<polygon fill="white" stroke="black" points="441,-441.5 441,-471.5 553,-471.5 553,-441.5 441,-441.5"/>
<text text-anchor="start" x="449" y="-459.5" font-family="Helvetica,sans-Serif" font-size="10.00">softwarecontainer::</text>
<text text-anchor="middle" x="497" y="-448.5" font-family="Helvetica,sans-Serif" font-size="10.00">ConfigMandatoryError</text>
</a>
</g>
</g>
<!-- Node9&#45;&gt;Node13 -->
<g id="edge12" class="edge"><title>Node9&#45;&gt;Node13</title>
<path fill="none" stroke="midnightblue" d="M382.168,-456.5C401.22,-456.5 422.243,-456.5 440.983,-456.5"/>
<polygon fill="midnightblue" stroke="midnightblue" points="382.112,-453 372.112,-456.5 382.112,-460 382.112,-453"/>
</g>
<!-- Node14 -->
<g id="node14" class="node"><title>Node14</title>
<g id="a_node14"><a xlink:href="classsoftwarecontainer_1_1_config_not_found_error.html" target="_top" xlink:title="A requested config item could not be found in any of the config sources. ">
<polygon fill="white" stroke="black" points="442.5,-392.5 442.5,-422.5 551.5,-422.5 551.5,-392.5 442.5,-392.5"/>
<text text-anchor="start" x="450.5" y="-410.5" font-family="Helvetica,sans-Serif" font-size="10.00">softwarecontainer::</text>
<text text-anchor="middle" x="497" y="-399.5" font-family="Helvetica,sans-Serif" font-size="10.00">ConfigNotFoundError</text>
</a>
</g>
</g>
<!-- Node9&#45;&gt;Node14 -->
<g id="edge13" class="edge"><title>Node9&#45;&gt;Node14</title>
<path fill="none" stroke="midnightblue" d="M381.914,-439.813C401.659,-434.221 423.547,-428.021 442.826,-422.561"/>
<polygon fill="midnightblue" stroke="midnightblue" points="380.78,-436.497 372.112,-442.59 382.687,-443.232 380.78,-436.497"/>
</g>
<!-- Node15 -->
<g id="node15" class="node"><title>Node15</title>
<g id="a_node15"><a xlink:href="classsoftwarecontainer_1_1_config_unknown_error.html" target="_top" xlink:title="A config is found which is not defined in ConfigDefinition. ">
<polygon fill="white" stroke="black" points="443.5,-343.5 443.5,-373.5 550.5,-373.5 550.5,-343.5 443.5,-343.5"/>
<text text-anchor="start" x="451.5" y="-361.5" font-family="Helvetica,sans-Serif" font-size="10.00">softwarecontainer::</text>
<text text-anchor="middle" x="497" y="-350.5" font-family="Helvetica,sans-Serif" font-size="10.00">ConfigUnknownError</text>
</a>
</g>
</g>
<!-- Node9&#45;&gt;Node15 -->
<g id="edge14" class="edge"><title>Node9&#45;&gt;Node15</title>
<path fill="none" stroke="midnightblue" d="M350.355,-435.159C371.327,-419.475 401.43,-398.388 430,-383.5 436.846,-379.933 444.319,-376.607 451.696,-373.62"/>
<polygon fill="midnightblue" stroke="midnightblue" points="348.096,-432.479 342.234,-441.304 352.32,-438.061 348.096,-432.479"/>
</g>
<!-- Node17 -->
<g id="node17" class="node"><title>Node17</title>
<g id="a_node17"><a xlink:href="classsoftwarecontainer_1_1_capability_parse_error.html" target="_top" xlink:title="An error occured in ConfigStore when parsing a Capability in a Service Manifest. ">
<polygon fill="white" stroke="black" points="443.5,-294.5 443.5,-324.5 550.5,-324.5 550.5,-294.5 443.5,-294.5"/>
<text text-anchor="start" x="451.5" y="-312.5" font-family="Helvetica,sans-Serif" font-size="10.00">softwarecontainer::</text>
<text text-anchor="middle" x="497" y="-301.5" font-family="Helvetica,sans-Serif" font-size="10.00">CapabilityParseError</text>
</a>
</g>
</g>
<!-- Node16&#45;&gt;Node17 -->
<g id="edge16" class="edge"><title>Node16&#45;&gt;Node17</title>
<path fill="none" stroke="midnightblue" d="M382.277,-309.5C402.137,-309.5 424.128,-309.5 443.437,-309.5"/>
<polygon fill="midnightblue" stroke="midnightblue" points="382.112,-306 372.112,-309.5 382.112,-313 382.112,-306"/>
</g>
<!-- Node18 -->
<g id="node18" class="node"><title>Node18</title>
<g id="a_node18"><a xlink:href="classsoftwarecontainer_1_1_service_manifest_parse_error.html" target="_top" xlink:title="An error occured in ConfigStore when parsing a Service Manifest. ">
<polygon fill="white" stroke="black" points="430,-245.5 430,-275.5 564,-275.5 564,-245.5 430,-245.5"/>
<text text-anchor="start" x="438" y="-263.5" font-family="Helvetica,sans-Serif" font-size="10.00">softwarecontainer::</text>
<text text-anchor="middle" x="497" y="-252.5" font-family="Helvetica,sans-Serif" font-size="10.00">ServiceManifestParseError</text>
</a>
</g>
</g>
<!-- Node16&#45;&gt;Node18 -->
<g id="edge17" class="edge"><title>Node16&#45;&gt;Node18</title>
<path fill="none" stroke="midnightblue" d="M381.914,-292.813C401.659,-287.221 423.547,-281.021 442.826,-275.561"/>
<polygon fill="midnightblue" stroke="midnightblue" points="380.78,-289.497 372.112,-295.59 382.687,-296.232 380.78,-289.497"/>
</g>
<!-- Node19 -->
<g id="node19" class="node"><title>Node19</title>
<g id="a_node19"><a xlink:href="classsoftwarecontainer_1_1_service_manifest_path_error.html" target="_top" xlink:title="An error occured in ConfigStore relating to the path to the Service Manifest(s) ">
<polygon fill="white" stroke="black" points="433,-196.5 433,-226.5 561,-226.5 561,-196.5 433,-196.5"/>
<text text-anchor="start" x="441" y="-214.5" font-family="Helvetica,sans-Serif" font-size="10.00">softwarecontainer::</text>
<text text-anchor="middle" x="497" y="-203.5" font-family="Helvetica,sans-Serif" font-size="10.00">ServiceManifestPathError</text>
</a>
</g>
</g>
<!-- Node16&#45;&gt;Node19 -->
<g id="edge18" class="edge"><title>Node16&#45;&gt;Node19</title>
<path fill="none" stroke="midnightblue" d="M381.516,-293.066C385.912,-290.839 390.134,-288.328 394,-285.5 415.811,-269.545 408.481,-252.846 430,-236.5 434.976,-232.72 440.589,-229.454 446.387,-226.647"/>
<polygon fill="midnightblue" stroke="midnightblue" points="379.965,-289.926 372.306,-297.247 382.859,-296.3 379.965,-289.926"/>
</g>
<!-- Node25 -->
<g id="node25" class="node"><title>Node25</title>
<g id="a_node25"><a xlink:href="classsoftwarecontainer_1_1_i_p_allocation_error.html" target="_top" xlink:title="softwarecontainer::\lIPAllocationError">
<polygon fill="white" stroke="black" points="447,-49.5 447,-79.5 547,-79.5 547,-49.5 447,-49.5"/>
<text text-anchor="start" x="455" y="-67.5" font-family="Helvetica,sans-Serif" font-size="10.00">softwarecontainer::</text>
<text text-anchor="middle" x="497" y="-56.5" font-family="Helvetica,sans-Serif" font-size="10.00">IPAllocationError</text>
</a>
</g>
</g>
<!-- Node24&#45;&gt;Node25 -->
<g id="edge24" class="edge"><title>Node24&#45;&gt;Node25</title>
<path fill="none" stroke="midnightblue" d="M388.9,-64.5C408.14,-64.5 428.823,-64.5 446.834,-64.5"/>
<polygon fill="midnightblue" stroke="midnightblue" points="388.691,-61.0001 378.691,-64.5 388.691,-68.0001 388.691,-61.0001"/>
</g>
</g>
</svg>
