<?xml version="1.0" encoding="UTF-8" standalone="no"?>
<!DOCTYPE svg PUBLIC "-//W3C//DTD SVG 1.1//EN"
 "http://www.w3.org/Graphics/SVG/1.1/DTD/svg11.dtd">
<!-- Generated by graphviz version 2.38.0 (20140413.2041)
 -->
<!-- Title: Graphical Class Hierarchy Pages: 1 -->
<svg width="287pt" height="142pt"
 viewBox="0.00 0.00 287.00 142.00" xmlns="http://www.w3.org/2000/svg" xmlns:xlink="http://www.w3.org/1999/xlink">
<g id="graph0" class="graph" transform="scale(1 1) rotate(0) translate(4 138)">
<title>Graphical Class Hierarchy</title>
<polygon fill="white" stroke="none" points="-4,4 -4,-138 283,-138 283,4 -4,4"/>
<!-- Node1 -->
<g id="node1" class="node"><title>Node1</title>
<g id="a_node1"><a xlink:href="classsoftwarecontainer_1_1_clean_up_handler.html" target="_top" xlink:title="softwarecontainer::\lCleanUpHandler">
<polygon fill="white" stroke="black" points="0,-52 0,-82 100,-82 100,-52 0,-52"/>
<text text-anchor="start" x="8" y="-70" font-family="Helvetica,sans-Serif" font-size="10.00">softwarecontainer::</text>
<text text-anchor="middle" x="50" y="-59" font-family="Helvetica,sans-Serif" font-size="10.00">CleanUpHandler</text>
</a>
</g>
</g>
<!-- Node2 -->
<g id="node2" class="node"><title>Node2</title>
<g id="a_node2"><a xlink:href="class_directory_clean_up_handler.html" target="_top" xlink:title="DirectoryCleanUpHandler">
<polygon fill="white" stroke="black" points="143.5,-114.5 143.5,-133.5 271.5,-133.5 271.5,-114.5 143.5,-114.5"/>
<text text-anchor="middle" x="207.5" y="-121.5" font-family="Helvetica,sans-Serif" font-size="10.00">DirectoryCleanUpHandler</text>
</a>
</g>
</g>
<!-- Node1&#45;&gt;Node2 -->
<g id="edge1" class="edge"><title>Node1&#45;&gt;Node2</title>
<path fill="none" stroke="midnightblue" d="M90.9785,-86.4281C105.019,-92.8331 121.028,-99.673 136,-105 145.793,-108.484 156.546,-111.686 166.639,-114.428"/>
<polygon fill="midnightblue" stroke="midnightblue" points="92.1542,-83.1154 81.6093,-82.0872 89.2114,-89.4668 92.1542,-83.1154"/>
</g>
<!-- Node3 -->
<g id="node3" class="node"><title>Node3</title>
<g id="a_node3"><a xlink:href="class_file_clean_up_handler.html" target="_top" xlink:title="The FileCleanUpHandler class is a subclass of CleanUpHandler that deletes a file. ...">
<polygon fill="white" stroke="black" points="155.5,-76.5 155.5,-95.5 259.5,-95.5 259.5,-76.5 155.5,-76.5"/>
<text text-anchor="middle" x="207.5" y="-83.5" font-family="Helvetica,sans-Serif" font-size="10.00">FileCleanUpHandler</text>
</a>
</g>
</g>
<!-- Node1&#45;&gt;Node3 -->
<g id="edge2" class="edge"><title>Node1&#45;&gt;Node3</title>
<path fill="none" stroke="midnightblue" d="M110.322,-74.2483C125.202,-76.0665 141.039,-78.0015 155.476,-79.7655"/>
<polygon fill="midnightblue" stroke="midnightblue" points="110.552,-70.7505 100.201,-73.0117 109.703,-77.6988 110.552,-70.7505"/>
</g>
<!-- Node4 -->
<g id="node4" class="node"><title>Node4</title>
<g id="a_node4"><a xlink:href="class_mount_clean_up_handler.html" target="_top" xlink:title="MountCleanUpHandler">
<polygon fill="white" stroke="black" points="149.5,-38.5 149.5,-57.5 265.5,-57.5 265.5,-38.5 149.5,-38.5"/>
<text text-anchor="middle" x="207.5" y="-45.5" font-family="Helvetica,sans-Serif" font-size="10.00">MountCleanUpHandler</text>
</a>
</g>
</g>
<!-- Node1&#45;&gt;Node4 -->
<g id="edge3" class="edge"><title>Node1&#45;&gt;Node4</title>
<path fill="none" stroke="midnightblue" d="M110.322,-59.7517C123.167,-58.1821 136.726,-56.5255 149.481,-54.967"/>
<polygon fill="midnightblue" stroke="midnightblue" points="109.703,-56.3012 100.201,-60.9883 110.552,-63.2495 109.703,-56.3012"/>
</g>
<!-- Node5 -->
<g id="node5" class="node"><title>Node5</title>
<g id="a_node5"><a xlink:href="class_overlay_sync_cleanup_handler.html" target="_top" xlink:title="The OverlaySyncCleanupHandler class is used to copy files on cleanup and can be added to the CleanupH...">
<polygon fill="white" stroke="black" points="136,-0.5 136,-19.5 279,-19.5 279,-0.5 136,-0.5"/>
<text text-anchor="middle" x="207.5" y="-7.5" font-family="Helvetica,sans-Serif" font-size="10.00">OverlaySyncCleanupHandler</text>
</a>
</g>
</g>
<!-- Node1&#45;&gt;Node5 -->
<g id="edge4" class="edge"><title>Node1&#45;&gt;Node5</title>
<path fill="none" stroke="midnightblue" d="M90.9785,-47.5719C105.019,-41.1669 121.028,-34.327 136,-29 145.793,-25.5157 156.546,-22.3141 166.639,-19.5716"/>
<polygon fill="midnightblue" stroke="midnightblue" points="89.2114,-44.5332 81.6093,-51.9128 92.1542,-50.8846 89.2114,-44.5332"/>
</g>
</g>
</svg>
