<?xml version="1.0" encoding="UTF-8" standalone="no"?>
<!DOCTYPE svg PUBLIC "-//W3C//DTD SVG 1.1//EN"
 "http://www.w3.org/Graphics/SVG/1.1/DTD/svg11.dtd">
<!-- Generated by graphviz version 2.38.0 (20140413.2041)
 -->
<!-- Title: Graphical Class Hierarchy Pages: 1 -->
<svg width="379pt" height="308pt"
 viewBox="0.00 0.00 379.00 308.00" xmlns="http://www.w3.org/2000/svg" xmlns:xlink="http://www.w3.org/1999/xlink">
<g id="graph0" class="graph" transform="scale(1 1) rotate(0) translate(4 304)">
<title>Graphical Class Hierarchy</title>
<polygon fill="white" stroke="none" points="-4,4 -4,-304 375,-304 375,4 -4,4"/>
<!-- Node1 -->
<g id="node1" class="node"><title>Node1</title>
<polygon fill="white" stroke="#bfbfbf" points="0,-79 0,-98 59,-98 59,-79 0,-79"/>
<text text-anchor="middle" x="29.5" y="-86" font-family="Helvetica,sans-Serif" font-size="10.00">exception</text>
</g>
<!-- Node2 -->
<g id="node2" class="node"><title>Node2</title>
<g id="a_node2"><a xlink:href="classsoftwarecontainer_1_1_config_error.html" target="_top" xlink:title="softwarecontainer::\lConfigError">
<polygon fill="white" stroke="black" points="104.5,-147.5 104.5,-177.5 204.5,-177.5 204.5,-147.5 104.5,-147.5"/>
<text text-anchor="start" x="112.5" y="-165.5" font-family="Helvetica,sans-Serif" font-size="10.00">softwarecontainer::</text>
<text text-anchor="middle" x="154.5" y="-154.5" font-family="Helvetica,sans-Serif" font-size="10.00">ConfigError</text>
</a>
</g>
</g>
<!-- Node1&#45;&gt;Node2 -->
<g id="edge1" class="edge"><title>Node1&#45;&gt;Node2</title>
<path fill="none" stroke="midnightblue" d="M49.0446,-105.062C61.4427,-115.567 78.4579,-128.932 95,-138.5 100.607,-141.743 106.736,-144.766 112.85,-147.498"/>
<polygon fill="midnightblue" stroke="midnightblue" points="51.1139,-102.224 41.2615,-98.328 46.5337,-107.518 51.1139,-102.224"/>
</g>
<!-- Node9 -->
<g id="node9" class="node"><title>Node9</title>
<g id="a_node9"><a xlink:href="classsoftwarecontainer_1_1_gateway_error.html" target="_top" xlink:title="softwarecontainer::\lGatewayError">
<polygon fill="white" stroke="black" points="104.5,-98.5 104.5,-128.5 204.5,-128.5 204.5,-98.5 104.5,-98.5"/>
<text text-anchor="start" x="112.5" y="-116.5" font-family="Helvetica,sans-Serif" font-size="10.00">softwarecontainer::</text>
<text text-anchor="middle" x="154.5" y="-105.5" font-family="Helvetica,sans-Serif" font-size="10.00">GatewayError</text>
</a>
</g>
</g>
<!-- Node1&#45;&gt;Node9 -->
<g id="edge8" class="edge"><title>Node1&#45;&gt;Node9</title>
<path fill="none" stroke="midnightblue" d="M68.9508,-96.3152C80.1801,-98.5976 92.608,-101.124 104.401,-103.521"/>
<polygon fill="midnightblue" stroke="midnightblue" points="69.5246,-92.8603 59.0278,-94.2983 68.1303,-99.7201 69.5246,-92.8603"/>
</g>
<!-- Node10 -->
<g id="node10" class="node"><title>Node10</title>
<g id="a_node10"><a xlink:href="classsoftwarecontainer_1_1_gateway_parser_error.html" target="_top" xlink:title="softwarecontainer::\lGatewayParserError">
<polygon fill="white" stroke="black" points="102,-49.5 102,-79.5 207,-79.5 207,-49.5 102,-49.5"/>
<text text-anchor="start" x="110" y="-67.5" font-family="Helvetica,sans-Serif" font-size="10.00">softwarecontainer::</text>
<text text-anchor="middle" x="154.5" y="-56.5" font-family="Helvetica,sans-Serif" font-size="10.00">GatewayParserError</text>
</a>
</g>
</g>
<!-- Node1&#45;&gt;Node10 -->
<g id="edge9" class="edge"><title>Node1&#45;&gt;Node10</title>
<path fill="none" stroke="midnightblue" d="M69.0594,-80.9762C79.4877,-78.9414 90.9432,-76.7062 101.961,-74.5565"/>
<polygon fill="midnightblue" stroke="midnightblue" points="68.1724,-77.5832 59.0278,-82.9336 69.5131,-84.4536 68.1724,-77.5832"/>
</g>
<!-- Node11 -->
<g id="node11" class="node"><title>Node11</title>
<g id="a_node11"><a xlink:href="classsoftwarecontainer_1_1_software_container_error.html" target="_top" xlink:title="softwarecontainer::\lSoftwareContainerError">
<polygon fill="white" stroke="black" points="95,-0.5 95,-30.5 214,-30.5 214,-0.5 95,-0.5"/>
<text text-anchor="start" x="103" y="-18.5" font-family="Helvetica,sans-Serif" font-size="10.00">softwarecontainer::</text>
<text text-anchor="middle" x="154.5" y="-7.5" font-family="Helvetica,sans-Serif" font-size="10.00">SoftwareContainerError</text>
</a>
</g>
</g>
<!-- Node1&#45;&gt;Node11 -->
<g id="edge10" class="edge"><title>Node1&#45;&gt;Node11</title>
<path fill="none" stroke="midnightblue" d="M49.6454,-72.3703C62.0622,-62.3954 78.8757,-49.7711 95,-40.5 101.224,-36.9215 108.058,-33.5486 114.792,-30.5074"/>
<polygon fill="midnightblue" stroke="midnightblue" points="47.3365,-69.7372 41.8142,-78.7791 51.7698,-75.1545 47.3365,-69.7372"/>
</g>
<!-- Node3 -->
<g id="node3" class="node"><title>Node3</title>
<g id="a_node3"><a xlink:href="classsoftwarecontainer_1_1_config_dependency_error.html" target="_top" xlink:title="softwarecontainer::\lConfigDependencyError">
<polygon fill="white" stroke="black" points="250,-269.5 250,-299.5 371,-299.5 371,-269.5 250,-269.5"/>
<text text-anchor="start" x="258" y="-287.5" font-family="Helvetica,sans-Serif" font-size="10.00">softwarecontainer::</text>
<text text-anchor="middle" x="310.5" y="-276.5" font-family="Helvetica,sans-Serif" font-size="10.00">ConfigDependencyError</text>
</a>
</g>
</g>
<!-- Node2&#45;&gt;Node3 -->
<g id="edge2" class="edge"><title>Node2&#45;&gt;Node3</title>
<path fill="none" stroke="midnightblue" d="M173.119,-185.763C190.613,-207.532 219.21,-239.729 250,-260.5 254.894,-263.802 260.312,-266.765 265.827,-269.388"/>
<polygon fill="midnightblue" stroke="midnightblue" points="175.699,-183.383 166.759,-177.697 170.202,-187.717 175.699,-183.383"/>
</g>
<!-- Node4 -->
<g id="node4" class="node"><title>Node4</title>
<g id="a_node4"><a xlink:href="classsoftwarecontainer_1_1_config_file_error.html" target="_top" xlink:title="An error occured in a Glib operation. ">
<polygon fill="white" stroke="black" points="260.5,-220.5 260.5,-250.5 360.5,-250.5 360.5,-220.5 260.5,-220.5"/>
<text text-anchor="start" x="268.5" y="-238.5" font-family="Helvetica,sans-Serif" font-size="10.00">softwarecontainer::</text>
<text text-anchor="middle" x="310.5" y="-227.5" font-family="Helvetica,sans-Serif" font-size="10.00">ConfigFileError</text>
</a>
</g>
</g>
<!-- Node2&#45;&gt;Node4 -->
<g id="edge3" class="edge"><title>Node2&#45;&gt;Node4</title>
<path fill="none" stroke="midnightblue" d="M192.082,-182.499C209.442,-191.722 230.59,-202.578 250,-211.5 256.578,-214.524 263.652,-217.56 270.545,-220.406"/>
<polygon fill="midnightblue" stroke="midnightblue" points="193.331,-179.198 182.863,-177.565 190.028,-185.37 193.331,-179.198"/>
</g>
<!-- Node5 -->
<g id="node5" class="node"><title>Node5</title>
<g id="a_node5"><a xlink:href="classsoftwarecontainer_1_1_config_internal_error.html" target="_top" xlink:title="An error occured which is an internal error in the config code. ">
<polygon fill="white" stroke="black" points="260.5,-171.5 260.5,-201.5 360.5,-201.5 360.5,-171.5 260.5,-171.5"/>
<text text-anchor="start" x="268.5" y="-189.5" font-family="Helvetica,sans-Serif" font-size="10.00">softwarecontainer::</text>
<text text-anchor="middle" x="310.5" y="-178.5" font-family="Helvetica,sans-Serif" font-size="10.00">ConfigInternalError</text>
</a>
</g>
</g>
<!-- Node2&#45;&gt;Node5 -->
<g id="edge4" class="edge"><title>Node2&#45;&gt;Node5</title>
<path fill="none" stroke="midnightblue" d="M214.863,-171.751C229.878,-174.091 245.837,-176.579 260.289,-178.831"/>
<polygon fill="midnightblue" stroke="midnightblue" points="215.07,-168.241 204.65,-170.16 213.992,-175.158 215.07,-168.241"/>
</g>
<!-- Node6 -->
<g id="node6" class="node"><title>Node6</title>
<g id="a_node6"><a xlink:href="classsoftwarecontainer_1_1_config_mandatory_error.html" target="_top" xlink:title="softwarecontainer::\lConfigMandatoryError">
<polygon fill="white" stroke="black" points="254.5,-122.5 254.5,-152.5 366.5,-152.5 366.5,-122.5 254.5,-122.5"/>
<text text-anchor="start" x="262.5" y="-140.5" font-family="Helvetica,sans-Serif" font-size="10.00">softwarecontainer::</text>
<text text-anchor="middle" x="310.5" y="-129.5" font-family="Helvetica,sans-Serif" font-size="10.00">ConfigMandatoryError</text>
</a>
</g>
</g>
<!-- Node2&#45;&gt;Node6 -->
<g id="edge5" class="edge"><title>Node2&#45;&gt;Node6</title>
<path fill="none" stroke="midnightblue" d="M214.889,-152.859C227.883,-150.75 241.584,-148.525 254.402,-146.444"/>
<polygon fill="midnightblue" stroke="midnightblue" points="213.96,-149.464 204.65,-154.521 215.082,-156.373 213.96,-149.464"/>
</g>
<!-- Node7 -->
<g id="node7" class="node"><title>Node7</title>
<g id="a_node7"><a xlink:href="classsoftwarecontainer_1_1_config_not_found_error.html" target="_top" xlink:title="A requested config item could not be found in any of the config sources. ">
<polygon fill="white" stroke="black" points="256,-73.5 256,-103.5 365,-103.5 365,-73.5 256,-73.5"/>
<text text-anchor="start" x="264" y="-91.5" font-family="Helvetica,sans-Serif" font-size="10.00">softwarecontainer::</text>
<text text-anchor="middle" x="310.5" y="-80.5" font-family="Helvetica,sans-Serif" font-size="10.00">ConfigNotFoundError</text>
</a>
</g>
</g>
<!-- Node2&#45;&gt;Node7 -->
<g id="edge6" class="edge"><title>Node2&#45;&gt;Node7</title>
<path fill="none" stroke="midnightblue" d="M205.014,-143.091C208.089,-141.608 211.107,-140.074 214,-138.5 231.112,-129.193 232.927,-122.88 250,-113.5 256.383,-109.993 263.361,-106.655 270.219,-103.627"/>
<polygon fill="midnightblue" stroke="midnightblue" points="203.318,-140.018 195.691,-147.371 206.239,-146.379 203.318,-140.018"/>
</g>
<!-- Node8 -->
<g id="node8" class="node"><title>Node8</title>
<g id="a_node8"><a xlink:href="classsoftwarecontainer_1_1_config_unknown_error.html" target="_top" xlink:title="A config is found which is not defined in ConfigDefinition. ">
<polygon fill="white" stroke="black" points="257,-24.5 257,-54.5 364,-54.5 364,-24.5 257,-24.5"/>
<text text-anchor="start" x="265" y="-42.5" font-family="Helvetica,sans-Serif" font-size="10.00">softwarecontainer::</text>
<text text-anchor="middle" x="310.5" y="-31.5" font-family="Helvetica,sans-Serif" font-size="10.00">ConfigUnknownError</text>
</a>
</g>
</g>
<!-- Node2&#45;&gt;Node8 -->
<g id="edge7" class="edge"><title>Node2&#45;&gt;Node8</title>
<path fill="none" stroke="midnightblue" d="M210.474,-141.54C211.696,-140.569 212.874,-139.556 214,-138.5 240.669,-113.472 223.437,-89.6409 250,-64.5 254.069,-60.649 258.818,-57.3486 263.827,-54.5307"/>
<polygon fill="midnightblue" stroke="midnightblue" points="208.197,-138.854 201.871,-147.354 212.117,-144.654 208.197,-138.854"/>
</g>
</g>
</svg>
