<?xml version="1.0" encoding="UTF-8" standalone="no"?>
<!DOCTYPE svg PUBLIC "-//W3C//DTD SVG 1.1//EN"
 "http://www.w3.org/Graphics/SVG/1.1/DTD/svg11.dtd">
<!-- Generated by graphviz version 2.38.0 (20140413.2041)
 -->
<!-- Title: Graphical Class Hierarchy Pages: 1 -->
<svg width="453pt" height="116pt"
 viewBox="0.00 0.00 453.00 115.50" xmlns="http://www.w3.org/2000/svg" xmlns:xlink="http://www.w3.org/1999/xlink">
<g id="graph0" class="graph" transform="scale(1 1) rotate(0) translate(4 111.5)">
<title>Graphical Class Hierarchy</title>
<polygon fill="white" stroke="none" points="-4,4 -4,-111.5 449,-111.5 449,4 -4,4"/>
<!-- Node1 -->
<g id="node1" class="node"><title>Node1</title>
<polygon fill="white" stroke="#bfbfbf" points="181.5,-88 181.5,-107 293.5,-107 293.5,-88 181.5,-88"/>
<text text-anchor="middle" x="237.5" y="-95" font-family="Helvetica,sans-Serif" font-size="10.00">IntrospectableAdaptor</text>
</g>
<!-- Node2 -->
<g id="node2" class="node"><title>Node2</title>
<g id="a_node2"><a xlink:href="class_d_bus_cpp_adaptor.html" target="_top" xlink:title="DBusCppAdaptor">
<polygon fill="white" stroke="black" points="352,-50 352,-69 445,-69 445,-50 352,-50"/>
<text text-anchor="middle" x="398.5" y="-57" font-family="Helvetica,sans-Serif" font-size="10.00">DBusCppAdaptor</text>
</a>
</g>
</g>
<!-- Node1&#45;&gt;Node2 -->
<g id="edge1" class="edge"><title>Node1&#45;&gt;Node2</title>
<path fill="none" stroke="midnightblue" d="M288.577,-85.532C310.858,-80.2069 336.729,-74.0238 357.666,-69.0201"/>
<polygon fill="midnightblue" stroke="midnightblue" points="287.535,-82.1823 278.622,-87.911 289.162,-88.9906 287.535,-82.1823"/>
</g>
<!-- Node3 -->
<g id="node3" class="node"><title>Node3</title>
<polygon fill="white" stroke="#bfbfbf" points="198,-50 198,-69 277,-69 277,-50 198,-50"/>
<text text-anchor="middle" x="237.5" y="-57" font-family="Helvetica,sans-Serif" font-size="10.00">ObjectAdaptor</text>
</g>
<!-- Node3&#45;&gt;Node2 -->
<g id="edge2" class="edge"><title>Node3&#45;&gt;Node2</title>
<path fill="none" stroke="midnightblue" d="M287.502,-59.5C308.047,-59.5 331.795,-59.5 351.956,-59.5"/>
<polygon fill="midnightblue" stroke="midnightblue" points="287.396,-56.0001 277.396,-59.5 287.396,-63.0001 287.396,-56.0001"/>
</g>
<!-- Node4 -->
<g id="node4" class="node"><title>Node4</title>
<polygon fill="white" stroke="#bfbfbf" points="0,-0.5 0,-30.5 123,-30.5 123,-0.5 0,-0.5"/>
<text text-anchor="start" x="8" y="-18.5" font-family="Helvetica,sans-Serif" font-size="10.00">SoftwareContainerAgent</text>
<text text-anchor="middle" x="61.5" y="-7.5" font-family="Helvetica,sans-Serif" font-size="10.00">_adaptor</text>
</g>
<!-- Node5 -->
<g id="node5" class="node"><title>Node5</title>
<g id="a_node5"><a xlink:href="classsoftwarecontainer_1_1_software_container_agent_adaptor.html" target="_top" xlink:title="softwarecontainer::\lSoftwareContainerAgentAdaptor">
<polygon fill="white" stroke="black" points="159,-0.5 159,-30.5 316,-30.5 316,-0.5 159,-0.5"/>
<text text-anchor="start" x="167" y="-18.5" font-family="Helvetica,sans-Serif" font-size="10.00">softwarecontainer::</text>
<text text-anchor="middle" x="237.5" y="-7.5" font-family="Helvetica,sans-Serif" font-size="10.00">SoftwareContainerAgentAdaptor</text>
</a>
</g>
</g>
<!-- Node4&#45;&gt;Node5 -->
<g id="edge3" class="edge"><title>Node4&#45;&gt;Node5</title>
<path fill="none" stroke="midnightblue" d="M133.446,-15.5C141.818,-15.5 150.396,-15.5 158.855,-15.5"/>
<polygon fill="midnightblue" stroke="midnightblue" points="133.357,-12.0001 123.357,-15.5 133.357,-19.0001 133.357,-12.0001"/>
</g>
<!-- Node5&#45;&gt;Node2 -->
<g id="edge4" class="edge"><title>Node5&#45;&gt;Node2</title>
<path fill="none" stroke="midnightblue" d="M302.45,-33.1969C323.096,-38.9101 345.197,-45.0262 362.888,-49.9217"/>
<polygon fill="midnightblue" stroke="midnightblue" points="303.345,-29.8131 292.774,-30.5192 301.478,-36.5596 303.345,-29.8131"/>
</g>
</g>
</svg>
