<?xml version="1.0" encoding="UTF-8" standalone="no"?>
<!DOCTYPE svg PUBLIC "-//W3C//DTD SVG 1.1//EN"
 "http://www.w3.org/Graphics/SVG/1.1/DTD/svg11.dtd">
<!-- Generated by graphviz version 2.38.0 (20140413.2041)
 -->
<!-- Title: Graphical Class Hierarchy Pages: 1 -->
<svg width="572pt" height="970pt"
 viewBox="0.00 0.00 572.00 970.00" xmlns="http://www.w3.org/2000/svg" xmlns:xlink="http://www.w3.org/1999/xlink">
<g id="graph0" class="graph" transform="scale(1 1) rotate(0) translate(4 966)">
<title>Graphical Class Hierarchy</title>
<polygon fill="white" stroke="none" points="-4,4 -4,-966 568,-966 568,4 -4,4"/>
<!-- Node1 -->
<g id="node1" class="node"><title>Node1</title>
<polygon fill="white" stroke="#bfbfbf" points="0,-299 0,-318 59,-318 59,-299 0,-299"/>
<text text-anchor="middle" x="29.5" y="-306" font-family="Helvetica,sans-Serif" font-size="10.00">exception</text>
</g>
<!-- Node2 -->
<g id="node2" class="node"><title>Node2</title>
<g id="a_node2"><a xlink:href="classsoftwarecontainer_1_1_gateway_parser_error.html" target="_top" xlink:title="softwarecontainer::\lGatewayParserError">
<polygon fill="white" stroke="black" points="102,-318.5 102,-348.5 207,-348.5 207,-318.5 102,-318.5"/>
<text text-anchor="start" x="110" y="-336.5" font-family="Helvetica,sans-Serif" font-size="10.00">softwarecontainer::</text>
<text text-anchor="middle" x="154.5" y="-325.5" font-family="Helvetica,sans-Serif" font-size="10.00">GatewayParserError</text>
</a>
</g>
</g>
<!-- Node1&#45;&gt;Node2 -->
<g id="edge1" class="edge"><title>Node1&#45;&gt;Node2</title>
<path fill="none" stroke="midnightblue" d="M69.0594,-316.337C79.4877,-318.457 90.9432,-320.785 101.961,-323.025"/>
<polygon fill="midnightblue" stroke="midnightblue" points="69.5246,-312.86 59.0278,-314.298 68.1303,-319.72 69.5246,-312.86"/>
</g>
<!-- Node3 -->
<g id="node3" class="node"><title>Node3</title>
<g id="a_node3"><a xlink:href="classsoftwarecontainer_1_1_software_container_error.html" target="_top" xlink:title="softwarecontainer::\lSoftwareContainerError">
<polygon fill="white" stroke="black" points="95,-269.5 95,-299.5 214,-299.5 214,-269.5 95,-269.5"/>
<text text-anchor="start" x="103" y="-287.5" font-family="Helvetica,sans-Serif" font-size="10.00">softwarecontainer::</text>
<text text-anchor="middle" x="154.5" y="-276.5" font-family="Helvetica,sans-Serif" font-size="10.00">SoftwareContainerError</text>
</a>
</g>
</g>
<!-- Node1&#45;&gt;Node3 -->
<g id="edge2" class="edge"><title>Node1&#45;&gt;Node3</title>
<path fill="none" stroke="midnightblue" d="M68.9508,-300.997C77.0923,-299.409 85.8639,-297.697 94.5668,-295.999"/>
<polygon fill="midnightblue" stroke="midnightblue" points="68.1724,-297.583 59.0278,-302.934 69.5131,-304.454 68.1724,-297.583"/>
</g>
<!-- Node4 -->
<g id="node4" class="node"><title>Node4</title>
<g id="a_node4"><a xlink:href="classsoftwarecontainer_1_1_cgroups_gateway_error.html" target="_top" xlink:title="softwarecontainer::\lCgroupsGatewayError">
<polygon fill="white" stroke="black" points="265.5,-833.5 265.5,-863.5 378.5,-863.5 378.5,-833.5 265.5,-833.5"/>
<text text-anchor="start" x="273.5" y="-851.5" font-family="Helvetica,sans-Serif" font-size="10.00">softwarecontainer::</text>
<text text-anchor="middle" x="322" y="-840.5" font-family="Helvetica,sans-Serif" font-size="10.00">CgroupsGatewayError</text>
</a>
</g>
</g>
<!-- Node3&#45;&gt;Node4 -->
<g id="edge3" class="edge"><title>Node3&#45;&gt;Node4</title>
<path fill="none" stroke="midnightblue" d="M211.077,-306.018C212.116,-307.122 213.093,-308.282 214,-309.5 256.584,-366.735 234.97,-558.762 250,-628.5 266.996,-707.359 301.072,-798.008 314.93,-833.319"/>
<polygon fill="midnightblue" stroke="midnightblue" points="213.324,-303.335 203.441,-299.517 208.786,-308.665 213.324,-303.335"/>
</g>
<!-- Node9 -->
<g id="node9" class="node"><title>Node9</title>
<g id="a_node9"><a xlink:href="classsoftwarecontainer_1_1_config_error.html" target="_top" xlink:title="softwarecontainer::\lConfigError">
<polygon fill="white" stroke="black" points="272,-588.5 272,-618.5 372,-618.5 372,-588.5 272,-588.5"/>
<text text-anchor="start" x="280" y="-606.5" font-family="Helvetica,sans-Serif" font-size="10.00">softwarecontainer::</text>
<text text-anchor="middle" x="322" y="-595.5" font-family="Helvetica,sans-Serif" font-size="10.00">ConfigError</text>
</a>
</g>
</g>
<!-- Node3&#45;&gt;Node9 -->
<g id="edge8" class="edge"><title>Node3&#45;&gt;Node9</title>
<path fill="none" stroke="midnightblue" d="M210.852,-306.063C211.962,-307.154 213.015,-308.299 214,-309.5 263.511,-369.902 221.999,-408.591 250,-481.5 265.727,-522.45 294.173,-565.781 309.863,-588.142"/>
<polygon fill="midnightblue" stroke="midnightblue" points="212.788,-303.13 202.791,-299.62 208.417,-308.598 212.788,-303.13"/>
</g>
<!-- Node16 -->
<g id="node16" class="node"><title>Node16</title>
<g id="a_node16"><a xlink:href="classsoftwarecontainer_1_1_config_store_error.html" target="_top" xlink:title="softwarecontainer::\lConfigStoreError">
<polygon fill="white" stroke="black" points="272,-441.5 272,-471.5 372,-471.5 372,-441.5 272,-441.5"/>
<text text-anchor="start" x="280" y="-459.5" font-family="Helvetica,sans-Serif" font-size="10.00">softwarecontainer::</text>
<text text-anchor="middle" x="322" y="-448.5" font-family="Helvetica,sans-Serif" font-size="10.00">ConfigStoreError</text>
</a>
</g>
</g>
<!-- Node3&#45;&gt;Node16 -->
<g id="edge15" class="edge"><title>Node3&#45;&gt;Node16</title>
<path fill="none" stroke="midnightblue" d="M210.211,-305.699C211.548,-306.9 212.816,-308.165 214,-309.5 251.808,-352.103 210.562,-391.401 250,-432.5 256.036,-438.79 263.776,-443.432 271.914,-446.857"/>
<polygon fill="midnightblue" stroke="midnightblue" points="212.028,-302.688 201.919,-299.518 207.845,-308.301 212.028,-302.688"/>
</g>
<!-- Node20 -->
<g id="node20" class="node"><title>Node20</title>
<g id="a_node20"><a xlink:href="classsoftwarecontainer_1_1_container_error.html" target="_top" xlink:title="An error has occured in the underlying container implementation. ">
<polygon fill="white" stroke="black" points="272,-392.5 272,-422.5 372,-422.5 372,-392.5 272,-392.5"/>
<text text-anchor="start" x="280" y="-410.5" font-family="Helvetica,sans-Serif" font-size="10.00">softwarecontainer::</text>
<text text-anchor="middle" x="322" y="-399.5" font-family="Helvetica,sans-Serif" font-size="10.00">ContainerError</text>
</a>
</g>
</g>
<!-- Node3&#45;&gt;Node20 -->
<g id="edge19" class="edge"><title>Node3&#45;&gt;Node20</title>
<path fill="none" stroke="midnightblue" d="M208.822,-305.119C210.64,-306.494 212.375,-307.953 214,-309.5 240.487,-334.722 222.551,-359.329 250,-383.5 256.25,-389.003 263.812,-393.255 271.64,-396.537"/>
<polygon fill="midnightblue" stroke="midnightblue" points="210.692,-302.16 200.408,-299.614 206.86,-308.018 210.692,-302.16"/>
</g>
<!-- Node21 -->
<g id="node21" class="node"><title>Node21</title>
<g id="a_node21"><a xlink:href="classsoftwarecontainer_1_1_container_option_parse_error.html" target="_top" xlink:title="softwarecontainer::\lContainerOptionParseError">
<polygon fill="white" stroke="black" points="255,-343.5 255,-373.5 389,-373.5 389,-343.5 255,-343.5"/>
<text text-anchor="start" x="263" y="-361.5" font-family="Helvetica,sans-Serif" font-size="10.00">softwarecontainer::</text>
<text text-anchor="middle" x="322" y="-350.5" font-family="Helvetica,sans-Serif" font-size="10.00">ContainerOptionParseError</text>
</a>
</g>
</g>
<!-- Node3&#45;&gt;Node21 -->
<g id="edge20" class="edge"><title>Node3&#45;&gt;Node21</title>
<path fill="none" stroke="midnightblue" d="M203.118,-303.876C206.845,-305.687 210.512,-307.57 214,-309.5 231.044,-318.932 232.602,-325.739 250,-334.5 256.508,-337.777 263.566,-340.769 270.622,-343.443"/>
<polygon fill="midnightblue" stroke="midnightblue" points="204.343,-300.586 193.8,-299.539 201.389,-306.932 204.343,-300.586"/>
</g>
<!-- Node22 -->
<g id="node22" class="node"><title>Node22</title>
<g id="a_node22"><a xlink:href="classsoftwarecontainer_1_1_container_utility_interface_error.html" target="_top" xlink:title="An error occured in ContainerUtilityInterface. ">
<polygon fill="white" stroke="black" points="250.5,-294.5 250.5,-324.5 393.5,-324.5 393.5,-294.5 250.5,-294.5"/>
<text text-anchor="start" x="258.5" y="-312.5" font-family="Helvetica,sans-Serif" font-size="10.00">softwarecontainer::</text>
<text text-anchor="middle" x="322" y="-301.5" font-family="Helvetica,sans-Serif" font-size="10.00">ContainerUtilityInterfaceError</text>
</a>
</g>
</g>
<!-- Node3&#45;&gt;Node22 -->
<g id="edge21" class="edge"><title>Node3&#45;&gt;Node22</title>
<path fill="none" stroke="midnightblue" d="M224.335,-294.898C232.972,-296.203 241.817,-297.539 250.479,-298.847"/>
<polygon fill="midnightblue" stroke="midnightblue" points="224.726,-291.417 214.315,-293.384 223.68,-298.339 224.726,-291.417"/>
</g>
<!-- Node23 -->
<g id="node23" class="node"><title>Node23</title>
<g id="a_node23"><a xlink:href="classsoftwarecontainer_1_1_device_node_gateway_error.html" target="_top" xlink:title="softwarecontainer::\lDeviceNodeGatewayError">
<polygon fill="white" stroke="black" points="256.5,-245.5 256.5,-275.5 387.5,-275.5 387.5,-245.5 256.5,-245.5"/>
<text text-anchor="start" x="264.5" y="-263.5" font-family="Helvetica,sans-Serif" font-size="10.00">softwarecontainer::</text>
<text text-anchor="middle" x="322" y="-252.5" font-family="Helvetica,sans-Serif" font-size="10.00">DeviceNodeGatewayError</text>
</a>
</g>
</g>
<!-- Node3&#45;&gt;Node23 -->
<g id="edge22" class="edge"><title>Node3&#45;&gt;Node23</title>
<path fill="none" stroke="midnightblue" d="M224.382,-274.511C235.007,-272.97 245.946,-271.384 256.471,-269.858"/>
<polygon fill="midnightblue" stroke="midnightblue" points="223.709,-271.072 214.315,-275.971 224.714,-277.999 223.709,-271.072"/>
</g>
<!-- Node24 -->
<g id="node24" class="node"><title>Node24</title>
<g id="a_node24"><a xlink:href="classsoftwarecontainer_1_1_gateway_error.html" target="_top" xlink:title="softwarecontainer::\lGatewayError">
<polygon fill="white" stroke="black" points="272,-196.5 272,-226.5 372,-226.5 372,-196.5 272,-196.5"/>
<text text-anchor="start" x="280" y="-214.5" font-family="Helvetica,sans-Serif" font-size="10.00">softwarecontainer::</text>
<text text-anchor="middle" x="322" y="-203.5" font-family="Helvetica,sans-Serif" font-size="10.00">GatewayError</text>
</a>
</g>
</g>
<!-- Node3&#45;&gt;Node24 -->
<g id="edge23" class="edge"><title>Node3&#45;&gt;Node24</title>
<path fill="none" stroke="midnightblue" d="M191.95,-264.572C209.281,-255.464 230.444,-244.867 250,-236.5 258.05,-233.056 266.749,-229.702 275.207,-226.628"/>
<polygon fill="midnightblue" stroke="midnightblue" points="189.942,-261.675 182.75,-269.455 193.224,-267.858 189.942,-261.675"/>
</g>
<!-- Node25 -->
<g id="node25" class="node"><title>Node25</title>
<g id="a_node25"><a xlink:href="classsoftwarecontainer_1_1_invalid_container_error.html" target="_top" xlink:title="The container instance is in an invalid state and should not be used. ">
<polygon fill="white" stroke="black" points="268,-147.5 268,-177.5 376,-177.5 376,-147.5 268,-147.5"/>
<text text-anchor="start" x="276" y="-165.5" font-family="Helvetica,sans-Serif" font-size="10.00">softwarecontainer::</text>
<text text-anchor="middle" x="322" y="-154.5" font-family="Helvetica,sans-Serif" font-size="10.00">InvalidContainerError</text>
</a>
</g>
</g>
<!-- Node3&#45;&gt;Node25 -->
<g id="edge24" class="edge"><title>Node3&#45;&gt;Node25</title>
<path fill="none" stroke="midnightblue" d="M172.965,-261.175C190.348,-239.41 218.866,-207.39 250,-187.5 255.947,-183.701 262.544,-180.392 269.252,-177.536"/>
<polygon fill="midnightblue" stroke="midnightblue" points="170.055,-259.214 166.651,-269.247 175.568,-263.527 170.055,-259.214"/>
</g>
<!-- Node26 -->
<g id="node26" class="node"><title>Node26</title>
<g id="a_node26"><a xlink:href="classsoftwarecontainer_1_1_invalid_operation_error.html" target="_top" xlink:title="A method was called which is inappropriate in the current state. ">
<polygon fill="white" stroke="black" points="268,-98.5 268,-128.5 376,-128.5 376,-98.5 268,-98.5"/>
<text text-anchor="start" x="276" y="-116.5" font-family="Helvetica,sans-Serif" font-size="10.00">softwarecontainer::</text>
<text text-anchor="middle" x="322" y="-105.5" font-family="Helvetica,sans-Serif" font-size="10.00">InvalidOperationError</text>
</a>
</g>
</g>
<!-- Node3&#45;&gt;Node26 -->
<g id="edge25" class="edge"><title>Node3&#45;&gt;Node26</title>
<path fill="none" stroke="midnightblue" d="M165.418,-259.753C179.561,-227.458 208.488,-171.217 250,-138.5 255.337,-134.294 261.436,-130.765 267.766,-127.811"/>
<polygon fill="midnightblue" stroke="midnightblue" points="162.035,-258.765 161.349,-269.337 168.479,-261.501 162.035,-258.765"/>
</g>
<!-- Node27 -->
<g id="node27" class="node"><title>Node27</title>
<g id="a_node27"><a xlink:href="classsoftwarecontainer_1_1_network_gateway_error.html" target="_top" xlink:title="softwarecontainer::\lNetworkGatewayError">
<polygon fill="white" stroke="black" points="265.5,-49.5 265.5,-79.5 378.5,-79.5 378.5,-49.5 265.5,-49.5"/>
<text text-anchor="start" x="273.5" y="-67.5" font-family="Helvetica,sans-Serif" font-size="10.00">softwarecontainer::</text>
<text text-anchor="middle" x="322" y="-56.5" font-family="Helvetica,sans-Serif" font-size="10.00">NetworkGatewayError</text>
</a>
</g>
</g>
<!-- Node3&#45;&gt;Node27 -->
<g id="edge26" class="edge"><title>Node3&#45;&gt;Node27</title>
<path fill="none" stroke="midnightblue" d="M161.002,-259.683C171.365,-218.586 197.604,-136.3 250,-89.5 254.581,-85.4084 259.873,-81.9766 265.46,-79.1001"/>
<polygon fill="midnightblue" stroke="midnightblue" points="157.594,-258.886 158.65,-269.428 164.399,-260.528 157.594,-258.886"/>
</g>
<!-- Node29 -->
<g id="node29" class="node"><title>Node29</title>
<g id="a_node29"><a xlink:href="classsoftwarecontainer_1_1_software_container_agent_error.html" target="_top" xlink:title="An error occured in SoftwareContainerAgent. ">
<polygon fill="white" stroke="black" points="250,-0.5 250,-30.5 394,-30.5 394,-0.5 250,-0.5"/>
<text text-anchor="start" x="258" y="-18.5" font-family="Helvetica,sans-Serif" font-size="10.00">softwarecontainer::</text>
<text text-anchor="middle" x="322" y="-7.5" font-family="Helvetica,sans-Serif" font-size="10.00">SoftwareContainerAgentError</text>
</a>
</g>
</g>
<!-- Node3&#45;&gt;Node29 -->
<g id="edge28" class="edge"><title>Node3&#45;&gt;Node29</title>
<path fill="none" stroke="midnightblue" d="M158.179,-259.351C164.74,-210.188 186.057,-100.803 250,-39.5 253.569,-36.0783 257.643,-33.1435 261.993,-30.6266"/>
<polygon fill="midnightblue" stroke="midnightblue" points="154.687,-259.071 156.931,-269.426 161.634,-259.932 154.687,-259.071"/>
</g>
<!-- Node5 -->
<g id="node5" class="node"><title>Node5</title>
<g id="a_node5"><a xlink:href="classsoftwarecontainer_1_1_bad_suffix_error.html" target="_top" xlink:title="softwarecontainer::\lBadSuffixError">
<polygon fill="white" stroke="black" points="447,-931.5 447,-961.5 547,-961.5 547,-931.5 447,-931.5"/>
<text text-anchor="start" x="455" y="-949.5" font-family="Helvetica,sans-Serif" font-size="10.00">softwarecontainer::</text>
<text text-anchor="middle" x="497" y="-938.5" font-family="Helvetica,sans-Serif" font-size="10.00">BadSuffixError</text>
</a>
</g>
</g>
<!-- Node4&#45;&gt;Node5 -->
<g id="edge4" class="edge"><title>Node4&#45;&gt;Node5</title>
<path fill="none" stroke="midnightblue" d="M349.868,-869.979C370.802,-885.98 401.077,-907.556 430,-922.5 436.283,-925.746 443.106,-928.753 449.903,-931.463"/>
<polygon fill="midnightblue" stroke="midnightblue" points="351.825,-867.068 341.775,-863.714 347.54,-872.603 351.825,-867.068"/>
</g>
<!-- Node6 -->
<g id="node6" class="node"><title>Node6</title>
<g id="a_node6"><a xlink:href="classsoftwarecontainer_1_1_invalid_input_error.html" target="_top" xlink:title="softwarecontainer::\lInvalidInputError">
<polygon fill="white" stroke="black" points="447,-882.5 447,-912.5 547,-912.5 547,-882.5 447,-882.5"/>
<text text-anchor="start" x="455" y="-900.5" font-family="Helvetica,sans-Serif" font-size="10.00">softwarecontainer::</text>
<text text-anchor="middle" x="497" y="-889.5" font-family="Helvetica,sans-Serif" font-size="10.00">InvalidInputError</text>
</a>
</g>
</g>
<!-- Node4&#45;&gt;Node6 -->
<g id="edge5" class="edge"><title>Node4&#45;&gt;Node6</title>
<path fill="none" stroke="midnightblue" d="M386.014,-866.348C406.109,-872.04 428.033,-878.249 446.983,-883.616"/>
<polygon fill="midnightblue" stroke="midnightblue" points="386.893,-862.959 376.317,-863.601 384.985,-869.694 386.893,-862.959"/>
</g>
<!-- Node7 -->
<g id="node7" class="node"><title>Node7</title>
<g id="a_node7"><a xlink:href="classsoftwarecontainer_1_1_j_son_error.html" target="_top" xlink:title="softwarecontainer::\lJSonError">
<polygon fill="white" stroke="black" points="447,-833.5 447,-863.5 547,-863.5 547,-833.5 447,-833.5"/>
<text text-anchor="start" x="455" y="-851.5" font-family="Helvetica,sans-Serif" font-size="10.00">softwarecontainer::</text>
<text text-anchor="middle" x="497" y="-840.5" font-family="Helvetica,sans-Serif" font-size="10.00">JSonError</text>
</a>
</g>
</g>
<!-- Node4&#45;&gt;Node7 -->
<g id="edge6" class="edge"><title>Node4&#45;&gt;Node7</title>
<path fill="none" stroke="midnightblue" d="M388.9,-848.5C408.14,-848.5 428.823,-848.5 446.834,-848.5"/>
<polygon fill="midnightblue" stroke="midnightblue" points="388.691,-845 378.691,-848.5 388.691,-852 388.691,-845"/>
</g>
<!-- Node8 -->
<g id="node8" class="node"><title>Node8</title>
<g id="a_node8"><a xlink:href="classsoftwarecontainer_1_1_limit_range_error.html" target="_top" xlink:title="softwarecontainer::\lLimitRangeError">
<polygon fill="white" stroke="black" points="447,-784.5 447,-814.5 547,-814.5 547,-784.5 447,-784.5"/>
<text text-anchor="start" x="455" y="-802.5" font-family="Helvetica,sans-Serif" font-size="10.00">softwarecontainer::</text>
<text text-anchor="middle" x="497" y="-791.5" font-family="Helvetica,sans-Serif" font-size="10.00">LimitRangeError</text>
</a>
</g>
</g>
<!-- Node4&#45;&gt;Node8 -->
<g id="edge7" class="edge"><title>Node4&#45;&gt;Node8</title>
<path fill="none" stroke="midnightblue" d="M386.014,-830.652C406.109,-824.96 428.033,-818.751 446.983,-813.384"/>
<polygon fill="midnightblue" stroke="midnightblue" points="384.985,-827.306 376.317,-833.399 386.893,-834.041 384.985,-827.306"/>
</g>
<!-- Node10 -->
<g id="node10" class="node"><title>Node10</title>
<g id="a_node10"><a xlink:href="classsoftwarecontainer_1_1_config_dependency_error.html" target="_top" xlink:title="softwarecontainer::\lConfigDependencyError">
<polygon fill="white" stroke="black" points="436.5,-735.5 436.5,-765.5 557.5,-765.5 557.5,-735.5 436.5,-735.5"/>
<text text-anchor="start" x="444.5" y="-753.5" font-family="Helvetica,sans-Serif" font-size="10.00">softwarecontainer::</text>
<text text-anchor="middle" x="497" y="-742.5" font-family="Helvetica,sans-Serif" font-size="10.00">ConfigDependencyError</text>
</a>
</g>
</g>
<!-- Node9&#45;&gt;Node10 -->
<g id="edge9" class="edge"><title>Node9&#45;&gt;Node10</title>
<path fill="none" stroke="midnightblue" d="M338.043,-627.125C356.607,-654.54 390.593,-699.435 430,-726.5 434.925,-729.882 440.382,-732.849 445.988,-735.435"/>
<polygon fill="midnightblue" stroke="midnightblue" points="340.799,-624.947 332.354,-618.549 334.966,-628.816 340.799,-624.947"/>
</g>
<!-- Node11 -->
<g id="node11" class="node"><title>Node11</title>
<g id="a_node11"><a xlink:href="classsoftwarecontainer_1_1_config_file_error.html" target="_top" xlink:title="An error occured in a Glib operation. ">
<polygon fill="white" stroke="black" points="447,-686.5 447,-716.5 547,-716.5 547,-686.5 447,-686.5"/>
<text text-anchor="start" x="455" y="-704.5" font-family="Helvetica,sans-Serif" font-size="10.00">softwarecontainer::</text>
<text text-anchor="middle" x="497" y="-693.5" font-family="Helvetica,sans-Serif" font-size="10.00">ConfigFileError</text>
</a>
</g>
</g>
<!-- Node9&#45;&gt;Node11 -->
<g id="edge10" class="edge"><title>Node9&#45;&gt;Node11</title>
<path fill="none" stroke="midnightblue" d="M349.868,-624.979C370.802,-640.98 401.077,-662.556 430,-677.5 436.283,-680.746 443.106,-683.753 449.903,-686.463"/>
<polygon fill="midnightblue" stroke="midnightblue" points="351.825,-622.068 341.775,-618.714 347.54,-627.603 351.825,-622.068"/>
</g>
<!-- Node12 -->
<g id="node12" class="node"><title>Node12</title>
<g id="a_node12"><a xlink:href="classsoftwarecontainer_1_1_config_internal_error.html" target="_top" xlink:title="An error occured which is an internal error in the config code. ">
<polygon fill="white" stroke="black" points="447,-637.5 447,-667.5 547,-667.5 547,-637.5 447,-637.5"/>
<text text-anchor="start" x="455" y="-655.5" font-family="Helvetica,sans-Serif" font-size="10.00">softwarecontainer::</text>
<text text-anchor="middle" x="497" y="-644.5" font-family="Helvetica,sans-Serif" font-size="10.00">ConfigInternalError</text>
</a>
</g>
</g>
<!-- Node9&#45;&gt;Node12 -->
<g id="edge11" class="edge"><title>Node9&#45;&gt;Node12</title>
<path fill="none" stroke="midnightblue" d="M381.93,-620.191C403.029,-626.167 426.572,-632.835 446.765,-638.555"/>
<polygon fill="midnightblue" stroke="midnightblue" points="382.687,-616.768 372.112,-617.41 380.78,-623.503 382.687,-616.768"/>
</g>
<!-- Node13 -->
<g id="node13" class="node"><title>Node13</title>
<g id="a_node13"><a xlink:href="classsoftwarecontainer_1_1_config_mandatory_error.html" target="_top" xlink:title="softwarecontainer::\lConfigMandatoryError">
<polygon fill="white" stroke="black" points="441,-588.5 441,-618.5 553,-618.5 553,-588.5 441,-588.5"/>
<text text-anchor="start" x="449" y="-606.5" font-family="Helvetica,sans-Serif" font-size="10.00">softwarecontainer::</text>
<text text-anchor="middle" x="497" y="-595.5" font-family="Helvetica,sans-Serif" font-size="10.00">ConfigMandatoryError</text>
</a>
</g>
</g>
<!-- Node9&#45;&gt;Node13 -->
<g id="edge12" class="edge"><title>Node9&#45;&gt;Node13</title>
<path fill="none" stroke="midnightblue" d="M382.168,-603.5C401.22,-603.5 422.243,-603.5 440.983,-603.5"/>
<polygon fill="midnightblue" stroke="midnightblue" points="382.112,-600 372.112,-603.5 382.112,-607 382.112,-600"/>
</g>
<!-- Node14 -->
<g id="node14" class="node"><title>Node14</title>
<g id="a_node14"><a xlink:href="classsoftwarecontainer_1_1_config_not_found_error.html" target="_top" xlink:title="A requested config item could not be found in any of the config sources. ">
<polygon fill="white" stroke="black" points="442.5,-539.5 442.5,-569.5 551.5,-569.5 551.5,-539.5 442.5,-539.5"/>
<text text-anchor="start" x="450.5" y="-557.5" font-family="Helvetica,sans-Serif" font-size="10.00">softwarecontainer::</text>
<text text-anchor="middle" x="497" y="-546.5" font-family="Helvetica,sans-Serif" font-size="10.00">ConfigNotFoundError</text>
</a>
</g>
</g>
<!-- Node9&#45;&gt;Node14 -->
<g id="edge13" class="edge"><title>Node9&#45;&gt;Node14</title>
<path fill="none" stroke="midnightblue" d="M381.914,-586.813C401.659,-581.221 423.547,-575.021 442.826,-569.561"/>
<polygon fill="midnightblue" stroke="midnightblue" points="380.78,-583.497 372.112,-589.59 382.687,-590.232 380.78,-583.497"/>
</g>
<!-- Node15 -->
<g id="node15" class="node"><title>Node15</title>
<g id="a_node15"><a xlink:href="classsoftwarecontainer_1_1_config_unknown_error.html" target="_top" xlink:title="A config is found which is not defined in ConfigDefinition. ">
<polygon fill="white" stroke="black" points="443.5,-490.5 443.5,-520.5 550.5,-520.5 550.5,-490.5 443.5,-490.5"/>
<text text-anchor="start" x="451.5" y="-508.5" font-family="Helvetica,sans-Serif" font-size="10.00">softwarecontainer::</text>
<text text-anchor="middle" x="497" y="-497.5" font-family="Helvetica,sans-Serif" font-size="10.00">ConfigUnknownError</text>
</a>
</g>
</g>
<!-- Node9&#45;&gt;Node15 -->
<g id="edge14" class="edge"><title>Node9&#45;&gt;Node15</title>
<path fill="none" stroke="midnightblue" d="M350.355,-582.159C371.327,-566.475 401.43,-545.388 430,-530.5 436.846,-526.933 444.319,-523.607 451.696,-520.62"/>
<polygon fill="midnightblue" stroke="midnightblue" points="348.096,-579.479 342.234,-588.304 352.32,-585.061 348.096,-579.479"/>
</g>
<!-- Node17 -->
<g id="node17" class="node"><title>Node17</title>
<g id="a_node17"><a xlink:href="classsoftwarecontainer_1_1_capability_parse_error.html" target="_top" xlink:title="An error occured in ConfigStore when parsing a Capability in a Service Manifest. ">
<polygon fill="white" stroke="black" points="443.5,-441.5 443.5,-471.5 550.5,-471.5 550.5,-441.5 443.5,-441.5"/>
<text text-anchor="start" x="451.5" y="-459.5" font-family="Helvetica,sans-Serif" font-size="10.00">softwarecontainer::</text>
<text text-anchor="middle" x="497" y="-448.5" font-family="Helvetica,sans-Serif" font-size="10.00">CapabilityParseError</text>
</a>
</g>
</g>
<!-- Node16&#45;&gt;Node17 -->
<g id="edge16" class="edge"><title>Node16&#45;&gt;Node17</title>
<path fill="none" stroke="midnightblue" d="M382.277,-456.5C402.137,-456.5 424.128,-456.5 443.437,-456.5"/>
<polygon fill="midnightblue" stroke="midnightblue" points="382.112,-453 372.112,-456.5 382.112,-460 382.112,-453"/>
</g>
<!-- Node18 -->
<g id="node18" class="node"><title>Node18</title>
<g id="a_node18"><a xlink:href="classsoftwarecontainer_1_1_service_manifest_parse_error.html" target="_top" xlink:title="An error occured in ConfigStore when parsing a Service Manifest. ">
<polygon fill="white" stroke="black" points="430,-392.5 430,-422.5 564,-422.5 564,-392.5 430,-392.5"/>
<text text-anchor="start" x="438" y="-410.5" font-family="Helvetica,sans-Serif" font-size="10.00">softwarecontainer::</text>
<text text-anchor="middle" x="497" y="-399.5" font-family="Helvetica,sans-Serif" font-size="10.00">ServiceManifestParseError</text>
</a>
</g>
</g>
<!-- Node16&#45;&gt;Node18 -->
<g id="edge17" class="edge"><title>Node16&#45;&gt;Node18</title>
<path fill="none" stroke="midnightblue" d="M381.914,-439.813C401.659,-434.221 423.547,-428.021 442.826,-422.561"/>
<polygon fill="midnightblue" stroke="midnightblue" points="380.78,-436.497 372.112,-442.59 382.687,-443.232 380.78,-436.497"/>
</g>
<!-- Node19 -->
<g id="node19" class="node"><title>Node19</title>
<g id="a_node19"><a xlink:href="classsoftwarecontainer_1_1_service_manifest_path_error.html" target="_top" xlink:title="An error occured in ConfigStore relating to the path to the Service Manifest(s) ">
<polygon fill="white" stroke="black" points="433,-343.5 433,-373.5 561,-373.5 561,-343.5 433,-343.5"/>
<text text-anchor="start" x="441" y="-361.5" font-family="Helvetica,sans-Serif" font-size="10.00">softwarecontainer::</text>
<text text-anchor="middle" x="497" y="-350.5" font-family="Helvetica,sans-Serif" font-size="10.00">ServiceManifestPathError</text>
</a>
</g>
</g>
<!-- Node16&#45;&gt;Node19 -->
<g id="edge18" class="edge"><title>Node16&#45;&gt;Node19</title>
<path fill="none" stroke="midnightblue" d="M381.516,-440.066C385.912,-437.839 390.134,-435.328 394,-432.5 415.811,-416.545 408.481,-399.846 430,-383.5 434.976,-379.72 440.589,-376.454 446.387,-373.647"/>
<polygon fill="midnightblue" stroke="midnightblue" points="379.965,-436.926 372.306,-444.247 382.859,-443.3 379.965,-436.926"/>
</g>
<!-- Node28 -->
<g id="node28" class="node"><title>Node28</title>
<g id="a_node28"><a xlink:href="classsoftwarecontainer_1_1_i_p_allocation_error.html" target="_top" xlink:title="softwarecontainer::\lIPAllocationError">
<polygon fill="white" stroke="black" points="447,-49.5 447,-79.5 547,-79.5 547,-49.5 447,-49.5"/>
<text text-anchor="start" x="455" y="-67.5" font-family="Helvetica,sans-Serif" font-size="10.00">softwarecontainer::</text>
<text text-anchor="middle" x="497" y="-56.5" font-family="Helvetica,sans-Serif" font-size="10.00">IPAllocationError</text>
</a>
</g>
</g>
<!-- Node27&#45;&gt;Node28 -->
<g id="edge27" class="edge"><title>Node27&#45;&gt;Node28</title>
<path fill="none" stroke="midnightblue" d="M388.9,-64.5C408.14,-64.5 428.823,-64.5 446.834,-64.5"/>
<polygon fill="midnightblue" stroke="midnightblue" points="388.691,-61.0001 378.691,-64.5 388.691,-68.0001 388.691,-61.0001"/>
</g>
</g>
</svg>
