<?xml version="1.0" encoding="UTF-8" standalone="no"?>
<!DOCTYPE svg PUBLIC "-//W3C//DTD SVG 1.1//EN"
 "http://www.w3.org/Graphics/SVG/1.1/DTD/svg11.dtd">
<!-- Generated by graphviz version 2.38.0 (20140413.2041)
 -->
<!-- Title: Graphical Class Hierarchy Pages: 1 -->
<svg width="572pt" height="872pt"
 viewBox="0.00 0.00 572.00 872.00" xmlns="http://www.w3.org/2000/svg" xmlns:xlink="http://www.w3.org/1999/xlink">
<g id="graph0" class="graph" transform="scale(1 1) rotate(0) translate(4 868)">
<title>Graphical Class Hierarchy</title>
<polygon fill="white" stroke="none" points="-4,4 -4,-868 568,-868 568,4 -4,4"/>
<!-- Node1 -->
<g id="node1" class="node"><title>Node1</title>
<polygon fill="white" stroke="#bfbfbf" points="0,-250 0,-269 59,-269 59,-250 0,-250"/>
<text text-anchor="middle" x="29.5" y="-257" font-family="Helvetica,sans-Serif" font-size="10.00">exception</text>
</g>
<!-- Node2 -->
<g id="node2" class="node"><title>Node2</title>
<g id="a_node2"><a xlink:href="classsoftwarecontainer_1_1_gateway_parser_error.html" target="_top" xlink:title="softwarecontainer::\lGatewayParserError">
<polygon fill="white" stroke="black" points="102,-269.5 102,-299.5 207,-299.5 207,-269.5 102,-269.5"/>
<text text-anchor="start" x="110" y="-287.5" font-family="Helvetica,sans-Serif" font-size="10.00">softwarecontainer::</text>
<text text-anchor="middle" x="154.5" y="-276.5" font-family="Helvetica,sans-Serif" font-size="10.00">GatewayParserError</text>
</a>
</g>
</g>
<!-- Node1&#45;&gt;Node2 -->
<g id="edge1" class="edge"><title>Node1&#45;&gt;Node2</title>
<path fill="none" stroke="midnightblue" d="M69.0594,-267.337C79.4877,-269.457 90.9432,-271.785 101.961,-274.025"/>
<polygon fill="midnightblue" stroke="midnightblue" points="69.5246,-263.86 59.0278,-265.298 68.1303,-270.72 69.5246,-263.86"/>
</g>
<!-- Node3 -->
<g id="node3" class="node"><title>Node3</title>
<g id="a_node3"><a xlink:href="classsoftwarecontainer_1_1_software_container_error.html" target="_top" xlink:title="softwarecontainer::\lSoftwareContainerError">
<polygon fill="white" stroke="black" points="95,-220.5 95,-250.5 214,-250.5 214,-220.5 95,-220.5"/>
<text text-anchor="start" x="103" y="-238.5" font-family="Helvetica,sans-Serif" font-size="10.00">softwarecontainer::</text>
<text text-anchor="middle" x="154.5" y="-227.5" font-family="Helvetica,sans-Serif" font-size="10.00">SoftwareContainerError</text>
</a>
</g>
</g>
<!-- Node1&#45;&gt;Node3 -->
<g id="edge2" class="edge"><title>Node1&#45;&gt;Node3</title>
<path fill="none" stroke="midnightblue" d="M68.9508,-251.997C77.0923,-250.409 85.8639,-248.697 94.5668,-246.999"/>
<polygon fill="midnightblue" stroke="midnightblue" points="68.1724,-248.583 59.0278,-253.934 69.5131,-255.454 68.1724,-248.583"/>
</g>
<!-- Node4 -->
<g id="node4" class="node"><title>Node4</title>
<g id="a_node4"><a xlink:href="classsoftwarecontainer_1_1_cgroups_gateway_error.html" target="_top" xlink:title="softwarecontainer::\lCgroupsGatewayError">
<polygon fill="white" stroke="black" points="265.5,-735.5 265.5,-765.5 378.5,-765.5 378.5,-735.5 265.5,-735.5"/>
<text text-anchor="start" x="273.5" y="-753.5" font-family="Helvetica,sans-Serif" font-size="10.00">softwarecontainer::</text>
<text text-anchor="middle" x="322" y="-742.5" font-family="Helvetica,sans-Serif" font-size="10.00">CgroupsGatewayError</text>
</a>
</g>
</g>
<!-- Node3&#45;&gt;Node4 -->
<g id="edge3" class="edge"><title>Node3&#45;&gt;Node4</title>
<path fill="none" stroke="midnightblue" d="M211.044,-257.043C212.092,-258.139 213.081,-259.291 214,-260.5 250.62,-308.697 236.651,-471.459 250,-530.5 267.791,-609.184 301.414,-699.933 315.04,-735.295"/>
<polygon fill="midnightblue" stroke="midnightblue" points="213.266,-254.338 203.361,-250.577 208.758,-259.694 213.266,-254.338"/>
</g>
<!-- Node9 -->
<g id="node9" class="node"><title>Node9</title>
<g id="a_node9"><a xlink:href="classsoftwarecontainer_1_1_config_error.html" target="_top" xlink:title="softwarecontainer::\lConfigError">
<polygon fill="white" stroke="black" points="272,-490.5 272,-520.5 372,-520.5 372,-490.5 272,-490.5"/>
<text text-anchor="start" x="280" y="-508.5" font-family="Helvetica,sans-Serif" font-size="10.00">softwarecontainer::</text>
<text text-anchor="middle" x="322" y="-497.5" font-family="Helvetica,sans-Serif" font-size="10.00">ConfigError</text>
</a>
</g>
</g>
<!-- Node3&#45;&gt;Node9 -->
<g id="edge8" class="edge"><title>Node3&#45;&gt;Node9</title>
<path fill="none" stroke="midnightblue" d="M210.211,-256.699C211.548,-257.9 212.816,-259.165 214,-260.5 251.808,-303.103 227.51,-331.168 250,-383.5 267.417,-424.027 295.443,-467.878 310.548,-490.343"/>
<polygon fill="midnightblue" stroke="midnightblue" points="212.028,-253.688 201.919,-250.518 207.845,-259.301 212.028,-253.688"/>
</g>
<!-- Node16 -->
<g id="node16" class="node"><title>Node16</title>
<g id="a_node16"><a xlink:href="classsoftwarecontainer_1_1_config_store_error.html" target="_top" xlink:title="softwarecontainer::\lConfigStoreError">
<polygon fill="white" stroke="black" points="272,-343.5 272,-373.5 372,-373.5 372,-343.5 272,-343.5"/>
<text text-anchor="start" x="280" y="-361.5" font-family="Helvetica,sans-Serif" font-size="10.00">softwarecontainer::</text>
<text text-anchor="middle" x="322" y="-350.5" font-family="Helvetica,sans-Serif" font-size="10.00">ConfigStoreError</text>
</a>
</g>
</g>
<!-- Node3&#45;&gt;Node16 -->
<g id="edge15" class="edge"><title>Node3&#45;&gt;Node16</title>
<path fill="none" stroke="midnightblue" d="M208.822,-256.119C210.64,-257.494 212.375,-258.953 214,-260.5 240.487,-285.722 222.551,-310.329 250,-334.5 256.25,-340.003 263.812,-344.255 271.64,-347.537"/>
<polygon fill="midnightblue" stroke="midnightblue" points="210.692,-253.16 200.408,-250.614 206.86,-259.018 210.692,-253.16"/>
</g>
<!-- Node20 -->
<g id="node20" class="node"><title>Node20</title>
<g id="a_node20"><a xlink:href="classsoftwarecontainer_1_1_container_error.html" target="_top" xlink:title="An error has occured in the underlying container implementation. ">
<polygon fill="white" stroke="black" points="272,-294.5 272,-324.5 372,-324.5 372,-294.5 272,-294.5"/>
<text text-anchor="start" x="280" y="-312.5" font-family="Helvetica,sans-Serif" font-size="10.00">softwarecontainer::</text>
<text text-anchor="middle" x="322" y="-301.5" font-family="Helvetica,sans-Serif" font-size="10.00">ContainerError</text>
</a>
</g>
</g>
<!-- Node3&#45;&gt;Node20 -->
<g id="edge19" class="edge"><title>Node3&#45;&gt;Node20</title>
<path fill="none" stroke="midnightblue" d="M203.118,-254.876C206.845,-256.687 210.512,-258.57 214,-260.5 231.044,-269.932 232.602,-276.739 250,-285.5 256.857,-288.953 264.324,-292.089 271.756,-294.87"/>
<polygon fill="midnightblue" stroke="midnightblue" points="204.343,-251.586 193.8,-250.539 201.389,-257.932 204.343,-251.586"/>
</g>
<!-- Node21 -->
<g id="node21" class="node"><title>Node21</title>
<g id="a_node21"><a xlink:href="classsoftwarecontainer_1_1_container_option_parse_error.html" target="_top" xlink:title="softwarecontainer::\lContainerOptionParseError">
<polygon fill="white" stroke="black" points="255,-245.5 255,-275.5 389,-275.5 389,-245.5 255,-245.5"/>
<text text-anchor="start" x="263" y="-263.5" font-family="Helvetica,sans-Serif" font-size="10.00">softwarecontainer::</text>
<text text-anchor="middle" x="322" y="-252.5" font-family="Helvetica,sans-Serif" font-size="10.00">ContainerOptionParseError</text>
</a>
</g>
</g>
<!-- Node3&#45;&gt;Node21 -->
<g id="edge20" class="edge"><title>Node3&#45;&gt;Node21</title>
<path fill="none" stroke="midnightblue" d="M224.281,-245.89C234.366,-247.413 244.735,-248.98 254.767,-250.495"/>
<polygon fill="midnightblue" stroke="midnightblue" points="224.726,-242.417 214.315,-244.384 223.68,-249.339 224.726,-242.417"/>
</g>
<!-- Node22 -->
<g id="node22" class="node"><title>Node22</title>
<g id="a_node22"><a xlink:href="classsoftwarecontainer_1_1_gateway_error.html" target="_top" xlink:title="softwarecontainer::\lGatewayError">
<polygon fill="white" stroke="black" points="272,-196.5 272,-226.5 372,-226.5 372,-196.5 272,-196.5"/>
<text text-anchor="start" x="280" y="-214.5" font-family="Helvetica,sans-Serif" font-size="10.00">softwarecontainer::</text>
<text text-anchor="middle" x="322" y="-203.5" font-family="Helvetica,sans-Serif" font-size="10.00">GatewayError</text>
</a>
</g>
</g>
<!-- Node3&#45;&gt;Node22 -->
<g id="edge21" class="edge"><title>Node3&#45;&gt;Node22</title>
<path fill="none" stroke="midnightblue" d="M224.632,-225.475C240.522,-223.17 257.101,-220.766 271.938,-218.615"/>
<polygon fill="midnightblue" stroke="midnightblue" points="223.709,-222.072 214.315,-226.971 224.714,-228.999 223.709,-222.072"/>
</g>
<!-- Node23 -->
<g id="node23" class="node"><title>Node23</title>
<g id="a_node23"><a xlink:href="classsoftwarecontainer_1_1_invalid_container_error.html" target="_top" xlink:title="The container instance is in an invalid state and should not be used. ">
<polygon fill="white" stroke="black" points="268,-147.5 268,-177.5 376,-177.5 376,-147.5 268,-147.5"/>
<text text-anchor="start" x="276" y="-165.5" font-family="Helvetica,sans-Serif" font-size="10.00">softwarecontainer::</text>
<text text-anchor="middle" x="322" y="-154.5" font-family="Helvetica,sans-Serif" font-size="10.00">InvalidContainerError</text>
</a>
</g>
</g>
<!-- Node3&#45;&gt;Node23 -->
<g id="edge22" class="edge"><title>Node3&#45;&gt;Node23</title>
<path fill="none" stroke="midnightblue" d="M191.95,-215.572C209.281,-206.464 230.444,-195.867 250,-187.5 258.05,-184.056 266.749,-180.702 275.207,-177.628"/>
<polygon fill="midnightblue" stroke="midnightblue" points="189.942,-212.675 182.75,-220.455 193.224,-218.858 189.942,-212.675"/>
</g>
<!-- Node24 -->
<g id="node24" class="node"><title>Node24</title>
<g id="a_node24"><a xlink:href="classsoftwarecontainer_1_1_invalid_operation_error.html" target="_top" xlink:title="A method was called which is inappropriate in the current state. ">
<polygon fill="white" stroke="black" points="268,-98.5 268,-128.5 376,-128.5 376,-98.5 268,-98.5"/>
<text text-anchor="start" x="276" y="-116.5" font-family="Helvetica,sans-Serif" font-size="10.00">softwarecontainer::</text>
<text text-anchor="middle" x="322" y="-105.5" font-family="Helvetica,sans-Serif" font-size="10.00">InvalidOperationError</text>
</a>
</g>
</g>
<!-- Node3&#45;&gt;Node24 -->
<g id="edge23" class="edge"><title>Node3&#45;&gt;Node24</title>
<path fill="none" stroke="midnightblue" d="M172.965,-212.175C190.348,-190.41 218.866,-158.39 250,-138.5 255.947,-134.701 262.544,-131.392 269.252,-128.536"/>
<polygon fill="midnightblue" stroke="midnightblue" points="170.055,-210.214 166.651,-220.247 175.568,-214.527 170.055,-210.214"/>
</g>
<!-- Node25 -->
<g id="node25" class="node"><title>Node25</title>
<g id="a_node25"><a xlink:href="classsoftwarecontainer_1_1_network_gateway_error.html" target="_top" xlink:title="softwarecontainer::\lNetworkGatewayError">
<polygon fill="white" stroke="black" points="265.5,-49.5 265.5,-79.5 378.5,-79.5 378.5,-49.5 265.5,-49.5"/>
<text text-anchor="start" x="273.5" y="-67.5" font-family="Helvetica,sans-Serif" font-size="10.00">softwarecontainer::</text>
<text text-anchor="middle" x="322" y="-56.5" font-family="Helvetica,sans-Serif" font-size="10.00">NetworkGatewayError</text>
</a>
</g>
</g>
<!-- Node3&#45;&gt;Node25 -->
<g id="edge24" class="edge"><title>Node3&#45;&gt;Node25</title>
<path fill="none" stroke="midnightblue" d="M165.418,-210.753C179.561,-178.458 208.488,-122.217 250,-89.5 254.927,-85.6173 260.502,-82.3116 266.309,-79.5032"/>
<polygon fill="midnightblue" stroke="midnightblue" points="162.035,-209.765 161.349,-220.337 168.479,-212.501 162.035,-209.765"/>
</g>
<!-- Node27 -->
<g id="node27" class="node"><title>Node27</title>
<g id="a_node27"><a xlink:href="classsoftwarecontainer_1_1_software_container_agent_error.html" target="_top" xlink:title="An error occured in SoftwareContainerAgent. ">
<polygon fill="white" stroke="black" points="250,-0.5 250,-30.5 394,-30.5 394,-0.5 250,-0.5"/>
<text text-anchor="start" x="258" y="-18.5" font-family="Helvetica,sans-Serif" font-size="10.00">softwarecontainer::</text>
<text text-anchor="middle" x="322" y="-7.5" font-family="Helvetica,sans-Serif" font-size="10.00">SoftwareContainerAgentError</text>
</a>
</g>
</g>
<!-- Node3&#45;&gt;Node27 -->
<g id="edge26" class="edge"><title>Node3&#45;&gt;Node27</title>
<path fill="none" stroke="midnightblue" d="M160.9,-210.484C171.113,-169.072 197.139,-86.2151 250,-39.5 253.9,-36.0535 258.315,-33.0981 262.988,-30.5644"/>
<polygon fill="midnightblue" stroke="midnightblue" points="157.473,-209.769 158.585,-220.305 164.286,-211.375 157.473,-209.769"/>
</g>
<!-- Node5 -->
<g id="node5" class="node"><title>Node5</title>
<g id="a_node5"><a xlink:href="classsoftwarecontainer_1_1_bad_suffix_error.html" target="_top" xlink:title="softwarecontainer::\lBadSuffixError">
<polygon fill="white" stroke="black" points="447,-833.5 447,-863.5 547,-863.5 547,-833.5 447,-833.5"/>
<text text-anchor="start" x="455" y="-851.5" font-family="Helvetica,sans-Serif" font-size="10.00">softwarecontainer::</text>
<text text-anchor="middle" x="497" y="-840.5" font-family="Helvetica,sans-Serif" font-size="10.00">BadSuffixError</text>
</a>
</g>
</g>
<!-- Node4&#45;&gt;Node5 -->
<g id="edge4" class="edge"><title>Node4&#45;&gt;Node5</title>
<path fill="none" stroke="midnightblue" d="M349.868,-771.979C370.802,-787.98 401.077,-809.556 430,-824.5 436.283,-827.746 443.106,-830.753 449.903,-833.463"/>
<polygon fill="midnightblue" stroke="midnightblue" points="351.825,-769.068 341.775,-765.714 347.54,-774.603 351.825,-769.068"/>
</g>
<!-- Node6 -->
<g id="node6" class="node"><title>Node6</title>
<g id="a_node6"><a xlink:href="classsoftwarecontainer_1_1_hex_format_error.html" target="_top" xlink:title="softwarecontainer::\lHexFormatError">
<polygon fill="white" stroke="black" points="447,-784.5 447,-814.5 547,-814.5 547,-784.5 447,-784.5"/>
<text text-anchor="start" x="455" y="-802.5" font-family="Helvetica,sans-Serif" font-size="10.00">softwarecontainer::</text>
<text text-anchor="middle" x="497" y="-791.5" font-family="Helvetica,sans-Serif" font-size="10.00">HexFormatError</text>
</a>
</g>
</g>
<!-- Node4&#45;&gt;Node6 -->
<g id="edge5" class="edge"><title>Node4&#45;&gt;Node6</title>
<path fill="none" stroke="midnightblue" d="M386.014,-768.348C406.109,-774.04 428.033,-780.249 446.983,-785.616"/>
<polygon fill="midnightblue" stroke="midnightblue" points="386.893,-764.959 376.317,-765.601 384.985,-771.694 386.893,-764.959"/>
</g>
<!-- Node7 -->
<g id="node7" class="node"><title>Node7</title>
<g id="a_node7"><a xlink:href="classsoftwarecontainer_1_1_j_son_error.html" target="_top" xlink:title="softwarecontainer::\lJSonError">
<polygon fill="white" stroke="black" points="447,-735.5 447,-765.5 547,-765.5 547,-735.5 447,-735.5"/>
<text text-anchor="start" x="455" y="-753.5" font-family="Helvetica,sans-Serif" font-size="10.00">softwarecontainer::</text>
<text text-anchor="middle" x="497" y="-742.5" font-family="Helvetica,sans-Serif" font-size="10.00">JSonError</text>
</a>
</g>
</g>
<!-- Node4&#45;&gt;Node7 -->
<g id="edge6" class="edge"><title>Node4&#45;&gt;Node7</title>
<path fill="none" stroke="midnightblue" d="M388.9,-750.5C408.14,-750.5 428.823,-750.5 446.834,-750.5"/>
<polygon fill="midnightblue" stroke="midnightblue" points="388.691,-747 378.691,-750.5 388.691,-754 388.691,-747"/>
</g>
<!-- Node8 -->
<g id="node8" class="node"><title>Node8</title>
<g id="a_node8"><a xlink:href="classsoftwarecontainer_1_1_limit_range_error.html" target="_top" xlink:title="softwarecontainer::\lLimitRangeError">
<polygon fill="white" stroke="black" points="447,-686.5 447,-716.5 547,-716.5 547,-686.5 447,-686.5"/>
<text text-anchor="start" x="455" y="-704.5" font-family="Helvetica,sans-Serif" font-size="10.00">softwarecontainer::</text>
<text text-anchor="middle" x="497" y="-693.5" font-family="Helvetica,sans-Serif" font-size="10.00">LimitRangeError</text>
</a>
</g>
</g>
<!-- Node4&#45;&gt;Node8 -->
<g id="edge7" class="edge"><title>Node4&#45;&gt;Node8</title>
<path fill="none" stroke="midnightblue" d="M386.014,-732.652C406.109,-726.96 428.033,-720.751 446.983,-715.384"/>
<polygon fill="midnightblue" stroke="midnightblue" points="384.985,-729.306 376.317,-735.399 386.893,-736.041 384.985,-729.306"/>
</g>
<!-- Node10 -->
<g id="node10" class="node"><title>Node10</title>
<g id="a_node10"><a xlink:href="classsoftwarecontainer_1_1_config_dependency_error.html" target="_top" xlink:title="softwarecontainer::\lConfigDependencyError">
<polygon fill="white" stroke="black" points="436.5,-637.5 436.5,-667.5 557.5,-667.5 557.5,-637.5 436.5,-637.5"/>
<text text-anchor="start" x="444.5" y="-655.5" font-family="Helvetica,sans-Serif" font-size="10.00">softwarecontainer::</text>
<text text-anchor="middle" x="497" y="-644.5" font-family="Helvetica,sans-Serif" font-size="10.00">ConfigDependencyError</text>
</a>
</g>
</g>
<!-- Node9&#45;&gt;Node10 -->
<g id="edge9" class="edge"><title>Node9&#45;&gt;Node10</title>
<path fill="none" stroke="midnightblue" d="M338.043,-529.125C356.607,-556.54 390.593,-601.435 430,-628.5 434.925,-631.882 440.382,-634.849 445.988,-637.435"/>
<polygon fill="midnightblue" stroke="midnightblue" points="340.799,-526.947 332.354,-520.549 334.966,-530.816 340.799,-526.947"/>
</g>
<!-- Node11 -->
<g id="node11" class="node"><title>Node11</title>
<g id="a_node11"><a xlink:href="classsoftwarecontainer_1_1_config_file_error.html" target="_top" xlink:title="An error occured in a Glib operation. ">
<polygon fill="white" stroke="black" points="447,-588.5 447,-618.5 547,-618.5 547,-588.5 447,-588.5"/>
<text text-anchor="start" x="455" y="-606.5" font-family="Helvetica,sans-Serif" font-size="10.00">softwarecontainer::</text>
<text text-anchor="middle" x="497" y="-595.5" font-family="Helvetica,sans-Serif" font-size="10.00">ConfigFileError</text>
</a>
</g>
</g>
<!-- Node9&#45;&gt;Node11 -->
<g id="edge10" class="edge"><title>Node9&#45;&gt;Node11</title>
<path fill="none" stroke="midnightblue" d="M349.868,-526.979C370.802,-542.98 401.077,-564.556 430,-579.5 436.283,-582.746 443.106,-585.753 449.903,-588.463"/>
<polygon fill="midnightblue" stroke="midnightblue" points="351.825,-524.068 341.775,-520.714 347.54,-529.603 351.825,-524.068"/>
</g>
<!-- Node12 -->
<g id="node12" class="node"><title>Node12</title>
<g id="a_node12"><a xlink:href="classsoftwarecontainer_1_1_config_internal_error.html" target="_top" xlink:title="An error occured which is an internal error in the config code. ">
<polygon fill="white" stroke="black" points="447,-539.5 447,-569.5 547,-569.5 547,-539.5 447,-539.5"/>
<text text-anchor="start" x="455" y="-557.5" font-family="Helvetica,sans-Serif" font-size="10.00">softwarecontainer::</text>
<text text-anchor="middle" x="497" y="-546.5" font-family="Helvetica,sans-Serif" font-size="10.00">ConfigInternalError</text>
</a>
</g>
</g>
<!-- Node9&#45;&gt;Node12 -->
<g id="edge11" class="edge"><title>Node9&#45;&gt;Node12</title>
<path fill="none" stroke="midnightblue" d="M381.93,-522.191C403.029,-528.167 426.572,-534.835 446.765,-540.555"/>
<polygon fill="midnightblue" stroke="midnightblue" points="382.687,-518.768 372.112,-519.41 380.78,-525.503 382.687,-518.768"/>
</g>
<!-- Node13 -->
<g id="node13" class="node"><title>Node13</title>
<g id="a_node13"><a xlink:href="classsoftwarecontainer_1_1_config_mandatory_error.html" target="_top" xlink:title="softwarecontainer::\lConfigMandatoryError">
<polygon fill="white" stroke="black" points="441,-490.5 441,-520.5 553,-520.5 553,-490.5 441,-490.5"/>
<text text-anchor="start" x="449" y="-508.5" font-family="Helvetica,sans-Serif" font-size="10.00">softwarecontainer::</text>
<text text-anchor="middle" x="497" y="-497.5" font-family="Helvetica,sans-Serif" font-size="10.00">ConfigMandatoryError</text>
</a>
</g>
</g>
<!-- Node9&#45;&gt;Node13 -->
<g id="edge12" class="edge"><title>Node9&#45;&gt;Node13</title>
<path fill="none" stroke="midnightblue" d="M382.168,-505.5C401.22,-505.5 422.243,-505.5 440.983,-505.5"/>
<polygon fill="midnightblue" stroke="midnightblue" points="382.112,-502 372.112,-505.5 382.112,-509 382.112,-502"/>
</g>
<!-- Node14 -->
<g id="node14" class="node"><title>Node14</title>
<g id="a_node14"><a xlink:href="classsoftwarecontainer_1_1_config_not_found_error.html" target="_top" xlink:title="A requested config item could not be found in any of the config sources. ">
<polygon fill="white" stroke="black" points="442.5,-441.5 442.5,-471.5 551.5,-471.5 551.5,-441.5 442.5,-441.5"/>
<text text-anchor="start" x="450.5" y="-459.5" font-family="Helvetica,sans-Serif" font-size="10.00">softwarecontainer::</text>
<text text-anchor="middle" x="497" y="-448.5" font-family="Helvetica,sans-Serif" font-size="10.00">ConfigNotFoundError</text>
</a>
</g>
</g>
<!-- Node9&#45;&gt;Node14 -->
<g id="edge13" class="edge"><title>Node9&#45;&gt;Node14</title>
<path fill="none" stroke="midnightblue" d="M381.914,-488.813C401.659,-483.221 423.547,-477.021 442.826,-471.561"/>
<polygon fill="midnightblue" stroke="midnightblue" points="380.78,-485.497 372.112,-491.59 382.687,-492.232 380.78,-485.497"/>
</g>
<!-- Node15 -->
<g id="node15" class="node"><title>Node15</title>
<g id="a_node15"><a xlink:href="classsoftwarecontainer_1_1_config_unknown_error.html" target="_top" xlink:title="A config is found which is not defined in ConfigDefinition. ">
<polygon fill="white" stroke="black" points="443.5,-392.5 443.5,-422.5 550.5,-422.5 550.5,-392.5 443.5,-392.5"/>
<text text-anchor="start" x="451.5" y="-410.5" font-family="Helvetica,sans-Serif" font-size="10.00">softwarecontainer::</text>
<text text-anchor="middle" x="497" y="-399.5" font-family="Helvetica,sans-Serif" font-size="10.00">ConfigUnknownError</text>
</a>
</g>
</g>
<!-- Node9&#45;&gt;Node15 -->
<g id="edge14" class="edge"><title>Node9&#45;&gt;Node15</title>
<path fill="none" stroke="midnightblue" d="M350.355,-484.159C371.327,-468.475 401.43,-447.388 430,-432.5 436.846,-428.933 444.319,-425.607 451.696,-422.62"/>
<polygon fill="midnightblue" stroke="midnightblue" points="348.096,-481.479 342.234,-490.304 352.32,-487.061 348.096,-481.479"/>
</g>
<!-- Node17 -->
<g id="node17" class="node"><title>Node17</title>
<g id="a_node17"><a xlink:href="classsoftwarecontainer_1_1_capability_parse_error.html" target="_top" xlink:title="An error occured in ConfigStore when parsing a Capability in a Service Manifest. ">
<polygon fill="white" stroke="black" points="443.5,-343.5 443.5,-373.5 550.5,-373.5 550.5,-343.5 443.5,-343.5"/>
<text text-anchor="start" x="451.5" y="-361.5" font-family="Helvetica,sans-Serif" font-size="10.00">softwarecontainer::</text>
<text text-anchor="middle" x="497" y="-350.5" font-family="Helvetica,sans-Serif" font-size="10.00">CapabilityParseError</text>
</a>
</g>
</g>
<!-- Node16&#45;&gt;Node17 -->
<g id="edge16" class="edge"><title>Node16&#45;&gt;Node17</title>
<path fill="none" stroke="midnightblue" d="M382.277,-358.5C402.137,-358.5 424.128,-358.5 443.437,-358.5"/>
<polygon fill="midnightblue" stroke="midnightblue" points="382.112,-355 372.112,-358.5 382.112,-362 382.112,-355"/>
</g>
<!-- Node18 -->
<g id="node18" class="node"><title>Node18</title>
<g id="a_node18"><a xlink:href="classsoftwarecontainer_1_1_service_manifest_parse_error.html" target="_top" xlink:title="An error occured in ConfigStore when parsing a Service Manifest. ">
<polygon fill="white" stroke="black" points="430,-294.5 430,-324.5 564,-324.5 564,-294.5 430,-294.5"/>
<text text-anchor="start" x="438" y="-312.5" font-family="Helvetica,sans-Serif" font-size="10.00">softwarecontainer::</text>
<text text-anchor="middle" x="497" y="-301.5" font-family="Helvetica,sans-Serif" font-size="10.00">ServiceManifestParseError</text>
</a>
</g>
</g>
<!-- Node16&#45;&gt;Node18 -->
<g id="edge17" class="edge"><title>Node16&#45;&gt;Node18</title>
<path fill="none" stroke="midnightblue" d="M381.914,-341.813C401.659,-336.221 423.547,-330.021 442.826,-324.561"/>
<polygon fill="midnightblue" stroke="midnightblue" points="380.78,-338.497 372.112,-344.59 382.687,-345.232 380.78,-338.497"/>
</g>
<!-- Node19 -->
<g id="node19" class="node"><title>Node19</title>
<g id="a_node19"><a xlink:href="classsoftwarecontainer_1_1_service_manifest_path_error.html" target="_top" xlink:title="An error occured in ConfigStore relating to the path to the Service Manifest(s) ">
<polygon fill="white" stroke="black" points="433,-245.5 433,-275.5 561,-275.5 561,-245.5 433,-245.5"/>
<text text-anchor="start" x="441" y="-263.5" font-family="Helvetica,sans-Serif" font-size="10.00">softwarecontainer::</text>
<text text-anchor="middle" x="497" y="-252.5" font-family="Helvetica,sans-Serif" font-size="10.00">ServiceManifestPathError</text>
</a>
</g>
</g>
<!-- Node16&#45;&gt;Node19 -->
<g id="edge18" class="edge"><title>Node16&#45;&gt;Node19</title>
<path fill="none" stroke="midnightblue" d="M381.516,-342.066C385.912,-339.839 390.134,-337.328 394,-334.5 415.811,-318.545 408.481,-301.846 430,-285.5 434.976,-281.72 440.589,-278.454 446.387,-275.647"/>
<polygon fill="midnightblue" stroke="midnightblue" points="379.965,-338.926 372.306,-346.247 382.859,-345.3 379.965,-338.926"/>
</g>
<!-- Node26 -->
<g id="node26" class="node"><title>Node26</title>
<g id="a_node26"><a xlink:href="classsoftwarecontainer_1_1_i_p_allocation_error.html" target="_top" xlink:title="softwarecontainer::\lIPAllocationError">
<polygon fill="white" stroke="black" points="447,-49.5 447,-79.5 547,-79.5 547,-49.5 447,-49.5"/>
<text text-anchor="start" x="455" y="-67.5" font-family="Helvetica,sans-Serif" font-size="10.00">softwarecontainer::</text>
<text text-anchor="middle" x="497" y="-56.5" font-family="Helvetica,sans-Serif" font-size="10.00">IPAllocationError</text>
</a>
</g>
</g>
<!-- Node25&#45;&gt;Node26 -->
<g id="edge25" class="edge"><title>Node25&#45;&gt;Node26</title>
<path fill="none" stroke="midnightblue" d="M388.9,-64.5C408.14,-64.5 428.823,-64.5 446.834,-64.5"/>
<polygon fill="midnightblue" stroke="midnightblue" points="388.691,-61.0001 378.691,-64.5 388.691,-68.0001 388.691,-61.0001"/>
</g>
</g>
</svg>
