<?xml version="1.0" encoding="UTF-8" standalone="no"?>
<!DOCTYPE svg PUBLIC "-//W3C//DTD SVG 1.1//EN"
 "http://www.w3.org/Graphics/SVG/1.1/DTD/svg11.dtd">
<!-- Generated by graphviz version 2.38.0 (20140413.2041)
 -->
<!-- Title: Graphical Class Hierarchy Pages: 1 -->
<svg width="244pt" height="137pt"
 viewBox="0.00 0.00 244.00 137.00" xmlns="http://www.w3.org/2000/svg" xmlns:xlink="http://www.w3.org/1999/xlink">
<g id="graph0" class="graph" transform="scale(1 1) rotate(0) translate(4 133)">
<title>Graphical Class Hierarchy</title>
<polygon fill="white" stroke="none" points="-4,4 -4,-133 240,-133 240,4 -4,4"/>
<!-- Node1 -->
<g id="node1" class="node"><title>Node1</title>
<g id="a_node1"><a xlink:href="classsoftwarecontainer_1_1_config_item.html" target="_top" xlink:title="Base class for all config item types. ">
<polygon fill="white" stroke="black" points="0,-49.5 0,-79.5 100,-79.5 100,-49.5 0,-49.5"/>
<text text-anchor="start" x="8" y="-67.5" font-family="Helvetica,sans-Serif" font-size="10.00">softwarecontainer::</text>
<text text-anchor="middle" x="50" y="-56.5" font-family="Helvetica,sans-Serif" font-size="10.00">ConfigItem</text>
</a>
</g>
</g>
<!-- Node2 -->
<g id="node2" class="node"><title>Node2</title>
<g id="a_node2"><a xlink:href="classsoftwarecontainer_1_1_bool_config.html" target="_top" xlink:title="Represents a config item of type bool. ">
<polygon fill="white" stroke="black" points="136,-98.5 136,-128.5 236,-128.5 236,-98.5 136,-98.5"/>
<text text-anchor="start" x="144" y="-116.5" font-family="Helvetica,sans-Serif" font-size="10.00">softwarecontainer::</text>
<text text-anchor="middle" x="186" y="-105.5" font-family="Helvetica,sans-Serif" font-size="10.00">BoolConfig</text>
</a>
</g>
</g>
<!-- Node1&#45;&gt;Node2 -->
<g id="edge1" class="edge"><title>Node1&#45;&gt;Node2</title>
<path fill="none" stroke="midnightblue" d="M102.088,-83.1816C115.812,-88.2001 130.482,-93.5643 143.608,-98.3641"/>
<polygon fill="midnightblue" stroke="midnightblue" points="102.892,-79.7487 92.2978,-79.6014 100.488,-86.3229 102.892,-79.7487"/>
</g>
<!-- Node3 -->
<g id="node3" class="node"><title>Node3</title>
<g id="a_node3"><a xlink:href="classsoftwarecontainer_1_1_int_config.html" target="_top" xlink:title="Represents a config item of type int. ">
<polygon fill="white" stroke="black" points="136,-49.5 136,-79.5 236,-79.5 236,-49.5 136,-49.5"/>
<text text-anchor="start" x="144" y="-67.5" font-family="Helvetica,sans-Serif" font-size="10.00">softwarecontainer::</text>
<text text-anchor="middle" x="186" y="-56.5" font-family="Helvetica,sans-Serif" font-size="10.00">IntConfig</text>
</a>
</g>
</g>
<!-- Node1&#45;&gt;Node3 -->
<g id="edge2" class="edge"><title>Node1&#45;&gt;Node3</title>
<path fill="none" stroke="midnightblue" d="M110.398,-64.5C118.909,-64.5 127.586,-64.5 135.87,-64.5"/>
<polygon fill="midnightblue" stroke="midnightblue" points="110.136,-61.0001 100.136,-64.5 110.136,-68.0001 110.136,-61.0001"/>
</g>
<!-- Node4 -->
<g id="node4" class="node"><title>Node4</title>
<g id="a_node4"><a xlink:href="classsoftwarecontainer_1_1_string_config.html" target="_top" xlink:title="Represents a config item of type string. ">
<polygon fill="white" stroke="black" points="136,-0.5 136,-30.5 236,-30.5 236,-0.5 136,-0.5"/>
<text text-anchor="start" x="144" y="-18.5" font-family="Helvetica,sans-Serif" font-size="10.00">softwarecontainer::</text>
<text text-anchor="middle" x="186" y="-7.5" font-family="Helvetica,sans-Serif" font-size="10.00">StringConfig</text>
</a>
</g>
</g>
<!-- Node1&#45;&gt;Node4 -->
<g id="edge3" class="edge"><title>Node1&#45;&gt;Node4</title>
<path fill="none" stroke="midnightblue" d="M102.088,-45.8184C115.812,-40.7999 130.482,-35.4357 143.608,-30.6359"/>
<polygon fill="midnightblue" stroke="midnightblue" points="100.488,-42.6771 92.2978,-49.3986 102.892,-49.2513 100.488,-42.6771"/>
</g>
</g>
</svg>
