<?xml version="1.0" encoding="UTF-8" standalone="no"?>
<!DOCTYPE svg PUBLIC "-//W3C//DTD SVG 1.1//EN"
 "http://www.w3.org/Graphics/SVG/1.1/DTD/svg11.dtd">
<!-- Generated by graphviz version 2.38.0 (20140413.2041)
 -->
<!-- Title: Graphical Class Hierarchy Pages: 1 -->
<svg width="572pt" height="921pt"
 viewBox="0.00 0.00 572.00 921.00" xmlns="http://www.w3.org/2000/svg" xmlns:xlink="http://www.w3.org/1999/xlink">
<g id="graph0" class="graph" transform="scale(1 1) rotate(0) translate(4 917)">
<title>Graphical Class Hierarchy</title>
<polygon fill="white" stroke="none" points="-4,4 -4,-917 568,-917 568,4 -4,4"/>
<!-- Node1 -->
<g id="node1" class="node"><title>Node1</title>
<polygon fill="white" stroke="#bfbfbf" points="0,-275 0,-294 59,-294 59,-275 0,-275"/>
<text text-anchor="middle" x="29.5" y="-282" font-family="Helvetica,sans-Serif" font-size="10.00">exception</text>
</g>
<!-- Node2 -->
<g id="node2" class="node"><title>Node2</title>
<g id="a_node2"><a xlink:href="classsoftwarecontainer_1_1_gateway_parser_error.html" target="_top" xlink:title="softwarecontainer::\lGatewayParserError">
<polygon fill="white" stroke="black" points="102,-294.5 102,-324.5 207,-324.5 207,-294.5 102,-294.5"/>
<text text-anchor="start" x="110" y="-312.5" font-family="Helvetica,sans-Serif" font-size="10.00">softwarecontainer::</text>
<text text-anchor="middle" x="154.5" y="-301.5" font-family="Helvetica,sans-Serif" font-size="10.00">GatewayParserError</text>
</a>
</g>
</g>
<!-- Node1&#45;&gt;Node2 -->
<g id="edge1" class="edge"><title>Node1&#45;&gt;Node2</title>
<path fill="none" stroke="midnightblue" d="M69.0594,-292.337C79.4877,-294.457 90.9432,-296.785 101.961,-299.025"/>
<polygon fill="midnightblue" stroke="midnightblue" points="69.5246,-288.86 59.0278,-290.298 68.1303,-295.72 69.5246,-288.86"/>
</g>
<!-- Node3 -->
<g id="node3" class="node"><title>Node3</title>
<g id="a_node3"><a xlink:href="classsoftwarecontainer_1_1_software_container_error.html" target="_top" xlink:title="softwarecontainer::\lSoftwareContainerError">
<polygon fill="white" stroke="black" points="95,-245.5 95,-275.5 214,-275.5 214,-245.5 95,-245.5"/>
<text text-anchor="start" x="103" y="-263.5" font-family="Helvetica,sans-Serif" font-size="10.00">softwarecontainer::</text>
<text text-anchor="middle" x="154.5" y="-252.5" font-family="Helvetica,sans-Serif" font-size="10.00">SoftwareContainerError</text>
</a>
</g>
</g>
<!-- Node1&#45;&gt;Node3 -->
<g id="edge2" class="edge"><title>Node1&#45;&gt;Node3</title>
<path fill="none" stroke="midnightblue" d="M68.9508,-276.997C77.0923,-275.409 85.8639,-273.697 94.5668,-271.999"/>
<polygon fill="midnightblue" stroke="midnightblue" points="68.1724,-273.583 59.0278,-278.934 69.5131,-280.454 68.1724,-273.583"/>
</g>
<!-- Node4 -->
<g id="node4" class="node"><title>Node4</title>
<g id="a_node4"><a xlink:href="classsoftwarecontainer_1_1_cgroups_gateway_error.html" target="_top" xlink:title="softwarecontainer::\lCgroupsGatewayError">
<polygon fill="white" stroke="black" points="265.5,-784.5 265.5,-814.5 378.5,-814.5 378.5,-784.5 265.5,-784.5"/>
<text text-anchor="start" x="273.5" y="-802.5" font-family="Helvetica,sans-Serif" font-size="10.00">softwarecontainer::</text>
<text text-anchor="middle" x="322" y="-791.5" font-family="Helvetica,sans-Serif" font-size="10.00">CgroupsGatewayError</text>
</a>
</g>
</g>
<!-- Node3&#45;&gt;Node4 -->
<g id="edge3" class="edge"><title>Node3&#45;&gt;Node4</title>
<path fill="none" stroke="midnightblue" d="M211.061,-282.03C212.105,-283.13 213.088,-284.286 214,-285.5 253.54,-338.122 235.828,-515.222 250,-579.5 267.369,-658.278 301.233,-748.973 314.982,-784.308"/>
<polygon fill="midnightblue" stroke="midnightblue" points="213.297,-279.337 203.404,-275.545 208.773,-284.679 213.297,-279.337"/>
</g>
<!-- Node9 -->
<g id="node9" class="node"><title>Node9</title>
<g id="a_node9"><a xlink:href="classsoftwarecontainer_1_1_config_error.html" target="_top" xlink:title="softwarecontainer::\lConfigError">
<polygon fill="white" stroke="black" points="272,-539.5 272,-569.5 372,-569.5 372,-539.5 272,-539.5"/>
<text text-anchor="start" x="280" y="-557.5" font-family="Helvetica,sans-Serif" font-size="10.00">softwarecontainer::</text>
<text text-anchor="middle" x="322" y="-546.5" font-family="Helvetica,sans-Serif" font-size="10.00">ConfigError</text>
</a>
</g>
</g>
<!-- Node3&#45;&gt;Node9 -->
<g id="edge8" class="edge"><title>Node3&#45;&gt;Node9</title>
<path fill="none" stroke="midnightblue" d="M210.374,-281.709C211.657,-282.906 212.87,-284.168 214,-285.5 257.515,-336.792 224.825,-370.125 250,-432.5 266.51,-473.405 294.904,-517.102 310.308,-539.442"/>
<polygon fill="midnightblue" stroke="midnightblue" points="212.435,-278.878 202.377,-275.548 208.163,-284.423 212.435,-278.878"/>
</g>
<!-- Node16 -->
<g id="node16" class="node"><title>Node16</title>
<g id="a_node16"><a xlink:href="classsoftwarecontainer_1_1_config_store_error.html" target="_top" xlink:title="softwarecontainer::\lConfigStoreError">
<polygon fill="white" stroke="black" points="272,-392.5 272,-422.5 372,-422.5 372,-392.5 272,-392.5"/>
<text text-anchor="start" x="280" y="-410.5" font-family="Helvetica,sans-Serif" font-size="10.00">softwarecontainer::</text>
<text text-anchor="middle" x="322" y="-399.5" font-family="Helvetica,sans-Serif" font-size="10.00">ConfigStoreError</text>
</a>
</g>
</g>
<!-- Node3&#45;&gt;Node16 -->
<g id="edge15" class="edge"><title>Node3&#45;&gt;Node16</title>
<path fill="none" stroke="midnightblue" d="M209.624,-281.408C211.166,-282.696 212.631,-284.058 214,-285.5 245.95,-319.15 216.764,-351.12 250,-383.5 256.151,-389.493 263.85,-393.991 271.889,-397.366"/>
<polygon fill="midnightblue" stroke="midnightblue" points="211.559,-278.49 201.372,-275.579 207.52,-284.207 211.559,-278.49"/>
</g>
<!-- Node20 -->
<g id="node20" class="node"><title>Node20</title>
<g id="a_node20"><a xlink:href="classsoftwarecontainer_1_1_container_error.html" target="_top" xlink:title="An error has occured in the underlying container implementation. ">
<polygon fill="white" stroke="black" points="272,-343.5 272,-373.5 372,-373.5 372,-343.5 272,-343.5"/>
<text text-anchor="start" x="280" y="-361.5" font-family="Helvetica,sans-Serif" font-size="10.00">softwarecontainer::</text>
<text text-anchor="middle" x="322" y="-350.5" font-family="Helvetica,sans-Serif" font-size="10.00">ContainerError</text>
</a>
</g>
</g>
<!-- Node3&#45;&gt;Node20 -->
<g id="edge19" class="edge"><title>Node3&#45;&gt;Node20</title>
<path fill="none" stroke="midnightblue" d="M207.419,-280.812C209.71,-282.287 211.918,-283.849 214,-285.5 235.173,-302.292 228.189,-318.545 250,-334.5 256.511,-339.263 264.033,-343.127 271.694,-346.247"/>
<polygon fill="midnightblue" stroke="midnightblue" points="208.672,-277.496 198.257,-275.553 205.187,-283.567 208.672,-277.496"/>
</g>
<!-- Node21 -->
<g id="node21" class="node"><title>Node21</title>
<g id="a_node21"><a xlink:href="classsoftwarecontainer_1_1_container_option_parse_error.html" target="_top" xlink:title="softwarecontainer::\lContainerOptionParseError">
<polygon fill="white" stroke="black" points="255,-294.5 255,-324.5 389,-324.5 389,-294.5 255,-294.5"/>
<text text-anchor="start" x="263" y="-312.5" font-family="Helvetica,sans-Serif" font-size="10.00">softwarecontainer::</text>
<text text-anchor="middle" x="322" y="-301.5" font-family="Helvetica,sans-Serif" font-size="10.00">ContainerOptionParseError</text>
</a>
</g>
</g>
<!-- Node3&#45;&gt;Node21 -->
<g id="edge20" class="edge"><title>Node3&#45;&gt;Node21</title>
<path fill="none" stroke="midnightblue" d="M216.184,-278.467C233.917,-283.717 253.108,-289.399 270.163,-294.448"/>
<polygon fill="midnightblue" stroke="midnightblue" points="217.088,-275.084 206.506,-275.601 215.101,-281.796 217.088,-275.084"/>
</g>
<!-- Node22 -->
<g id="node22" class="node"><title>Node22</title>
<g id="a_node22"><a xlink:href="classsoftwarecontainer_1_1_container_utility_interface_error.html" target="_top" xlink:title="An error occured in ContainerUtilityInterface. ">
<polygon fill="white" stroke="black" points="250.5,-245.5 250.5,-275.5 393.5,-275.5 393.5,-245.5 250.5,-245.5"/>
<text text-anchor="start" x="258.5" y="-263.5" font-family="Helvetica,sans-Serif" font-size="10.00">softwarecontainer::</text>
<text text-anchor="middle" x="322" y="-252.5" font-family="Helvetica,sans-Serif" font-size="10.00">ContainerUtilityInterfaceError</text>
</a>
</g>
</g>
<!-- Node3&#45;&gt;Node22 -->
<g id="edge21" class="edge"><title>Node3&#45;&gt;Node22</title>
<path fill="none" stroke="midnightblue" d="M224.335,-260.5C232.972,-260.5 241.817,-260.5 250.479,-260.5"/>
<polygon fill="midnightblue" stroke="midnightblue" points="224.315,-257 214.315,-260.5 224.315,-264 224.315,-257"/>
</g>
<!-- Node23 -->
<g id="node23" class="node"><title>Node23</title>
<g id="a_node23"><a xlink:href="classsoftwarecontainer_1_1_gateway_error.html" target="_top" xlink:title="softwarecontainer::\lGatewayError">
<polygon fill="white" stroke="black" points="272,-196.5 272,-226.5 372,-226.5 372,-196.5 272,-196.5"/>
<text text-anchor="start" x="280" y="-214.5" font-family="Helvetica,sans-Serif" font-size="10.00">softwarecontainer::</text>
<text text-anchor="middle" x="322" y="-203.5" font-family="Helvetica,sans-Serif" font-size="10.00">GatewayError</text>
</a>
</g>
</g>
<!-- Node3&#45;&gt;Node23 -->
<g id="edge22" class="edge"><title>Node3&#45;&gt;Node23</title>
<path fill="none" stroke="midnightblue" d="M216.209,-242.526C234.526,-237.102 254.398,-231.219 271.863,-226.048"/>
<polygon fill="midnightblue" stroke="midnightblue" points="215.101,-239.204 206.506,-245.399 217.088,-245.916 215.101,-239.204"/>
</g>
<!-- Node24 -->
<g id="node24" class="node"><title>Node24</title>
<g id="a_node24"><a xlink:href="classsoftwarecontainer_1_1_invalid_container_error.html" target="_top" xlink:title="The container instance is in an invalid state and should not be used. ">
<polygon fill="white" stroke="black" points="268,-147.5 268,-177.5 376,-177.5 376,-147.5 268,-147.5"/>
<text text-anchor="start" x="276" y="-165.5" font-family="Helvetica,sans-Serif" font-size="10.00">softwarecontainer::</text>
<text text-anchor="middle" x="322" y="-154.5" font-family="Helvetica,sans-Serif" font-size="10.00">InvalidContainerError</text>
</a>
</g>
</g>
<!-- Node3&#45;&gt;Node24 -->
<g id="edge23" class="edge"><title>Node3&#45;&gt;Node24</title>
<path fill="none" stroke="midnightblue" d="M179.56,-238.405C197.811,-222.552 224.099,-201.587 250,-187.5 256.773,-183.816 264.196,-180.502 271.608,-177.584"/>
<polygon fill="midnightblue" stroke="midnightblue" points="176.948,-236.043 171.77,-245.286 181.582,-241.289 176.948,-236.043"/>
</g>
<!-- Node25 -->
<g id="node25" class="node"><title>Node25</title>
<g id="a_node25"><a xlink:href="classsoftwarecontainer_1_1_invalid_operation_error.html" target="_top" xlink:title="A method was called which is inappropriate in the current state. ">
<polygon fill="white" stroke="black" points="268,-98.5 268,-128.5 376,-128.5 376,-98.5 268,-98.5"/>
<text text-anchor="start" x="276" y="-116.5" font-family="Helvetica,sans-Serif" font-size="10.00">softwarecontainer::</text>
<text text-anchor="middle" x="322" y="-105.5" font-family="Helvetica,sans-Serif" font-size="10.00">InvalidOperationError</text>
</a>
</g>
</g>
<!-- Node3&#45;&gt;Node25 -->
<g id="edge24" class="edge"><title>Node3&#45;&gt;Node25</title>
<path fill="none" stroke="midnightblue" d="M168.336,-236.584C184.15,-209.241 213.465,-164.867 250,-138.5 255.404,-134.6 261.473,-131.261 267.727,-128.415"/>
<polygon fill="midnightblue" stroke="midnightblue" points="165.178,-235.059 163.316,-245.488 171.276,-238.497 165.178,-235.059"/>
</g>
<!-- Node26 -->
<g id="node26" class="node"><title>Node26</title>
<g id="a_node26"><a xlink:href="classsoftwarecontainer_1_1_network_gateway_error.html" target="_top" xlink:title="softwarecontainer::\lNetworkGatewayError">
<polygon fill="white" stroke="black" points="265.5,-49.5 265.5,-79.5 378.5,-79.5 378.5,-49.5 265.5,-49.5"/>
<text text-anchor="start" x="273.5" y="-67.5" font-family="Helvetica,sans-Serif" font-size="10.00">softwarecontainer::</text>
<text text-anchor="middle" x="322" y="-56.5" font-family="Helvetica,sans-Serif" font-size="10.00">NetworkGatewayError</text>
</a>
</g>
</g>
<!-- Node3&#45;&gt;Node26 -->
<g id="edge25" class="edge"><title>Node3&#45;&gt;Node26</title>
<path fill="none" stroke="midnightblue" d="M162.988,-235.354C175.261,-198.31 203.101,-129.183 250,-89.5 254.589,-85.6171 259.821,-82.3224 265.317,-79.5299"/>
<polygon fill="midnightblue" stroke="midnightblue" points="159.511,-234.736 159.805,-245.327 166.18,-236.865 159.511,-234.736"/>
</g>
<!-- Node28 -->
<g id="node28" class="node"><title>Node28</title>
<g id="a_node28"><a xlink:href="classsoftwarecontainer_1_1_software_container_agent_error.html" target="_top" xlink:title="An error occured in SoftwareContainerAgent. ">
<polygon fill="white" stroke="black" points="250,-0.5 250,-30.5 394,-30.5 394,-0.5 250,-0.5"/>
<text text-anchor="start" x="258" y="-18.5" font-family="Helvetica,sans-Serif" font-size="10.00">softwarecontainer::</text>
<text text-anchor="middle" x="322" y="-7.5" font-family="Helvetica,sans-Serif" font-size="10.00">SoftwareContainerAgentError</text>
</a>
</g>
</g>
<!-- Node3&#45;&gt;Node28 -->
<g id="edge27" class="edge"><title>Node3&#45;&gt;Node28</title>
<path fill="none" stroke="midnightblue" d="M159.343,-235.582C167.638,-190.176 191.432,-93.6635 250,-39.5 253.726,-36.0546 257.964,-33.102 262.472,-30.5719"/>
<polygon fill="midnightblue" stroke="midnightblue" points="155.889,-235.02 157.637,-245.469 162.787,-236.21 155.889,-235.02"/>
</g>
<!-- Node5 -->
<g id="node5" class="node"><title>Node5</title>
<g id="a_node5"><a xlink:href="classsoftwarecontainer_1_1_bad_suffix_error.html" target="_top" xlink:title="softwarecontainer::\lBadSuffixError">
<polygon fill="white" stroke="black" points="447,-882.5 447,-912.5 547,-912.5 547,-882.5 447,-882.5"/>
<text text-anchor="start" x="455" y="-900.5" font-family="Helvetica,sans-Serif" font-size="10.00">softwarecontainer::</text>
<text text-anchor="middle" x="497" y="-889.5" font-family="Helvetica,sans-Serif" font-size="10.00">BadSuffixError</text>
</a>
</g>
</g>
<!-- Node4&#45;&gt;Node5 -->
<g id="edge4" class="edge"><title>Node4&#45;&gt;Node5</title>
<path fill="none" stroke="midnightblue" d="M349.868,-820.979C370.802,-836.98 401.077,-858.556 430,-873.5 436.283,-876.746 443.106,-879.753 449.903,-882.463"/>
<polygon fill="midnightblue" stroke="midnightblue" points="351.825,-818.068 341.775,-814.714 347.54,-823.603 351.825,-818.068"/>
</g>
<!-- Node6 -->
<g id="node6" class="node"><title>Node6</title>
<g id="a_node6"><a xlink:href="classsoftwarecontainer_1_1_hex_format_error.html" target="_top" xlink:title="softwarecontainer::\lHexFormatError">
<polygon fill="white" stroke="black" points="447,-833.5 447,-863.5 547,-863.5 547,-833.5 447,-833.5"/>
<text text-anchor="start" x="455" y="-851.5" font-family="Helvetica,sans-Serif" font-size="10.00">softwarecontainer::</text>
<text text-anchor="middle" x="497" y="-840.5" font-family="Helvetica,sans-Serif" font-size="10.00">HexFormatError</text>
</a>
</g>
</g>
<!-- Node4&#45;&gt;Node6 -->
<g id="edge5" class="edge"><title>Node4&#45;&gt;Node6</title>
<path fill="none" stroke="midnightblue" d="M386.014,-817.348C406.109,-823.04 428.033,-829.249 446.983,-834.616"/>
<polygon fill="midnightblue" stroke="midnightblue" points="386.893,-813.959 376.317,-814.601 384.985,-820.694 386.893,-813.959"/>
</g>
<!-- Node7 -->
<g id="node7" class="node"><title>Node7</title>
<g id="a_node7"><a xlink:href="classsoftwarecontainer_1_1_j_son_error.html" target="_top" xlink:title="softwarecontainer::\lJSonError">
<polygon fill="white" stroke="black" points="447,-784.5 447,-814.5 547,-814.5 547,-784.5 447,-784.5"/>
<text text-anchor="start" x="455" y="-802.5" font-family="Helvetica,sans-Serif" font-size="10.00">softwarecontainer::</text>
<text text-anchor="middle" x="497" y="-791.5" font-family="Helvetica,sans-Serif" font-size="10.00">JSonError</text>
</a>
</g>
</g>
<!-- Node4&#45;&gt;Node7 -->
<g id="edge6" class="edge"><title>Node4&#45;&gt;Node7</title>
<path fill="none" stroke="midnightblue" d="M388.9,-799.5C408.14,-799.5 428.823,-799.5 446.834,-799.5"/>
<polygon fill="midnightblue" stroke="midnightblue" points="388.691,-796 378.691,-799.5 388.691,-803 388.691,-796"/>
</g>
<!-- Node8 -->
<g id="node8" class="node"><title>Node8</title>
<g id="a_node8"><a xlink:href="classsoftwarecontainer_1_1_limit_range_error.html" target="_top" xlink:title="softwarecontainer::\lLimitRangeError">
<polygon fill="white" stroke="black" points="447,-735.5 447,-765.5 547,-765.5 547,-735.5 447,-735.5"/>
<text text-anchor="start" x="455" y="-753.5" font-family="Helvetica,sans-Serif" font-size="10.00">softwarecontainer::</text>
<text text-anchor="middle" x="497" y="-742.5" font-family="Helvetica,sans-Serif" font-size="10.00">LimitRangeError</text>
</a>
</g>
</g>
<!-- Node4&#45;&gt;Node8 -->
<g id="edge7" class="edge"><title>Node4&#45;&gt;Node8</title>
<path fill="none" stroke="midnightblue" d="M386.014,-781.652C406.109,-775.96 428.033,-769.751 446.983,-764.384"/>
<polygon fill="midnightblue" stroke="midnightblue" points="384.985,-778.306 376.317,-784.399 386.893,-785.041 384.985,-778.306"/>
</g>
<!-- Node10 -->
<g id="node10" class="node"><title>Node10</title>
<g id="a_node10"><a xlink:href="classsoftwarecontainer_1_1_config_dependency_error.html" target="_top" xlink:title="softwarecontainer::\lConfigDependencyError">
<polygon fill="white" stroke="black" points="436.5,-686.5 436.5,-716.5 557.5,-716.5 557.5,-686.5 436.5,-686.5"/>
<text text-anchor="start" x="444.5" y="-704.5" font-family="Helvetica,sans-Serif" font-size="10.00">softwarecontainer::</text>
<text text-anchor="middle" x="497" y="-693.5" font-family="Helvetica,sans-Serif" font-size="10.00">ConfigDependencyError</text>
</a>
</g>
</g>
<!-- Node9&#45;&gt;Node10 -->
<g id="edge9" class="edge"><title>Node9&#45;&gt;Node10</title>
<path fill="none" stroke="midnightblue" d="M338.043,-578.125C356.607,-605.54 390.593,-650.435 430,-677.5 434.925,-680.882 440.382,-683.849 445.988,-686.435"/>
<polygon fill="midnightblue" stroke="midnightblue" points="340.799,-575.947 332.354,-569.549 334.966,-579.816 340.799,-575.947"/>
</g>
<!-- Node11 -->
<g id="node11" class="node"><title>Node11</title>
<g id="a_node11"><a xlink:href="classsoftwarecontainer_1_1_config_file_error.html" target="_top" xlink:title="An error occured in a Glib operation. ">
<polygon fill="white" stroke="black" points="447,-637.5 447,-667.5 547,-667.5 547,-637.5 447,-637.5"/>
<text text-anchor="start" x="455" y="-655.5" font-family="Helvetica,sans-Serif" font-size="10.00">softwarecontainer::</text>
<text text-anchor="middle" x="497" y="-644.5" font-family="Helvetica,sans-Serif" font-size="10.00">ConfigFileError</text>
</a>
</g>
</g>
<!-- Node9&#45;&gt;Node11 -->
<g id="edge10" class="edge"><title>Node9&#45;&gt;Node11</title>
<path fill="none" stroke="midnightblue" d="M349.868,-575.979C370.802,-591.98 401.077,-613.556 430,-628.5 436.283,-631.746 443.106,-634.753 449.903,-637.463"/>
<polygon fill="midnightblue" stroke="midnightblue" points="351.825,-573.068 341.775,-569.714 347.54,-578.603 351.825,-573.068"/>
</g>
<!-- Node12 -->
<g id="node12" class="node"><title>Node12</title>
<g id="a_node12"><a xlink:href="classsoftwarecontainer_1_1_config_internal_error.html" target="_top" xlink:title="An error occured which is an internal error in the config code. ">
<polygon fill="white" stroke="black" points="447,-588.5 447,-618.5 547,-618.5 547,-588.5 447,-588.5"/>
<text text-anchor="start" x="455" y="-606.5" font-family="Helvetica,sans-Serif" font-size="10.00">softwarecontainer::</text>
<text text-anchor="middle" x="497" y="-595.5" font-family="Helvetica,sans-Serif" font-size="10.00">ConfigInternalError</text>
</a>
</g>
</g>
<!-- Node9&#45;&gt;Node12 -->
<g id="edge11" class="edge"><title>Node9&#45;&gt;Node12</title>
<path fill="none" stroke="midnightblue" d="M381.93,-571.191C403.029,-577.167 426.572,-583.835 446.765,-589.555"/>
<polygon fill="midnightblue" stroke="midnightblue" points="382.687,-567.768 372.112,-568.41 380.78,-574.503 382.687,-567.768"/>
</g>
<!-- Node13 -->
<g id="node13" class="node"><title>Node13</title>
<g id="a_node13"><a xlink:href="classsoftwarecontainer_1_1_config_mandatory_error.html" target="_top" xlink:title="softwarecontainer::\lConfigMandatoryError">
<polygon fill="white" stroke="black" points="441,-539.5 441,-569.5 553,-569.5 553,-539.5 441,-539.5"/>
<text text-anchor="start" x="449" y="-557.5" font-family="Helvetica,sans-Serif" font-size="10.00">softwarecontainer::</text>
<text text-anchor="middle" x="497" y="-546.5" font-family="Helvetica,sans-Serif" font-size="10.00">ConfigMandatoryError</text>
</a>
</g>
</g>
<!-- Node9&#45;&gt;Node13 -->
<g id="edge12" class="edge"><title>Node9&#45;&gt;Node13</title>
<path fill="none" stroke="midnightblue" d="M382.168,-554.5C401.22,-554.5 422.243,-554.5 440.983,-554.5"/>
<polygon fill="midnightblue" stroke="midnightblue" points="382.112,-551 372.112,-554.5 382.112,-558 382.112,-551"/>
</g>
<!-- Node14 -->
<g id="node14" class="node"><title>Node14</title>
<g id="a_node14"><a xlink:href="classsoftwarecontainer_1_1_config_not_found_error.html" target="_top" xlink:title="A requested config item could not be found in any of the config sources. ">
<polygon fill="white" stroke="black" points="442.5,-490.5 442.5,-520.5 551.5,-520.5 551.5,-490.5 442.5,-490.5"/>
<text text-anchor="start" x="450.5" y="-508.5" font-family="Helvetica,sans-Serif" font-size="10.00">softwarecontainer::</text>
<text text-anchor="middle" x="497" y="-497.5" font-family="Helvetica,sans-Serif" font-size="10.00">ConfigNotFoundError</text>
</a>
</g>
</g>
<!-- Node9&#45;&gt;Node14 -->
<g id="edge13" class="edge"><title>Node9&#45;&gt;Node14</title>
<path fill="none" stroke="midnightblue" d="M381.914,-537.813C401.659,-532.221 423.547,-526.021 442.826,-520.561"/>
<polygon fill="midnightblue" stroke="midnightblue" points="380.78,-534.497 372.112,-540.59 382.687,-541.232 380.78,-534.497"/>
</g>
<!-- Node15 -->
<g id="node15" class="node"><title>Node15</title>
<g id="a_node15"><a xlink:href="classsoftwarecontainer_1_1_config_unknown_error.html" target="_top" xlink:title="A config is found which is not defined in ConfigDefinition. ">
<polygon fill="white" stroke="black" points="443.5,-441.5 443.5,-471.5 550.5,-471.5 550.5,-441.5 443.5,-441.5"/>
<text text-anchor="start" x="451.5" y="-459.5" font-family="Helvetica,sans-Serif" font-size="10.00">softwarecontainer::</text>
<text text-anchor="middle" x="497" y="-448.5" font-family="Helvetica,sans-Serif" font-size="10.00">ConfigUnknownError</text>
</a>
</g>
</g>
<!-- Node9&#45;&gt;Node15 -->
<g id="edge14" class="edge"><title>Node9&#45;&gt;Node15</title>
<path fill="none" stroke="midnightblue" d="M350.355,-533.159C371.327,-517.475 401.43,-496.388 430,-481.5 436.846,-477.933 444.319,-474.607 451.696,-471.62"/>
<polygon fill="midnightblue" stroke="midnightblue" points="348.096,-530.479 342.234,-539.304 352.32,-536.061 348.096,-530.479"/>
</g>
<!-- Node17 -->
<g id="node17" class="node"><title>Node17</title>
<g id="a_node17"><a xlink:href="classsoftwarecontainer_1_1_capability_parse_error.html" target="_top" xlink:title="An error occured in ConfigStore when parsing a Capability in a Service Manifest. ">
<polygon fill="white" stroke="black" points="443.5,-392.5 443.5,-422.5 550.5,-422.5 550.5,-392.5 443.5,-392.5"/>
<text text-anchor="start" x="451.5" y="-410.5" font-family="Helvetica,sans-Serif" font-size="10.00">softwarecontainer::</text>
<text text-anchor="middle" x="497" y="-399.5" font-family="Helvetica,sans-Serif" font-size="10.00">CapabilityParseError</text>
</a>
</g>
</g>
<!-- Node16&#45;&gt;Node17 -->
<g id="edge16" class="edge"><title>Node16&#45;&gt;Node17</title>
<path fill="none" stroke="midnightblue" d="M382.277,-407.5C402.137,-407.5 424.128,-407.5 443.437,-407.5"/>
<polygon fill="midnightblue" stroke="midnightblue" points="382.112,-404 372.112,-407.5 382.112,-411 382.112,-404"/>
</g>
<!-- Node18 -->
<g id="node18" class="node"><title>Node18</title>
<g id="a_node18"><a xlink:href="classsoftwarecontainer_1_1_service_manifest_parse_error.html" target="_top" xlink:title="An error occured in ConfigStore when parsing a Service Manifest. ">
<polygon fill="white" stroke="black" points="430,-343.5 430,-373.5 564,-373.5 564,-343.5 430,-343.5"/>
<text text-anchor="start" x="438" y="-361.5" font-family="Helvetica,sans-Serif" font-size="10.00">softwarecontainer::</text>
<text text-anchor="middle" x="497" y="-350.5" font-family="Helvetica,sans-Serif" font-size="10.00">ServiceManifestParseError</text>
</a>
</g>
</g>
<!-- Node16&#45;&gt;Node18 -->
<g id="edge17" class="edge"><title>Node16&#45;&gt;Node18</title>
<path fill="none" stroke="midnightblue" d="M381.914,-390.813C401.659,-385.221 423.547,-379.021 442.826,-373.561"/>
<polygon fill="midnightblue" stroke="midnightblue" points="380.78,-387.497 372.112,-393.59 382.687,-394.232 380.78,-387.497"/>
</g>
<!-- Node19 -->
<g id="node19" class="node"><title>Node19</title>
<g id="a_node19"><a xlink:href="classsoftwarecontainer_1_1_service_manifest_path_error.html" target="_top" xlink:title="An error occured in ConfigStore relating to the path to the Service Manifest(s) ">
<polygon fill="white" stroke="black" points="433,-294.5 433,-324.5 561,-324.5 561,-294.5 433,-294.5"/>
<text text-anchor="start" x="441" y="-312.5" font-family="Helvetica,sans-Serif" font-size="10.00">softwarecontainer::</text>
<text text-anchor="middle" x="497" y="-301.5" font-family="Helvetica,sans-Serif" font-size="10.00">ServiceManifestPathError</text>
</a>
</g>
</g>
<!-- Node16&#45;&gt;Node19 -->
<g id="edge18" class="edge"><title>Node16&#45;&gt;Node19</title>
<path fill="none" stroke="midnightblue" d="M381.516,-391.066C385.912,-388.839 390.134,-386.328 394,-383.5 415.811,-367.545 408.481,-350.846 430,-334.5 434.976,-330.72 440.589,-327.454 446.387,-324.647"/>
<polygon fill="midnightblue" stroke="midnightblue" points="379.965,-387.926 372.306,-395.247 382.859,-394.3 379.965,-387.926"/>
</g>
<!-- Node27 -->
<g id="node27" class="node"><title>Node27</title>
<g id="a_node27"><a xlink:href="classsoftwarecontainer_1_1_i_p_allocation_error.html" target="_top" xlink:title="softwarecontainer::\lIPAllocationError">
<polygon fill="white" stroke="black" points="447,-49.5 447,-79.5 547,-79.5 547,-49.5 447,-49.5"/>
<text text-anchor="start" x="455" y="-67.5" font-family="Helvetica,sans-Serif" font-size="10.00">softwarecontainer::</text>
<text text-anchor="middle" x="497" y="-56.5" font-family="Helvetica,sans-Serif" font-size="10.00">IPAllocationError</text>
</a>
</g>
</g>
<!-- Node26&#45;&gt;Node27 -->
<g id="edge26" class="edge"><title>Node26&#45;&gt;Node27</title>
<path fill="none" stroke="midnightblue" d="M388.9,-64.5C408.14,-64.5 428.823,-64.5 446.834,-64.5"/>
<polygon fill="midnightblue" stroke="midnightblue" points="388.691,-61.0001 378.691,-64.5 388.691,-68.0001 388.691,-61.0001"/>
</g>
</g>
</svg>
