<?xml version="1.0" encoding="UTF-8" standalone="no"?>
<!DOCTYPE svg PUBLIC "-//W3C//DTD SVG 1.1//EN"
 "http://www.w3.org/Graphics/SVG/1.1/DTD/svg11.dtd">
<!-- Generated by graphviz version 2.38.0 (20140413.2041)
 -->
<!-- Title: Graphical Class Hierarchy Pages: 1 -->
<svg width="203pt" height="88pt"
 viewBox="0.00 0.00 203.00 88.00" xmlns="http://www.w3.org/2000/svg" xmlns:xlink="http://www.w3.org/1999/xlink">
<g id="graph0" class="graph" transform="scale(1 1) rotate(0) translate(4 84)">
<title>Graphical Class Hierarchy</title>
<polygon fill="white" stroke="none" points="-4,4 -4,-84 199,-84 199,4 -4,4"/>
<!-- Node1 -->
<g id="node1" class="node"><title>Node1</title>
<polygon fill="white" stroke="#bfbfbf" points="0,-30 0,-49 59,-49 59,-30 0,-30"/>
<text text-anchor="middle" x="29.5" y="-37" font-family="Helvetica,sans-Serif" font-size="10.00">exception</text>
</g>
<!-- Node2 -->
<g id="node2" class="node"><title>Node2</title>
<g id="a_node2"><a xlink:href="classsoftwarecontainer_1_1_config_error.html" target="_top" xlink:title="softwarecontainer::\lConfigError">
<polygon fill="white" stroke="black" points="95,-49.5 95,-79.5 195,-79.5 195,-49.5 95,-49.5"/>
<text text-anchor="start" x="103" y="-67.5" font-family="Helvetica,sans-Serif" font-size="10.00">softwarecontainer::</text>
<text text-anchor="middle" x="145" y="-56.5" font-family="Helvetica,sans-Serif" font-size="10.00">ConfigError</text>
</a>
</g>
</g>
<!-- Node1&#45;&gt;Node2 -->
<g id="edge1" class="edge"><title>Node1&#45;&gt;Node2</title>
<path fill="none" stroke="midnightblue" d="M69.1515,-48.0135C77.3383,-49.8168 86.0864,-51.7437 94.6093,-53.621"/>
<polygon fill="midnightblue" stroke="midnightblue" points="69.6597,-44.5416 59.1408,-45.8086 68.1538,-51.3778 69.6597,-44.5416"/>
</g>
<!-- Node3 -->
<g id="node3" class="node"><title>Node3</title>
<g id="a_node3"><a xlink:href="classsoftwarecontainer_1_1_gateway_error.html" target="_top" xlink:title="softwarecontainer::\lGatewayError">
<polygon fill="white" stroke="black" points="95,-0.5 95,-30.5 195,-30.5 195,-0.5 95,-0.5"/>
<text text-anchor="start" x="103" y="-18.5" font-family="Helvetica,sans-Serif" font-size="10.00">softwarecontainer::</text>
<text text-anchor="middle" x="145" y="-7.5" font-family="Helvetica,sans-Serif" font-size="10.00">GatewayError</text>
</a>
</g>
</g>
<!-- Node1&#45;&gt;Node3 -->
<g id="edge2" class="edge"><title>Node1&#45;&gt;Node3</title>
<path fill="none" stroke="midnightblue" d="M69.1515,-31.327C77.3383,-29.5959 86.0864,-27.746 94.6093,-25.9438"/>
<polygon fill="midnightblue" stroke="midnightblue" points="68.2004,-27.9506 59.1408,-33.4438 69.6486,-34.7992 68.2004,-27.9506"/>
</g>
</g>
</svg>
