<?xml version="1.0" encoding="UTF-8" standalone="no"?>
<!DOCTYPE svg PUBLIC "-//W3C//DTD SVG 1.1//EN"
 "http://www.w3.org/Graphics/SVG/1.1/DTD/svg11.dtd">
<!-- Generated by graphviz version 2.38.0 (20140413.2041)
 -->
<!-- Title: Graphical Class Hierarchy Pages: 1 -->
<svg width="287pt" height="186pt"
 viewBox="0.00 0.00 287.00 186.00" xmlns="http://www.w3.org/2000/svg" xmlns:xlink="http://www.w3.org/1999/xlink">
<g id="graph0" class="graph" transform="scale(1 1) rotate(0) translate(4 182)">
<title>Graphical Class Hierarchy</title>
<polygon fill="white" stroke="none" points="-4,4 -4,-182 283,-182 283,4 -4,4"/>
<!-- Node1 -->
<g id="node1" class="node"><title>Node1</title>
<g id="a_node1"><a xlink:href="classsoftwarecontainer_1_1_clean_up_handler.html" target="_top" xlink:title="softwarecontainer::\lCleanUpHandler">
<polygon fill="white" stroke="black" points="0,-73.5 0,-103.5 100,-103.5 100,-73.5 0,-73.5"/>
<text text-anchor="start" x="8" y="-91.5" font-family="Helvetica,sans-Serif" font-size="10.00">softwarecontainer::</text>
<text text-anchor="middle" x="50" y="-80.5" font-family="Helvetica,sans-Serif" font-size="10.00">CleanUpHandler</text>
</a>
</g>
</g>
<!-- Node2 -->
<g id="node2" class="node"><title>Node2</title>
<g id="a_node2"><a xlink:href="classsoftwarecontainer_1_1_directory_clean_up_handler.html" target="_top" xlink:title="softwarecontainer::\lDirectoryCleanUpHandler">
<polygon fill="white" stroke="black" points="143.5,-147.5 143.5,-177.5 271.5,-177.5 271.5,-147.5 143.5,-147.5"/>
<text text-anchor="start" x="151.5" y="-165.5" font-family="Helvetica,sans-Serif" font-size="10.00">softwarecontainer::</text>
<text text-anchor="middle" x="207.5" y="-154.5" font-family="Helvetica,sans-Serif" font-size="10.00">DirectoryCleanUpHandler</text>
</a>
</g>
</g>
<!-- Node1&#45;&gt;Node2 -->
<g id="edge1" class="edge"><title>Node1&#45;&gt;Node2</title>
<path fill="none" stroke="midnightblue" d="M82.5142,-109.116C98.1858,-118.824 117.657,-130.089 136,-138.5 142.934,-141.679 150.417,-144.668 157.827,-147.385"/>
<polygon fill="midnightblue" stroke="midnightblue" points="84.0919,-105.974 73.7633,-103.613 80.3656,-111.899 84.0919,-105.974"/>
</g>
<!-- Node3 -->
<g id="node3" class="node"><title>Node3</title>
<g id="a_node3"><a xlink:href="classsoftwarecontainer_1_1_file_clean_up_handler.html" target="_top" xlink:title="The FileCleanUpHandler class is a subclass of CleanUpHandler that deletes a file. ...">
<polygon fill="white" stroke="black" points="155.5,-98.5 155.5,-128.5 259.5,-128.5 259.5,-98.5 155.5,-98.5"/>
<text text-anchor="start" x="163.5" y="-116.5" font-family="Helvetica,sans-Serif" font-size="10.00">softwarecontainer::</text>
<text text-anchor="middle" x="207.5" y="-105.5" font-family="Helvetica,sans-Serif" font-size="10.00">FileCleanUpHandler</text>
</a>
</g>
</g>
<!-- Node1&#45;&gt;Node3 -->
<g id="edge2" class="edge"><title>Node1&#45;&gt;Node3</title>
<path fill="none" stroke="midnightblue" d="M110.322,-98.0372C125.202,-100.43 141.039,-102.976 155.476,-105.297"/>
<polygon fill="midnightblue" stroke="midnightblue" points="110.63,-94.5419 100.201,-96.4102 109.519,-101.453 110.63,-94.5419"/>
</g>
<!-- Node4 -->
<g id="node4" class="node"><title>Node4</title>
<g id="a_node4"><a xlink:href="classsoftwarecontainer_1_1_mount_clean_up_handler.html" target="_top" xlink:title="softwarecontainer::\lMountCleanUpHandler">
<polygon fill="white" stroke="black" points="149.5,-49.5 149.5,-79.5 265.5,-79.5 265.5,-49.5 149.5,-49.5"/>
<text text-anchor="start" x="157.5" y="-67.5" font-family="Helvetica,sans-Serif" font-size="10.00">softwarecontainer::</text>
<text text-anchor="middle" x="207.5" y="-56.5" font-family="Helvetica,sans-Serif" font-size="10.00">MountCleanUpHandler</text>
</a>
</g>
</g>
<!-- Node1&#45;&gt;Node4 -->
<g id="edge3" class="edge"><title>Node1&#45;&gt;Node4</title>
<path fill="none" stroke="midnightblue" d="M110.322,-79.3442C123.167,-77.3616 136.726,-75.2691 149.481,-73.3004"/>
<polygon fill="midnightblue" stroke="midnightblue" points="109.55,-75.9218 100.201,-80.9062 110.618,-82.8399 109.55,-75.9218"/>
</g>
<!-- Node5 -->
<g id="node5" class="node"><title>Node5</title>
<g id="a_node5"><a xlink:href="classsoftwarecontainer_1_1_overlay_sync_cleanup_handler.html" target="_top" xlink:title="The OverlaySyncCleanupHandler class is used to copy files on cleanup and can be added to the CleanupH...">
<polygon fill="white" stroke="black" points="136,-0.5 136,-30.5 279,-30.5 279,-0.5 136,-0.5"/>
<text text-anchor="start" x="144" y="-18.5" font-family="Helvetica,sans-Serif" font-size="10.00">softwarecontainer::</text>
<text text-anchor="middle" x="207.5" y="-7.5" font-family="Helvetica,sans-Serif" font-size="10.00">OverlaySyncCleanupHandler</text>
</a>
</g>
</g>
<!-- Node1&#45;&gt;Node5 -->
<g id="edge4" class="edge"><title>Node1&#45;&gt;Node5</title>
<path fill="none" stroke="midnightblue" d="M83.6659,-68.2942C99.1913,-59.1513 118.208,-48.6041 136,-40.5 143.8,-36.9471 152.264,-33.5645 160.531,-30.5005"/>
<polygon fill="midnightblue" stroke="midnightblue" points="81.7583,-65.3566 74.9639,-73.486 85.3449,-71.368 81.7583,-65.3566"/>
</g>
</g>
</svg>
