<?xml version="1.0" encoding="UTF-8" standalone="no"?>
<!DOCTYPE svg PUBLIC "-//W3C//DTD SVG 1.1//EN"
 "http://www.w3.org/Graphics/SVG/1.1/DTD/svg11.dtd">
<!-- Generated by graphviz version 2.38.0 (20140413.2041)
 -->
<!-- Title: Graphical Class Hierarchy Pages: 1 -->
<svg width="572pt" height="553pt"
 viewBox="0.00 0.00 572.00 553.00" xmlns="http://www.w3.org/2000/svg" xmlns:xlink="http://www.w3.org/1999/xlink">
<g id="graph0" class="graph" transform="scale(1 1) rotate(0) translate(4 549)">
<title>Graphical Class Hierarchy</title>
<polygon fill="white" stroke="none" points="-4,4 -4,-549 568,-549 568,4 -4,4"/>
<!-- Node1 -->
<g id="node1" class="node"><title>Node1</title>
<polygon fill="white" stroke="#bfbfbf" points="0,-262 0,-281 59,-281 59,-262 0,-262"/>
<text text-anchor="middle" x="29.5" y="-269" font-family="Helvetica,sans-Serif" font-size="10.00">exception</text>
</g>
<!-- Node2 -->
<g id="node2" class="node"><title>Node2</title>
<g id="a_node2"><a xlink:href="classsoftwarecontainer_1_1_config_error.html" target="_top" xlink:title="softwarecontainer::\lConfigError">
<polygon fill="white" stroke="black" points="104.5,-367.5 104.5,-397.5 204.5,-397.5 204.5,-367.5 104.5,-367.5"/>
<text text-anchor="start" x="112.5" y="-385.5" font-family="Helvetica,sans-Serif" font-size="10.00">softwarecontainer::</text>
<text text-anchor="middle" x="154.5" y="-374.5" font-family="Helvetica,sans-Serif" font-size="10.00">ConfigError</text>
</a>
</g>
</g>
<!-- Node1&#45;&gt;Node2 -->
<g id="edge1" class="edge"><title>Node1&#45;&gt;Node2</title>
<path fill="none" stroke="midnightblue" d="M49.0514,-288.242C72.8163,-309.688 113.668,-346.554 136.605,-367.253"/>
<polygon fill="midnightblue" stroke="midnightblue" points="51.1843,-285.452 41.4154,-281.351 46.4945,-290.649 51.1843,-285.452"/>
</g>
<!-- Node9 -->
<g id="node9" class="node"><title>Node9</title>
<g id="a_node9"><a xlink:href="classsoftwarecontainer_1_1_gateway_error.html" target="_top" xlink:title="softwarecontainer::\lGatewayError">
<polygon fill="white" stroke="black" points="104.5,-281.5 104.5,-311.5 204.5,-311.5 204.5,-281.5 104.5,-281.5"/>
<text text-anchor="start" x="112.5" y="-299.5" font-family="Helvetica,sans-Serif" font-size="10.00">softwarecontainer::</text>
<text text-anchor="middle" x="154.5" y="-288.5" font-family="Helvetica,sans-Serif" font-size="10.00">GatewayError</text>
</a>
</g>
</g>
<!-- Node1&#45;&gt;Node9 -->
<g id="edge8" class="edge"><title>Node1&#45;&gt;Node9</title>
<path fill="none" stroke="midnightblue" d="M68.9508,-279.315C80.1801,-281.598 92.608,-284.124 104.401,-286.521"/>
<polygon fill="midnightblue" stroke="midnightblue" points="69.5246,-275.86 59.0278,-277.298 68.1303,-282.72 69.5246,-275.86"/>
</g>
<!-- Node10 -->
<g id="node10" class="node"><title>Node10</title>
<g id="a_node10"><a xlink:href="classsoftwarecontainer_1_1_gateway_parser_error.html" target="_top" xlink:title="softwarecontainer::\lGatewayParserError">
<polygon fill="white" stroke="black" points="102,-232.5 102,-262.5 207,-262.5 207,-232.5 102,-232.5"/>
<text text-anchor="start" x="110" y="-250.5" font-family="Helvetica,sans-Serif" font-size="10.00">softwarecontainer::</text>
<text text-anchor="middle" x="154.5" y="-239.5" font-family="Helvetica,sans-Serif" font-size="10.00">GatewayParserError</text>
</a>
</g>
</g>
<!-- Node1&#45;&gt;Node10 -->
<g id="edge9" class="edge"><title>Node1&#45;&gt;Node10</title>
<path fill="none" stroke="midnightblue" d="M69.0594,-263.976C79.4877,-261.941 90.9432,-259.706 101.961,-257.556"/>
<polygon fill="midnightblue" stroke="midnightblue" points="68.1724,-260.583 59.0278,-265.934 69.5131,-267.454 68.1724,-260.583"/>
</g>
<!-- Node11 -->
<g id="node11" class="node"><title>Node11</title>
<g id="a_node11"><a xlink:href="classsoftwarecontainer_1_1_software_container_error.html" target="_top" xlink:title="softwarecontainer::\lSoftwareContainerError">
<polygon fill="white" stroke="black" points="95,-122.5 95,-152.5 214,-152.5 214,-122.5 95,-122.5"/>
<text text-anchor="start" x="103" y="-140.5" font-family="Helvetica,sans-Serif" font-size="10.00">softwarecontainer::</text>
<text text-anchor="middle" x="154.5" y="-129.5" font-family="Helvetica,sans-Serif" font-size="10.00">SoftwareContainerError</text>
</a>
</g>
</g>
<!-- Node1&#45;&gt;Node11 -->
<g id="edge10" class="edge"><title>Node1&#45;&gt;Node11</title>
<path fill="none" stroke="midnightblue" d="M46.4157,-254.161C70.7053,-227.699 116.623,-177.674 139.629,-152.611"/>
<polygon fill="midnightblue" stroke="midnightblue" points="43.5297,-252.129 39.3459,-261.863 48.6866,-256.863 43.5297,-252.129"/>
</g>
<!-- Node3 -->
<g id="node3" class="node"><title>Node3</title>
<g id="a_node3"><a xlink:href="classsoftwarecontainer_1_1_config_dependency_error.html" target="_top" xlink:title="softwarecontainer::\lConfigDependencyError">
<polygon fill="white" stroke="black" points="261.5,-514.5 261.5,-544.5 382.5,-544.5 382.5,-514.5 261.5,-514.5"/>
<text text-anchor="start" x="269.5" y="-532.5" font-family="Helvetica,sans-Serif" font-size="10.00">softwarecontainer::</text>
<text text-anchor="middle" x="322" y="-521.5" font-family="Helvetica,sans-Serif" font-size="10.00">ConfigDependencyError</text>
</a>
</g>
</g>
<!-- Node2&#45;&gt;Node3 -->
<g id="edge2" class="edge"><title>Node2&#45;&gt;Node3</title>
<path fill="none" stroke="midnightblue" d="M168.23,-406.696C183.944,-434.344 213.164,-479.156 250,-505.5 254.763,-508.906 260.045,-511.856 265.516,-514.406"/>
<polygon fill="midnightblue" stroke="midnightblue" points="171.15,-404.745 163.244,-397.691 165.026,-408.135 171.15,-404.745"/>
</g>
<!-- Node4 -->
<g id="node4" class="node"><title>Node4</title>
<g id="a_node4"><a xlink:href="classsoftwarecontainer_1_1_config_file_error.html" target="_top" xlink:title="An error occured in a Glib operation. ">
<polygon fill="white" stroke="black" points="272,-465.5 272,-495.5 372,-495.5 372,-465.5 272,-465.5"/>
<text text-anchor="start" x="280" y="-483.5" font-family="Helvetica,sans-Serif" font-size="10.00">softwarecontainer::</text>
<text text-anchor="middle" x="322" y="-472.5" font-family="Helvetica,sans-Serif" font-size="10.00">ConfigFileError</text>
</a>
</g>
</g>
<!-- Node2&#45;&gt;Node4 -->
<g id="edge3" class="edge"><title>Node2&#45;&gt;Node4</title>
<path fill="none" stroke="midnightblue" d="M179.124,-404.721C197.335,-420.884 223.765,-442.332 250,-456.5 256.869,-460.21 264.419,-463.499 271.952,-466.361"/>
<polygon fill="midnightblue" stroke="midnightblue" points="181.132,-401.818 171.365,-397.711 176.439,-407.012 181.132,-401.818"/>
</g>
<!-- Node5 -->
<g id="node5" class="node"><title>Node5</title>
<g id="a_node5"><a xlink:href="classsoftwarecontainer_1_1_config_internal_error.html" target="_top" xlink:title="An error occured which is an internal error in the config code. ">
<polygon fill="white" stroke="black" points="272,-416.5 272,-446.5 372,-446.5 372,-416.5 272,-416.5"/>
<text text-anchor="start" x="280" y="-434.5" font-family="Helvetica,sans-Serif" font-size="10.00">softwarecontainer::</text>
<text text-anchor="middle" x="322" y="-423.5" font-family="Helvetica,sans-Serif" font-size="10.00">ConfigInternalError</text>
</a>
</g>
</g>
<!-- Node2&#45;&gt;Node5 -->
<g id="edge4" class="edge"><title>Node2&#45;&gt;Node5</title>
<path fill="none" stroke="midnightblue" d="M214.381,-399.933C233.239,-405.516 253.906,-411.635 271.982,-416.987"/>
<polygon fill="midnightblue" stroke="midnightblue" points="215.29,-396.552 204.707,-397.069 213.302,-403.264 215.29,-396.552"/>
</g>
<!-- Node6 -->
<g id="node6" class="node"><title>Node6</title>
<g id="a_node6"><a xlink:href="classsoftwarecontainer_1_1_config_mandatory_error.html" target="_top" xlink:title="softwarecontainer::\lConfigMandatoryError">
<polygon fill="white" stroke="black" points="266,-367.5 266,-397.5 378,-397.5 378,-367.5 266,-367.5"/>
<text text-anchor="start" x="274" y="-385.5" font-family="Helvetica,sans-Serif" font-size="10.00">softwarecontainer::</text>
<text text-anchor="middle" x="322" y="-374.5" font-family="Helvetica,sans-Serif" font-size="10.00">ConfigMandatoryError</text>
</a>
</g>
</g>
<!-- Node2&#45;&gt;Node6 -->
<g id="edge5" class="edge"><title>Node2&#45;&gt;Node6</title>
<path fill="none" stroke="midnightblue" d="M214.863,-382.5C231.502,-382.5 249.516,-382.5 265.896,-382.5"/>
<polygon fill="midnightblue" stroke="midnightblue" points="214.707,-379 204.707,-382.5 214.707,-386 214.707,-379"/>
</g>
<!-- Node7 -->
<g id="node7" class="node"><title>Node7</title>
<g id="a_node7"><a xlink:href="classsoftwarecontainer_1_1_config_not_found_error.html" target="_top" xlink:title="A requested config item could not be found in any of the config sources. ">
<polygon fill="white" stroke="black" points="267.5,-318.5 267.5,-348.5 376.5,-348.5 376.5,-318.5 267.5,-318.5"/>
<text text-anchor="start" x="275.5" y="-336.5" font-family="Helvetica,sans-Serif" font-size="10.00">softwarecontainer::</text>
<text text-anchor="middle" x="322" y="-325.5" font-family="Helvetica,sans-Serif" font-size="10.00">ConfigNotFoundError</text>
</a>
</g>
</g>
<!-- Node2&#45;&gt;Node7 -->
<g id="edge6" class="edge"><title>Node2&#45;&gt;Node7</title>
<path fill="none" stroke="midnightblue" d="M214.368,-365.071C232.634,-359.663 252.598,-353.752 270.261,-348.522"/>
<polygon fill="midnightblue" stroke="midnightblue" points="213.302,-361.736 204.707,-367.931 215.29,-368.448 213.302,-361.736"/>
</g>
<!-- Node8 -->
<g id="node8" class="node"><title>Node8</title>
<g id="a_node8"><a xlink:href="classsoftwarecontainer_1_1_config_unknown_error.html" target="_top" xlink:title="A config is found which is not defined in ConfigDefinition. ">
<polygon fill="white" stroke="black" points="268.5,-269.5 268.5,-299.5 375.5,-299.5 375.5,-269.5 268.5,-269.5"/>
<text text-anchor="start" x="276.5" y="-287.5" font-family="Helvetica,sans-Serif" font-size="10.00">softwarecontainer::</text>
<text text-anchor="middle" x="322" y="-276.5" font-family="Helvetica,sans-Serif" font-size="10.00">ConfigUnknownError</text>
</a>
</g>
</g>
<!-- Node2&#45;&gt;Node8 -->
<g id="edge7" class="edge"><title>Node2&#45;&gt;Node8</title>
<path fill="none" stroke="midnightblue" d="M179.56,-360.405C197.811,-344.552 224.099,-323.587 250,-309.5 256.773,-305.816 264.196,-302.502 271.608,-299.584"/>
<polygon fill="midnightblue" stroke="midnightblue" points="176.948,-358.043 171.77,-367.286 181.582,-363.289 176.948,-358.043"/>
</g>
<!-- Node12 -->
<g id="node12" class="node"><title>Node12</title>
<g id="a_node12"><a xlink:href="classsoftwarecontainer_1_1_cgroups_gateway_error.html" target="_top" xlink:title="softwarecontainer::\lCgroupsGatewayError">
<polygon fill="white" stroke="black" points="265.5,-220.5 265.5,-250.5 378.5,-250.5 378.5,-220.5 265.5,-220.5"/>
<text text-anchor="start" x="273.5" y="-238.5" font-family="Helvetica,sans-Serif" font-size="10.00">softwarecontainer::</text>
<text text-anchor="middle" x="322" y="-227.5" font-family="Helvetica,sans-Serif" font-size="10.00">CgroupsGatewayError</text>
</a>
</g>
</g>
<!-- Node11&#45;&gt;Node12 -->
<g id="edge11" class="edge"><title>Node11&#45;&gt;Node12</title>
<path fill="none" stroke="midnightblue" d="M189.861,-157.847C221.318,-176.474 267.156,-203.617 295.474,-220.385"/>
<polygon fill="midnightblue" stroke="midnightblue" points="191.385,-154.681 180.997,-152.598 187.818,-160.705 191.385,-154.681"/>
</g>
<!-- Node16 -->
<g id="node16" class="node"><title>Node16</title>
<g id="a_node16"><a xlink:href="classsoftwarecontainer_1_1_config_store_error.html" target="_top" xlink:title="softwarecontainer::\lConfigStoreError">
<polygon fill="white" stroke="black" points="272,-147.5 272,-177.5 372,-177.5 372,-147.5 272,-147.5"/>
<text text-anchor="start" x="280" y="-165.5" font-family="Helvetica,sans-Serif" font-size="10.00">softwarecontainer::</text>
<text text-anchor="middle" x="322" y="-154.5" font-family="Helvetica,sans-Serif" font-size="10.00">ConfigStoreError</text>
</a>
</g>
</g>
<!-- Node11&#45;&gt;Node16 -->
<g id="edge15" class="edge"><title>Node11&#45;&gt;Node16</title>
<path fill="none" stroke="midnightblue" d="M224.632,-147.943C240.522,-150.343 257.101,-152.848 271.938,-155.089"/>
<polygon fill="midnightblue" stroke="midnightblue" points="224.726,-144.417 214.315,-146.384 223.68,-151.339 224.726,-144.417"/>
</g>
<!-- Node20 -->
<g id="node20" class="node"><title>Node20</title>
<g id="a_node20"><a xlink:href="classsoftwarecontainer_1_1_container_config_parse_error.html" target="_top" xlink:title="softwarecontainer::\lContainerConfigParseError">
<polygon fill="white" stroke="black" points="255,-98.5 255,-128.5 389,-128.5 389,-98.5 255,-98.5"/>
<text text-anchor="start" x="263" y="-116.5" font-family="Helvetica,sans-Serif" font-size="10.00">softwarecontainer::</text>
<text text-anchor="middle" x="322" y="-105.5" font-family="Helvetica,sans-Serif" font-size="10.00">ContainerConfigParseError</text>
</a>
</g>
</g>
<!-- Node11&#45;&gt;Node20 -->
<g id="edge19" class="edge"><title>Node11&#45;&gt;Node20</title>
<path fill="none" stroke="midnightblue" d="M224.281,-127.526C234.366,-126.063 244.735,-124.56 254.767,-123.105"/>
<polygon fill="midnightblue" stroke="midnightblue" points="223.709,-124.072 214.315,-128.971 224.714,-130.999 223.709,-124.072"/>
</g>
<!-- Node21 -->
<g id="node21" class="node"><title>Node21</title>
<g id="a_node21"><a xlink:href="classsoftwarecontainer_1_1_network_gateway_error.html" target="_top" xlink:title="softwarecontainer::\lNetworkGatewayError">
<polygon fill="white" stroke="black" points="265.5,-49.5 265.5,-79.5 378.5,-79.5 378.5,-49.5 265.5,-49.5"/>
<text text-anchor="start" x="273.5" y="-67.5" font-family="Helvetica,sans-Serif" font-size="10.00">softwarecontainer::</text>
<text text-anchor="middle" x="322" y="-56.5" font-family="Helvetica,sans-Serif" font-size="10.00">NetworkGatewayError</text>
</a>
</g>
</g>
<!-- Node11&#45;&gt;Node21 -->
<g id="edge20" class="edge"><title>Node11&#45;&gt;Node21</title>
<path fill="none" stroke="midnightblue" d="M191.95,-117.572C209.281,-108.464 230.444,-97.8667 250,-89.5 258.05,-86.056 266.749,-82.7023 275.207,-79.6275"/>
<polygon fill="midnightblue" stroke="midnightblue" points="189.942,-114.675 182.75,-122.455 193.224,-120.858 189.942,-114.675"/>
</g>
<!-- Node23 -->
<g id="node23" class="node"><title>Node23</title>
<g id="a_node23"><a xlink:href="classsoftwarecontainer_1_1_software_container_agent_error.html" target="_top" xlink:title="An error occured in SoftwareContainerAgent. ">
<polygon fill="white" stroke="black" points="250,-0.5 250,-30.5 394,-30.5 394,-0.5 250,-0.5"/>
<text text-anchor="start" x="258" y="-18.5" font-family="Helvetica,sans-Serif" font-size="10.00">softwarecontainer::</text>
<text text-anchor="middle" x="322" y="-7.5" font-family="Helvetica,sans-Serif" font-size="10.00">SoftwareContainerAgentError</text>
</a>
</g>
</g>
<!-- Node11&#45;&gt;Node23 -->
<g id="edge22" class="edge"><title>Node11&#45;&gt;Node23</title>
<path fill="none" stroke="midnightblue" d="M172.965,-114.175C190.348,-92.4104 218.866,-60.3902 250,-40.5 255.947,-36.7008 262.544,-33.392 269.252,-30.5358"/>
<polygon fill="midnightblue" stroke="midnightblue" points="170.055,-112.214 166.651,-122.247 175.568,-116.527 170.055,-112.214"/>
</g>
<!-- Node13 -->
<g id="node13" class="node"><title>Node13</title>
<g id="a_node13"><a xlink:href="classsoftwarecontainer_1_1_bad_suffix_error.html" target="_top" xlink:title="softwarecontainer::\lBadSuffixError">
<polygon fill="white" stroke="black" points="447,-318.5 447,-348.5 547,-348.5 547,-318.5 447,-318.5"/>
<text text-anchor="start" x="455" y="-336.5" font-family="Helvetica,sans-Serif" font-size="10.00">softwarecontainer::</text>
<text text-anchor="middle" x="497" y="-325.5" font-family="Helvetica,sans-Serif" font-size="10.00">BadSuffixError</text>
</a>
</g>
</g>
<!-- Node12&#45;&gt;Node13 -->
<g id="edge12" class="edge"><title>Node12&#45;&gt;Node13</title>
<path fill="none" stroke="midnightblue" d="M386.129,-255.334C388.868,-256.934 391.508,-258.653 394,-260.5 415.71,-276.592 408.373,-293.297 430,-309.5 435.074,-313.301 440.81,-316.549 446.729,-319.31"/>
<polygon fill="midnightblue" stroke="midnightblue" points="387.587,-252.147 377.102,-250.624 384.348,-258.353 387.587,-252.147"/>
</g>
<!-- Node14 -->
<g id="node14" class="node"><title>Node14</title>
<g id="a_node14"><a xlink:href="classsoftwarecontainer_1_1_j_son_error.html" target="_top" xlink:title="softwarecontainer::\lJSonError">
<polygon fill="white" stroke="black" points="447,-269.5 447,-299.5 547,-299.5 547,-269.5 447,-269.5"/>
<text text-anchor="start" x="455" y="-287.5" font-family="Helvetica,sans-Serif" font-size="10.00">softwarecontainer::</text>
<text text-anchor="middle" x="497" y="-276.5" font-family="Helvetica,sans-Serif" font-size="10.00">JSonError</text>
</a>
</g>
</g>
<!-- Node12&#45;&gt;Node14 -->
<g id="edge13" class="edge"><title>Node12&#45;&gt;Node14</title>
<path fill="none" stroke="midnightblue" d="M386.014,-253.348C406.109,-259.04 428.033,-265.249 446.983,-270.616"/>
<polygon fill="midnightblue" stroke="midnightblue" points="386.893,-249.959 376.317,-250.601 384.985,-256.694 386.893,-249.959"/>
</g>
<!-- Node15 -->
<g id="node15" class="node"><title>Node15</title>
<g id="a_node15"><a xlink:href="classsoftwarecontainer_1_1_limit_range_error.html" target="_top" xlink:title="softwarecontainer::\lLimitRangeError">
<polygon fill="white" stroke="black" points="447,-220.5 447,-250.5 547,-250.5 547,-220.5 447,-220.5"/>
<text text-anchor="start" x="455" y="-238.5" font-family="Helvetica,sans-Serif" font-size="10.00">softwarecontainer::</text>
<text text-anchor="middle" x="497" y="-227.5" font-family="Helvetica,sans-Serif" font-size="10.00">LimitRangeError</text>
</a>
</g>
</g>
<!-- Node12&#45;&gt;Node15 -->
<g id="edge14" class="edge"><title>Node12&#45;&gt;Node15</title>
<path fill="none" stroke="midnightblue" d="M388.9,-235.5C408.14,-235.5 428.823,-235.5 446.834,-235.5"/>
<polygon fill="midnightblue" stroke="midnightblue" points="388.691,-232 378.691,-235.5 388.691,-239 388.691,-232"/>
</g>
<!-- Node17 -->
<g id="node17" class="node"><title>Node17</title>
<g id="a_node17"><a xlink:href="classsoftwarecontainer_1_1_capability_parse_error.html" target="_top" xlink:title="An error occured in ConfigStore when parsing a Capability in a Service Manifest. ">
<polygon fill="white" stroke="black" points="443.5,-171.5 443.5,-201.5 550.5,-201.5 550.5,-171.5 443.5,-171.5"/>
<text text-anchor="start" x="451.5" y="-189.5" font-family="Helvetica,sans-Serif" font-size="10.00">softwarecontainer::</text>
<text text-anchor="middle" x="497" y="-178.5" font-family="Helvetica,sans-Serif" font-size="10.00">CapabilityParseError</text>
</a>
</g>
</g>
<!-- Node16&#45;&gt;Node17 -->
<g id="edge16" class="edge"><title>Node16&#45;&gt;Node17</title>
<path fill="none" stroke="midnightblue" d="M382.277,-170.723C402.137,-173.479 424.128,-176.529 443.437,-179.208"/>
<polygon fill="midnightblue" stroke="midnightblue" points="382.498,-167.221 372.112,-169.313 381.536,-174.154 382.498,-167.221"/>
</g>
<!-- Node18 -->
<g id="node18" class="node"><title>Node18</title>
<g id="a_node18"><a xlink:href="classsoftwarecontainer_1_1_service_manifest_parse_error.html" target="_top" xlink:title="An error occured in ConfigStore when parsing a Service Manifest. ">
<polygon fill="white" stroke="black" points="430,-122.5 430,-152.5 564,-152.5 564,-122.5 430,-122.5"/>
<text text-anchor="start" x="438" y="-140.5" font-family="Helvetica,sans-Serif" font-size="10.00">softwarecontainer::</text>
<text text-anchor="middle" x="497" y="-129.5" font-family="Helvetica,sans-Serif" font-size="10.00">ServiceManifestParseError</text>
</a>
</g>
</g>
<!-- Node16&#45;&gt;Node18 -->
<g id="edge17" class="edge"><title>Node16&#45;&gt;Node18</title>
<path fill="none" stroke="midnightblue" d="M382.04,-153.968C397.468,-151.739 414.197,-149.321 429.964,-147.043"/>
<polygon fill="midnightblue" stroke="midnightblue" points="381.509,-150.509 372.112,-155.403 382.51,-157.437 381.509,-150.509"/>
</g>
<!-- Node19 -->
<g id="node19" class="node"><title>Node19</title>
<g id="a_node19"><a xlink:href="classsoftwarecontainer_1_1_service_manifest_path_error.html" target="_top" xlink:title="An error occured in ConfigStore relating to the path to the Service Manifest(s) ">
<polygon fill="white" stroke="black" points="433,-73.5 433,-103.5 561,-103.5 561,-73.5 433,-73.5"/>
<text text-anchor="start" x="441" y="-91.5" font-family="Helvetica,sans-Serif" font-size="10.00">softwarecontainer::</text>
<text text-anchor="middle" x="497" y="-80.5" font-family="Helvetica,sans-Serif" font-size="10.00">ServiceManifestPathError</text>
</a>
</g>
</g>
<!-- Node16&#45;&gt;Node19 -->
<g id="edge18" class="edge"><title>Node16&#45;&gt;Node19</title>
<path fill="none" stroke="midnightblue" d="M381.62,-144.163C385.868,-142.386 390.036,-140.496 394,-138.5 411.398,-129.739 412.763,-122.574 430,-113.5 436.831,-109.904 444.297,-106.564 451.671,-103.572"/>
<polygon fill="midnightblue" stroke="midnightblue" points="380.256,-140.939 372.244,-147.87 382.83,-147.449 380.256,-140.939"/>
</g>
<!-- Node22 -->
<g id="node22" class="node"><title>Node22</title>
<g id="a_node22"><a xlink:href="classsoftwarecontainer_1_1_i_p_allocation_error.html" target="_top" xlink:title="softwarecontainer::\lIPAllocationError">
<polygon fill="white" stroke="black" points="447,-24.5 447,-54.5 547,-54.5 547,-24.5 447,-24.5"/>
<text text-anchor="start" x="455" y="-42.5" font-family="Helvetica,sans-Serif" font-size="10.00">softwarecontainer::</text>
<text text-anchor="middle" x="497" y="-31.5" font-family="Helvetica,sans-Serif" font-size="10.00">IPAllocationError</text>
</a>
</g>
</g>
<!-- Node21&#45;&gt;Node22 -->
<g id="edge21" class="edge"><title>Node21&#45;&gt;Node22</title>
<path fill="none" stroke="midnightblue" d="M388.634,-55.0153C407.949,-52.2241 428.74,-49.2197 446.834,-46.605"/>
<polygon fill="midnightblue" stroke="midnightblue" points="388.087,-51.5579 378.691,-56.4522 389.088,-58.4859 388.087,-51.5579"/>
</g>
</g>
</svg>
