<?xml version="1.0" encoding="UTF-8" standalone="no"?>
<!DOCTYPE svg PUBLIC "-//W3C//DTD SVG 1.1//EN"
 "http://www.w3.org/Graphics/SVG/1.1/DTD/svg11.dtd">
<!-- Generated by graphviz version 2.38.0 (20140413.2041)
 -->
<!-- Title: Graphical Class Hierarchy Pages: 1 -->
<svg width="262pt" height="431pt"
 viewBox="0.00 0.00 262.00 431.00" xmlns="http://www.w3.org/2000/svg" xmlns:xlink="http://www.w3.org/1999/xlink">
<g id="graph0" class="graph" transform="scale(1 1) rotate(0) translate(4 427)">
<title>Graphical Class Hierarchy</title>
<polygon fill="white" stroke="none" points="-4,4 -4,-427 258,-427 258,4 -4,4"/>
<!-- Node1 -->
<g id="node1" class="node"><title>Node1</title>
<g id="a_node1"><a xlink:href="classsoftwarecontainer_1_1_gateway.html" target="_top" xlink:title="Gateway base class for SoftwareContainer. ">
<polygon fill="white" stroke="black" points="0,-196.5 0,-226.5 100,-226.5 100,-196.5 0,-196.5"/>
<text text-anchor="start" x="8" y="-214.5" font-family="Helvetica,sans-Serif" font-size="10.00">softwarecontainer::</text>
<text text-anchor="middle" x="50" y="-203.5" font-family="Helvetica,sans-Serif" font-size="10.00">Gateway</text>
</a>
</g>
</g>
<!-- Node2 -->
<g id="node2" class="node"><title>Node2</title>
<g id="a_node2"><a xlink:href="classsoftwarecontainer_1_1_cgroups_gateway.html" target="_top" xlink:title="The cgroups gateway sets cgroups related settings for the container. ">
<polygon fill="white" stroke="black" points="145,-392.5 145,-422.5 245,-422.5 245,-392.5 145,-392.5"/>
<text text-anchor="start" x="153" y="-410.5" font-family="Helvetica,sans-Serif" font-size="10.00">softwarecontainer::</text>
<text text-anchor="middle" x="195" y="-399.5" font-family="Helvetica,sans-Serif" font-size="10.00">CgroupsGateway</text>
</a>
</g>
</g>
<!-- Node1&#45;&gt;Node2 -->
<g id="edge1" class="edge"><title>Node1&#45;&gt;Node2</title>
<path fill="none" stroke="midnightblue" d="M57.2545,-236.459C67.6796,-273.294 91.9436,-342.286 136,-383.5 139.661,-386.925 143.879,-389.893 148.335,-392.459"/>
<polygon fill="midnightblue" stroke="midnightblue" points="60.5623,-235.284 54.5661,-226.549 53.8064,-237.117 60.5623,-235.284"/>
</g>
<!-- Node3 -->
<g id="node3" class="node"><title>Node3</title>
<g id="a_node3"><a xlink:href="classsoftwarecontainer_1_1_d_bus_gateway.html" target="_top" xlink:title="softwarecontainer::\lDBusGateway">
<polygon fill="white" stroke="black" points="145,-343.5 145,-373.5 245,-373.5 245,-343.5 145,-343.5"/>
<text text-anchor="start" x="153" y="-361.5" font-family="Helvetica,sans-Serif" font-size="10.00">softwarecontainer::</text>
<text text-anchor="middle" x="195" y="-350.5" font-family="Helvetica,sans-Serif" font-size="10.00">DBusGateway</text>
</a>
</g>
</g>
<!-- Node1&#45;&gt;Node3 -->
<g id="edge2" class="edge"><title>Node1&#45;&gt;Node3</title>
<path fill="none" stroke="midnightblue" d="M62.5614,-236.112C76.5173,-263.462 102.364,-307.343 136,-334.5 140.155,-337.854 144.844,-340.804 149.711,-343.381"/>
<polygon fill="midnightblue" stroke="midnightblue" points="65.5441,-234.248 57.9653,-226.844 59.273,-237.358 65.5441,-234.248"/>
</g>
<!-- Node4 -->
<g id="node4" class="node"><title>Node4</title>
<g id="a_node4"><a xlink:href="classsoftwarecontainer_1_1_d_bus_gateway_instance.html" target="_top" xlink:title="DBus Gateway takes care of spawning and killing the DBus proxies. ">
<polygon fill="white" stroke="black" points="136,-294.5 136,-324.5 254,-324.5 254,-294.5 136,-294.5"/>
<text text-anchor="start" x="144" y="-312.5" font-family="Helvetica,sans-Serif" font-size="10.00">softwarecontainer::</text>
<text text-anchor="middle" x="195" y="-301.5" font-family="Helvetica,sans-Serif" font-size="10.00">DBusGatewayInstance</text>
</a>
</g>
</g>
<!-- Node1&#45;&gt;Node4 -->
<g id="edge3" class="edge"><title>Node1&#45;&gt;Node4</title>
<path fill="none" stroke="midnightblue" d="M72.8689,-234.113C89.161,-250.023 112.554,-270.985 136,-285.5 141.281,-288.77 147.086,-291.773 152.92,-294.467"/>
<polygon fill="midnightblue" stroke="midnightblue" points="75.0314,-231.327 65.4723,-226.758 70.0957,-236.291 75.0314,-231.327"/>
</g>
<!-- Node5 -->
<g id="node5" class="node"><title>Node5</title>
<g id="a_node5"><a xlink:href="classsoftwarecontainer_1_1_device_node_gateway.html" target="_top" xlink:title="This gateway is responsible for exposing device nodes in an LXC container. ">
<polygon fill="white" stroke="black" points="140,-245.5 140,-275.5 250,-275.5 250,-245.5 140,-245.5"/>
<text text-anchor="start" x="148" y="-263.5" font-family="Helvetica,sans-Serif" font-size="10.00">softwarecontainer::</text>
<text text-anchor="middle" x="195" y="-252.5" font-family="Helvetica,sans-Serif" font-size="10.00">DeviceNodeGateway</text>
</a>
</g>
</g>
<!-- Node1&#45;&gt;Node5 -->
<g id="edge4" class="edge"><title>Node1&#45;&gt;Node5</title>
<path fill="none" stroke="midnightblue" d="M104.668,-229.89C119.557,-234.992 135.548,-240.471 149.828,-245.364"/>
<polygon fill="midnightblue" stroke="midnightblue" points="105.666,-226.532 95.0715,-226.601 103.397,-233.154 105.666,-226.532"/>
</g>
<!-- Node6 -->
<g id="node6" class="node"><title>Node6</title>
<g id="a_node6"><a xlink:href="classsoftwarecontainer_1_1_environment_gateway.html" target="_top" xlink:title="Environment Gateway is used to define environment variables to the container. ">
<polygon fill="white" stroke="black" points="140,-196.5 140,-226.5 250,-226.5 250,-196.5 140,-196.5"/>
<text text-anchor="start" x="148" y="-214.5" font-family="Helvetica,sans-Serif" font-size="10.00">softwarecontainer::</text>
<text text-anchor="middle" x="195" y="-203.5" font-family="Helvetica,sans-Serif" font-size="10.00">EnvironmentGateway</text>
</a>
</g>
</g>
<!-- Node1&#45;&gt;Node6 -->
<g id="edge5" class="edge"><title>Node1&#45;&gt;Node6</title>
<path fill="none" stroke="midnightblue" d="M110.263,-211.5C120.048,-211.5 130.148,-211.5 139.801,-211.5"/>
<polygon fill="midnightblue" stroke="midnightblue" points="110.213,-208 100.212,-211.5 110.212,-215 110.213,-208"/>
</g>
<!-- Node7 -->
<g id="node7" class="node"><title>Node7</title>
<g id="a_node7"><a xlink:href="classsoftwarecontainer_1_1_file_gateway.html" target="_top" xlink:title="This gateway lets you map files (including socket files) or folders from the host into the container&#39;...">
<polygon fill="white" stroke="black" points="145,-147.5 145,-177.5 245,-177.5 245,-147.5 145,-147.5"/>
<text text-anchor="start" x="153" y="-165.5" font-family="Helvetica,sans-Serif" font-size="10.00">softwarecontainer::</text>
<text text-anchor="middle" x="195" y="-154.5" font-family="Helvetica,sans-Serif" font-size="10.00">FileGateway</text>
</a>
</g>
</g>
<!-- Node1&#45;&gt;Node7 -->
<g id="edge6" class="edge"><title>Node1&#45;&gt;Node7</title>
<path fill="none" stroke="midnightblue" d="M104.668,-193.11C119.557,-188.008 135.548,-182.529 149.828,-177.636"/>
<polygon fill="midnightblue" stroke="midnightblue" points="103.397,-189.846 95.0715,-196.399 105.666,-196.468 103.397,-189.846"/>
</g>
<!-- Node8 -->
<g id="node8" class="node"><title>Node8</title>
<g id="a_node8"><a xlink:href="classsoftwarecontainer_1_1_network_gateway.html" target="_top" xlink:title="Sets up and manages network access and routing to the container. ">
<polygon fill="white" stroke="black" points="145,-98.5 145,-128.5 245,-128.5 245,-98.5 145,-98.5"/>
<text text-anchor="start" x="153" y="-116.5" font-family="Helvetica,sans-Serif" font-size="10.00">softwarecontainer::</text>
<text text-anchor="middle" x="195" y="-105.5" font-family="Helvetica,sans-Serif" font-size="10.00">NetworkGateway</text>
</a>
</g>
</g>
<!-- Node1&#45;&gt;Node8 -->
<g id="edge7" class="edge"><title>Node1&#45;&gt;Node8</title>
<path fill="none" stroke="midnightblue" d="M73.2859,-189.03C89.6202,-173.429 112.889,-152.934 136,-138.5 141.766,-134.899 148.141,-131.575 154.492,-128.607"/>
<polygon fill="midnightblue" stroke="midnightblue" points="70.5898,-186.769 65.8554,-196.248 75.4672,-191.791 70.5898,-186.769"/>
</g>
<!-- Node9 -->
<g id="node9" class="node"><title>Node9</title>
<g id="a_node9"><a xlink:href="classsoftwarecontainer_1_1_pulse_gateway.html" target="_top" xlink:title="The PulseAudio Gateway is used to provide access to the host system PulseAudio server. ">
<polygon fill="white" stroke="black" points="145,-49.5 145,-79.5 245,-79.5 245,-49.5 145,-49.5"/>
<text text-anchor="start" x="153" y="-67.5" font-family="Helvetica,sans-Serif" font-size="10.00">softwarecontainer::</text>
<text text-anchor="middle" x="195" y="-56.5" font-family="Helvetica,sans-Serif" font-size="10.00">PulseGateway</text>
</a>
</g>
</g>
<!-- Node1&#45;&gt;Node9 -->
<g id="edge8" class="edge"><title>Node1&#45;&gt;Node9</title>
<path fill="none" stroke="midnightblue" d="M62.6827,-187.181C76.7488,-160.136 102.695,-116.688 136,-89.5 140.587,-85.7556 145.819,-82.4785 151.221,-79.6382"/>
<polygon fill="midnightblue" stroke="midnightblue" points="59.4392,-185.839 58.0464,-196.342 65.6849,-189 59.4392,-185.839"/>
</g>
<!-- Node10 -->
<g id="node10" class="node"><title>Node10</title>
<g id="a_node10"><a xlink:href="classsoftwarecontainer_1_1_wayland_gateway.html" target="_top" xlink:title="softwarecontainer::\lWaylandGateway">
<polygon fill="white" stroke="black" points="145,-0.5 145,-30.5 245,-30.5 245,-0.5 145,-0.5"/>
<text text-anchor="start" x="153" y="-18.5" font-family="Helvetica,sans-Serif" font-size="10.00">softwarecontainer::</text>
<text text-anchor="middle" x="195" y="-7.5" font-family="Helvetica,sans-Serif" font-size="10.00">WaylandGateway</text>
</a>
</g>
</g>
<!-- Node1&#45;&gt;Node10 -->
<g id="edge9" class="edge"><title>Node1&#45;&gt;Node10</title>
<path fill="none" stroke="midnightblue" d="M57.5329,-186.214C68.1944,-149.563 92.6218,-81.583 136,-40.5 140.06,-36.6546 144.805,-33.3492 149.799,-30.5212"/>
<polygon fill="midnightblue" stroke="midnightblue" points="54.092,-185.523 54.773,-196.096 60.834,-187.406 54.092,-185.523"/>
</g>
</g>
</svg>
