<?xml version="1.0" encoding="UTF-8" standalone="no"?>
<!DOCTYPE svg PUBLIC "-//W3C//DTD SVG 1.1//EN"
 "http://www.w3.org/Graphics/SVG/1.1/DTD/svg11.dtd">
<!-- Generated by graphviz version 2.38.0 (20140413.2041)
 -->
<!-- Title: Graphical Class Hierarchy Pages: 1 -->
<svg width="510pt" height="126pt"
 viewBox="0.00 0.00 510.00 126.00" xmlns="http://www.w3.org/2000/svg" xmlns:xlink="http://www.w3.org/1999/xlink">
<g id="graph0" class="graph" transform="scale(1 1) rotate(0) translate(4 122)">
<title>Graphical Class Hierarchy</title>
<polygon fill="white" stroke="none" points="-4,4 -4,-122 506,-122 506,4 -4,4"/>
<!-- Node1 -->
<g id="node1" class="node"><title>Node1</title>
<polygon fill="white" stroke="#bfbfbf" points="176.5,-98.5 176.5,-117.5 280.5,-117.5 280.5,-98.5 176.5,-98.5"/>
<text text-anchor="middle" x="228.5" y="-105.5" font-family="Helvetica,sans-Serif" font-size="10.00">IntrospectableProxy</text>
</g>
<!-- Node2 -->
<g id="node2" class="node"><title>Node2</title>
<g id="a_node2"><a xlink:href="classsoftwarecontainer_1_1_agent_private_data_1_1_d_bus_cpp_proxy.html" target="_top" xlink:title="softwarecontainer::\lAgentPrivateData::DBusCppProxy">
<polygon fill="white" stroke="black" points="334,-55 334,-85 502,-85 502,-55 334,-55"/>
<text text-anchor="start" x="342" y="-73" font-family="Helvetica,sans-Serif" font-size="10.00">softwarecontainer::</text>
<text text-anchor="middle" x="418" y="-62" font-family="Helvetica,sans-Serif" font-size="10.00">AgentPrivateData::DBusCppProxy</text>
</a>
</g>
</g>
<!-- Node1&#45;&gt;Node2 -->
<g id="edge1" class="edge"><title>Node1&#45;&gt;Node2</title>
<path fill="none" stroke="midnightblue" d="M286.919,-96.3631C304.518,-92.7964 324.137,-88.8203 342.693,-85.0595"/>
<polygon fill="midnightblue" stroke="midnightblue" points="285.92,-92.9944 276.814,-98.411 287.31,-99.8549 285.92,-92.9944"/>
</g>
<!-- Node3 -->
<g id="node3" class="node"><title>Node3</title>
<polygon fill="white" stroke="#bfbfbf" points="193,-60.5 193,-79.5 264,-79.5 264,-60.5 193,-60.5"/>
<text text-anchor="middle" x="228.5" y="-67.5" font-family="Helvetica,sans-Serif" font-size="10.00">ObjectProxy</text>
</g>
<!-- Node3&#45;&gt;Node2 -->
<g id="edge2" class="edge"><title>Node3&#45;&gt;Node2</title>
<path fill="none" stroke="midnightblue" d="M274.408,-70C292.218,-70 313.292,-70 333.697,-70"/>
<polygon fill="midnightblue" stroke="midnightblue" points="274.328,-66.5001 264.328,-70 274.328,-73.5001 274.328,-66.5001"/>
</g>
<!-- Node4 -->
<g id="node4" class="node"><title>Node4</title>
<polygon fill="white" stroke="#bfbfbf" points="0,-6 0,-36 123,-36 123,-6 0,-6"/>
<text text-anchor="start" x="8" y="-24" font-family="Helvetica,sans-Serif" font-size="10.00">SoftwareContainerAgent</text>
<text text-anchor="middle" x="61.5" y="-13" font-family="Helvetica,sans-Serif" font-size="10.00">_proxy</text>
</g>
<!-- Node5 -->
<g id="node5" class="node"><title>Node5</title>
<g id="a_node5"><a xlink:href="classsoftwarecontainer_1_1_agent_private_data_1_1_software_container_agent_proxy.html" target="_top" xlink:title="softwarecontainer::\lAgentPrivateData::Software\lContainerAgentProxy">
<polygon fill="white" stroke="black" points="159,-0.5 159,-41.5 298,-41.5 298,-0.5 159,-0.5"/>
<text text-anchor="start" x="167" y="-29.5" font-family="Helvetica,sans-Serif" font-size="10.00">softwarecontainer::</text>
<text text-anchor="start" x="167" y="-18.5" font-family="Helvetica,sans-Serif" font-size="10.00">AgentPrivateData::Software</text>
<text text-anchor="middle" x="228.5" y="-7.5" font-family="Helvetica,sans-Serif" font-size="10.00">ContainerAgentProxy</text>
</a>
</g>
</g>
<!-- Node4&#45;&gt;Node5 -->
<g id="edge3" class="edge"><title>Node4&#45;&gt;Node5</title>
<path fill="none" stroke="midnightblue" d="M133.267,-21C141.77,-21 150.444,-21 158.916,-21"/>
<polygon fill="midnightblue" stroke="midnightblue" points="133.003,-17.5001 123.003,-21 133.003,-24.5001 133.003,-17.5001"/>
</g>
<!-- Node5&#45;&gt;Node2 -->
<g id="edge4" class="edge"><title>Node5&#45;&gt;Node2</title>
<path fill="none" stroke="midnightblue" d="M308.245,-41.5788C325.381,-46.0569 343.203,-50.7145 359.342,-54.932"/>
<polygon fill="midnightblue" stroke="midnightblue" points="308.813,-38.1098 298.253,-38.9676 307.044,-44.8823 308.813,-38.1098"/>
</g>
</g>
</svg>
