<?xml version="1.0" encoding="UTF-8" standalone="no"?>
<!DOCTYPE svg PUBLIC "-//W3C//DTD SVG 1.1//EN"
 "http://www.w3.org/Graphics/SVG/1.1/DTD/svg11.dtd">
<!-- Generated by graphviz version 2.38.0 (20140413.2041)
 -->
<!-- Title: Graphical Class Hierarchy Pages: 1 -->
<svg width="471pt" height="529pt"
 viewBox="0.00 0.00 471.00 529.00" xmlns="http://www.w3.org/2000/svg" xmlns:xlink="http://www.w3.org/1999/xlink">
<g id="graph0" class="graph" transform="scale(1 1) rotate(0) translate(4 525)">
<title>Graphical Class Hierarchy</title>
<polygon fill="white" stroke="none" points="-4,4 -4,-525 467,-525 467,4 -4,4"/>
<!-- Node1 -->
<g id="node1" class="node"><title>Node1</title>
<g id="a_node1"><a xlink:href="classsoftwarecontainer_1_1_executable.html" target="_top" xlink:title="softwarecontainer::\lExecutable">
<polygon fill="white" stroke="black" points="0,-490.5 0,-520.5 100,-520.5 100,-490.5 0,-490.5"/>
<text text-anchor="start" x="8" y="-508.5" font-family="Helvetica,sans-Serif" font-size="10.00">softwarecontainer::</text>
<text text-anchor="middle" x="50" y="-497.5" font-family="Helvetica,sans-Serif" font-size="10.00">Executable</text>
</a>
</g>
</g>
<!-- Node2 -->
<g id="node2" class="node"><title>Node2</title>
<g id="a_node2"><a xlink:href="classsoftwarecontainer_1_1_container_abstract_interface.html" target="_top" xlink:title="softwarecontainer::\lContainerAbstractInterface">
<polygon fill="white" stroke="black" points="155.5,-490.5 155.5,-520.5 289.5,-520.5 289.5,-490.5 155.5,-490.5"/>
<text text-anchor="start" x="163.5" y="-508.5" font-family="Helvetica,sans-Serif" font-size="10.00">softwarecontainer::</text>
<text text-anchor="middle" x="222.5" y="-497.5" font-family="Helvetica,sans-Serif" font-size="10.00">ContainerAbstractInterface</text>
</a>
</g>
</g>
<!-- Node1&#45;&gt;Node2 -->
<g id="edge1" class="edge"><title>Node1&#45;&gt;Node2</title>
<path fill="none" stroke="midnightblue" d="M110.647,-505.5C125.137,-505.5 140.714,-505.5 155.479,-505.5"/>
<polygon fill="midnightblue" stroke="midnightblue" points="110.316,-502 100.316,-505.5 110.316,-509 110.316,-502"/>
</g>
<!-- Node3 -->
<g id="node3" class="node"><title>Node3</title>
<g id="a_node3"><a xlink:href="classsoftwarecontainer_1_1_container.html" target="_top" xlink:title="The Container class is an abstraction of the specific containment technology used. ">
<polygon fill="white" stroke="black" points="354,-490.5 354,-520.5 454,-520.5 454,-490.5 354,-490.5"/>
<text text-anchor="start" x="362" y="-508.5" font-family="Helvetica,sans-Serif" font-size="10.00">softwarecontainer::</text>
<text text-anchor="middle" x="404" y="-497.5" font-family="Helvetica,sans-Serif" font-size="10.00">Container</text>
</a>
</g>
</g>
<!-- Node2&#45;&gt;Node3 -->
<g id="edge2" class="edge"><title>Node2&#45;&gt;Node3</title>
<path fill="none" stroke="midnightblue" d="M299.675,-505.5C318.037,-505.5 337.174,-505.5 353.917,-505.5"/>
<polygon fill="midnightblue" stroke="midnightblue" points="299.574,-502 289.574,-505.5 299.574,-509 299.574,-502"/>
</g>
<!-- Node4 -->
<g id="node4" class="node"><title>Node4</title>
<g id="a_node4"><a xlink:href="classsoftwarecontainer_1_1_file_toolkit_with_undo.html" target="_top" xlink:title="softwarecontainer::\lFileToolkitWithUndo">
<polygon fill="white" stroke="black" points="170,-441.5 170,-471.5 275,-471.5 275,-441.5 170,-441.5"/>
<text text-anchor="start" x="178" y="-459.5" font-family="Helvetica,sans-Serif" font-size="10.00">softwarecontainer::</text>
<text text-anchor="middle" x="222.5" y="-448.5" font-family="Helvetica,sans-Serif" font-size="10.00">FileToolkitWithUndo</text>
</a>
</g>
</g>
<!-- Node4&#45;&gt;Node3 -->
<g id="edge3" class="edge"><title>Node4&#45;&gt;Node3</title>
<path fill="none" stroke="#8b1a1a" d="M285.202,-473.343C307.672,-479.477 332.749,-486.323 353.971,-492.116"/>
<polygon fill="#8b1a1a" stroke="#8b1a1a" points="285.988,-469.93 275.419,-470.673 284.144,-476.683 285.988,-469.93"/>
</g>
<!-- Node5 -->
<g id="node5" class="node"><title>Node5</title>
<g id="a_node5"><a xlink:href="classsoftwarecontainer_1_1_device_node_gateway.html" target="_top" xlink:title="This gateway is responsible for exposing device nodes in an LXC container. ">
<polygon fill="white" stroke="black" points="349,-392.5 349,-422.5 459,-422.5 459,-392.5 349,-392.5"/>
<text text-anchor="start" x="357" y="-410.5" font-family="Helvetica,sans-Serif" font-size="10.00">softwarecontainer::</text>
<text text-anchor="middle" x="404" y="-399.5" font-family="Helvetica,sans-Serif" font-size="10.00">DeviceNodeGateway</text>
</a>
</g>
</g>
<!-- Node4&#45;&gt;Node5 -->
<g id="edge4" class="edge"><title>Node4&#45;&gt;Node5</title>
<path fill="none" stroke="midnightblue" d="M285.335,-439.62C305.935,-433.997 328.714,-427.779 348.699,-422.323"/>
<polygon fill="midnightblue" stroke="midnightblue" points="284.144,-436.317 275.419,-442.327 285.988,-443.07 284.144,-436.317"/>
</g>
<!-- Node6 -->
<g id="node6" class="node"><title>Node6</title>
<g id="a_node6"><a xlink:href="classsoftwarecontainer_1_1_software_container.html" target="_top" xlink:title="An abstraction of concrete container implementations. ">
<polygon fill="white" stroke="black" points="354,-441.5 354,-471.5 454,-471.5 454,-441.5 354,-441.5"/>
<text text-anchor="start" x="362" y="-459.5" font-family="Helvetica,sans-Serif" font-size="10.00">softwarecontainer::</text>
<text text-anchor="middle" x="404" y="-448.5" font-family="Helvetica,sans-Serif" font-size="10.00">SoftwareContainer</text>
</a>
</g>
</g>
<!-- Node4&#45;&gt;Node6 -->
<g id="edge5" class="edge"><title>Node4&#45;&gt;Node6</title>
<path fill="none" stroke="#8b1a1a" d="M285.504,-456.5C307.896,-456.5 332.844,-456.5 353.971,-456.5"/>
<polygon fill="#8b1a1a" stroke="#8b1a1a" points="285.419,-453 275.419,-456.5 285.419,-460 285.419,-453"/>
</g>
<!-- Node7 -->
<g id="node7" class="node"><title>Node7</title>
<g id="a_node7"><a xlink:href="classsoftwarecontainer_1_1_gateway.html" target="_top" xlink:title="Gateway base class for SoftwareContainer. ">
<polygon fill="white" stroke="black" points="172.5,-196.5 172.5,-226.5 272.5,-226.5 272.5,-196.5 172.5,-196.5"/>
<text text-anchor="start" x="180.5" y="-214.5" font-family="Helvetica,sans-Serif" font-size="10.00">softwarecontainer::</text>
<text text-anchor="middle" x="222.5" y="-203.5" font-family="Helvetica,sans-Serif" font-size="10.00">Gateway</text>
</a>
</g>
</g>
<!-- Node7&#45;&gt;Node5 -->
<g id="edge9" class="edge"><title>Node7&#45;&gt;Node5</title>
<path fill="none" stroke="midnightblue" d="M235.482,-236.268C254.237,-272.744 293.749,-341.055 345,-382.5 349.689,-386.292 355.041,-389.609 360.554,-392.479"/>
<polygon fill="midnightblue" stroke="midnightblue" points="238.374,-234.23 230.75,-226.873 232.122,-237.379 238.374,-234.23"/>
</g>
<!-- Node8 -->
<g id="node8" class="node"><title>Node8</title>
<g id="a_node8"><a xlink:href="classsoftwarecontainer_1_1_cgroups_gateway.html" target="_top" xlink:title="The cgroups gateway sets cgroups related settings for the container. ">
<polygon fill="white" stroke="black" points="354,-0.5 354,-30.5 454,-30.5 454,-0.5 354,-0.5"/>
<text text-anchor="start" x="362" y="-18.5" font-family="Helvetica,sans-Serif" font-size="10.00">softwarecontainer::</text>
<text text-anchor="middle" x="404" y="-7.5" font-family="Helvetica,sans-Serif" font-size="10.00">CgroupsGateway</text>
</a>
</g>
</g>
<!-- Node7&#45;&gt;Node8 -->
<g id="edge6" class="edge"><title>Node7&#45;&gt;Node8</title>
<path fill="none" stroke="midnightblue" d="M235.087,-187.043C253.579,-150.367 293.043,-81.0084 345,-39.5 349.257,-36.0991 354.064,-33.1111 359.043,-30.5045"/>
<polygon fill="midnightblue" stroke="midnightblue" points="231.721,-185.954 230.434,-196.47 237.998,-189.052 231.721,-185.954"/>
</g>
<!-- Node9 -->
<g id="node9" class="node"><title>Node9</title>
<g id="a_node9"><a xlink:href="classsoftwarecontainer_1_1_d_bus_gateway.html" target="_top" xlink:title="softwarecontainer::\lDBusGateway">
<polygon fill="white" stroke="black" points="354,-343.5 354,-373.5 454,-373.5 454,-343.5 354,-343.5"/>
<text text-anchor="start" x="362" y="-361.5" font-family="Helvetica,sans-Serif" font-size="10.00">softwarecontainer::</text>
<text text-anchor="middle" x="404" y="-350.5" font-family="Helvetica,sans-Serif" font-size="10.00">DBusGateway</text>
</a>
</g>
</g>
<!-- Node7&#45;&gt;Node9 -->
<g id="edge7" class="edge"><title>Node7&#45;&gt;Node9</title>
<path fill="none" stroke="midnightblue" d="M242.044,-234.904C264.202,-261.629 303.514,-305.287 345,-333.5 350.44,-337.2 356.516,-340.538 362.632,-343.482"/>
<polygon fill="midnightblue" stroke="midnightblue" points="244.511,-232.391 235.472,-226.864 239.091,-236.821 244.511,-232.391"/>
</g>
<!-- Node10 -->
<g id="node10" class="node"><title>Node10</title>
<g id="a_node10"><a xlink:href="classsoftwarecontainer_1_1_d_bus_gateway_instance.html" target="_top" xlink:title="DBus Gateway takes care of spawning and killing the DBus proxies. ">
<polygon fill="white" stroke="black" points="345,-294.5 345,-324.5 463,-324.5 463,-294.5 345,-294.5"/>
<text text-anchor="start" x="353" y="-312.5" font-family="Helvetica,sans-Serif" font-size="10.00">softwarecontainer::</text>
<text text-anchor="middle" x="404" y="-301.5" font-family="Helvetica,sans-Serif" font-size="10.00">DBusGatewayInstance</text>
</a>
</g>
</g>
<!-- Node7&#45;&gt;Node10 -->
<g id="edge8" class="edge"><title>Node7&#45;&gt;Node10</title>
<path fill="none" stroke="midnightblue" d="M255.44,-232.301C279.562,-247.612 313.742,-268.464 345,-284.5 351.732,-287.953 359.048,-291.361 366.145,-294.498"/>
<polygon fill="midnightblue" stroke="midnightblue" points="257.025,-229.161 246.714,-226.726 253.256,-235.06 257.025,-229.161"/>
</g>
<!-- Node11 -->
<g id="node11" class="node"><title>Node11</title>
<g id="a_node11"><a xlink:href="classsoftwarecontainer_1_1_environment_gateway.html" target="_top" xlink:title="Environment Gateway is used to define environment variables to the container. ">
<polygon fill="white" stroke="black" points="349,-245.5 349,-275.5 459,-275.5 459,-245.5 349,-245.5"/>
<text text-anchor="start" x="357" y="-263.5" font-family="Helvetica,sans-Serif" font-size="10.00">softwarecontainer::</text>
<text text-anchor="middle" x="404" y="-252.5" font-family="Helvetica,sans-Serif" font-size="10.00">EnvironmentGateway</text>
</a>
</g>
</g>
<!-- Node7&#45;&gt;Node11 -->
<g id="edge10" class="edge"><title>Node7&#45;&gt;Node11</title>
<path fill="none" stroke="midnightblue" d="M282.211,-227.527C303.701,-233.393 327.899,-239.999 348.962,-245.749"/>
<polygon fill="midnightblue" stroke="midnightblue" points="283.118,-224.147 272.549,-224.889 281.274,-230.899 283.118,-224.147"/>
</g>
<!-- Node12 -->
<g id="node12" class="node"><title>Node12</title>
<g id="a_node12"><a xlink:href="classsoftwarecontainer_1_1_file_gateway.html" target="_top" xlink:title="This gateway lets you map files (including socket files) or folders from the host into the container&#39;...">
<polygon fill="white" stroke="black" points="354,-196.5 354,-226.5 454,-226.5 454,-196.5 354,-196.5"/>
<text text-anchor="start" x="362" y="-214.5" font-family="Helvetica,sans-Serif" font-size="10.00">softwarecontainer::</text>
<text text-anchor="middle" x="404" y="-203.5" font-family="Helvetica,sans-Serif" font-size="10.00">FileGateway</text>
</a>
</g>
</g>
<!-- Node7&#45;&gt;Node12 -->
<g id="edge11" class="edge"><title>Node7&#45;&gt;Node12</title>
<path fill="none" stroke="midnightblue" d="M282.552,-211.5C305.589,-211.5 331.695,-211.5 353.699,-211.5"/>
<polygon fill="midnightblue" stroke="midnightblue" points="282.549,-208 272.549,-211.5 282.549,-215 282.549,-208"/>
</g>
<!-- Node13 -->
<g id="node13" class="node"><title>Node13</title>
<g id="a_node13"><a xlink:href="classsoftwarecontainer_1_1_network_gateway.html" target="_top" xlink:title="Sets up and manages network access and routing to the container. ">
<polygon fill="white" stroke="black" points="354,-147.5 354,-177.5 454,-177.5 454,-147.5 354,-147.5"/>
<text text-anchor="start" x="362" y="-165.5" font-family="Helvetica,sans-Serif" font-size="10.00">softwarecontainer::</text>
<text text-anchor="middle" x="404" y="-154.5" font-family="Helvetica,sans-Serif" font-size="10.00">NetworkGateway</text>
</a>
</g>
</g>
<!-- Node7&#45;&gt;Node13 -->
<g id="edge12" class="edge"><title>Node7&#45;&gt;Node13</title>
<path fill="none" stroke="midnightblue" d="M282.242,-195.465C305.355,-189.155 331.596,-181.992 353.699,-175.958"/>
<polygon fill="midnightblue" stroke="midnightblue" points="281.274,-192.101 272.549,-198.111 283.118,-198.853 281.274,-192.101"/>
</g>
<!-- Node14 -->
<g id="node14" class="node"><title>Node14</title>
<g id="a_node14"><a xlink:href="classsoftwarecontainer_1_1_pulse_gateway.html" target="_top" xlink:title="The PulseAudio Gateway is used to provide access to the host system PulseAudio server. ">
<polygon fill="white" stroke="black" points="354,-98.5 354,-128.5 454,-128.5 454,-98.5 354,-98.5"/>
<text text-anchor="start" x="362" y="-116.5" font-family="Helvetica,sans-Serif" font-size="10.00">softwarecontainer::</text>
<text text-anchor="middle" x="404" y="-105.5" font-family="Helvetica,sans-Serif" font-size="10.00">PulseGateway</text>
</a>
</g>
</g>
<!-- Node7&#45;&gt;Node14 -->
<g id="edge13" class="edge"><title>Node7&#45;&gt;Node14</title>
<path fill="none" stroke="midnightblue" d="M254.567,-190.736C278.672,-175.083 313.224,-153.629 345,-137.5 351.122,-134.393 357.743,-131.361 364.248,-128.556"/>
<polygon fill="midnightblue" stroke="midnightblue" points="252.636,-187.817 246.183,-196.22 256.468,-193.675 252.636,-187.817"/>
</g>
<!-- Node15 -->
<g id="node15" class="node"><title>Node15</title>
<g id="a_node15"><a xlink:href="classsoftwarecontainer_1_1_wayland_gateway.html" target="_top" xlink:title="softwarecontainer::\lWaylandGateway">
<polygon fill="white" stroke="black" points="354,-49.5 354,-79.5 454,-79.5 454,-49.5 354,-49.5"/>
<text text-anchor="start" x="362" y="-67.5" font-family="Helvetica,sans-Serif" font-size="10.00">softwarecontainer::</text>
<text text-anchor="middle" x="404" y="-56.5" font-family="Helvetica,sans-Serif" font-size="10.00">WaylandGateway</text>
</a>
</g>
</g>
<!-- Node7&#45;&gt;Node15 -->
<g id="edge14" class="edge"><title>Node7&#45;&gt;Node15</title>
<path fill="none" stroke="midnightblue" d="M241.576,-188.219C263.56,-161.204 302.969,-116.76 345,-88.5 349.883,-85.2166 355.287,-82.2504 360.775,-79.6139"/>
<polygon fill="midnightblue" stroke="midnightblue" points="238.594,-186.344 235.07,-196.336 244.056,-190.722 238.594,-186.344"/>
</g>
<!-- Node16 -->
<g id="node16" class="node"><title>Node16</title>
<g id="a_node16"><a xlink:href="classsoftwarecontainer_1_1_software_container_abstract_interface.html" target="_top" xlink:title="softwarecontainer::\lSoftwareContainerAbstractInterface">
<polygon fill="white" stroke="black" points="136,-392.5 136,-422.5 309,-422.5 309,-392.5 136,-392.5"/>
<text text-anchor="start" x="144" y="-410.5" font-family="Helvetica,sans-Serif" font-size="10.00">softwarecontainer::</text>
<text text-anchor="middle" x="222.5" y="-399.5" font-family="Helvetica,sans-Serif" font-size="10.00">SoftwareContainerAbstractInterface</text>
</a>
</g>
</g>
<!-- Node16&#45;&gt;Node6 -->
<g id="edge15" class="edge"><title>Node16&#45;&gt;Node6</title>
<path fill="none" stroke="midnightblue" d="M288.569,-425.262C310.144,-431.152 333.783,-437.605 353.946,-443.109"/>
<polygon fill="midnightblue" stroke="midnightblue" points="289.389,-421.859 278.821,-422.601 287.546,-428.611 289.389,-421.859"/>
</g>
</g>
</svg>
