<?xml version="1.0" encoding="UTF-8" standalone="no"?>
<!DOCTYPE svg PUBLIC "-//W3C//DTD SVG 1.1//EN"
 "http://www.w3.org/Graphics/SVG/1.1/DTD/svg11.dtd">
<!-- Generated by graphviz version 2.38.0 (20140413.2041)
 -->
<!-- Title: Graphical Class Hierarchy Pages: 1 -->
<svg width="441pt" height="294pt"
 viewBox="0.00 0.00 441.00 294.00" xmlns="http://www.w3.org/2000/svg" xmlns:xlink="http://www.w3.org/1999/xlink">
<g id="graph0" class="graph" transform="scale(1 1) rotate(0) translate(4 290)">
<title>Graphical Class Hierarchy</title>
<polygon fill="white" stroke="none" points="-4,4 -4,-290 437,-290 437,4 -4,4"/>
<!-- Node1 -->
<g id="node1" class="node"><title>Node1</title>
<g id="a_node1"><a xlink:href="classsoftwarecontainer_1_1_j_s_o_n_parser.html" target="_top" xlink:title="Convenience layer for the Jansson JSON parser. ">
<polygon fill="white" stroke="black" points="0,-106 0,-136 108,-136 108,-106 0,-106"/>
<text text-anchor="start" x="8" y="-124" font-family="Helvetica,sans-Serif" font-size="10.00">softwarecontainer::</text>
<text text-anchor="middle" x="54" y="-113" font-family="Helvetica,sans-Serif" font-size="10.00">JSONParser</text>
</a>
</g>
</g>
<!-- Node2 -->
<g id="node2" class="node"><title>Node2</title>
<g id="a_node2"><a xlink:href="class_gateway.html" target="_top" xlink:title="Gateway base class for SoftwareContainer. ">
<polygon fill="white" stroke="black" points="182,-133.5 182,-152.5 240,-152.5 240,-133.5 182,-133.5"/>
<text text-anchor="middle" x="211" y="-140.5" font-family="Helvetica,sans-Serif" font-size="10.00">Gateway</text>
</a>
</g>
</g>
<!-- Node1&#45;&gt;Node2 -->
<g id="edge1" class="edge"><title>Node1&#45;&gt;Node2</title>
<path fill="none" stroke="darkgreen" d="M118.347,-129.991C140.424,-133.125 164.087,-136.483 181.838,-139.003"/>
<polygon fill="darkgreen" stroke="darkgreen" points="118.735,-126.511 108.342,-128.571 117.751,-133.442 118.735,-126.511"/>
</g>
<!-- Node11 -->
<g id="node11" class="node"><title>Node11</title>
<g id="a_node11"><a xlink:href="classsoftwarecontainer_1_1_software_container_agent.html" target="_top" xlink:title="A wrapper class. ">
<polygon fill="white" stroke="black" points="144,-84 144,-114 278,-114 278,-84 144,-84"/>
<text text-anchor="start" x="152" y="-102" font-family="Helvetica,sans-Serif" font-size="10.00">softwarecontainer::</text>
<text text-anchor="middle" x="211" y="-91" font-family="Helvetica,sans-Serif" font-size="10.00">SoftwareContainerAgent</text>
</a>
</g>
</g>
<!-- Node1&#45;&gt;Node11 -->
<g id="edge10" class="edge"><title>Node1&#45;&gt;Node11</title>
<path fill="none" stroke="darkgreen" d="M118.459,-111.993C126.869,-110.799 135.507,-109.573 143.959,-108.374"/>
<polygon fill="darkgreen" stroke="darkgreen" points="117.751,-108.558 108.342,-113.429 118.735,-115.489 117.751,-108.558"/>
</g>
<!-- Node3 -->
<g id="node3" class="node"><title>Node3</title>
<g id="a_node3"><a xlink:href="class_cgroups_gateway.html" target="_top" xlink:title="The cgroups gateway sets cgroups related settings for the container. ">
<polygon fill="white" stroke="black" points="324.5,-266.5 324.5,-285.5 422.5,-285.5 422.5,-266.5 324.5,-266.5"/>
<text text-anchor="middle" x="373.5" y="-273.5" font-family="Helvetica,sans-Serif" font-size="10.00">CgroupsGateway</text>
</a>
</g>
</g>
<!-- Node2&#45;&gt;Node3 -->
<g id="edge2" class="edge"><title>Node2&#45;&gt;Node3</title>
<path fill="none" stroke="midnightblue" d="M223.795,-161.391C240.801,-186.492 274.539,-231.289 314,-257 319.905,-260.847 326.654,-263.974 333.418,-266.495"/>
<polygon fill="midnightblue" stroke="midnightblue" points="226.557,-159.223 218.119,-152.816 220.72,-163.087 226.557,-159.223"/>
</g>
<!-- Node4 -->
<g id="node4" class="node"><title>Node4</title>
<g id="a_node4"><a xlink:href="class_d_bus_gateway.html" target="_top" xlink:title="DBus Gateway takes care of spawning and killing the DBus proxies. ">
<polygon fill="white" stroke="black" points="332,-228.5 332,-247.5 415,-247.5 415,-228.5 332,-228.5"/>
<text text-anchor="middle" x="373.5" y="-235.5" font-family="Helvetica,sans-Serif" font-size="10.00">DBusGateway</text>
</a>
</g>
</g>
<!-- Node2&#45;&gt;Node4 -->
<g id="edge3" class="edge"><title>Node2&#45;&gt;Node4</title>
<path fill="none" stroke="midnightblue" d="M230.034,-159.335C249.516,-176.257 282.074,-202.493 314,-219 321.114,-222.678 329.081,-225.832 336.79,-228.453"/>
<polygon fill="midnightblue" stroke="midnightblue" points="232.338,-156.7 222.524,-152.708 227.706,-161.949 232.338,-156.7"/>
</g>
<!-- Node5 -->
<g id="node5" class="node"><title>Node5</title>
<g id="a_node5"><a xlink:href="class_device_node_gateway.html" target="_top" xlink:title="This gateway is responsible for exposing device nodes in an LXC container. ">
<polygon fill="white" stroke="black" points="315.5,-190.5 315.5,-209.5 431.5,-209.5 431.5,-190.5 315.5,-190.5"/>
<text text-anchor="middle" x="373.5" y="-197.5" font-family="Helvetica,sans-Serif" font-size="10.00">DeviceNodeGateway</text>
</a>
</g>
</g>
<!-- Node2&#45;&gt;Node5 -->
<g id="edge4" class="edge"><title>Node2&#45;&gt;Node5</title>
<path fill="none" stroke="midnightblue" d="M246.118,-156.124C265.872,-163.619 291.254,-173.073 314,-181 323.176,-184.198 333.221,-187.523 342.357,-190.481"/>
<polygon fill="midnightblue" stroke="midnightblue" points="247.218,-152.798 236.627,-152.51 244.726,-159.34 247.218,-152.798"/>
</g>
<!-- Node6 -->
<g id="node6" class="node"><title>Node6</title>
<g id="a_node6"><a xlink:href="class_environment_gateway.html" target="_top" xlink:title="Environment Gateway is used to define environment variables to the container. ">
<polygon fill="white" stroke="black" points="314,-152.5 314,-171.5 433,-171.5 433,-152.5 314,-152.5"/>
<text text-anchor="middle" x="373.5" y="-159.5" font-family="Helvetica,sans-Serif" font-size="10.00">EnvironmentGateway</text>
</a>
</g>
</g>
<!-- Node2&#45;&gt;Node6 -->
<g id="edge5" class="edge"><title>Node2&#45;&gt;Node6</title>
<path fill="none" stroke="midnightblue" d="M250.388,-147.544C269.381,-149.793 292.719,-152.556 313.887,-155.061"/>
<polygon fill="midnightblue" stroke="midnightblue" points="250.667,-144.053 240.325,-146.353 249.844,-151.004 250.667,-144.053"/>
</g>
<!-- Node7 -->
<g id="node7" class="node"><title>Node7</title>
<g id="a_node7"><a xlink:href="class_file_gateway.html" target="_top" xlink:title="This gateway lets you map files (including socket files) or folders from the host into the container&#39;...">
<polygon fill="white" stroke="black" points="337,-114.5 337,-133.5 410,-133.5 410,-114.5 337,-114.5"/>
<text text-anchor="middle" x="373.5" y="-121.5" font-family="Helvetica,sans-Serif" font-size="10.00">FileGateway</text>
</a>
</g>
</g>
<!-- Node2&#45;&gt;Node7 -->
<g id="edge6" class="edge"><title>Node2&#45;&gt;Node7</title>
<path fill="none" stroke="midnightblue" d="M250.306,-138.465C276.581,-135.355 311.198,-131.257 336.878,-128.217"/>
<polygon fill="midnightblue" stroke="midnightblue" points="249.844,-134.996 240.325,-139.647 250.667,-141.947 249.844,-134.996"/>
</g>
<!-- Node8 -->
<g id="node8" class="node"><title>Node8</title>
<g id="a_node8"><a xlink:href="class_network_gateway.html" target="_top" xlink:title="Sets up and manages network access and routing to the container. ">
<polygon fill="white" stroke="black" points="325,-76.5 325,-95.5 422,-95.5 422,-76.5 325,-76.5"/>
<text text-anchor="middle" x="373.5" y="-83.5" font-family="Helvetica,sans-Serif" font-size="10.00">NetworkGateway</text>
</a>
</g>
</g>
<!-- Node2&#45;&gt;Node8 -->
<g id="edge7" class="edge"><title>Node2&#45;&gt;Node8</title>
<path fill="none" stroke="midnightblue" d="M250.058,-132.668C259.307,-129.829 269.096,-126.545 278,-123 294.619,-116.382 297.447,-111.782 314,-105 322.399,-101.559 331.67,-98.3082 340.308,-95.5009"/>
<polygon fill="midnightblue" stroke="midnightblue" points="248.89,-129.364 240.3,-135.565 250.883,-136.074 248.89,-129.364"/>
</g>
<!-- Node9 -->
<g id="node9" class="node"><title>Node9</title>
<g id="a_node9"><a xlink:href="class_pulse_gateway.html" target="_top" xlink:title="The PulseAudio Gateway is used to provide access to the host system PulseAudio server. ">
<polygon fill="white" stroke="black" points="332,-38.5 332,-57.5 415,-57.5 415,-38.5 332,-38.5"/>
<text text-anchor="middle" x="373.5" y="-45.5" font-family="Helvetica,sans-Serif" font-size="10.00">PulseGateway</text>
</a>
</g>
</g>
<!-- Node2&#45;&gt;Node9 -->
<g id="edge8" class="edge"><title>Node2&#45;&gt;Node9</title>
<path fill="none" stroke="midnightblue" d="M249.703,-136.49C259.58,-133.524 269.759,-129.224 278,-123 301.611,-105.168 290.567,-85.0649 314,-67 319.328,-62.8926 325.577,-59.6561 331.97,-57.1107"/>
<polygon fill="midnightblue" stroke="midnightblue" points="248.795,-133.11 240.011,-139.034 250.572,-139.881 248.795,-133.11"/>
</g>
<!-- Node10 -->
<g id="node10" class="node"><title>Node10</title>
<g id="a_node10"><a xlink:href="class_wayland_gateway.html" target="_top" xlink:title="WaylandGateway">
<polygon fill="white" stroke="black" points="325,-0.5 325,-19.5 422,-19.5 422,-0.5 325,-0.5"/>
<text text-anchor="middle" x="373.5" y="-7.5" font-family="Helvetica,sans-Serif" font-size="10.00">WaylandGateway</text>
</a>
</g>
</g>
<!-- Node2&#45;&gt;Node10 -->
<g id="edge9" class="edge"><title>Node2&#45;&gt;Node10</title>
<path fill="none" stroke="midnightblue" d="M250.088,-137.715C260.137,-134.76 270.31,-130.159 278,-123 310.744,-92.5174 281.559,-59.8054 314,-29 318.104,-25.1029 323.016,-22.005 328.226,-19.5425"/>
<polygon fill="midnightblue" stroke="midnightblue" points="249.048,-134.366 240.175,-140.156 250.722,-141.163 249.048,-134.366"/>
</g>
</g>
</svg>
