<?xml version="1.0" encoding="UTF-8" standalone="no"?>
<!DOCTYPE svg PUBLIC "-//W3C//DTD SVG 1.1//EN"
 "http://www.w3.org/Graphics/SVG/1.1/DTD/svg11.dtd">
<!-- Generated by graphviz version 2.38.0 (20140413.2041)
 -->
<!-- Title: Graphical Class Hierarchy Pages: 1 -->
<svg width="298pt" height="127pt"
 viewBox="0.00 0.00 298.00 126.50" xmlns="http://www.w3.org/2000/svg" xmlns:xlink="http://www.w3.org/1999/xlink">
<g id="graph0" class="graph" transform="scale(1 1) rotate(0) translate(4 122.5)">
<title>Graphical Class Hierarchy</title>
<polygon fill="white" stroke="none" points="-4,4 -4,-122.5 294,-122.5 294,4 -4,4"/>
<!-- Node1 -->
<g id="node1" class="node"><title>Node1</title>
<g id="a_node1"><a xlink:href="class_container_abstract_interface.html" target="_top" xlink:title="ContainerAbstractInterface">
<polygon fill="white" stroke="black" points="0,-99 0,-118 146,-118 146,-99 0,-99"/>
<text text-anchor="middle" x="73" y="-106" font-family="Helvetica,sans-Serif" font-size="10.00">ContainerAbstractInterface</text>
</a>
</g>
</g>
<!-- Node2 -->
<g id="node2" class="node"><title>Node2</title>
<g id="a_node2"><a xlink:href="class_container.html" target="_top" xlink:title="The Container class is an abstraction of the specific containment technology used. ">
<polygon fill="white" stroke="black" points="204.5,-99 204.5,-118 267.5,-118 267.5,-99 204.5,-99"/>
<text text-anchor="middle" x="236" y="-106" font-family="Helvetica,sans-Serif" font-size="10.00">Container</text>
</a>
</g>
</g>
<!-- Node1&#45;&gt;Node2 -->
<g id="edge1" class="edge"><title>Node1&#45;&gt;Node2</title>
<path fill="none" stroke="midnightblue" d="M156.114,-108.5C173.273,-108.5 190.335,-108.5 204.178,-108.5"/>
<polygon fill="midnightblue" stroke="midnightblue" points="156.024,-105 146.024,-108.5 156.024,-112 156.024,-105"/>
</g>
<!-- Node3 -->
<g id="node3" class="node"><title>Node3</title>
<g id="a_node3"><a xlink:href="classsoftwarecontainer_1_1_file_toolkit_with_undo.html" target="_top" xlink:title="softwarecontainer::\lFileToolkitWithUndo">
<polygon fill="white" stroke="black" points="19,-49.5 19,-79.5 127,-79.5 127,-49.5 19,-49.5"/>
<text text-anchor="start" x="27" y="-67.5" font-family="Helvetica,sans-Serif" font-size="10.00">softwarecontainer::</text>
<text text-anchor="middle" x="73" y="-56.5" font-family="Helvetica,sans-Serif" font-size="10.00">FileToolkitWithUndo</text>
</a>
</g>
</g>
<!-- Node3&#45;&gt;Node2 -->
<g id="edge2" class="edge"><title>Node3&#45;&gt;Node2</title>
<path fill="none" stroke="#8b1a1a" d="M136.954,-81.7048C160.145,-88.0428 185.379,-94.939 204.439,-100.148"/>
<polygon fill="#8b1a1a" stroke="#8b1a1a" points="137.733,-78.2893 127.164,-79.0292 135.887,-85.0417 137.733,-78.2893"/>
</g>
<!-- Node4 -->
<g id="node4" class="node"><title>Node4</title>
<g id="a_node4"><a xlink:href="classsoftwarecontainer_1_1_software_container.html" target="_top" xlink:title="softwarecontainer::\lSoftwareContainer">
<polygon fill="white" stroke="black" points="182,-49.5 182,-79.5 290,-79.5 290,-49.5 182,-49.5"/>
<text text-anchor="start" x="190" y="-67.5" font-family="Helvetica,sans-Serif" font-size="10.00">softwarecontainer::</text>
<text text-anchor="middle" x="236" y="-56.5" font-family="Helvetica,sans-Serif" font-size="10.00">SoftwareContainer</text>
</a>
</g>
</g>
<!-- Node3&#45;&gt;Node4 -->
<g id="edge3" class="edge"><title>Node3&#45;&gt;Node4</title>
<path fill="none" stroke="#8b1a1a" d="M137.238,-64.5C152.015,-64.5 167.607,-64.5 181.892,-64.5"/>
<polygon fill="#8b1a1a" stroke="#8b1a1a" points="137.164,-61.0001 127.164,-64.5 137.164,-68.0001 137.164,-61.0001"/>
</g>
<!-- Node5 -->
<g id="node5" class="node"><title>Node5</title>
<g id="a_node5"><a xlink:href="classsoftwarecontainer_1_1_workspace.html" target="_top" xlink:title="Holds information about the container workspace. ">
<polygon fill="white" stroke="black" points="182,-0.5 182,-30.5 290,-30.5 290,-0.5 182,-0.5"/>
<text text-anchor="start" x="190" y="-18.5" font-family="Helvetica,sans-Serif" font-size="10.00">softwarecontainer::</text>
<text text-anchor="middle" x="236" y="-7.5" font-family="Helvetica,sans-Serif" font-size="10.00">Workspace</text>
</a>
</g>
</g>
<!-- Node3&#45;&gt;Node5 -->
<g id="edge4" class="edge"><title>Node3&#45;&gt;Node5</title>
<path fill="none" stroke="#8b1a1a" d="M133.514,-46.3871C150.63,-41.1778 169.107,-35.5543 185.545,-30.5516"/>
<polygon fill="#8b1a1a" stroke="#8b1a1a" points="132.167,-43.1385 123.619,-49.3986 134.205,-49.8352 132.167,-43.1385"/>
</g>
</g>
</svg>
