<?xml version="1.0" encoding="UTF-8" standalone="no"?>
<!DOCTYPE svg PUBLIC "-//W3C//DTD SVG 1.1//EN"
 "http://www.w3.org/Graphics/SVG/1.1/DTD/svg11.dtd">
<!-- Generated by graphviz version 2.38.0 (20140413.2041)
 -->
<!-- Title: Graphical Class Hierarchy Pages: 1 -->
<svg width="572pt" height="725pt"
 viewBox="0.00 0.00 572.00 725.00" xmlns="http://www.w3.org/2000/svg" xmlns:xlink="http://www.w3.org/1999/xlink">
<g id="graph0" class="graph" transform="scale(1 1) rotate(0) translate(4 721)">
<title>Graphical Class Hierarchy</title>
<polygon fill="white" stroke="none" points="-4,4 -4,-721 568,-721 568,4 -4,4"/>
<!-- Node1 -->
<g id="node1" class="node"><title>Node1</title>
<polygon fill="white" stroke="#bfbfbf" points="0,-226 0,-245 59,-245 59,-226 0,-226"/>
<text text-anchor="middle" x="29.5" y="-233" font-family="Helvetica,sans-Serif" font-size="10.00">exception</text>
</g>
<!-- Node2 -->
<g id="node2" class="node"><title>Node2</title>
<g id="a_node2"><a xlink:href="classsoftwarecontainer_1_1_gateway_error.html" target="_top" xlink:title="softwarecontainer::\lGatewayError">
<polygon fill="white" stroke="black" points="104.5,-269.5 104.5,-299.5 204.5,-299.5 204.5,-269.5 104.5,-269.5"/>
<text text-anchor="start" x="112.5" y="-287.5" font-family="Helvetica,sans-Serif" font-size="10.00">softwarecontainer::</text>
<text text-anchor="middle" x="154.5" y="-276.5" font-family="Helvetica,sans-Serif" font-size="10.00">GatewayError</text>
</a>
</g>
</g>
<!-- Node1&#45;&gt;Node2 -->
<g id="edge1" class="edge"><title>Node1&#45;&gt;Node2</title>
<path fill="none" stroke="midnightblue" d="M63.9652,-248.832C79.9017,-255.18 99.0336,-262.802 115.514,-269.367"/>
<polygon fill="midnightblue" stroke="midnightblue" points="65.0929,-245.513 54.5076,-245.064 62.5023,-252.016 65.0929,-245.513"/>
</g>
<!-- Node3 -->
<g id="node3" class="node"><title>Node3</title>
<g id="a_node3"><a xlink:href="classsoftwarecontainer_1_1_gateway_parser_error.html" target="_top" xlink:title="softwarecontainer::\lGatewayParserError">
<polygon fill="white" stroke="black" points="102,-220.5 102,-250.5 207,-250.5 207,-220.5 102,-220.5"/>
<text text-anchor="start" x="110" y="-238.5" font-family="Helvetica,sans-Serif" font-size="10.00">softwarecontainer::</text>
<text text-anchor="middle" x="154.5" y="-227.5" font-family="Helvetica,sans-Serif" font-size="10.00">GatewayParserError</text>
</a>
</g>
</g>
<!-- Node1&#45;&gt;Node3 -->
<g id="edge2" class="edge"><title>Node1&#45;&gt;Node3</title>
<path fill="none" stroke="midnightblue" d="M69.0594,-235.5C79.4877,-235.5 90.9432,-235.5 101.961,-235.5"/>
<polygon fill="midnightblue" stroke="midnightblue" points="69.0279,-232 59.0278,-235.5 69.0278,-239 69.0279,-232"/>
</g>
<!-- Node4 -->
<g id="node4" class="node"><title>Node4</title>
<g id="a_node4"><a xlink:href="classsoftwarecontainer_1_1_software_container_error.html" target="_top" xlink:title="softwarecontainer::\lSoftwareContainerError">
<polygon fill="white" stroke="black" points="95,-171.5 95,-201.5 214,-201.5 214,-171.5 95,-171.5"/>
<text text-anchor="start" x="103" y="-189.5" font-family="Helvetica,sans-Serif" font-size="10.00">softwarecontainer::</text>
<text text-anchor="middle" x="154.5" y="-178.5" font-family="Helvetica,sans-Serif" font-size="10.00">SoftwareContainerError</text>
</a>
</g>
</g>
<!-- Node1&#45;&gt;Node4 -->
<g id="edge3" class="edge"><title>Node1&#45;&gt;Node4</title>
<path fill="none" stroke="midnightblue" d="M63.9652,-222.168C79.9017,-215.82 99.0336,-208.198 115.514,-201.633"/>
<polygon fill="midnightblue" stroke="midnightblue" points="62.5023,-218.984 54.5076,-225.936 65.0929,-225.487 62.5023,-218.984"/>
</g>
<!-- Node5 -->
<g id="node5" class="node"><title>Node5</title>
<g id="a_node5"><a xlink:href="classsoftwarecontainer_1_1_cgroups_gateway_error.html" target="_top" xlink:title="softwarecontainer::\lCgroupsGatewayError">
<polygon fill="white" stroke="black" points="265.5,-612.5 265.5,-642.5 378.5,-642.5 378.5,-612.5 265.5,-612.5"/>
<text text-anchor="start" x="273.5" y="-630.5" font-family="Helvetica,sans-Serif" font-size="10.00">softwarecontainer::</text>
<text text-anchor="middle" x="322" y="-619.5" font-family="Helvetica,sans-Serif" font-size="10.00">CgroupsGatewayError</text>
</a>
</g>
</g>
<!-- Node4&#45;&gt;Node5 -->
<g id="edge4" class="edge"><title>Node4&#45;&gt;Node5</title>
<path fill="none" stroke="midnightblue" d="M210.997,-208.079C212.059,-209.165 213.064,-210.304 214,-211.5 275.346,-289.86 224.866,-336.209 250,-432.5 267.926,-501.175 300.307,-579.63 314.281,-612.145"/>
<polygon fill="midnightblue" stroke="midnightblue" points="213.182,-205.344 203.246,-201.666 208.719,-210.737 213.182,-205.344"/>
</g>
<!-- Node9 -->
<g id="node9" class="node"><title>Node9</title>
<g id="a_node9"><a xlink:href="classsoftwarecontainer_1_1_config_error.html" target="_top" xlink:title="softwarecontainer::\lConfigError">
<polygon fill="white" stroke="black" points="272,-392.5 272,-422.5 372,-422.5 372,-392.5 272,-392.5"/>
<text text-anchor="start" x="280" y="-410.5" font-family="Helvetica,sans-Serif" font-size="10.00">softwarecontainer::</text>
<text text-anchor="middle" x="322" y="-399.5" font-family="Helvetica,sans-Serif" font-size="10.00">ConfigError</text>
</a>
</g>
</g>
<!-- Node4&#45;&gt;Node9 -->
<g id="edge8" class="edge"><title>Node4&#45;&gt;Node9</title>
<path fill="none" stroke="midnightblue" d="M208.822,-207.119C210.64,-208.494 212.375,-209.953 214,-211.5 240.487,-236.722 232.79,-253.228 250,-285.5 270.872,-324.639 297.722,-369.42 311.663,-392.299"/>
<polygon fill="midnightblue" stroke="midnightblue" points="210.692,-204.16 200.408,-201.614 206.86,-210.018 210.692,-204.16"/>
</g>
<!-- Node16 -->
<g id="node16" class="node"><title>Node16</title>
<g id="a_node16"><a xlink:href="classsoftwarecontainer_1_1_config_store_error.html" target="_top" xlink:title="softwarecontainer::\lConfigStoreError">
<polygon fill="white" stroke="black" points="272,-245.5 272,-275.5 372,-275.5 372,-245.5 272,-245.5"/>
<text text-anchor="start" x="280" y="-263.5" font-family="Helvetica,sans-Serif" font-size="10.00">softwarecontainer::</text>
<text text-anchor="middle" x="322" y="-252.5" font-family="Helvetica,sans-Serif" font-size="10.00">ConfigStoreError</text>
</a>
</g>
</g>
<!-- Node4&#45;&gt;Node16 -->
<g id="edge15" class="edge"><title>Node4&#45;&gt;Node16</title>
<path fill="none" stroke="midnightblue" d="M203.118,-205.876C206.845,-207.687 210.512,-209.57 214,-211.5 231.044,-220.932 232.602,-227.739 250,-236.5 256.857,-239.953 264.324,-243.089 271.756,-245.87"/>
<polygon fill="midnightblue" stroke="midnightblue" points="204.343,-202.586 193.8,-201.539 201.389,-208.932 204.343,-202.586"/>
</g>
<!-- Node20 -->
<g id="node20" class="node"><title>Node20</title>
<g id="a_node20"><a xlink:href="classsoftwarecontainer_1_1_container_error.html" target="_top" xlink:title="An error has occured in the underlying container implementation. ">
<polygon fill="white" stroke="black" points="272,-196.5 272,-226.5 372,-226.5 372,-196.5 272,-196.5"/>
<text text-anchor="start" x="280" y="-214.5" font-family="Helvetica,sans-Serif" font-size="10.00">softwarecontainer::</text>
<text text-anchor="middle" x="322" y="-203.5" font-family="Helvetica,sans-Serif" font-size="10.00">ContainerError</text>
</a>
</g>
</g>
<!-- Node4&#45;&gt;Node20 -->
<g id="edge19" class="edge"><title>Node4&#45;&gt;Node20</title>
<path fill="none" stroke="midnightblue" d="M224.632,-196.943C240.522,-199.343 257.101,-201.848 271.938,-204.089"/>
<polygon fill="midnightblue" stroke="midnightblue" points="224.726,-193.417 214.315,-195.384 223.68,-200.339 224.726,-193.417"/>
</g>
<!-- Node21 -->
<g id="node21" class="node"><title>Node21</title>
<g id="a_node21"><a xlink:href="classsoftwarecontainer_1_1_container_option_parse_error.html" target="_top" xlink:title="softwarecontainer::\lContainerOptionParseError">
<polygon fill="white" stroke="black" points="255,-147.5 255,-177.5 389,-177.5 389,-147.5 255,-147.5"/>
<text text-anchor="start" x="263" y="-165.5" font-family="Helvetica,sans-Serif" font-size="10.00">softwarecontainer::</text>
<text text-anchor="middle" x="322" y="-154.5" font-family="Helvetica,sans-Serif" font-size="10.00">ContainerOptionParseError</text>
</a>
</g>
</g>
<!-- Node4&#45;&gt;Node21 -->
<g id="edge20" class="edge"><title>Node4&#45;&gt;Node21</title>
<path fill="none" stroke="midnightblue" d="M224.281,-176.526C234.366,-175.063 244.735,-173.56 254.767,-172.105"/>
<polygon fill="midnightblue" stroke="midnightblue" points="223.709,-173.072 214.315,-177.971 224.714,-179.999 223.709,-173.072"/>
</g>
<!-- Node22 -->
<g id="node22" class="node"><title>Node22</title>
<g id="a_node22"><a xlink:href="classsoftwarecontainer_1_1_invalid_operation_error.html" target="_top" xlink:title="A method was called which is inappropriate in the current state. ">
<polygon fill="white" stroke="black" points="268,-98.5 268,-128.5 376,-128.5 376,-98.5 268,-98.5"/>
<text text-anchor="start" x="276" y="-116.5" font-family="Helvetica,sans-Serif" font-size="10.00">softwarecontainer::</text>
<text text-anchor="middle" x="322" y="-105.5" font-family="Helvetica,sans-Serif" font-size="10.00">InvalidOperationError</text>
</a>
</g>
</g>
<!-- Node4&#45;&gt;Node22 -->
<g id="edge21" class="edge"><title>Node4&#45;&gt;Node22</title>
<path fill="none" stroke="midnightblue" d="M191.95,-166.572C209.281,-157.464 230.444,-146.867 250,-138.5 258.05,-135.056 266.749,-131.702 275.207,-128.628"/>
<polygon fill="midnightblue" stroke="midnightblue" points="189.942,-163.675 182.75,-171.455 193.224,-169.858 189.942,-163.675"/>
</g>
<!-- Node23 -->
<g id="node23" class="node"><title>Node23</title>
<g id="a_node23"><a xlink:href="classsoftwarecontainer_1_1_network_gateway_error.html" target="_top" xlink:title="softwarecontainer::\lNetworkGatewayError">
<polygon fill="white" stroke="black" points="265.5,-49.5 265.5,-79.5 378.5,-79.5 378.5,-49.5 265.5,-49.5"/>
<text text-anchor="start" x="273.5" y="-67.5" font-family="Helvetica,sans-Serif" font-size="10.00">softwarecontainer::</text>
<text text-anchor="middle" x="322" y="-56.5" font-family="Helvetica,sans-Serif" font-size="10.00">NetworkGatewayError</text>
</a>
</g>
</g>
<!-- Node4&#45;&gt;Node23 -->
<g id="edge22" class="edge"><title>Node4&#45;&gt;Node23</title>
<path fill="none" stroke="midnightblue" d="M172.965,-163.175C190.348,-141.41 218.866,-109.39 250,-89.5 255.947,-85.7008 262.544,-82.392 269.252,-79.5358"/>
<polygon fill="midnightblue" stroke="midnightblue" points="170.055,-161.214 166.651,-171.247 175.568,-165.527 170.055,-161.214"/>
</g>
<!-- Node25 -->
<g id="node25" class="node"><title>Node25</title>
<g id="a_node25"><a xlink:href="classsoftwarecontainer_1_1_software_container_agent_error.html" target="_top" xlink:title="An error occured in SoftwareContainerAgent. ">
<polygon fill="white" stroke="black" points="250,-0.5 250,-30.5 394,-30.5 394,-0.5 250,-0.5"/>
<text text-anchor="start" x="258" y="-18.5" font-family="Helvetica,sans-Serif" font-size="10.00">softwarecontainer::</text>
<text text-anchor="middle" x="322" y="-7.5" font-family="Helvetica,sans-Serif" font-size="10.00">SoftwareContainerAgentError</text>
</a>
</g>
</g>
<!-- Node4&#45;&gt;Node25 -->
<g id="edge24" class="edge"><title>Node4&#45;&gt;Node25</title>
<path fill="none" stroke="midnightblue" d="M165.13,-161.927C179.087,-129.392 207.95,-72.3182 250,-39.5 254.411,-36.0576 259.343,-33.0946 264.497,-30.5469"/>
<polygon fill="midnightblue" stroke="midnightblue" points="161.889,-160.605 161.279,-171.182 168.352,-163.294 161.889,-160.605"/>
</g>
<!-- Node6 -->
<g id="node6" class="node"><title>Node6</title>
<g id="a_node6"><a xlink:href="classsoftwarecontainer_1_1_bad_suffix_error.html" target="_top" xlink:title="softwarecontainer::\lBadSuffixError">
<polygon fill="white" stroke="black" points="447,-686.5 447,-716.5 547,-716.5 547,-686.5 447,-686.5"/>
<text text-anchor="start" x="455" y="-704.5" font-family="Helvetica,sans-Serif" font-size="10.00">softwarecontainer::</text>
<text text-anchor="middle" x="497" y="-693.5" font-family="Helvetica,sans-Serif" font-size="10.00">BadSuffixError</text>
</a>
</g>
</g>
<!-- Node5&#45;&gt;Node6 -->
<g id="edge5" class="edge"><title>Node5&#45;&gt;Node6</title>
<path fill="none" stroke="midnightblue" d="M362.7,-647.073C382.699,-656.67 407.434,-668.146 430,-677.5 437.321,-680.535 445.179,-683.576 452.83,-686.424"/>
<polygon fill="midnightblue" stroke="midnightblue" points="364.109,-643.866 353.582,-642.67 361.065,-650.17 364.109,-643.866"/>
</g>
<!-- Node7 -->
<g id="node7" class="node"><title>Node7</title>
<g id="a_node7"><a xlink:href="classsoftwarecontainer_1_1_j_son_error.html" target="_top" xlink:title="softwarecontainer::\lJSonError">
<polygon fill="white" stroke="black" points="447,-637.5 447,-667.5 547,-667.5 547,-637.5 447,-637.5"/>
<text text-anchor="start" x="455" y="-655.5" font-family="Helvetica,sans-Serif" font-size="10.00">softwarecontainer::</text>
<text text-anchor="middle" x="497" y="-644.5" font-family="Helvetica,sans-Serif" font-size="10.00">JSonError</text>
</a>
</g>
</g>
<!-- Node5&#45;&gt;Node7 -->
<g id="edge6" class="edge"><title>Node5&#45;&gt;Node7</title>
<path fill="none" stroke="midnightblue" d="M388.634,-636.985C407.949,-639.776 428.74,-642.78 446.834,-645.395"/>
<polygon fill="midnightblue" stroke="midnightblue" points="389.088,-633.514 378.691,-635.548 388.087,-640.442 389.088,-633.514"/>
</g>
<!-- Node8 -->
<g id="node8" class="node"><title>Node8</title>
<g id="a_node8"><a xlink:href="classsoftwarecontainer_1_1_limit_range_error.html" target="_top" xlink:title="softwarecontainer::\lLimitRangeError">
<polygon fill="white" stroke="black" points="447,-588.5 447,-618.5 547,-618.5 547,-588.5 447,-588.5"/>
<text text-anchor="start" x="455" y="-606.5" font-family="Helvetica,sans-Serif" font-size="10.00">softwarecontainer::</text>
<text text-anchor="middle" x="497" y="-595.5" font-family="Helvetica,sans-Serif" font-size="10.00">LimitRangeError</text>
</a>
</g>
</g>
<!-- Node5&#45;&gt;Node8 -->
<g id="edge7" class="edge"><title>Node5&#45;&gt;Node8</title>
<path fill="none" stroke="midnightblue" d="M388.634,-618.395C407.949,-615.715 428.74,-612.831 446.834,-610.321"/>
<polygon fill="midnightblue" stroke="midnightblue" points="388.115,-614.933 378.691,-619.774 389.077,-621.867 388.115,-614.933"/>
</g>
<!-- Node10 -->
<g id="node10" class="node"><title>Node10</title>
<g id="a_node10"><a xlink:href="classsoftwarecontainer_1_1_config_dependency_error.html" target="_top" xlink:title="softwarecontainer::\lConfigDependencyError">
<polygon fill="white" stroke="black" points="436.5,-539.5 436.5,-569.5 557.5,-569.5 557.5,-539.5 436.5,-539.5"/>
<text text-anchor="start" x="444.5" y="-557.5" font-family="Helvetica,sans-Serif" font-size="10.00">softwarecontainer::</text>
<text text-anchor="middle" x="497" y="-546.5" font-family="Helvetica,sans-Serif" font-size="10.00">ConfigDependencyError</text>
</a>
</g>
</g>
<!-- Node9&#45;&gt;Node10 -->
<g id="edge9" class="edge"><title>Node9&#45;&gt;Node10</title>
<path fill="none" stroke="midnightblue" d="M338.043,-431.125C356.607,-458.54 390.593,-503.435 430,-530.5 434.925,-533.882 440.382,-536.849 445.988,-539.435"/>
<polygon fill="midnightblue" stroke="midnightblue" points="340.799,-428.947 332.354,-422.549 334.966,-432.816 340.799,-428.947"/>
</g>
<!-- Node11 -->
<g id="node11" class="node"><title>Node11</title>
<g id="a_node11"><a xlink:href="classsoftwarecontainer_1_1_config_file_error.html" target="_top" xlink:title="An error occured in a Glib operation. ">
<polygon fill="white" stroke="black" points="447,-490.5 447,-520.5 547,-520.5 547,-490.5 447,-490.5"/>
<text text-anchor="start" x="455" y="-508.5" font-family="Helvetica,sans-Serif" font-size="10.00">softwarecontainer::</text>
<text text-anchor="middle" x="497" y="-497.5" font-family="Helvetica,sans-Serif" font-size="10.00">ConfigFileError</text>
</a>
</g>
</g>
<!-- Node9&#45;&gt;Node11 -->
<g id="edge10" class="edge"><title>Node9&#45;&gt;Node11</title>
<path fill="none" stroke="midnightblue" d="M349.868,-428.979C370.802,-444.98 401.077,-466.556 430,-481.5 436.283,-484.746 443.106,-487.753 449.903,-490.463"/>
<polygon fill="midnightblue" stroke="midnightblue" points="351.825,-426.068 341.775,-422.714 347.54,-431.603 351.825,-426.068"/>
</g>
<!-- Node12 -->
<g id="node12" class="node"><title>Node12</title>
<g id="a_node12"><a xlink:href="classsoftwarecontainer_1_1_config_internal_error.html" target="_top" xlink:title="An error occured which is an internal error in the config code. ">
<polygon fill="white" stroke="black" points="447,-441.5 447,-471.5 547,-471.5 547,-441.5 447,-441.5"/>
<text text-anchor="start" x="455" y="-459.5" font-family="Helvetica,sans-Serif" font-size="10.00">softwarecontainer::</text>
<text text-anchor="middle" x="497" y="-448.5" font-family="Helvetica,sans-Serif" font-size="10.00">ConfigInternalError</text>
</a>
</g>
</g>
<!-- Node9&#45;&gt;Node12 -->
<g id="edge11" class="edge"><title>Node9&#45;&gt;Node12</title>
<path fill="none" stroke="midnightblue" d="M381.93,-424.191C403.029,-430.167 426.572,-436.835 446.765,-442.555"/>
<polygon fill="midnightblue" stroke="midnightblue" points="382.687,-420.768 372.112,-421.41 380.78,-427.503 382.687,-420.768"/>
</g>
<!-- Node13 -->
<g id="node13" class="node"><title>Node13</title>
<g id="a_node13"><a xlink:href="classsoftwarecontainer_1_1_config_mandatory_error.html" target="_top" xlink:title="softwarecontainer::\lConfigMandatoryError">
<polygon fill="white" stroke="black" points="441,-392.5 441,-422.5 553,-422.5 553,-392.5 441,-392.5"/>
<text text-anchor="start" x="449" y="-410.5" font-family="Helvetica,sans-Serif" font-size="10.00">softwarecontainer::</text>
<text text-anchor="middle" x="497" y="-399.5" font-family="Helvetica,sans-Serif" font-size="10.00">ConfigMandatoryError</text>
</a>
</g>
</g>
<!-- Node9&#45;&gt;Node13 -->
<g id="edge12" class="edge"><title>Node9&#45;&gt;Node13</title>
<path fill="none" stroke="midnightblue" d="M382.168,-407.5C401.22,-407.5 422.243,-407.5 440.983,-407.5"/>
<polygon fill="midnightblue" stroke="midnightblue" points="382.112,-404 372.112,-407.5 382.112,-411 382.112,-404"/>
</g>
<!-- Node14 -->
<g id="node14" class="node"><title>Node14</title>
<g id="a_node14"><a xlink:href="classsoftwarecontainer_1_1_config_not_found_error.html" target="_top" xlink:title="A requested config item could not be found in any of the config sources. ">
<polygon fill="white" stroke="black" points="442.5,-343.5 442.5,-373.5 551.5,-373.5 551.5,-343.5 442.5,-343.5"/>
<text text-anchor="start" x="450.5" y="-361.5" font-family="Helvetica,sans-Serif" font-size="10.00">softwarecontainer::</text>
<text text-anchor="middle" x="497" y="-350.5" font-family="Helvetica,sans-Serif" font-size="10.00">ConfigNotFoundError</text>
</a>
</g>
</g>
<!-- Node9&#45;&gt;Node14 -->
<g id="edge13" class="edge"><title>Node9&#45;&gt;Node14</title>
<path fill="none" stroke="midnightblue" d="M381.914,-390.813C401.659,-385.221 423.547,-379.021 442.826,-373.561"/>
<polygon fill="midnightblue" stroke="midnightblue" points="380.78,-387.497 372.112,-393.59 382.687,-394.232 380.78,-387.497"/>
</g>
<!-- Node15 -->
<g id="node15" class="node"><title>Node15</title>
<g id="a_node15"><a xlink:href="classsoftwarecontainer_1_1_config_unknown_error.html" target="_top" xlink:title="A config is found which is not defined in ConfigDefinition. ">
<polygon fill="white" stroke="black" points="443.5,-294.5 443.5,-324.5 550.5,-324.5 550.5,-294.5 443.5,-294.5"/>
<text text-anchor="start" x="451.5" y="-312.5" font-family="Helvetica,sans-Serif" font-size="10.00">softwarecontainer::</text>
<text text-anchor="middle" x="497" y="-301.5" font-family="Helvetica,sans-Serif" font-size="10.00">ConfigUnknownError</text>
</a>
</g>
</g>
<!-- Node9&#45;&gt;Node15 -->
<g id="edge14" class="edge"><title>Node9&#45;&gt;Node15</title>
<path fill="none" stroke="midnightblue" d="M350.355,-386.159C371.327,-370.475 401.43,-349.388 430,-334.5 436.846,-330.933 444.319,-327.607 451.696,-324.62"/>
<polygon fill="midnightblue" stroke="midnightblue" points="348.096,-383.479 342.234,-392.304 352.32,-389.061 348.096,-383.479"/>
</g>
<!-- Node17 -->
<g id="node17" class="node"><title>Node17</title>
<g id="a_node17"><a xlink:href="classsoftwarecontainer_1_1_capability_parse_error.html" target="_top" xlink:title="An error occured in ConfigStore when parsing a Capability in a Service Manifest. ">
<polygon fill="white" stroke="black" points="443.5,-245.5 443.5,-275.5 550.5,-275.5 550.5,-245.5 443.5,-245.5"/>
<text text-anchor="start" x="451.5" y="-263.5" font-family="Helvetica,sans-Serif" font-size="10.00">softwarecontainer::</text>
<text text-anchor="middle" x="497" y="-252.5" font-family="Helvetica,sans-Serif" font-size="10.00">CapabilityParseError</text>
</a>
</g>
</g>
<!-- Node16&#45;&gt;Node17 -->
<g id="edge16" class="edge"><title>Node16&#45;&gt;Node17</title>
<path fill="none" stroke="midnightblue" d="M382.277,-260.5C402.137,-260.5 424.128,-260.5 443.437,-260.5"/>
<polygon fill="midnightblue" stroke="midnightblue" points="382.112,-257 372.112,-260.5 382.112,-264 382.112,-257"/>
</g>
<!-- Node18 -->
<g id="node18" class="node"><title>Node18</title>
<g id="a_node18"><a xlink:href="classsoftwarecontainer_1_1_service_manifest_parse_error.html" target="_top" xlink:title="An error occured in ConfigStore when parsing a Service Manifest. ">
<polygon fill="white" stroke="black" points="430,-196.5 430,-226.5 564,-226.5 564,-196.5 430,-196.5"/>
<text text-anchor="start" x="438" y="-214.5" font-family="Helvetica,sans-Serif" font-size="10.00">softwarecontainer::</text>
<text text-anchor="middle" x="497" y="-203.5" font-family="Helvetica,sans-Serif" font-size="10.00">ServiceManifestParseError</text>
</a>
</g>
</g>
<!-- Node16&#45;&gt;Node18 -->
<g id="edge17" class="edge"><title>Node16&#45;&gt;Node18</title>
<path fill="none" stroke="midnightblue" d="M381.914,-243.813C401.659,-238.221 423.547,-232.021 442.826,-226.561"/>
<polygon fill="midnightblue" stroke="midnightblue" points="380.78,-240.497 372.112,-246.59 382.687,-247.232 380.78,-240.497"/>
</g>
<!-- Node19 -->
<g id="node19" class="node"><title>Node19</title>
<g id="a_node19"><a xlink:href="classsoftwarecontainer_1_1_service_manifest_path_error.html" target="_top" xlink:title="An error occured in ConfigStore relating to the path to the Service Manifest(s) ">
<polygon fill="white" stroke="black" points="433,-147.5 433,-177.5 561,-177.5 561,-147.5 433,-147.5"/>
<text text-anchor="start" x="441" y="-165.5" font-family="Helvetica,sans-Serif" font-size="10.00">softwarecontainer::</text>
<text text-anchor="middle" x="497" y="-154.5" font-family="Helvetica,sans-Serif" font-size="10.00">ServiceManifestPathError</text>
</a>
</g>
</g>
<!-- Node16&#45;&gt;Node19 -->
<g id="edge18" class="edge"><title>Node16&#45;&gt;Node19</title>
<path fill="none" stroke="midnightblue" d="M381.516,-244.066C385.912,-241.839 390.134,-239.328 394,-236.5 415.811,-220.545 408.481,-203.846 430,-187.5 434.976,-183.72 440.589,-180.454 446.387,-177.647"/>
<polygon fill="midnightblue" stroke="midnightblue" points="379.965,-240.926 372.306,-248.247 382.859,-247.3 379.965,-240.926"/>
</g>
<!-- Node24 -->
<g id="node24" class="node"><title>Node24</title>
<g id="a_node24"><a xlink:href="classsoftwarecontainer_1_1_i_p_allocation_error.html" target="_top" xlink:title="softwarecontainer::\lIPAllocationError">
<polygon fill="white" stroke="black" points="447,-49.5 447,-79.5 547,-79.5 547,-49.5 447,-49.5"/>
<text text-anchor="start" x="455" y="-67.5" font-family="Helvetica,sans-Serif" font-size="10.00">softwarecontainer::</text>
<text text-anchor="middle" x="497" y="-56.5" font-family="Helvetica,sans-Serif" font-size="10.00">IPAllocationError</text>
</a>
</g>
</g>
<!-- Node23&#45;&gt;Node24 -->
<g id="edge23" class="edge"><title>Node23&#45;&gt;Node24</title>
<path fill="none" stroke="midnightblue" d="M388.9,-64.5C408.14,-64.5 428.823,-64.5 446.834,-64.5"/>
<polygon fill="midnightblue" stroke="midnightblue" points="388.691,-61.0001 378.691,-64.5 388.691,-68.0001 388.691,-61.0001"/>
</g>
</g>
</svg>
