<?xml version="1.0" encoding="UTF-8" standalone="no"?>
<!DOCTYPE svg PUBLIC "-//W3C//DTD SVG 1.1//EN"
 "http://www.w3.org/Graphics/SVG/1.1/DTD/svg11.dtd">
<!-- Generated by graphviz version 2.38.0 (20140413.2041)
 -->
<!-- Title: softwarecontainer::isSuccess Pages: 1 -->
<svg width="316pt" height="207pt"
 viewBox="0.00 0.00 316.00 206.50" xmlns="http://www.w3.org/2000/svg" xmlns:xlink="http://www.w3.org/1999/xlink">
<g id="graph0" class="graph" transform="scale(1 1) rotate(0) translate(4 202.5)">
<title>softwarecontainer::isSuccess</title>
<polygon fill="white" stroke="none" points="-4,4 -4,-202.5 312,-202.5 312,4 -4,4"/>
<!-- Node1 -->
<g id="node1" class="node"><title>Node1</title>
<polygon fill="#bfbfbf" stroke="black" points="0,-87 0,-117 100,-117 100,-87 0,-87"/>
<text text-anchor="start" x="8" y="-105" font-family="Helvetica,sans-Serif" font-size="10.00">softwarecontainer::</text>
<text text-anchor="middle" x="50" y="-94" font-family="Helvetica,sans-Serif" font-size="10.00">isSuccess</text>
</g>
<!-- Node2 -->
<g id="node2" class="node"><title>Node2</title>
<g id="a_node2"><a xlink:href="classsoftwarecontainer_1_1_pulse_gateway.html#a0cd0a00ca7590d7c9c3c961e20de56df" target="_top" xlink:title="Implements Gateway::activateGateway. ">
<polygon fill="white" stroke="black" points="142,-168 142,-198 302,-198 302,-168 142,-168"/>
<text text-anchor="start" x="150" y="-186" font-family="Helvetica,sans-Serif" font-size="10.00">softwarecontainer::</text>
<text text-anchor="middle" x="222" y="-175" font-family="Helvetica,sans-Serif" font-size="10.00">PulseGateway::activateGateway</text>
</a>
</g>
</g>
<!-- Node1&#45;&gt;Node2 -->
<g id="edge1" class="edge"><title>Node1&#45;&gt;Node2</title>
<path fill="none" stroke="midnightblue" d="M78.241,-123.509C94.3028,-135.34 115.451,-149.502 136,-159 143.238,-162.345 151.043,-165.322 158.885,-167.941"/>
<polygon fill="midnightblue" stroke="midnightblue" points="79.9733,-120.432 69.8772,-117.22 75.7665,-126.027 79.9733,-120.432"/>
</g>
<!-- Node3 -->
<g id="node3" class="node"><title>Node3</title>
<g id="a_node3"><a xlink:href="classsoftwarecontainer_1_1_device_node_gateway.html#a9e912027cad4fff3ed4d9a9581f45227" target="_top" xlink:title="Implements Gateway::activateGateway. ">
<polygon fill="white" stroke="black" points="147,-108.5 147,-149.5 297,-149.5 297,-108.5 147,-108.5"/>
<text text-anchor="start" x="155" y="-137.5" font-family="Helvetica,sans-Serif" font-size="10.00">softwarecontainer::</text>
<text text-anchor="start" x="155" y="-126.5" font-family="Helvetica,sans-Serif" font-size="10.00">DeviceNodeGateway::activate</text>
<text text-anchor="middle" x="222" y="-115.5" font-family="Helvetica,sans-Serif" font-size="10.00">Gateway</text>
</a>
</g>
</g>
<!-- Node1&#45;&gt;Node3 -->
<g id="edge2" class="edge"><title>Node1&#45;&gt;Node3</title>
<path fill="none" stroke="midnightblue" d="M110.342,-111.425C122.16,-113.302 134.708,-115.295 146.947,-117.239"/>
<polygon fill="midnightblue" stroke="midnightblue" points="110.596,-107.922 100.171,-109.81 109.498,-114.835 110.596,-107.922"/>
</g>
<!-- Node4 -->
<g id="node4" class="node"><title>Node4</title>
<g id="a_node4"><a xlink:href="classsoftwarecontainer_1_1_network_gateway.html#a8a08792ecd43b1694222ca286514ee21" target="_top" xlink:title="Implements Gateway::activateGateway. ">
<polygon fill="white" stroke="black" points="136,-60 136,-90 308,-90 308,-60 136,-60"/>
<text text-anchor="start" x="144" y="-78" font-family="Helvetica,sans-Serif" font-size="10.00">softwarecontainer::</text>
<text text-anchor="middle" x="222" y="-67" font-family="Helvetica,sans-Serif" font-size="10.00">NetworkGateway::activateGateway</text>
</a>
</g>
</g>
<!-- Node1&#45;&gt;Node4 -->
<g id="edge3" class="edge"><title>Node1&#45;&gt;Node4</title>
<path fill="none" stroke="midnightblue" d="M110.095,-92.6144C118.399,-91.2955 127.067,-89.9187 135.739,-88.5414"/>
<polygon fill="midnightblue" stroke="midnightblue" points="109.498,-89.1651 100.171,-94.1905 110.596,-96.0785 109.498,-89.1651"/>
</g>
<!-- Node5 -->
<g id="node5" class="node"><title>Node5</title>
<g id="a_node5"><a xlink:href="classsoftwarecontainer_1_1_network_gateway.html#ad67674d2ce8d329188446e71c14e3a88" target="_top" xlink:title="Gateway specific parsing of config elements. ">
<polygon fill="white" stroke="black" points="149,-0.5 149,-41.5 295,-41.5 295,-0.5 149,-0.5"/>
<text text-anchor="start" x="157" y="-29.5" font-family="Helvetica,sans-Serif" font-size="10.00">softwarecontainer::</text>
<text text-anchor="start" x="157" y="-18.5" font-family="Helvetica,sans-Serif" font-size="10.00">NetworkGateway::readConfig</text>
<text text-anchor="middle" x="222" y="-7.5" font-family="Helvetica,sans-Serif" font-size="10.00">Element</text>
</a>
</g>
</g>
<!-- Node1&#45;&gt;Node5 -->
<g id="edge4" class="edge"><title>Node1&#45;&gt;Node5</title>
<path fill="none" stroke="midnightblue" d="M82.1725,-81.2327C97.8986,-71.2954 117.516,-59.6985 136,-51 143.08,-47.6682 150.636,-44.4935 158.214,-41.5416"/>
<polygon fill="midnightblue" stroke="midnightblue" points="79.9297,-78.5131 73.401,-86.8573 83.7082,-84.4057 79.9297,-78.5131"/>
</g>
</g>
</svg>
