<?xml version="1.0" encoding="UTF-8" standalone="no"?>
<!DOCTYPE svg PUBLIC "-//W3C//DTD SVG 1.1//EN"
 "http://www.w3.org/Graphics/SVG/1.1/DTD/svg11.dtd">
<!-- Generated by graphviz version 2.38.0 (20140413.2041)
 -->
<!-- Title: softwarecontainer::isError Pages: 1 -->
<svg width="690pt" height="1534pt"
 viewBox="0.00 0.00 690.00 1534.00" xmlns="http://www.w3.org/2000/svg" xmlns:xlink="http://www.w3.org/1999/xlink">
<g id="graph0" class="graph" transform="scale(1 1) rotate(0) translate(4 1530)">
<title>softwarecontainer::isError</title>
<polygon fill="white" stroke="none" points="-4,4 -4,-1530 686,-1530 686,4 -4,4"/>
<!-- Node1 -->
<g id="node1" class="node"><title>Node1</title>
<polygon fill="#bfbfbf" stroke="black" points="0,-805.5 0,-835.5 100,-835.5 100,-805.5 0,-805.5"/>
<text text-anchor="start" x="8" y="-823.5" font-family="Helvetica,sans-Serif" font-size="10.00">softwarecontainer::</text>
<text text-anchor="middle" x="50" y="-812.5" font-family="Helvetica,sans-Serif" font-size="10.00">isError</text>
</g>
<!-- Node2 -->
<g id="node2" class="node"><title>Node2</title>
<g id="a_node2"><a xlink:href="classsoftwarecontainer_1_1_d_bus_gateway.html#a7ba4cdcf870915d57f9f36ed68f7c33a" target="_top" xlink:title="Activates both dbus session instances. ">
<polygon fill="white" stroke="black" points="165.5,-1495.5 165.5,-1525.5 286.5,-1525.5 286.5,-1495.5 165.5,-1495.5"/>
<text text-anchor="start" x="173.5" y="-1513.5" font-family="Helvetica,sans-Serif" font-size="10.00">softwarecontainer::</text>
<text text-anchor="middle" x="226" y="-1502.5" font-family="Helvetica,sans-Serif" font-size="10.00">DBusGateway::activate</text>
</a>
</g>
</g>
<!-- Node1&#45;&gt;Node2 -->
<g id="edge1" class="edge"><title>Node1&#45;&gt;Node2</title>
<path fill="none" stroke="midnightblue" d="M50.8003,-845.833C50.4474,-954.597 54.3705,-1380.96 136,-1480.5 143.548,-1489.7 154.028,-1496.1 165.155,-1500.54"/>
<polygon fill="midnightblue" stroke="midnightblue" points="54.3005,-845.793 50.8489,-835.776 47.3006,-845.759 54.3005,-845.793"/>
</g>
<!-- Node3 -->
<g id="node3" class="node"><title>Node3</title>
<g id="a_node3"><a xlink:href="classsoftwarecontainer_1_1_network_gateway.html#a8a08792ecd43b1694222ca286514ee21" target="_top" xlink:title="Implements Gateway::activateGateway. ">
<polygon fill="white" stroke="black" points="352,-1488.5 352,-1518.5 524,-1518.5 524,-1488.5 352,-1488.5"/>
<text text-anchor="start" x="360" y="-1506.5" font-family="Helvetica,sans-Serif" font-size="10.00">softwarecontainer::</text>
<text text-anchor="middle" x="438" y="-1495.5" font-family="Helvetica,sans-Serif" font-size="10.00">NetworkGateway::activateGateway</text>
</a>
</g>
</g>
<!-- Node1&#45;&gt;Node3 -->
<g id="edge2" class="edge"><title>Node1&#45;&gt;Node3</title>
<path fill="none" stroke="midnightblue" d="M50.6525,-845.869C49.7442,-952.02 51.8744,-1359.13 136,-1447.5 143.525,-1455.4 265.301,-1476.22 351.623,-1490.12"/>
<polygon fill="midnightblue" stroke="midnightblue" points="54.1534,-845.793 50.7568,-835.757 47.1537,-845.721 54.1534,-845.793"/>
</g>
<!-- Node4 -->
<g id="node4" class="node"><title>Node4</title>
<g id="a_node4"><a xlink:href="classsoftwarecontainer_1_1_software_container_agent.html#a97d427dada015dc9337ce5673f55ec9f" target="_top" xlink:title="Bind mount a folder into the container. ">
<polygon fill="white" stroke="black" points="164.5,-1288 164.5,-1329 287.5,-1329 287.5,-1288 164.5,-1288"/>
<text text-anchor="start" x="172.5" y="-1317" font-family="Helvetica,sans-Serif" font-size="10.00">softwarecontainer::</text>
<text text-anchor="start" x="172.5" y="-1306" font-family="Helvetica,sans-Serif" font-size="10.00">SoftwareContainerAgent</text>
<text text-anchor="middle" x="226" y="-1295" font-family="Helvetica,sans-Serif" font-size="10.00">::bindMount</text>
</a>
</g>
</g>
<!-- Node1&#45;&gt;Node4 -->
<g id="edge3" class="edge"><title>Node1&#45;&gt;Node4</title>
<path fill="none" stroke="midnightblue" d="M52.5801,-845.875C58.3744,-931.336 81.0517,-1207.03 136,-1273.5 143.405,-1282.46 153.415,-1289.13 164.051,-1294.11"/>
<polygon fill="midnightblue" stroke="midnightblue" points="56.0641,-845.515 51.9142,-835.767 49.0792,-845.975 56.0641,-845.515"/>
</g>
<!-- Node5 -->
<g id="node5" class="node"><title>Node5</title>
<g id="a_node5"><a xlink:href="classsoftwarecontainer_1_1_netlink.html#acf303ede6bab6850147376b9a0d3ea7b" target="_top" xlink:title="check for a kernel dump, and if not present, try to get one ">
<polygon fill="white" stroke="black" points="371,-1162.5 371,-1192.5 505,-1192.5 505,-1162.5 371,-1162.5"/>
<text text-anchor="start" x="379" y="-1180.5" font-family="Helvetica,sans-Serif" font-size="10.00">softwarecontainer::</text>
<text text-anchor="middle" x="438" y="-1169.5" font-family="Helvetica,sans-Serif" font-size="10.00">Netlink::checkKernelDump</text>
</a>
</g>
</g>
<!-- Node1&#45;&gt;Node5 -->
<g id="edge4" class="edge"><title>Node1&#45;&gt;Node5</title>
<path fill="none" stroke="midnightblue" d="M53.3829,-845.651C60.7879,-917.907 85.9623,-1123.55 136,-1164.5 205.723,-1221.56 317.891,-1207.72 383.82,-1192.56"/>
<polygon fill="midnightblue" stroke="midnightblue" points="56.8575,-845.221 52.3821,-835.618 49.8921,-845.916 56.8575,-845.221"/>
</g>
<!-- Node6 -->
<g id="node6" class="node"><title>Node6</title>
<g id="a_node6"><a xlink:href="classsoftwarecontainer_1_1_netlink.html#abaaa3af391069f8b624edd0c066eb958" target="_top" xlink:title="Bring the given interface up. ">
<polygon fill="white" stroke="black" points="571,-1235.5 571,-1265.5 671,-1265.5 671,-1235.5 571,-1235.5"/>
<text text-anchor="start" x="579" y="-1253.5" font-family="Helvetica,sans-Serif" font-size="10.00">softwarecontainer::</text>
<text text-anchor="middle" x="621" y="-1242.5" font-family="Helvetica,sans-Serif" font-size="10.00">Netlink::linkUp</text>
</a>
</g>
</g>
<!-- Node1&#45;&gt;Node6 -->
<g id="edge30" class="edge"><title>Node1&#45;&gt;Node6</title>
<path fill="none" stroke="midnightblue" d="M52.4349,-846.204C57.539,-927.348 77.7376,-1175.65 136,-1225.5 200.091,-1280.34 460.678,-1264.61 570.655,-1255.22"/>
<polygon fill="midnightblue" stroke="midnightblue" points="55.9092,-845.672 51.8125,-835.901 48.922,-846.094 55.9092,-845.672"/>
</g>
<!-- Node7 -->
<g id="node7" class="node"><title>Node7</title>
<g id="a_node7"><a xlink:href="classsoftwarecontainer_1_1_netlink.html#a07b353cd40aeffd94d9fb03d9cdd1119" target="_top" xlink:title="Check that the device given is a network bridge. ">
<polygon fill="white" stroke="black" points="571,-1170.5 571,-1200.5 671,-1200.5 671,-1170.5 571,-1170.5"/>
<text text-anchor="start" x="579" y="-1188.5" font-family="Helvetica,sans-Serif" font-size="10.00">softwarecontainer::</text>
<text text-anchor="middle" x="621" y="-1177.5" font-family="Helvetica,sans-Serif" font-size="10.00">Netlink::findLink</text>
</a>
</g>
</g>
<!-- Node1&#45;&gt;Node7 -->
<g id="edge19" class="edge"><title>Node1&#45;&gt;Node7</title>
<path fill="none" stroke="midnightblue" d="M52.7668,-846.091C58.6982,-923.63 80.7237,-1153.43 136,-1198.5 202.827,-1252.99 438.104,-1210.05 524,-1202.5 539.344,-1201.15 555.909,-1198.61 570.889,-1195.9"/>
<polygon fill="midnightblue" stroke="midnightblue" points="56.2335,-845.51 52.0064,-835.795 49.2525,-846.026 56.2335,-845.51"/>
</g>
<!-- Node8 -->
<g id="node8" class="node"><title>Node8</title>
<g id="a_node8"><a xlink:href="classsoftwarecontainer_1_1_netlink.html#aec31c67231b12f8a1702054e13029cbb" target="_top" xlink:title="Get all addresses associated with the given interface index. ">
<polygon fill="white" stroke="black" points="563,-1081.5 563,-1111.5 679,-1111.5 679,-1081.5 563,-1081.5"/>
<text text-anchor="start" x="571" y="-1099.5" font-family="Helvetica,sans-Serif" font-size="10.00">softwarecontainer::</text>
<text text-anchor="middle" x="621" y="-1088.5" font-family="Helvetica,sans-Serif" font-size="10.00">Netlink::findAddresses</text>
</a>
</g>
</g>
<!-- Node1&#45;&gt;Node8 -->
<g id="edge18" class="edge"><title>Node1&#45;&gt;Node8</title>
<path fill="none" stroke="midnightblue" d="M53.9131,-845.743C60.3365,-888.979 79.9131,-976.76 136,-1020.5 169.285,-1046.46 441.948,-1077.85 562.754,-1090.65"/>
<polygon fill="midnightblue" stroke="midnightblue" points="57.3713,-845.199 52.5492,-835.765 50.4358,-846.147 57.3713,-845.199"/>
</g>
<!-- Node9 -->
<g id="node9" class="node"><title>Node9</title>
<g id="a_node9"><a xlink:href="classsoftwarecontainer_1_1_workspace.html#af9be59382096de97cfab692bc5c89114" target="_top" xlink:title="Check if the workspace is present and create it if needed. ">
<polygon fill="white" stroke="black" points="364,-960.5 364,-990.5 512,-990.5 512,-960.5 364,-960.5"/>
<text text-anchor="start" x="372" y="-978.5" font-family="Helvetica,sans-Serif" font-size="10.00">softwarecontainer::</text>
<text text-anchor="middle" x="438" y="-967.5" font-family="Helvetica,sans-Serif" font-size="10.00">Workspace::checkWorkspace</text>
</a>
</g>
</g>
<!-- Node1&#45;&gt;Node9 -->
<g id="edge8" class="edge"><title>Node1&#45;&gt;Node9</title>
<path fill="none" stroke="midnightblue" d="M57.9947,-845.877C68.6839,-879.235 92.5674,-936.625 136,-962.5 205.313,-1003.79 300.378,-1000.04 364.997,-990.541"/>
<polygon fill="midnightblue" stroke="midnightblue" points="61.2375,-844.51 54.9797,-835.961 54.5402,-846.546 61.2375,-844.51"/>
</g>
<!-- Node10 -->
<g id="node10" class="node"><title>Node10</title>
<g id="a_node10"><a xlink:href="classsoftwarecontainer_1_1_workspace.html#a4cca8749e6f3bd90452511ede207f5e5" target="_top" xlink:title="Creates a workspace. ">
<polygon fill="white" stroke="black" points="560,-982.5 560,-1012.5 682,-1012.5 682,-982.5 560,-982.5"/>
<text text-anchor="start" x="568" y="-1000.5" font-family="Helvetica,sans-Serif" font-size="10.00">softwarecontainer::</text>
<text text-anchor="middle" x="621" y="-989.5" font-family="Helvetica,sans-Serif" font-size="10.00">Workspace::Workspace</text>
</a>
</g>
</g>
<!-- Node1&#45;&gt;Node10 -->
<g id="edge48" class="edge"><title>Node1&#45;&gt;Node10</title>
<path fill="none" stroke="midnightblue" d="M55.0391,-845.561C62.857,-884.873 84.1068,-959.999 136,-993.5 204.303,-1037.59 445.872,-1017.32 559.754,-1004.79"/>
<polygon fill="midnightblue" stroke="midnightblue" points="58.4774,-844.906 53.2143,-835.711 51.5945,-846.182 58.4774,-844.906"/>
</g>
<!-- Node11 -->
<g id="node11" class="node"><title>Node11</title>
<g id="a_node11"><a xlink:href="classsoftwarecontainer_1_1_software_container_agent.html#aa5f19daf29d5fda482e657ac6e8fca5c" target="_top" xlink:title="Create a new container. ">
<polygon fill="white" stroke="black" points="164.5,-776 164.5,-817 287.5,-817 287.5,-776 164.5,-776"/>
<text text-anchor="start" x="172.5" y="-805" font-family="Helvetica,sans-Serif" font-size="10.00">softwarecontainer::</text>
<text text-anchor="start" x="172.5" y="-794" font-family="Helvetica,sans-Serif" font-size="10.00">SoftwareContainerAgent</text>
<text text-anchor="middle" x="226" y="-783" font-family="Helvetica,sans-Serif" font-size="10.00">::createContainer</text>
</a>
</g>
</g>
<!-- Node1&#45;&gt;Node11 -->
<g id="edge10" class="edge"><title>Node1&#45;&gt;Node11</title>
<path fill="none" stroke="midnightblue" d="M110.425,-812.303C127.823,-809.904 146.861,-807.278 164.334,-804.868"/>
<polygon fill="midnightblue" stroke="midnightblue" points="109.824,-808.853 100.396,-813.687 110.78,-815.787 109.824,-808.853"/>
</g>
<!-- Node12 -->
<g id="node12" class="node"><title>Node12</title>
<g id="a_node12"><a xlink:href="classsoftwarecontainer_1_1_file_toolkit_with_undo.html#aff5073fb683649d6753baae354d202b9" target="_top" xlink:title="createDirectory Create a directory, and if successful append it to a list of dirs to be deleted in th...">
<polygon fill="white" stroke="black" points="173.5,-912 173.5,-953 278.5,-953 278.5,-912 173.5,-912"/>
<text text-anchor="start" x="181.5" y="-941" font-family="Helvetica,sans-Serif" font-size="10.00">softwarecontainer::</text>
<text text-anchor="start" x="181.5" y="-930" font-family="Helvetica,sans-Serif" font-size="10.00">FileToolkitWithUndo</text>
<text text-anchor="middle" x="226" y="-919" font-family="Helvetica,sans-Serif" font-size="10.00">::createDirectory</text>
</a>
</g>
</g>
<!-- Node1&#45;&gt;Node12 -->
<g id="edge11" class="edge"><title>Node1&#45;&gt;Node12</title>
<path fill="none" stroke="midnightblue" d="M71.7466,-843.307C87.9479,-860.06 111.719,-882.433 136,-897.5 147.427,-904.591 160.533,-910.699 173.112,-915.735"/>
<polygon fill="midnightblue" stroke="midnightblue" points="73.8521,-840.441 64.4322,-835.592 68.772,-845.257 73.8521,-840.441"/>
</g>
<!-- Node13 -->
<g id="node13" class="node"><title>Node13</title>
<g id="a_node13"><a xlink:href="classsoftwarecontainer_1_1_file_toolkit_with_undo.html#ab46eccba563b861f100d9ce7fa9ca4d6" target="_top" xlink:title="overlayMount Mount a directory with an overlay on top of it. ">
<polygon fill="white" stroke="black" points="385.5,-890 385.5,-931 490.5,-931 490.5,-890 385.5,-890"/>
<text text-anchor="start" x="393.5" y="-919" font-family="Helvetica,sans-Serif" font-size="10.00">softwarecontainer::</text>
<text text-anchor="start" x="393.5" y="-908" font-family="Helvetica,sans-Serif" font-size="10.00">FileToolkitWithUndo</text>
<text text-anchor="middle" x="438" y="-897" font-family="Helvetica,sans-Serif" font-size="10.00">::overlayMount</text>
</a>
</g>
</g>
<!-- Node1&#45;&gt;Node13 -->
<g id="edge32" class="edge"><title>Node1&#45;&gt;Node13</title>
<path fill="none" stroke="midnightblue" d="M104.971,-838.546C115.222,-841.717 125.9,-844.846 136,-847.5 222.62,-870.26 324.965,-890.243 385.233,-901.316"/>
<polygon fill="midnightblue" stroke="midnightblue" points="105.897,-835.168 95.3075,-835.508 103.798,-841.846 105.897,-835.168"/>
</g>
<!-- Node15 -->
<g id="node15" class="node"><title>Node15</title>
<g id="a_node15"><a xlink:href="classsoftwarecontainer_1_1_container.html#a8461f293ef5db5ee5fbdeddd24f36214" target="_top" xlink:title="Setup the container for preloading. ">
<polygon fill="white" stroke="black" points="388,-835.5 388,-865.5 488,-865.5 488,-835.5 388,-835.5"/>
<text text-anchor="start" x="396" y="-853.5" font-family="Helvetica,sans-Serif" font-size="10.00">softwarecontainer::</text>
<text text-anchor="middle" x="438" y="-842.5" font-family="Helvetica,sans-Serif" font-size="10.00">Container::initialize</text>
</a>
</g>
</g>
<!-- Node1&#45;&gt;Node15 -->
<g id="edge23" class="edge"><title>Node1&#45;&gt;Node15</title>
<path fill="none" stroke="midnightblue" d="M110.646,-825.136C186.742,-831.05 316.949,-841.17 387.71,-846.669"/>
<polygon fill="midnightblue" stroke="midnightblue" points="110.52,-821.615 100.279,-824.33 109.978,-828.594 110.52,-821.615"/>
</g>
<!-- Node16 -->
<g id="node16" class="node"><title>Node16</title>
<g id="a_node16"><a xlink:href="classsoftwarecontainer_1_1_container.html#aaff4ed1ad7fbbe7e34b047fd9e80fdb7" target="_top" xlink:title="Executes a commandline. ">
<polygon fill="white" stroke="black" points="176,-727.5 176,-757.5 276,-757.5 276,-727.5 176,-727.5"/>
<text text-anchor="start" x="184" y="-745.5" font-family="Helvetica,sans-Serif" font-size="10.00">softwarecontainer::</text>
<text text-anchor="middle" x="226" y="-734.5" font-family="Helvetica,sans-Serif" font-size="10.00">Container::execute</text>
</a>
</g>
</g>
<!-- Node1&#45;&gt;Node16 -->
<g id="edge16" class="edge"><title>Node1&#45;&gt;Node16</title>
<path fill="none" stroke="midnightblue" d="M79.3292,-799.435C95.3055,-788.36 116.018,-775.296 136,-766.5 148.45,-761.019 162.444,-756.532 175.584,-752.983"/>
<polygon fill="midnightblue" stroke="midnightblue" points="77.1188,-796.711 70.9755,-805.343 81.1609,-802.426 77.1188,-796.711"/>
</g>
<!-- Node17 -->
<g id="node17" class="node"><title>Node17</title>
<g id="a_node17"><a xlink:href="classsoftwarecontainer_1_1_software_container_agent.html#aef2eb474a1a8406815536cb7d10eefe6" target="_top" xlink:title="Launch the given command in a the given container. ">
<polygon fill="white" stroke="black" points="164.5,-668 164.5,-709 287.5,-709 287.5,-668 164.5,-668"/>
<text text-anchor="start" x="172.5" y="-697" font-family="Helvetica,sans-Serif" font-size="10.00">softwarecontainer::</text>
<text text-anchor="start" x="172.5" y="-686" font-family="Helvetica,sans-Serif" font-size="10.00">SoftwareContainerAgent</text>
<text text-anchor="middle" x="226" y="-675" font-family="Helvetica,sans-Serif" font-size="10.00">::execute</text>
</a>
</g>
</g>
<!-- Node1&#45;&gt;Node17 -->
<g id="edge17" class="edge"><title>Node1&#45;&gt;Node17</title>
<path fill="none" stroke="midnightblue" d="M65.117,-796.928C80.0437,-773.885 105.613,-739.315 136,-718.5 144.609,-712.603 154.477,-707.779 164.435,-703.861"/>
<polygon fill="midnightblue" stroke="midnightblue" points="62.1248,-795.112 59.7489,-805.437 68.045,-798.847 62.1248,-795.112"/>
</g>
<!-- Node18 -->
<g id="node18" class="node"><title>Node18</title>
<g id="a_node18"><a xlink:href="classsoftwarecontainer_1_1_netlink.html#a1756adb8382b2ed3c1518567862139c1" target="_top" xlink:title="get a dump of all links, addresses and routes from the kernel. ">
<polygon fill="white" stroke="black" points="165.5,-1124.5 165.5,-1154.5 286.5,-1154.5 286.5,-1124.5 165.5,-1124.5"/>
<text text-anchor="start" x="173.5" y="-1142.5" font-family="Helvetica,sans-Serif" font-size="10.00">softwarecontainer::</text>
<text text-anchor="middle" x="226" y="-1131.5" font-family="Helvetica,sans-Serif" font-size="10.00">Netlink::getKernelDump</text>
</a>
</g>
</g>
<!-- Node1&#45;&gt;Node18 -->
<g id="edge20" class="edge"><title>Node1&#45;&gt;Node18</title>
<path fill="none" stroke="midnightblue" d="M51.0312,-845.762C52.4877,-901.17 63.7803,-1034.4 136,-1109.5 144.025,-1117.84 154.444,-1123.87 165.312,-1128.22"/>
<polygon fill="midnightblue" stroke="midnightblue" points="54.5307,-845.696 50.8559,-835.759 47.5318,-845.819 54.5307,-845.696"/>
</g>
<!-- Node19 -->
<g id="node19" class="node"><title>Node19</title>
<g id="a_node19"><a xlink:href="classsoftwarecontainer_1_1_netlink.html#a2a6160a9363a9660c82276342dcaf477" target="_top" xlink:title="Construct a new Netlink object. ">
<polygon fill="white" stroke="black" points="388,-1100.5 388,-1130.5 488,-1130.5 488,-1100.5 388,-1100.5"/>
<text text-anchor="start" x="396" y="-1118.5" font-family="Helvetica,sans-Serif" font-size="10.00">softwarecontainer::</text>
<text text-anchor="middle" x="438" y="-1107.5" font-family="Helvetica,sans-Serif" font-size="10.00">Netlink::Netlink</text>
</a>
</g>
</g>
<!-- Node1&#45;&gt;Node19 -->
<g id="edge31" class="edge"><title>Node1&#45;&gt;Node19</title>
<path fill="none" stroke="midnightblue" d="M51.3988,-845.801C53.6871,-897.178 66.6857,-1013.74 136,-1071.5 173.327,-1102.6 312.493,-1111.73 387.822,-1114.4"/>
<polygon fill="midnightblue" stroke="midnightblue" points="54.8896,-845.468 51.05,-835.593 47.8936,-845.707 54.8896,-845.468"/>
</g>
<!-- Node20 -->
<g id="node20" class="node"><title>Node20</title>
<g id="a_node20"><a xlink:href="namespacesoftwarecontainer.html#a7e308629b69d1bcc3bc5e8ceac9b5a2a" target="_top" xlink:title="isSuccess Check if ReturnCode indicates Success or not ">
<polygon fill="white" stroke="black" points="176,-1407.5 176,-1437.5 276,-1437.5 276,-1407.5 176,-1407.5"/>
<text text-anchor="start" x="184" y="-1425.5" font-family="Helvetica,sans-Serif" font-size="10.00">softwarecontainer::</text>
<text text-anchor="middle" x="226" y="-1414.5" font-family="Helvetica,sans-Serif" font-size="10.00">isSuccess</text>
</a>
</g>
</g>
<!-- Node1&#45;&gt;Node20 -->
<g id="edge24" class="edge"><title>Node1&#45;&gt;Node20</title>
<path fill="none" stroke="midnightblue" d="M51.1606,-845.633C52.315,-945.757 61.6278,-1314.84 136,-1398.5 146.101,-1409.86 160.962,-1416.1 175.658,-1419.44"/>
<polygon fill="midnightblue" stroke="midnightblue" points="54.6596,-845.501 51.0622,-835.536 47.6599,-845.569 54.6596,-845.501"/>
</g>
<!-- Node24 -->
<g id="node24" class="node"><title>Node24</title>
<g id="a_node24"><a xlink:href="classsoftwarecontainer_1_1_netlink.html#ab6cfc59121b64f8cf5a89b706b77826b" target="_top" xlink:title="Bring a given interface down. ">
<polygon fill="white" stroke="black" points="176,-619.5 176,-649.5 276,-649.5 276,-619.5 176,-619.5"/>
<text text-anchor="start" x="184" y="-637.5" font-family="Helvetica,sans-Serif" font-size="10.00">softwarecontainer::</text>
<text text-anchor="middle" x="226" y="-626.5" font-family="Helvetica,sans-Serif" font-size="10.00">Netlink::linkDown</text>
</a>
</g>
</g>
<!-- Node1&#45;&gt;Node24 -->
<g id="edge29" class="edge"><title>Node1&#45;&gt;Node24</title>
<path fill="none" stroke="midnightblue" d="M57.1937,-795.721C67.4308,-759.969 91.332,-694.29 136,-658.5 147.365,-649.394 161.896,-643.729 175.906,-640.21"/>
<polygon fill="midnightblue" stroke="midnightblue" points="53.8152,-794.808 54.5548,-805.377 60.5675,-796.653 53.8152,-794.808"/>
</g>
<!-- Node25 -->
<g id="node25" class="node"><title>Node25</title>
<g id="a_node25"><a xlink:href="classsoftwarecontainer_1_1_network_gateway_parser.html#a3139a32ac1978488b7a7f9e8474ecea4" target="_top" xlink:title="Parses NetworkGateway configuration into IPTableEntry. ">
<polygon fill="white" stroke="black" points="136,-1348 136,-1389 316,-1389 316,-1348 136,-1348"/>
<text text-anchor="start" x="144" y="-1377" font-family="Helvetica,sans-Serif" font-size="10.00">softwarecontainer::</text>
<text text-anchor="start" x="144" y="-1366" font-family="Helvetica,sans-Serif" font-size="10.00">NetworkGatewayParser</text>
<text text-anchor="middle" x="226" y="-1355" font-family="Helvetica,sans-Serif" font-size="10.00">::parseNetworkGatewayConfiguration</text>
</a>
</g>
</g>
<!-- Node1&#45;&gt;Node25 -->
<g id="edge33" class="edge"><title>Node1&#45;&gt;Node25</title>
<path fill="none" stroke="midnightblue" d="M51.794,-845.867C55.2137,-939.288 71.5808,-1262.66 136,-1338.5 138.956,-1341.98 142.33,-1345.06 145.995,-1347.78"/>
<polygon fill="midnightblue" stroke="midnightblue" points="55.2841,-845.518 51.4388,-835.646 48.2884,-845.762 55.2841,-845.518"/>
</g>
<!-- Node26 -->
<g id="node26" class="node"><title>Node26</title>
<g id="a_node26"><a xlink:href="classsoftwarecontainer_1_1_software_container.html#a99978224d29f4d27d1801d02f44bfde6" target="_top" xlink:title="Preload the container. ">
<polygon fill="white" stroke="black" points="158.5,-570.5 158.5,-600.5 293.5,-600.5 293.5,-570.5 158.5,-570.5"/>
<text text-anchor="start" x="166.5" y="-588.5" font-family="Helvetica,sans-Serif" font-size="10.00">softwarecontainer::</text>
<text text-anchor="middle" x="226" y="-577.5" font-family="Helvetica,sans-Serif" font-size="10.00">SoftwareContainer::preload</text>
</a>
</g>
</g>
<!-- Node1&#45;&gt;Node26 -->
<g id="edge35" class="edge"><title>Node1&#45;&gt;Node26</title>
<path fill="none" stroke="midnightblue" d="M54.038,-795.052C60.6785,-750.896 80.6115,-660.07 136,-610.5 142.458,-604.72 150.152,-600.267 158.272,-596.837"/>
<polygon fill="midnightblue" stroke="midnightblue" points="50.535,-794.832 52.6227,-805.219 57.4681,-795.798 50.535,-794.832"/>
</g>
<!-- Node27 -->
<g id="node27" class="node"><title>Node27</title>
<g id="a_node27"><a xlink:href="classsoftwarecontainer_1_1_environment_gateway.html#ad58a972633ebc7fed2d8d455900e7ed4" target="_top" xlink:title="Gateway specific parsing of config elements. ">
<polygon fill="white" stroke="black" points="168,-511 168,-552 284,-552 284,-511 168,-511"/>
<text text-anchor="start" x="176" y="-540" font-family="Helvetica,sans-Serif" font-size="10.00">softwarecontainer::</text>
<text text-anchor="start" x="176" y="-529" font-family="Helvetica,sans-Serif" font-size="10.00">EnvironmentGateway::</text>
<text text-anchor="middle" x="226" y="-518" font-family="Helvetica,sans-Serif" font-size="10.00">readConfigElement</text>
</a>
</g>
</g>
<!-- Node1&#45;&gt;Node27 -->
<g id="edge36" class="edge"><title>Node1&#45;&gt;Node27</title>
<path fill="none" stroke="midnightblue" d="M52.0727,-795.06C55.6081,-743.765 70.7927,-627.232 136,-561.5 144.727,-552.702 156.117,-546.484 167.819,-542.089"/>
<polygon fill="midnightblue" stroke="midnightblue" points="48.5665,-795.062 51.4674,-805.252 55.5542,-795.477 48.5665,-795.062"/>
</g>
<!-- Node28 -->
<g id="node28" class="node"><title>Node28</title>
<g id="a_node28"><a xlink:href="classsoftwarecontainer_1_1_file_gateway.html#af9355afbe0fa41df8309a55d08eda7f2" target="_top" xlink:title="Gateway specific parsing of config elements. ">
<polygon fill="white" stroke="black" points="145.5,-462.5 145.5,-492.5 306.5,-492.5 306.5,-462.5 145.5,-462.5"/>
<text text-anchor="start" x="153.5" y="-480.5" font-family="Helvetica,sans-Serif" font-size="10.00">softwarecontainer::</text>
<text text-anchor="middle" x="226" y="-469.5" font-family="Helvetica,sans-Serif" font-size="10.00">FileGateway::readConfigElement</text>
</a>
</g>
</g>
<!-- Node1&#45;&gt;Node28 -->
<g id="edge37" class="edge"><title>Node1&#45;&gt;Node28</title>
<path fill="none" stroke="midnightblue" d="M54.4827,-794.976C64.2621,-726.948 94.0257,-543.6 136,-501.5 139.39,-498.1 143.207,-495.167 147.306,-492.639"/>
<polygon fill="midnightblue" stroke="midnightblue" points="50.9688,-794.829 53.0366,-805.22 57.9001,-795.808 50.9688,-794.829"/>
</g>
<!-- Node29 -->
<g id="node29" class="node"><title>Node29</title>
<g id="a_node29"><a xlink:href="classsoftwarecontainer_1_1_d_bus_gateway_instance.html#a4cf958746ad9911ebb99b9eeb8392060" target="_top" xlink:title="Gateway specific parsing of config elements. ">
<polygon fill="white" stroke="black" points="167,-403 167,-444 285,-444 285,-403 167,-403"/>
<text text-anchor="start" x="175" y="-432" font-family="Helvetica,sans-Serif" font-size="10.00">softwarecontainer::</text>
<text text-anchor="start" x="175" y="-421" font-family="Helvetica,sans-Serif" font-size="10.00">DBusGatewayInstance</text>
<text text-anchor="middle" x="226" y="-410" font-family="Helvetica,sans-Serif" font-size="10.00">::readConfigElement</text>
</a>
</g>
</g>
<!-- Node1&#45;&gt;Node29 -->
<g id="edge38" class="edge"><title>Node1&#45;&gt;Node29</title>
<path fill="none" stroke="midnightblue" d="M53.6964,-794.87C62.043,-720.139 89.7158,-504.533 136,-453.5 144.216,-444.441 155.256,-438.116 166.762,-433.699"/>
<polygon fill="midnightblue" stroke="midnightblue" points="50.1721,-794.902 52.5639,-805.224 57.1306,-795.664 50.1721,-794.902"/>
</g>
<!-- Node30 -->
<g id="node30" class="node"><title>Node30</title>
<g id="a_node30"><a xlink:href="classsoftwarecontainer_1_1_device_node_gateway.html#a0734b6ab0ccd33f80c3139962a55f114" target="_top" xlink:title="Gateway specific parsing of config elements. ">
<polygon fill="white" stroke="black" points="144.5,-343 144.5,-384 307.5,-384 307.5,-343 144.5,-343"/>
<text text-anchor="start" x="152.5" y="-372" font-family="Helvetica,sans-Serif" font-size="10.00">softwarecontainer::</text>
<text text-anchor="start" x="152.5" y="-361" font-family="Helvetica,sans-Serif" font-size="10.00">DeviceNodeGateway::readConfig</text>
<text text-anchor="middle" x="226" y="-350" font-family="Helvetica,sans-Serif" font-size="10.00">Element</text>
</a>
</g>
</g>
<!-- Node1&#45;&gt;Node30 -->
<g id="edge39" class="edge"><title>Node1&#45;&gt;Node30</title>
<path fill="none" stroke="midnightblue" d="M52.7685,-795.131C59,-712.72 82.511,-454.353 136,-393.5 139.122,-389.948 142.678,-386.816 146.531,-384.055"/>
<polygon fill="midnightblue" stroke="midnightblue" points="49.2758,-794.903 52.0325,-805.133 56.257,-795.417 49.2758,-794.903"/>
</g>
<!-- Node31 -->
<g id="node31" class="node"><title>Node31</title>
<g id="a_node31"><a xlink:href="classsoftwarecontainer_1_1_d_bus_gateway.html#a2dafa9d879e1a694e30b17a067a9c504" target="_top" xlink:title="Sets config for both dbus session instances. ">
<polygon fill="white" stroke="black" points="374,-277.5 374,-307.5 502,-307.5 502,-277.5 374,-277.5"/>
<text text-anchor="start" x="382" y="-295.5" font-family="Helvetica,sans-Serif" font-size="10.00">softwarecontainer::</text>
<text text-anchor="middle" x="438" y="-284.5" font-family="Helvetica,sans-Serif" font-size="10.00">DBusGateway::setConfig</text>
</a>
</g>
</g>
<!-- Node1&#45;&gt;Node31 -->
<g id="edge40" class="edge"><title>Node1&#45;&gt;Node31</title>
<path fill="none" stroke="midnightblue" d="M51.6307,-795.077C54.4339,-704.317 68.7992,-398.232 136,-333.5 152.831,-317.287 290.653,-303.87 373.853,-297.15"/>
<polygon fill="midnightblue" stroke="midnightblue" points="48.1264,-795.18 51.3373,-805.276 55.1235,-795.381 48.1264,-795.18"/>
</g>
<!-- Node32 -->
<g id="node32" class="node"><title>Node32</title>
<g id="a_node32"><a xlink:href="classsoftwarecontainer_1_1_gateway.html#a889e0f0ec4060e203972eefe9221f81a" target="_top" xlink:title="Configure this gateway according to the supplied JSON configuration string. ">
<polygon fill="white" stroke="black" points="174,-255.5 174,-285.5 278,-285.5 278,-255.5 174,-255.5"/>
<text text-anchor="start" x="182" y="-273.5" font-family="Helvetica,sans-Serif" font-size="10.00">softwarecontainer::</text>
<text text-anchor="middle" x="226" y="-262.5" font-family="Helvetica,sans-Serif" font-size="10.00">Gateway::setConfig</text>
</a>
</g>
</g>
<!-- Node1&#45;&gt;Node32 -->
<g id="edge41" class="edge"><title>Node1&#45;&gt;Node32</title>
<path fill="none" stroke="midnightblue" d="M51.7799,-795.036C55.1494,-701.257 71.362,-376.643 136,-300.5 145.603,-289.188 159.624,-282.128 173.71,-277.725"/>
<polygon fill="midnightblue" stroke="midnightblue" points="48.2729,-795.183 51.4302,-805.296 55.2689,-795.421 48.2729,-795.183"/>
</g>
<!-- Node33 -->
<g id="node33" class="node"><title>Node33</title>
<g id="a_node33"><a xlink:href="classsoftwarecontainer_1_1_netlink.html#a53e313aa155f065c1d1ef6a4e20ccede" target="_top" xlink:title="Sets an IP address for a network link. ">
<polygon fill="white" stroke="black" points="176,-206.5 176,-236.5 276,-236.5 276,-206.5 176,-206.5"/>
<text text-anchor="start" x="184" y="-224.5" font-family="Helvetica,sans-Serif" font-size="10.00">softwarecontainer::</text>
<text text-anchor="middle" x="226" y="-213.5" font-family="Helvetica,sans-Serif" font-size="10.00">Netlink::setIP</text>
</a>
</g>
</g>
<!-- Node1&#45;&gt;Node33 -->
<g id="edge43" class="edge"><title>Node1&#45;&gt;Node33</title>
<path fill="none" stroke="midnightblue" d="M51.2161,-795.235C52.584,-695.409 62.6048,-329.848 136,-246.5 146.076,-235.057 160.93,-228.664 175.629,-225.149"/>
<polygon fill="midnightblue" stroke="midnightblue" points="47.7156,-795.272 51.0959,-805.313 54.7151,-795.355 47.7156,-795.272"/>
</g>
<!-- Node34 -->
<g id="node34" class="node"><title>Node34</title>
<g id="a_node34"><a xlink:href="classsoftwarecontainer_1_1_software_container_agent.html#a24b59cd9982d4e2e51f999bedea60957" target="_top" xlink:title="shuts down a container ">
<polygon fill="white" stroke="black" points="164.5,-147 164.5,-188 287.5,-188 287.5,-147 164.5,-147"/>
<text text-anchor="start" x="172.5" y="-176" font-family="Helvetica,sans-Serif" font-size="10.00">softwarecontainer::</text>
<text text-anchor="start" x="172.5" y="-165" font-family="Helvetica,sans-Serif" font-size="10.00">SoftwareContainerAgent</text>
<text text-anchor="middle" x="226" y="-154" font-family="Helvetica,sans-Serif" font-size="10.00">::shutdownContainer</text>
</a>
</g>
</g>
<!-- Node1&#45;&gt;Node34 -->
<g id="edge44" class="edge"><title>Node1&#45;&gt;Node34</title>
<path fill="none" stroke="midnightblue" d="M51.0176,-794.93C51.597,-689.637 58.9251,-290.765 136,-197.5 143.375,-188.576 153.505,-182.294 164.294,-177.876"/>
<polygon fill="midnightblue" stroke="midnightblue" points="47.5165,-795.228 50.9781,-805.241 54.5165,-795.255 47.5165,-795.228"/>
</g>
<!-- Node35 -->
<g id="node35" class="node"><title>Node35</title>
<g id="a_node35"><a xlink:href="classsoftwarecontainer_1_1_container.html#a33340235226849d1f178e2f1d7efabe2" target="_top" xlink:title="Start the container. ">
<polygon fill="white" stroke="black" points="176,-98.5 176,-128.5 276,-128.5 276,-98.5 176,-98.5"/>
<text text-anchor="start" x="184" y="-116.5" font-family="Helvetica,sans-Serif" font-size="10.00">softwarecontainer::</text>
<text text-anchor="middle" x="226" y="-105.5" font-family="Helvetica,sans-Serif" font-size="10.00">Container::start</text>
</a>
</g>
</g>
<!-- Node1&#45;&gt;Node35 -->
<g id="edge45" class="edge"><title>Node1&#45;&gt;Node35</title>
<path fill="none" stroke="midnightblue" d="M50.5226,-794.889C48.9674,-683 48.46,-238.199 136,-137.5 146.079,-125.905 161.115,-119.632 175.972,-116.319"/>
<polygon fill="midnightblue" stroke="midnightblue" points="47.0279,-795.267 50.683,-805.211 54.0271,-795.158 47.0279,-795.267"/>
</g>
<!-- Node36 -->
<g id="node36" class="node"><title>Node36</title>
<g id="a_node36"><a xlink:href="classsoftwarecontainer_1_1_software_container.html#ac20c6d0cd340297ed80ae5684d9d64d3" target="_top" xlink:title="Starts the Gateways by setting the gateway configurations and activating the configured gateway...">
<polygon fill="white" stroke="black" points="142.5,-49.5 142.5,-79.5 309.5,-79.5 309.5,-49.5 142.5,-49.5"/>
<text text-anchor="start" x="150.5" y="-67.5" font-family="Helvetica,sans-Serif" font-size="10.00">softwarecontainer::</text>
<text text-anchor="middle" x="226" y="-56.5" font-family="Helvetica,sans-Serif" font-size="10.00">SoftwareContainer::startGateways</text>
</a>
</g>
</g>
<!-- Node1&#45;&gt;Node36 -->
<g id="edge46" class="edge"><title>Node1&#45;&gt;Node36</title>
<path fill="none" stroke="midnightblue" d="M52.3026,-794.911C58.7876,-671.831 89.1569,-144.402 136,-89.5 139.229,-85.7151 142.982,-82.4803 147.083,-79.7178"/>
<polygon fill="midnightblue" stroke="midnightblue" points="48.7901,-795.061 51.7653,-805.23 55.7807,-795.425 48.7901,-795.061"/>
</g>
<!-- Node37 -->
<g id="node37" class="node"><title>Node37</title>
<g id="a_node37"><a xlink:href="classsoftwarecontainer_1_1_d_bus_gateway.html#a003afe7ddc034ad69f0b6ecc7abe2fdc" target="_top" xlink:title="Restore system to the state prior to launching of gateway. ">
<polygon fill="white" stroke="black" points="163,-0.5 163,-30.5 289,-30.5 289,-0.5 163,-0.5"/>
<text text-anchor="start" x="171" y="-18.5" font-family="Helvetica,sans-Serif" font-size="10.00">softwarecontainer::</text>
<text text-anchor="middle" x="226" y="-7.5" font-family="Helvetica,sans-Serif" font-size="10.00">DBusGateway::teardown</text>
</a>
</g>
</g>
<!-- Node1&#45;&gt;Node37 -->
<g id="edge47" class="edge"><title>Node1&#45;&gt;Node37</title>
<path fill="none" stroke="midnightblue" d="M52.0919,-795.23C57.815,-667.806 86.0084,-99.5219 136,-40.5 143.054,-32.1722 152.64,-26.5046 162.915,-22.6716"/>
<polygon fill="midnightblue" stroke="midnightblue" points="48.5952,-795.079 51.6487,-805.224 55.5883,-795.389 48.5952,-795.079"/>
</g>
<!-- Node5&#45;&gt;Node6 -->
<g id="edge5" class="edge"><title>Node5&#45;&gt;Node6</title>
<path fill="none" stroke="midnightblue" d="M485.948,-1196.43C516.024,-1208.56 554.526,-1224.09 582.545,-1235.39"/>
<polygon fill="midnightblue" stroke="midnightblue" points="487.087,-1193.12 476.503,-1192.63 484.468,-1199.61 487.087,-1193.12"/>
</g>
<!-- Node5&#45;&gt;Node7 -->
<g id="edge6" class="edge"><title>Node5&#45;&gt;Node7</title>
<path fill="none" stroke="midnightblue" d="M515.158,-1180.87C533.976,-1181.7 553.643,-1182.57 570.793,-1183.33"/>
<polygon fill="midnightblue" stroke="midnightblue" points="515.258,-1177.37 505.113,-1180.42 514.949,-1184.36 515.258,-1177.37"/>
</g>
<!-- Node5&#45;&gt;Node8 -->
<g id="edge7" class="edge"><title>Node5&#45;&gt;Node8</title>
<path fill="none" stroke="midnightblue" d="M483.486,-1158.33C496.561,-1152.64 510.875,-1146.36 524,-1140.5 545.259,-1131 569.051,-1120.1 587.632,-1111.52"/>
<polygon fill="midnightblue" stroke="midnightblue" points="481.998,-1155.16 474.219,-1162.35 484.785,-1161.58 481.998,-1155.16"/>
</g>
<!-- Node9&#45;&gt;Node10 -->
<g id="edge9" class="edge"><title>Node9&#45;&gt;Node10</title>
<path fill="none" stroke="midnightblue" d="M522.236,-985.617C534.953,-987.163 547.863,-988.732 559.952,-990.201"/>
<polygon fill="midnightblue" stroke="midnightblue" points="522.447,-982.117 512.098,-984.385 521.603,-989.066 522.447,-982.117"/>
</g>
<!-- Node12&#45;&gt;Node9 -->
<g id="edge15" class="edge"><title>Node12&#45;&gt;Node9</title>
<path fill="none" stroke="midnightblue" d="M288.503,-945.093C312.063,-949.918 339.172,-955.469 363.727,-960.496"/>
<polygon fill="midnightblue" stroke="midnightblue" points="289.14,-941.651 278.641,-943.074 287.735,-948.509 289.14,-941.651"/>
</g>
<!-- Node12&#45;&gt;Node13 -->
<g id="edge12" class="edge"><title>Node12&#45;&gt;Node13</title>
<path fill="none" stroke="midnightblue" d="M288.787,-926.027C319.436,-922.816 356.034,-918.982 385.195,-915.927"/>
<polygon fill="midnightblue" stroke="midnightblue" points="288.222,-922.567 278.641,-927.09 288.951,-929.529 288.222,-922.567"/>
</g>
<!-- Node12&#45;&gt;Node15 -->
<g id="edge14" class="edge"><title>Node12&#45;&gt;Node15</title>
<path fill="none" stroke="midnightblue" d="M284.322,-907.879C305.488,-898.993 329.738,-889.052 352,-880.5 365.148,-875.45 379.556,-870.242 392.715,-865.613"/>
<polygon fill="midnightblue" stroke="midnightblue" points="282.688,-904.769 274.832,-911.878 285.406,-911.22 282.688,-904.769"/>
</g>
<!-- Node14 -->
<g id="node14" class="node"><title>Node14</title>
<g id="a_node14"><a xlink:href="classsoftwarecontainer_1_1_container.html#a6c57689a4a21b8c9342c53c7e8743203" target="_top" xlink:title="create Creates a new lxc_container and creates it with all the initialization. ">
<polygon fill="white" stroke="black" points="571,-895.5 571,-925.5 671,-925.5 671,-895.5 571,-895.5"/>
<text text-anchor="start" x="579" y="-913.5" font-family="Helvetica,sans-Serif" font-size="10.00">softwarecontainer::</text>
<text text-anchor="middle" x="621" y="-902.5" font-family="Helvetica,sans-Serif" font-size="10.00">Container::create</text>
</a>
</g>
</g>
<!-- Node13&#45;&gt;Node14 -->
<g id="edge13" class="edge"><title>Node13&#45;&gt;Node14</title>
<path fill="none" stroke="midnightblue" d="M501.134,-910.5C523.941,-910.5 549.422,-910.5 570.925,-910.5"/>
<polygon fill="midnightblue" stroke="midnightblue" points="500.867,-907 490.867,-910.5 500.867,-914 500.867,-907"/>
</g>
<!-- Node18&#45;&gt;Node5 -->
<g id="edge22" class="edge"><title>Node18&#45;&gt;Node5</title>
<path fill="none" stroke="midnightblue" d="M296.687,-1152.11C320.622,-1156.44 347.328,-1161.27 370.964,-1165.55"/>
<polygon fill="midnightblue" stroke="midnightblue" points="297.079,-1148.62 286.616,-1150.29 295.833,-1155.51 297.079,-1148.62"/>
</g>
<!-- Node18&#45;&gt;Node19 -->
<g id="edge21" class="edge"><title>Node18&#45;&gt;Node19</title>
<path fill="none" stroke="midnightblue" d="M296.569,-1131.55C326.457,-1128.13 360.683,-1124.22 387.864,-1121.12"/>
<polygon fill="midnightblue" stroke="midnightblue" points="296.154,-1128.07 286.616,-1132.69 296.949,-1135.03 296.154,-1128.07"/>
</g>
<!-- Node20&#45;&gt;Node3 -->
<g id="edge27" class="edge"><title>Node20&#45;&gt;Node3</title>
<path fill="none" stroke="midnightblue" d="M285.638,-1439.29C295.997,-1443.09 306.498,-1447.5 316,-1452.5 333.7,-1461.81 334.073,-1470.63 352,-1479.5 358.872,-1482.9 366.302,-1485.89 373.811,-1488.49"/>
<polygon fill="midnightblue" stroke="midnightblue" points="286.793,-1435.99 276.198,-1435.98 284.475,-1442.59 286.793,-1435.99"/>
</g>
<!-- Node21 -->
<g id="node21" class="node"><title>Node21</title>
<g id="a_node21"><a xlink:href="classsoftwarecontainer_1_1_device_node_gateway.html#a9e912027cad4fff3ed4d9a9581f45227" target="_top" xlink:title="Implements Gateway::activateGateway. ">
<polygon fill="white" stroke="black" points="363,-1429 363,-1470 513,-1470 513,-1429 363,-1429"/>
<text text-anchor="start" x="371" y="-1458" font-family="Helvetica,sans-Serif" font-size="10.00">softwarecontainer::</text>
<text text-anchor="start" x="371" y="-1447" font-family="Helvetica,sans-Serif" font-size="10.00">DeviceNodeGateway::activate</text>
<text text-anchor="middle" x="438" y="-1436" font-family="Helvetica,sans-Serif" font-size="10.00">Gateway</text>
</a>
</g>
</g>
<!-- Node20&#45;&gt;Node21 -->
<g id="edge25" class="edge"><title>Node20&#45;&gt;Node21</title>
<path fill="none" stroke="midnightblue" d="M286.197,-1430.11C310.045,-1433.18 337.813,-1436.75 362.975,-1439.98"/>
<polygon fill="midnightblue" stroke="midnightblue" points="286.6,-1426.63 276.236,-1428.83 285.708,-1433.58 286.6,-1426.63"/>
</g>
<!-- Node22 -->
<g id="node22" class="node"><title>Node22</title>
<g id="a_node22"><a xlink:href="classsoftwarecontainer_1_1_network_gateway.html#ad67674d2ce8d329188446e71c14e3a88" target="_top" xlink:title="Gateway specific parsing of config elements. ">
<polygon fill="white" stroke="black" points="365,-1321 365,-1362 511,-1362 511,-1321 365,-1321"/>
<text text-anchor="start" x="373" y="-1350" font-family="Helvetica,sans-Serif" font-size="10.00">softwarecontainer::</text>
<text text-anchor="start" x="373" y="-1339" font-family="Helvetica,sans-Serif" font-size="10.00">NetworkGateway::readConfig</text>
<text text-anchor="middle" x="438" y="-1328" font-family="Helvetica,sans-Serif" font-size="10.00">Element</text>
</a>
</g>
</g>
<!-- Node20&#45;&gt;Node22 -->
<g id="edge26" class="edge"><title>Node20&#45;&gt;Node22</title>
<path fill="none" stroke="midnightblue" d="M286.004,-1409.99C296.254,-1406.87 306.624,-1403.07 316,-1398.5 333.979,-1389.74 334.367,-1380.94 352,-1371.5 358.347,-1368.1 365.157,-1364.96 372.06,-1362.09"/>
<polygon fill="midnightblue" stroke="midnightblue" points="284.9,-1406.67 276.249,-1412.78 286.826,-1413.4 284.9,-1406.67"/>
</g>
<!-- Node23 -->
<g id="node23" class="node"><title>Node23</title>
<g id="a_node23"><a xlink:href="classsoftwarecontainer_1_1_pulse_gateway.html#a0cd0a00ca7590d7c9c3c961e20de56df" target="_top" xlink:title="Implements Gateway::activateGateway. ">
<polygon fill="white" stroke="black" points="358,-1380.5 358,-1410.5 518,-1410.5 518,-1380.5 358,-1380.5"/>
<text text-anchor="start" x="366" y="-1398.5" font-family="Helvetica,sans-Serif" font-size="10.00">softwarecontainer::</text>
<text text-anchor="middle" x="438" y="-1387.5" font-family="Helvetica,sans-Serif" font-size="10.00">PulseGateway::activateGateway</text>
</a>
</g>
</g>
<!-- Node20&#45;&gt;Node23 -->
<g id="edge28" class="edge"><title>Node20&#45;&gt;Node23</title>
<path fill="none" stroke="midnightblue" d="M286.173,-1414.89C308.363,-1412.04 333.95,-1408.75 357.673,-1405.7"/>
<polygon fill="midnightblue" stroke="midnightblue" points="285.708,-1411.42 276.236,-1416.17 286.6,-1418.37 285.708,-1411.42"/>
</g>
<!-- Node25&#45;&gt;Node22 -->
<g id="edge34" class="edge"><title>Node25&#45;&gt;Node22</title>
<path fill="none" stroke="midnightblue" d="M326.056,-1355.76C339.179,-1354.08 352.426,-1352.37 364.973,-1350.76"/>
<polygon fill="midnightblue" stroke="midnightblue" points="325.531,-1352.3 316.059,-1357.05 326.424,-1359.25 325.531,-1352.3"/>
</g>
<!-- Node32&#45;&gt;Node31 -->
<g id="edge42" class="edge"><title>Node32&#45;&gt;Node31</title>
<path fill="none" stroke="midnightblue" d="M288.148,-276.906C315.002,-279.719 346.521,-283.021 373.625,-285.861"/>
<polygon fill="midnightblue" stroke="midnightblue" points="288.414,-273.415 278.103,-275.854 287.684,-280.377 288.414,-273.415"/>
</g>
</g>
</svg>
