<?xml version="1.0" encoding="UTF-8" standalone="no"?>
<!DOCTYPE svg PUBLIC "-//W3C//DTD SVG 1.1//EN"
 "http://www.w3.org/Graphics/SVG/1.1/DTD/svg11.dtd">
<!-- Generated by graphviz version 2.38.0 (20140413.2041)
 -->
<!-- Title: softwarecontainer::existsInFileSystem Pages: 1 -->
<svg width="649pt" height="176pt"
 viewBox="0.00 0.00 649.00 175.50" xmlns="http://www.w3.org/2000/svg" xmlns:xlink="http://www.w3.org/1999/xlink">
<g id="graph0" class="graph" transform="scale(1 1) rotate(0) translate(4 171.5)">
<title>softwarecontainer::existsInFileSystem</title>
<polygon fill="white" stroke="none" points="-4,4 -4,-171.5 645,-171.5 645,4 -4,4"/>
<!-- Node1 -->
<g id="node1" class="node"><title>Node1</title>
<polygon fill="#bfbfbf" stroke="black" points="0,-63.5 0,-93.5 101,-93.5 101,-63.5 0,-63.5"/>
<text text-anchor="start" x="8" y="-81.5" font-family="Helvetica,sans-Serif" font-size="10.00">softwarecontainer::</text>
<text text-anchor="middle" x="50.5" y="-70.5" font-family="Helvetica,sans-Serif" font-size="10.00">existsInFileSystem</text>
</g>
<!-- Node2 -->
<g id="node2" class="node"><title>Node2</title>
<g id="a_node2"><a xlink:href="classsoftwarecontainer_1_1_device_node_gateway.html#a9e912027cad4fff3ed4d9a9581f45227" target="_top" xlink:title="Implements Gateway::activateGateway. ">
<polygon fill="white" stroke="black" points="137,-126 137,-167 287,-167 287,-126 137,-126"/>
<text text-anchor="start" x="145" y="-155" font-family="Helvetica,sans-Serif" font-size="10.00">softwarecontainer::</text>
<text text-anchor="start" x="145" y="-144" font-family="Helvetica,sans-Serif" font-size="10.00">DeviceNodeGateway::activate</text>
<text text-anchor="middle" x="212" y="-133" font-family="Helvetica,sans-Serif" font-size="10.00">Gateway</text>
</a>
</g>
</g>
<!-- Node1&#45;&gt;Node2 -->
<g id="edge1" class="edge"><title>Node1&#45;&gt;Node2</title>
<path fill="none" stroke="midnightblue" d="M96.1163,-97.5214C116.844,-106.358 141.529,-116.882 162.695,-125.906"/>
<polygon fill="midnightblue" stroke="midnightblue" points="97.4698,-94.2936 86.8982,-93.5914 94.7245,-100.733 97.4698,-94.2936"/>
</g>
<!-- Node3 -->
<g id="node3" class="node"><title>Node3</title>
<g id="a_node3"><a xlink:href="classsoftwarecontainer_1_1_file_toolkit_with_undo.html#a8f6b5cda214c9e412ab73313bc95d785" target="_top" xlink:title="bindMount Bind mount a src directory to another position dst. ">
<polygon fill="white" stroke="black" points="331.5,-88 331.5,-129 436.5,-129 436.5,-88 331.5,-88"/>
<text text-anchor="start" x="339.5" y="-117" font-family="Helvetica,sans-Serif" font-size="10.00">softwarecontainer::</text>
<text text-anchor="start" x="339.5" y="-106" font-family="Helvetica,sans-Serif" font-size="10.00">FileToolkitWithUndo</text>
<text text-anchor="middle" x="384" y="-95" font-family="Helvetica,sans-Serif" font-size="10.00">::bindMount</text>
</a>
</g>
</g>
<!-- Node1&#45;&gt;Node3 -->
<g id="edge2" class="edge"><title>Node1&#45;&gt;Node3</title>
<path fill="none" stroke="midnightblue" d="M111.28,-83.91C174.085,-89.5936 271.845,-98.4407 331.392,-103.83"/>
<polygon fill="midnightblue" stroke="midnightblue" points="111.404,-80.4069 101.129,-82.9913 110.773,-87.3784 111.404,-80.4069"/>
</g>
<!-- Node4 -->
<g id="node4" class="node"><title>Node4</title>
<g id="a_node4"><a xlink:href="classsoftwarecontainer_1_1_container.html#ae5445d6a0c4b8b006ed38b3c01bb870c" target="_top" xlink:title="Tries to bind mount a path from host to container. ">
<polygon fill="white" stroke="black" points="481,-44.5 481,-74.5 641,-74.5 641,-44.5 481,-44.5"/>
<text text-anchor="start" x="489" y="-62.5" font-family="Helvetica,sans-Serif" font-size="10.00">softwarecontainer::</text>
<text text-anchor="middle" x="561" y="-51.5" font-family="Helvetica,sans-Serif" font-size="10.00">Container::bindMountInContainer</text>
</a>
</g>
</g>
<!-- Node1&#45;&gt;Node4 -->
<g id="edge4" class="edge"><title>Node1&#45;&gt;Node4</title>
<path fill="none" stroke="midnightblue" d="M111.409,-76.2615C203.152,-72.8336 378.532,-66.2805 480.712,-62.4626"/>
<polygon fill="midnightblue" stroke="midnightblue" points="111.045,-72.7726 101.183,-76.6436 111.307,-79.7677 111.045,-72.7726"/>
</g>
<!-- Node5 -->
<g id="node5" class="node"><title>Node5</title>
<g id="a_node5"><a xlink:href="namespacesoftwarecontainer.html#aee26a680bb2961627889d39c9f874b2c" target="_top" xlink:title="waitForProcessTermination Waits for a process to terminate and then returns the status of the process...">
<polygon fill="white" stroke="black" points="144,-0.5 144,-30.5 280,-30.5 280,-0.5 144,-0.5"/>
<text text-anchor="start" x="152" y="-18.5" font-family="Helvetica,sans-Serif" font-size="10.00">softwarecontainer::</text>
<text text-anchor="middle" x="212" y="-7.5" font-family="Helvetica,sans-Serif" font-size="10.00">waitForProcessTermination</text>
</a>
</g>
</g>
<!-- Node1&#45;&gt;Node5 -->
<g id="edge5" class="edge"><title>Node1&#45;&gt;Node5</title>
<path fill="none" stroke="midnightblue" d="M99.1539,-59.6774C122.699,-50.3774 150.724,-39.3079 172.831,-30.576"/>
<polygon fill="midnightblue" stroke="midnightblue" points="97.7192,-56.4809 89.7042,-63.4099 100.291,-62.9915 97.7192,-56.4809"/>
</g>
<!-- Node3&#45;&gt;Node4 -->
<g id="edge3" class="edge"><title>Node3&#45;&gt;Node4</title>
<path fill="none" stroke="midnightblue" d="M446.297,-91.3368C465.878,-85.8541 487.388,-79.8314 506.379,-74.5137"/>
<polygon fill="midnightblue" stroke="midnightblue" points="445.245,-87.9967 436.559,-94.0634 447.133,-94.7374 445.245,-87.9967"/>
</g>
<!-- Node6 -->
<g id="node6" class="node"><title>Node6</title>
<g id="a_node6"><a xlink:href="classsoftwarecontainer_1_1_container.html#a480d9a7d3a2c0ee9d1756a2bdfc29f59" target="_top" xlink:title="synchronous version of execute ">
<polygon fill="white" stroke="black" points="323,-0.5 323,-30.5 445,-30.5 445,-0.5 323,-0.5"/>
<text text-anchor="start" x="331" y="-18.5" font-family="Helvetica,sans-Serif" font-size="10.00">softwarecontainer::</text>
<text text-anchor="middle" x="384" y="-7.5" font-family="Helvetica,sans-Serif" font-size="10.00">Container::executeSync</text>
</a>
</g>
</g>
<!-- Node5&#45;&gt;Node6 -->
<g id="edge6" class="edge"><title>Node5&#45;&gt;Node6</title>
<path fill="none" stroke="midnightblue" d="M290.199,-15.5C301.176,-15.5 312.328,-15.5 322.915,-15.5"/>
<polygon fill="midnightblue" stroke="midnightblue" points="290.189,-12.0001 280.189,-15.5 290.188,-19.0001 290.189,-12.0001"/>
</g>
<!-- Node6&#45;&gt;Node4 -->
<g id="edge7" class="edge"><title>Node6&#45;&gt;Node4</title>
<path fill="none" stroke="midnightblue" d="M454.544,-32.9855C469.665,-36.7873 485.534,-40.777 500.237,-44.4738"/>
<polygon fill="midnightblue" stroke="midnightblue" points="455.287,-29.5634 444.736,-30.5192 453.58,-36.3521 455.287,-29.5634"/>
</g>
</g>
</svg>
