<?xml version="1.0" encoding="UTF-8" standalone="no"?>
<!DOCTYPE svg PUBLIC "-//W3C//DTD SVG 1.1//EN"
 "http://www.w3.org/Graphics/SVG/1.1/DTD/svg11.dtd">
<!-- Generated by graphviz version 2.38.0 (20140413.2041)
 -->
<!-- Title: softwarecontainer::isError Pages: 1 -->
<svg width="690pt" height="1594pt"
 viewBox="0.00 0.00 690.00 1594.00" xmlns="http://www.w3.org/2000/svg" xmlns:xlink="http://www.w3.org/1999/xlink">
<g id="graph0" class="graph" transform="scale(1 1) rotate(0) translate(4 1590)">
<title>softwarecontainer::isError</title>
<polygon fill="white" stroke="none" points="-4,4 -4,-1590 686,-1590 686,4 -4,4"/>
<!-- Node1 -->
<g id="node1" class="node"><title>Node1</title>
<polygon fill="#bfbfbf" stroke="black" points="0,-841.5 0,-871.5 100,-871.5 100,-841.5 0,-841.5"/>
<text text-anchor="start" x="8" y="-859.5" font-family="Helvetica,sans-Serif" font-size="10.00">softwarecontainer::</text>
<text text-anchor="middle" x="50" y="-848.5" font-family="Helvetica,sans-Serif" font-size="10.00">isError</text>
</g>
<!-- Node2 -->
<g id="node2" class="node"><title>Node2</title>
<g id="a_node2"><a xlink:href="classsoftwarecontainer_1_1_d_bus_gateway.html#a7ba4cdcf870915d57f9f36ed68f7c33a" target="_top" xlink:title="Activates both dbus session instances. ">
<polygon fill="white" stroke="black" points="165.5,-1555.5 165.5,-1585.5 286.5,-1585.5 286.5,-1555.5 165.5,-1555.5"/>
<text text-anchor="start" x="173.5" y="-1573.5" font-family="Helvetica,sans-Serif" font-size="10.00">softwarecontainer::</text>
<text text-anchor="middle" x="226" y="-1562.5" font-family="Helvetica,sans-Serif" font-size="10.00">DBusGateway::activate</text>
</a>
</g>
</g>
<!-- Node1&#45;&gt;Node2 -->
<g id="edge1" class="edge"><title>Node1&#45;&gt;Node2</title>
<path fill="none" stroke="midnightblue" d="M50.6709,-882.019C49.7424,-993.521 51.4964,-1436.99 136,-1540.5 143.528,-1549.72 153.999,-1556.12 165.123,-1560.56"/>
<polygon fill="midnightblue" stroke="midnightblue" points="54.1735,-881.766 50.7728,-871.732 47.1738,-881.697 54.1735,-881.766"/>
</g>
<!-- Node3 -->
<g id="node3" class="node"><title>Node3</title>
<g id="a_node3"><a xlink:href="classsoftwarecontainer_1_1_network_gateway.html#a8a08792ecd43b1694222ca286514ee21" target="_top" xlink:title="Implements Gateway::activateGateway. ">
<polygon fill="white" stroke="black" points="352,-1548.5 352,-1578.5 524,-1578.5 524,-1548.5 352,-1548.5"/>
<text text-anchor="start" x="360" y="-1566.5" font-family="Helvetica,sans-Serif" font-size="10.00">softwarecontainer::</text>
<text text-anchor="middle" x="438" y="-1555.5" font-family="Helvetica,sans-Serif" font-size="10.00">NetworkGateway::activateGateway</text>
</a>
</g>
</g>
<!-- Node1&#45;&gt;Node3 -->
<g id="edge2" class="edge"><title>Node1&#45;&gt;Node3</title>
<path fill="none" stroke="midnightblue" d="M50.513,-881.788C48.9681,-990.317 48.6593,-1415.3 136,-1507.5 143.505,-1515.42 265.287,-1536.23 351.616,-1550.13"/>
<polygon fill="midnightblue" stroke="midnightblue" points="54.013,-881.807 50.673,-871.752 47.0139,-881.695 54.013,-881.807"/>
</g>
<!-- Node4 -->
<g id="node4" class="node"><title>Node4</title>
<g id="a_node4"><a xlink:href="classsoftwarecontainer_1_1_software_container_agent.html#a97d427dada015dc9337ce5673f55ec9f" target="_top" xlink:title="Bind mount a folder into the container. ">
<polygon fill="white" stroke="black" points="164.5,-1348 164.5,-1389 287.5,-1389 287.5,-1348 164.5,-1348"/>
<text text-anchor="start" x="172.5" y="-1377" font-family="Helvetica,sans-Serif" font-size="10.00">softwarecontainer::</text>
<text text-anchor="start" x="172.5" y="-1366" font-family="Helvetica,sans-Serif" font-size="10.00">SoftwareContainerAgent</text>
<text text-anchor="middle" x="226" y="-1355" font-family="Helvetica,sans-Serif" font-size="10.00">::bindMount</text>
</a>
</g>
</g>
<!-- Node1&#45;&gt;Node4 -->
<g id="edge3" class="edge"><title>Node1&#45;&gt;Node4</title>
<path fill="none" stroke="midnightblue" d="M52.3095,-881.751C57.3578,-969.981 78.2427,-1262.98 136,-1333.5 143.469,-1342.62 153.641,-1349.37 164.442,-1354.37"/>
<polygon fill="midnightblue" stroke="midnightblue" points="55.7943,-881.378 51.747,-871.587 48.805,-881.765 55.7943,-881.378"/>
</g>
<!-- Node5 -->
<g id="node5" class="node"><title>Node5</title>
<g id="a_node5"><a xlink:href="classsoftwarecontainer_1_1_netlink.html#acf303ede6bab6850147376b9a0d3ea7b" target="_top" xlink:title="check for a kernel dump, and if not present, try to get one ">
<polygon fill="white" stroke="black" points="371,-1233.5 371,-1263.5 505,-1263.5 505,-1233.5 371,-1233.5"/>
<text text-anchor="start" x="379" y="-1251.5" font-family="Helvetica,sans-Serif" font-size="10.00">softwarecontainer::</text>
<text text-anchor="middle" x="438" y="-1240.5" font-family="Helvetica,sans-Serif" font-size="10.00">Netlink::checkKernelDump</text>
</a>
</g>
</g>
<!-- Node1&#45;&gt;Node5 -->
<g id="edge4" class="edge"><title>Node1&#45;&gt;Node5</title>
<path fill="none" stroke="midnightblue" d="M52.2876,-881.846C56.9891,-962.996 76.2085,-1213.93 136,-1262.5 212.743,-1324.84 340.233,-1287.5 401.709,-1263.69"/>
<polygon fill="midnightblue" stroke="midnightblue" points="55.7657,-881.353 51.7178,-871.562 48.7764,-881.74 55.7657,-881.353"/>
</g>
<!-- Node6 -->
<g id="node6" class="node"><title>Node6</title>
<g id="a_node6"><a xlink:href="classsoftwarecontainer_1_1_netlink.html#abaaa3af391069f8b624edd0c066eb958" target="_top" xlink:title="Bring the given interface up. ">
<polygon fill="white" stroke="black" points="571,-1265.5 571,-1295.5 671,-1295.5 671,-1265.5 571,-1265.5"/>
<text text-anchor="start" x="579" y="-1283.5" font-family="Helvetica,sans-Serif" font-size="10.00">softwarecontainer::</text>
<text text-anchor="middle" x="621" y="-1272.5" font-family="Helvetica,sans-Serif" font-size="10.00">Netlink::linkUp</text>
</a>
</g>
</g>
<!-- Node1&#45;&gt;Node6 -->
<g id="edge30" class="edge"><title>Node1&#45;&gt;Node6</title>
<path fill="none" stroke="midnightblue" d="M51.8813,-881.813C55.4258,-966.941 71.7205,-1240.52 136,-1293.5 201.027,-1347.1 461.084,-1308.77 570.787,-1289.63"/>
<polygon fill="midnightblue" stroke="midnightblue" points="55.3755,-881.594 51.4857,-871.739 48.3809,-881.869 55.3755,-881.594"/>
</g>
<!-- Node7 -->
<g id="node7" class="node"><title>Node7</title>
<g id="a_node7"><a xlink:href="classsoftwarecontainer_1_1_netlink.html#a07b353cd40aeffd94d9fb03d9cdd1119" target="_top" xlink:title="Check that the device given is a network bridge. ">
<polygon fill="white" stroke="black" points="571,-1200.5 571,-1230.5 671,-1230.5 671,-1200.5 571,-1200.5"/>
<text text-anchor="start" x="579" y="-1218.5" font-family="Helvetica,sans-Serif" font-size="10.00">softwarecontainer::</text>
<text text-anchor="middle" x="621" y="-1207.5" font-family="Helvetica,sans-Serif" font-size="10.00">Netlink::findLink</text>
</a>
</g>
</g>
<!-- Node1&#45;&gt;Node7 -->
<g id="edge19" class="edge"><title>Node1&#45;&gt;Node7</title>
<path fill="none" stroke="midnightblue" d="M51.0893,-881.938C52.7637,-934.673 64.6224,-1056.03 136,-1116.5 202.543,-1172.88 440.013,-1152 524,-1175.5 546.43,-1181.78 570.631,-1191.88 589.123,-1200.37"/>
<polygon fill="midnightblue" stroke="midnightblue" points="54.5849,-881.694 50.8688,-871.773 47.5866,-881.846 54.5849,-881.694"/>
</g>
<!-- Node8 -->
<g id="node8" class="node"><title>Node8</title>
<g id="a_node8"><a xlink:href="classsoftwarecontainer_1_1_netlink.html#aec31c67231b12f8a1702054e13029cbb" target="_top" xlink:title="Get all addresses associated with the given interface index. ">
<polygon fill="white" stroke="black" points="563,-1126.5 563,-1156.5 679,-1156.5 679,-1126.5 563,-1126.5"/>
<text text-anchor="start" x="571" y="-1144.5" font-family="Helvetica,sans-Serif" font-size="10.00">softwarecontainer::</text>
<text text-anchor="middle" x="621" y="-1133.5" font-family="Helvetica,sans-Serif" font-size="10.00">Netlink::findAddresses</text>
</a>
</g>
</g>
<!-- Node1&#45;&gt;Node8 -->
<g id="edge18" class="edge"><title>Node1&#45;&gt;Node8</title>
<path fill="none" stroke="midnightblue" d="M52.1381,-881.895C55.7968,-930.351 71.2004,-1035.69 136,-1086.5 169.025,-1112.4 441.831,-1131.2 562.715,-1138.34"/>
<polygon fill="midnightblue" stroke="midnightblue" points="55.6145,-881.414 51.4791,-871.66 48.6289,-881.864 55.6145,-881.414"/>
</g>
<!-- Node9 -->
<g id="node9" class="node"><title>Node9</title>
<g id="a_node9"><a xlink:href="classsoftwarecontainer_1_1_workspace.html#af9be59382096de97cfab692bc5c89114" target="_top" xlink:title="Check if the workspace is present and create it if needed. ">
<polygon fill="white" stroke="black" points="364,-1020.5 364,-1050.5 512,-1050.5 512,-1020.5 364,-1020.5"/>
<text text-anchor="start" x="372" y="-1038.5" font-family="Helvetica,sans-Serif" font-size="10.00">softwarecontainer::</text>
<text text-anchor="middle" x="438" y="-1027.5" font-family="Helvetica,sans-Serif" font-size="10.00">Workspace::checkWorkspace</text>
</a>
</g>
</g>
<!-- Node1&#45;&gt;Node9 -->
<g id="edge8" class="edge"><title>Node1&#45;&gt;Node9</title>
<path fill="none" stroke="midnightblue" d="M56.9187,-881.592C66.7276,-917.024 90.0046,-980.715 136,-1010.5 203.672,-1054.32 298.63,-1054.52 363.689,-1047.69"/>
<polygon fill="midnightblue" stroke="midnightblue" points="60.2142,-880.36 54.2966,-871.572 53.4422,-882.132 60.2142,-880.36"/>
</g>
<!-- Node10 -->
<g id="node10" class="node"><title>Node10</title>
<g id="a_node10"><a xlink:href="classsoftwarecontainer_1_1_workspace.html#a4cca8749e6f3bd90452511ede207f5e5" target="_top" xlink:title="Creates a workspace. ">
<polygon fill="white" stroke="black" points="560,-1042.5 560,-1072.5 682,-1072.5 682,-1042.5 560,-1042.5"/>
<text text-anchor="start" x="568" y="-1060.5" font-family="Helvetica,sans-Serif" font-size="10.00">softwarecontainer::</text>
<text text-anchor="middle" x="621" y="-1049.5" font-family="Helvetica,sans-Serif" font-size="10.00">Workspace::Workspace</text>
</a>
</g>
</g>
<!-- Node1&#45;&gt;Node10 -->
<g id="edge49" class="edge"><title>Node1&#45;&gt;Node10</title>
<path fill="none" stroke="midnightblue" d="M54.2089,-881.61C61.0068,-923.319 81.0396,-1006.08 136,-1044.5 268.796,-1137.32 476.001,-1097.74 570.283,-1072.51"/>
<polygon fill="midnightblue" stroke="midnightblue" points="57.6681,-881.077 52.7203,-871.708 50.7459,-882.117 57.6681,-881.077"/>
</g>
<!-- Node11 -->
<g id="node11" class="node"><title>Node11</title>
<g id="a_node11"><a xlink:href="classsoftwarecontainer_1_1_software_container_agent.html#aa5f19daf29d5fda482e657ac6e8fca5c" target="_top" xlink:title="Create a new container. ">
<polygon fill="white" stroke="black" points="164.5,-836 164.5,-877 287.5,-877 287.5,-836 164.5,-836"/>
<text text-anchor="start" x="172.5" y="-865" font-family="Helvetica,sans-Serif" font-size="10.00">softwarecontainer::</text>
<text text-anchor="start" x="172.5" y="-854" font-family="Helvetica,sans-Serif" font-size="10.00">SoftwareContainerAgent</text>
<text text-anchor="middle" x="226" y="-843" font-family="Helvetica,sans-Serif" font-size="10.00">::createContainer</text>
</a>
</g>
</g>
<!-- Node1&#45;&gt;Node11 -->
<g id="edge10" class="edge"><title>Node1&#45;&gt;Node11</title>
<path fill="none" stroke="midnightblue" d="M110.425,-856.5C127.823,-856.5 146.861,-856.5 164.334,-856.5"/>
<polygon fill="midnightblue" stroke="midnightblue" points="110.396,-853 100.396,-856.5 110.396,-860 110.396,-853"/>
</g>
<!-- Node12 -->
<g id="node12" class="node"><title>Node12</title>
<g id="a_node12"><a xlink:href="classsoftwarecontainer_1_1_file_toolkit_with_undo.html#aff5073fb683649d6753baae354d202b9" target="_top" xlink:title="createDirectory Create a directory, and if successful append it to a list of dirs to be deleted in th...">
<polygon fill="white" stroke="black" points="173.5,-934 173.5,-975 278.5,-975 278.5,-934 173.5,-934"/>
<text text-anchor="start" x="181.5" y="-963" font-family="Helvetica,sans-Serif" font-size="10.00">softwarecontainer::</text>
<text text-anchor="start" x="181.5" y="-952" font-family="Helvetica,sans-Serif" font-size="10.00">FileToolkitWithUndo</text>
<text text-anchor="middle" x="226" y="-941" font-family="Helvetica,sans-Serif" font-size="10.00">::createDirectory</text>
</a>
</g>
</g>
<!-- Node1&#45;&gt;Node12 -->
<g id="edge11" class="edge"><title>Node1&#45;&gt;Node12</title>
<path fill="none" stroke="midnightblue" d="M76.5861,-878.251C92.8614,-891.362 114.796,-907.744 136,-919.5 147.617,-925.941 160.664,-931.774 173.114,-936.751"/>
<polygon fill="midnightblue" stroke="midnightblue" points="78.58,-875.36 68.6249,-871.734 74.1461,-880.777 78.58,-875.36"/>
</g>
<!-- Node13 -->
<g id="node13" class="node"><title>Node13</title>
<g id="a_node13"><a xlink:href="classsoftwarecontainer_1_1_file_toolkit_with_undo.html#ab46eccba563b861f100d9ce7fa9ca4d6" target="_top" xlink:title="overlayMount Mount a directory with an overlay on top of it. ">
<polygon fill="white" stroke="black" points="385.5,-950 385.5,-991 490.5,-991 490.5,-950 385.5,-950"/>
<text text-anchor="start" x="393.5" y="-979" font-family="Helvetica,sans-Serif" font-size="10.00">softwarecontainer::</text>
<text text-anchor="start" x="393.5" y="-968" font-family="Helvetica,sans-Serif" font-size="10.00">FileToolkitWithUndo</text>
<text text-anchor="middle" x="438" y="-957" font-family="Helvetica,sans-Serif" font-size="10.00">::overlayMount</text>
</a>
</g>
</g>
<!-- Node1&#45;&gt;Node13 -->
<g id="edge32" class="edge"><title>Node1&#45;&gt;Node13</title>
<path fill="none" stroke="midnightblue" d="M59.1061,-881.05C70.6982,-911.667 95.2376,-962.637 136,-984.5 214.718,-1026.72 322.336,-1006.39 385.282,-988.169"/>
<polygon fill="midnightblue" stroke="midnightblue" points="62.3533,-879.737 55.6665,-871.519 55.7689,-882.114 62.3533,-879.737"/>
</g>
<!-- Node15 -->
<g id="node15" class="node"><title>Node15</title>
<g id="a_node15"><a xlink:href="classsoftwarecontainer_1_1_container.html#a8461f293ef5db5ee5fbdeddd24f36214" target="_top" xlink:title="Setup the container for preloading. ">
<polygon fill="white" stroke="black" points="388,-895.5 388,-925.5 488,-925.5 488,-895.5 388,-895.5"/>
<text text-anchor="start" x="396" y="-913.5" font-family="Helvetica,sans-Serif" font-size="10.00">softwarecontainer::</text>
<text text-anchor="middle" x="438" y="-902.5" font-family="Helvetica,sans-Serif" font-size="10.00">Container::initialize</text>
</a>
</g>
</g>
<!-- Node1&#45;&gt;Node15 -->
<g id="edge23" class="edge"><title>Node1&#45;&gt;Node15</title>
<path fill="none" stroke="midnightblue" d="M96.9473,-875.162C109.432,-879.555 123.076,-883.753 136,-886.5 223.428,-905.082 327.916,-909.558 387.958,-910.475"/>
<polygon fill="midnightblue" stroke="midnightblue" points="97.8138,-871.752 87.2198,-871.62 95.4192,-878.33 97.8138,-871.752"/>
</g>
<!-- Node16 -->
<g id="node16" class="node"><title>Node16</title>
<g id="a_node16"><a xlink:href="classsoftwarecontainer_1_1_container.html#aaff4ed1ad7fbbe7e34b047fd9e80fdb7" target="_top" xlink:title="Executes a commandline. ">
<polygon fill="white" stroke="black" points="176,-787.5 176,-817.5 276,-817.5 276,-787.5 176,-787.5"/>
<text text-anchor="start" x="184" y="-805.5" font-family="Helvetica,sans-Serif" font-size="10.00">softwarecontainer::</text>
<text text-anchor="middle" x="226" y="-794.5" font-family="Helvetica,sans-Serif" font-size="10.00">Container::execute</text>
</a>
</g>
</g>
<!-- Node1&#45;&gt;Node16 -->
<g id="edge16" class="edge"><title>Node1&#45;&gt;Node16</title>
<path fill="none" stroke="midnightblue" d="M101.569,-837.944C112.848,-834.003 124.789,-829.985 136,-826.5 148.837,-822.51 162.832,-818.555 175.843,-815.04"/>
<polygon fill="midnightblue" stroke="midnightblue" points="100.126,-834.741 91.8622,-841.371 102.457,-841.342 100.126,-834.741"/>
</g>
<!-- Node17 -->
<g id="node17" class="node"><title>Node17</title>
<g id="a_node17"><a xlink:href="classsoftwarecontainer_1_1_software_container_agent.html#aef2eb474a1a8406815536cb7d10eefe6" target="_top" xlink:title="Launch the given command in a the given container. ">
<polygon fill="white" stroke="black" points="164.5,-728 164.5,-769 287.5,-769 287.5,-728 164.5,-728"/>
<text text-anchor="start" x="172.5" y="-757" font-family="Helvetica,sans-Serif" font-size="10.00">softwarecontainer::</text>
<text text-anchor="start" x="172.5" y="-746" font-family="Helvetica,sans-Serif" font-size="10.00">SoftwareContainerAgent</text>
<text text-anchor="middle" x="226" y="-735" font-family="Helvetica,sans-Serif" font-size="10.00">::execute</text>
</a>
</g>
</g>
<!-- Node1&#45;&gt;Node17 -->
<g id="edge17" class="edge"><title>Node1&#45;&gt;Node17</title>
<path fill="none" stroke="midnightblue" d="M70.754,-833.802C86.8228,-816.557 110.88,-793.347 136,-778.5 144.703,-773.356 154.411,-768.944 164.126,-765.212"/>
<polygon fill="midnightblue" stroke="midnightblue" points="68.1099,-831.508 63.9581,-841.255 73.2823,-836.224 68.1099,-831.508"/>
</g>
<!-- Node18 -->
<g id="node18" class="node"><title>Node18</title>
<g id="a_node18"><a xlink:href="classsoftwarecontainer_1_1_netlink.html#a1756adb8382b2ed3c1518567862139c1" target="_top" xlink:title="get a dump of all links, addresses and routes from the kernel. ">
<polygon fill="white" stroke="black" points="165.5,-1222.5 165.5,-1252.5 286.5,-1252.5 286.5,-1222.5 165.5,-1222.5"/>
<text text-anchor="start" x="173.5" y="-1240.5" font-family="Helvetica,sans-Serif" font-size="10.00">softwarecontainer::</text>
<text text-anchor="middle" x="226" y="-1229.5" font-family="Helvetica,sans-Serif" font-size="10.00">Netlink::getKernelDump</text>
</a>
</g>
</g>
<!-- Node1&#45;&gt;Node18 -->
<g id="edge20" class="edge"><title>Node1&#45;&gt;Node18</title>
<path fill="none" stroke="midnightblue" d="M53.9131,-881.509C62.7638,-953.454 91.4854,-1158.91 136,-1207.5 143.93,-1216.16 154.44,-1222.32 165.451,-1226.7"/>
<polygon fill="midnightblue" stroke="midnightblue" points="57.381,-881.032 52.7077,-871.524 50.4315,-881.871 57.381,-881.032"/>
</g>
<!-- Node19 -->
<g id="node19" class="node"><title>Node19</title>
<g id="a_node19"><a xlink:href="classsoftwarecontainer_1_1_netlink.html#a2a6160a9363a9660c82276342dcaf477" target="_top" xlink:title="Construct a new Netlink object. ">
<polygon fill="white" stroke="black" points="388,-1184.5 388,-1214.5 488,-1214.5 488,-1184.5 388,-1184.5"/>
<text text-anchor="start" x="396" y="-1202.5" font-family="Helvetica,sans-Serif" font-size="10.00">softwarecontainer::</text>
<text text-anchor="middle" x="438" y="-1191.5" font-family="Helvetica,sans-Serif" font-size="10.00">Netlink::Netlink</text>
</a>
</g>
</g>
<!-- Node1&#45;&gt;Node19 -->
<g id="edge31" class="edge"><title>Node1&#45;&gt;Node19</title>
<path fill="none" stroke="midnightblue" d="M54.2018,-881.93C63.2746,-949.647 91.422,-1131.76 136,-1169.5 172.876,-1200.72 312.24,-1202.56 387.715,-1201.12"/>
<polygon fill="midnightblue" stroke="midnightblue" points="57.6347,-881.189 52.8644,-871.728 50.6941,-882.099 57.6347,-881.189"/>
</g>
<!-- Node20 -->
<g id="node20" class="node"><title>Node20</title>
<g id="a_node20"><a xlink:href="namespacesoftwarecontainer.html#a7e308629b69d1bcc3bc5e8ceac9b5a2a" target="_top" xlink:title="isSuccess Check if ReturnCode indicates Success or not ">
<polygon fill="white" stroke="black" points="176,-1467.5 176,-1497.5 276,-1497.5 276,-1467.5 176,-1467.5"/>
<text text-anchor="start" x="184" y="-1485.5" font-family="Helvetica,sans-Serif" font-size="10.00">softwarecontainer::</text>
<text text-anchor="middle" x="226" y="-1474.5" font-family="Helvetica,sans-Serif" font-size="10.00">isSuccess</text>
</a>
</g>
</g>
<!-- Node1&#45;&gt;Node20 -->
<g id="edge24" class="edge"><title>Node1&#45;&gt;Node20</title>
<path fill="none" stroke="midnightblue" d="M50.9976,-881.676C51.5046,-984.455 58.6073,-1370.94 136,-1458.5 146.068,-1469.89 160.92,-1476.13 175.619,-1479.48"/>
<polygon fill="midnightblue" stroke="midnightblue" points="54.4974,-881.588 50.9653,-871.599 47.4974,-881.611 54.4974,-881.588"/>
</g>
<!-- Node24 -->
<g id="node24" class="node"><title>Node24</title>
<g id="a_node24"><a xlink:href="classsoftwarecontainer_1_1_netlink.html#ab6cfc59121b64f8cf5a89b706b77826b" target="_top" xlink:title="Bring a given interface down. ">
<polygon fill="white" stroke="black" points="176,-679.5 176,-709.5 276,-709.5 276,-679.5 176,-679.5"/>
<text text-anchor="start" x="184" y="-697.5" font-family="Helvetica,sans-Serif" font-size="10.00">softwarecontainer::</text>
<text text-anchor="middle" x="226" y="-686.5" font-family="Helvetica,sans-Serif" font-size="10.00">Netlink::linkDown</text>
</a>
</g>
</g>
<!-- Node1&#45;&gt;Node24 -->
<g id="edge29" class="edge"><title>Node1&#45;&gt;Node24</title>
<path fill="none" stroke="midnightblue" d="M59.624,-831.783C71.7682,-800.643 96.8956,-747.68 136,-718.5 147.543,-709.886 161.97,-704.363 175.827,-700.821"/>
<polygon fill="midnightblue" stroke="midnightblue" points="56.2363,-830.849 56.0018,-841.442 62.7905,-833.308 56.2363,-830.849"/>
</g>
<!-- Node25 -->
<g id="node25" class="node"><title>Node25</title>
<g id="a_node25"><a xlink:href="classsoftwarecontainer_1_1_network_gateway_parser.html#a3139a32ac1978488b7a7f9e8474ecea4" target="_top" xlink:title="Parses NetworkGateway configuration into IPTableEntry. ">
<polygon fill="white" stroke="black" points="136,-1408 136,-1449 316,-1449 316,-1408 136,-1408"/>
<text text-anchor="start" x="144" y="-1437" font-family="Helvetica,sans-Serif" font-size="10.00">softwarecontainer::</text>
<text text-anchor="start" x="144" y="-1426" font-family="Helvetica,sans-Serif" font-size="10.00">NetworkGatewayParser</text>
<text text-anchor="middle" x="226" y="-1415" font-family="Helvetica,sans-Serif" font-size="10.00">::parseNetworkGatewayConfiguration</text>
</a>
</g>
</g>
<!-- Node1&#45;&gt;Node25 -->
<g id="edge33" class="edge"><title>Node1&#45;&gt;Node25</title>
<path fill="none" stroke="midnightblue" d="M51.5879,-881.78C54.3171,-977.821 68.6643,-1318.66 136,-1398.5 138.943,-1401.99 142.308,-1405.08 145.965,-1407.8"/>
<polygon fill="midnightblue" stroke="midnightblue" points="55.0807,-881.458 51.3158,-871.554 48.0832,-881.644 55.0807,-881.458"/>
</g>
<!-- Node26 -->
<g id="node26" class="node"><title>Node26</title>
<g id="a_node26"><a xlink:href="classsoftwarecontainer_1_1_software_container.html#a99978224d29f4d27d1801d02f44bfde6" target="_top" xlink:title="Preload the container. ">
<polygon fill="white" stroke="black" points="158.5,-630.5 158.5,-660.5 293.5,-660.5 293.5,-630.5 158.5,-630.5"/>
<text text-anchor="start" x="166.5" y="-648.5" font-family="Helvetica,sans-Serif" font-size="10.00">softwarecontainer::</text>
<text text-anchor="middle" x="226" y="-637.5" font-family="Helvetica,sans-Serif" font-size="10.00">SoftwareContainer::preload</text>
</a>
</g>
</g>
<!-- Node1&#45;&gt;Node26 -->
<g id="edge35" class="edge"><title>Node1&#45;&gt;Node26</title>
<path fill="none" stroke="midnightblue" d="M55.469,-831.394C63.9249,-791.358 86.094,-713.222 136,-670.5 142.462,-664.968 150.063,-660.656 158.054,-657.294"/>
<polygon fill="midnightblue" stroke="midnightblue" points="51.9992,-830.898 53.4782,-841.389 58.8643,-832.265 51.9992,-830.898"/>
</g>
<!-- Node27 -->
<g id="node27" class="node"><title>Node27</title>
<g id="a_node27"><a xlink:href="classsoftwarecontainer_1_1_environment_gateway.html#ad58a972633ebc7fed2d8d455900e7ed4" target="_top" xlink:title="Gateway specific parsing of config elements. ">
<polygon fill="white" stroke="black" points="168,-571 168,-612 284,-612 284,-571 168,-571"/>
<text text-anchor="start" x="176" y="-600" font-family="Helvetica,sans-Serif" font-size="10.00">softwarecontainer::</text>
<text text-anchor="start" x="176" y="-589" font-family="Helvetica,sans-Serif" font-size="10.00">EnvironmentGateway::</text>
<text text-anchor="middle" x="226" y="-578" font-family="Helvetica,sans-Serif" font-size="10.00">readConfigElement</text>
</a>
</g>
</g>
<!-- Node1&#45;&gt;Node27 -->
<g id="edge36" class="edge"><title>Node1&#45;&gt;Node27</title>
<path fill="none" stroke="midnightblue" d="M53.0374,-831.424C58.2342,-783.855 76.1549,-680.046 136,-621.5 144.742,-612.948 156,-606.832 167.551,-602.459"/>
<polygon fill="midnightblue" stroke="midnightblue" points="49.5453,-831.172 52.0408,-841.469 56.5111,-831.863 49.5453,-831.172"/>
</g>
<!-- Node28 -->
<g id="node28" class="node"><title>Node28</title>
<g id="a_node28"><a xlink:href="classsoftwarecontainer_1_1_cgroups_gateway.html#a2333bb26b5768b956410183490483e95" target="_top" xlink:title="Gateway specific parsing of config elements. ">
<polygon fill="white" stroke="black" points="153,-511 153,-552 299,-552 299,-511 153,-511"/>
<text text-anchor="start" x="161" y="-540" font-family="Helvetica,sans-Serif" font-size="10.00">softwarecontainer::</text>
<text text-anchor="start" x="161" y="-529" font-family="Helvetica,sans-Serif" font-size="10.00">CgroupsGateway::readConfig</text>
<text text-anchor="middle" x="226" y="-518" font-family="Helvetica,sans-Serif" font-size="10.00">Element</text>
</a>
</g>
</g>
<!-- Node1&#45;&gt;Node28 -->
<g id="edge37" class="edge"><title>Node1&#45;&gt;Node28</title>
<path fill="none" stroke="midnightblue" d="M50.8509,-831.123C51.9191,-774.83 62.4378,-638.417 136,-561.5 140.846,-556.433 146.575,-552.222 152.754,-548.722"/>
<polygon fill="midnightblue" stroke="midnightblue" points="47.3497,-831.236 50.7474,-841.271 54.3493,-831.308 47.3497,-831.236"/>
</g>
<!-- Node29 -->
<g id="node29" class="node"><title>Node29</title>
<g id="a_node29"><a xlink:href="classsoftwarecontainer_1_1_file_gateway.html#af9355afbe0fa41df8309a55d08eda7f2" target="_top" xlink:title="Gateway specific parsing of config elements. ">
<polygon fill="white" stroke="black" points="145.5,-462.5 145.5,-492.5 306.5,-492.5 306.5,-462.5 145.5,-462.5"/>
<text text-anchor="start" x="153.5" y="-480.5" font-family="Helvetica,sans-Serif" font-size="10.00">softwarecontainer::</text>
<text text-anchor="middle" x="226" y="-469.5" font-family="Helvetica,sans-Serif" font-size="10.00">FileGateway::readConfigElement</text>
</a>
</g>
</g>
<!-- Node1&#45;&gt;Node29 -->
<g id="edge38" class="edge"><title>Node1&#45;&gt;Node29</title>
<path fill="none" stroke="midnightblue" d="M53.7296,-831.073C62.0798,-757.947 89.5736,-549.263 136,-501.5 139.346,-498.057 143.131,-495.092 147.204,-492.539"/>
<polygon fill="midnightblue" stroke="midnightblue" points="50.2276,-830.896 52.595,-841.223 57.1843,-831.674 50.2276,-830.896"/>
</g>
<!-- Node30 -->
<g id="node30" class="node"><title>Node30</title>
<g id="a_node30"><a xlink:href="classsoftwarecontainer_1_1_d_bus_gateway_instance.html#a4cf958746ad9911ebb99b9eeb8392060" target="_top" xlink:title="Gateway specific parsing of config elements. ">
<polygon fill="white" stroke="black" points="167,-403 167,-444 285,-444 285,-403 167,-403"/>
<text text-anchor="start" x="175" y="-432" font-family="Helvetica,sans-Serif" font-size="10.00">softwarecontainer::</text>
<text text-anchor="start" x="175" y="-421" font-family="Helvetica,sans-Serif" font-size="10.00">DBusGatewayInstance</text>
<text text-anchor="middle" x="226" y="-410" font-family="Helvetica,sans-Serif" font-size="10.00">::readConfigElement</text>
</a>
</g>
</g>
<!-- Node1&#45;&gt;Node30 -->
<g id="edge39" class="edge"><title>Node1&#45;&gt;Node30</title>
<path fill="none" stroke="midnightblue" d="M53.1077,-831.007C60.1621,-751.566 85.4037,-510.406 136,-453.5 144.126,-444.361 155.129,-438.002 166.627,-433.578"/>
<polygon fill="midnightblue" stroke="midnightblue" points="49.609,-830.842 52.2323,-841.107 56.5828,-831.447 49.609,-830.842"/>
</g>
<!-- Node31 -->
<g id="node31" class="node"><title>Node31</title>
<g id="a_node31"><a xlink:href="classsoftwarecontainer_1_1_device_node_gateway.html#a0734b6ab0ccd33f80c3139962a55f114" target="_top" xlink:title="Gateway specific parsing of config elements. ">
<polygon fill="white" stroke="black" points="144.5,-343 144.5,-384 307.5,-384 307.5,-343 144.5,-343"/>
<text text-anchor="start" x="152.5" y="-372" font-family="Helvetica,sans-Serif" font-size="10.00">softwarecontainer::</text>
<text text-anchor="start" x="152.5" y="-361" font-family="Helvetica,sans-Serif" font-size="10.00">DeviceNodeGateway::readConfig</text>
<text text-anchor="middle" x="226" y="-350" font-family="Helvetica,sans-Serif" font-size="10.00">Element</text>
</a>
</g>
</g>
<!-- Node1&#45;&gt;Node31 -->
<g id="edge40" class="edge"><title>Node1&#45;&gt;Node31</title>
<path fill="none" stroke="midnightblue" d="M52.3278,-831.311C57.3843,-744.628 78.1578,-460.304 136,-393.5 138.989,-390.048 142.388,-386.993 146.073,-384.288"/>
<polygon fill="midnightblue" stroke="midnightblue" points="48.8323,-831.135 51.7636,-841.316 55.8212,-831.529 48.8323,-831.135"/>
</g>
<!-- Node32 -->
<g id="node32" class="node"><title>Node32</title>
<g id="a_node32"><a xlink:href="classsoftwarecontainer_1_1_d_bus_gateway.html#a2dafa9d879e1a694e30b17a067a9c504" target="_top" xlink:title="Sets config for both dbus session instances. ">
<polygon fill="white" stroke="black" points="374,-272.5 374,-302.5 502,-302.5 502,-272.5 374,-272.5"/>
<text text-anchor="start" x="382" y="-290.5" font-family="Helvetica,sans-Serif" font-size="10.00">softwarecontainer::</text>
<text text-anchor="middle" x="438" y="-279.5" font-family="Helvetica,sans-Serif" font-size="10.00">DBusGateway::setConfig</text>
</a>
</g>
</g>
<!-- Node1&#45;&gt;Node32 -->
<g id="edge41" class="edge"><title>Node1&#45;&gt;Node32</title>
<path fill="none" stroke="midnightblue" d="M50.6251,-831.078C49.7241,-729.888 52.2263,-357.726 136,-285.5 209.122,-222.457 333.47,-251.449 397.023,-272.471"/>
<polygon fill="midnightblue" stroke="midnightblue" points="47.1275,-831.324 50.7367,-841.286 54.1271,-831.248 47.1275,-831.324"/>
</g>
<!-- Node33 -->
<g id="node33" class="node"><title>Node33</title>
<g id="a_node33"><a xlink:href="classsoftwarecontainer_1_1_gateway.html#a889e0f0ec4060e203972eefe9221f81a" target="_top" xlink:title="Configure this gateway according to the supplied JSON configuration string. ">
<polygon fill="white" stroke="black" points="174,-294.5 174,-324.5 278,-324.5 278,-294.5 174,-294.5"/>
<text text-anchor="start" x="182" y="-312.5" font-family="Helvetica,sans-Serif" font-size="10.00">softwarecontainer::</text>
<text text-anchor="middle" x="226" y="-301.5" font-family="Helvetica,sans-Serif" font-size="10.00">Gateway::setConfig</text>
</a>
</g>
</g>
<!-- Node1&#45;&gt;Node33 -->
<g id="edge42" class="edge"><title>Node1&#45;&gt;Node33</title>
<path fill="none" stroke="midnightblue" d="M51.59,-831.357C54.3067,-737.365 68.5587,-408.218 136,-333.5 145.758,-322.689 159.824,-316.532 173.903,-313.085"/>
<polygon fill="midnightblue" stroke="midnightblue" points="48.0906,-831.294 51.319,-841.385 55.088,-831.484 48.0906,-831.294"/>
</g>
<!-- Node34 -->
<g id="node34" class="node"><title>Node34</title>
<g id="a_node34"><a xlink:href="classsoftwarecontainer_1_1_netlink.html#a53e313aa155f065c1d1ef6a4e20ccede" target="_top" xlink:title="Sets an IP address for a network link. ">
<polygon fill="white" stroke="black" points="176,-206.5 176,-236.5 276,-236.5 276,-206.5 176,-206.5"/>
<text text-anchor="start" x="184" y="-224.5" font-family="Helvetica,sans-Serif" font-size="10.00">softwarecontainer::</text>
<text text-anchor="middle" x="226" y="-213.5" font-family="Helvetica,sans-Serif" font-size="10.00">Netlink::setIP</text>
</a>
</g>
</g>
<!-- Node1&#45;&gt;Node34 -->
<g id="edge44" class="edge"><title>Node1&#45;&gt;Node34</title>
<path fill="none" stroke="midnightblue" d="M51.1291,-831.328C52.154,-728.548 61.0121,-341.872 136,-251.5 145.996,-239.454 161.01,-232.223 175.874,-227.891"/>
<polygon fill="midnightblue" stroke="midnightblue" points="47.6287,-831.376 51.0454,-841.405 54.6284,-831.434 47.6287,-831.376"/>
</g>
<!-- Node35 -->
<g id="node35" class="node"><title>Node35</title>
<g id="a_node35"><a xlink:href="classsoftwarecontainer_1_1_software_container_agent.html#a24b59cd9982d4e2e51f999bedea60957" target="_top" xlink:title="shuts down a container ">
<polygon fill="white" stroke="black" points="164.5,-147 164.5,-188 287.5,-188 287.5,-147 164.5,-147"/>
<text text-anchor="start" x="172.5" y="-176" font-family="Helvetica,sans-Serif" font-size="10.00">softwarecontainer::</text>
<text text-anchor="start" x="172.5" y="-165" font-family="Helvetica,sans-Serif" font-size="10.00">SoftwareContainerAgent</text>
<text text-anchor="middle" x="226" y="-154" font-family="Helvetica,sans-Serif" font-size="10.00">::shutdownContainer</text>
</a>
</g>
</g>
<!-- Node1&#45;&gt;Node35 -->
<g id="edge45" class="edge"><title>Node1&#45;&gt;Node35</title>
<path fill="none" stroke="midnightblue" d="M50.806,-831.206C50.4765,-722.605 54.4826,-296.879 136,-197.5 143.342,-188.549 153.458,-182.256 164.243,-177.834"/>
<polygon fill="midnightblue" stroke="midnightblue" points="47.3061,-831.263 50.8523,-841.246 54.306,-831.23 47.3061,-831.263"/>
</g>
<!-- Node36 -->
<g id="node36" class="node"><title>Node36</title>
<g id="a_node36"><a xlink:href="classsoftwarecontainer_1_1_container.html#a33340235226849d1f178e2f1d7efabe2" target="_top" xlink:title="Start the container. ">
<polygon fill="white" stroke="black" points="176,-98.5 176,-128.5 276,-128.5 276,-98.5 176,-98.5"/>
<text text-anchor="start" x="184" y="-116.5" font-family="Helvetica,sans-Serif" font-size="10.00">softwarecontainer::</text>
<text text-anchor="middle" x="226" y="-105.5" font-family="Helvetica,sans-Serif" font-size="10.00">Container::start</text>
</a>
</g>
</g>
<!-- Node1&#45;&gt;Node36 -->
<g id="edge46" class="edge"><title>Node1&#45;&gt;Node36</title>
<path fill="none" stroke="midnightblue" d="M52.3202,-831.32C58.8875,-710.207 89.5826,-191.227 136,-137.5 146.044,-125.875 161.07,-119.593 175.93,-116.283"/>
<polygon fill="midnightblue" stroke="midnightblue" points="48.8163,-831.3 51.7759,-841.473 55.8063,-831.675 48.8163,-831.3"/>
</g>
<!-- Node37 -->
<g id="node37" class="node"><title>Node37</title>
<g id="a_node37"><a xlink:href="classsoftwarecontainer_1_1_software_container.html#ac20c6d0cd340297ed80ae5684d9d64d3" target="_top" xlink:title="Starts the Gateways by setting the gateway configurations and activating the configured gateway...">
<polygon fill="white" stroke="black" points="142.5,-49.5 142.5,-79.5 309.5,-79.5 309.5,-49.5 142.5,-49.5"/>
<text text-anchor="start" x="150.5" y="-67.5" font-family="Helvetica,sans-Serif" font-size="10.00">softwarecontainer::</text>
<text text-anchor="middle" x="226" y="-56.5" font-family="Helvetica,sans-Serif" font-size="10.00">SoftwareContainer::startGateways</text>
</a>
</g>
</g>
<!-- Node1&#45;&gt;Node37 -->
<g id="edge47" class="edge"><title>Node1&#45;&gt;Node37</title>
<path fill="none" stroke="midnightblue" d="M52.139,-831.271C58.0466,-705.221 86.8282,-147.447 136,-89.5 139.219,-85.7064 142.964,-82.465 147.059,-79.6977"/>
<polygon fill="midnightblue" stroke="midnightblue" points="48.6328,-831.327 51.6667,-841.478 55.6253,-831.651 48.6328,-831.327"/>
</g>
<!-- Node38 -->
<g id="node38" class="node"><title>Node38</title>
<g id="a_node38"><a xlink:href="classsoftwarecontainer_1_1_d_bus_gateway.html#a003afe7ddc034ad69f0b6ecc7abe2fdc" target="_top" xlink:title="Restore system to the state prior to launching of gateway. ">
<polygon fill="white" stroke="black" points="163,-0.5 163,-30.5 289,-30.5 289,-0.5 163,-0.5"/>
<text text-anchor="start" x="171" y="-18.5" font-family="Helvetica,sans-Serif" font-size="10.00">softwarecontainer::</text>
<text text-anchor="middle" x="226" y="-7.5" font-family="Helvetica,sans-Serif" font-size="10.00">DBusGateway::teardown</text>
</a>
</g>
</g>
<!-- Node1&#45;&gt;Node38 -->
<g id="edge48" class="edge"><title>Node1&#45;&gt;Node38</title>
<path fill="none" stroke="midnightblue" d="M51.9766,-830.916C57.2203,-699.325 83.7629,-102.471 136,-40.5 143.034,-32.1554 152.611,-26.48 162.883,-22.6445"/>
<polygon fill="midnightblue" stroke="midnightblue" points="48.4675,-831.082 51.5723,-841.211 55.4621,-831.357 48.4675,-831.082"/>
</g>
<!-- Node5&#45;&gt;Node6 -->
<g id="edge5" class="edge"><title>Node5&#45;&gt;Node6</title>
<path fill="none" stroke="midnightblue" d="M515.158,-1261.96C533.976,-1265.29 553.643,-1268.77 570.793,-1271.8"/>
<polygon fill="midnightblue" stroke="midnightblue" points="515.57,-1258.48 505.113,-1260.19 514.351,-1265.38 515.57,-1258.48"/>
</g>
<!-- Node5&#45;&gt;Node7 -->
<g id="edge6" class="edge"><title>Node5&#45;&gt;Node7</title>
<path fill="none" stroke="midnightblue" d="M515.158,-1234.61C533.976,-1231.18 553.643,-1227.6 570.793,-1224.47"/>
<polygon fill="midnightblue" stroke="midnightblue" points="514.323,-1231.21 505.113,-1236.45 515.579,-1238.1 514.323,-1231.21"/>
</g>
<!-- Node5&#45;&gt;Node8 -->
<g id="edge7" class="edge"><title>Node5&#45;&gt;Node8</title>
<path fill="none" stroke="midnightblue" d="M513.79,-1229.59C517.304,-1228.02 520.727,-1226.32 524,-1224.5 542.958,-1213.93 543.658,-1205.78 560,-1191.5 573.68,-1179.54 589.478,-1166.4 601.428,-1156.6"/>
<polygon fill="midnightblue" stroke="midnightblue" points="512.239,-1226.45 504.316,-1233.48 514.896,-1232.92 512.239,-1226.45"/>
</g>
<!-- Node9&#45;&gt;Node10 -->
<g id="edge9" class="edge"><title>Node9&#45;&gt;Node10</title>
<path fill="none" stroke="midnightblue" d="M522.236,-1045.62C534.953,-1047.16 547.863,-1048.73 559.952,-1050.2"/>
<polygon fill="midnightblue" stroke="midnightblue" points="522.447,-1042.12 512.098,-1044.38 521.603,-1049.07 522.447,-1042.12"/>
</g>
<!-- Node12&#45;&gt;Node9 -->
<g id="edge15" class="edge"><title>Node12&#45;&gt;Node9</title>
<path fill="none" stroke="midnightblue" d="M288.407,-978.186C323.852,-991.857 367.356,-1008.64 398.108,-1020.5"/>
<polygon fill="midnightblue" stroke="midnightblue" points="289.23,-974.752 278.641,-974.419 286.711,-981.283 289.23,-974.752"/>
</g>
<!-- Node12&#45;&gt;Node13 -->
<g id="edge12" class="edge"><title>Node12&#45;&gt;Node13</title>
<path fill="none" stroke="midnightblue" d="M288.787,-959.208C319.436,-961.543 356.034,-964.331 385.195,-966.553"/>
<polygon fill="midnightblue" stroke="midnightblue" points="288.878,-955.704 278.641,-958.435 288.346,-962.684 288.878,-955.704"/>
</g>
<!-- Node12&#45;&gt;Node15 -->
<g id="edge14" class="edge"><title>Node12&#45;&gt;Node15</title>
<path fill="none" stroke="midnightblue" d="M288.649,-941.583C320.22,-934.968 358.132,-927.025 387.728,-920.824"/>
<polygon fill="midnightblue" stroke="midnightblue" points="287.71,-938.204 278.641,-943.68 289.146,-945.055 287.71,-938.204"/>
</g>
<!-- Node14 -->
<g id="node14" class="node"><title>Node14</title>
<g id="a_node14"><a xlink:href="classsoftwarecontainer_1_1_container.html#a6c57689a4a21b8c9342c53c7e8743203" target="_top" xlink:title="create Creates a new lxc_container and creates it with all the initialization. ">
<polygon fill="white" stroke="black" points="571,-955.5 571,-985.5 671,-985.5 671,-955.5 571,-955.5"/>
<text text-anchor="start" x="579" y="-973.5" font-family="Helvetica,sans-Serif" font-size="10.00">softwarecontainer::</text>
<text text-anchor="middle" x="621" y="-962.5" font-family="Helvetica,sans-Serif" font-size="10.00">Container::create</text>
</a>
</g>
</g>
<!-- Node13&#45;&gt;Node14 -->
<g id="edge13" class="edge"><title>Node13&#45;&gt;Node14</title>
<path fill="none" stroke="midnightblue" d="M501.134,-970.5C523.941,-970.5 549.422,-970.5 570.925,-970.5"/>
<polygon fill="midnightblue" stroke="midnightblue" points="500.867,-967 490.867,-970.5 500.867,-974 500.867,-967"/>
</g>
<!-- Node18&#45;&gt;Node5 -->
<g id="edge22" class="edge"><title>Node18&#45;&gt;Node5</title>
<path fill="none" stroke="midnightblue" d="M296.687,-1241.15C320.622,-1242.4 347.328,-1243.8 370.964,-1245.04"/>
<polygon fill="midnightblue" stroke="midnightblue" points="296.785,-1237.65 286.616,-1240.62 296.419,-1244.64 296.785,-1237.65"/>
</g>
<!-- Node18&#45;&gt;Node19 -->
<g id="edge21" class="edge"><title>Node18&#45;&gt;Node19</title>
<path fill="none" stroke="midnightblue" d="M296.569,-1224.91C326.457,-1219.5 360.683,-1213.31 387.864,-1208.39"/>
<polygon fill="midnightblue" stroke="midnightblue" points="295.833,-1221.49 286.616,-1226.71 297.079,-1228.38 295.833,-1221.49"/>
</g>
<!-- Node20&#45;&gt;Node3 -->
<g id="edge27" class="edge"><title>Node20&#45;&gt;Node3</title>
<path fill="none" stroke="midnightblue" d="M285.638,-1499.29C295.997,-1503.09 306.498,-1507.5 316,-1512.5 333.7,-1521.81 334.073,-1530.63 352,-1539.5 358.872,-1542.9 366.302,-1545.89 373.811,-1548.49"/>
<polygon fill="midnightblue" stroke="midnightblue" points="286.793,-1495.99 276.198,-1495.98 284.475,-1502.59 286.793,-1495.99"/>
</g>
<!-- Node21 -->
<g id="node21" class="node"><title>Node21</title>
<g id="a_node21"><a xlink:href="classsoftwarecontainer_1_1_device_node_gateway.html#a9e912027cad4fff3ed4d9a9581f45227" target="_top" xlink:title="Implements Gateway::activateGateway. ">
<polygon fill="white" stroke="black" points="363,-1489 363,-1530 513,-1530 513,-1489 363,-1489"/>
<text text-anchor="start" x="371" y="-1518" font-family="Helvetica,sans-Serif" font-size="10.00">softwarecontainer::</text>
<text text-anchor="start" x="371" y="-1507" font-family="Helvetica,sans-Serif" font-size="10.00">DeviceNodeGateway::activate</text>
<text text-anchor="middle" x="438" y="-1496" font-family="Helvetica,sans-Serif" font-size="10.00">Gateway</text>
</a>
</g>
</g>
<!-- Node20&#45;&gt;Node21 -->
<g id="edge25" class="edge"><title>Node20&#45;&gt;Node21</title>
<path fill="none" stroke="midnightblue" d="M286.197,-1490.11C310.045,-1493.18 337.813,-1496.75 362.975,-1499.98"/>
<polygon fill="midnightblue" stroke="midnightblue" points="286.6,-1486.63 276.236,-1488.83 285.708,-1493.58 286.6,-1486.63"/>
</g>
<!-- Node22 -->
<g id="node22" class="node"><title>Node22</title>
<g id="a_node22"><a xlink:href="classsoftwarecontainer_1_1_network_gateway.html#ad67674d2ce8d329188446e71c14e3a88" target="_top" xlink:title="Gateway specific parsing of config elements. ">
<polygon fill="white" stroke="black" points="365,-1381 365,-1422 511,-1422 511,-1381 365,-1381"/>
<text text-anchor="start" x="373" y="-1410" font-family="Helvetica,sans-Serif" font-size="10.00">softwarecontainer::</text>
<text text-anchor="start" x="373" y="-1399" font-family="Helvetica,sans-Serif" font-size="10.00">NetworkGateway::readConfig</text>
<text text-anchor="middle" x="438" y="-1388" font-family="Helvetica,sans-Serif" font-size="10.00">Element</text>
</a>
</g>
</g>
<!-- Node20&#45;&gt;Node22 -->
<g id="edge26" class="edge"><title>Node20&#45;&gt;Node22</title>
<path fill="none" stroke="midnightblue" d="M286.004,-1469.99C296.254,-1466.87 306.624,-1463.07 316,-1458.5 333.979,-1449.74 334.367,-1440.94 352,-1431.5 358.347,-1428.1 365.157,-1424.96 372.06,-1422.09"/>
<polygon fill="midnightblue" stroke="midnightblue" points="284.9,-1466.67 276.249,-1472.78 286.826,-1473.4 284.9,-1466.67"/>
</g>
<!-- Node23 -->
<g id="node23" class="node"><title>Node23</title>
<g id="a_node23"><a xlink:href="classsoftwarecontainer_1_1_pulse_gateway.html#a0cd0a00ca7590d7c9c3c961e20de56df" target="_top" xlink:title="Implements Gateway::activateGateway. ">
<polygon fill="white" stroke="black" points="358,-1440.5 358,-1470.5 518,-1470.5 518,-1440.5 358,-1440.5"/>
<text text-anchor="start" x="366" y="-1458.5" font-family="Helvetica,sans-Serif" font-size="10.00">softwarecontainer::</text>
<text text-anchor="middle" x="438" y="-1447.5" font-family="Helvetica,sans-Serif" font-size="10.00">PulseGateway::activateGateway</text>
</a>
</g>
</g>
<!-- Node20&#45;&gt;Node23 -->
<g id="edge28" class="edge"><title>Node20&#45;&gt;Node23</title>
<path fill="none" stroke="midnightblue" d="M286.173,-1474.89C308.363,-1472.04 333.95,-1468.75 357.673,-1465.7"/>
<polygon fill="midnightblue" stroke="midnightblue" points="285.708,-1471.42 276.236,-1476.17 286.6,-1478.37 285.708,-1471.42"/>
</g>
<!-- Node25&#45;&gt;Node22 -->
<g id="edge34" class="edge"><title>Node25&#45;&gt;Node22</title>
<path fill="none" stroke="midnightblue" d="M326.056,-1415.76C339.179,-1414.08 352.426,-1412.37 364.973,-1410.76"/>
<polygon fill="midnightblue" stroke="midnightblue" points="325.531,-1412.3 316.059,-1417.05 326.424,-1419.25 325.531,-1412.3"/>
</g>
<!-- Node33&#45;&gt;Node32 -->
<g id="edge43" class="edge"><title>Node33&#45;&gt;Node32</title>
<path fill="none" stroke="midnightblue" d="M288.148,-303.094C315.002,-300.281 346.521,-296.979 373.625,-294.139"/>
<polygon fill="midnightblue" stroke="midnightblue" points="287.684,-299.623 278.103,-304.146 288.414,-306.585 287.684,-299.623"/>
</g>
</g>
</svg>
