<?xml version="1.0" encoding="UTF-8" standalone="no"?>
<!DOCTYPE svg PUBLIC "-//W3C//DTD SVG 1.1//EN"
 "http://www.w3.org/Graphics/SVG/1.1/DTD/svg11.dtd">
<!-- Generated by graphviz version 2.38.0 (20140413.2041)
 -->
<!-- Title: softwarecontainer::isSuccess Pages: 1 -->
<svg width="463pt" height="94pt"
 viewBox="0.00 0.00 463.00 93.50" xmlns="http://www.w3.org/2000/svg" xmlns:xlink="http://www.w3.org/1999/xlink">
<g id="graph0" class="graph" transform="scale(1 1) rotate(0) translate(4 89.5)">
<title>softwarecontainer::isSuccess</title>
<polygon fill="white" stroke="none" points="-4,4 -4,-89.5 459,-89.5 459,4 -4,4"/>
<!-- Node1 -->
<g id="node1" class="node"><title>Node1</title>
<polygon fill="#bfbfbf" stroke="black" points="0,-30 0,-60 100,-60 100,-30 0,-30"/>
<text text-anchor="start" x="8" y="-48" font-family="Helvetica,sans-Serif" font-size="10.00">softwarecontainer::</text>
<text text-anchor="middle" x="50" y="-37" font-family="Helvetica,sans-Serif" font-size="10.00">isSuccess</text>
</g>
<!-- Node2 -->
<g id="node2" class="node"><title>Node2</title>
<g id="a_node2"><a xlink:href="classsoftwarecontainer_1_1_software_container.html#a7bf541dc506ae1293441a3f734a8cde4" target="_top" xlink:title="Should only be called on containers in state &#39;READY&#39;. ">
<polygon fill="white" stroke="black" points="144,-55 144,-85 293,-85 293,-55 144,-55"/>
<text text-anchor="start" x="152" y="-73" font-family="Helvetica,sans-Serif" font-size="10.00">softwarecontainer::</text>
<text text-anchor="middle" x="218.5" y="-62" font-family="Helvetica,sans-Serif" font-size="10.00">SoftwareContainer::bindMount</text>
</a>
</g>
</g>
<!-- Node1&#45;&gt;Node2 -->
<g id="edge1" class="edge"><title>Node1&#45;&gt;Node2</title>
<path fill="none" stroke="midnightblue" d="M110.258,-53.8976C121.119,-55.5283 132.575,-57.2485 143.797,-58.9334"/>
<polygon fill="midnightblue" stroke="midnightblue" points="110.464,-50.3893 100.055,-52.3656 109.424,-57.3117 110.464,-50.3893"/>
</g>
<!-- Node3 -->
<g id="node3" class="node"><title>Node3</title>
<g id="a_node3"><a xlink:href="classsoftwarecontainer_1_1_gateway.html#ab048dec9bf64f292e2a9c7f10c3e784b" target="_top" xlink:title="Set an environment variable in the associated container. ">
<polygon fill="white" stroke="black" points="136,-6 136,-36 301,-36 301,-6 136,-6"/>
<text text-anchor="start" x="144" y="-24" font-family="Helvetica,sans-Serif" font-size="10.00">softwarecontainer::</text>
<text text-anchor="middle" x="218.5" y="-13" font-family="Helvetica,sans-Serif" font-size="10.00">Gateway::setEnvironmentVariable</text>
</a>
</g>
</g>
<!-- Node1&#45;&gt;Node3 -->
<g id="edge2" class="edge"><title>Node1&#45;&gt;Node3</title>
<path fill="none" stroke="midnightblue" d="M110.014,-36.4935C118.343,-35.2929 127.027,-34.0411 135.69,-32.7924"/>
<polygon fill="midnightblue" stroke="midnightblue" points="109.453,-33.038 100.055,-37.929 110.452,-39.9664 109.453,-33.038"/>
</g>
<!-- Node4 -->
<g id="node4" class="node"><title>Node4</title>
<g id="a_node4"><a xlink:href="classsoftwarecontainer_1_1_d_bus_gateway_instance.html#a8dc149286b57b259c95d53c130b9a129" target="_top" xlink:title="Implements Gateway::activateGateway. ">
<polygon fill="white" stroke="black" points="337,-0.5 337,-41.5 455,-41.5 455,-0.5 337,-0.5"/>
<text text-anchor="start" x="345" y="-29.5" font-family="Helvetica,sans-Serif" font-size="10.00">softwarecontainer::</text>
<text text-anchor="start" x="345" y="-18.5" font-family="Helvetica,sans-Serif" font-size="10.00">DBusGatewayInstance</text>
<text text-anchor="middle" x="396" y="-7.5" font-family="Helvetica,sans-Serif" font-size="10.00">::activateGateway</text>
</a>
</g>
</g>
<!-- Node3&#45;&gt;Node4 -->
<g id="edge3" class="edge"><title>Node3&#45;&gt;Node4</title>
<path fill="none" stroke="midnightblue" d="M311.297,-21C319.994,-21 328.637,-21 336.885,-21"/>
<polygon fill="midnightblue" stroke="midnightblue" points="311.085,-17.5001 301.085,-21 311.085,-24.5001 311.085,-17.5001"/>
</g>
</g>
</svg>
