<?xml version="1.0" encoding="UTF-8" standalone="no"?>
<!DOCTYPE svg PUBLIC "-//W3C//DTD SVG 1.1//EN"
 "http://www.w3.org/Graphics/SVG/1.1/DTD/svg11.dtd">
<!-- Generated by graphviz version 2.38.0 (20140413.2041)
 -->
<!-- Title: softwarecontainer::isDirectoryEmpty Pages: 1 -->
<svg width="634pt" height="39pt"
 viewBox="0.00 0.00 634.00 39.00" xmlns="http://www.w3.org/2000/svg" xmlns:xlink="http://www.w3.org/1999/xlink">
<g id="graph0" class="graph" transform="scale(1 1) rotate(0) translate(4 35)">
<title>softwarecontainer::isDirectoryEmpty</title>
<polygon fill="white" stroke="none" points="-4,4 -4,-35 630,-35 630,4 -4,4"/>
<!-- Node1 -->
<g id="node1" class="node"><title>Node1</title>
<polygon fill="#bfbfbf" stroke="black" points="0,-0.5 0,-30.5 100,-30.5 100,-0.5 0,-0.5"/>
<text text-anchor="start" x="8" y="-18.5" font-family="Helvetica,sans-Serif" font-size="10.00">softwarecontainer::</text>
<text text-anchor="middle" x="50" y="-7.5" font-family="Helvetica,sans-Serif" font-size="10.00">isDirectoryEmpty</text>
</g>
<!-- Node2 -->
<g id="node2" class="node"><title>Node2</title>
<g id="a_node2"><a xlink:href="namespacesoftwarecontainer.html#aee26a680bb2961627889d39c9f874b2c" target="_top" xlink:title="waitForProcessTermination Waits for a process to terminate and then returns the status of the process...">
<polygon fill="white" stroke="black" points="136,-0.5 136,-30.5 272,-30.5 272,-0.5 136,-0.5"/>
<text text-anchor="start" x="144" y="-18.5" font-family="Helvetica,sans-Serif" font-size="10.00">softwarecontainer::</text>
<text text-anchor="middle" x="204" y="-7.5" font-family="Helvetica,sans-Serif" font-size="10.00">waitForProcessTermination</text>
</a>
</g>
</g>
<!-- Node1&#45;&gt;Node2 -->
<g id="edge1" class="edge"><title>Node1&#45;&gt;Node2</title>
<path fill="none" stroke="midnightblue" d="M110.396,-15.5C118.771,-15.5 127.429,-15.5 135.936,-15.5"/>
<polygon fill="midnightblue" stroke="midnightblue" points="110.35,-12.0001 100.35,-15.5 110.35,-19.0001 110.35,-12.0001"/>
</g>
<!-- Node3 -->
<g id="node3" class="node"><title>Node3</title>
<g id="a_node3"><a xlink:href="classsoftwarecontainer_1_1_container.html#a480d9a7d3a2c0ee9d1756a2bdfc29f59" target="_top" xlink:title="synchronous version of execute ">
<polygon fill="white" stroke="black" points="308,-0.5 308,-30.5 430,-30.5 430,-0.5 308,-0.5"/>
<text text-anchor="start" x="316" y="-18.5" font-family="Helvetica,sans-Serif" font-size="10.00">softwarecontainer::</text>
<text text-anchor="middle" x="369" y="-7.5" font-family="Helvetica,sans-Serif" font-size="10.00">Container::executeSync</text>
</a>
</g>
</g>
<!-- Node2&#45;&gt;Node3 -->
<g id="edge2" class="edge"><title>Node2&#45;&gt;Node3</title>
<path fill="none" stroke="midnightblue" d="M282.304,-15.5C290.921,-15.5 299.601,-15.5 307.958,-15.5"/>
<polygon fill="midnightblue" stroke="midnightblue" points="282.239,-12.0001 272.239,-15.5 282.239,-19.0001 282.239,-12.0001"/>
</g>
<!-- Node4 -->
<g id="node4" class="node"><title>Node4</title>
<g id="a_node4"><a xlink:href="classsoftwarecontainer_1_1_container.html#ae5445d6a0c4b8b006ed38b3c01bb870c" target="_top" xlink:title="Tries to bind mount a path from host to container. ">
<polygon fill="white" stroke="black" points="466,-0.5 466,-30.5 626,-30.5 626,-0.5 466,-0.5"/>
<text text-anchor="start" x="474" y="-18.5" font-family="Helvetica,sans-Serif" font-size="10.00">softwarecontainer::</text>
<text text-anchor="middle" x="546" y="-7.5" font-family="Helvetica,sans-Serif" font-size="10.00">Container::bindMountInContainer</text>
</a>
</g>
</g>
<!-- Node3&#45;&gt;Node4 -->
<g id="edge3" class="edge"><title>Node3&#45;&gt;Node4</title>
<path fill="none" stroke="midnightblue" d="M440.323,-15.5C448.709,-15.5 457.313,-15.5 465.812,-15.5"/>
<polygon fill="midnightblue" stroke="midnightblue" points="440.225,-12.0001 430.225,-15.5 440.225,-19.0001 440.225,-12.0001"/>
</g>
</g>
</svg>
