<?xml version="1.0" encoding="UTF-8" standalone="no"?>
<!DOCTYPE svg PUBLIC "-//W3C//DTD SVG 1.1//EN"
 "http://www.w3.org/Graphics/SVG/1.1/DTD/svg11.dtd">
<!-- Generated by graphviz version 2.38.0 (20140413.2041)
 -->
<!-- Title: softwarecontainer::isDirectory Pages: 1 -->
<svg width="646pt" height="306pt"
 viewBox="0.00 0.00 646.00 305.50" xmlns="http://www.w3.org/2000/svg" xmlns:xlink="http://www.w3.org/1999/xlink">
<g id="graph0" class="graph" transform="scale(1 1) rotate(0) translate(4 301.5)">
<title>softwarecontainer::isDirectory</title>
<polygon fill="white" stroke="none" points="-4,4 -4,-301.5 642,-301.5 642,4 -4,4"/>
<!-- Node1 -->
<g id="node1" class="node"><title>Node1</title>
<polygon fill="#bfbfbf" stroke="black" points="0,-141.5 0,-171.5 100,-171.5 100,-141.5 0,-141.5"/>
<text text-anchor="start" x="8" y="-159.5" font-family="Helvetica,sans-Serif" font-size="10.00">softwarecontainer::</text>
<text text-anchor="middle" x="50" y="-148.5" font-family="Helvetica,sans-Serif" font-size="10.00">isDirectory</text>
</g>
<!-- Node2 -->
<g id="node2" class="node"><title>Node2</title>
<g id="a_node2"><a xlink:href="classsoftwarecontainer_1_1_file_toolkit_with_undo.html#a97fda85bea6f756d0620927c920ce83b" target="_top" xlink:title="bindMount Bind mount a src directory to another position dst. ">
<polygon fill="white" stroke="black" points="328.5,-256 328.5,-297 433.5,-297 433.5,-256 328.5,-256"/>
<text text-anchor="start" x="336.5" y="-285" font-family="Helvetica,sans-Serif" font-size="10.00">softwarecontainer::</text>
<text text-anchor="start" x="336.5" y="-274" font-family="Helvetica,sans-Serif" font-size="10.00">FileToolkitWithUndo</text>
<text text-anchor="middle" x="381" y="-263" font-family="Helvetica,sans-Serif" font-size="10.00">::bindMount</text>
</a>
</g>
</g>
<!-- Node1&#45;&gt;Node2 -->
<g id="edge1" class="edge"><title>Node1&#45;&gt;Node2</title>
<path fill="none" stroke="midnightblue" d="M67.5077,-179.986C82.8416,-199.842 107.549,-227.264 136,-241.5 197.043,-272.043 276.738,-278.113 328.147,-278.35"/>
<polygon fill="midnightblue" stroke="midnightblue" points="70.1277,-177.646 61.3344,-171.736 64.5229,-181.839 70.1277,-177.646"/>
</g>
<!-- Node3 -->
<g id="node3" class="node"><title>Node3</title>
<g id="a_node3"><a xlink:href="classsoftwarecontainer_1_1_container.html#ae5445d6a0c4b8b006ed38b3c01bb870c" target="_top" xlink:title="Tries to bind mount a path from host to container. ">
<polygon fill="white" stroke="black" points="478,-212.5 478,-242.5 638,-242.5 638,-212.5 478,-212.5"/>
<text text-anchor="start" x="486" y="-230.5" font-family="Helvetica,sans-Serif" font-size="10.00">softwarecontainer::</text>
<text text-anchor="middle" x="558" y="-219.5" font-family="Helvetica,sans-Serif" font-size="10.00">Container::bindMountInContainer</text>
</a>
</g>
</g>
<!-- Node1&#45;&gt;Node3 -->
<g id="edge3" class="edge"><title>Node1&#45;&gt;Node3</title>
<path fill="none" stroke="midnightblue" d="M77.8424,-177.797C93.7738,-189.139 114.925,-202.048 136,-208.5 250.909,-243.676 391.672,-241.536 477.811,-235.483"/>
<polygon fill="midnightblue" stroke="midnightblue" points="79.6921,-174.813 69.5622,-171.709 75.5452,-180.453 79.6921,-174.813"/>
</g>
<!-- Node4 -->
<g id="node4" class="node"><title>Node4</title>
<g id="a_node4"><a xlink:href="classsoftwarecontainer_1_1_create_dir.html#a5450e7097f1e4e1b88c3b55ab0ccae49" target="_top" xlink:title="createDirectory creates a directory according to given path. ">
<polygon fill="white" stroke="black" points="144.5,-168.5 144.5,-198.5 275.5,-198.5 275.5,-168.5 144.5,-168.5"/>
<text text-anchor="start" x="152.5" y="-186.5" font-family="Helvetica,sans-Serif" font-size="10.00">softwarecontainer::</text>
<text text-anchor="middle" x="210" y="-175.5" font-family="Helvetica,sans-Serif" font-size="10.00">CreateDir::createDirectory</text>
</a>
</g>
</g>
<!-- Node1&#45;&gt;Node4 -->
<g id="edge4" class="edge"><title>Node1&#45;&gt;Node4</title>
<path fill="none" stroke="midnightblue" d="M110.214,-166.619C121.403,-168.531 133.157,-170.539 144.499,-172.478"/>
<polygon fill="midnightblue" stroke="midnightblue" points="110.573,-163.13 100.126,-164.895 109.394,-170.029 110.573,-163.13"/>
</g>
<!-- Node5 -->
<g id="node5" class="node"><title>Node5</title>
<g id="a_node5"><a xlink:href="classsoftwarecontainer_1_1_service_manifest_file_loader.html#a3e97e320f32a9767ca5a94426e5f520e" target="_top" xlink:title="Loads the json content from the Service Manifest(s) ">
<polygon fill="white" stroke="black" points="144,-109 144,-150 276,-150 276,-109 144,-109"/>
<text text-anchor="start" x="152" y="-138" font-family="Helvetica,sans-Serif" font-size="10.00">softwarecontainer::</text>
<text text-anchor="start" x="152" y="-127" font-family="Helvetica,sans-Serif" font-size="10.00">ServiceManifestFileLoader</text>
<text text-anchor="middle" x="210" y="-116" font-family="Helvetica,sans-Serif" font-size="10.00">::loadContent</text>
</a>
</g>
</g>
<!-- Node1&#45;&gt;Node5 -->
<g id="edge5" class="edge"><title>Node1&#45;&gt;Node5</title>
<path fill="none" stroke="midnightblue" d="M110.082,-146.404C121.121,-144.517 132.716,-142.536 143.925,-140.62"/>
<polygon fill="midnightblue" stroke="midnightblue" points="109.394,-142.971 100.126,-148.105 110.573,-149.87 109.394,-142.971"/>
</g>
<!-- Node6 -->
<g id="node6" class="node"><title>Node6</title>
<g id="a_node6"><a xlink:href="classsoftwarecontainer_1_1_software_container.html#aa699253aa7955f9d41c78324d5f49184" target="_top" xlink:title="Indicates if gateways have been configured previously. ">
<polygon fill="white" stroke="black" points="136,-49 136,-90 284,-90 284,-49 136,-49"/>
<text text-anchor="start" x="144" y="-78" font-family="Helvetica,sans-Serif" font-size="10.00">softwarecontainer::</text>
<text text-anchor="start" x="144" y="-67" font-family="Helvetica,sans-Serif" font-size="10.00">SoftwareContainer::previously</text>
<text text-anchor="middle" x="210" y="-56" font-family="Helvetica,sans-Serif" font-size="10.00">Configured</text>
</a>
</g>
</g>
<!-- Node1&#45;&gt;Node6 -->
<g id="edge6" class="edge"><title>Node1&#45;&gt;Node6</title>
<path fill="none" stroke="midnightblue" d="M79.3252,-135.411C95.4437,-123.953 116.294,-110.019 136,-99.5 142.165,-96.2093 148.77,-93.0391 155.397,-90.072"/>
<polygon fill="midnightblue" stroke="midnightblue" points="76.9626,-132.799 70.8947,-141.484 81.0543,-138.479 76.9626,-132.799"/>
</g>
<!-- Node7 -->
<g id="node7" class="node"><title>Node7</title>
<g id="a_node7"><a xlink:href="namespacesoftwarecontainer.html#aee26a680bb2961627889d39c9f874b2c" target="_top" xlink:title="waitForProcessTermination Waits for a process to terminate and then returns the status of the process...">
<polygon fill="white" stroke="black" points="142,-0.5 142,-30.5 278,-30.5 278,-0.5 142,-0.5"/>
<text text-anchor="start" x="150" y="-18.5" font-family="Helvetica,sans-Serif" font-size="10.00">softwarecontainer::</text>
<text text-anchor="middle" x="210" y="-7.5" font-family="Helvetica,sans-Serif" font-size="10.00">waitForProcessTermination</text>
</a>
</g>
</g>
<!-- Node1&#45;&gt;Node7 -->
<g id="edge7" class="edge"><title>Node1&#45;&gt;Node7</title>
<path fill="none" stroke="midnightblue" d="M62.7307,-132.226C76.6889,-105.788 102.395,-64.0058 136,-39.5 140.743,-36.0414 146.012,-33.0626 151.486,-30.5011"/>
<polygon fill="midnightblue" stroke="midnightblue" points="59.5717,-130.716 58.1268,-141.212 65.8017,-133.908 59.5717,-130.716"/>
</g>
<!-- Node2&#45;&gt;Node3 -->
<g id="edge2" class="edge"><title>Node2&#45;&gt;Node3</title>
<path fill="none" stroke="midnightblue" d="M443.297,-259.337C462.878,-253.854 484.388,-247.831 503.379,-242.514"/>
<polygon fill="midnightblue" stroke="midnightblue" points="442.245,-255.997 433.559,-262.063 444.133,-262.737 442.245,-255.997"/>
</g>
<!-- Node8 -->
<g id="node8" class="node"><title>Node8</title>
<g id="a_node8"><a xlink:href="classsoftwarecontainer_1_1_container.html#a480d9a7d3a2c0ee9d1756a2bdfc29f59" target="_top" xlink:title="synchronous version of execute ">
<polygon fill="white" stroke="black" points="320,-84.5 320,-114.5 442,-114.5 442,-84.5 320,-84.5"/>
<text text-anchor="start" x="328" y="-102.5" font-family="Helvetica,sans-Serif" font-size="10.00">softwarecontainer::</text>
<text text-anchor="middle" x="381" y="-91.5" font-family="Helvetica,sans-Serif" font-size="10.00">Container::executeSync</text>
</a>
</g>
</g>
<!-- Node7&#45;&gt;Node8 -->
<g id="edge8" class="edge"><title>Node7&#45;&gt;Node8</title>
<path fill="none" stroke="midnightblue" d="M271.96,-34.2992C276.078,-35.9488 280.127,-37.6854 284,-39.5 311.231,-52.2571 340.203,-71.1971 359.108,-84.3727"/>
<polygon fill="midnightblue" stroke="midnightblue" points="272.862,-30.8979 262.271,-30.6123 270.373,-37.4402 272.862,-30.8979"/>
</g>
<!-- Node8&#45;&gt;Node3 -->
<g id="edge9" class="edge"><title>Node8&#45;&gt;Node3</title>
<path fill="none" stroke="midnightblue" d="M411.22,-120.872C446.581,-146.737 505.232,-189.635 536.265,-212.334"/>
<polygon fill="midnightblue" stroke="midnightblue" points="412.9,-117.765 402.762,-114.686 408.767,-123.415 412.9,-117.765"/>
</g>
</g>
</svg>
