<?xml version="1.0" encoding="UTF-8" standalone="no"?>
<!DOCTYPE svg PUBLIC "-//W3C//DTD SVG 1.1//EN"
 "http://www.w3.org/Graphics/SVG/1.1/DTD/svg11.dtd">
<!-- Generated by graphviz version 2.38.0 (20140413.2041)
 -->
<!-- Title: softwarecontainer::isDirectory Pages: 1 -->
<svg width="959pt" height="284pt"
 viewBox="0.00 0.00 959.00 283.76" xmlns="http://www.w3.org/2000/svg" xmlns:xlink="http://www.w3.org/1999/xlink">
<g id="graph0" class="graph" transform="scale(1 1) rotate(0) translate(4 279.76)">
<title>softwarecontainer::isDirectory</title>
<polygon fill="white" stroke="none" points="-4,4 -4,-279.76 955,-279.76 955,4 -4,4"/>
<!-- Node1 -->
<g id="node1" class="node"><title>Node1</title>
<polygon fill="#bfbfbf" stroke="black" points="0,-95.5 0,-125.5 100,-125.5 100,-95.5 0,-95.5"/>
<text text-anchor="start" x="8" y="-113.5" font-family="Helvetica,sans-Serif" font-size="10.00">softwarecontainer::</text>
<text text-anchor="middle" x="50" y="-102.5" font-family="Helvetica,sans-Serif" font-size="10.00">isDirectory</text>
</g>
<!-- Node2 -->
<g id="node2" class="node"><title>Node2</title>
<g id="a_node2"><a xlink:href="classsoftwarecontainer_1_1_container.html#ae5445d6a0c4b8b006ed38b3c01bb870c" target="_top" xlink:title="Tries to bind mount a path from host to container. ">
<polygon fill="white" stroke="black" points="791,-124.5 791,-154.5 951,-154.5 951,-124.5 791,-124.5"/>
<text text-anchor="start" x="799" y="-142.5" font-family="Helvetica,sans-Serif" font-size="10.00">softwarecontainer::</text>
<text text-anchor="middle" x="871" y="-131.5" font-family="Helvetica,sans-Serif" font-size="10.00">Container::bindMountInContainer</text>
</a>
</g>
</g>
<!-- Node1&#45;&gt;Node2 -->
<g id="edge1" class="edge"><title>Node1&#45;&gt;Node2</title>
<path fill="none" stroke="midnightblue" d="M73.5863,-132.519C89.9042,-147.535 113.029,-167.059 136,-180.5 236.8,-239.481 264.212,-275.5 381,-275.5 381,-275.5 381,-275.5 554,-275.5 644.678,-275.5 673.214,-279.659 755,-240.5 798.619,-219.615 838.342,-177.377 857.662,-154.704"/>
<polygon fill="midnightblue" stroke="midnightblue" points="75.844,-129.838 66.153,-125.556 71.0586,-134.947 75.844,-129.838"/>
</g>
<!-- Node3 -->
<g id="node3" class="node"><title>Node3</title>
<g id="a_node3"><a xlink:href="classsoftwarecontainer_1_1_file_toolkit_with_undo.html#a35eb42bdace2695fb3e96cb84a535213" target="_top" xlink:title="createDirectory Create a directory, and if successful append it to a list of dirs to be deleted in th...">
<polygon fill="white" stroke="black" points="151.5,-130 151.5,-171 256.5,-171 256.5,-130 151.5,-130"/>
<text text-anchor="start" x="159.5" y="-159" font-family="Helvetica,sans-Serif" font-size="10.00">softwarecontainer::</text>
<text text-anchor="start" x="159.5" y="-148" font-family="Helvetica,sans-Serif" font-size="10.00">FileToolkitWithUndo</text>
<text text-anchor="middle" x="204" y="-137" font-family="Helvetica,sans-Serif" font-size="10.00">::createDirectory</text>
</a>
</g>
</g>
<!-- Node1&#45;&gt;Node3 -->
<g id="edge2" class="edge"><title>Node1&#45;&gt;Node3</title>
<path fill="none" stroke="midnightblue" d="M110.087,-126.049C123.679,-129.626 138.032,-133.403 151.285,-136.891"/>
<polygon fill="midnightblue" stroke="midnightblue" points="110.912,-122.647 100.35,-123.487 109.13,-129.417 110.912,-122.647"/>
</g>
<!-- Node10 -->
<g id="node10" class="node"><title>Node10</title>
<g id="a_node10"><a xlink:href="classsoftwarecontainer_1_1_software_container.html#aa699253aa7955f9d41c78324d5f49184" target="_top" xlink:title="Indicates if gateways have been configured previously. ">
<polygon fill="white" stroke="black" points="308,-22 308,-63 456,-63 456,-22 308,-22"/>
<text text-anchor="start" x="316" y="-51" font-family="Helvetica,sans-Serif" font-size="10.00">softwarecontainer::</text>
<text text-anchor="start" x="316" y="-40" font-family="Helvetica,sans-Serif" font-size="10.00">SoftwareContainer::previously</text>
<text text-anchor="middle" x="382" y="-29" font-family="Helvetica,sans-Serif" font-size="10.00">Configured</text>
</a>
</g>
</g>
<!-- Node1&#45;&gt;Node10 -->
<g id="edge15" class="edge"><title>Node1&#45;&gt;Node10</title>
<path fill="none" stroke="midnightblue" d="M110.051,-98.332C165.401,-86.9264 248.317,-69.8407 307.837,-57.5759"/>
<polygon fill="midnightblue" stroke="midnightblue" points="109.136,-94.9469 100.048,-100.393 110.549,-101.803 109.136,-94.9469"/>
</g>
<!-- Node11 -->
<g id="node11" class="node"><title>Node11</title>
<g id="a_node11"><a xlink:href="namespacesoftwarecontainer.html#aee26a680bb2961627889d39c9f874b2c" target="_top" xlink:title="waitForProcessTermination Waits for a process to terminate and then returns the status of the process...">
<polygon fill="white" stroke="black" points="136,-10.5 136,-40.5 272,-40.5 272,-10.5 136,-10.5"/>
<text text-anchor="start" x="144" y="-28.5" font-family="Helvetica,sans-Serif" font-size="10.00">softwarecontainer::</text>
<text text-anchor="middle" x="204" y="-17.5" font-family="Helvetica,sans-Serif" font-size="10.00">waitForProcessTermination</text>
</a>
</g>
</g>
<!-- Node1&#45;&gt;Node11 -->
<g id="edge16" class="edge"><title>Node1&#45;&gt;Node11</title>
<path fill="none" stroke="midnightblue" d="M82.503,-89.6824C98.3094,-79.5411 117.899,-67.4251 136,-57.5 146.738,-51.6122 158.733,-45.6875 169.573,-40.5641"/>
<polygon fill="midnightblue" stroke="midnightblue" points="80.1691,-87.0236 73.6735,-95.3937 83.971,-92.9012 80.1691,-87.0236"/>
</g>
<!-- Node3&#45;&gt;Node2 -->
<g id="edge13" class="edge"><title>Node3&#45;&gt;Node2</title>
<path fill="none" stroke="midnightblue" d="M248.534,-175.878C266.398,-185.149 287.635,-194.76 308,-200.5 499.286,-254.414 565.378,-272.003 755,-212.5 793.358,-200.464 831.484,-172.222 852.772,-154.605"/>
<polygon fill="midnightblue" stroke="midnightblue" points="249.995,-172.691 239.523,-171.084 246.707,-178.871 249.995,-172.691"/>
</g>
<!-- Node4 -->
<g id="node4" class="node"><title>Node4</title>
<g id="a_node4"><a xlink:href="classsoftwarecontainer_1_1_file_toolkit_with_undo.html#a14711e649249d7f0b7e264c7d426ea23" target="_top" xlink:title="overlayMount Mount a directory with an overlay on top of it. ">
<polygon fill="white" stroke="black" points="500.5,-168 500.5,-209 605.5,-209 605.5,-168 500.5,-168"/>
<text text-anchor="start" x="508.5" y="-197" font-family="Helvetica,sans-Serif" font-size="10.00">softwarecontainer::</text>
<text text-anchor="start" x="508.5" y="-186" font-family="Helvetica,sans-Serif" font-size="10.00">FileToolkitWithUndo</text>
<text text-anchor="middle" x="553" y="-175" font-family="Helvetica,sans-Serif" font-size="10.00">::overlayMount</text>
</a>
</g>
</g>
<!-- Node3&#45;&gt;Node4 -->
<g id="edge3" class="edge"><title>Node3&#45;&gt;Node4</title>
<path fill="none" stroke="midnightblue" d="M266.281,-171.073C279.873,-174.868 294.31,-178.317 308,-180.5 373.713,-190.977 450.597,-191.612 500.234,-190.536"/>
<polygon fill="midnightblue" stroke="midnightblue" points="267.135,-167.676 256.556,-168.261 265.191,-174.401 267.135,-167.676"/>
</g>
<!-- Node6 -->
<g id="node6" class="node"><title>Node6</title>
<g id="a_node6"><a xlink:href="classsoftwarecontainer_1_1_file_toolkit_with_undo.html#a44a19890b72a635b3134cb2a07fc0875" target="_top" xlink:title="checks whether given path is already added to clean up handlers or not ">
<polygon fill="white" stroke="black" points="329.5,-130 329.5,-171 434.5,-171 434.5,-130 329.5,-130"/>
<text text-anchor="start" x="337.5" y="-159" font-family="Helvetica,sans-Serif" font-size="10.00">softwarecontainer::</text>
<text text-anchor="start" x="337.5" y="-148" font-family="Helvetica,sans-Serif" font-size="10.00">FileToolkitWithUndo</text>
<text text-anchor="middle" x="382" y="-137" font-family="Helvetica,sans-Serif" font-size="10.00">::pathInList</text>
</a>
</g>
</g>
<!-- Node3&#45;&gt;Node6 -->
<g id="edge5" class="edge"><title>Node3&#45;&gt;Node6</title>
<path fill="none" stroke="midnightblue" d="M266.968,-144.02C287.315,-143.586 309.702,-143.675 329.213,-144.286"/>
<polygon fill="midnightblue" stroke="midnightblue" points="266.759,-140.524 256.854,-144.284 266.942,-147.521 266.759,-140.524"/>
</g>
<!-- Node9 -->
<g id="node9" class="node"><title>Node9</title>
<g id="a_node9"><a xlink:href="classsoftwarecontainer_1_1_container.html#a25102e42007fb34a93d982b231ae6c78" target="_top" xlink:title="Setup the container for startup. ">
<polygon fill="white" stroke="black" points="332,-81.5 332,-111.5 432,-111.5 432,-81.5 332,-81.5"/>
<text text-anchor="start" x="340" y="-99.5" font-family="Helvetica,sans-Serif" font-size="10.00">softwarecontainer::</text>
<text text-anchor="middle" x="382" y="-88.5" font-family="Helvetica,sans-Serif" font-size="10.00">Container::initialize</text>
</a>
</g>
</g>
<!-- Node3&#45;&gt;Node9 -->
<g id="edge12" class="edge"><title>Node3&#45;&gt;Node9</title>
<path fill="none" stroke="midnightblue" d="M266.511,-131.627C287.93,-125.056 311.656,-117.776 331.93,-111.555"/>
<polygon fill="midnightblue" stroke="midnightblue" points="265.387,-128.311 256.854,-134.59 267.441,-135.003 265.387,-128.311"/>
</g>
<!-- Node3&#45;&gt;Node10 -->
<g id="edge14" class="edge"><title>Node3&#45;&gt;Node10</title>
<path fill="none" stroke="midnightblue" d="M235.95,-123.124C255.619,-106.677 282.161,-86.1649 308,-71.5 313.218,-68.5383 318.8,-65.738 324.464,-63.1311"/>
<polygon fill="midnightblue" stroke="midnightblue" points="233.598,-120.53 228.232,-129.665 238.124,-125.87 233.598,-120.53"/>
</g>
<!-- Node5 -->
<g id="node5" class="node"><title>Node5</title>
<g id="a_node5"><a xlink:href="classsoftwarecontainer_1_1_container.html#a67f48ee29e9294f4f42436e1297d34c7" target="_top" xlink:title="create Creates a new lxc_container and creates it with all the initialization. ">
<polygon fill="white" stroke="black" points="652.5,-173.5 652.5,-203.5 752.5,-203.5 752.5,-173.5 652.5,-173.5"/>
<text text-anchor="start" x="660.5" y="-191.5" font-family="Helvetica,sans-Serif" font-size="10.00">softwarecontainer::</text>
<text text-anchor="middle" x="702.5" y="-180.5" font-family="Helvetica,sans-Serif" font-size="10.00">Container::create</text>
</a>
</g>
</g>
<!-- Node4&#45;&gt;Node5 -->
<g id="edge4" class="edge"><title>Node4&#45;&gt;Node5</title>
<path fill="none" stroke="midnightblue" d="M615.677,-188.5C627.85,-188.5 640.474,-188.5 652.173,-188.5"/>
<polygon fill="midnightblue" stroke="midnightblue" points="615.588,-185 605.588,-188.5 615.588,-192 615.588,-185"/>
</g>
<!-- Node6&#45;&gt;Node2 -->
<g id="edge11" class="edge"><title>Node6&#45;&gt;Node2</title>
<path fill="none" stroke="midnightblue" d="M444.753,-149.105C532.731,-147.118 694.176,-143.471 790.837,-141.288"/>
<polygon fill="midnightblue" stroke="midnightblue" points="444.575,-145.608 434.656,-149.333 444.733,-152.606 444.575,-145.608"/>
</g>
<!-- Node6&#45;&gt;Node3 -->
<g id="edge6" class="edge"><title>Node6&#45;&gt;Node3</title>
<path fill="none" stroke="midnightblue" d="M319.101,-156.979C298.759,-157.413 276.371,-157.326 256.854,-156.716"/>
<polygon fill="midnightblue" stroke="midnightblue" points="319.308,-160.475 329.213,-156.714 319.125,-153.477 319.308,-160.475"/>
</g>
<!-- Node6&#45;&gt;Node4 -->
<g id="edge10" class="edge"><title>Node6&#45;&gt;Node4</title>
<path fill="none" stroke="midnightblue" d="M444.615,-164.354C462.929,-168.472 482.794,-172.939 500.401,-176.898"/>
<polygon fill="midnightblue" stroke="midnightblue" points="445.148,-160.887 434.624,-162.108 443.612,-167.716 445.148,-160.887"/>
</g>
<!-- Node7 -->
<g id="node7" class="node"><title>Node7</title>
<g id="a_node7"><a xlink:href="classsoftwarecontainer_1_1_file_toolkit_with_undo.html#a649391903bf1a0eec92c829713117a74" target="_top" xlink:title="tempDir Creates a temporary directory at templatePath. ">
<polygon fill="white" stroke="black" points="500.5,-70 500.5,-111 605.5,-111 605.5,-70 500.5,-70"/>
<text text-anchor="start" x="508.5" y="-99" font-family="Helvetica,sans-Serif" font-size="10.00">softwarecontainer::</text>
<text text-anchor="start" x="508.5" y="-88" font-family="Helvetica,sans-Serif" font-size="10.00">FileToolkitWithUndo</text>
<text text-anchor="middle" x="553" y="-77" font-family="Helvetica,sans-Serif" font-size="10.00">::tempDir</text>
</a>
</g>
</g>
<!-- Node6&#45;&gt;Node7 -->
<g id="edge7" class="edge"><title>Node6&#45;&gt;Node7</title>
<path fill="none" stroke="midnightblue" d="M444.106,-128.805C462.561,-122.254 482.631,-115.128 500.401,-108.819"/>
<polygon fill="midnightblue" stroke="midnightblue" points="442.877,-125.528 434.624,-132.172 445.219,-132.125 442.877,-125.528"/>
</g>
<!-- Node8 -->
<g id="node8" class="node"><title>Node8</title>
<g id="a_node8"><a xlink:href="classsoftwarecontainer_1_1_file_toolkit_with_undo.html#a8f6b5cda214c9e412ab73313bc95d785" target="_top" xlink:title="bindMount Bind mount a src directory to another position dst. ">
<polygon fill="white" stroke="black" points="650,-70 650,-111 755,-111 755,-70 650,-70"/>
<text text-anchor="start" x="658" y="-99" font-family="Helvetica,sans-Serif" font-size="10.00">softwarecontainer::</text>
<text text-anchor="start" x="658" y="-88" font-family="Helvetica,sans-Serif" font-size="10.00">FileToolkitWithUndo</text>
<text text-anchor="middle" x="702.5" y="-77" font-family="Helvetica,sans-Serif" font-size="10.00">::bindMount</text>
</a>
</g>
</g>
<!-- Node7&#45;&gt;Node8 -->
<g id="edge8" class="edge"><title>Node7&#45;&gt;Node8</title>
<path fill="none" stroke="midnightblue" d="M615.806,-90.5C627.082,-90.5 638.742,-90.5 649.691,-90.5"/>
<polygon fill="midnightblue" stroke="midnightblue" points="615.588,-87.0001 605.588,-90.5 615.588,-94.0001 615.588,-87.0001"/>
</g>
<!-- Node8&#45;&gt;Node2 -->
<g id="edge9" class="edge"><title>Node8&#45;&gt;Node2</title>
<path fill="none" stroke="midnightblue" d="M764.946,-108.583C782.668,-113.799 801.809,-119.432 818.835,-124.442"/>
<polygon fill="midnightblue" stroke="midnightblue" points="765.85,-105.201 755.269,-105.735 763.874,-111.916 765.85,-105.201"/>
</g>
<!-- Node12 -->
<g id="node12" class="node"><title>Node12</title>
<g id="a_node12"><a xlink:href="classsoftwarecontainer_1_1_container.html#a480d9a7d3a2c0ee9d1756a2bdfc29f59" target="_top" xlink:title="synchronous version of execute ">
<polygon fill="white" stroke="black" points="492,-0.5 492,-30.5 614,-30.5 614,-0.5 492,-0.5"/>
<text text-anchor="start" x="500" y="-18.5" font-family="Helvetica,sans-Serif" font-size="10.00">softwarecontainer::</text>
<text text-anchor="middle" x="553" y="-7.5" font-family="Helvetica,sans-Serif" font-size="10.00">Container::executeSync</text>
</a>
</g>
</g>
<!-- Node11&#45;&gt;Node12 -->
<g id="edge17" class="edge"><title>Node11&#45;&gt;Node12</title>
<path fill="none" stroke="midnightblue" d="M282.313,-14.6791C290.964,-13.7848 299.661,-13.0242 308,-12.5 373.648,-8.37352 390.23,-11.4726 456,-12.5 467.588,-12.681 479.959,-12.9849 491.835,-13.3315"/>
<polygon fill="midnightblue" stroke="midnightblue" points="281.763,-11.2183 272.202,-15.7842 282.523,-18.1769 281.763,-11.2183"/>
</g>
<!-- Node12&#45;&gt;Node2 -->
<g id="edge18" class="edge"><title>Node12&#45;&gt;Node2</title>
<path fill="none" stroke="midnightblue" d="M624.443,-24.5203C663.976,-31.2258 713.536,-42.4251 755,-60.5 792.747,-76.9548 831.074,-106.393 852.565,-124.315"/>
<polygon fill="midnightblue" stroke="midnightblue" points="624.793,-21.0311 614.359,-22.8697 623.662,-27.9391 624.793,-21.0311"/>
</g>
</g>
</svg>
