<?xml version="1.0" encoding="UTF-8" standalone="no"?>
<!DOCTYPE svg PUBLIC "-//W3C//DTD SVG 1.1//EN"
 "http://www.w3.org/Graphics/SVG/1.1/DTD/svg11.dtd">
<!-- Generated by graphviz version 2.38.0 (20140413.2041)
 -->
<!-- Title: softwarecontainer::isDirectoryEmpty Pages: 1 -->
<svg width="667pt" height="219pt"
 viewBox="0.00 0.00 667.00 218.50" xmlns="http://www.w3.org/2000/svg" xmlns:xlink="http://www.w3.org/1999/xlink">
<g id="graph0" class="graph" transform="scale(1 1) rotate(0) translate(4 214.5)">
<title>softwarecontainer::isDirectoryEmpty</title>
<polygon fill="white" stroke="none" points="-4,4 -4,-214.5 663,-214.5 663,4 -4,4"/>
<!-- Node1 -->
<g id="node1" class="node"><title>Node1</title>
<polygon fill="#bfbfbf" stroke="black" points="0,-84.5 0,-114.5 100,-114.5 100,-84.5 0,-84.5"/>
<text text-anchor="start" x="8" y="-102.5" font-family="Helvetica,sans-Serif" font-size="10.00">softwarecontainer::</text>
<text text-anchor="middle" x="50" y="-91.5" font-family="Helvetica,sans-Serif" font-size="10.00">isDirectoryEmpty</text>
</g>
<!-- Node2 -->
<g id="node2" class="node"><title>Node2</title>
<g id="a_node2"><a xlink:href="classsoftwarecontainer_1_1_service_manifest_file_loader.html#a3e97e320f32a9767ca5a94426e5f520e" target="_top" xlink:title="Loads the json content from the Service Manifest(s) ">
<polygon fill="white" stroke="black" points="144,-169 144,-210 276,-210 276,-169 144,-169"/>
<text text-anchor="start" x="152" y="-198" font-family="Helvetica,sans-Serif" font-size="10.00">softwarecontainer::</text>
<text text-anchor="start" x="152" y="-187" font-family="Helvetica,sans-Serif" font-size="10.00">ServiceManifestFileLoader</text>
<text text-anchor="middle" x="210" y="-176" font-family="Helvetica,sans-Serif" font-size="10.00">::loadContent</text>
</a>
</g>
</g>
<!-- Node1&#45;&gt;Node2 -->
<g id="edge1" class="edge"><title>Node1&#45;&gt;Node2</title>
<path fill="none" stroke="midnightblue" d="M77.758,-120.741C94.0077,-133.031 115.508,-148.244 136,-159.5 142.005,-162.798 148.449,-165.953 154.931,-168.893"/>
<polygon fill="midnightblue" stroke="midnightblue" points="79.8373,-117.925 69.7722,-114.617 75.5775,-123.48 79.8373,-117.925"/>
</g>
<!-- Node3 -->
<g id="node3" class="node"><title>Node3</title>
<g id="a_node3"><a xlink:href="classsoftwarecontainer_1_1_software_container.html#aa699253aa7955f9d41c78324d5f49184" target="_top" xlink:title="Indicates if gateways have been configured previously. ">
<polygon fill="white" stroke="black" points="136,-109 136,-150 284,-150 284,-109 136,-109"/>
<text text-anchor="start" x="144" y="-138" font-family="Helvetica,sans-Serif" font-size="10.00">softwarecontainer::</text>
<text text-anchor="start" x="144" y="-127" font-family="Helvetica,sans-Serif" font-size="10.00">SoftwareContainer::previously</text>
<text text-anchor="middle" x="210" y="-116" font-family="Helvetica,sans-Serif" font-size="10.00">Configured</text>
</a>
</g>
</g>
<!-- Node1&#45;&gt;Node3 -->
<g id="edge2" class="edge"><title>Node1&#45;&gt;Node3</title>
<path fill="none" stroke="midnightblue" d="M110.159,-110.733C118.536,-112.323 127.231,-113.974 135.834,-115.608"/>
<polygon fill="midnightblue" stroke="midnightblue" points="110.603,-107.255 100.126,-108.828 109.298,-114.132 110.603,-107.255"/>
</g>
<!-- Node4 -->
<g id="node4" class="node"><title>Node4</title>
<g id="a_node4"><a xlink:href="classsoftwarecontainer_1_1_file_toolkit_with_undo.html#a23627ceb25a3727f6288b2d1132c027c" target="_top" xlink:title="tmpfsMount Mount a tmpfs in the dst path and limit size of the tmpfs to maxSize ">
<polygon fill="white" stroke="black" points="157.5,-49 157.5,-90 262.5,-90 262.5,-49 157.5,-49"/>
<text text-anchor="start" x="165.5" y="-78" font-family="Helvetica,sans-Serif" font-size="10.00">softwarecontainer::</text>
<text text-anchor="start" x="165.5" y="-67" font-family="Helvetica,sans-Serif" font-size="10.00">FileToolkitWithUndo</text>
<text text-anchor="middle" x="210" y="-56" font-family="Helvetica,sans-Serif" font-size="10.00">::tmpfsMount</text>
</a>
</g>
</g>
<!-- Node1&#45;&gt;Node4 -->
<g id="edge3" class="edge"><title>Node1&#45;&gt;Node4</title>
<path fill="none" stroke="midnightblue" d="M110.154,-88.2681C125.697,-85.317 142.335,-82.1579 157.444,-79.2891"/>
<polygon fill="midnightblue" stroke="midnightblue" points="109.298,-84.8682 100.126,-90.1723 110.603,-91.7453 109.298,-84.8682"/>
</g>
<!-- Node6 -->
<g id="node6" class="node"><title>Node6</title>
<g id="a_node6"><a xlink:href="namespacesoftwarecontainer.html#aee26a680bb2961627889d39c9f874b2c" target="_top" xlink:title="waitForProcessTermination Waits for a process to terminate and then returns the status of the process...">
<polygon fill="white" stroke="black" points="142,-0.5 142,-30.5 278,-30.5 278,-0.5 142,-0.5"/>
<text text-anchor="start" x="150" y="-18.5" font-family="Helvetica,sans-Serif" font-size="10.00">softwarecontainer::</text>
<text text-anchor="middle" x="210" y="-7.5" font-family="Helvetica,sans-Serif" font-size="10.00">waitForProcessTermination</text>
</a>
</g>
</g>
<!-- Node1&#45;&gt;Node6 -->
<g id="edge5" class="edge"><title>Node1&#45;&gt;Node6</title>
<path fill="none" stroke="midnightblue" d="M76.8349,-78.2018C93.053,-65.6305 114.839,-50.1466 136,-39.5 142.555,-36.2021 149.662,-33.2136 156.783,-30.5536"/>
<polygon fill="midnightblue" stroke="midnightblue" points="74.5754,-75.5263 68.8943,-84.4693 78.9123,-81.021 74.5754,-75.5263"/>
</g>
<!-- Node5 -->
<g id="node5" class="node"><title>Node5</title>
<g id="a_node5"><a xlink:href="classsoftwarecontainer_1_1_software_container.html#a6141f7e59438e4f1dce565f3826a81f0" target="_top" xlink:title="Creates a new SoftwareContainer instance. ">
<polygon fill="white" stroke="black" points="320,-49 320,-90 463,-90 463,-49 320,-49"/>
<text text-anchor="start" x="328" y="-78" font-family="Helvetica,sans-Serif" font-size="10.00">softwarecontainer::</text>
<text text-anchor="start" x="328" y="-67" font-family="Helvetica,sans-Serif" font-size="10.00">SoftwareContainer::Software</text>
<text text-anchor="middle" x="391.5" y="-56" font-family="Helvetica,sans-Serif" font-size="10.00">Container</text>
</a>
</g>
</g>
<!-- Node4&#45;&gt;Node5 -->
<g id="edge4" class="edge"><title>Node4&#45;&gt;Node5</title>
<path fill="none" stroke="midnightblue" d="M273.169,-69.5C288.276,-69.5 304.538,-69.5 320,-69.5"/>
<polygon fill="midnightblue" stroke="midnightblue" points="272.919,-66.0001 262.919,-69.5 272.919,-73.0001 272.919,-66.0001"/>
</g>
<!-- Node7 -->
<g id="node7" class="node"><title>Node7</title>
<g id="a_node7"><a xlink:href="classsoftwarecontainer_1_1_container.html#a480d9a7d3a2c0ee9d1756a2bdfc29f59" target="_top" xlink:title="synchronous version of execute ">
<polygon fill="white" stroke="black" points="330.5,-0.5 330.5,-30.5 452.5,-30.5 452.5,-0.5 330.5,-0.5"/>
<text text-anchor="start" x="338.5" y="-18.5" font-family="Helvetica,sans-Serif" font-size="10.00">softwarecontainer::</text>
<text text-anchor="middle" x="391.5" y="-7.5" font-family="Helvetica,sans-Serif" font-size="10.00">Container::executeSync</text>
</a>
</g>
</g>
<!-- Node6&#45;&gt;Node7 -->
<g id="edge6" class="edge"><title>Node6&#45;&gt;Node7</title>
<path fill="none" stroke="midnightblue" d="M288.245,-15.5C302.314,-15.5 316.801,-15.5 330.286,-15.5"/>
<polygon fill="midnightblue" stroke="midnightblue" points="288.094,-12.0001 278.094,-15.5 288.094,-19.0001 288.094,-12.0001"/>
</g>
<!-- Node8 -->
<g id="node8" class="node"><title>Node8</title>
<g id="a_node8"><a xlink:href="classsoftwarecontainer_1_1_container.html#ae5445d6a0c4b8b006ed38b3c01bb870c" target="_top" xlink:title="Tries to bind mount a path from host to container. ">
<polygon fill="white" stroke="black" points="499,-0.5 499,-30.5 659,-30.5 659,-0.5 499,-0.5"/>
<text text-anchor="start" x="507" y="-18.5" font-family="Helvetica,sans-Serif" font-size="10.00">softwarecontainer::</text>
<text text-anchor="middle" x="579" y="-7.5" font-family="Helvetica,sans-Serif" font-size="10.00">Container::bindMountInContainer</text>
</a>
</g>
</g>
<!-- Node7&#45;&gt;Node8 -->
<g id="edge7" class="edge"><title>Node7&#45;&gt;Node8</title>
<path fill="none" stroke="midnightblue" d="M462.893,-15.5C474.634,-15.5 486.883,-15.5 498.826,-15.5"/>
<polygon fill="midnightblue" stroke="midnightblue" points="462.727,-12.0001 452.727,-15.5 462.726,-19.0001 462.727,-12.0001"/>
</g>
</g>
</svg>
