<?xml version="1.0" encoding="UTF-8" standalone="no"?>
<!DOCTYPE svg PUBLIC "-//W3C//DTD SVG 1.1//EN"
 "http://www.w3.org/Graphics/SVG/1.1/DTD/svg11.dtd">
<!-- Generated by graphviz version 2.38.0 (20140413.2041)
 -->
<!-- Title: softwarecontainer::isSuccess Pages: 1 -->
<svg width="316pt" height="208pt"
 viewBox="0.00 0.00 316.00 207.50" xmlns="http://www.w3.org/2000/svg" xmlns:xlink="http://www.w3.org/1999/xlink">
<g id="graph0" class="graph" transform="scale(1 1) rotate(0) translate(4 203.5)">
<title>softwarecontainer::isSuccess</title>
<polygon fill="white" stroke="none" points="-4,4 -4,-203.5 312,-203.5 312,4 -4,4"/>
<!-- Node1 -->
<g id="node1" class="node"><title>Node1</title>
<polygon fill="#bfbfbf" stroke="black" points="0,-93 0,-123 100,-123 100,-93 0,-93"/>
<text text-anchor="start" x="8" y="-111" font-family="Helvetica,sans-Serif" font-size="10.00">softwarecontainer::</text>
<text text-anchor="middle" x="50" y="-100" font-family="Helvetica,sans-Serif" font-size="10.00">isSuccess</text>
</g>
<!-- Node2 -->
<g id="node2" class="node"><title>Node2</title>
<g id="a_node2"><a xlink:href="classsoftwarecontainer_1_1_pulse_gateway.html#a0cd0a00ca7590d7c9c3c961e20de56df" target="_top" xlink:title="Implements Gateway::activateGateway. ">
<polygon fill="white" stroke="black" points="142,-169 142,-199 302,-199 302,-169 142,-169"/>
<text text-anchor="start" x="150" y="-187" font-family="Helvetica,sans-Serif" font-size="10.00">softwarecontainer::</text>
<text text-anchor="middle" x="222" y="-176" font-family="Helvetica,sans-Serif" font-size="10.00">PulseGateway::activateGateway</text>
</a>
</g>
</g>
<!-- Node1&#45;&gt;Node2 -->
<g id="edge1" class="edge"><title>Node1&#45;&gt;Node2</title>
<path fill="none" stroke="midnightblue" d="M80.4568,-128.79C96.3368,-139.272 116.607,-151.523 136,-160 143.587,-163.317 151.755,-166.302 159.922,-168.948"/>
<polygon fill="midnightblue" stroke="midnightblue" points="82.3712,-125.86 72.1198,-123.184 78.4652,-131.668 82.3712,-125.86"/>
</g>
<!-- Node3 -->
<g id="node3" class="node"><title>Node3</title>
<g id="a_node3"><a xlink:href="classsoftwarecontainer_1_1_network_gateway.html#a8a08792ecd43b1694222ca286514ee21" target="_top" xlink:title="Implements Gateway::activateGateway. ">
<polygon fill="white" stroke="black" points="136,-120 136,-150 308,-150 308,-120 136,-120"/>
<text text-anchor="start" x="144" y="-138" font-family="Helvetica,sans-Serif" font-size="10.00">softwarecontainer::</text>
<text text-anchor="middle" x="222" y="-127" font-family="Helvetica,sans-Serif" font-size="10.00">NetworkGateway::activateGateway</text>
</a>
</g>
</g>
<!-- Node1&#45;&gt;Node3 -->
<g id="edge2" class="edge"><title>Node1&#45;&gt;Node3</title>
<path fill="none" stroke="midnightblue" d="M110.095,-117.386C118.399,-118.704 127.067,-120.081 135.739,-121.459"/>
<polygon fill="midnightblue" stroke="midnightblue" points="110.596,-113.922 100.171,-115.81 109.498,-120.835 110.596,-113.922"/>
</g>
<!-- Node4 -->
<g id="node4" class="node"><title>Node4</title>
<g id="a_node4"><a xlink:href="classsoftwarecontainer_1_1_device_node_gateway.html#a9e912027cad4fff3ed4d9a9581f45227" target="_top" xlink:title="Implements Gateway::activateGateway. ">
<polygon fill="white" stroke="black" points="147,-60.5 147,-101.5 297,-101.5 297,-60.5 147,-60.5"/>
<text text-anchor="start" x="155" y="-89.5" font-family="Helvetica,sans-Serif" font-size="10.00">softwarecontainer::</text>
<text text-anchor="start" x="155" y="-78.5" font-family="Helvetica,sans-Serif" font-size="10.00">DeviceNodeGateway::activate</text>
<text text-anchor="middle" x="222" y="-67.5" font-family="Helvetica,sans-Serif" font-size="10.00">Gateway</text>
</a>
</g>
</g>
<!-- Node1&#45;&gt;Node4 -->
<g id="edge3" class="edge"><title>Node1&#45;&gt;Node4</title>
<path fill="none" stroke="midnightblue" d="M110.342,-98.5751C122.16,-96.6981 134.708,-94.7053 146.947,-92.7613"/>
<polygon fill="midnightblue" stroke="midnightblue" points="109.498,-95.1651 100.171,-100.19 110.596,-102.078 109.498,-95.1651"/>
</g>
<!-- Node5 -->
<g id="node5" class="node"><title>Node5</title>
<g id="a_node5"><a xlink:href="classsoftwarecontainer_1_1_network_gateway.html#ad67674d2ce8d329188446e71c14e3a88" target="_top" xlink:title="Gateway specific parsing of config elements. ">
<polygon fill="white" stroke="black" points="149,-0.5 149,-41.5 295,-41.5 295,-0.5 149,-0.5"/>
<text text-anchor="start" x="157" y="-29.5" font-family="Helvetica,sans-Serif" font-size="10.00">softwarecontainer::</text>
<text text-anchor="start" x="157" y="-18.5" font-family="Helvetica,sans-Serif" font-size="10.00">NetworkGateway::readConfig</text>
<text text-anchor="middle" x="222" y="-7.5" font-family="Helvetica,sans-Serif" font-size="10.00">Element</text>
</a>
</g>
</g>
<!-- Node1&#45;&gt;Node5 -->
<g id="edge4" class="edge"><title>Node1&#45;&gt;Node5</title>
<path fill="none" stroke="midnightblue" d="M78.8007,-86.7537C94.8992,-75.1289 115.9,-61.0839 136,-51 142.714,-47.6316 149.899,-44.4717 157.141,-41.5605"/>
<polygon fill="midnightblue" stroke="midnightblue" points="76.3878,-84.1831 70.3983,-92.9224 80.5305,-89.8257 76.3878,-84.1831"/>
</g>
</g>
</svg>
