<?xml version="1.0" encoding="UTF-8" standalone="no"?>
<!DOCTYPE svg PUBLIC "-//W3C//DTD SVG 1.1//EN"
 "http://www.w3.org/Graphics/SVG/1.1/DTD/svg11.dtd">
<!-- Generated by graphviz version 2.38.0 (20140413.2041)
 -->
<!-- Title: softwarecontainer::isDirectory Pages: 1 -->
<svg width="973pt" height="360pt"
 viewBox="0.00 0.00 973.00 359.50" xmlns="http://www.w3.org/2000/svg" xmlns:xlink="http://www.w3.org/1999/xlink">
<g id="graph0" class="graph" transform="scale(1 1) rotate(0) translate(4 355.5)">
<title>softwarecontainer::isDirectory</title>
<polygon fill="white" stroke="none" points="-4,4 -4,-355.5 969,-355.5 969,4 -4,4"/>
<!-- Node1 -->
<g id="node1" class="node"><title>Node1</title>
<polygon fill="#bfbfbf" stroke="black" points="0,-141.5 0,-171.5 100,-171.5 100,-141.5 0,-141.5"/>
<text text-anchor="start" x="8" y="-159.5" font-family="Helvetica,sans-Serif" font-size="10.00">softwarecontainer::</text>
<text text-anchor="middle" x="50" y="-148.5" font-family="Helvetica,sans-Serif" font-size="10.00">isDirectory</text>
</g>
<!-- Node2 -->
<g id="node2" class="node"><title>Node2</title>
<g id="a_node2"><a xlink:href="classsoftwarecontainer_1_1_device_node_gateway.html#a9e912027cad4fff3ed4d9a9581f45227" target="_top" xlink:title="Implements Gateway::activateGateway. ">
<polygon fill="white" stroke="black" points="136,-310 136,-351 286,-351 286,-310 136,-310"/>
<text text-anchor="start" x="144" y="-339" font-family="Helvetica,sans-Serif" font-size="10.00">softwarecontainer::</text>
<text text-anchor="start" x="144" y="-328" font-family="Helvetica,sans-Serif" font-size="10.00">DeviceNodeGateway::activate</text>
<text text-anchor="middle" x="211" y="-317" font-family="Helvetica,sans-Serif" font-size="10.00">Gateway</text>
</a>
</g>
</g>
<!-- Node1&#45;&gt;Node2 -->
<g id="edge1" class="edge"><title>Node1&#45;&gt;Node2</title>
<path fill="none" stroke="midnightblue" d="M60.85,-181.285C73.9977,-211.655 99.8901,-263.063 136,-295.5 142.132,-301.008 149.284,-305.817 156.679,-309.961"/>
<polygon fill="midnightblue" stroke="midnightblue" points="63.9854,-179.712 56.8834,-171.85 57.5324,-182.425 63.9854,-179.712"/>
</g>
<!-- Node3 -->
<g id="node3" class="node"><title>Node3</title>
<g id="a_node3"><a xlink:href="classsoftwarecontainer_1_1_container.html#ae5445d6a0c4b8b006ed38b3c01bb870c" target="_top" xlink:title="Tries to bind mount a path from host to container. ">
<polygon fill="white" stroke="black" points="805,-130.5 805,-160.5 965,-160.5 965,-130.5 805,-130.5"/>
<text text-anchor="start" x="813" y="-148.5" font-family="Helvetica,sans-Serif" font-size="10.00">softwarecontainer::</text>
<text text-anchor="middle" x="885" y="-137.5" font-family="Helvetica,sans-Serif" font-size="10.00">Container::bindMountInContainer</text>
</a>
</g>
</g>
<!-- Node1&#45;&gt;Node3 -->
<g id="edge2" class="edge"><title>Node1&#45;&gt;Node3</title>
<path fill="none" stroke="midnightblue" d="M83.4319,-176.963C142.819,-212.414 274.066,-281.5 395,-281.5 395,-281.5 395,-281.5 568,-281.5 658.678,-281.5 687.214,-285.659 769,-246.5 812.619,-225.615 852.342,-183.377 871.662,-160.704"/>
<polygon fill="midnightblue" stroke="midnightblue" points="84.8981,-173.759 74.5302,-171.578 81.2748,-179.749 84.8981,-173.759"/>
</g>
<!-- Node4 -->
<g id="node4" class="node"><title>Node4</title>
<g id="a_node4"><a xlink:href="classsoftwarecontainer_1_1_file_toolkit_with_undo.html#a35eb42bdace2695fb3e96cb84a535213" target="_top" xlink:title="createDirectory Create a directory, and if successful append it to a list of dirs to be deleted in th...">
<polygon fill="white" stroke="black" points="158.5,-136 158.5,-177 263.5,-177 263.5,-136 158.5,-136"/>
<text text-anchor="start" x="166.5" y="-165" font-family="Helvetica,sans-Serif" font-size="10.00">softwarecontainer::</text>
<text text-anchor="start" x="166.5" y="-154" font-family="Helvetica,sans-Serif" font-size="10.00">FileToolkitWithUndo</text>
<text text-anchor="middle" x="211" y="-143" font-family="Helvetica,sans-Serif" font-size="10.00">::createDirectory</text>
</a>
</g>
</g>
<!-- Node1&#45;&gt;Node4 -->
<g id="edge3" class="edge"><title>Node1&#45;&gt;Node4</title>
<path fill="none" stroke="midnightblue" d="M110.211,-156.5C126.041,-156.5 143.022,-156.5 158.406,-156.5"/>
<polygon fill="midnightblue" stroke="midnightblue" points="110.003,-153 100.003,-156.5 110.003,-160 110.003,-153"/>
</g>
<!-- Node11 -->
<g id="node11" class="node"><title>Node11</title>
<g id="a_node11"><a xlink:href="classsoftwarecontainer_1_1_software_container.html#aa699253aa7955f9d41c78324d5f49184" target="_top" xlink:title="Indicates if gateways have been configured previously. ">
<polygon fill="white" stroke="black" points="322,-28 322,-69 470,-69 470,-28 322,-28"/>
<text text-anchor="start" x="330" y="-57" font-family="Helvetica,sans-Serif" font-size="10.00">softwarecontainer::</text>
<text text-anchor="start" x="330" y="-46" font-family="Helvetica,sans-Serif" font-size="10.00">SoftwareContainer::previously</text>
<text text-anchor="middle" x="396" y="-35" font-family="Helvetica,sans-Serif" font-size="10.00">Configured</text>
</a>
</g>
</g>
<!-- Node1&#45;&gt;Node11 -->
<g id="edge16" class="edge"><title>Node1&#45;&gt;Node11</title>
<path fill="none" stroke="midnightblue" d="M101.996,-138.066C113.167,-134.149 124.956,-130.11 136,-126.5 199.049,-105.892 271.371,-84.2795 323.54,-69.0445"/>
<polygon fill="midnightblue" stroke="midnightblue" points="100.637,-134.834 92.3714,-141.462 102.966,-141.435 100.637,-134.834"/>
</g>
<!-- Node12 -->
<g id="node12" class="node"><title>Node12</title>
<g id="a_node12"><a xlink:href="namespacesoftwarecontainer.html#aee26a680bb2961627889d39c9f874b2c" target="_top" xlink:title="waitForProcessTermination Waits for a process to terminate and then returns the status of the process...">
<polygon fill="white" stroke="black" points="143,-0.5 143,-30.5 279,-30.5 279,-0.5 143,-0.5"/>
<text text-anchor="start" x="151" y="-18.5" font-family="Helvetica,sans-Serif" font-size="10.00">softwarecontainer::</text>
<text text-anchor="middle" x="211" y="-7.5" font-family="Helvetica,sans-Serif" font-size="10.00">waitForProcessTermination</text>
</a>
</g>
</g>
<!-- Node1&#45;&gt;Node12 -->
<g id="edge17" class="edge"><title>Node1&#45;&gt;Node12</title>
<path fill="none" stroke="midnightblue" d="M74.0277,-134.496C90.9619,-118.463 114.649,-96.3439 136,-77.5 154.598,-61.0857 176.425,-42.9283 191.531,-30.5293"/>
<polygon fill="midnightblue" stroke="midnightblue" points="71.5975,-131.977 66.755,-141.401 76.4171,-137.054 71.5975,-131.977"/>
</g>
<!-- Node4&#45;&gt;Node3 -->
<g id="edge14" class="edge"><title>Node4&#45;&gt;Node3</title>
<path fill="none" stroke="midnightblue" d="M259.148,-181.441C278.177,-190.451 300.65,-199.798 322,-205.5 514.02,-256.783 579.367,-278.006 769,-218.5 807.358,-206.464 845.484,-178.222 866.772,-160.605"/>
<polygon fill="midnightblue" stroke="midnightblue" points="260.63,-178.269 250.104,-177.062 257.58,-184.57 260.63,-178.269"/>
</g>
<!-- Node5 -->
<g id="node5" class="node"><title>Node5</title>
<g id="a_node5"><a xlink:href="classsoftwarecontainer_1_1_file_toolkit_with_undo.html#a14711e649249d7f0b7e264c7d426ea23" target="_top" xlink:title="overlayMount Mount a directory with an overlay on top of it. ">
<polygon fill="white" stroke="black" points="514.5,-174 514.5,-215 619.5,-215 619.5,-174 514.5,-174"/>
<text text-anchor="start" x="522.5" y="-203" font-family="Helvetica,sans-Serif" font-size="10.00">softwarecontainer::</text>
<text text-anchor="start" x="522.5" y="-192" font-family="Helvetica,sans-Serif" font-size="10.00">FileToolkitWithUndo</text>
<text text-anchor="middle" x="567" y="-181" font-family="Helvetica,sans-Serif" font-size="10.00">::overlayMount</text>
</a>
</g>
</g>
<!-- Node4&#45;&gt;Node5 -->
<g id="edge4" class="edge"><title>Node4&#45;&gt;Node5</title>
<path fill="none" stroke="midnightblue" d="M273.583,-176.009C289.223,-180.211 306.104,-184.105 322,-186.5 387.8,-196.412 464.664,-197.175 514.273,-196.283"/>
<polygon fill="midnightblue" stroke="midnightblue" points="274.078,-172.515 263.506,-173.217 272.208,-179.261 274.078,-172.515"/>
</g>
<!-- Node7 -->
<g id="node7" class="node"><title>Node7</title>
<g id="a_node7"><a xlink:href="classsoftwarecontainer_1_1_file_toolkit_with_undo.html#a44a19890b72a635b3134cb2a07fc0875" target="_top" xlink:title="checks whether given path is already added to clean up handlers or not ">
<polygon fill="white" stroke="black" points="343.5,-136 343.5,-177 448.5,-177 448.5,-136 343.5,-136"/>
<text text-anchor="start" x="351.5" y="-165" font-family="Helvetica,sans-Serif" font-size="10.00">softwarecontainer::</text>
<text text-anchor="start" x="351.5" y="-154" font-family="Helvetica,sans-Serif" font-size="10.00">FileToolkitWithUndo</text>
<text text-anchor="middle" x="396" y="-143" font-family="Helvetica,sans-Serif" font-size="10.00">::pathInList</text>
</a>
</g>
</g>
<!-- Node4&#45;&gt;Node7 -->
<g id="edge6" class="edge"><title>Node4&#45;&gt;Node7</title>
<path fill="none" stroke="midnightblue" d="M274.077,-150.07C296.572,-149.564 321.723,-149.658 343.236,-150.351"/>
<polygon fill="midnightblue" stroke="midnightblue" points="273.852,-146.575 263.951,-150.345 274.042,-153.572 273.852,-146.575"/>
</g>
<!-- Node10 -->
<g id="node10" class="node"><title>Node10</title>
<g id="a_node10"><a xlink:href="classsoftwarecontainer_1_1_container.html#a25102e42007fb34a93d982b231ae6c78" target="_top" xlink:title="Setup the container for startup. ">
<polygon fill="white" stroke="black" points="346,-87.5 346,-117.5 446,-117.5 446,-87.5 346,-87.5"/>
<text text-anchor="start" x="354" y="-105.5" font-family="Helvetica,sans-Serif" font-size="10.00">softwarecontainer::</text>
<text text-anchor="middle" x="396" y="-94.5" font-family="Helvetica,sans-Serif" font-size="10.00">Container::initialize</text>
</a>
</g>
</g>
<!-- Node4&#45;&gt;Node10 -->
<g id="edge13" class="edge"><title>Node4&#45;&gt;Node10</title>
<path fill="none" stroke="midnightblue" d="M273.8,-138.264C297.248,-131.345 323.615,-123.565 345.753,-117.032"/>
<polygon fill="midnightblue" stroke="midnightblue" points="272.552,-134.983 263.951,-141.17 274.533,-141.697 272.552,-134.983"/>
</g>
<!-- Node4&#45;&gt;Node11 -->
<g id="edge15" class="edge"><title>Node4&#45;&gt;Node11</title>
<path fill="none" stroke="midnightblue" d="M251.295,-130.039C262.592,-122.264 274.867,-113.656 286,-105.5 302.352,-93.5215 304.405,-87.5645 322,-77.5 327.208,-74.5207 332.783,-71.7088 338.444,-69.0949"/>
<polygon fill="midnightblue" stroke="midnightblue" points="249.154,-127.262 242.881,-135.8 253.109,-133.038 249.154,-127.262"/>
</g>
<!-- Node6 -->
<g id="node6" class="node"><title>Node6</title>
<g id="a_node6"><a xlink:href="classsoftwarecontainer_1_1_container.html#a67f48ee29e9294f4f42436e1297d34c7" target="_top" xlink:title="create Creates a new lxc_container and creates it with all the initialization. ">
<polygon fill="white" stroke="black" points="666.5,-179.5 666.5,-209.5 766.5,-209.5 766.5,-179.5 666.5,-179.5"/>
<text text-anchor="start" x="674.5" y="-197.5" font-family="Helvetica,sans-Serif" font-size="10.00">softwarecontainer::</text>
<text text-anchor="middle" x="716.5" y="-186.5" font-family="Helvetica,sans-Serif" font-size="10.00">Container::create</text>
</a>
</g>
</g>
<!-- Node5&#45;&gt;Node6 -->
<g id="edge5" class="edge"><title>Node5&#45;&gt;Node6</title>
<path fill="none" stroke="midnightblue" d="M629.677,-194.5C641.85,-194.5 654.474,-194.5 666.173,-194.5"/>
<polygon fill="midnightblue" stroke="midnightblue" points="629.588,-191 619.588,-194.5 629.588,-198 629.588,-191"/>
</g>
<!-- Node7&#45;&gt;Node3 -->
<g id="edge12" class="edge"><title>Node7&#45;&gt;Node3</title>
<path fill="none" stroke="midnightblue" d="M458.753,-155.105C546.731,-153.118 708.176,-149.471 804.837,-147.288"/>
<polygon fill="midnightblue" stroke="midnightblue" points="458.575,-151.608 448.656,-155.333 458.733,-158.606 458.575,-151.608"/>
</g>
<!-- Node7&#45;&gt;Node4 -->
<g id="edge7" class="edge"><title>Node7&#45;&gt;Node4</title>
<path fill="none" stroke="midnightblue" d="M333.118,-162.925C310.639,-163.435 285.485,-163.345 263.951,-162.655"/>
<polygon fill="midnightblue" stroke="midnightblue" points="333.335,-166.421 343.236,-162.649 333.144,-159.423 333.335,-166.421"/>
</g>
<!-- Node7&#45;&gt;Node5 -->
<g id="edge11" class="edge"><title>Node7&#45;&gt;Node5</title>
<path fill="none" stroke="midnightblue" d="M458.615,-170.354C476.929,-174.472 496.794,-178.939 514.401,-182.898"/>
<polygon fill="midnightblue" stroke="midnightblue" points="459.148,-166.887 448.624,-168.108 457.612,-173.716 459.148,-166.887"/>
</g>
<!-- Node8 -->
<g id="node8" class="node"><title>Node8</title>
<g id="a_node8"><a xlink:href="classsoftwarecontainer_1_1_file_toolkit_with_undo.html#a649391903bf1a0eec92c829713117a74" target="_top" xlink:title="tempDir Creates a temporary directory at templatePath. ">
<polygon fill="white" stroke="black" points="514.5,-76 514.5,-117 619.5,-117 619.5,-76 514.5,-76"/>
<text text-anchor="start" x="522.5" y="-105" font-family="Helvetica,sans-Serif" font-size="10.00">softwarecontainer::</text>
<text text-anchor="start" x="522.5" y="-94" font-family="Helvetica,sans-Serif" font-size="10.00">FileToolkitWithUndo</text>
<text text-anchor="middle" x="567" y="-83" font-family="Helvetica,sans-Serif" font-size="10.00">::tempDir</text>
</a>
</g>
</g>
<!-- Node7&#45;&gt;Node8 -->
<g id="edge8" class="edge"><title>Node7&#45;&gt;Node8</title>
<path fill="none" stroke="midnightblue" d="M458.106,-134.805C476.561,-128.254 496.631,-121.128 514.401,-114.819"/>
<polygon fill="midnightblue" stroke="midnightblue" points="456.877,-131.528 448.624,-138.172 459.219,-138.125 456.877,-131.528"/>
</g>
<!-- Node9 -->
<g id="node9" class="node"><title>Node9</title>
<g id="a_node9"><a xlink:href="classsoftwarecontainer_1_1_file_toolkit_with_undo.html#a8f6b5cda214c9e412ab73313bc95d785" target="_top" xlink:title="bindMount Bind mount a src directory to another position dst. ">
<polygon fill="white" stroke="black" points="664,-76 664,-117 769,-117 769,-76 664,-76"/>
<text text-anchor="start" x="672" y="-105" font-family="Helvetica,sans-Serif" font-size="10.00">softwarecontainer::</text>
<text text-anchor="start" x="672" y="-94" font-family="Helvetica,sans-Serif" font-size="10.00">FileToolkitWithUndo</text>
<text text-anchor="middle" x="716.5" y="-83" font-family="Helvetica,sans-Serif" font-size="10.00">::bindMount</text>
</a>
</g>
</g>
<!-- Node8&#45;&gt;Node9 -->
<g id="edge9" class="edge"><title>Node8&#45;&gt;Node9</title>
<path fill="none" stroke="midnightblue" d="M629.806,-96.5C641.082,-96.5 652.742,-96.5 663.691,-96.5"/>
<polygon fill="midnightblue" stroke="midnightblue" points="629.588,-93.0001 619.588,-96.5 629.588,-100 629.588,-93.0001"/>
</g>
<!-- Node9&#45;&gt;Node3 -->
<g id="edge10" class="edge"><title>Node9&#45;&gt;Node3</title>
<path fill="none" stroke="midnightblue" d="M778.946,-114.583C796.668,-119.799 815.809,-125.432 832.835,-130.442"/>
<polygon fill="midnightblue" stroke="midnightblue" points="779.85,-111.201 769.269,-111.735 777.874,-117.916 779.85,-111.201"/>
</g>
<!-- Node13 -->
<g id="node13" class="node"><title>Node13</title>
<g id="a_node13"><a xlink:href="classsoftwarecontainer_1_1_container.html#a480d9a7d3a2c0ee9d1756a2bdfc29f59" target="_top" xlink:title="synchronous version of execute ">
<polygon fill="white" stroke="black" points="506,-6.5 506,-36.5 628,-36.5 628,-6.5 506,-6.5"/>
<text text-anchor="start" x="514" y="-24.5" font-family="Helvetica,sans-Serif" font-size="10.00">softwarecontainer::</text>
<text text-anchor="middle" x="567" y="-13.5" font-family="Helvetica,sans-Serif" font-size="10.00">Container::executeSync</text>
</a>
</g>
</g>
<!-- Node12&#45;&gt;Node13 -->
<g id="edge18" class="edge"><title>Node12&#45;&gt;Node13</title>
<path fill="none" stroke="midnightblue" d="M289.11,-16.0017C340.387,-16.4326 409.226,-17.1972 470,-18.5 481.586,-18.7484 493.957,-19.083 505.833,-19.4387"/>
<polygon fill="midnightblue" stroke="midnightblue" points="289.124,-12.5018 279.096,-15.9199 289.067,-19.5016 289.124,-12.5018"/>
</g>
<!-- Node13&#45;&gt;Node3 -->
<g id="edge19" class="edge"><title>Node13&#45;&gt;Node3</title>
<path fill="none" stroke="midnightblue" d="M638.443,-30.5203C677.976,-37.2258 727.536,-48.4251 769,-66.5 806.747,-82.9548 845.074,-112.393 866.565,-130.315"/>
<polygon fill="midnightblue" stroke="midnightblue" points="638.793,-27.0311 628.359,-28.8697 637.662,-33.9391 638.793,-27.0311"/>
</g>
</g>
</svg>
