<?xml version="1.0" encoding="UTF-8" standalone="no"?>
<!DOCTYPE svg PUBLIC "-//W3C//DTD SVG 1.1//EN"
 "http://www.w3.org/Graphics/SVG/1.1/DTD/svg11.dtd">
<!-- Generated by graphviz version 2.38.0 (20140413.2041)
 -->
<!-- Title: softwarecontainer::isSuccess Pages: 1 -->
<svg width="316pt" height="328pt"
 viewBox="0.00 0.00 316.00 327.50" xmlns="http://www.w3.org/2000/svg" xmlns:xlink="http://www.w3.org/1999/xlink">
<g id="graph0" class="graph" transform="scale(1 1) rotate(0) translate(4 323.5)">
<title>softwarecontainer::isSuccess</title>
<polygon fill="white" stroke="none" points="-4,4 -4,-323.5 312,-323.5 312,4 -4,4"/>
<!-- Node1 -->
<g id="node1" class="node"><title>Node1</title>
<polygon fill="#bfbfbf" stroke="black" points="0,-156 0,-186 100,-186 100,-156 0,-156"/>
<text text-anchor="start" x="8" y="-174" font-family="Helvetica,sans-Serif" font-size="10.00">softwarecontainer::</text>
<text text-anchor="middle" x="50" y="-163" font-family="Helvetica,sans-Serif" font-size="10.00">isSuccess</text>
</g>
<!-- Node2 -->
<g id="node2" class="node"><title>Node2</title>
<g id="a_node2"><a xlink:href="classsoftwarecontainer_1_1_pulse_gateway.html#a0cd0a00ca7590d7c9c3c961e20de56df" target="_top" xlink:title="Implements Gateway::activateGateway. ">
<polygon fill="white" stroke="black" points="142,-289 142,-319 302,-319 302,-289 142,-289"/>
<text text-anchor="start" x="150" y="-307" font-family="Helvetica,sans-Serif" font-size="10.00">softwarecontainer::</text>
<text text-anchor="middle" x="222" y="-296" font-family="Helvetica,sans-Serif" font-size="10.00">PulseGateway::activateGateway</text>
</a>
</g>
</g>
<!-- Node1&#45;&gt;Node2 -->
<g id="edge1" class="edge"><title>Node1&#45;&gt;Node2</title>
<path fill="none" stroke="midnightblue" d="M63.6091,-194.992C77.9048,-219.882 103.506,-258.157 136,-280 141.09,-283.422 146.665,-286.36 152.449,-288.883"/>
<polygon fill="midnightblue" stroke="midnightblue" points="66.6182,-193.202 58.6928,-186.171 60.5036,-196.61 66.6182,-193.202"/>
</g>
<!-- Node3 -->
<g id="node3" class="node"><title>Node3</title>
<g id="a_node3"><a xlink:href="classsoftwarecontainer_1_1_network_gateway.html#a8a08792ecd43b1694222ca286514ee21" target="_top" xlink:title="Implements Gateway::activateGateway. ">
<polygon fill="white" stroke="black" points="136,-240 136,-270 308,-270 308,-240 136,-240"/>
<text text-anchor="start" x="144" y="-258" font-family="Helvetica,sans-Serif" font-size="10.00">softwarecontainer::</text>
<text text-anchor="middle" x="222" y="-247" font-family="Helvetica,sans-Serif" font-size="10.00">NetworkGateway::activateGateway</text>
</a>
</g>
</g>
<!-- Node1&#45;&gt;Node3 -->
<g id="edge2" class="edge"><title>Node1&#45;&gt;Node3</title>
<path fill="none" stroke="midnightblue" d="M76.363,-192.374C92.5544,-205.108 114.479,-220.739 136,-231 143.059,-234.366 150.679,-237.343 158.356,-239.953"/>
<polygon fill="midnightblue" stroke="midnightblue" points="78.4402,-189.553 68.4511,-186.022 74.0579,-195.011 78.4402,-189.553"/>
</g>
<!-- Node4 -->
<g id="node4" class="node"><title>Node4</title>
<g id="a_node4"><a xlink:href="classsoftwarecontainer_1_1_device_node_gateway.html#a9e912027cad4fff3ed4d9a9581f45227" target="_top" xlink:title="Implements Gateway::activateGateway. ">
<polygon fill="white" stroke="black" points="147,-180.5 147,-221.5 297,-221.5 297,-180.5 147,-180.5"/>
<text text-anchor="start" x="155" y="-209.5" font-family="Helvetica,sans-Serif" font-size="10.00">softwarecontainer::</text>
<text text-anchor="start" x="155" y="-198.5" font-family="Helvetica,sans-Serif" font-size="10.00">DeviceNodeGateway::activate</text>
<text text-anchor="middle" x="222" y="-187.5" font-family="Helvetica,sans-Serif" font-size="10.00">Gateway</text>
</a>
</g>
</g>
<!-- Node1&#45;&gt;Node4 -->
<g id="edge3" class="edge"><title>Node1&#45;&gt;Node4</title>
<path fill="none" stroke="midnightblue" d="M110.342,-181.472C122.16,-183.558 134.708,-185.772 146.947,-187.932"/>
<polygon fill="midnightblue" stroke="midnightblue" points="110.627,-177.968 100.171,-179.677 109.411,-184.862 110.627,-177.968"/>
</g>
<!-- Node5 -->
<g id="node5" class="node"><title>Node5</title>
<g id="a_node5"><a xlink:href="classsoftwarecontainer_1_1_network_gateway.html#ad67674d2ce8d329188446e71c14e3a88" target="_top" xlink:title="Gateway specific parsing of config elements. ">
<polygon fill="white" stroke="black" points="149,-120.5 149,-161.5 295,-161.5 295,-120.5 149,-120.5"/>
<text text-anchor="start" x="157" y="-149.5" font-family="Helvetica,sans-Serif" font-size="10.00">softwarecontainer::</text>
<text text-anchor="start" x="157" y="-138.5" font-family="Helvetica,sans-Serif" font-size="10.00">NetworkGateway::readConfig</text>
<text text-anchor="middle" x="222" y="-127.5" font-family="Helvetica,sans-Serif" font-size="10.00">Element</text>
</a>
</g>
</g>
<!-- Node1&#45;&gt;Node5 -->
<g id="edge4" class="edge"><title>Node1&#45;&gt;Node5</title>
<path fill="none" stroke="midnightblue" d="M110.388,-160.52C122.808,-158.328 136.032,-155.994 148.857,-153.731"/>
<polygon fill="midnightblue" stroke="midnightblue" points="109.411,-157.138 100.171,-162.323 110.627,-164.032 109.411,-157.138"/>
</g>
<!-- Node6 -->
<g id="node6" class="node"><title>Node6</title>
<g id="a_node6"><a xlink:href="classsoftwarecontainer_1_1_software_container_agent.html#ac4015d7ba7850424994fe561c5dbe333" target="_top" xlink:title="resumes execution of a container ">
<polygon fill="white" stroke="black" points="160.5,-60.5 160.5,-101.5 283.5,-101.5 283.5,-60.5 160.5,-60.5"/>
<text text-anchor="start" x="168.5" y="-89.5" font-family="Helvetica,sans-Serif" font-size="10.00">softwarecontainer::</text>
<text text-anchor="start" x="168.5" y="-78.5" font-family="Helvetica,sans-Serif" font-size="10.00">SoftwareContainerAgent</text>
<text text-anchor="middle" x="222" y="-67.5" font-family="Helvetica,sans-Serif" font-size="10.00">::resumeContainer</text>
</a>
</g>
</g>
<!-- Node1&#45;&gt;Node6 -->
<g id="edge5" class="edge"><title>Node1&#45;&gt;Node6</title>
<path fill="none" stroke="midnightblue" d="M77.2353,-149.621C93.4496,-137.153 115.093,-121.804 136,-111 143.646,-107.049 151.931,-103.41 160.226,-100.133"/>
<polygon fill="midnightblue" stroke="midnightblue" points="75.005,-146.922 69.2837,-155.839 79.3171,-152.436 75.005,-146.922"/>
</g>
<!-- Node7 -->
<g id="node7" class="node"><title>Node7</title>
<g id="a_node7"><a xlink:href="classsoftwarecontainer_1_1_software_container_agent.html#aa9f97277f85c0abc20fc87eb4e285d24" target="_top" xlink:title="suspends execution of a container ">
<polygon fill="white" stroke="black" points="160.5,-0.5 160.5,-41.5 283.5,-41.5 283.5,-0.5 160.5,-0.5"/>
<text text-anchor="start" x="168.5" y="-29.5" font-family="Helvetica,sans-Serif" font-size="10.00">softwarecontainer::</text>
<text text-anchor="start" x="168.5" y="-18.5" font-family="Helvetica,sans-Serif" font-size="10.00">SoftwareContainerAgent</text>
<text text-anchor="middle" x="222" y="-7.5" font-family="Helvetica,sans-Serif" font-size="10.00">::suspendContainer</text>
</a>
</g>
</g>
<!-- Node1&#45;&gt;Node7 -->
<g id="edge6" class="edge"><title>Node1&#45;&gt;Node7</title>
<path fill="none" stroke="midnightblue" d="M62.4541,-146.671C76.3126,-119.699 102.071,-76.6273 136,-51 143.243,-45.5295 151.567,-40.9979 160.11,-37.2606"/>
<polygon fill="midnightblue" stroke="midnightblue" points="59.2236,-145.307 57.8936,-155.818 65.4881,-148.43 59.2236,-145.307"/>
</g>
</g>
</svg>
