<?xml version="1.0" encoding="UTF-8" standalone="no"?>
<!DOCTYPE svg PUBLIC "-//W3C//DTD SVG 1.1//EN"
 "http://www.w3.org/Graphics/SVG/1.1/DTD/svg11.dtd">
<!-- Generated by graphviz version 2.38.0 (20140413.2041)
 -->
<!-- Title: softwarecontainer::isDirectory Pages: 1 -->
<svg width="660pt" height="323pt"
 viewBox="0.00 0.00 660.00 323.36" xmlns="http://www.w3.org/2000/svg" xmlns:xlink="http://www.w3.org/1999/xlink">
<g id="graph0" class="graph" transform="scale(1 1) rotate(0) translate(4 319.364)">
<title>softwarecontainer::isDirectory</title>
<polygon fill="white" stroke="none" points="-4,4 -4,-319.364 656,-319.364 656,4 -4,4"/>
<!-- Node1 -->
<g id="node1" class="node"><title>Node1</title>
<polygon fill="#bfbfbf" stroke="black" points="0,-192 0,-222 100,-222 100,-192 0,-192"/>
<text text-anchor="start" x="8" y="-210" font-family="Helvetica,sans-Serif" font-size="10.00">softwarecontainer::</text>
<text text-anchor="middle" x="50" y="-199" font-family="Helvetica,sans-Serif" font-size="10.00">isDirectory</text>
</g>
<!-- Node2 -->
<g id="node2" class="node"><title>Node2</title>
<g id="a_node2"><a xlink:href="classsoftwarecontainer_1_1_file_toolkit_with_undo.html#a8f6b5cda214c9e412ab73313bc95d785" target="_top" xlink:title="bindMount Bind mount a src directory to another position dst. ">
<polygon fill="white" stroke="black" points="151.5,-186.5 151.5,-227.5 256.5,-227.5 256.5,-186.5 151.5,-186.5"/>
<text text-anchor="start" x="159.5" y="-215.5" font-family="Helvetica,sans-Serif" font-size="10.00">softwarecontainer::</text>
<text text-anchor="start" x="159.5" y="-204.5" font-family="Helvetica,sans-Serif" font-size="10.00">FileToolkitWithUndo</text>
<text text-anchor="middle" x="204" y="-193.5" font-family="Helvetica,sans-Serif" font-size="10.00">::bindMount</text>
</a>
</g>
</g>
<!-- Node1&#45;&gt;Node2 -->
<g id="edge1" class="edge"><title>Node1&#45;&gt;Node2</title>
<path fill="none" stroke="midnightblue" d="M110.483,-207C123.958,-207 138.161,-207 151.285,-207"/>
<polygon fill="midnightblue" stroke="midnightblue" points="110.35,-203.5 100.35,-207 110.35,-210.5 110.35,-203.5"/>
</g>
<!-- Node3 -->
<g id="node3" class="node"><title>Node3</title>
<g id="a_node3"><a xlink:href="classsoftwarecontainer_1_1_container.html#ae5445d6a0c4b8b006ed38b3c01bb870c" target="_top" xlink:title="Tries to bind mount a path from host to container. ">
<polygon fill="white" stroke="black" points="492,-224 492,-254 652,-254 652,-224 492,-224"/>
<text text-anchor="start" x="500" y="-242" font-family="Helvetica,sans-Serif" font-size="10.00">softwarecontainer::</text>
<text text-anchor="middle" x="572" y="-231" font-family="Helvetica,sans-Serif" font-size="10.00">Container::bindMountInContainer</text>
</a>
</g>
</g>
<!-- Node1&#45;&gt;Node3 -->
<g id="edge3" class="edge"><title>Node1&#45;&gt;Node3</title>
<path fill="none" stroke="midnightblue" d="M68.0366,-230.177C83.406,-248.963 107.873,-274.051 136,-285 268.534,-336.594 316.344,-311.895 456,-285 486.617,-279.104 519.445,-265.129 542.156,-254.119"/>
<polygon fill="midnightblue" stroke="midnightblue" points="70.7736,-227.995 61.8288,-222.317 65.2803,-232.334 70.7736,-227.995"/>
</g>
<!-- Node4 -->
<g id="node4" class="node"><title>Node4</title>
<g id="a_node4"><a xlink:href="classsoftwarecontainer_1_1_file_toolkit_with_undo.html#a35eb42bdace2695fb3e96cb84a535213" target="_top" xlink:title="createDirectory Create a directory, and if successful append it to a list of dirs to be deleted in th...">
<polygon fill="white" stroke="black" points="151.5,-114.5 151.5,-155.5 256.5,-155.5 256.5,-114.5 151.5,-114.5"/>
<text text-anchor="start" x="159.5" y="-143.5" font-family="Helvetica,sans-Serif" font-size="10.00">softwarecontainer::</text>
<text text-anchor="start" x="159.5" y="-132.5" font-family="Helvetica,sans-Serif" font-size="10.00">FileToolkitWithUndo</text>
<text text-anchor="middle" x="204" y="-121.5" font-family="Helvetica,sans-Serif" font-size="10.00">::createDirectory</text>
</a>
</g>
</g>
<!-- Node1&#45;&gt;Node4 -->
<g id="edge4" class="edge"><title>Node1&#45;&gt;Node4</title>
<path fill="none" stroke="midnightblue" d="M92.1224,-187.521C113.029,-177.618 138.433,-165.585 159.646,-155.536"/>
<polygon fill="midnightblue" stroke="midnightblue" points="90.4032,-184.462 82.8642,-191.906 93.3999,-190.789 90.4032,-184.462"/>
</g>
<!-- Node8 -->
<g id="node8" class="node"><title>Node8</title>
<g id="a_node8"><a xlink:href="classsoftwarecontainer_1_1_software_container.html#aa699253aa7955f9d41c78324d5f49184" target="_top" xlink:title="Indicates if gateways have been configured previously. ">
<polygon fill="white" stroke="black" points="308,-0.5 308,-41.5 456,-41.5 456,-0.5 308,-0.5"/>
<text text-anchor="start" x="316" y="-29.5" font-family="Helvetica,sans-Serif" font-size="10.00">softwarecontainer::</text>
<text text-anchor="start" x="316" y="-18.5" font-family="Helvetica,sans-Serif" font-size="10.00">SoftwareContainer::previously</text>
<text text-anchor="middle" x="382" y="-7.5" font-family="Helvetica,sans-Serif" font-size="10.00">Configured</text>
</a>
</g>
</g>
<!-- Node1&#45;&gt;Node8 -->
<g id="edge10" class="edge"><title>Node1&#45;&gt;Node8</title>
<path fill="none" stroke="midnightblue" d="M65.1398,-183.462C80.0843,-160.444 105.667,-125.894 136,-105 187.935,-69.2263 256.5,-47.4381 307.884,-35.0486"/>
<polygon fill="midnightblue" stroke="midnightblue" points="62.1524,-181.637 59.7646,-191.96 68.0683,-185.379 62.1524,-181.637"/>
</g>
<!-- Node9 -->
<g id="node9" class="node"><title>Node9</title>
<g id="a_node9"><a xlink:href="namespacesoftwarecontainer.html#aee26a680bb2961627889d39c9f874b2c" target="_top" xlink:title="waitForProcessTermination Waits for a process to terminate and then returns the status of the process...">
<polygon fill="white" stroke="black" points="136,-246 136,-276 272,-276 272,-246 136,-246"/>
<text text-anchor="start" x="144" y="-264" font-family="Helvetica,sans-Serif" font-size="10.00">softwarecontainer::</text>
<text text-anchor="middle" x="204" y="-253" font-family="Helvetica,sans-Serif" font-size="10.00">waitForProcessTermination</text>
</a>
</g>
</g>
<!-- Node1&#45;&gt;Node9 -->
<g id="edge11" class="edge"><title>Node1&#45;&gt;Node9</title>
<path fill="none" stroke="midnightblue" d="M102.945,-225.454C121.748,-232.134 142.741,-239.592 160.623,-245.945"/>
<polygon fill="midnightblue" stroke="midnightblue" points="103.935,-222.092 93.3405,-222.042 101.592,-228.688 103.935,-222.092"/>
</g>
<!-- Node2&#45;&gt;Node3 -->
<g id="edge2" class="edge"><title>Node2&#45;&gt;Node3</title>
<path fill="none" stroke="midnightblue" d="M266.677,-212.392C328.578,-217.805 424.184,-226.164 491.692,-232.066"/>
<polygon fill="midnightblue" stroke="midnightblue" points="266.929,-208.901 256.663,-211.517 266.32,-215.875 266.929,-208.901"/>
</g>
<!-- Node4&#45;&gt;Node3 -->
<g id="edge8" class="edge"><title>Node4&#45;&gt;Node3</title>
<path fill="none" stroke="midnightblue" d="M266.308,-152.421C336.808,-172.454 451.378,-205.009 518.117,-223.973"/>
<polygon fill="midnightblue" stroke="midnightblue" points="267.238,-149.047 256.663,-149.68 265.325,-155.78 267.238,-149.047"/>
</g>
<!-- Node5 -->
<g id="node5" class="node"><title>Node5</title>
<g id="a_node5"><a xlink:href="classsoftwarecontainer_1_1_file_toolkit_with_undo.html#a14711e649249d7f0b7e264c7d426ea23" target="_top" xlink:title="overlayMount Mount a directory with an overlay on top of it. ">
<polygon fill="white" stroke="black" points="329.5,-60.5 329.5,-101.5 434.5,-101.5 434.5,-60.5 329.5,-60.5"/>
<text text-anchor="start" x="337.5" y="-89.5" font-family="Helvetica,sans-Serif" font-size="10.00">softwarecontainer::</text>
<text text-anchor="start" x="337.5" y="-78.5" font-family="Helvetica,sans-Serif" font-size="10.00">FileToolkitWithUndo</text>
<text text-anchor="middle" x="382" y="-67.5" font-family="Helvetica,sans-Serif" font-size="10.00">::overlayMount</text>
</a>
</g>
</g>
<!-- Node4&#45;&gt;Node5 -->
<g id="edge5" class="edge"><title>Node4&#45;&gt;Node5</title>
<path fill="none" stroke="midnightblue" d="M266.69,-116.072C287.111,-109.807 309.613,-102.903 329.213,-96.8892"/>
<polygon fill="midnightblue" stroke="midnightblue" points="265.387,-112.811 256.854,-119.09 267.441,-119.503 265.387,-112.811"/>
</g>
<!-- Node7 -->
<g id="node7" class="node"><title>Node7</title>
<g id="a_node7"><a xlink:href="classsoftwarecontainer_1_1_container.html#a25102e42007fb34a93d982b231ae6c78" target="_top" xlink:title="Setup the container for startup. ">
<polygon fill="white" stroke="black" points="332,-120 332,-150 432,-150 432,-120 332,-120"/>
<text text-anchor="start" x="340" y="-138" font-family="Helvetica,sans-Serif" font-size="10.00">softwarecontainer::</text>
<text text-anchor="middle" x="382" y="-127" font-family="Helvetica,sans-Serif" font-size="10.00">Container::initialize</text>
</a>
</g>
</g>
<!-- Node4&#45;&gt;Node7 -->
<g id="edge7" class="edge"><title>Node4&#45;&gt;Node7</title>
<path fill="none" stroke="midnightblue" d="M267.091,-135C288.357,-135 311.839,-135 331.93,-135"/>
<polygon fill="midnightblue" stroke="midnightblue" points="266.854,-131.5 256.854,-135 266.854,-138.5 266.854,-131.5"/>
</g>
<!-- Node4&#45;&gt;Node8 -->
<g id="edge9" class="edge"><title>Node4&#45;&gt;Node8</title>
<path fill="none" stroke="midnightblue" d="M233.924,-107.497C253.671,-89.7423 281.045,-67.0488 308,-51 313.651,-47.6353 319.75,-44.4777 325.929,-41.5678"/>
<polygon fill="midnightblue" stroke="midnightblue" points="231.516,-104.956 226.483,-114.279 236.232,-110.13 231.516,-104.956"/>
</g>
<!-- Node6 -->
<g id="node6" class="node"><title>Node6</title>
<g id="a_node6"><a xlink:href="classsoftwarecontainer_1_1_container.html#a67f48ee29e9294f4f42436e1297d34c7" target="_top" xlink:title="create Creates a new lxc_container and creates it with all the initialization. ">
<polygon fill="white" stroke="black" points="522,-66 522,-96 622,-96 622,-66 522,-66"/>
<text text-anchor="start" x="530" y="-84" font-family="Helvetica,sans-Serif" font-size="10.00">softwarecontainer::</text>
<text text-anchor="middle" x="572" y="-73" font-family="Helvetica,sans-Serif" font-size="10.00">Container::create</text>
</a>
</g>
</g>
<!-- Node5&#45;&gt;Node6 -->
<g id="edge6" class="edge"><title>Node5&#45;&gt;Node6</title>
<path fill="none" stroke="midnightblue" d="M444.979,-81C469.963,-81 498.373,-81 521.887,-81"/>
<polygon fill="midnightblue" stroke="midnightblue" points="444.87,-77.5001 434.869,-81 444.869,-84.5001 444.87,-77.5001"/>
</g>
<!-- Node10 -->
<g id="node10" class="node"><title>Node10</title>
<g id="a_node10"><a xlink:href="classsoftwarecontainer_1_1_container.html#a480d9a7d3a2c0ee9d1756a2bdfc29f59" target="_top" xlink:title="synchronous version of execute ">
<polygon fill="white" stroke="black" points="321,-246 321,-276 443,-276 443,-246 321,-246"/>
<text text-anchor="start" x="329" y="-264" font-family="Helvetica,sans-Serif" font-size="10.00">softwarecontainer::</text>
<text text-anchor="middle" x="382" y="-253" font-family="Helvetica,sans-Serif" font-size="10.00">Container::executeSync</text>
</a>
</g>
</g>
<!-- Node9&#45;&gt;Node10 -->
<g id="edge12" class="edge"><title>Node9&#45;&gt;Node10</title>
<path fill="none" stroke="midnightblue" d="M282.293,-261C295.188,-261 308.394,-261 320.782,-261"/>
<polygon fill="midnightblue" stroke="midnightblue" points="282.04,-257.5 272.04,-261 282.04,-264.5 282.04,-257.5"/>
</g>
<!-- Node10&#45;&gt;Node3 -->
<g id="edge13" class="edge"><title>Node10&#45;&gt;Node3</title>
<path fill="none" stroke="midnightblue" d="M452.964,-252.813C465.576,-251.337 478.807,-249.789 491.663,-248.284"/>
<polygon fill="midnightblue" stroke="midnightblue" points="452.527,-249.34 443.001,-253.979 453.34,-256.292 452.527,-249.34"/>
</g>
</g>
</svg>
