<?xml version="1.0" encoding="UTF-8" standalone="no"?>
<!DOCTYPE svg PUBLIC "-//W3C//DTD SVG 1.1//EN"
 "http://www.w3.org/Graphics/SVG/1.1/DTD/svg11.dtd">
<!-- Generated by graphviz version 2.38.0 (20140413.2041)
 -->
<!-- Title: softwarecontainer::isDirectory Pages: 1 -->
<svg width="660pt" height="328pt"
 viewBox="0.00 0.00 660.00 327.90" xmlns="http://www.w3.org/2000/svg" xmlns:xlink="http://www.w3.org/1999/xlink">
<g id="graph0" class="graph" transform="scale(1 1) rotate(0) translate(4 323.895)">
<title>softwarecontainer::isDirectory</title>
<polygon fill="white" stroke="none" points="-4,4 -4,-323.895 656,-323.895 656,4 -4,4"/>
<!-- Node1 -->
<g id="node1" class="node"><title>Node1</title>
<polygon fill="#bfbfbf" stroke="black" points="0,-152 0,-182 100,-182 100,-152 0,-152"/>
<text text-anchor="start" x="8" y="-170" font-family="Helvetica,sans-Serif" font-size="10.00">softwarecontainer::</text>
<text text-anchor="middle" x="50" y="-159" font-family="Helvetica,sans-Serif" font-size="10.00">isDirectory</text>
</g>
<!-- Node2 -->
<g id="node2" class="node"><title>Node2</title>
<g id="a_node2"><a xlink:href="classsoftwarecontainer_1_1_file_toolkit_with_undo.html#a8f6b5cda214c9e412ab73313bc95d785" target="_top" xlink:title="bindMount Bind mount a src directory to another position dst. ">
<polygon fill="white" stroke="black" points="151.5,-178.5 151.5,-219.5 256.5,-219.5 256.5,-178.5 151.5,-178.5"/>
<text text-anchor="start" x="159.5" y="-207.5" font-family="Helvetica,sans-Serif" font-size="10.00">softwarecontainer::</text>
<text text-anchor="start" x="159.5" y="-196.5" font-family="Helvetica,sans-Serif" font-size="10.00">FileToolkitWithUndo</text>
<text text-anchor="middle" x="204" y="-185.5" font-family="Helvetica,sans-Serif" font-size="10.00">::bindMount</text>
</a>
</g>
</g>
<!-- Node1&#45;&gt;Node2 -->
<g id="edge1" class="edge"><title>Node1&#45;&gt;Node2</title>
<path fill="none" stroke="midnightblue" d="M110.483,-179.523C123.958,-182.36 138.161,-185.35 151.285,-188.113"/>
<polygon fill="midnightblue" stroke="midnightblue" points="110.857,-176.025 100.35,-177.389 109.414,-182.875 110.857,-176.025"/>
</g>
<!-- Node3 -->
<g id="node3" class="node"><title>Node3</title>
<g id="a_node3"><a xlink:href="classsoftwarecontainer_1_1_container.html#ae5445d6a0c4b8b006ed38b3c01bb870c" target="_top" xlink:title="Tries to bind mount a path from host to container. ">
<polygon fill="white" stroke="black" points="492,-224 492,-254 652,-254 652,-224 492,-224"/>
<text text-anchor="start" x="500" y="-242" font-family="Helvetica,sans-Serif" font-size="10.00">softwarecontainer::</text>
<text text-anchor="middle" x="572" y="-231" font-family="Helvetica,sans-Serif" font-size="10.00">Container::bindMountInContainer</text>
</a>
</g>
</g>
<!-- Node1&#45;&gt;Node3 -->
<g id="edge3" class="edge"><title>Node1&#45;&gt;Node3</title>
<path fill="none" stroke="midnightblue" d="M60.9294,-191.733C73.6522,-219.682 98.6269,-263.779 136,-283 262.478,-348.048 316.341,-311.896 456,-285 486.617,-279.104 519.445,-265.129 542.156,-254.119"/>
<polygon fill="midnightblue" stroke="midnightblue" points="63.998,-190.014 56.7962,-182.243 57.5803,-192.809 63.998,-190.014"/>
</g>
<!-- Node4 -->
<g id="node4" class="node"><title>Node4</title>
<g id="a_node4"><a xlink:href="classsoftwarecontainer_1_1_file_toolkit_with_undo.html#a35eb42bdace2695fb3e96cb84a535213" target="_top" xlink:title="createDirectory Create a directory, and if successful append it to a list of dirs to be deleted in th...">
<polygon fill="white" stroke="black" points="151.5,-115.5 151.5,-156.5 256.5,-156.5 256.5,-115.5 151.5,-115.5"/>
<text text-anchor="start" x="159.5" y="-144.5" font-family="Helvetica,sans-Serif" font-size="10.00">softwarecontainer::</text>
<text text-anchor="start" x="159.5" y="-133.5" font-family="Helvetica,sans-Serif" font-size="10.00">FileToolkitWithUndo</text>
<text text-anchor="middle" x="204" y="-122.5" font-family="Helvetica,sans-Serif" font-size="10.00">::createDirectory</text>
</a>
</g>
</g>
<!-- Node1&#45;&gt;Node4 -->
<g id="edge4" class="edge"><title>Node1&#45;&gt;Node4</title>
<path fill="none" stroke="midnightblue" d="M110.483,-154.869C123.958,-152.12 138.161,-149.224 151.285,-146.547"/>
<polygon fill="midnightblue" stroke="midnightblue" points="109.449,-151.507 100.35,-156.935 110.848,-158.366 109.449,-151.507"/>
</g>
<!-- Node8 -->
<g id="node8" class="node"><title>Node8</title>
<g id="a_node8"><a xlink:href="classsoftwarecontainer_1_1_software_container.html#aa699253aa7955f9d41c78324d5f49184" target="_top" xlink:title="Indicates if gateways have been configured previously. ">
<polygon fill="white" stroke="black" points="308,-0.5 308,-41.5 456,-41.5 456,-0.5 308,-0.5"/>
<text text-anchor="start" x="316" y="-29.5" font-family="Helvetica,sans-Serif" font-size="10.00">softwarecontainer::</text>
<text text-anchor="start" x="316" y="-18.5" font-family="Helvetica,sans-Serif" font-size="10.00">SoftwareContainer::previously</text>
<text text-anchor="middle" x="382" y="-7.5" font-family="Helvetica,sans-Serif" font-size="10.00">Configured</text>
</a>
</g>
</g>
<!-- Node1&#45;&gt;Node8 -->
<g id="edge11" class="edge"><title>Node1&#45;&gt;Node8</title>
<path fill="none" stroke="midnightblue" d="M60.5932,-142.659C73.2295,-114.162 98.3545,-68.0596 136,-46 187.737,-15.6833 256.32,-11.0812 307.763,-13.1174"/>
<polygon fill="midnightblue" stroke="midnightblue" points="57.3404,-141.365 56.6444,-151.937 63.7813,-144.106 57.3404,-141.365"/>
</g>
<!-- Node9 -->
<g id="node9" class="node"><title>Node9</title>
<g id="a_node9"><a xlink:href="classsoftwarecontainer_1_1_service_manifest_file_loader.html#a3e97e320f32a9767ca5a94426e5f520e" target="_top" xlink:title="Loads the json content from the Service Manifest(s) ">
<polygon fill="white" stroke="black" points="138,-55.5 138,-96.5 270,-96.5 270,-55.5 138,-55.5"/>
<text text-anchor="start" x="146" y="-84.5" font-family="Helvetica,sans-Serif" font-size="10.00">softwarecontainer::</text>
<text text-anchor="start" x="146" y="-73.5" font-family="Helvetica,sans-Serif" font-size="10.00">ServiceManifestFileLoader</text>
<text text-anchor="middle" x="204" y="-62.5" font-family="Helvetica,sans-Serif" font-size="10.00">::loadContent</text>
</a>
</g>
</g>
<!-- Node1&#45;&gt;Node9 -->
<g id="edge10" class="edge"><title>Node1&#45;&gt;Node9</title>
<path fill="none" stroke="midnightblue" d="M77.8384,-145.605C94.1162,-133.18 115.617,-117.717 136,-106 141.635,-102.761 147.684,-99.6213 153.758,-96.6707"/>
<polygon fill="midnightblue" stroke="midnightblue" points="75.608,-142.906 69.836,-151.79 79.8886,-148.444 75.608,-142.906"/>
</g>
<!-- Node10 -->
<g id="node10" class="node"><title>Node10</title>
<g id="a_node10"><a xlink:href="namespacesoftwarecontainer.html#aee26a680bb2961627889d39c9f874b2c" target="_top" xlink:title="waitForProcessTermination Waits for a process to terminate and then returns the status of the process...">
<polygon fill="white" stroke="black" points="136,-244 136,-274 272,-274 272,-244 136,-244"/>
<text text-anchor="start" x="144" y="-262" font-family="Helvetica,sans-Serif" font-size="10.00">softwarecontainer::</text>
<text text-anchor="middle" x="204" y="-251" font-family="Helvetica,sans-Serif" font-size="10.00">waitForProcessTermination</text>
</a>
</g>
</g>
<!-- Node1&#45;&gt;Node10 -->
<g id="edge12" class="edge"><title>Node1&#45;&gt;Node10</title>
<path fill="none" stroke="midnightblue" d="M77.4679,-188.531C93.7654,-201.214 115.414,-217.06 136,-229 145.261,-234.371 155.658,-239.448 165.448,-243.844"/>
<polygon fill="midnightblue" stroke="midnightblue" points="79.4873,-185.666 69.4671,-182.224 75.1538,-191.163 79.4873,-185.666"/>
</g>
<!-- Node2&#45;&gt;Node3 -->
<g id="edge2" class="edge"><title>Node2&#45;&gt;Node3</title>
<path fill="none" stroke="midnightblue" d="M266.677,-205.741C328.578,-212.506 424.184,-222.955 491.692,-230.332"/>
<polygon fill="midnightblue" stroke="midnightblue" points="266.984,-202.253 256.663,-204.646 266.223,-209.212 266.984,-202.253"/>
</g>
<!-- Node4&#45;&gt;Node3 -->
<g id="edge8" class="edge"><title>Node4&#45;&gt;Node3</title>
<path fill="none" stroke="midnightblue" d="M266.712,-153.367C337.034,-173.157 450.823,-205.18 517.52,-223.949"/>
<polygon fill="midnightblue" stroke="midnightblue" points="267.237,-149.879 256.663,-150.539 265.341,-156.617 267.237,-149.879"/>
</g>
<!-- Node5 -->
<g id="node5" class="node"><title>Node5</title>
<g id="a_node5"><a xlink:href="classsoftwarecontainer_1_1_file_toolkit_with_undo.html#a14711e649249d7f0b7e264c7d426ea23" target="_top" xlink:title="overlayMount Mount a directory with an overlay on top of it. ">
<polygon fill="white" stroke="black" points="329.5,-60.5 329.5,-101.5 434.5,-101.5 434.5,-60.5 329.5,-60.5"/>
<text text-anchor="start" x="337.5" y="-89.5" font-family="Helvetica,sans-Serif" font-size="10.00">softwarecontainer::</text>
<text text-anchor="start" x="337.5" y="-78.5" font-family="Helvetica,sans-Serif" font-size="10.00">FileToolkitWithUndo</text>
<text text-anchor="middle" x="382" y="-67.5" font-family="Helvetica,sans-Serif" font-size="10.00">::overlayMount</text>
</a>
</g>
</g>
<!-- Node4&#45;&gt;Node5 -->
<g id="edge5" class="edge"><title>Node4&#45;&gt;Node5</title>
<path fill="none" stroke="midnightblue" d="M266.411,-116.809C286.906,-110.404 309.524,-103.336 329.213,-97.1835"/>
<polygon fill="midnightblue" stroke="midnightblue" points="265.355,-113.472 256.854,-119.796 267.443,-120.154 265.355,-113.472"/>
</g>
<!-- Node7 -->
<g id="node7" class="node"><title>Node7</title>
<g id="a_node7"><a xlink:href="classsoftwarecontainer_1_1_container.html#a25102e42007fb34a93d982b231ae6c78" target="_top" xlink:title="Setup the container for startup. ">
<polygon fill="white" stroke="black" points="332,-120 332,-150 432,-150 432,-120 332,-120"/>
<text text-anchor="start" x="340" y="-138" font-family="Helvetica,sans-Serif" font-size="10.00">softwarecontainer::</text>
<text text-anchor="middle" x="382" y="-127" font-family="Helvetica,sans-Serif" font-size="10.00">Container::initialize</text>
</a>
</g>
</g>
<!-- Node4&#45;&gt;Node7 -->
<g id="edge7" class="edge"><title>Node4&#45;&gt;Node7</title>
<path fill="none" stroke="midnightblue" d="M267.091,-135.647C288.357,-135.526 311.839,-135.393 331.93,-135.279"/>
<polygon fill="midnightblue" stroke="midnightblue" points="266.834,-132.149 256.854,-135.705 266.874,-139.148 266.834,-132.149"/>
</g>
<!-- Node4&#45;&gt;Node8 -->
<g id="edge9" class="edge"><title>Node4&#45;&gt;Node8</title>
<path fill="none" stroke="midnightblue" d="M265.093,-111.299C267.502,-109.626 269.818,-107.861 272,-106 294.23,-87.0428 285.479,-69.6095 308,-51 312.225,-47.5088 316.912,-44.3762 321.813,-41.5753"/>
<polygon fill="midnightblue" stroke="midnightblue" points="263.207,-108.349 256.598,-116.63 266.929,-114.278 263.207,-108.349"/>
</g>
<!-- Node6 -->
<g id="node6" class="node"><title>Node6</title>
<g id="a_node6"><a xlink:href="classsoftwarecontainer_1_1_container.html#a67f48ee29e9294f4f42436e1297d34c7" target="_top" xlink:title="create Creates a new lxc_container and creates it with all the initialization. ">
<polygon fill="white" stroke="black" points="522,-66 522,-96 622,-96 622,-66 522,-66"/>
<text text-anchor="start" x="530" y="-84" font-family="Helvetica,sans-Serif" font-size="10.00">softwarecontainer::</text>
<text text-anchor="middle" x="572" y="-73" font-family="Helvetica,sans-Serif" font-size="10.00">Container::create</text>
</a>
</g>
</g>
<!-- Node5&#45;&gt;Node6 -->
<g id="edge6" class="edge"><title>Node5&#45;&gt;Node6</title>
<path fill="none" stroke="midnightblue" d="M444.979,-81C469.963,-81 498.373,-81 521.887,-81"/>
<polygon fill="midnightblue" stroke="midnightblue" points="444.87,-77.5001 434.869,-81 444.869,-84.5001 444.87,-77.5001"/>
</g>
<!-- Node11 -->
<g id="node11" class="node"><title>Node11</title>
<g id="a_node11"><a xlink:href="classsoftwarecontainer_1_1_container.html#a480d9a7d3a2c0ee9d1756a2bdfc29f59" target="_top" xlink:title="synchronous version of execute ">
<polygon fill="white" stroke="black" points="321,-246 321,-276 443,-276 443,-246 321,-246"/>
<text text-anchor="start" x="329" y="-264" font-family="Helvetica,sans-Serif" font-size="10.00">softwarecontainer::</text>
<text text-anchor="middle" x="382" y="-253" font-family="Helvetica,sans-Serif" font-size="10.00">Container::executeSync</text>
</a>
</g>
</g>
<!-- Node10&#45;&gt;Node11 -->
<g id="edge13" class="edge"><title>Node10&#45;&gt;Node11</title>
<path fill="none" stroke="midnightblue" d="M282.293,-259.878C295.188,-260.025 308.394,-260.175 320.782,-260.316"/>
<polygon fill="midnightblue" stroke="midnightblue" points="282.079,-256.376 272.04,-259.762 282,-263.375 282.079,-256.376"/>
</g>
<!-- Node11&#45;&gt;Node3 -->
<g id="edge14" class="edge"><title>Node11&#45;&gt;Node3</title>
<path fill="none" stroke="midnightblue" d="M452.964,-252.813C465.576,-251.337 478.807,-249.789 491.663,-248.284"/>
<polygon fill="midnightblue" stroke="midnightblue" points="452.527,-249.34 443.001,-253.979 453.34,-256.292 452.527,-249.34"/>
</g>
</g>
</svg>
