<?xml version="1.0" encoding="UTF-8" standalone="no"?>
<!DOCTYPE svg PUBLIC "-//W3C//DTD SVG 1.1//EN"
 "http://www.w3.org/Graphics/SVG/1.1/DTD/svg11.dtd">
<!-- Generated by graphviz version 2.38.0 (20140413.2041)
 -->
<!-- Title: softwarecontainer::isError Pages: 1 -->
<svg width="684pt" height="1497pt"
 viewBox="0.00 0.00 684.00 1497.00" xmlns="http://www.w3.org/2000/svg" xmlns:xlink="http://www.w3.org/1999/xlink">
<g id="graph0" class="graph" transform="scale(1 1) rotate(0) translate(4 1493)">
<title>softwarecontainer::isError</title>
<polygon fill="white" stroke="none" points="-4,4 -4,-1493 680,-1493 680,4 -4,4"/>
<!-- Node1 -->
<g id="node1" class="node"><title>Node1</title>
<polygon fill="#bfbfbf" stroke="black" points="0,-771.5 0,-801.5 100,-801.5 100,-771.5 0,-771.5"/>
<text text-anchor="start" x="8" y="-789.5" font-family="Helvetica,sans-Serif" font-size="10.00">softwarecontainer::</text>
<text text-anchor="middle" x="50" y="-778.5" font-family="Helvetica,sans-Serif" font-size="10.00">isError</text>
</g>
<!-- Node2 -->
<g id="node2" class="node"><title>Node2</title>
<g id="a_node2"><a xlink:href="classsoftwarecontainer_1_1_d_bus_gateway.html#a7ba4cdcf870915d57f9f36ed68f7c33a" target="_top" xlink:title="Activates both dbus session instances. ">
<polygon fill="white" stroke="black" points="165.5,-1458.5 165.5,-1488.5 286.5,-1488.5 286.5,-1458.5 165.5,-1458.5"/>
<text text-anchor="start" x="173.5" y="-1476.5" font-family="Helvetica,sans-Serif" font-size="10.00">softwarecontainer::</text>
<text text-anchor="middle" x="226" y="-1465.5" font-family="Helvetica,sans-Serif" font-size="10.00">DBusGateway::activate</text>
</a>
</g>
</g>
<!-- Node1&#45;&gt;Node2 -->
<g id="edge1" class="edge"><title>Node1&#45;&gt;Node2</title>
<path fill="none" stroke="midnightblue" d="M50.8173,-811.718C50.5345,-919.992 54.7069,-1344.43 136,-1443.5 143.551,-1452.7 154.032,-1459.09 165.159,-1463.53"/>
<polygon fill="midnightblue" stroke="midnightblue" points="54.3172,-811.722 50.8592,-801.708 47.3172,-811.693 54.3172,-811.722"/>
</g>
<!-- Node3 -->
<g id="node3" class="node"><title>Node3</title>
<g id="a_node3"><a xlink:href="classsoftwarecontainer_1_1_network_gateway.html#a8a08792ecd43b1694222ca286514ee21" target="_top" xlink:title="Implements Gateway::activateGateway. ">
<polygon fill="white" stroke="black" points="352,-1451.5 352,-1481.5 524,-1481.5 524,-1451.5 352,-1451.5"/>
<text text-anchor="start" x="360" y="-1469.5" font-family="Helvetica,sans-Serif" font-size="10.00">softwarecontainer::</text>
<text text-anchor="middle" x="438" y="-1458.5" font-family="Helvetica,sans-Serif" font-size="10.00">NetworkGateway::activateGateway</text>
</a>
</g>
</g>
<!-- Node1&#45;&gt;Node3 -->
<g id="edge2" class="edge"><title>Node1&#45;&gt;Node3</title>
<path fill="none" stroke="midnightblue" d="M50.6718,-811.749C49.8413,-917.396 52.2415,-1322.57 136,-1410.5 143.527,-1418.4 265.303,-1439.22 351.624,-1453.12"/>
<polygon fill="midnightblue" stroke="midnightblue" points="54.1721,-811.718 50.7686,-801.685 47.1724,-811.651 54.1721,-811.718"/>
</g>
<!-- Node4 -->
<g id="node4" class="node"><title>Node4</title>
<g id="a_node4"><a xlink:href="classsoftwarecontainer_1_1_software_container_agent.html#a97d427dada015dc9337ce5673f55ec9f" target="_top" xlink:title="Bind mount a folder into the container. ">
<polygon fill="white" stroke="black" points="164.5,-1251 164.5,-1292 287.5,-1292 287.5,-1251 164.5,-1251"/>
<text text-anchor="start" x="172.5" y="-1280" font-family="Helvetica,sans-Serif" font-size="10.00">softwarecontainer::</text>
<text text-anchor="start" x="172.5" y="-1269" font-family="Helvetica,sans-Serif" font-size="10.00">SoftwareContainerAgent</text>
<text text-anchor="middle" x="226" y="-1258" font-family="Helvetica,sans-Serif" font-size="10.00">::bindMount</text>
</a>
</g>
</g>
<!-- Node1&#45;&gt;Node4 -->
<g id="edge3" class="edge"><title>Node1&#45;&gt;Node4</title>
<path fill="none" stroke="midnightblue" d="M52.6034,-811.708C58.4729,-896.607 81.3633,-1170.49 136,-1236.5 143.411,-1245.45 153.423,-1252.13 164.06,-1257.1"/>
<polygon fill="midnightblue" stroke="midnightblue" points="56.0914,-811.409 51.9285,-801.667 49.1071,-811.879 56.0914,-811.409"/>
</g>
<!-- Node5 -->
<g id="node5" class="node"><title>Node5</title>
<g id="a_node5"><a xlink:href="classsoftwarecontainer_1_1_netlink.html#acf303ede6bab6850147376b9a0d3ea7b" target="_top" xlink:title="check for a kernel dump, and if not present, try to get one ">
<polygon fill="white" stroke="black" points="371,-1136.5 371,-1166.5 505,-1166.5 505,-1136.5 371,-1136.5"/>
<text text-anchor="start" x="379" y="-1154.5" font-family="Helvetica,sans-Serif" font-size="10.00">softwarecontainer::</text>
<text text-anchor="middle" x="438" y="-1143.5" font-family="Helvetica,sans-Serif" font-size="10.00">Netlink::checkKernelDump</text>
</a>
</g>
</g>
<!-- Node1&#45;&gt;Node5 -->
<g id="edge4" class="edge"><title>Node1&#45;&gt;Node5</title>
<path fill="none" stroke="midnightblue" d="M52.7188,-812.203C58.512,-890.076 80.1811,-1120.81 136,-1165.5 213.185,-1227.29 340.464,-1190.21 401.8,-1166.57"/>
<polygon fill="midnightblue" stroke="midnightblue" points="56.1837,-811.587 51.9771,-801.863 49.2017,-812.088 56.1837,-811.587"/>
</g>
<!-- Node6 -->
<g id="node6" class="node"><title>Node6</title>
<g id="a_node6"><a xlink:href="classsoftwarecontainer_1_1_netlink.html#abaaa3af391069f8b624edd0c066eb958" target="_top" xlink:title="Bring the given interface up. ">
<polygon fill="white" stroke="black" points="568,-1168.5 568,-1198.5 668,-1198.5 668,-1168.5 568,-1168.5"/>
<text text-anchor="start" x="576" y="-1186.5" font-family="Helvetica,sans-Serif" font-size="10.00">softwarecontainer::</text>
<text text-anchor="middle" x="618" y="-1175.5" font-family="Helvetica,sans-Serif" font-size="10.00">Netlink::linkUp</text>
</a>
</g>
</g>
<!-- Node1&#45;&gt;Node6 -->
<g id="edge26" class="edge"><title>Node1&#45;&gt;Node6</title>
<path fill="none" stroke="midnightblue" d="M52.2562,-812.031C56.8619,-893.773 75.8212,-1146.54 136,-1195.5 200.879,-1248.28 458.571,-1211.15 567.732,-1192.47"/>
<polygon fill="midnightblue" stroke="midnightblue" points="55.7311,-811.469 51.6988,-801.671 48.7412,-811.845 55.7311,-811.469"/>
</g>
<!-- Node7 -->
<g id="node7" class="node"><title>Node7</title>
<g id="a_node7"><a xlink:href="classsoftwarecontainer_1_1_netlink.html#a07b353cd40aeffd94d9fb03d9cdd1119" target="_top" xlink:title="Check that the device given is a network bridge. ">
<polygon fill="white" stroke="black" points="568,-1103.5 568,-1133.5 668,-1133.5 668,-1103.5 568,-1103.5"/>
<text text-anchor="start" x="576" y="-1121.5" font-family="Helvetica,sans-Serif" font-size="10.00">softwarecontainer::</text>
<text text-anchor="middle" x="618" y="-1110.5" font-family="Helvetica,sans-Serif" font-size="10.00">Netlink::findLink</text>
</a>
</g>
</g>
<!-- Node1&#45;&gt;Node7 -->
<g id="edge15" class="edge"><title>Node1&#45;&gt;Node7</title>
<path fill="none" stroke="midnightblue" d="M51.9574,-811.813C55.294,-861.111 70.1512,-969.855 136,-1023.5 203.515,-1078.5 440.153,-1054.98 524,-1078.5 545.999,-1084.67 569.638,-1094.89 587.578,-1103.45"/>
<polygon fill="midnightblue" stroke="midnightblue" points="55.4443,-811.482 51.381,-801.697 48.4556,-811.88 55.4443,-811.482"/>
</g>
<!-- Node8 -->
<g id="node8" class="node"><title>Node8</title>
<g id="a_node8"><a xlink:href="classsoftwarecontainer_1_1_netlink.html#aec31c67231b12f8a1702054e13029cbb" target="_top" xlink:title="Get all addresses associated with the given interface index. ">
<polygon fill="white" stroke="black" points="560,-1029.5 560,-1059.5 676,-1059.5 676,-1029.5 560,-1029.5"/>
<text text-anchor="start" x="568" y="-1047.5" font-family="Helvetica,sans-Serif" font-size="10.00">softwarecontainer::</text>
<text text-anchor="middle" x="618" y="-1036.5" font-family="Helvetica,sans-Serif" font-size="10.00">Netlink::findAddresses</text>
</a>
</g>
</g>
<!-- Node1&#45;&gt;Node8 -->
<g id="edge14" class="edge"><title>Node1&#45;&gt;Node8</title>
<path fill="none" stroke="midnightblue" d="M53.1838,-811.764C58.5391,-856.701 76.5958,-949.973 136,-994.5 169.296,-1019.46 439.486,-1035.75 559.694,-1041.82"/>
<polygon fill="midnightblue" stroke="midnightblue" points="56.6496,-811.258 52.1021,-801.688 49.6896,-812.005 56.6496,-811.258"/>
</g>
<!-- Node9 -->
<g id="node9" class="node"><title>Node9</title>
<g id="a_node9"><a xlink:href="classsoftwarecontainer_1_1_file_toolkit_with_undo.html#aff5073fb683649d6753baae354d202b9" target="_top" xlink:title="createDirectory Create a directory, and if successful append it to a list of dirs to be deleted in th...">
<polygon fill="white" stroke="black" points="173.5,-913 173.5,-954 278.5,-954 278.5,-913 173.5,-913"/>
<text text-anchor="start" x="181.5" y="-942" font-family="Helvetica,sans-Serif" font-size="10.00">softwarecontainer::</text>
<text text-anchor="start" x="181.5" y="-931" font-family="Helvetica,sans-Serif" font-size="10.00">FileToolkitWithUndo</text>
<text text-anchor="middle" x="226" y="-920" font-family="Helvetica,sans-Serif" font-size="10.00">::createDirectory</text>
</a>
</g>
</g>
<!-- Node1&#45;&gt;Node9 -->
<g id="edge8" class="edge"><title>Node1&#45;&gt;Node9</title>
<path fill="none" stroke="midnightblue" d="M63.9026,-810.521C78.4444,-835.567 104.25,-874.456 136,-898.5 146.986,-906.82 160.204,-913.423 173.051,-918.55"/>
<polygon fill="midnightblue" stroke="midnightblue" points="66.8607,-808.642 58.8919,-801.66 60.7674,-812.088 66.8607,-808.642"/>
</g>
<!-- Node10 -->
<g id="node10" class="node"><title>Node10</title>
<g id="a_node10"><a xlink:href="classsoftwarecontainer_1_1_file_toolkit_with_undo.html#ab46eccba563b861f100d9ce7fa9ca4d6" target="_top" xlink:title="overlayMount Mount a directory with an overlay on top of it. ">
<polygon fill="white" stroke="black" points="385.5,-951 385.5,-992 490.5,-992 490.5,-951 385.5,-951"/>
<text text-anchor="start" x="393.5" y="-980" font-family="Helvetica,sans-Serif" font-size="10.00">softwarecontainer::</text>
<text text-anchor="start" x="393.5" y="-969" font-family="Helvetica,sans-Serif" font-size="10.00">FileToolkitWithUndo</text>
<text text-anchor="middle" x="438" y="-958" font-family="Helvetica,sans-Serif" font-size="10.00">::overlayMount</text>
</a>
</g>
</g>
<!-- Node1&#45;&gt;Node10 -->
<g id="edge28" class="edge"><title>Node1&#45;&gt;Node10</title>
<path fill="none" stroke="midnightblue" d="M54.7145,-811.56C62.1405,-851.634 82.93,-929.121 136,-963.5 211.463,-1012.39 321.399,-999.192 385.419,-985.271"/>
<polygon fill="midnightblue" stroke="midnightblue" points="58.1364,-810.806 52.9944,-801.543 51.2374,-811.991 58.1364,-810.806"/>
</g>
<!-- Node12 -->
<g id="node12" class="node"><title>Node12</title>
<g id="a_node12"><a xlink:href="classsoftwarecontainer_1_1_container.html#a8461f293ef5db5ee5fbdeddd24f36214" target="_top" xlink:title="Setup the container for startup. ">
<polygon fill="white" stroke="black" points="388,-885.5 388,-915.5 488,-915.5 488,-885.5 388,-885.5"/>
<text text-anchor="start" x="396" y="-903.5" font-family="Helvetica,sans-Serif" font-size="10.00">softwarecontainer::</text>
<text text-anchor="middle" x="438" y="-892.5" font-family="Helvetica,sans-Serif" font-size="10.00">Container::initialize</text>
</a>
</g>
</g>
<!-- Node1&#45;&gt;Node12 -->
<g id="edge19" class="edge"><title>Node1&#45;&gt;Node12</title>
<path fill="none" stroke="midnightblue" d="M68.8009,-809.717C84.3695,-828.173 108.715,-852.911 136,-865.5 179.649,-885.64 314.37,-894.862 387.893,-898.49"/>
<polygon fill="midnightblue" stroke="midnightblue" points="71.3244,-807.274 62.2863,-801.746 65.9042,-811.704 71.3244,-807.274"/>
</g>
<!-- Node13 -->
<g id="node13" class="node"><title>Node13</title>
<g id="a_node13"><a xlink:href="classsoftwarecontainer_1_1_container.html#aaff4ed1ad7fbbe7e34b047fd9e80fdb7" target="_top" xlink:title="Executes a commandline. ">
<polygon fill="white" stroke="black" points="176,-825.5 176,-855.5 276,-855.5 276,-825.5 176,-825.5"/>
<text text-anchor="start" x="184" y="-843.5" font-family="Helvetica,sans-Serif" font-size="10.00">softwarecontainer::</text>
<text text-anchor="middle" x="226" y="-832.5" font-family="Helvetica,sans-Serif" font-size="10.00">Container::execute</text>
</a>
</g>
</g>
<!-- Node1&#45;&gt;Node13 -->
<g id="edge12" class="edge"><title>Node1&#45;&gt;Node13</title>
<path fill="none" stroke="midnightblue" d="M101.569,-805.056C112.848,-808.997 124.789,-813.015 136,-816.5 148.837,-820.49 162.832,-824.445 175.843,-827.96"/>
<polygon fill="midnightblue" stroke="midnightblue" points="102.457,-801.658 91.8622,-801.629 100.126,-808.259 102.457,-801.658"/>
</g>
<!-- Node14 -->
<g id="node14" class="node"><title>Node14</title>
<g id="a_node14"><a xlink:href="classsoftwarecontainer_1_1_software_container_agent.html#aef2eb474a1a8406815536cb7d10eefe6" target="_top" xlink:title="Launch the given command in a the given container. ">
<polygon fill="white" stroke="black" points="164.5,-766 164.5,-807 287.5,-807 287.5,-766 164.5,-766"/>
<text text-anchor="start" x="172.5" y="-795" font-family="Helvetica,sans-Serif" font-size="10.00">softwarecontainer::</text>
<text text-anchor="start" x="172.5" y="-784" font-family="Helvetica,sans-Serif" font-size="10.00">SoftwareContainerAgent</text>
<text text-anchor="middle" x="226" y="-773" font-family="Helvetica,sans-Serif" font-size="10.00">::execute</text>
</a>
</g>
</g>
<!-- Node1&#45;&gt;Node14 -->
<g id="edge13" class="edge"><title>Node1&#45;&gt;Node14</title>
<path fill="none" stroke="midnightblue" d="M110.425,-786.5C127.823,-786.5 146.861,-786.5 164.334,-786.5"/>
<polygon fill="midnightblue" stroke="midnightblue" points="110.396,-783 100.396,-786.5 110.396,-790 110.396,-783"/>
</g>
<!-- Node15 -->
<g id="node15" class="node"><title>Node15</title>
<g id="a_node15"><a xlink:href="classsoftwarecontainer_1_1_netlink.html#a1756adb8382b2ed3c1518567862139c1" target="_top" xlink:title="get a dump of all links, addresses and routes from the kernel. ">
<polygon fill="white" stroke="black" points="165.5,-1125.5 165.5,-1155.5 286.5,-1155.5 286.5,-1125.5 165.5,-1125.5"/>
<text text-anchor="start" x="173.5" y="-1143.5" font-family="Helvetica,sans-Serif" font-size="10.00">softwarecontainer::</text>
<text text-anchor="middle" x="226" y="-1132.5" font-family="Helvetica,sans-Serif" font-size="10.00">Netlink::getKernelDump</text>
</a>
</g>
</g>
<!-- Node1&#45;&gt;Node15 -->
<g id="edge16" class="edge"><title>Node1&#45;&gt;Node15</title>
<path fill="none" stroke="midnightblue" d="M54.5018,-811.812C64.4306,-880.167 94.7401,-1066.31 136,-1110.5 143.901,-1118.96 154.265,-1125.04 165.118,-1129.4"/>
<polygon fill="midnightblue" stroke="midnightblue" points="57.913,-810.941 53.0347,-801.536 50.9833,-811.93 57.913,-810.941"/>
</g>
<!-- Node16 -->
<g id="node16" class="node"><title>Node16</title>
<g id="a_node16"><a xlink:href="classsoftwarecontainer_1_1_netlink.html#a2a6160a9363a9660c82276342dcaf477" target="_top" xlink:title="Construct a new Netlink object. ">
<polygon fill="white" stroke="black" points="388,-1087.5 388,-1117.5 488,-1117.5 488,-1087.5 388,-1087.5"/>
<text text-anchor="start" x="396" y="-1105.5" font-family="Helvetica,sans-Serif" font-size="10.00">softwarecontainer::</text>
<text text-anchor="middle" x="438" y="-1094.5" font-family="Helvetica,sans-Serif" font-size="10.00">Netlink::Netlink</text>
</a>
</g>
</g>
<!-- Node1&#45;&gt;Node16 -->
<g id="edge27" class="edge"><title>Node1&#45;&gt;Node16</title>
<path fill="none" stroke="midnightblue" d="M54.8127,-811.442C65.0101,-874.662 94.9515,-1038.58 136,-1072.5 173.243,-1103.28 312.446,-1105.31 387.802,-1104.02"/>
<polygon fill="midnightblue" stroke="midnightblue" points="58.2635,-810.855 53.2428,-801.525 51.3496,-811.95 58.2635,-810.855"/>
</g>
<!-- Node17 -->
<g id="node17" class="node"><title>Node17</title>
<g id="a_node17"><a xlink:href="namespacesoftwarecontainer.html#a7e308629b69d1bcc3bc5e8ceac9b5a2a" target="_top" xlink:title="isSuccess Check if ReturnCode indicates Success or not ">
<polygon fill="white" stroke="black" points="176,-1370.5 176,-1400.5 276,-1400.5 276,-1370.5 176,-1370.5"/>
<text text-anchor="start" x="184" y="-1388.5" font-family="Helvetica,sans-Serif" font-size="10.00">softwarecontainer::</text>
<text text-anchor="middle" x="226" y="-1377.5" font-family="Helvetica,sans-Serif" font-size="10.00">isSuccess</text>
</a>
</g>
</g>
<!-- Node1&#45;&gt;Node17 -->
<g id="edge20" class="edge"><title>Node1&#45;&gt;Node17</title>
<path fill="none" stroke="midnightblue" d="M51.1844,-811.831C52.4314,-911.914 62.0551,-1278.39 136,-1361.5 146.105,-1372.86 160.967,-1379.09 175.663,-1382.44"/>
<polygon fill="midnightblue" stroke="midnightblue" points="54.6832,-811.689 51.0765,-801.727 47.6836,-811.764 54.6832,-811.689"/>
</g>
<!-- Node21 -->
<g id="node21" class="node"><title>Node21</title>
<g id="a_node21"><a xlink:href="classsoftwarecontainer_1_1_netlink.html#ab6cfc59121b64f8cf5a89b706b77826b" target="_top" xlink:title="Bring a given interface down. ">
<polygon fill="white" stroke="black" points="176,-717.5 176,-747.5 276,-747.5 276,-717.5 176,-717.5"/>
<text text-anchor="start" x="184" y="-735.5" font-family="Helvetica,sans-Serif" font-size="10.00">softwarecontainer::</text>
<text text-anchor="middle" x="226" y="-724.5" font-family="Helvetica,sans-Serif" font-size="10.00">Netlink::linkDown</text>
</a>
</g>
</g>
<!-- Node1&#45;&gt;Node21 -->
<g id="edge25" class="edge"><title>Node1&#45;&gt;Node21</title>
<path fill="none" stroke="midnightblue" d="M101.569,-767.944C112.848,-764.003 124.789,-759.985 136,-756.5 148.837,-752.51 162.832,-748.555 175.843,-745.04"/>
<polygon fill="midnightblue" stroke="midnightblue" points="100.126,-764.741 91.8622,-771.371 102.457,-771.342 100.126,-764.741"/>
</g>
<!-- Node22 -->
<g id="node22" class="node"><title>Node22</title>
<g id="a_node22"><a xlink:href="classsoftwarecontainer_1_1_network_gateway_parser.html#a3139a32ac1978488b7a7f9e8474ecea4" target="_top" xlink:title="Parses NetworkGateway configuration into IPTableEntry. ">
<polygon fill="white" stroke="black" points="136,-1311 136,-1352 316,-1352 316,-1311 136,-1311"/>
<text text-anchor="start" x="144" y="-1340" font-family="Helvetica,sans-Serif" font-size="10.00">softwarecontainer::</text>
<text text-anchor="start" x="144" y="-1329" font-family="Helvetica,sans-Serif" font-size="10.00">NetworkGatewayParser</text>
<text text-anchor="middle" x="226" y="-1318" font-family="Helvetica,sans-Serif" font-size="10.00">::parseNetworkGatewayConfiguration</text>
</a>
</g>
</g>
<!-- Node1&#45;&gt;Node22 -->
<g id="edge29" class="edge"><title>Node1&#45;&gt;Node22</title>
<path fill="none" stroke="midnightblue" d="M51.8153,-811.721C55.3102,-904.605 71.909,-1226.12 136,-1301.5 138.957,-1304.98 142.332,-1308.05 145.999,-1310.78"/>
<polygon fill="midnightblue" stroke="midnightblue" points="55.3071,-811.427 51.4518,-801.559 48.3116,-811.678 55.3071,-811.427"/>
</g>
<!-- Node23 -->
<g id="node23" class="node"><title>Node23</title>
<g id="a_node23"><a xlink:href="classsoftwarecontainer_1_1_environment_gateway.html#ad58a972633ebc7fed2d8d455900e7ed4" target="_top" xlink:title="Gateway specific parsing of config elements. ">
<polygon fill="white" stroke="black" points="168,-658 168,-699 284,-699 284,-658 168,-658"/>
<text text-anchor="start" x="176" y="-687" font-family="Helvetica,sans-Serif" font-size="10.00">softwarecontainer::</text>
<text text-anchor="start" x="176" y="-676" font-family="Helvetica,sans-Serif" font-size="10.00">EnvironmentGateway::</text>
<text text-anchor="middle" x="226" y="-665" font-family="Helvetica,sans-Serif" font-size="10.00">readConfigElement</text>
</a>
</g>
</g>
<!-- Node1&#45;&gt;Node23 -->
<g id="edge31" class="edge"><title>Node1&#45;&gt;Node23</title>
<path fill="none" stroke="midnightblue" d="M70.754,-763.802C86.8228,-746.557 110.88,-723.347 136,-708.5 145.826,-702.693 156.933,-697.818 167.885,-693.8"/>
<polygon fill="midnightblue" stroke="midnightblue" points="68.1099,-761.508 63.9581,-771.255 73.2823,-766.224 68.1099,-761.508"/>
</g>
<!-- Node24 -->
<g id="node24" class="node"><title>Node24</title>
<g id="a_node24"><a xlink:href="classsoftwarecontainer_1_1_file_gateway.html#af9355afbe0fa41df8309a55d08eda7f2" target="_top" xlink:title="Gateway specific parsing of config elements. ">
<polygon fill="white" stroke="black" points="145.5,-609.5 145.5,-639.5 306.5,-639.5 306.5,-609.5 145.5,-609.5"/>
<text text-anchor="start" x="153.5" y="-627.5" font-family="Helvetica,sans-Serif" font-size="10.00">softwarecontainer::</text>
<text text-anchor="middle" x="226" y="-616.5" font-family="Helvetica,sans-Serif" font-size="10.00">FileGateway::readConfigElement</text>
</a>
</g>
</g>
<!-- Node1&#45;&gt;Node24 -->
<g id="edge32" class="edge"><title>Node1&#45;&gt;Node24</title>
<path fill="none" stroke="midnightblue" d="M59.624,-761.783C71.7682,-730.643 96.8956,-677.68 136,-648.5 140.617,-645.055 145.696,-642.103 151.015,-639.576"/>
<polygon fill="midnightblue" stroke="midnightblue" points="56.2363,-760.849 56.0018,-771.442 62.7905,-763.308 56.2363,-760.849"/>
</g>
<!-- Node25 -->
<g id="node25" class="node"><title>Node25</title>
<g id="a_node25"><a xlink:href="classsoftwarecontainer_1_1_d_bus_gateway_instance.html#a4cf958746ad9911ebb99b9eeb8392060" target="_top" xlink:title="Gateway specific parsing of config elements. ">
<polygon fill="white" stroke="black" points="167,-550 167,-591 285,-591 285,-550 167,-550"/>
<text text-anchor="start" x="175" y="-579" font-family="Helvetica,sans-Serif" font-size="10.00">softwarecontainer::</text>
<text text-anchor="start" x="175" y="-568" font-family="Helvetica,sans-Serif" font-size="10.00">DBusGatewayInstance</text>
<text text-anchor="middle" x="226" y="-557" font-family="Helvetica,sans-Serif" font-size="10.00">::readConfigElement</text>
</a>
</g>
</g>
<!-- Node1&#45;&gt;Node25 -->
<g id="edge33" class="edge"><title>Node1&#45;&gt;Node25</title>
<path fill="none" stroke="midnightblue" d="M55.7909,-761.391C64.6535,-721.675 87.3263,-644.378 136,-600.5 144.72,-592.639 155.575,-586.827 166.674,-582.533"/>
<polygon fill="midnightblue" stroke="midnightblue" points="52.3376,-760.805 53.6921,-771.312 59.1861,-762.253 52.3376,-760.805"/>
</g>
<!-- Node26 -->
<g id="node26" class="node"><title>Node26</title>
<g id="a_node26"><a xlink:href="classsoftwarecontainer_1_1_device_node_gateway.html#a0734b6ab0ccd33f80c3139962a55f114" target="_top" xlink:title="Gateway specific parsing of config elements. ">
<polygon fill="white" stroke="black" points="144.5,-490 144.5,-531 307.5,-531 307.5,-490 144.5,-490"/>
<text text-anchor="start" x="152.5" y="-519" font-family="Helvetica,sans-Serif" font-size="10.00">softwarecontainer::</text>
<text text-anchor="start" x="152.5" y="-508" font-family="Helvetica,sans-Serif" font-size="10.00">DeviceNodeGateway::readConfig</text>
<text text-anchor="middle" x="226" y="-497" font-family="Helvetica,sans-Serif" font-size="10.00">Element</text>
</a>
</g>
</g>
<!-- Node1&#45;&gt;Node26 -->
<g id="edge34" class="edge"><title>Node1&#45;&gt;Node26</title>
<path fill="none" stroke="midnightblue" d="M52.5727,-761.3C56.9962,-712.027 73.6827,-602.347 136,-540.5 139.588,-536.939 143.612,-533.801 147.913,-531.035"/>
<polygon fill="midnightblue" stroke="midnightblue" points="49.0737,-761.149 51.7651,-771.396 56.0514,-761.707 49.0737,-761.149"/>
</g>
<!-- Node27 -->
<g id="node27" class="node"><title>Node27</title>
<g id="a_node27"><a xlink:href="classsoftwarecontainer_1_1_software_container.html#ab85363f0b8f0b9cfc6800a94bc9d8443" target="_top" xlink:title="Resume a suspended container. ">
<polygon fill="white" stroke="black" points="158,-441.5 158,-471.5 294,-471.5 294,-441.5 158,-441.5"/>
<text text-anchor="start" x="166" y="-459.5" font-family="Helvetica,sans-Serif" font-size="10.00">softwarecontainer::</text>
<text text-anchor="middle" x="226" y="-448.5" font-family="Helvetica,sans-Serif" font-size="10.00">SoftwareContainer::resume</text>
</a>
</g>
</g>
<!-- Node1&#45;&gt;Node27 -->
<g id="edge35" class="edge"><title>Node1&#45;&gt;Node27</title>
<path fill="none" stroke="midnightblue" d="M50.1923,-761.044C49.7976,-702.747 57.3233,-558.585 136,-480.5 142.134,-474.412 149.64,-469.825 157.666,-466.376"/>
<polygon fill="midnightblue" stroke="midnightblue" points="46.6952,-761.261 50.3504,-771.205 53.6943,-761.152 46.6952,-761.261"/>
</g>
<!-- Node28 -->
<g id="node28" class="node"><title>Node28</title>
<g id="a_node28"><a xlink:href="classsoftwarecontainer_1_1_d_bus_gateway.html#aad83b6fa08a863d7af731d77dade15b0" target="_top" xlink:title="Sets config for both dbus session instances. ">
<polygon fill="white" stroke="black" points="374,-370.5 374,-400.5 502,-400.5 502,-370.5 374,-370.5"/>
<text text-anchor="start" x="382" y="-388.5" font-family="Helvetica,sans-Serif" font-size="10.00">softwarecontainer::</text>
<text text-anchor="middle" x="438" y="-377.5" font-family="Helvetica,sans-Serif" font-size="10.00">DBusGateway::setConfig</text>
</a>
</g>
</g>
<!-- Node1&#45;&gt;Node28 -->
<g id="edge36" class="edge"><title>Node1&#45;&gt;Node28</title>
<path fill="none" stroke="midnightblue" d="M52.3513,-760.797C57.2035,-679.671 76.7283,-431.574 136,-383.5 210.375,-323.176 332.503,-350.239 395.91,-370.492"/>
<polygon fill="midnightblue" stroke="midnightblue" points="48.8389,-760.914 51.7614,-771.097 55.8275,-761.314 48.8389,-760.914"/>
</g>
<!-- Node29 -->
<g id="node29" class="node"><title>Node29</title>
<g id="a_node29"><a xlink:href="classsoftwarecontainer_1_1_gateway.html#a24843565ff6c3dfaed5ce3f7682a9b12" target="_top" xlink:title="Configure this gateway according to the supplied JSON configuration string. ">
<polygon fill="white" stroke="black" points="174,-392.5 174,-422.5 278,-422.5 278,-392.5 174,-392.5"/>
<text text-anchor="start" x="182" y="-410.5" font-family="Helvetica,sans-Serif" font-size="10.00">softwarecontainer::</text>
<text text-anchor="middle" x="226" y="-399.5" font-family="Helvetica,sans-Serif" font-size="10.00">Gateway::setConfig</text>
</a>
</g>
</g>
<!-- Node1&#45;&gt;Node29 -->
<g id="edge37" class="edge"><title>Node1&#45;&gt;Node29</title>
<path fill="none" stroke="midnightblue" d="M53.7639,-761.167C62.2078,-688.308 89.9313,-480.363 136,-432.5 146.017,-422.093 159.991,-415.914 173.901,-412.275"/>
<polygon fill="midnightblue" stroke="midnightblue" points="50.2663,-760.949 52.6161,-771.28 57.2216,-761.739 50.2663,-760.949"/>
</g>
<!-- Node30 -->
<g id="node30" class="node"><title>Node30</title>
<g id="a_node30"><a xlink:href="classsoftwarecontainer_1_1_netlink.html#a53e313aa155f065c1d1ef6a4e20ccede" target="_top" xlink:title="Sets an IP address for a network link. ">
<polygon fill="white" stroke="black" points="176,-304.5 176,-334.5 276,-334.5 276,-304.5 176,-304.5"/>
<text text-anchor="start" x="184" y="-322.5" font-family="Helvetica,sans-Serif" font-size="10.00">softwarecontainer::</text>
<text text-anchor="middle" x="226" y="-311.5" font-family="Helvetica,sans-Serif" font-size="10.00">Netlink::setIP</text>
</a>
</g>
</g>
<!-- Node1&#45;&gt;Node30 -->
<g id="edge39" class="edge"><title>Node1&#45;&gt;Node30</title>
<path fill="none" stroke="midnightblue" d="M52.644,-761.104C58.5508,-677.398 81.3203,-411.983 136,-349.5 146.201,-337.843 161.087,-330.706 175.777,-326.34"/>
<polygon fill="midnightblue" stroke="midnightblue" points="49.141,-761.029 51.949,-771.245 56.1246,-761.507 49.141,-761.029"/>
</g>
<!-- Node31 -->
<g id="node31" class="node"><title>Node31</title>
<g id="a_node31"><a xlink:href="classsoftwarecontainer_1_1_software_container.html#a3dcbdceccb07db981aa4e9bf85daa5d7" target="_top" xlink:title="Shot down the container with an explicit timeout. ">
<polygon fill="white" stroke="black" points="153,-255.5 153,-285.5 299,-285.5 299,-255.5 153,-255.5"/>
<text text-anchor="start" x="161" y="-273.5" font-family="Helvetica,sans-Serif" font-size="10.00">softwarecontainer::</text>
<text text-anchor="middle" x="226" y="-262.5" font-family="Helvetica,sans-Serif" font-size="10.00">SoftwareContainer::shutdown</text>
</a>
</g>
</g>
<!-- Node1&#45;&gt;Node31 -->
<g id="edge40" class="edge"><title>Node1&#45;&gt;Node31</title>
<path fill="none" stroke="midnightblue" d="M51.9159,-761.178C55.6959,-670.736 72.9875,-365.321 136,-295.5 140.731,-290.258 146.465,-286.079 152.718,-282.753"/>
<polygon fill="midnightblue" stroke="midnightblue" points="48.412,-761.209 51.5111,-771.34 55.4064,-761.487 48.412,-761.209"/>
</g>
<!-- Node32 -->
<g id="node32" class="node"><title>Node32</title>
<g id="a_node32"><a xlink:href="classsoftwarecontainer_1_1_software_container.html#a6141f7e59438e4f1dce565f3826a81f0" target="_top" xlink:title="Creates a new SoftwareContainer instance. ">
<polygon fill="white" stroke="black" points="154.5,-196 154.5,-237 297.5,-237 297.5,-196 154.5,-196"/>
<text text-anchor="start" x="162.5" y="-225" font-family="Helvetica,sans-Serif" font-size="10.00">softwarecontainer::</text>
<text text-anchor="start" x="162.5" y="-214" font-family="Helvetica,sans-Serif" font-size="10.00">SoftwareContainer::Software</text>
<text text-anchor="middle" x="226" y="-203" font-family="Helvetica,sans-Serif" font-size="10.00">Container</text>
</a>
</g>
</g>
<!-- Node1&#45;&gt;Node32 -->
<g id="edge41" class="edge"><title>Node1&#45;&gt;Node32</title>
<path fill="none" stroke="midnightblue" d="M51.6107,-760.997C54.412,-664.879 68.9578,-325.95 136,-246.5 141.047,-240.518 147.331,-235.725 154.21,-231.885"/>
<polygon fill="midnightblue" stroke="midnightblue" points="48.1053,-761.149 51.3306,-771.241 55.1027,-761.341 48.1053,-761.149"/>
</g>
<!-- Node33 -->
<g id="node33" class="node"><title>Node33</title>
<g id="a_node33"><a xlink:href="classsoftwarecontainer_1_1_container.html#a33340235226849d1f178e2f1d7efabe2" target="_top" xlink:title="Start the container. ">
<polygon fill="white" stroke="black" points="176,-147.5 176,-177.5 276,-177.5 276,-147.5 176,-147.5"/>
<text text-anchor="start" x="184" y="-165.5" font-family="Helvetica,sans-Serif" font-size="10.00">softwarecontainer::</text>
<text text-anchor="middle" x="226" y="-154.5" font-family="Helvetica,sans-Serif" font-size="10.00">Container::start</text>
</a>
</g>
</g>
<!-- Node1&#45;&gt;Node33 -->
<g id="edge42" class="edge"><title>Node1&#45;&gt;Node33</title>
<path fill="none" stroke="midnightblue" d="M51.0103,-761.407C51.5672,-658.966 58.8392,-273.758 136,-186.5 146.071,-175.111 160.924,-168.87 175.622,-165.524"/>
<polygon fill="midnightblue" stroke="midnightblue" points="47.5102,-761.438 50.9731,-771.45 54.5102,-761.463 47.5102,-761.438"/>
</g>
<!-- Node34 -->
<g id="node34" class="node"><title>Node34</title>
<g id="a_node34"><a xlink:href="classsoftwarecontainer_1_1_software_container.html#ac20c6d0cd340297ed80ae5684d9d64d3" target="_top" xlink:title="Starts the Gateways by setting the gateway configurations and activating the configured gateway...">
<polygon fill="white" stroke="black" points="142.5,-98.5 142.5,-128.5 309.5,-128.5 309.5,-98.5 142.5,-98.5"/>
<text text-anchor="start" x="150.5" y="-116.5" font-family="Helvetica,sans-Serif" font-size="10.00">softwarecontainer::</text>
<text text-anchor="middle" x="226" y="-105.5" font-family="Helvetica,sans-Serif" font-size="10.00">SoftwareContainer::startGateways</text>
</a>
</g>
</g>
<!-- Node1&#45;&gt;Node34 -->
<g id="edge43" class="edge"><title>Node1&#45;&gt;Node34</title>
<path fill="none" stroke="midnightblue" d="M50.7416,-761.194C50.1605,-653.435 53.3221,-233.975 136,-138.5 139.362,-134.618 143.274,-131.315 147.546,-128.508"/>
<polygon fill="midnightblue" stroke="midnightblue" points="47.2433,-761.46 50.814,-771.435 54.2431,-761.41 47.2433,-761.46"/>
</g>
<!-- Node35 -->
<g id="node35" class="node"><title>Node35</title>
<g id="a_node35"><a xlink:href="classsoftwarecontainer_1_1_software_container.html#a99f3c698cc9b83d71a6c302737717e77" target="_top" xlink:title="Suspend the container. ">
<polygon fill="white" stroke="black" points="156,-49.5 156,-79.5 296,-79.5 296,-49.5 156,-49.5"/>
<text text-anchor="start" x="164" y="-67.5" font-family="Helvetica,sans-Serif" font-size="10.00">softwarecontainer::</text>
<text text-anchor="middle" x="226" y="-56.5" font-family="Helvetica,sans-Serif" font-size="10.00">SoftwareContainer::suspend</text>
</a>
</g>
</g>
<!-- Node1&#45;&gt;Node35 -->
<g id="edge44" class="edge"><title>Node1&#45;&gt;Node35</title>
<path fill="none" stroke="midnightblue" d="M52.4511,-760.977C59.4589,-641.559 91.3009,-141.593 136,-89.5 141.435,-83.1663 148.334,-78.3742 155.878,-74.7588"/>
<polygon fill="midnightblue" stroke="midnightblue" points="48.9363,-761.132 51.8509,-771.318 55.9246,-761.537 48.9363,-761.132"/>
</g>
<!-- Node36 -->
<g id="node36" class="node"><title>Node36</title>
<g id="a_node36"><a xlink:href="classsoftwarecontainer_1_1_d_bus_gateway.html#a003afe7ddc034ad69f0b6ecc7abe2fdc" target="_top" xlink:title="Restore system to the state prior to launching of gateway. ">
<polygon fill="white" stroke="black" points="163,-0.5 163,-30.5 289,-30.5 289,-0.5 163,-0.5"/>
<text text-anchor="start" x="171" y="-18.5" font-family="Helvetica,sans-Serif" font-size="10.00">softwarecontainer::</text>
<text text-anchor="middle" x="226" y="-7.5" font-family="Helvetica,sans-Serif" font-size="10.00">DBusGateway::teardown</text>
</a>
</g>
</g>
<!-- Node1&#45;&gt;Node36 -->
<g id="edge45" class="edge"><title>Node1&#45;&gt;Node36</title>
<path fill="none" stroke="midnightblue" d="M52.2269,-761.167C58.4565,-637.032 88.1737,-96.6855 136,-40.5 143.074,-32.1895 152.67,-26.5301 162.948,-22.6996"/>
<polygon fill="midnightblue" stroke="midnightblue" points="48.7269,-761.083 51.7272,-771.244 55.7183,-761.43 48.7269,-761.083"/>
</g>
<!-- Node5&#45;&gt;Node6 -->
<g id="edge5" class="edge"><title>Node5&#45;&gt;Node6</title>
<path fill="none" stroke="midnightblue" d="M514.879,-1165.14C532.781,-1168.36 551.406,-1171.71 567.772,-1174.65"/>
<polygon fill="midnightblue" stroke="midnightblue" points="515.489,-1161.69 505.028,-1163.37 514.251,-1168.58 515.489,-1161.69"/>
</g>
<!-- Node5&#45;&gt;Node7 -->
<g id="edge6" class="edge"><title>Node5&#45;&gt;Node7</title>
<path fill="none" stroke="midnightblue" d="M514.879,-1137.43C532.781,-1134.11 551.406,-1130.66 567.772,-1127.63"/>
<polygon fill="midnightblue" stroke="midnightblue" points="514.222,-1133.99 505.028,-1139.26 515.498,-1140.88 514.222,-1133.99"/>
</g>
<!-- Node5&#45;&gt;Node8 -->
<g id="edge7" class="edge"><title>Node5&#45;&gt;Node8</title>
<path fill="none" stroke="midnightblue" d="M513.79,-1132.59C517.304,-1131.02 520.727,-1129.32 524,-1127.5 542.958,-1116.93 543.841,-1108.99 560,-1094.5 573.132,-1082.72 588.134,-1069.58 599.45,-1059.72"/>
<polygon fill="midnightblue" stroke="midnightblue" points="512.239,-1129.45 504.316,-1136.48 514.896,-1135.92 512.239,-1129.45"/>
</g>
<!-- Node9&#45;&gt;Node10 -->
<g id="edge9" class="edge"><title>Node9&#45;&gt;Node10</title>
<path fill="none" stroke="midnightblue" d="M288.787,-944.681C319.436,-950.226 356.034,-956.849 385.195,-962.126"/>
<polygon fill="midnightblue" stroke="midnightblue" points="289.104,-941.181 278.641,-942.845 287.858,-948.069 289.104,-941.181"/>
</g>
<!-- Node9&#45;&gt;Node12 -->
<g id="edge11" class="edge"><title>Node9&#45;&gt;Node12</title>
<path fill="none" stroke="midnightblue" d="M288.649,-923.812C320.22,-918.851 358.132,-912.893 387.728,-908.243"/>
<polygon fill="midnightblue" stroke="midnightblue" points="287.976,-920.375 278.641,-925.385 289.063,-927.29 287.976,-920.375"/>
</g>
<!-- Node11 -->
<g id="node11" class="node"><title>Node11</title>
<g id="a_node11"><a xlink:href="classsoftwarecontainer_1_1_container.html#a6c57689a4a21b8c9342c53c7e8743203" target="_top" xlink:title="create Creates a new lxc_container and creates it with all the initialization. ">
<polygon fill="white" stroke="black" points="568,-956.5 568,-986.5 668,-986.5 668,-956.5 568,-956.5"/>
<text text-anchor="start" x="576" y="-974.5" font-family="Helvetica,sans-Serif" font-size="10.00">softwarecontainer::</text>
<text text-anchor="middle" x="618" y="-963.5" font-family="Helvetica,sans-Serif" font-size="10.00">Container::create</text>
</a>
</g>
</g>
<!-- Node10&#45;&gt;Node11 -->
<g id="edge10" class="edge"><title>Node10&#45;&gt;Node11</title>
<path fill="none" stroke="midnightblue" d="M501.122,-971.5C522.931,-971.5 547.115,-971.5 567.724,-971.5"/>
<polygon fill="midnightblue" stroke="midnightblue" points="500.964,-968 490.963,-971.5 500.963,-975 500.964,-968"/>
</g>
<!-- Node15&#45;&gt;Node5 -->
<g id="edge18" class="edge"><title>Node15&#45;&gt;Node5</title>
<path fill="none" stroke="midnightblue" d="M296.687,-1144.15C320.622,-1145.4 347.328,-1146.8 370.964,-1148.04"/>
<polygon fill="midnightblue" stroke="midnightblue" points="296.785,-1140.65 286.616,-1143.62 296.419,-1147.64 296.785,-1140.65"/>
</g>
<!-- Node15&#45;&gt;Node16 -->
<g id="edge17" class="edge"><title>Node15&#45;&gt;Node16</title>
<path fill="none" stroke="midnightblue" d="M296.569,-1127.91C326.457,-1122.5 360.683,-1116.31 387.864,-1111.39"/>
<polygon fill="midnightblue" stroke="midnightblue" points="295.833,-1124.49 286.616,-1129.71 297.079,-1131.38 295.833,-1124.49"/>
</g>
<!-- Node17&#45;&gt;Node3 -->
<g id="edge23" class="edge"><title>Node17&#45;&gt;Node3</title>
<path fill="none" stroke="midnightblue" d="M285.638,-1402.29C295.997,-1406.09 306.498,-1410.5 316,-1415.5 333.7,-1424.81 334.073,-1433.63 352,-1442.5 358.872,-1445.9 366.302,-1448.89 373.811,-1451.49"/>
<polygon fill="midnightblue" stroke="midnightblue" points="286.793,-1398.99 276.198,-1398.98 284.475,-1405.59 286.793,-1398.99"/>
</g>
<!-- Node18 -->
<g id="node18" class="node"><title>Node18</title>
<g id="a_node18"><a xlink:href="classsoftwarecontainer_1_1_device_node_gateway.html#a9e912027cad4fff3ed4d9a9581f45227" target="_top" xlink:title="Implements Gateway::activateGateway. ">
<polygon fill="white" stroke="black" points="363,-1392 363,-1433 513,-1433 513,-1392 363,-1392"/>
<text text-anchor="start" x="371" y="-1421" font-family="Helvetica,sans-Serif" font-size="10.00">softwarecontainer::</text>
<text text-anchor="start" x="371" y="-1410" font-family="Helvetica,sans-Serif" font-size="10.00">DeviceNodeGateway::activate</text>
<text text-anchor="middle" x="438" y="-1399" font-family="Helvetica,sans-Serif" font-size="10.00">Gateway</text>
</a>
</g>
</g>
<!-- Node17&#45;&gt;Node18 -->
<g id="edge21" class="edge"><title>Node17&#45;&gt;Node18</title>
<path fill="none" stroke="midnightblue" d="M286.197,-1393.11C310.045,-1396.18 337.813,-1399.75 362.975,-1402.98"/>
<polygon fill="midnightblue" stroke="midnightblue" points="286.6,-1389.63 276.236,-1391.83 285.708,-1396.58 286.6,-1389.63"/>
</g>
<!-- Node19 -->
<g id="node19" class="node"><title>Node19</title>
<g id="a_node19"><a xlink:href="classsoftwarecontainer_1_1_network_gateway.html#ad67674d2ce8d329188446e71c14e3a88" target="_top" xlink:title="Gateway specific parsing of config elements. ">
<polygon fill="white" stroke="black" points="365,-1284 365,-1325 511,-1325 511,-1284 365,-1284"/>
<text text-anchor="start" x="373" y="-1313" font-family="Helvetica,sans-Serif" font-size="10.00">softwarecontainer::</text>
<text text-anchor="start" x="373" y="-1302" font-family="Helvetica,sans-Serif" font-size="10.00">NetworkGateway::readConfig</text>
<text text-anchor="middle" x="438" y="-1291" font-family="Helvetica,sans-Serif" font-size="10.00">Element</text>
</a>
</g>
</g>
<!-- Node17&#45;&gt;Node19 -->
<g id="edge22" class="edge"><title>Node17&#45;&gt;Node19</title>
<path fill="none" stroke="midnightblue" d="M286.004,-1372.99C296.254,-1369.87 306.624,-1366.07 316,-1361.5 333.979,-1352.74 334.367,-1343.94 352,-1334.5 358.347,-1331.1 365.157,-1327.96 372.06,-1325.09"/>
<polygon fill="midnightblue" stroke="midnightblue" points="284.9,-1369.67 276.249,-1375.78 286.826,-1376.4 284.9,-1369.67"/>
</g>
<!-- Node20 -->
<g id="node20" class="node"><title>Node20</title>
<g id="a_node20"><a xlink:href="classsoftwarecontainer_1_1_pulse_gateway.html#a0cd0a00ca7590d7c9c3c961e20de56df" target="_top" xlink:title="Implements Gateway::activateGateway. ">
<polygon fill="white" stroke="black" points="358,-1343.5 358,-1373.5 518,-1373.5 518,-1343.5 358,-1343.5"/>
<text text-anchor="start" x="366" y="-1361.5" font-family="Helvetica,sans-Serif" font-size="10.00">softwarecontainer::</text>
<text text-anchor="middle" x="438" y="-1350.5" font-family="Helvetica,sans-Serif" font-size="10.00">PulseGateway::activateGateway</text>
</a>
</g>
</g>
<!-- Node17&#45;&gt;Node20 -->
<g id="edge24" class="edge"><title>Node17&#45;&gt;Node20</title>
<path fill="none" stroke="midnightblue" d="M286.173,-1377.89C308.363,-1375.04 333.95,-1371.75 357.673,-1368.7"/>
<polygon fill="midnightblue" stroke="midnightblue" points="285.708,-1374.42 276.236,-1379.17 286.6,-1381.37 285.708,-1374.42"/>
</g>
<!-- Node22&#45;&gt;Node19 -->
<g id="edge30" class="edge"><title>Node22&#45;&gt;Node19</title>
<path fill="none" stroke="midnightblue" d="M326.056,-1318.76C339.179,-1317.08 352.426,-1315.37 364.973,-1313.76"/>
<polygon fill="midnightblue" stroke="midnightblue" points="325.531,-1315.3 316.059,-1320.05 326.424,-1322.25 325.531,-1315.3"/>
</g>
<!-- Node29&#45;&gt;Node28 -->
<g id="edge38" class="edge"><title>Node29&#45;&gt;Node28</title>
<path fill="none" stroke="midnightblue" d="M288.148,-401.094C315.002,-398.281 346.521,-394.979 373.625,-392.139"/>
<polygon fill="midnightblue" stroke="midnightblue" points="287.684,-397.623 278.103,-402.146 288.414,-404.585 287.684,-397.623"/>
</g>
</g>
</svg>
