<?xml version="1.0" encoding="UTF-8" standalone="no"?>
<!DOCTYPE svg PUBLIC "-//W3C//DTD SVG 1.1//EN"
 "http://www.w3.org/Graphics/SVG/1.1/DTD/svg11.dtd">
<!-- Generated by graphviz version 2.38.0 (20140413.2041)
 -->
<!-- Title: softwarecontainer::isDirectory Pages: 1 -->
<svg width="646pt" height="189pt"
 viewBox="0.00 0.00 646.00 189.00" xmlns="http://www.w3.org/2000/svg" xmlns:xlink="http://www.w3.org/1999/xlink">
<g id="graph0" class="graph" transform="scale(1 1) rotate(0) translate(4 185)">
<title>softwarecontainer::isDirectory</title>
<polygon fill="white" stroke="none" points="-4,4 -4,-185 642,-185 642,4 -4,4"/>
<!-- Node1 -->
<g id="node1" class="node"><title>Node1</title>
<polygon fill="#bfbfbf" stroke="black" points="0,-106.5 0,-136.5 100,-136.5 100,-106.5 0,-106.5"/>
<text text-anchor="start" x="8" y="-124.5" font-family="Helvetica,sans-Serif" font-size="10.00">softwarecontainer::</text>
<text text-anchor="middle" x="50" y="-113.5" font-family="Helvetica,sans-Serif" font-size="10.00">isDirectory</text>
</g>
<!-- Node2 -->
<g id="node2" class="node"><title>Node2</title>
<g id="a_node2"><a xlink:href="classsoftwarecontainer_1_1_container.html#a4784a2955ddf87a9f0a58720d7ca918c" target="_top" xlink:title="Tries to bind mount a path from host to container. ">
<polygon fill="white" stroke="black" points="136,-150.5 136,-180.5 296,-180.5 296,-150.5 136,-150.5"/>
<text text-anchor="start" x="144" y="-168.5" font-family="Helvetica,sans-Serif" font-size="10.00">softwarecontainer::</text>
<text text-anchor="middle" x="216" y="-157.5" font-family="Helvetica,sans-Serif" font-size="10.00">Container::bindMountInContainer</text>
</a>
</g>
</g>
<!-- Node1&#45;&gt;Node2 -->
<g id="edge1" class="edge"><title>Node1&#45;&gt;Node2</title>
<path fill="none" stroke="midnightblue" d="M109.953,-137.317C125.909,-141.598 143.133,-146.219 158.926,-150.456"/>
<polygon fill="midnightblue" stroke="midnightblue" points="110.771,-133.912 100.205,-134.701 108.957,-140.673 110.771,-133.912"/>
</g>
<!-- Node3 -->
<g id="node3" class="node"><title>Node3</title>
<g id="a_node3"><a xlink:href="classsoftwarecontainer_1_1_workspace.html#af9be59382096de97cfab692bc5c89114" target="_top" xlink:title="Check if the workspace is present and create it if needed. ">
<polygon fill="white" stroke="black" points="332,-108.5 332,-138.5 480,-138.5 480,-108.5 332,-108.5"/>
<text text-anchor="start" x="340" y="-126.5" font-family="Helvetica,sans-Serif" font-size="10.00">softwarecontainer::</text>
<text text-anchor="middle" x="406" y="-115.5" font-family="Helvetica,sans-Serif" font-size="10.00">Workspace::checkWorkspace</text>
</a>
</g>
</g>
<!-- Node1&#45;&gt;Node3 -->
<g id="edge2" class="edge"><title>Node1&#45;&gt;Node3</title>
<path fill="none" stroke="midnightblue" d="M110.453,-121.836C171.436,-122.18 266.395,-122.717 331.926,-123.087"/>
<polygon fill="midnightblue" stroke="midnightblue" points="110.242,-118.335 100.222,-121.778 110.202,-125.335 110.242,-118.335"/>
</g>
<!-- Node5 -->
<g id="node5" class="node"><title>Node5</title>
<g id="a_node5"><a xlink:href="classsoftwarecontainer_1_1_file_toolkit_with_undo.html#aff5073fb683649d6753baae354d202b9" target="_top" xlink:title="createDirectory Create a directory, and if successful append it to a list of dirs to be deleted in th...">
<polygon fill="white" stroke="black" points="163.5,-50 163.5,-91 268.5,-91 268.5,-50 163.5,-50"/>
<text text-anchor="start" x="171.5" y="-79" font-family="Helvetica,sans-Serif" font-size="10.00">softwarecontainer::</text>
<text text-anchor="start" x="171.5" y="-68" font-family="Helvetica,sans-Serif" font-size="10.00">FileToolkitWithUndo</text>
<text text-anchor="middle" x="216" y="-57" font-family="Helvetica,sans-Serif" font-size="10.00">::createDirectory</text>
</a>
</g>
</g>
<!-- Node1&#45;&gt;Node5 -->
<g id="edge4" class="edge"><title>Node1&#45;&gt;Node5</title>
<path fill="none" stroke="midnightblue" d="M108.968,-103.473C126.685,-97.9639 146.043,-91.9439 163.313,-86.5733"/>
<polygon fill="midnightblue" stroke="midnightblue" points="107.828,-100.162 99.3184,-106.474 109.907,-106.847 107.828,-100.162"/>
</g>
<!-- Node4 -->
<g id="node4" class="node"><title>Node4</title>
<g id="a_node4"><a xlink:href="classsoftwarecontainer_1_1_workspace.html#a4cca8749e6f3bd90452511ede207f5e5" target="_top" xlink:title="Creates a workspace. ">
<polygon fill="white" stroke="black" points="516,-108.5 516,-138.5 638,-138.5 638,-108.5 516,-108.5"/>
<text text-anchor="start" x="524" y="-126.5" font-family="Helvetica,sans-Serif" font-size="10.00">softwarecontainer::</text>
<text text-anchor="middle" x="577" y="-115.5" font-family="Helvetica,sans-Serif" font-size="10.00">Workspace::Workspace</text>
</a>
</g>
</g>
<!-- Node3&#45;&gt;Node4 -->
<g id="edge3" class="edge"><title>Node3&#45;&gt;Node4</title>
<path fill="none" stroke="midnightblue" d="M490.28,-123.5C498.941,-123.5 507.619,-123.5 515.95,-123.5"/>
<polygon fill="midnightblue" stroke="midnightblue" points="490.143,-120 480.143,-123.5 490.143,-127 490.143,-120"/>
</g>
<!-- Node5&#45;&gt;Node3 -->
<g id="edge8" class="edge"><title>Node5&#45;&gt;Node3</title>
<path fill="none" stroke="midnightblue" d="M278.758,-87.9105C302.318,-94.5524 328.953,-102.061 351.664,-108.464"/>
<polygon fill="midnightblue" stroke="midnightblue" points="279.444,-84.4675 268.869,-85.1228 277.545,-91.2049 279.444,-84.4675"/>
</g>
<!-- Node6 -->
<g id="node6" class="node"><title>Node6</title>
<g id="a_node6"><a xlink:href="classsoftwarecontainer_1_1_file_toolkit_with_undo.html#ab46eccba563b861f100d9ce7fa9ca4d6" target="_top" xlink:title="overlayMount Mount a directory with an overlay on top of it. ">
<polygon fill="white" stroke="black" points="353.5,-49 353.5,-90 458.5,-90 458.5,-49 353.5,-49"/>
<text text-anchor="start" x="361.5" y="-78" font-family="Helvetica,sans-Serif" font-size="10.00">softwarecontainer::</text>
<text text-anchor="start" x="361.5" y="-67" font-family="Helvetica,sans-Serif" font-size="10.00">FileToolkitWithUndo</text>
<text text-anchor="middle" x="406" y="-56" font-family="Helvetica,sans-Serif" font-size="10.00">::overlayMount</text>
</a>
</g>
</g>
<!-- Node5&#45;&gt;Node6 -->
<g id="edge5" class="edge"><title>Node5&#45;&gt;Node6</title>
<path fill="none" stroke="midnightblue" d="M278.971,-70.1704C303.047,-70.0423 330.307,-69.8973 353.3,-69.775"/>
<polygon fill="midnightblue" stroke="midnightblue" points="278.851,-66.6709 268.869,-70.2241 278.888,-73.6708 278.851,-66.6709"/>
</g>
<!-- Node8 -->
<g id="node8" class="node"><title>Node8</title>
<g id="a_node8"><a xlink:href="classsoftwarecontainer_1_1_container.html#a8461f293ef5db5ee5fbdeddd24f36214" target="_top" xlink:title="Setup the container for startup. ">
<polygon fill="white" stroke="black" points="356,-0.5 356,-30.5 456,-30.5 456,-0.5 356,-0.5"/>
<text text-anchor="start" x="364" y="-18.5" font-family="Helvetica,sans-Serif" font-size="10.00">softwarecontainer::</text>
<text text-anchor="middle" x="406" y="-7.5" font-family="Helvetica,sans-Serif" font-size="10.00">Container::initialize</text>
</a>
</g>
</g>
<!-- Node5&#45;&gt;Node8 -->
<g id="edge7" class="edge"><title>Node5&#45;&gt;Node8</title>
<path fill="none" stroke="midnightblue" d="M278.646,-52.4652C303.71,-45.1327 332.269,-36.7777 355.887,-29.8681"/>
<polygon fill="midnightblue" stroke="midnightblue" points="277.484,-49.1583 268.869,-55.3254 279.45,-55.8767 277.484,-49.1583"/>
</g>
<!-- Node7 -->
<g id="node7" class="node"><title>Node7</title>
<g id="a_node7"><a xlink:href="classsoftwarecontainer_1_1_container.html#a6c57689a4a21b8c9342c53c7e8743203" target="_top" xlink:title="create Creates a new lxc_container and creates it with all the initialization. ">
<polygon fill="white" stroke="black" points="527,-54.5 527,-84.5 627,-84.5 627,-54.5 527,-54.5"/>
<text text-anchor="start" x="535" y="-72.5" font-family="Helvetica,sans-Serif" font-size="10.00">softwarecontainer::</text>
<text text-anchor="middle" x="577" y="-61.5" font-family="Helvetica,sans-Serif" font-size="10.00">Container::create</text>
</a>
</g>
</g>
<!-- Node6&#45;&gt;Node7 -->
<g id="edge6" class="edge"><title>Node6&#45;&gt;Node7</title>
<path fill="none" stroke="midnightblue" d="M468.729,-69.5C487.82,-69.5 508.586,-69.5 526.717,-69.5"/>
<polygon fill="midnightblue" stroke="midnightblue" points="468.624,-66.0001 458.624,-69.5 468.624,-73.0001 468.624,-66.0001"/>
</g>
</g>
</svg>
