<?xml version="1.0" encoding="UTF-8" standalone="no"?>
<!DOCTYPE svg PUBLIC "-//W3C//DTD SVG 1.1//EN"
 "http://www.w3.org/Graphics/SVG/1.1/DTD/svg11.dtd">
<!-- Generated by graphviz version 2.38.0 (20140413.2041)
 -->
<!-- Title: softwarecontainer::isError Pages: 1 -->
<svg width="684pt" height="1508pt"
 viewBox="0.00 0.00 684.00 1508.00" xmlns="http://www.w3.org/2000/svg" xmlns:xlink="http://www.w3.org/1999/xlink">
<g id="graph0" class="graph" transform="scale(1 1) rotate(0) translate(4 1504)">
<title>softwarecontainer::isError</title>
<polygon fill="white" stroke="none" points="-4,4 -4,-1504 680,-1504 680,4 -4,4"/>
<!-- Node1 -->
<g id="node1" class="node"><title>Node1</title>
<polygon fill="#bfbfbf" stroke="black" points="0,-782.5 0,-812.5 100,-812.5 100,-782.5 0,-782.5"/>
<text text-anchor="start" x="8" y="-800.5" font-family="Helvetica,sans-Serif" font-size="10.00">softwarecontainer::</text>
<text text-anchor="middle" x="50" y="-789.5" font-family="Helvetica,sans-Serif" font-size="10.00">isError</text>
</g>
<!-- Node2 -->
<g id="node2" class="node"><title>Node2</title>
<g id="a_node2"><a xlink:href="classsoftwarecontainer_1_1_d_bus_gateway.html#a7ba4cdcf870915d57f9f36ed68f7c33a" target="_top" xlink:title="Activates both dbus session instances. ">
<polygon fill="white" stroke="black" points="165.5,-1469.5 165.5,-1499.5 286.5,-1499.5 286.5,-1469.5 165.5,-1469.5"/>
<text text-anchor="start" x="173.5" y="-1487.5" font-family="Helvetica,sans-Serif" font-size="10.00">softwarecontainer::</text>
<text text-anchor="middle" x="226" y="-1476.5" font-family="Helvetica,sans-Serif" font-size="10.00">DBusGateway::activate</text>
</a>
</g>
</g>
<!-- Node1&#45;&gt;Node2 -->
<g id="edge1" class="edge"><title>Node1&#45;&gt;Node2</title>
<path fill="none" stroke="midnightblue" d="M50.8173,-822.718C50.5345,-930.992 54.7069,-1355.43 136,-1454.5 143.551,-1463.7 154.032,-1470.09 165.159,-1474.53"/>
<polygon fill="midnightblue" stroke="midnightblue" points="54.3172,-822.722 50.8592,-812.708 47.3172,-822.693 54.3172,-822.722"/>
</g>
<!-- Node3 -->
<g id="node3" class="node"><title>Node3</title>
<g id="a_node3"><a xlink:href="classsoftwarecontainer_1_1_network_gateway.html#a8a08792ecd43b1694222ca286514ee21" target="_top" xlink:title="Implements Gateway::activateGateway. ">
<polygon fill="white" stroke="black" points="352,-1462.5 352,-1492.5 524,-1492.5 524,-1462.5 352,-1462.5"/>
<text text-anchor="start" x="360" y="-1480.5" font-family="Helvetica,sans-Serif" font-size="10.00">softwarecontainer::</text>
<text text-anchor="middle" x="438" y="-1469.5" font-family="Helvetica,sans-Serif" font-size="10.00">NetworkGateway::activateGateway</text>
</a>
</g>
</g>
<!-- Node1&#45;&gt;Node3 -->
<g id="edge2" class="edge"><title>Node1&#45;&gt;Node3</title>
<path fill="none" stroke="midnightblue" d="M50.6718,-822.749C49.8413,-928.396 52.2415,-1333.57 136,-1421.5 143.527,-1429.4 265.303,-1450.22 351.624,-1464.12"/>
<polygon fill="midnightblue" stroke="midnightblue" points="54.1721,-822.718 50.7686,-812.685 47.1724,-822.651 54.1721,-822.718"/>
</g>
<!-- Node4 -->
<g id="node4" class="node"><title>Node4</title>
<g id="a_node4"><a xlink:href="classsoftwarecontainer_1_1_software_container_agent.html#a97d427dada015dc9337ce5673f55ec9f" target="_top" xlink:title="Bind mount a folder into the container. ">
<polygon fill="white" stroke="black" points="164.5,-1262 164.5,-1303 287.5,-1303 287.5,-1262 164.5,-1262"/>
<text text-anchor="start" x="172.5" y="-1291" font-family="Helvetica,sans-Serif" font-size="10.00">softwarecontainer::</text>
<text text-anchor="start" x="172.5" y="-1280" font-family="Helvetica,sans-Serif" font-size="10.00">SoftwareContainerAgent</text>
<text text-anchor="middle" x="226" y="-1269" font-family="Helvetica,sans-Serif" font-size="10.00">::bindMount</text>
</a>
</g>
</g>
<!-- Node1&#45;&gt;Node4 -->
<g id="edge3" class="edge"><title>Node1&#45;&gt;Node4</title>
<path fill="none" stroke="midnightblue" d="M52.6034,-822.708C58.4729,-907.607 81.3633,-1181.49 136,-1247.5 143.411,-1256.45 153.423,-1263.13 164.06,-1268.1"/>
<polygon fill="midnightblue" stroke="midnightblue" points="56.0914,-822.409 51.9285,-812.667 49.1071,-822.879 56.0914,-822.409"/>
</g>
<!-- Node5 -->
<g id="node5" class="node"><title>Node5</title>
<g id="a_node5"><a xlink:href="classsoftwarecontainer_1_1_netlink.html#acf303ede6bab6850147376b9a0d3ea7b" target="_top" xlink:title="check for a kernel dump, and if not present, try to get one ">
<polygon fill="white" stroke="black" points="371,-1147.5 371,-1177.5 505,-1177.5 505,-1147.5 371,-1147.5"/>
<text text-anchor="start" x="379" y="-1165.5" font-family="Helvetica,sans-Serif" font-size="10.00">softwarecontainer::</text>
<text text-anchor="middle" x="438" y="-1154.5" font-family="Helvetica,sans-Serif" font-size="10.00">Netlink::checkKernelDump</text>
</a>
</g>
</g>
<!-- Node1&#45;&gt;Node5 -->
<g id="edge4" class="edge"><title>Node1&#45;&gt;Node5</title>
<path fill="none" stroke="midnightblue" d="M52.7188,-823.203C58.512,-901.076 80.1811,-1131.81 136,-1176.5 213.185,-1238.29 340.464,-1201.21 401.8,-1177.57"/>
<polygon fill="midnightblue" stroke="midnightblue" points="56.1837,-822.587 51.9771,-812.863 49.2017,-823.088 56.1837,-822.587"/>
</g>
<!-- Node6 -->
<g id="node6" class="node"><title>Node6</title>
<g id="a_node6"><a xlink:href="classsoftwarecontainer_1_1_netlink.html#abaaa3af391069f8b624edd0c066eb958" target="_top" xlink:title="Bring the given interface up. ">
<polygon fill="white" stroke="black" points="568,-1179.5 568,-1209.5 668,-1209.5 668,-1179.5 568,-1179.5"/>
<text text-anchor="start" x="576" y="-1197.5" font-family="Helvetica,sans-Serif" font-size="10.00">softwarecontainer::</text>
<text text-anchor="middle" x="618" y="-1186.5" font-family="Helvetica,sans-Serif" font-size="10.00">Netlink::linkUp</text>
</a>
</g>
</g>
<!-- Node1&#45;&gt;Node6 -->
<g id="edge26" class="edge"><title>Node1&#45;&gt;Node6</title>
<path fill="none" stroke="midnightblue" d="M52.2562,-823.031C56.8619,-904.773 75.8212,-1157.54 136,-1206.5 200.879,-1259.28 458.571,-1222.15 567.732,-1203.47"/>
<polygon fill="midnightblue" stroke="midnightblue" points="55.7311,-822.469 51.6988,-812.671 48.7412,-822.845 55.7311,-822.469"/>
</g>
<!-- Node7 -->
<g id="node7" class="node"><title>Node7</title>
<g id="a_node7"><a xlink:href="classsoftwarecontainer_1_1_netlink.html#a07b353cd40aeffd94d9fb03d9cdd1119" target="_top" xlink:title="Check that the device given is a network bridge. ">
<polygon fill="white" stroke="black" points="568,-1114.5 568,-1144.5 668,-1144.5 668,-1114.5 568,-1114.5"/>
<text text-anchor="start" x="576" y="-1132.5" font-family="Helvetica,sans-Serif" font-size="10.00">softwarecontainer::</text>
<text text-anchor="middle" x="618" y="-1121.5" font-family="Helvetica,sans-Serif" font-size="10.00">Netlink::findLink</text>
</a>
</g>
</g>
<!-- Node1&#45;&gt;Node7 -->
<g id="edge15" class="edge"><title>Node1&#45;&gt;Node7</title>
<path fill="none" stroke="midnightblue" d="M51.9574,-822.813C55.294,-872.111 70.1512,-980.855 136,-1034.5 203.515,-1089.5 440.153,-1065.98 524,-1089.5 545.999,-1095.67 569.638,-1105.89 587.578,-1114.45"/>
<polygon fill="midnightblue" stroke="midnightblue" points="55.4443,-822.482 51.381,-812.697 48.4556,-822.88 55.4443,-822.482"/>
</g>
<!-- Node8 -->
<g id="node8" class="node"><title>Node8</title>
<g id="a_node8"><a xlink:href="classsoftwarecontainer_1_1_netlink.html#aec31c67231b12f8a1702054e13029cbb" target="_top" xlink:title="Get all addresses associated with the given interface index. ">
<polygon fill="white" stroke="black" points="560,-1040.5 560,-1070.5 676,-1070.5 676,-1040.5 560,-1040.5"/>
<text text-anchor="start" x="568" y="-1058.5" font-family="Helvetica,sans-Serif" font-size="10.00">softwarecontainer::</text>
<text text-anchor="middle" x="618" y="-1047.5" font-family="Helvetica,sans-Serif" font-size="10.00">Netlink::findAddresses</text>
</a>
</g>
</g>
<!-- Node1&#45;&gt;Node8 -->
<g id="edge14" class="edge"><title>Node1&#45;&gt;Node8</title>
<path fill="none" stroke="midnightblue" d="M53.1838,-822.764C58.5391,-867.701 76.5958,-960.973 136,-1005.5 169.296,-1030.46 439.486,-1046.75 559.694,-1052.82"/>
<polygon fill="midnightblue" stroke="midnightblue" points="56.6496,-822.258 52.1021,-812.688 49.6896,-823.005 56.6496,-822.258"/>
</g>
<!-- Node9 -->
<g id="node9" class="node"><title>Node9</title>
<g id="a_node9"><a xlink:href="classsoftwarecontainer_1_1_file_toolkit_with_undo.html#aff5073fb683649d6753baae354d202b9" target="_top" xlink:title="createDirectory Create a directory, and if successful append it to a list of dirs to be deleted in th...">
<polygon fill="white" stroke="black" points="173.5,-924 173.5,-965 278.5,-965 278.5,-924 173.5,-924"/>
<text text-anchor="start" x="181.5" y="-953" font-family="Helvetica,sans-Serif" font-size="10.00">softwarecontainer::</text>
<text text-anchor="start" x="181.5" y="-942" font-family="Helvetica,sans-Serif" font-size="10.00">FileToolkitWithUndo</text>
<text text-anchor="middle" x="226" y="-931" font-family="Helvetica,sans-Serif" font-size="10.00">::createDirectory</text>
</a>
</g>
</g>
<!-- Node1&#45;&gt;Node9 -->
<g id="edge8" class="edge"><title>Node1&#45;&gt;Node9</title>
<path fill="none" stroke="midnightblue" d="M63.9026,-821.521C78.4444,-846.567 104.25,-885.456 136,-909.5 146.986,-917.82 160.204,-924.423 173.051,-929.55"/>
<polygon fill="midnightblue" stroke="midnightblue" points="66.8607,-819.642 58.8919,-812.66 60.7674,-823.088 66.8607,-819.642"/>
</g>
<!-- Node10 -->
<g id="node10" class="node"><title>Node10</title>
<g id="a_node10"><a xlink:href="classsoftwarecontainer_1_1_file_toolkit_with_undo.html#ab46eccba563b861f100d9ce7fa9ca4d6" target="_top" xlink:title="overlayMount Mount a directory with an overlay on top of it. ">
<polygon fill="white" stroke="black" points="385.5,-962 385.5,-1003 490.5,-1003 490.5,-962 385.5,-962"/>
<text text-anchor="start" x="393.5" y="-991" font-family="Helvetica,sans-Serif" font-size="10.00">softwarecontainer::</text>
<text text-anchor="start" x="393.5" y="-980" font-family="Helvetica,sans-Serif" font-size="10.00">FileToolkitWithUndo</text>
<text text-anchor="middle" x="438" y="-969" font-family="Helvetica,sans-Serif" font-size="10.00">::overlayMount</text>
</a>
</g>
</g>
<!-- Node1&#45;&gt;Node10 -->
<g id="edge28" class="edge"><title>Node1&#45;&gt;Node10</title>
<path fill="none" stroke="midnightblue" d="M54.7145,-822.56C62.1405,-862.634 82.93,-940.121 136,-974.5 211.463,-1023.39 321.399,-1010.19 385.419,-996.271"/>
<polygon fill="midnightblue" stroke="midnightblue" points="58.1364,-821.806 52.9944,-812.543 51.2374,-822.991 58.1364,-821.806"/>
</g>
<!-- Node12 -->
<g id="node12" class="node"><title>Node12</title>
<g id="a_node12"><a xlink:href="classsoftwarecontainer_1_1_container.html#a8461f293ef5db5ee5fbdeddd24f36214" target="_top" xlink:title="Setup the container for startup. ">
<polygon fill="white" stroke="black" points="388,-896.5 388,-926.5 488,-926.5 488,-896.5 388,-896.5"/>
<text text-anchor="start" x="396" y="-914.5" font-family="Helvetica,sans-Serif" font-size="10.00">softwarecontainer::</text>
<text text-anchor="middle" x="438" y="-903.5" font-family="Helvetica,sans-Serif" font-size="10.00">Container::initialize</text>
</a>
</g>
</g>
<!-- Node1&#45;&gt;Node12 -->
<g id="edge19" class="edge"><title>Node1&#45;&gt;Node12</title>
<path fill="none" stroke="midnightblue" d="M68.8009,-820.717C84.3695,-839.173 108.715,-863.911 136,-876.5 179.649,-896.64 314.37,-905.862 387.893,-909.49"/>
<polygon fill="midnightblue" stroke="midnightblue" points="71.3244,-818.274 62.2863,-812.746 65.9042,-822.704 71.3244,-818.274"/>
</g>
<!-- Node13 -->
<g id="node13" class="node"><title>Node13</title>
<g id="a_node13"><a xlink:href="classsoftwarecontainer_1_1_container.html#aaff4ed1ad7fbbe7e34b047fd9e80fdb7" target="_top" xlink:title="Executes a commandline. ">
<polygon fill="white" stroke="black" points="176,-836.5 176,-866.5 276,-866.5 276,-836.5 176,-836.5"/>
<text text-anchor="start" x="184" y="-854.5" font-family="Helvetica,sans-Serif" font-size="10.00">softwarecontainer::</text>
<text text-anchor="middle" x="226" y="-843.5" font-family="Helvetica,sans-Serif" font-size="10.00">Container::execute</text>
</a>
</g>
</g>
<!-- Node1&#45;&gt;Node13 -->
<g id="edge12" class="edge"><title>Node1&#45;&gt;Node13</title>
<path fill="none" stroke="midnightblue" d="M101.569,-816.056C112.848,-819.997 124.789,-824.015 136,-827.5 148.837,-831.49 162.832,-835.445 175.843,-838.96"/>
<polygon fill="midnightblue" stroke="midnightblue" points="102.457,-812.658 91.8622,-812.629 100.126,-819.259 102.457,-812.658"/>
</g>
<!-- Node14 -->
<g id="node14" class="node"><title>Node14</title>
<g id="a_node14"><a xlink:href="classsoftwarecontainer_1_1_software_container_agent.html#aef2eb474a1a8406815536cb7d10eefe6" target="_top" xlink:title="Launch the given command in a the given container. ">
<polygon fill="white" stroke="black" points="164.5,-777 164.5,-818 287.5,-818 287.5,-777 164.5,-777"/>
<text text-anchor="start" x="172.5" y="-806" font-family="Helvetica,sans-Serif" font-size="10.00">softwarecontainer::</text>
<text text-anchor="start" x="172.5" y="-795" font-family="Helvetica,sans-Serif" font-size="10.00">SoftwareContainerAgent</text>
<text text-anchor="middle" x="226" y="-784" font-family="Helvetica,sans-Serif" font-size="10.00">::execute</text>
</a>
</g>
</g>
<!-- Node1&#45;&gt;Node14 -->
<g id="edge13" class="edge"><title>Node1&#45;&gt;Node14</title>
<path fill="none" stroke="midnightblue" d="M110.425,-797.5C127.823,-797.5 146.861,-797.5 164.334,-797.5"/>
<polygon fill="midnightblue" stroke="midnightblue" points="110.396,-794 100.396,-797.5 110.396,-801 110.396,-794"/>
</g>
<!-- Node15 -->
<g id="node15" class="node"><title>Node15</title>
<g id="a_node15"><a xlink:href="classsoftwarecontainer_1_1_netlink.html#a1756adb8382b2ed3c1518567862139c1" target="_top" xlink:title="get a dump of all links, addresses and routes from the kernel. ">
<polygon fill="white" stroke="black" points="165.5,-1136.5 165.5,-1166.5 286.5,-1166.5 286.5,-1136.5 165.5,-1136.5"/>
<text text-anchor="start" x="173.5" y="-1154.5" font-family="Helvetica,sans-Serif" font-size="10.00">softwarecontainer::</text>
<text text-anchor="middle" x="226" y="-1143.5" font-family="Helvetica,sans-Serif" font-size="10.00">Netlink::getKernelDump</text>
</a>
</g>
</g>
<!-- Node1&#45;&gt;Node15 -->
<g id="edge16" class="edge"><title>Node1&#45;&gt;Node15</title>
<path fill="none" stroke="midnightblue" d="M54.5018,-822.812C64.4306,-891.167 94.7401,-1077.31 136,-1121.5 143.901,-1129.96 154.265,-1136.04 165.118,-1140.4"/>
<polygon fill="midnightblue" stroke="midnightblue" points="57.913,-821.941 53.0347,-812.536 50.9833,-822.93 57.913,-821.941"/>
</g>
<!-- Node16 -->
<g id="node16" class="node"><title>Node16</title>
<g id="a_node16"><a xlink:href="classsoftwarecontainer_1_1_netlink.html#a2a6160a9363a9660c82276342dcaf477" target="_top" xlink:title="Construct a new Netlink object. ">
<polygon fill="white" stroke="black" points="388,-1098.5 388,-1128.5 488,-1128.5 488,-1098.5 388,-1098.5"/>
<text text-anchor="start" x="396" y="-1116.5" font-family="Helvetica,sans-Serif" font-size="10.00">softwarecontainer::</text>
<text text-anchor="middle" x="438" y="-1105.5" font-family="Helvetica,sans-Serif" font-size="10.00">Netlink::Netlink</text>
</a>
</g>
</g>
<!-- Node1&#45;&gt;Node16 -->
<g id="edge27" class="edge"><title>Node1&#45;&gt;Node16</title>
<path fill="none" stroke="midnightblue" d="M54.8127,-822.442C65.0101,-885.662 94.9515,-1049.58 136,-1083.5 173.243,-1114.28 312.446,-1116.31 387.802,-1115.02"/>
<polygon fill="midnightblue" stroke="midnightblue" points="58.2635,-821.855 53.2428,-812.525 51.3496,-822.95 58.2635,-821.855"/>
</g>
<!-- Node17 -->
<g id="node17" class="node"><title>Node17</title>
<g id="a_node17"><a xlink:href="namespacesoftwarecontainer.html#a7e308629b69d1bcc3bc5e8ceac9b5a2a" target="_top" xlink:title="isSuccess Check if ReturnCode indicates Success or not ">
<polygon fill="white" stroke="black" points="176,-1381.5 176,-1411.5 276,-1411.5 276,-1381.5 176,-1381.5"/>
<text text-anchor="start" x="184" y="-1399.5" font-family="Helvetica,sans-Serif" font-size="10.00">softwarecontainer::</text>
<text text-anchor="middle" x="226" y="-1388.5" font-family="Helvetica,sans-Serif" font-size="10.00">isSuccess</text>
</a>
</g>
</g>
<!-- Node1&#45;&gt;Node17 -->
<g id="edge20" class="edge"><title>Node1&#45;&gt;Node17</title>
<path fill="none" stroke="midnightblue" d="M51.1844,-822.831C52.4314,-922.914 62.0551,-1289.39 136,-1372.5 146.105,-1383.86 160.967,-1390.09 175.663,-1393.44"/>
<polygon fill="midnightblue" stroke="midnightblue" points="54.6832,-822.689 51.0765,-812.727 47.6836,-822.764 54.6832,-822.689"/>
</g>
<!-- Node21 -->
<g id="node21" class="node"><title>Node21</title>
<g id="a_node21"><a xlink:href="classsoftwarecontainer_1_1_netlink.html#ab6cfc59121b64f8cf5a89b706b77826b" target="_top" xlink:title="Bring a given interface down. ">
<polygon fill="white" stroke="black" points="176,-728.5 176,-758.5 276,-758.5 276,-728.5 176,-728.5"/>
<text text-anchor="start" x="184" y="-746.5" font-family="Helvetica,sans-Serif" font-size="10.00">softwarecontainer::</text>
<text text-anchor="middle" x="226" y="-735.5" font-family="Helvetica,sans-Serif" font-size="10.00">Netlink::linkDown</text>
</a>
</g>
</g>
<!-- Node1&#45;&gt;Node21 -->
<g id="edge25" class="edge"><title>Node1&#45;&gt;Node21</title>
<path fill="none" stroke="midnightblue" d="M101.569,-778.944C112.848,-775.003 124.789,-770.985 136,-767.5 148.837,-763.51 162.832,-759.555 175.843,-756.04"/>
<polygon fill="midnightblue" stroke="midnightblue" points="100.126,-775.741 91.8622,-782.371 102.457,-782.342 100.126,-775.741"/>
</g>
<!-- Node22 -->
<g id="node22" class="node"><title>Node22</title>
<g id="a_node22"><a xlink:href="classsoftwarecontainer_1_1_network_gateway_parser.html#a3139a32ac1978488b7a7f9e8474ecea4" target="_top" xlink:title="Parses NetworkGateway configuration into IPTableEntry. ">
<polygon fill="white" stroke="black" points="136,-1322 136,-1363 316,-1363 316,-1322 136,-1322"/>
<text text-anchor="start" x="144" y="-1351" font-family="Helvetica,sans-Serif" font-size="10.00">softwarecontainer::</text>
<text text-anchor="start" x="144" y="-1340" font-family="Helvetica,sans-Serif" font-size="10.00">NetworkGatewayParser</text>
<text text-anchor="middle" x="226" y="-1329" font-family="Helvetica,sans-Serif" font-size="10.00">::parseNetworkGatewayConfiguration</text>
</a>
</g>
</g>
<!-- Node1&#45;&gt;Node22 -->
<g id="edge29" class="edge"><title>Node1&#45;&gt;Node22</title>
<path fill="none" stroke="midnightblue" d="M51.8153,-822.721C55.3102,-915.605 71.909,-1237.12 136,-1312.5 138.957,-1315.98 142.332,-1319.05 145.999,-1321.78"/>
<polygon fill="midnightblue" stroke="midnightblue" points="55.3071,-822.427 51.4518,-812.559 48.3116,-822.678 55.3071,-822.427"/>
</g>
<!-- Node23 -->
<g id="node23" class="node"><title>Node23</title>
<g id="a_node23"><a xlink:href="classsoftwarecontainer_1_1_environment_gateway.html#ad58a972633ebc7fed2d8d455900e7ed4" target="_top" xlink:title="Gateway specific parsing of config elements. ">
<polygon fill="white" stroke="black" points="168,-669 168,-710 284,-710 284,-669 168,-669"/>
<text text-anchor="start" x="176" y="-698" font-family="Helvetica,sans-Serif" font-size="10.00">softwarecontainer::</text>
<text text-anchor="start" x="176" y="-687" font-family="Helvetica,sans-Serif" font-size="10.00">EnvironmentGateway::</text>
<text text-anchor="middle" x="226" y="-676" font-family="Helvetica,sans-Serif" font-size="10.00">readConfigElement</text>
</a>
</g>
</g>
<!-- Node1&#45;&gt;Node23 -->
<g id="edge31" class="edge"><title>Node1&#45;&gt;Node23</title>
<path fill="none" stroke="midnightblue" d="M70.754,-774.802C86.8228,-757.557 110.88,-734.347 136,-719.5 145.826,-713.693 156.933,-708.818 167.885,-704.8"/>
<polygon fill="midnightblue" stroke="midnightblue" points="68.1099,-772.508 63.9581,-782.255 73.2823,-777.224 68.1099,-772.508"/>
</g>
<!-- Node24 -->
<g id="node24" class="node"><title>Node24</title>
<g id="a_node24"><a xlink:href="classsoftwarecontainer_1_1_file_gateway.html#af9355afbe0fa41df8309a55d08eda7f2" target="_top" xlink:title="Gateway specific parsing of config elements. ">
<polygon fill="white" stroke="black" points="145.5,-620.5 145.5,-650.5 306.5,-650.5 306.5,-620.5 145.5,-620.5"/>
<text text-anchor="start" x="153.5" y="-638.5" font-family="Helvetica,sans-Serif" font-size="10.00">softwarecontainer::</text>
<text text-anchor="middle" x="226" y="-627.5" font-family="Helvetica,sans-Serif" font-size="10.00">FileGateway::readConfigElement</text>
</a>
</g>
</g>
<!-- Node1&#45;&gt;Node24 -->
<g id="edge32" class="edge"><title>Node1&#45;&gt;Node24</title>
<path fill="none" stroke="midnightblue" d="M59.624,-772.783C71.7682,-741.643 96.8956,-688.68 136,-659.5 140.617,-656.055 145.696,-653.103 151.015,-650.576"/>
<polygon fill="midnightblue" stroke="midnightblue" points="56.2363,-771.849 56.0018,-782.442 62.7905,-774.308 56.2363,-771.849"/>
</g>
<!-- Node25 -->
<g id="node25" class="node"><title>Node25</title>
<g id="a_node25"><a xlink:href="classsoftwarecontainer_1_1_d_bus_gateway_instance.html#a4cf958746ad9911ebb99b9eeb8392060" target="_top" xlink:title="Gateway specific parsing of config elements. ">
<polygon fill="white" stroke="black" points="167,-561 167,-602 285,-602 285,-561 167,-561"/>
<text text-anchor="start" x="175" y="-590" font-family="Helvetica,sans-Serif" font-size="10.00">softwarecontainer::</text>
<text text-anchor="start" x="175" y="-579" font-family="Helvetica,sans-Serif" font-size="10.00">DBusGatewayInstance</text>
<text text-anchor="middle" x="226" y="-568" font-family="Helvetica,sans-Serif" font-size="10.00">::readConfigElement</text>
</a>
</g>
</g>
<!-- Node1&#45;&gt;Node25 -->
<g id="edge33" class="edge"><title>Node1&#45;&gt;Node25</title>
<path fill="none" stroke="midnightblue" d="M55.7909,-772.391C64.6535,-732.675 87.3263,-655.378 136,-611.5 144.72,-603.639 155.575,-597.827 166.674,-593.533"/>
<polygon fill="midnightblue" stroke="midnightblue" points="52.3376,-771.805 53.6921,-782.312 59.1861,-773.253 52.3376,-771.805"/>
</g>
<!-- Node26 -->
<g id="node26" class="node"><title>Node26</title>
<g id="a_node26"><a xlink:href="classsoftwarecontainer_1_1_device_node_gateway.html#a0734b6ab0ccd33f80c3139962a55f114" target="_top" xlink:title="Gateway specific parsing of config elements. ">
<polygon fill="white" stroke="black" points="144.5,-501 144.5,-542 307.5,-542 307.5,-501 144.5,-501"/>
<text text-anchor="start" x="152.5" y="-530" font-family="Helvetica,sans-Serif" font-size="10.00">softwarecontainer::</text>
<text text-anchor="start" x="152.5" y="-519" font-family="Helvetica,sans-Serif" font-size="10.00">DeviceNodeGateway::readConfig</text>
<text text-anchor="middle" x="226" y="-508" font-family="Helvetica,sans-Serif" font-size="10.00">Element</text>
</a>
</g>
</g>
<!-- Node1&#45;&gt;Node26 -->
<g id="edge34" class="edge"><title>Node1&#45;&gt;Node26</title>
<path fill="none" stroke="midnightblue" d="M52.5727,-772.3C56.9962,-723.027 73.6827,-613.347 136,-551.5 139.588,-547.939 143.612,-544.801 147.913,-542.035"/>
<polygon fill="midnightblue" stroke="midnightblue" points="49.0737,-772.149 51.7651,-782.396 56.0514,-772.707 49.0737,-772.149"/>
</g>
<!-- Node27 -->
<g id="node27" class="node"><title>Node27</title>
<g id="a_node27"><a xlink:href="classsoftwarecontainer_1_1_software_container.html#ab85363f0b8f0b9cfc6800a94bc9d8443" target="_top" xlink:title="Resume a suspended container. ">
<polygon fill="white" stroke="black" points="158,-452.5 158,-482.5 294,-482.5 294,-452.5 158,-452.5"/>
<text text-anchor="start" x="166" y="-470.5" font-family="Helvetica,sans-Serif" font-size="10.00">softwarecontainer::</text>
<text text-anchor="middle" x="226" y="-459.5" font-family="Helvetica,sans-Serif" font-size="10.00">SoftwareContainer::resume</text>
</a>
</g>
</g>
<!-- Node1&#45;&gt;Node27 -->
<g id="edge35" class="edge"><title>Node1&#45;&gt;Node27</title>
<path fill="none" stroke="midnightblue" d="M50.1923,-772.044C49.7976,-713.747 57.3233,-569.585 136,-491.5 142.134,-485.412 149.64,-480.825 157.666,-477.376"/>
<polygon fill="midnightblue" stroke="midnightblue" points="46.6952,-772.261 50.3504,-782.205 53.6943,-772.152 46.6952,-772.261"/>
</g>
<!-- Node28 -->
<g id="node28" class="node"><title>Node28</title>
<g id="a_node28"><a xlink:href="classsoftwarecontainer_1_1_d_bus_gateway.html#aad83b6fa08a863d7af731d77dade15b0" target="_top" xlink:title="Sets config for both dbus session instances. ">
<polygon fill="white" stroke="black" points="374,-381.5 374,-411.5 502,-411.5 502,-381.5 374,-381.5"/>
<text text-anchor="start" x="382" y="-399.5" font-family="Helvetica,sans-Serif" font-size="10.00">softwarecontainer::</text>
<text text-anchor="middle" x="438" y="-388.5" font-family="Helvetica,sans-Serif" font-size="10.00">DBusGateway::setConfig</text>
</a>
</g>
</g>
<!-- Node1&#45;&gt;Node28 -->
<g id="edge36" class="edge"><title>Node1&#45;&gt;Node28</title>
<path fill="none" stroke="midnightblue" d="M52.3513,-771.797C57.2035,-690.671 76.7283,-442.574 136,-394.5 210.375,-334.176 332.503,-361.239 395.91,-381.492"/>
<polygon fill="midnightblue" stroke="midnightblue" points="48.8389,-771.914 51.7614,-782.097 55.8275,-772.314 48.8389,-771.914"/>
</g>
<!-- Node29 -->
<g id="node29" class="node"><title>Node29</title>
<g id="a_node29"><a xlink:href="classsoftwarecontainer_1_1_gateway.html#a24843565ff6c3dfaed5ce3f7682a9b12" target="_top" xlink:title="Configure this gateway according to the supplied JSON configuration string. ">
<polygon fill="white" stroke="black" points="174,-403.5 174,-433.5 278,-433.5 278,-403.5 174,-403.5"/>
<text text-anchor="start" x="182" y="-421.5" font-family="Helvetica,sans-Serif" font-size="10.00">softwarecontainer::</text>
<text text-anchor="middle" x="226" y="-410.5" font-family="Helvetica,sans-Serif" font-size="10.00">Gateway::setConfig</text>
</a>
</g>
</g>
<!-- Node1&#45;&gt;Node29 -->
<g id="edge37" class="edge"><title>Node1&#45;&gt;Node29</title>
<path fill="none" stroke="midnightblue" d="M53.7639,-772.167C62.2078,-699.308 89.9313,-491.363 136,-443.5 146.017,-433.093 159.991,-426.914 173.901,-423.275"/>
<polygon fill="midnightblue" stroke="midnightblue" points="50.2663,-771.949 52.6161,-782.28 57.2216,-772.739 50.2663,-771.949"/>
</g>
<!-- Node30 -->
<g id="node30" class="node"><title>Node30</title>
<g id="a_node30"><a xlink:href="classsoftwarecontainer_1_1_netlink.html#a53e313aa155f065c1d1ef6a4e20ccede" target="_top" xlink:title="Sets an IP address for a network link. ">
<polygon fill="white" stroke="black" points="176,-315.5 176,-345.5 276,-345.5 276,-315.5 176,-315.5"/>
<text text-anchor="start" x="184" y="-333.5" font-family="Helvetica,sans-Serif" font-size="10.00">softwarecontainer::</text>
<text text-anchor="middle" x="226" y="-322.5" font-family="Helvetica,sans-Serif" font-size="10.00">Netlink::setIP</text>
</a>
</g>
</g>
<!-- Node1&#45;&gt;Node30 -->
<g id="edge39" class="edge"><title>Node1&#45;&gt;Node30</title>
<path fill="none" stroke="midnightblue" d="M52.644,-772.104C58.5508,-688.398 81.3203,-422.983 136,-360.5 146.201,-348.843 161.087,-341.706 175.777,-337.34"/>
<polygon fill="midnightblue" stroke="midnightblue" points="49.141,-772.029 51.949,-782.245 56.1246,-772.507 49.141,-772.029"/>
</g>
<!-- Node31 -->
<g id="node31" class="node"><title>Node31</title>
<g id="a_node31"><a xlink:href="classsoftwarecontainer_1_1_software_container_agent.html#a24b59cd9982d4e2e51f999bedea60957" target="_top" xlink:title="shuts down a container ">
<polygon fill="white" stroke="black" points="164.5,-256 164.5,-297 287.5,-297 287.5,-256 164.5,-256"/>
<text text-anchor="start" x="172.5" y="-285" font-family="Helvetica,sans-Serif" font-size="10.00">softwarecontainer::</text>
<text text-anchor="start" x="172.5" y="-274" font-family="Helvetica,sans-Serif" font-size="10.00">SoftwareContainerAgent</text>
<text text-anchor="middle" x="226" y="-263" font-family="Helvetica,sans-Serif" font-size="10.00">::shutdownContainer</text>
</a>
</g>
</g>
<!-- Node1&#45;&gt;Node31 -->
<g id="edge40" class="edge"><title>Node1&#45;&gt;Node31</title>
<path fill="none" stroke="midnightblue" d="M52.0392,-772.286C56.2415,-682.215 74.7981,-377.914 136,-306.5 143.427,-297.833 153.447,-291.663 164.087,-287.272"/>
<polygon fill="midnightblue" stroke="midnightblue" points="48.537,-772.26 51.5862,-782.406 55.53,-772.573 48.537,-772.26"/>
</g>
<!-- Node32 -->
<g id="node32" class="node"><title>Node32</title>
<g id="a_node32"><a xlink:href="classsoftwarecontainer_1_1_software_container.html#a6141f7e59438e4f1dce565f3826a81f0" target="_top" xlink:title="Creates a new SoftwareContainer instance. ">
<polygon fill="white" stroke="black" points="154.5,-196 154.5,-237 297.5,-237 297.5,-196 154.5,-196"/>
<text text-anchor="start" x="162.5" y="-225" font-family="Helvetica,sans-Serif" font-size="10.00">softwarecontainer::</text>
<text text-anchor="start" x="162.5" y="-214" font-family="Helvetica,sans-Serif" font-size="10.00">SoftwareContainer::Software</text>
<text text-anchor="middle" x="226" y="-203" font-family="Helvetica,sans-Serif" font-size="10.00">Container</text>
</a>
</g>
</g>
<!-- Node1&#45;&gt;Node32 -->
<g id="edge41" class="edge"><title>Node1&#45;&gt;Node32</title>
<path fill="none" stroke="midnightblue" d="M51.5112,-772.419C53.9759,-675.646 67.5299,-327.895 136,-246.5 141.038,-240.511 147.316,-235.713 154.192,-231.87"/>
<polygon fill="midnightblue" stroke="midnightblue" points="48.0113,-772.38 51.2731,-782.46 55.0093,-772.546 48.0113,-772.38"/>
</g>
<!-- Node33 -->
<g id="node33" class="node"><title>Node33</title>
<g id="a_node33"><a xlink:href="classsoftwarecontainer_1_1_container.html#a33340235226849d1f178e2f1d7efabe2" target="_top" xlink:title="Start the container. ">
<polygon fill="white" stroke="black" points="176,-147.5 176,-177.5 276,-177.5 276,-147.5 176,-147.5"/>
<text text-anchor="start" x="184" y="-165.5" font-family="Helvetica,sans-Serif" font-size="10.00">softwarecontainer::</text>
<text text-anchor="middle" x="226" y="-154.5" font-family="Helvetica,sans-Serif" font-size="10.00">Container::start</text>
</a>
</g>
</g>
<!-- Node1&#45;&gt;Node33 -->
<g id="edge42" class="edge"><title>Node1&#45;&gt;Node33</title>
<path fill="none" stroke="midnightblue" d="M50.9396,-772.29C51.2089,-668.501 57.4779,-275.521 136,-186.5 146.057,-175.098 160.906,-168.854 175.605,-165.509"/>
<polygon fill="midnightblue" stroke="midnightblue" points="47.4395,-772.452 50.9308,-782.455 54.4395,-772.458 47.4395,-772.452"/>
</g>
<!-- Node34 -->
<g id="node34" class="node"><title>Node34</title>
<g id="a_node34"><a xlink:href="classsoftwarecontainer_1_1_software_container.html#ac20c6d0cd340297ed80ae5684d9d64d3" target="_top" xlink:title="Starts the Gateways by setting the gateway configurations and activating the configured gateway...">
<polygon fill="white" stroke="black" points="142.5,-98.5 142.5,-128.5 309.5,-128.5 309.5,-98.5 142.5,-98.5"/>
<text text-anchor="start" x="150.5" y="-116.5" font-family="Helvetica,sans-Serif" font-size="10.00">softwarecontainer::</text>
<text text-anchor="middle" x="226" y="-105.5" font-family="Helvetica,sans-Serif" font-size="10.00">SoftwareContainer::startGateways</text>
</a>
</g>
</g>
<!-- Node1&#45;&gt;Node34 -->
<g id="edge43" class="edge"><title>Node1&#45;&gt;Node34</title>
<path fill="none" stroke="midnightblue" d="M50.6819,-772.452C49.819,-663.982 51.8707,-235.862 136,-138.5 139.358,-134.614 143.267,-131.309 147.537,-128.5"/>
<polygon fill="midnightblue" stroke="midnightblue" points="47.1822,-772.505 50.778,-782.471 54.1819,-772.438 47.1822,-772.505"/>
</g>
<!-- Node35 -->
<g id="node35" class="node"><title>Node35</title>
<g id="a_node35"><a xlink:href="classsoftwarecontainer_1_1_software_container.html#a99f3c698cc9b83d71a6c302737717e77" target="_top" xlink:title="Suspend the container. ">
<polygon fill="white" stroke="black" points="156,-49.5 156,-79.5 296,-79.5 296,-49.5 156,-49.5"/>
<text text-anchor="start" x="164" y="-67.5" font-family="Helvetica,sans-Serif" font-size="10.00">softwarecontainer::</text>
<text text-anchor="middle" x="226" y="-56.5" font-family="Helvetica,sans-Serif" font-size="10.00">SoftwareContainer::suspend</text>
</a>
</g>
</g>
<!-- Node1&#45;&gt;Node35 -->
<g id="edge44" class="edge"><title>Node1&#45;&gt;Node35</title>
<path fill="none" stroke="midnightblue" d="M52.3804,-772.329C59.1731,-652.398 90.5606,-142.556 136,-89.5 141.429,-83.1613 148.324,-78.3662 155.866,-74.7491"/>
<polygon fill="midnightblue" stroke="midnightblue" points="48.8814,-772.215 51.8165,-782.395 55.8704,-772.607 48.8814,-772.215"/>
</g>
<!-- Node36 -->
<g id="node36" class="node"><title>Node36</title>
<g id="a_node36"><a xlink:href="classsoftwarecontainer_1_1_d_bus_gateway.html#a003afe7ddc034ad69f0b6ecc7abe2fdc" target="_top" xlink:title="Restore system to the state prior to launching of gateway. ">
<polygon fill="white" stroke="black" points="163,-0.5 163,-30.5 289,-30.5 289,-0.5 163,-0.5"/>
<text text-anchor="start" x="171" y="-18.5" font-family="Helvetica,sans-Serif" font-size="10.00">softwarecontainer::</text>
<text text-anchor="middle" x="226" y="-7.5" font-family="Helvetica,sans-Serif" font-size="10.00">DBusGateway::teardown</text>
</a>
</g>
</g>
<!-- Node1&#45;&gt;Node36 -->
<g id="edge45" class="edge"><title>Node1&#45;&gt;Node36</title>
<path fill="none" stroke="midnightblue" d="M52.1814,-772.198C58.2438,-647.01 87.4721,-97.6042 136,-40.5 143.067,-32.1837 152.66,-26.5216 162.937,-22.6903"/>
<polygon fill="midnightblue" stroke="midnightblue" points="48.6777,-772.192 51.6959,-782.348 55.6697,-772.527 48.6777,-772.192"/>
</g>
<!-- Node5&#45;&gt;Node6 -->
<g id="edge5" class="edge"><title>Node5&#45;&gt;Node6</title>
<path fill="none" stroke="midnightblue" d="M514.879,-1176.14C532.781,-1179.36 551.406,-1182.71 567.772,-1185.65"/>
<polygon fill="midnightblue" stroke="midnightblue" points="515.489,-1172.69 505.028,-1174.37 514.251,-1179.58 515.489,-1172.69"/>
</g>
<!-- Node5&#45;&gt;Node7 -->
<g id="edge6" class="edge"><title>Node5&#45;&gt;Node7</title>
<path fill="none" stroke="midnightblue" d="M514.879,-1148.43C532.781,-1145.11 551.406,-1141.66 567.772,-1138.63"/>
<polygon fill="midnightblue" stroke="midnightblue" points="514.222,-1144.99 505.028,-1150.26 515.498,-1151.88 514.222,-1144.99"/>
</g>
<!-- Node5&#45;&gt;Node8 -->
<g id="edge7" class="edge"><title>Node5&#45;&gt;Node8</title>
<path fill="none" stroke="midnightblue" d="M513.79,-1143.59C517.304,-1142.02 520.727,-1140.32 524,-1138.5 542.958,-1127.93 543.841,-1119.99 560,-1105.5 573.132,-1093.72 588.134,-1080.58 599.45,-1070.72"/>
<polygon fill="midnightblue" stroke="midnightblue" points="512.239,-1140.45 504.316,-1147.48 514.896,-1146.92 512.239,-1140.45"/>
</g>
<!-- Node9&#45;&gt;Node10 -->
<g id="edge9" class="edge"><title>Node9&#45;&gt;Node10</title>
<path fill="none" stroke="midnightblue" d="M288.787,-955.681C319.436,-961.226 356.034,-967.849 385.195,-973.126"/>
<polygon fill="midnightblue" stroke="midnightblue" points="289.104,-952.181 278.641,-953.845 287.858,-959.069 289.104,-952.181"/>
</g>
<!-- Node9&#45;&gt;Node12 -->
<g id="edge11" class="edge"><title>Node9&#45;&gt;Node12</title>
<path fill="none" stroke="midnightblue" d="M288.649,-934.812C320.22,-929.851 358.132,-923.893 387.728,-919.243"/>
<polygon fill="midnightblue" stroke="midnightblue" points="287.976,-931.375 278.641,-936.385 289.063,-938.29 287.976,-931.375"/>
</g>
<!-- Node11 -->
<g id="node11" class="node"><title>Node11</title>
<g id="a_node11"><a xlink:href="classsoftwarecontainer_1_1_container.html#a6c57689a4a21b8c9342c53c7e8743203" target="_top" xlink:title="create Creates a new lxc_container and creates it with all the initialization. ">
<polygon fill="white" stroke="black" points="568,-967.5 568,-997.5 668,-997.5 668,-967.5 568,-967.5"/>
<text text-anchor="start" x="576" y="-985.5" font-family="Helvetica,sans-Serif" font-size="10.00">softwarecontainer::</text>
<text text-anchor="middle" x="618" y="-974.5" font-family="Helvetica,sans-Serif" font-size="10.00">Container::create</text>
</a>
</g>
</g>
<!-- Node10&#45;&gt;Node11 -->
<g id="edge10" class="edge"><title>Node10&#45;&gt;Node11</title>
<path fill="none" stroke="midnightblue" d="M501.122,-982.5C522.931,-982.5 547.115,-982.5 567.724,-982.5"/>
<polygon fill="midnightblue" stroke="midnightblue" points="500.964,-979 490.963,-982.5 500.963,-986 500.964,-979"/>
</g>
<!-- Node15&#45;&gt;Node5 -->
<g id="edge18" class="edge"><title>Node15&#45;&gt;Node5</title>
<path fill="none" stroke="midnightblue" d="M296.687,-1155.15C320.622,-1156.4 347.328,-1157.8 370.964,-1159.04"/>
<polygon fill="midnightblue" stroke="midnightblue" points="296.785,-1151.65 286.616,-1154.62 296.419,-1158.64 296.785,-1151.65"/>
</g>
<!-- Node15&#45;&gt;Node16 -->
<g id="edge17" class="edge"><title>Node15&#45;&gt;Node16</title>
<path fill="none" stroke="midnightblue" d="M296.569,-1138.91C326.457,-1133.5 360.683,-1127.31 387.864,-1122.39"/>
<polygon fill="midnightblue" stroke="midnightblue" points="295.833,-1135.49 286.616,-1140.71 297.079,-1142.38 295.833,-1135.49"/>
</g>
<!-- Node17&#45;&gt;Node3 -->
<g id="edge23" class="edge"><title>Node17&#45;&gt;Node3</title>
<path fill="none" stroke="midnightblue" d="M285.638,-1413.29C295.997,-1417.09 306.498,-1421.5 316,-1426.5 333.7,-1435.81 334.073,-1444.63 352,-1453.5 358.872,-1456.9 366.302,-1459.89 373.811,-1462.49"/>
<polygon fill="midnightblue" stroke="midnightblue" points="286.793,-1409.99 276.198,-1409.98 284.475,-1416.59 286.793,-1409.99"/>
</g>
<!-- Node18 -->
<g id="node18" class="node"><title>Node18</title>
<g id="a_node18"><a xlink:href="classsoftwarecontainer_1_1_device_node_gateway.html#a9e912027cad4fff3ed4d9a9581f45227" target="_top" xlink:title="Implements Gateway::activateGateway. ">
<polygon fill="white" stroke="black" points="363,-1403 363,-1444 513,-1444 513,-1403 363,-1403"/>
<text text-anchor="start" x="371" y="-1432" font-family="Helvetica,sans-Serif" font-size="10.00">softwarecontainer::</text>
<text text-anchor="start" x="371" y="-1421" font-family="Helvetica,sans-Serif" font-size="10.00">DeviceNodeGateway::activate</text>
<text text-anchor="middle" x="438" y="-1410" font-family="Helvetica,sans-Serif" font-size="10.00">Gateway</text>
</a>
</g>
</g>
<!-- Node17&#45;&gt;Node18 -->
<g id="edge21" class="edge"><title>Node17&#45;&gt;Node18</title>
<path fill="none" stroke="midnightblue" d="M286.197,-1404.11C310.045,-1407.18 337.813,-1410.75 362.975,-1413.98"/>
<polygon fill="midnightblue" stroke="midnightblue" points="286.6,-1400.63 276.236,-1402.83 285.708,-1407.58 286.6,-1400.63"/>
</g>
<!-- Node19 -->
<g id="node19" class="node"><title>Node19</title>
<g id="a_node19"><a xlink:href="classsoftwarecontainer_1_1_network_gateway.html#ad67674d2ce8d329188446e71c14e3a88" target="_top" xlink:title="Gateway specific parsing of config elements. ">
<polygon fill="white" stroke="black" points="365,-1295 365,-1336 511,-1336 511,-1295 365,-1295"/>
<text text-anchor="start" x="373" y="-1324" font-family="Helvetica,sans-Serif" font-size="10.00">softwarecontainer::</text>
<text text-anchor="start" x="373" y="-1313" font-family="Helvetica,sans-Serif" font-size="10.00">NetworkGateway::readConfig</text>
<text text-anchor="middle" x="438" y="-1302" font-family="Helvetica,sans-Serif" font-size="10.00">Element</text>
</a>
</g>
</g>
<!-- Node17&#45;&gt;Node19 -->
<g id="edge22" class="edge"><title>Node17&#45;&gt;Node19</title>
<path fill="none" stroke="midnightblue" d="M286.004,-1383.99C296.254,-1380.87 306.624,-1377.07 316,-1372.5 333.979,-1363.74 334.367,-1354.94 352,-1345.5 358.347,-1342.1 365.157,-1338.96 372.06,-1336.09"/>
<polygon fill="midnightblue" stroke="midnightblue" points="284.9,-1380.67 276.249,-1386.78 286.826,-1387.4 284.9,-1380.67"/>
</g>
<!-- Node20 -->
<g id="node20" class="node"><title>Node20</title>
<g id="a_node20"><a xlink:href="classsoftwarecontainer_1_1_pulse_gateway.html#a0cd0a00ca7590d7c9c3c961e20de56df" target="_top" xlink:title="Implements Gateway::activateGateway. ">
<polygon fill="white" stroke="black" points="358,-1354.5 358,-1384.5 518,-1384.5 518,-1354.5 358,-1354.5"/>
<text text-anchor="start" x="366" y="-1372.5" font-family="Helvetica,sans-Serif" font-size="10.00">softwarecontainer::</text>
<text text-anchor="middle" x="438" y="-1361.5" font-family="Helvetica,sans-Serif" font-size="10.00">PulseGateway::activateGateway</text>
</a>
</g>
</g>
<!-- Node17&#45;&gt;Node20 -->
<g id="edge24" class="edge"><title>Node17&#45;&gt;Node20</title>
<path fill="none" stroke="midnightblue" d="M286.173,-1388.89C308.363,-1386.04 333.95,-1382.75 357.673,-1379.7"/>
<polygon fill="midnightblue" stroke="midnightblue" points="285.708,-1385.42 276.236,-1390.17 286.6,-1392.37 285.708,-1385.42"/>
</g>
<!-- Node22&#45;&gt;Node19 -->
<g id="edge30" class="edge"><title>Node22&#45;&gt;Node19</title>
<path fill="none" stroke="midnightblue" d="M326.056,-1329.76C339.179,-1328.08 352.426,-1326.37 364.973,-1324.76"/>
<polygon fill="midnightblue" stroke="midnightblue" points="325.531,-1326.3 316.059,-1331.05 326.424,-1333.25 325.531,-1326.3"/>
</g>
<!-- Node29&#45;&gt;Node28 -->
<g id="edge38" class="edge"><title>Node29&#45;&gt;Node28</title>
<path fill="none" stroke="midnightblue" d="M288.148,-412.094C315.002,-409.281 346.521,-405.979 373.625,-403.139"/>
<polygon fill="midnightblue" stroke="midnightblue" points="287.684,-408.623 278.103,-413.146 288.414,-415.585 287.684,-408.623"/>
</g>
</g>
</svg>
