<?xml version="1.0" encoding="UTF-8" standalone="no"?>
<!DOCTYPE svg PUBLIC "-//W3C//DTD SVG 1.1//EN"
 "http://www.w3.org/Graphics/SVG/1.1/DTD/svg11.dtd">
<!-- Generated by graphviz version 2.38.0 (20140413.2041)
 -->
<!-- Title: softwarecontainer::isDirectory Pages: 1 -->
<svg width="646pt" height="365pt"
 viewBox="0.00 0.00 646.00 364.50" xmlns="http://www.w3.org/2000/svg" xmlns:xlink="http://www.w3.org/1999/xlink">
<g id="graph0" class="graph" transform="scale(1 1) rotate(0) translate(4 360.5)">
<title>softwarecontainer::isDirectory</title>
<polygon fill="white" stroke="none" points="-4,4 -4,-360.5 642,-360.5 642,4 -4,4"/>
<!-- Node1 -->
<g id="node1" class="node"><title>Node1</title>
<polygon fill="#bfbfbf" stroke="black" points="0,-168.5 0,-198.5 100,-198.5 100,-168.5 0,-168.5"/>
<text text-anchor="start" x="8" y="-186.5" font-family="Helvetica,sans-Serif" font-size="10.00">softwarecontainer::</text>
<text text-anchor="middle" x="50" y="-175.5" font-family="Helvetica,sans-Serif" font-size="10.00">isDirectory</text>
</g>
<!-- Node2 -->
<g id="node2" class="node"><title>Node2</title>
<g id="a_node2"><a xlink:href="classsoftwarecontainer_1_1_file_toolkit_with_undo.html#a97fda85bea6f756d0620927c920ce83b" target="_top" xlink:title="bindMount Bind mount a src directory to another position dst. ">
<polygon fill="white" stroke="black" points="328.5,-315 328.5,-356 433.5,-356 433.5,-315 328.5,-315"/>
<text text-anchor="start" x="336.5" y="-344" font-family="Helvetica,sans-Serif" font-size="10.00">softwarecontainer::</text>
<text text-anchor="start" x="336.5" y="-333" font-family="Helvetica,sans-Serif" font-size="10.00">FileToolkitWithUndo</text>
<text text-anchor="middle" x="381" y="-322" font-family="Helvetica,sans-Serif" font-size="10.00">::bindMount</text>
</a>
</g>
</g>
<!-- Node1&#45;&gt;Node2 -->
<g id="edge1" class="edge"><title>Node1&#45;&gt;Node2</title>
<path fill="none" stroke="midnightblue" d="M61.5533,-208.027C74.728,-235.433 99.997,-278.797 136,-300.5 194.824,-335.96 275.797,-340.714 328.025,-339.326"/>
<polygon fill="midnightblue" stroke="midnightblue" points="64.6241,-206.328 57.2492,-198.722 58.2708,-209.267 64.6241,-206.328"/>
</g>
<!-- Node3 -->
<g id="node3" class="node"><title>Node3</title>
<g id="a_node3"><a xlink:href="classsoftwarecontainer_1_1_container.html#ae5445d6a0c4b8b006ed38b3c01bb870c" target="_top" xlink:title="Tries to bind mount a path from host to container. ">
<polygon fill="white" stroke="black" points="478,-271.5 478,-301.5 638,-301.5 638,-271.5 478,-271.5"/>
<text text-anchor="start" x="486" y="-289.5" font-family="Helvetica,sans-Serif" font-size="10.00">softwarecontainer::</text>
<text text-anchor="middle" x="558" y="-278.5" font-family="Helvetica,sans-Serif" font-size="10.00">Container::bindMountInContainer</text>
</a>
</g>
</g>
<!-- Node1&#45;&gt;Node3 -->
<g id="edge3" class="edge"><title>Node1&#45;&gt;Node3</title>
<path fill="none" stroke="midnightblue" d="M66.9905,-207.052C82.135,-227.148 106.857,-254.754 136,-267.5 195.241,-293.41 373.366,-292.599 477.974,-289.614"/>
<polygon fill="midnightblue" stroke="midnightblue" points="69.6256,-204.724 60.9131,-198.696 63.9646,-208.842 69.6256,-204.724"/>
</g>
<!-- Node4 -->
<g id="node4" class="node"><title>Node4</title>
<g id="a_node4"><a xlink:href="classsoftwarecontainer_1_1_container_utility_interface.html#a8498bf9774749f72a4a649f098fc64ec" target="_top" xlink:title="Check that the workspace exists. ">
<polygon fill="white" stroke="black" points="149,-217 149,-258 271,-258 271,-217 149,-217"/>
<text text-anchor="start" x="157" y="-246" font-family="Helvetica,sans-Serif" font-size="10.00">softwarecontainer::</text>
<text text-anchor="start" x="157" y="-235" font-family="Helvetica,sans-Serif" font-size="10.00">ContainerUtilityInterface</text>
<text text-anchor="middle" x="210" y="-224" font-family="Helvetica,sans-Serif" font-size="10.00">::checkWorkspace</text>
</a>
</g>
</g>
<!-- Node1&#45;&gt;Node4 -->
<g id="edge4" class="edge"><title>Node1&#45;&gt;Node4</title>
<path fill="none" stroke="midnightblue" d="M104.661,-201.84C118.92,-206.713 134.412,-212.008 148.987,-216.989"/>
<polygon fill="midnightblue" stroke="midnightblue" points="105.606,-198.464 95.0118,-198.542 103.342,-205.088 105.606,-198.464"/>
</g>
<!-- Node5 -->
<g id="node5" class="node"><title>Node5</title>
<g id="a_node5"><a xlink:href="classsoftwarecontainer_1_1_create_dir.html#a5450e7097f1e4e1b88c3b55ab0ccae49" target="_top" xlink:title="createDirectory creates a directory according to given path. ">
<polygon fill="white" stroke="black" points="144.5,-168.5 144.5,-198.5 275.5,-198.5 275.5,-168.5 144.5,-168.5"/>
<text text-anchor="start" x="152.5" y="-186.5" font-family="Helvetica,sans-Serif" font-size="10.00">softwarecontainer::</text>
<text text-anchor="middle" x="210" y="-175.5" font-family="Helvetica,sans-Serif" font-size="10.00">CreateDir::createDirectory</text>
</a>
</g>
</g>
<!-- Node1&#45;&gt;Node5 -->
<g id="edge5" class="edge"><title>Node1&#45;&gt;Node5</title>
<path fill="none" stroke="midnightblue" d="M110.214,-183.5C121.403,-183.5 133.157,-183.5 144.499,-183.5"/>
<polygon fill="midnightblue" stroke="midnightblue" points="110.126,-180 100.126,-183.5 110.126,-187 110.126,-180"/>
</g>
<!-- Node6 -->
<g id="node6" class="node"><title>Node6</title>
<g id="a_node6"><a xlink:href="classsoftwarecontainer_1_1_service_manifest_file_loader.html#a3e97e320f32a9767ca5a94426e5f520e" target="_top" xlink:title="Loads the json content from the Service Manifest(s) ">
<polygon fill="white" stroke="black" points="144,-109 144,-150 276,-150 276,-109 144,-109"/>
<text text-anchor="start" x="152" y="-138" font-family="Helvetica,sans-Serif" font-size="10.00">softwarecontainer::</text>
<text text-anchor="start" x="152" y="-127" font-family="Helvetica,sans-Serif" font-size="10.00">ServiceManifestFileLoader</text>
<text text-anchor="middle" x="210" y="-116" font-family="Helvetica,sans-Serif" font-size="10.00">::loadContent</text>
</a>
</g>
</g>
<!-- Node1&#45;&gt;Node6 -->
<g id="edge6" class="edge"><title>Node1&#45;&gt;Node6</title>
<path fill="none" stroke="midnightblue" d="M104.661,-165.16C118.92,-160.287 134.412,-154.992 148.987,-150.011"/>
<polygon fill="midnightblue" stroke="midnightblue" points="103.342,-161.912 95.0118,-168.458 105.606,-168.536 103.342,-161.912"/>
</g>
<!-- Node7 -->
<g id="node7" class="node"><title>Node7</title>
<g id="a_node7"><a xlink:href="classsoftwarecontainer_1_1_software_container.html#aa699253aa7955f9d41c78324d5f49184" target="_top" xlink:title="Indicates if gateways have been configured previously. ">
<polygon fill="white" stroke="black" points="136,-49 136,-90 284,-90 284,-49 136,-49"/>
<text text-anchor="start" x="144" y="-78" font-family="Helvetica,sans-Serif" font-size="10.00">softwarecontainer::</text>
<text text-anchor="start" x="144" y="-67" font-family="Helvetica,sans-Serif" font-size="10.00">SoftwareContainer::previously</text>
<text text-anchor="middle" x="210" y="-56" font-family="Helvetica,sans-Serif" font-size="10.00">Configured</text>
</a>
</g>
</g>
<!-- Node1&#45;&gt;Node7 -->
<g id="edge7" class="edge"><title>Node1&#45;&gt;Node7</title>
<path fill="none" stroke="midnightblue" d="M69.6388,-160.67C85.6709,-142.204 110.23,-116.558 136,-99.5 141.142,-96.0967 146.731,-92.9629 152.453,-90.1091"/>
<polygon fill="midnightblue" stroke="midnightblue" points="66.9224,-158.461 63.1052,-168.344 72.2526,-162.999 66.9224,-158.461"/>
</g>
<!-- Node8 -->
<g id="node8" class="node"><title>Node8</title>
<g id="a_node8"><a xlink:href="namespacesoftwarecontainer.html#aee26a680bb2961627889d39c9f874b2c" target="_top" xlink:title="waitForProcessTermination Waits for a process to terminate and then returns the status of the process...">
<polygon fill="white" stroke="black" points="142,-0.5 142,-30.5 278,-30.5 278,-0.5 142,-0.5"/>
<text text-anchor="start" x="150" y="-18.5" font-family="Helvetica,sans-Serif" font-size="10.00">softwarecontainer::</text>
<text text-anchor="middle" x="210" y="-7.5" font-family="Helvetica,sans-Serif" font-size="10.00">waitForProcessTermination</text>
</a>
</g>
</g>
<!-- Node1&#45;&gt;Node8 -->
<g id="edge8" class="edge"><title>Node1&#45;&gt;Node8</title>
<path fill="none" stroke="midnightblue" d="M59.2452,-158.97C71.217,-126.981 96.4077,-71.3596 136,-39.5 140.261,-36.0709 145.03,-33.1245 150.035,-30.5943"/>
<polygon fill="midnightblue" stroke="midnightblue" points="55.9209,-157.871 55.8212,-168.465 62.5059,-160.245 55.9209,-157.871"/>
</g>
<!-- Node2&#45;&gt;Node3 -->
<g id="edge2" class="edge"><title>Node2&#45;&gt;Node3</title>
<path fill="none" stroke="midnightblue" d="M443.297,-318.337C462.878,-312.854 484.388,-306.831 503.379,-301.514"/>
<polygon fill="midnightblue" stroke="midnightblue" points="442.245,-314.997 433.559,-321.063 444.133,-321.737 442.245,-314.997"/>
</g>
<!-- Node9 -->
<g id="node9" class="node"><title>Node9</title>
<g id="a_node9"><a xlink:href="classsoftwarecontainer_1_1_container.html#a480d9a7d3a2c0ee9d1756a2bdfc29f59" target="_top" xlink:title="synchronous version of execute ">
<polygon fill="white" stroke="black" points="320,-114.5 320,-144.5 442,-144.5 442,-114.5 320,-114.5"/>
<text text-anchor="start" x="328" y="-132.5" font-family="Helvetica,sans-Serif" font-size="10.00">softwarecontainer::</text>
<text text-anchor="middle" x="381" y="-121.5" font-family="Helvetica,sans-Serif" font-size="10.00">Container::executeSync</text>
</a>
</g>
</g>
<!-- Node8&#45;&gt;Node9 -->
<g id="edge9" class="edge"><title>Node8&#45;&gt;Node9</title>
<path fill="none" stroke="midnightblue" d="M274.751,-34.5615C277.939,-36.1005 281.042,-37.7453 284,-39.5 318.385,-59.8968 350.62,-94.4644 367.577,-114.297"/>
<polygon fill="midnightblue" stroke="midnightblue" points="276.149,-31.353 265.589,-30.5002 273.313,-37.7524 276.149,-31.353"/>
</g>
<!-- Node9&#45;&gt;Node3 -->
<g id="edge10" class="edge"><title>Node9&#45;&gt;Node3</title>
<path fill="none" stroke="midnightblue" d="M406.418,-151.406C442.521,-183.796 509.212,-243.627 540.271,-271.492"/>
<polygon fill="midnightblue" stroke="midnightblue" points="408.561,-148.627 398.78,-144.554 403.886,-153.837 408.561,-148.627"/>
</g>
</g>
</svg>
