<?xml version="1.0" encoding="UTF-8" standalone="no"?>
<!DOCTYPE svg PUBLIC "-//W3C//DTD SVG 1.1//EN"
 "http://www.w3.org/Graphics/SVG/1.1/DTD/svg11.dtd">
<!-- Generated by graphviz version 2.38.0 (20140413.2041)
 -->
<!-- Title: softwarecontainer::isError Pages: 1 -->
<svg width="690pt" height="1712pt"
 viewBox="0.00 0.00 690.00 1712.00" xmlns="http://www.w3.org/2000/svg" xmlns:xlink="http://www.w3.org/1999/xlink">
<g id="graph0" class="graph" transform="scale(1 1) rotate(0) translate(4 1708)">
<title>softwarecontainer::isError</title>
<polygon fill="white" stroke="none" points="-4,4 -4,-1708 686,-1708 686,4 -4,4"/>
<!-- Node1 -->
<g id="node1" class="node"><title>Node1</title>
<polygon fill="#bfbfbf" stroke="black" points="0,-865.5 0,-895.5 100,-895.5 100,-865.5 0,-865.5"/>
<text text-anchor="start" x="8" y="-883.5" font-family="Helvetica,sans-Serif" font-size="10.00">softwarecontainer::</text>
<text text-anchor="middle" x="50" y="-872.5" font-family="Helvetica,sans-Serif" font-size="10.00">isError</text>
</g>
<!-- Node2 -->
<g id="node2" class="node"><title>Node2</title>
<g id="a_node2"><a xlink:href="classsoftwarecontainer_1_1_d_bus_gateway.html#a7ba4cdcf870915d57f9f36ed68f7c33a" target="_top" xlink:title="Activates both dbus session instances. ">
<polygon fill="white" stroke="black" points="165.5,-1593.5 165.5,-1623.5 286.5,-1623.5 286.5,-1593.5 165.5,-1593.5"/>
<text text-anchor="start" x="173.5" y="-1611.5" font-family="Helvetica,sans-Serif" font-size="10.00">softwarecontainer::</text>
<text text-anchor="middle" x="226" y="-1600.5" font-family="Helvetica,sans-Serif" font-size="10.00">DBusGateway::activate</text>
</a>
</g>
</g>
<!-- Node1&#45;&gt;Node2 -->
<g id="edge1" class="edge"><title>Node1&#45;&gt;Node2</title>
<path fill="none" stroke="midnightblue" d="M50.6019,-905.827C49.3386,-1018.41 49.7423,-1472.58 136,-1578.5 143.516,-1587.73 153.983,-1594.14 165.106,-1598.58"/>
<polygon fill="midnightblue" stroke="midnightblue" points="54.1026,-905.786 50.7306,-895.742 47.1032,-905.696 54.1026,-905.786"/>
</g>
<!-- Node3 -->
<g id="node3" class="node"><title>Node3</title>
<g id="a_node3"><a xlink:href="classsoftwarecontainer_1_1_network_gateway.html#a8a08792ecd43b1694222ca286514ee21" target="_top" xlink:title="Implements Gateway::activateGateway. ">
<polygon fill="white" stroke="black" points="352,-1673.5 352,-1703.5 524,-1703.5 524,-1673.5 352,-1673.5"/>
<text text-anchor="start" x="360" y="-1691.5" font-family="Helvetica,sans-Serif" font-size="10.00">softwarecontainer::</text>
<text text-anchor="middle" x="438" y="-1680.5" font-family="Helvetica,sans-Serif" font-size="10.00">NetworkGateway::activateGateway</text>
</a>
</g>
</g>
<!-- Node1&#45;&gt;Node3 -->
<g id="edge2" class="edge"><title>Node1&#45;&gt;Node3</title>
<path fill="none" stroke="midnightblue" d="M50.502,-905.903C48.8857,-1015.9 48.2409,-1449.83 136,-1545.5 191.332,-1605.82 252.385,-1532.99 316,-1584.5 346.301,-1609.04 322.472,-1639.04 352,-1664.5 355.948,-1667.9 360.347,-1670.83 365.008,-1673.34"/>
<polygon fill="midnightblue" stroke="midnightblue" points="54.004,-905.8 50.6684,-895.744 47.005,-905.685 54.004,-905.8"/>
</g>
<!-- Node4 -->
<g id="node4" class="node"><title>Node4</title>
<g id="a_node4"><a xlink:href="classsoftwarecontainer_1_1_software_container_agent.html#abb3ac782dd520cfaa1b61f7ddf090dce" target="_top" xlink:title="Bind mount a folder into the container. ">
<polygon fill="white" stroke="black" points="164.5,-1386 164.5,-1427 287.5,-1427 287.5,-1386 164.5,-1386"/>
<text text-anchor="start" x="172.5" y="-1415" font-family="Helvetica,sans-Serif" font-size="10.00">softwarecontainer::</text>
<text text-anchor="start" x="172.5" y="-1404" font-family="Helvetica,sans-Serif" font-size="10.00">SoftwareContainerAgent</text>
<text text-anchor="middle" x="226" y="-1393" font-family="Helvetica,sans-Serif" font-size="10.00">::bindMount</text>
</a>
</g>
</g>
<!-- Node1&#45;&gt;Node4 -->
<g id="edge3" class="edge"><title>Node1&#45;&gt;Node4</title>
<path fill="none" stroke="midnightblue" d="M52.161,-905.612C56.7803,-995.334 76.5865,-1298.59 136,-1371.5 143.447,-1380.64 153.609,-1387.4 164.407,-1392.4"/>
<polygon fill="midnightblue" stroke="midnightblue" points="55.6522,-905.346 51.6604,-895.532 48.6608,-905.693 55.6522,-905.346"/>
</g>
<!-- Node5 -->
<g id="node5" class="node"><title>Node5</title>
<g id="a_node5"><a xlink:href="classsoftwarecontainer_1_1_netlink.html#acf303ede6bab6850147376b9a0d3ea7b" target="_top" xlink:title="check for a kernel dump, and if not present, try to get one ">
<polygon fill="white" stroke="black" points="371,-1260.5 371,-1290.5 505,-1290.5 505,-1260.5 371,-1260.5"/>
<text text-anchor="start" x="379" y="-1278.5" font-family="Helvetica,sans-Serif" font-size="10.00">softwarecontainer::</text>
<text text-anchor="middle" x="438" y="-1267.5" font-family="Helvetica,sans-Serif" font-size="10.00">Netlink::checkKernelDump</text>
</a>
</g>
</g>
<!-- Node1&#45;&gt;Node5 -->
<g id="edge4" class="edge"><title>Node1&#45;&gt;Node5</title>
<path fill="none" stroke="midnightblue" d="M52.7721,-906.298C58.7189,-984.473 80.7838,-1216.23 136,-1262.5 205.455,-1320.71 318.76,-1306.08 384.753,-1290.55"/>
<polygon fill="midnightblue" stroke="midnightblue" points="56.2329,-905.635 52.0096,-895.918 49.2517,-906.148 56.2329,-905.635"/>
</g>
<!-- Node6 -->
<g id="node6" class="node"><title>Node6</title>
<g id="a_node6"><a xlink:href="classsoftwarecontainer_1_1_netlink.html#abaaa3af391069f8b624edd0c066eb958" target="_top" xlink:title="Bring the given interface up. ">
<polygon fill="white" stroke="black" points="571,-1333.5 571,-1363.5 671,-1363.5 671,-1333.5 571,-1333.5"/>
<text text-anchor="start" x="579" y="-1351.5" font-family="Helvetica,sans-Serif" font-size="10.00">softwarecontainer::</text>
<text text-anchor="middle" x="621" y="-1340.5" font-family="Helvetica,sans-Serif" font-size="10.00">Netlink::linkUp</text>
</a>
</g>
</g>
<!-- Node1&#45;&gt;Node6 -->
<g id="edge32" class="edge"><title>Node1&#45;&gt;Node6</title>
<path fill="none" stroke="midnightblue" d="M51.9282,-906.032C55.6237,-991.915 72.347,-1268.07 136,-1323.5 199.693,-1378.96 461.122,-1362.81 570.999,-1353.26"/>
<polygon fill="midnightblue" stroke="midnightblue" points="55.4185,-905.719 51.5145,-895.87 48.4242,-906.004 55.4185,-905.719"/>
</g>
<!-- Node7 -->
<g id="node7" class="node"><title>Node7</title>
<g id="a_node7"><a xlink:href="classsoftwarecontainer_1_1_netlink.html#a07b353cd40aeffd94d9fb03d9cdd1119" target="_top" xlink:title="Check that the device given is a network bridge. ">
<polygon fill="white" stroke="black" points="571,-1268.5 571,-1298.5 671,-1298.5 671,-1268.5 571,-1268.5"/>
<text text-anchor="start" x="579" y="-1286.5" font-family="Helvetica,sans-Serif" font-size="10.00">softwarecontainer::</text>
<text text-anchor="middle" x="621" y="-1275.5" font-family="Helvetica,sans-Serif" font-size="10.00">Netlink::findLink</text>
</a>
</g>
</g>
<!-- Node1&#45;&gt;Node7 -->
<g id="edge19" class="edge"><title>Node1&#45;&gt;Node7</title>
<path fill="none" stroke="midnightblue" d="M52.1932,-905.91C56.6412,-988.351 75.2574,-1245.97 136,-1296.5 202.289,-1351.64 438.104,-1308.05 524,-1300.5 539.344,-1299.15 555.909,-1296.61 570.889,-1293.9"/>
<polygon fill="midnightblue" stroke="midnightblue" points="55.6874,-905.707 51.6772,-895.9 48.6967,-906.067 55.6874,-905.707"/>
</g>
<!-- Node8 -->
<g id="node8" class="node"><title>Node8</title>
<g id="a_node8"><a xlink:href="classsoftwarecontainer_1_1_netlink.html#aec31c67231b12f8a1702054e13029cbb" target="_top" xlink:title="Get all addresses associated with the given interface index. ">
<polygon fill="white" stroke="black" points="563,-1179.5 563,-1209.5 679,-1209.5 679,-1179.5 563,-1179.5"/>
<text text-anchor="start" x="571" y="-1197.5" font-family="Helvetica,sans-Serif" font-size="10.00">softwarecontainer::</text>
<text text-anchor="middle" x="621" y="-1186.5" font-family="Helvetica,sans-Serif" font-size="10.00">Netlink::findAddresses</text>
</a>
</g>
</g>
<!-- Node1&#45;&gt;Node8 -->
<g id="edge18" class="edge"><title>Node1&#45;&gt;Node8</title>
<path fill="none" stroke="midnightblue" d="M51.8762,-905.704C55.0632,-955.328 69.6593,-1065.63 136,-1120.5 168.505,-1147.39 441.598,-1177.07 562.636,-1189.05"/>
<polygon fill="midnightblue" stroke="midnightblue" points="55.3616,-905.335 51.3315,-895.537 48.3716,-905.71 55.3616,-905.335"/>
</g>
<!-- Node9 -->
<g id="node9" class="node"><title>Node9</title>
<g id="a_node9"><a xlink:href="classsoftwarecontainer_1_1_workspace.html#af9be59382096de97cfab692bc5c89114" target="_top" xlink:title="Check if the workspace is present and create it if needed. ">
<polygon fill="white" stroke="black" points="364,-1058.5 364,-1088.5 512,-1088.5 512,-1058.5 364,-1058.5"/>
<text text-anchor="start" x="372" y="-1076.5" font-family="Helvetica,sans-Serif" font-size="10.00">softwarecontainer::</text>
<text text-anchor="middle" x="438" y="-1065.5" font-family="Helvetica,sans-Serif" font-size="10.00">Workspace::checkWorkspace</text>
</a>
</g>
</g>
<!-- Node1&#45;&gt;Node9 -->
<g id="edge8" class="edge"><title>Node1&#45;&gt;Node9</title>
<path fill="none" stroke="midnightblue" d="M54.5938,-905.609C61.8732,-946.121 82.4905,-1024.95 136,-1060.5 206.471,-1107.32 308.054,-1100.16 373.3,-1088.55"/>
<polygon fill="midnightblue" stroke="midnightblue" points="58.0429,-905.014 52.9478,-895.724 51.138,-906.164 58.0429,-905.014"/>
</g>
<!-- Node10 -->
<g id="node10" class="node"><title>Node10</title>
<g id="a_node10"><a xlink:href="classsoftwarecontainer_1_1_workspace.html#a4cca8749e6f3bd90452511ede207f5e5" target="_top" xlink:title="Creates a workspace. ">
<polygon fill="white" stroke="black" points="560,-1080.5 560,-1110.5 682,-1110.5 682,-1080.5 560,-1080.5"/>
<text text-anchor="start" x="568" y="-1098.5" font-family="Helvetica,sans-Serif" font-size="10.00">softwarecontainer::</text>
<text text-anchor="middle" x="621" y="-1087.5" font-family="Helvetica,sans-Serif" font-size="10.00">Workspace::Workspace</text>
</a>
</g>
</g>
<!-- Node1&#45;&gt;Node10 -->
<g id="edge53" class="edge"><title>Node1&#45;&gt;Node10</title>
<path fill="none" stroke="midnightblue" d="M52.5943,-905.725C57.0184,-951.854 73.6542,-1049.05 136,-1092.5 202.786,-1139.04 445.716,-1116.85 559.91,-1103.31"/>
<polygon fill="midnightblue" stroke="midnightblue" points="56.0744,-905.341 51.7484,-895.669 49.0991,-905.928 56.0744,-905.341"/>
</g>
<!-- Node11 -->
<g id="node11" class="node"><title>Node11</title>
<g id="a_node11"><a xlink:href="classsoftwarecontainer_1_1_software_container_agent.html#adedc44d2112a0467bdddf68c19f37667" target="_top" xlink:title="Create a new container. ">
<polygon fill="white" stroke="black" points="376.5,-855 376.5,-896 499.5,-896 499.5,-855 376.5,-855"/>
<text text-anchor="start" x="384.5" y="-884" font-family="Helvetica,sans-Serif" font-size="10.00">softwarecontainer::</text>
<text text-anchor="start" x="384.5" y="-873" font-family="Helvetica,sans-Serif" font-size="10.00">SoftwareContainerAgent</text>
<text text-anchor="middle" x="438" y="-862" font-family="Helvetica,sans-Serif" font-size="10.00">::createContainer</text>
</a>
</g>
</g>
<!-- Node1&#45;&gt;Node11 -->
<g id="edge10" class="edge"><title>Node1&#45;&gt;Node11</title>
<path fill="none" stroke="midnightblue" d="M110.669,-885.245C119.167,-885.766 127.802,-886.211 136,-886.5 215.95,-889.318 236.082,-890.125 316,-886.5 335.702,-885.606 357.154,-883.898 376.448,-882.089"/>
<polygon fill="midnightblue" stroke="midnightblue" points="110.616,-881.735 100.41,-884.579 110.162,-888.72 110.616,-881.735"/>
</g>
<!-- Node12 -->
<g id="node12" class="node"><title>Node12</title>
<g id="a_node12"><a xlink:href="classsoftwarecontainer_1_1_file_toolkit_with_undo.html#aff5073fb683649d6753baae354d202b9" target="_top" xlink:title="createDirectory Create a directory, and if successful append it to a list of dirs to be deleted in th...">
<polygon fill="white" stroke="black" points="173.5,-1010 173.5,-1051 278.5,-1051 278.5,-1010 173.5,-1010"/>
<text text-anchor="start" x="181.5" y="-1039" font-family="Helvetica,sans-Serif" font-size="10.00">softwarecontainer::</text>
<text text-anchor="start" x="181.5" y="-1028" font-family="Helvetica,sans-Serif" font-size="10.00">FileToolkitWithUndo</text>
<text text-anchor="middle" x="226" y="-1017" font-family="Helvetica,sans-Serif" font-size="10.00">::createDirectory</text>
</a>
</g>
</g>
<!-- Node1&#45;&gt;Node12 -->
<g id="edge11" class="edge"><title>Node1&#45;&gt;Node12</title>
<path fill="none" stroke="midnightblue" d="M63.516,-904.758C77.8849,-930.468 103.689,-970.707 136,-995.5 147.065,-1003.99 160.451,-1010.68 173.443,-1015.83"/>
<polygon fill="midnightblue" stroke="midnightblue" points="66.431,-902.792 58.5792,-895.679 60.2812,-906.136 66.431,-902.792"/>
</g>
<!-- Node13 -->
<g id="node13" class="node"><title>Node13</title>
<g id="a_node13"><a xlink:href="classsoftwarecontainer_1_1_file_toolkit_with_undo.html#ab46eccba563b861f100d9ce7fa9ca4d6" target="_top" xlink:title="overlayMount Mount a directory with an overlay on top of it. ">
<polygon fill="white" stroke="black" points="385.5,-988 385.5,-1029 490.5,-1029 490.5,-988 385.5,-988"/>
<text text-anchor="start" x="393.5" y="-1017" font-family="Helvetica,sans-Serif" font-size="10.00">softwarecontainer::</text>
<text text-anchor="start" x="393.5" y="-1006" font-family="Helvetica,sans-Serif" font-size="10.00">FileToolkitWithUndo</text>
<text text-anchor="middle" x="438" y="-995" font-family="Helvetica,sans-Serif" font-size="10.00">::overlayMount</text>
</a>
</g>
</g>
<!-- Node1&#45;&gt;Node13 -->
<g id="edge34" class="edge"><title>Node1&#45;&gt;Node13</title>
<path fill="none" stroke="midnightblue" d="M81.5896,-901.3C97.308,-911.249 117.091,-922.669 136,-930.5 220.164,-965.356 324.16,-988.152 385.271,-999.641"/>
<polygon fill="midnightblue" stroke="midnightblue" points="83.1411,-898.135 72.8419,-895.65 79.3432,-904.016 83.1411,-898.135"/>
</g>
<!-- Node15 -->
<g id="node15" class="node"><title>Node15</title>
<g id="a_node15"><a xlink:href="classsoftwarecontainer_1_1_container.html#a8461f293ef5db5ee5fbdeddd24f36214" target="_top" xlink:title="Setup the container for preloading. ">
<polygon fill="white" stroke="black" points="388,-933.5 388,-963.5 488,-963.5 488,-933.5 388,-933.5"/>
<text text-anchor="start" x="396" y="-951.5" font-family="Helvetica,sans-Serif" font-size="10.00">softwarecontainer::</text>
<text text-anchor="middle" x="438" y="-940.5" font-family="Helvetica,sans-Serif" font-size="10.00">Container::initialize</text>
</a>
</g>
</g>
<!-- Node1&#45;&gt;Node15 -->
<g id="edge23" class="edge"><title>Node1&#45;&gt;Node15</title>
<path fill="none" stroke="midnightblue" d="M110.268,-895.844C118.874,-897.867 127.646,-899.819 136,-901.5 224.147,-919.235 327.958,-934.142 387.759,-942.156"/>
<polygon fill="midnightblue" stroke="midnightblue" points="110.818,-892.376 100.277,-893.447 109.185,-899.183 110.818,-892.376"/>
</g>
<!-- Node16 -->
<g id="node16" class="node"><title>Node16</title>
<g id="a_node16"><a xlink:href="classsoftwarecontainer_1_1_container.html#aaff4ed1ad7fbbe7e34b047fd9e80fdb7" target="_top" xlink:title="Executes a commandline. ">
<polygon fill="white" stroke="black" points="176,-787.5 176,-817.5 276,-817.5 276,-787.5 176,-787.5"/>
<text text-anchor="start" x="184" y="-805.5" font-family="Helvetica,sans-Serif" font-size="10.00">softwarecontainer::</text>
<text text-anchor="middle" x="226" y="-794.5" font-family="Helvetica,sans-Serif" font-size="10.00">Container::execute</text>
</a>
</g>
</g>
<!-- Node1&#45;&gt;Node16 -->
<g id="edge16" class="edge"><title>Node1&#45;&gt;Node16</title>
<path fill="none" stroke="midnightblue" d="M79.3292,-859.435C95.3055,-848.36 116.018,-835.296 136,-826.5 148.45,-821.019 162.444,-816.532 175.584,-812.983"/>
<polygon fill="midnightblue" stroke="midnightblue" points="77.1188,-856.711 70.9755,-865.343 81.1609,-862.426 77.1188,-856.711"/>
</g>
<!-- Node17 -->
<g id="node17" class="node"><title>Node17</title>
<g id="a_node17"><a xlink:href="classsoftwarecontainer_1_1_software_container_agent.html#aa56cfb46275b5cb0959ab9fdbbee148b" target="_top" xlink:title="Launch the given command in a the given container. ">
<polygon fill="white" stroke="black" points="164.5,-728 164.5,-769 287.5,-769 287.5,-728 164.5,-728"/>
<text text-anchor="start" x="172.5" y="-757" font-family="Helvetica,sans-Serif" font-size="10.00">softwarecontainer::</text>
<text text-anchor="start" x="172.5" y="-746" font-family="Helvetica,sans-Serif" font-size="10.00">SoftwareContainerAgent</text>
<text text-anchor="middle" x="226" y="-735" font-family="Helvetica,sans-Serif" font-size="10.00">::execute</text>
</a>
</g>
</g>
<!-- Node1&#45;&gt;Node17 -->
<g id="edge17" class="edge"><title>Node1&#45;&gt;Node17</title>
<path fill="none" stroke="midnightblue" d="M65.117,-856.928C80.0437,-833.885 105.613,-799.315 136,-778.5 144.609,-772.603 154.477,-767.779 164.435,-763.861"/>
<polygon fill="midnightblue" stroke="midnightblue" points="62.1248,-855.112 59.7489,-865.437 68.045,-858.847 62.1248,-855.112"/>
</g>
<!-- Node18 -->
<g id="node18" class="node"><title>Node18</title>
<g id="a_node18"><a xlink:href="classsoftwarecontainer_1_1_netlink.html#a1756adb8382b2ed3c1518567862139c1" target="_top" xlink:title="get a dump of all links, addresses and routes from the kernel. ">
<polygon fill="white" stroke="black" points="165.5,-1222.5 165.5,-1252.5 286.5,-1252.5 286.5,-1222.5 165.5,-1222.5"/>
<text text-anchor="start" x="173.5" y="-1240.5" font-family="Helvetica,sans-Serif" font-size="10.00">softwarecontainer::</text>
<text text-anchor="middle" x="226" y="-1229.5" font-family="Helvetica,sans-Serif" font-size="10.00">Netlink::getKernelDump</text>
</a>
</g>
</g>
<!-- Node1&#45;&gt;Node18 -->
<g id="edge20" class="edge"><title>Node1&#45;&gt;Node18</title>
<path fill="none" stroke="midnightblue" d="M54.4086,-905.619C64.191,-974.251 94.3471,-1162.79 136,-1207.5 143.891,-1215.97 154.251,-1222.05 165.103,-1226.41"/>
<polygon fill="midnightblue" stroke="midnightblue" points="57.869,-905.092 53.0149,-895.674 50.9367,-906.063 57.869,-905.092"/>
</g>
<!-- Node19 -->
<g id="node19" class="node"><title>Node19</title>
<g id="a_node19"><a xlink:href="classsoftwarecontainer_1_1_netlink.html#a2a6160a9363a9660c82276342dcaf477" target="_top" xlink:title="Construct a new Netlink object. ">
<polygon fill="white" stroke="black" points="388,-1198.5 388,-1228.5 488,-1228.5 488,-1198.5 388,-1198.5"/>
<text text-anchor="start" x="396" y="-1216.5" font-family="Helvetica,sans-Serif" font-size="10.00">softwarecontainer::</text>
<text text-anchor="middle" x="438" y="-1205.5" font-family="Helvetica,sans-Serif" font-size="10.00">Netlink::Netlink</text>
</a>
</g>
</g>
<!-- Node1&#45;&gt;Node19 -->
<g id="edge33" class="edge"><title>Node1&#45;&gt;Node19</title>
<path fill="none" stroke="midnightblue" d="M50.0853,-905.96C49.5528,-962.893 56.9539,-1100.87 136,-1169.5 172.739,-1201.4 312.514,-1210.17 387.978,-1212.59"/>
<polygon fill="midnightblue" stroke="midnightblue" points="53.5896,-905.763 50.2787,-895.698 46.5908,-905.631 53.5896,-905.763"/>
</g>
<!-- Node20 -->
<g id="node20" class="node"><title>Node20</title>
<g id="a_node20"><a xlink:href="namespacesoftwarecontainer.html#a7e308629b69d1bcc3bc5e8ceac9b5a2a" target="_top" xlink:title="isSuccess Check if ReturnCode indicates Success or not ">
<polygon fill="white" stroke="black" points="176,-1505.5 176,-1535.5 276,-1535.5 276,-1505.5 176,-1505.5"/>
<text text-anchor="start" x="184" y="-1523.5" font-family="Helvetica,sans-Serif" font-size="10.00">softwarecontainer::</text>
<text text-anchor="middle" x="226" y="-1512.5" font-family="Helvetica,sans-Serif" font-size="10.00">isSuccess</text>
</a>
</g>
</g>
<!-- Node1&#45;&gt;Node20 -->
<g id="edge24" class="edge"><title>Node1&#45;&gt;Node20</title>
<path fill="none" stroke="midnightblue" d="M50.9082,-905.914C51.0532,-1010.55 56.8972,-1406.72 136,-1496.5 146.051,-1507.91 160.898,-1514.15 175.598,-1517.5"/>
<polygon fill="midnightblue" stroke="midnightblue" points="54.4082,-905.668 50.9118,-895.667 47.4082,-905.666 54.4082,-905.668"/>
</g>
<!-- Node26 -->
<g id="node26" class="node"><title>Node26</title>
<g id="a_node26"><a xlink:href="classsoftwarecontainer_1_1_netlink.html#ab6cfc59121b64f8cf5a89b706b77826b" target="_top" xlink:title="Bring a given interface down. ">
<polygon fill="white" stroke="black" points="176,-679.5 176,-709.5 276,-709.5 276,-679.5 176,-679.5"/>
<text text-anchor="start" x="184" y="-697.5" font-family="Helvetica,sans-Serif" font-size="10.00">softwarecontainer::</text>
<text text-anchor="middle" x="226" y="-686.5" font-family="Helvetica,sans-Serif" font-size="10.00">Netlink::linkDown</text>
</a>
</g>
</g>
<!-- Node1&#45;&gt;Node26 -->
<g id="edge31" class="edge"><title>Node1&#45;&gt;Node26</title>
<path fill="none" stroke="midnightblue" d="M57.1937,-855.721C67.4308,-819.969 91.332,-754.29 136,-718.5 147.365,-709.394 161.896,-703.729 175.906,-700.21"/>
<polygon fill="midnightblue" stroke="midnightblue" points="53.8152,-854.808 54.5548,-865.377 60.5675,-856.653 53.8152,-854.808"/>
</g>
<!-- Node27 -->
<g id="node27" class="node"><title>Node27</title>
<g id="a_node27"><a xlink:href="classsoftwarecontainer_1_1_software_container_agent.html#a963368abdad10b1401baec80a7abb327" target="_top" xlink:title="Parse config needed for starting up the container in a correct manner. ">
<polygon fill="white" stroke="black" points="164.5,-836 164.5,-877 287.5,-877 287.5,-836 164.5,-836"/>
<text text-anchor="start" x="172.5" y="-865" font-family="Helvetica,sans-Serif" font-size="10.00">softwarecontainer::</text>
<text text-anchor="start" x="172.5" y="-854" font-family="Helvetica,sans-Serif" font-size="10.00">SoftwareContainerAgent</text>
<text text-anchor="middle" x="226" y="-843" font-family="Helvetica,sans-Serif" font-size="10.00">::parseConfig</text>
</a>
</g>
</g>
<!-- Node1&#45;&gt;Node27 -->
<g id="edge35" class="edge"><title>Node1&#45;&gt;Node27</title>
<path fill="none" stroke="midnightblue" d="M110.425,-872.303C127.823,-869.904 146.861,-867.278 164.334,-864.868"/>
<polygon fill="midnightblue" stroke="midnightblue" points="109.824,-868.853 100.396,-873.687 110.78,-875.787 109.824,-868.853"/>
</g>
<!-- Node28 -->
<g id="node28" class="node"><title>Node28</title>
<g id="a_node28"><a xlink:href="classsoftwarecontainer_1_1_network_gateway_parser.html#a3139a32ac1978488b7a7f9e8474ecea4" target="_top" xlink:title="Parses NetworkGateway configuration into IPTableEntry. ">
<polygon fill="white" stroke="black" points="136,-1446 136,-1487 316,-1487 316,-1446 136,-1446"/>
<text text-anchor="start" x="144" y="-1475" font-family="Helvetica,sans-Serif" font-size="10.00">softwarecontainer::</text>
<text text-anchor="start" x="144" y="-1464" font-family="Helvetica,sans-Serif" font-size="10.00">NetworkGatewayParser</text>
<text text-anchor="middle" x="226" y="-1453" font-family="Helvetica,sans-Serif" font-size="10.00">::parseNetworkGatewayConfiguration</text>
</a>
</g>
</g>
<!-- Node1&#45;&gt;Node28 -->
<g id="edge37" class="edge"><title>Node1&#45;&gt;Node28</title>
<path fill="none" stroke="midnightblue" d="M51.4781,-905.806C53.8199,-1003.45 66.9786,-1354.34 136,-1436.5 138.937,-1440 142.296,-1443.09 145.949,-1445.82"/>
<polygon fill="midnightblue" stroke="midnightblue" points="54.9744,-905.595 51.253,-895.675 47.9761,-905.75 54.9744,-905.595"/>
</g>
<!-- Node29 -->
<g id="node29" class="node"><title>Node29</title>
<g id="a_node29"><a xlink:href="classsoftwarecontainer_1_1_software_container.html#a99978224d29f4d27d1801d02f44bfde6" target="_top" xlink:title="Preload the container. ">
<polygon fill="white" stroke="black" points="158.5,-630.5 158.5,-660.5 293.5,-660.5 293.5,-630.5 158.5,-630.5"/>
<text text-anchor="start" x="166.5" y="-648.5" font-family="Helvetica,sans-Serif" font-size="10.00">softwarecontainer::</text>
<text text-anchor="middle" x="226" y="-637.5" font-family="Helvetica,sans-Serif" font-size="10.00">SoftwareContainer::preload</text>
</a>
</g>
</g>
<!-- Node1&#45;&gt;Node29 -->
<g id="edge39" class="edge"><title>Node1&#45;&gt;Node29</title>
<path fill="none" stroke="midnightblue" d="M54.038,-855.052C60.6785,-810.896 80.6115,-720.07 136,-670.5 142.458,-664.72 150.152,-660.267 158.272,-656.837"/>
<polygon fill="midnightblue" stroke="midnightblue" points="50.535,-854.832 52.6227,-865.219 57.4681,-855.798 50.535,-854.832"/>
</g>
<!-- Node30 -->
<g id="node30" class="node"><title>Node30</title>
<g id="a_node30"><a xlink:href="classsoftwarecontainer_1_1_environment_gateway.html#ad58a972633ebc7fed2d8d455900e7ed4" target="_top" xlink:title="Gateway specific parsing of config elements. ">
<polygon fill="white" stroke="black" points="168,-571 168,-612 284,-612 284,-571 168,-571"/>
<text text-anchor="start" x="176" y="-600" font-family="Helvetica,sans-Serif" font-size="10.00">softwarecontainer::</text>
<text text-anchor="start" x="176" y="-589" font-family="Helvetica,sans-Serif" font-size="10.00">EnvironmentGateway::</text>
<text text-anchor="middle" x="226" y="-578" font-family="Helvetica,sans-Serif" font-size="10.00">readConfigElement</text>
</a>
</g>
</g>
<!-- Node1&#45;&gt;Node30 -->
<g id="edge40" class="edge"><title>Node1&#45;&gt;Node30</title>
<path fill="none" stroke="midnightblue" d="M52.0727,-855.06C55.6081,-803.765 70.7927,-687.232 136,-621.5 144.727,-612.702 156.117,-606.484 167.819,-602.089"/>
<polygon fill="midnightblue" stroke="midnightblue" points="48.5665,-855.062 51.4674,-865.252 55.5542,-855.477 48.5665,-855.062"/>
</g>
<!-- Node31 -->
<g id="node31" class="node"><title>Node31</title>
<g id="a_node31"><a xlink:href="classsoftwarecontainer_1_1_cgroups_gateway.html#a2333bb26b5768b956410183490483e95" target="_top" xlink:title="Gateway specific parsing of config elements. ">
<polygon fill="white" stroke="black" points="153,-511 153,-552 299,-552 299,-511 153,-511"/>
<text text-anchor="start" x="161" y="-540" font-family="Helvetica,sans-Serif" font-size="10.00">softwarecontainer::</text>
<text text-anchor="start" x="161" y="-529" font-family="Helvetica,sans-Serif" font-size="10.00">CgroupsGateway::readConfig</text>
<text text-anchor="middle" x="226" y="-518" font-family="Helvetica,sans-Serif" font-size="10.00">Element</text>
</a>
</g>
</g>
<!-- Node1&#45;&gt;Node31 -->
<g id="edge41" class="edge"><title>Node1&#45;&gt;Node31</title>
<path fill="none" stroke="midnightblue" d="M50.182,-855.167C49.677,-795.726 56.8328,-645.963 136,-561.5 140.795,-556.384 146.49,-552.141 152.648,-548.621"/>
<polygon fill="midnightblue" stroke="midnightblue" points="46.688,-855.553 50.3579,-865.492 53.687,-855.434 46.688,-855.553"/>
</g>
<!-- Node32 -->
<g id="node32" class="node"><title>Node32</title>
<g id="a_node32"><a xlink:href="classsoftwarecontainer_1_1_file_gateway.html#af9355afbe0fa41df8309a55d08eda7f2" target="_top" xlink:title="Gateway specific parsing of config elements. ">
<polygon fill="white" stroke="black" points="145.5,-462.5 145.5,-492.5 306.5,-492.5 306.5,-462.5 145.5,-462.5"/>
<text text-anchor="start" x="153.5" y="-480.5" font-family="Helvetica,sans-Serif" font-size="10.00">softwarecontainer::</text>
<text text-anchor="middle" x="226" y="-469.5" font-family="Helvetica,sans-Serif" font-size="10.00">FileGateway::readConfigElement</text>
</a>
</g>
</g>
<!-- Node1&#45;&gt;Node32 -->
<g id="edge42" class="edge"><title>Node1&#45;&gt;Node32</title>
<path fill="none" stroke="midnightblue" d="M53.3302,-854.895C60.8081,-778.291 86.6439,-553.014 136,-501.5 139.211,-498.149 142.836,-495.249 146.741,-492.741"/>
<polygon fill="midnightblue" stroke="midnightblue" points="49.8241,-854.793 52.3595,-865.08 56.7925,-855.457 49.8241,-854.793"/>
</g>
<!-- Node33 -->
<g id="node33" class="node"><title>Node33</title>
<g id="a_node33"><a xlink:href="classsoftwarecontainer_1_1_d_bus_gateway_instance.html#a4cf958746ad9911ebb99b9eeb8392060" target="_top" xlink:title="Gateway specific parsing of config elements. ">
<polygon fill="white" stroke="black" points="167,-403 167,-444 285,-444 285,-403 167,-403"/>
<text text-anchor="start" x="175" y="-432" font-family="Helvetica,sans-Serif" font-size="10.00">softwarecontainer::</text>
<text text-anchor="start" x="175" y="-421" font-family="Helvetica,sans-Serif" font-size="10.00">DBusGatewayInstance</text>
<text text-anchor="middle" x="226" y="-410" font-family="Helvetica,sans-Serif" font-size="10.00">::readConfigElement</text>
</a>
</g>
</g>
<!-- Node1&#45;&gt;Node33 -->
<g id="edge43" class="edge"><title>Node1&#45;&gt;Node33</title>
<path fill="none" stroke="midnightblue" d="M52.7685,-855.131C59,-772.72 82.511,-514.353 136,-453.5 144.074,-444.315 155.056,-437.937 166.549,-433.509"/>
<polygon fill="midnightblue" stroke="midnightblue" points="49.2758,-854.903 52.0325,-865.133 56.257,-855.417 49.2758,-854.903"/>
</g>
<!-- Node34 -->
<g id="node34" class="node"><title>Node34</title>
<g id="a_node34"><a xlink:href="classsoftwarecontainer_1_1_device_node_gateway.html#a0734b6ab0ccd33f80c3139962a55f114" target="_top" xlink:title="Gateway specific parsing of config elements. ">
<polygon fill="white" stroke="black" points="144.5,-343 144.5,-384 307.5,-384 307.5,-343 144.5,-343"/>
<text text-anchor="start" x="152.5" y="-372" font-family="Helvetica,sans-Serif" font-size="10.00">softwarecontainer::</text>
<text text-anchor="start" x="152.5" y="-361" font-family="Helvetica,sans-Serif" font-size="10.00">DeviceNodeGateway::readConfig</text>
<text text-anchor="middle" x="226" y="-350" font-family="Helvetica,sans-Serif" font-size="10.00">Element</text>
</a>
</g>
</g>
<!-- Node1&#45;&gt;Node34 -->
<g id="edge44" class="edge"><title>Node1&#45;&gt;Node34</title>
<path fill="none" stroke="midnightblue" d="M52.0975,-854.895C56.4561,-764.816 75.3674,-464.151 136,-393.5 138.973,-390.035 142.361,-386.97 146.037,-384.257"/>
<polygon fill="midnightblue" stroke="midnightblue" points="48.5944,-854.884 51.6261,-865.036 55.5868,-855.209 48.5944,-854.884"/>
</g>
<!-- Node35 -->
<g id="node35" class="node"><title>Node35</title>
<g id="a_node35"><a xlink:href="classsoftwarecontainer_1_1_d_bus_gateway.html#a2dafa9d879e1a694e30b17a067a9c504" target="_top" xlink:title="Sets config for both dbus session instances. ">
<polygon fill="white" stroke="black" points="374,-277.5 374,-307.5 502,-307.5 502,-277.5 374,-277.5"/>
<text text-anchor="start" x="382" y="-295.5" font-family="Helvetica,sans-Serif" font-size="10.00">softwarecontainer::</text>
<text text-anchor="middle" x="438" y="-284.5" font-family="Helvetica,sans-Serif" font-size="10.00">DBusGateway::setConfig</text>
</a>
</g>
</g>
<!-- Node1&#45;&gt;Node35 -->
<g id="edge45" class="edge"><title>Node1&#45;&gt;Node35</title>
<path fill="none" stroke="midnightblue" d="M51.0965,-855.191C52.022,-757.597 60.6247,-407.473 136,-333.5 152.68,-317.131 290.559,-303.774 373.81,-297.105"/>
<polygon fill="midnightblue" stroke="midnightblue" points="47.5958,-855.293 51.0203,-865.319 54.5956,-855.346 47.5958,-855.293"/>
</g>
<!-- Node36 -->
<g id="node36" class="node"><title>Node36</title>
<g id="a_node36"><a xlink:href="classsoftwarecontainer_1_1_gateway.html#a889e0f0ec4060e203972eefe9221f81a" target="_top" xlink:title="Configure this gateway according to the supplied JSON configuration string. ">
<polygon fill="white" stroke="black" points="174,-255.5 174,-285.5 278,-285.5 278,-255.5 174,-255.5"/>
<text text-anchor="start" x="182" y="-273.5" font-family="Helvetica,sans-Serif" font-size="10.00">softwarecontainer::</text>
<text text-anchor="middle" x="226" y="-262.5" font-family="Helvetica,sans-Serif" font-size="10.00">Gateway::setConfig</text>
</a>
</g>
</g>
<!-- Node1&#45;&gt;Node36 -->
<g id="edge46" class="edge"><title>Node1&#45;&gt;Node36</title>
<path fill="none" stroke="midnightblue" d="M51.297,-855.41C52.975,-755.436 64.0228,-386.722 136,-300.5 145.509,-289.109 159.503,-282.026 173.593,-277.627"/>
<polygon fill="midnightblue" stroke="midnightblue" points="47.7963,-855.439 51.1451,-865.491 54.7955,-855.545 47.7963,-855.439"/>
</g>
<!-- Node37 -->
<g id="node37" class="node"><title>Node37</title>
<g id="a_node37"><a xlink:href="classsoftwarecontainer_1_1_netlink.html#a53e313aa155f065c1d1ef6a4e20ccede" target="_top" xlink:title="Sets an IP address for a network link. ">
<polygon fill="white" stroke="black" points="176,-206.5 176,-236.5 276,-236.5 276,-206.5 176,-206.5"/>
<text text-anchor="start" x="184" y="-224.5" font-family="Helvetica,sans-Serif" font-size="10.00">softwarecontainer::</text>
<text text-anchor="middle" x="226" y="-213.5" font-family="Helvetica,sans-Serif" font-size="10.00">Netlink::setIP</text>
</a>
</g>
</g>
<!-- Node1&#45;&gt;Node37 -->
<g id="edge48" class="edge"><title>Node1&#45;&gt;Node37</title>
<path fill="none" stroke="midnightblue" d="M50.8236,-855.392C50.5933,-749.399 55.0328,-339.731 136,-246.5 146.103,-234.867 161.144,-228.443 175.999,-224.958"/>
<polygon fill="midnightblue" stroke="midnightblue" points="47.3239,-855.49 50.8624,-865.477 54.3238,-855.463 47.3239,-855.49"/>
</g>
<!-- Node38 -->
<g id="node38" class="node"><title>Node38</title>
<g id="a_node38"><a xlink:href="classsoftwarecontainer_1_1_software_container_agent.html#a4dd0cf44da28cf8781e6c29c5d09eb86" target="_top" xlink:title="shuts down a container ">
<polygon fill="white" stroke="black" points="164.5,-147 164.5,-188 287.5,-188 287.5,-147 164.5,-147"/>
<text text-anchor="start" x="172.5" y="-176" font-family="Helvetica,sans-Serif" font-size="10.00">softwarecontainer::</text>
<text text-anchor="start" x="172.5" y="-165" font-family="Helvetica,sans-Serif" font-size="10.00">SoftwareContainerAgent</text>
<text text-anchor="middle" x="226" y="-154" font-family="Helvetica,sans-Serif" font-size="10.00">::shutdownContainer</text>
</a>
</g>
</g>
<!-- Node1&#45;&gt;Node38 -->
<g id="edge49" class="edge"><title>Node1&#45;&gt;Node38</title>
<path fill="none" stroke="midnightblue" d="M50.6764,-855.019C49.7711,-743.678 51.6088,-300.852 136,-197.5 143.322,-188.533 153.429,-182.232 164.212,-177.808"/>
<polygon fill="midnightblue" stroke="midnightblue" points="47.1791,-855.324 50.7762,-865.29 54.1788,-855.256 47.1791,-855.324"/>
</g>
<!-- Node39 -->
<g id="node39" class="node"><title>Node39</title>
<g id="a_node39"><a xlink:href="classsoftwarecontainer_1_1_container.html#a33340235226849d1f178e2f1d7efabe2" target="_top" xlink:title="Start the container. ">
<polygon fill="white" stroke="black" points="176,-98.5 176,-128.5 276,-128.5 276,-98.5 176,-98.5"/>
<text text-anchor="start" x="184" y="-116.5" font-family="Helvetica,sans-Serif" font-size="10.00">softwarecontainer::</text>
<text text-anchor="middle" x="226" y="-105.5" font-family="Helvetica,sans-Serif" font-size="10.00">Container::start</text>
</a>
</g>
</g>
<!-- Node1&#45;&gt;Node39 -->
<g id="edge50" class="edge"><title>Node1&#45;&gt;Node39</title>
<path fill="none" stroke="midnightblue" d="M52.2223,-855.258C58.4301,-731.573 88.0593,-193.202 136,-137.5 146.022,-125.856 161.043,-119.57 175.905,-116.261"/>
<polygon fill="midnightblue" stroke="midnightblue" points="48.7241,-855.138 51.7244,-865.299 55.7155,-855.485 48.7241,-855.138"/>
</g>
<!-- Node40 -->
<g id="node40" class="node"><title>Node40</title>
<g id="a_node40"><a xlink:href="classsoftwarecontainer_1_1_software_container.html#ac20c6d0cd340297ed80ae5684d9d64d3" target="_top" xlink:title="Starts the Gateways by setting the gateway configurations and activating the configured gateway...">
<polygon fill="white" stroke="black" points="142.5,-49.5 142.5,-79.5 309.5,-79.5 309.5,-49.5 142.5,-49.5"/>
<text text-anchor="start" x="150.5" y="-67.5" font-family="Helvetica,sans-Serif" font-size="10.00">softwarecontainer::</text>
<text text-anchor="middle" x="226" y="-56.5" font-family="Helvetica,sans-Serif" font-size="10.00">SoftwareContainer::startGateways</text>
</a>
</g>
</g>
<!-- Node1&#45;&gt;Node40 -->
<g id="edge51" class="edge"><title>Node1&#45;&gt;Node40</title>
<path fill="none" stroke="midnightblue" d="M52.0491,-855.288C57.6087,-726.892 85.3023,-149.447 136,-89.5 139.213,-85.7011 142.953,-82.4556 147.045,-79.6853"/>
<polygon fill="midnightblue" stroke="midnightblue" points="48.5495,-855.205 51.6194,-865.346 55.5431,-855.504 48.5495,-855.205"/>
</g>
<!-- Node41 -->
<g id="node41" class="node"><title>Node41</title>
<g id="a_node41"><a xlink:href="classsoftwarecontainer_1_1_d_bus_gateway.html#a003afe7ddc034ad69f0b6ecc7abe2fdc" target="_top" xlink:title="Restore system to the state prior to launching of gateway. ">
<polygon fill="white" stroke="black" points="163,-0.5 163,-30.5 289,-30.5 289,-0.5 163,-0.5"/>
<text text-anchor="start" x="171" y="-18.5" font-family="Helvetica,sans-Serif" font-size="10.00">softwarecontainer::</text>
<text text-anchor="middle" x="226" y="-7.5" font-family="Helvetica,sans-Serif" font-size="10.00">DBusGateway::teardown</text>
</a>
</g>
</g>
<!-- Node1&#45;&gt;Node41 -->
<g id="edge52" class="edge"><title>Node1&#45;&gt;Node41</title>
<path fill="none" stroke="midnightblue" d="M51.8777,-855.428C56.7445,-722.581 82.1682,-104.554 136,-40.5 143.022,-32.1451 152.592,-26.4648 162.863,-22.6278"/>
<polygon fill="midnightblue" stroke="midnightblue" points="48.3787,-855.339 51.5158,-865.459 55.3741,-855.591 48.3787,-855.339"/>
</g>
<!-- Node5&#45;&gt;Node6 -->
<g id="edge5" class="edge"><title>Node5&#45;&gt;Node6</title>
<path fill="none" stroke="midnightblue" d="M485.948,-1294.43C516.024,-1306.56 554.526,-1322.09 582.545,-1333.39"/>
<polygon fill="midnightblue" stroke="midnightblue" points="487.087,-1291.12 476.503,-1290.63 484.468,-1297.61 487.087,-1291.12"/>
</g>
<!-- Node5&#45;&gt;Node7 -->
<g id="edge6" class="edge"><title>Node5&#45;&gt;Node7</title>
<path fill="none" stroke="midnightblue" d="M515.158,-1278.87C533.976,-1279.7 553.643,-1280.57 570.793,-1281.33"/>
<polygon fill="midnightblue" stroke="midnightblue" points="515.258,-1275.37 505.113,-1278.42 514.949,-1282.36 515.258,-1275.37"/>
</g>
<!-- Node5&#45;&gt;Node8 -->
<g id="edge7" class="edge"><title>Node5&#45;&gt;Node8</title>
<path fill="none" stroke="midnightblue" d="M483.486,-1256.33C496.561,-1250.64 510.875,-1244.36 524,-1238.5 545.259,-1229 569.051,-1218.1 587.632,-1209.52"/>
<polygon fill="midnightblue" stroke="midnightblue" points="481.998,-1253.16 474.219,-1260.35 484.785,-1259.58 481.998,-1253.16"/>
</g>
<!-- Node9&#45;&gt;Node10 -->
<g id="edge9" class="edge"><title>Node9&#45;&gt;Node10</title>
<path fill="none" stroke="midnightblue" d="M522.236,-1083.62C534.953,-1085.16 547.863,-1086.73 559.952,-1088.2"/>
<polygon fill="midnightblue" stroke="midnightblue" points="522.447,-1080.12 512.098,-1082.38 521.603,-1087.07 522.447,-1080.12"/>
</g>
<!-- Node12&#45;&gt;Node9 -->
<g id="edge15" class="edge"><title>Node12&#45;&gt;Node9</title>
<path fill="none" stroke="midnightblue" d="M288.503,-1043.09C312.063,-1047.92 339.172,-1053.47 363.727,-1058.5"/>
<polygon fill="midnightblue" stroke="midnightblue" points="289.14,-1039.65 278.641,-1041.07 287.735,-1046.51 289.14,-1039.65"/>
</g>
<!-- Node12&#45;&gt;Node13 -->
<g id="edge12" class="edge"><title>Node12&#45;&gt;Node13</title>
<path fill="none" stroke="midnightblue" d="M288.787,-1024.03C319.436,-1020.82 356.034,-1016.98 385.195,-1013.93"/>
<polygon fill="midnightblue" stroke="midnightblue" points="288.222,-1020.57 278.641,-1025.09 288.951,-1027.53 288.222,-1020.57"/>
</g>
<!-- Node12&#45;&gt;Node15 -->
<g id="edge14" class="edge"><title>Node12&#45;&gt;Node15</title>
<path fill="none" stroke="midnightblue" d="M284.322,-1005.88C305.488,-996.993 329.738,-987.052 352,-978.5 365.148,-973.45 379.556,-968.242 392.715,-963.613"/>
<polygon fill="midnightblue" stroke="midnightblue" points="282.688,-1002.77 274.832,-1009.88 285.406,-1009.22 282.688,-1002.77"/>
</g>
<!-- Node14 -->
<g id="node14" class="node"><title>Node14</title>
<g id="a_node14"><a xlink:href="classsoftwarecontainer_1_1_container.html#a6c57689a4a21b8c9342c53c7e8743203" target="_top" xlink:title="create Creates a new lxc_container and creates it with all the initialization. ">
<polygon fill="white" stroke="black" points="571,-993.5 571,-1023.5 671,-1023.5 671,-993.5 571,-993.5"/>
<text text-anchor="start" x="579" y="-1011.5" font-family="Helvetica,sans-Serif" font-size="10.00">softwarecontainer::</text>
<text text-anchor="middle" x="621" y="-1000.5" font-family="Helvetica,sans-Serif" font-size="10.00">Container::create</text>
</a>
</g>
</g>
<!-- Node13&#45;&gt;Node14 -->
<g id="edge13" class="edge"><title>Node13&#45;&gt;Node14</title>
<path fill="none" stroke="midnightblue" d="M501.134,-1008.5C523.941,-1008.5 549.422,-1008.5 570.925,-1008.5"/>
<polygon fill="midnightblue" stroke="midnightblue" points="500.867,-1005 490.867,-1008.5 500.867,-1012 500.867,-1005"/>
</g>
<!-- Node18&#45;&gt;Node5 -->
<g id="edge22" class="edge"><title>Node18&#45;&gt;Node5</title>
<path fill="none" stroke="midnightblue" d="M296.687,-1250.11C320.622,-1254.44 347.328,-1259.27 370.964,-1263.55"/>
<polygon fill="midnightblue" stroke="midnightblue" points="297.079,-1246.62 286.616,-1248.29 295.833,-1253.51 297.079,-1246.62"/>
</g>
<!-- Node18&#45;&gt;Node19 -->
<g id="edge21" class="edge"><title>Node18&#45;&gt;Node19</title>
<path fill="none" stroke="midnightblue" d="M296.569,-1229.55C326.457,-1226.13 360.683,-1222.22 387.864,-1219.12"/>
<polygon fill="midnightblue" stroke="midnightblue" points="296.154,-1226.07 286.616,-1230.69 296.949,-1233.03 296.154,-1226.07"/>
</g>
<!-- Node20&#45;&gt;Node3 -->
<g id="edge29" class="edge"><title>Node20&#45;&gt;Node3</title>
<path fill="none" stroke="midnightblue" d="M286.131,-1531.74C297.163,-1536.09 307.787,-1542.13 316,-1550.5 353.208,-1588.43 313.857,-1627.51 352,-1664.5 355.522,-1667.92 359.492,-1670.85 363.743,-1673.38"/>
<polygon fill="midnightblue" stroke="midnightblue" points="286.977,-1528.33 276.382,-1528.33 284.667,-1534.94 286.977,-1528.33"/>
</g>
<!-- Node21 -->
<g id="node21" class="node"><title>Node21</title>
<g id="a_node21"><a xlink:href="classsoftwarecontainer_1_1_software_container_agent.html#aa9f97277f85c0abc20fc87eb4e285d24" target="_top" xlink:title="suspends execution of a container ">
<polygon fill="white" stroke="black" points="376.5,-1446 376.5,-1487 499.5,-1487 499.5,-1446 376.5,-1446"/>
<text text-anchor="start" x="384.5" y="-1475" font-family="Helvetica,sans-Serif" font-size="10.00">softwarecontainer::</text>
<text text-anchor="start" x="384.5" y="-1464" font-family="Helvetica,sans-Serif" font-size="10.00">SoftwareContainerAgent</text>
<text text-anchor="middle" x="438" y="-1453" font-family="Helvetica,sans-Serif" font-size="10.00">::suspendContainer</text>
</a>
</g>
</g>
<!-- Node20&#45;&gt;Node21 -->
<g id="edge25" class="edge"><title>Node20&#45;&gt;Node21</title>
<path fill="none" stroke="midnightblue" d="M285.977,-1505.33C314.22,-1498.07 348.001,-1489.39 376.445,-1482.07"/>
<polygon fill="midnightblue" stroke="midnightblue" points="285.049,-1501.96 276.236,-1507.84 286.792,-1508.74 285.049,-1501.96"/>
</g>
<!-- Node22 -->
<g id="node22" class="node"><title>Node22</title>
<g id="a_node22"><a xlink:href="classsoftwarecontainer_1_1_software_container_agent.html#ac4015d7ba7850424994fe561c5dbe333" target="_top" xlink:title="resumes execution of a container ">
<polygon fill="white" stroke="black" points="376.5,-1614 376.5,-1655 499.5,-1655 499.5,-1614 376.5,-1614"/>
<text text-anchor="start" x="384.5" y="-1643" font-family="Helvetica,sans-Serif" font-size="10.00">softwarecontainer::</text>
<text text-anchor="start" x="384.5" y="-1632" font-family="Helvetica,sans-Serif" font-size="10.00">SoftwareContainerAgent</text>
<text text-anchor="middle" x="438" y="-1621" font-family="Helvetica,sans-Serif" font-size="10.00">::resumeContainer</text>
</a>
</g>
</g>
<!-- Node20&#45;&gt;Node22 -->
<g id="edge26" class="edge"><title>Node20&#45;&gt;Node22</title>
<path fill="none" stroke="midnightblue" d="M285.511,-1534.07C296.302,-1538.23 306.992,-1543.6 316,-1550.5 338.893,-1568.05 329.232,-1586.79 352,-1604.5 359.288,-1610.17 367.732,-1614.82 376.411,-1618.62"/>
<polygon fill="midnightblue" stroke="midnightblue" points="286.637,-1530.76 276.042,-1530.72 284.303,-1537.36 286.637,-1530.76"/>
</g>
<!-- Node23 -->
<g id="node23" class="node"><title>Node23</title>
<g id="a_node23"><a xlink:href="classsoftwarecontainer_1_1_device_node_gateway.html#a9e912027cad4fff3ed4d9a9581f45227" target="_top" xlink:title="Implements Gateway::activateGateway. ">
<polygon fill="white" stroke="black" points="363,-1554 363,-1595 513,-1595 513,-1554 363,-1554"/>
<text text-anchor="start" x="371" y="-1583" font-family="Helvetica,sans-Serif" font-size="10.00">softwarecontainer::</text>
<text text-anchor="start" x="371" y="-1572" font-family="Helvetica,sans-Serif" font-size="10.00">DeviceNodeGateway::activate</text>
<text text-anchor="middle" x="438" y="-1561" font-family="Helvetica,sans-Serif" font-size="10.00">Gateway</text>
</a>
</g>
</g>
<!-- Node20&#45;&gt;Node23 -->
<g id="edge27" class="edge"><title>Node20&#45;&gt;Node23</title>
<path fill="none" stroke="midnightblue" d="M286.197,-1535.72C310.045,-1541.85 337.813,-1548.99 362.975,-1555.46"/>
<polygon fill="midnightblue" stroke="midnightblue" points="286.792,-1532.26 276.236,-1533.16 285.049,-1539.04 286.792,-1532.26"/>
</g>
<!-- Node24 -->
<g id="node24" class="node"><title>Node24</title>
<g id="a_node24"><a xlink:href="classsoftwarecontainer_1_1_network_gateway.html#ad67674d2ce8d329188446e71c14e3a88" target="_top" xlink:title="Gateway specific parsing of config elements. ">
<polygon fill="white" stroke="black" points="365,-1386 365,-1427 511,-1427 511,-1386 365,-1386"/>
<text text-anchor="start" x="373" y="-1415" font-family="Helvetica,sans-Serif" font-size="10.00">softwarecontainer::</text>
<text text-anchor="start" x="373" y="-1404" font-family="Helvetica,sans-Serif" font-size="10.00">NetworkGateway::readConfig</text>
<text text-anchor="middle" x="438" y="-1393" font-family="Helvetica,sans-Serif" font-size="10.00">Element</text>
</a>
</g>
</g>
<!-- Node20&#45;&gt;Node24 -->
<g id="edge28" class="edge"><title>Node20&#45;&gt;Node24</title>
<path fill="none" stroke="midnightblue" d="M286.027,-1511.43C296.69,-1507.95 307.201,-1503.15 316,-1496.5 340.815,-1477.76 327.914,-1456.17 352,-1436.5 356.242,-1433.04 360.913,-1429.96 365.817,-1427.23"/>
<polygon fill="midnightblue" stroke="midnightblue" points="284.87,-1508.12 276.237,-1514.26 286.816,-1514.85 284.87,-1508.12"/>
</g>
<!-- Node25 -->
<g id="node25" class="node"><title>Node25</title>
<g id="a_node25"><a xlink:href="classsoftwarecontainer_1_1_pulse_gateway.html#a0cd0a00ca7590d7c9c3c961e20de56df" target="_top" xlink:title="Implements Gateway::activateGateway. ">
<polygon fill="white" stroke="black" points="358,-1505.5 358,-1535.5 518,-1535.5 518,-1505.5 358,-1505.5"/>
<text text-anchor="start" x="366" y="-1523.5" font-family="Helvetica,sans-Serif" font-size="10.00">softwarecontainer::</text>
<text text-anchor="middle" x="438" y="-1512.5" font-family="Helvetica,sans-Serif" font-size="10.00">PulseGateway::activateGateway</text>
</a>
</g>
</g>
<!-- Node20&#45;&gt;Node25 -->
<g id="edge30" class="edge"><title>Node20&#45;&gt;Node25</title>
<path fill="none" stroke="midnightblue" d="M286.473,-1520.5C308.593,-1520.5 334.056,-1520.5 357.673,-1520.5"/>
<polygon fill="midnightblue" stroke="midnightblue" points="286.236,-1517 276.236,-1520.5 286.236,-1524 286.236,-1517"/>
</g>
<!-- Node27&#45;&gt;Node11 -->
<g id="edge36" class="edge"><title>Node27&#45;&gt;Node11</title>
<path fill="none" stroke="midnightblue" d="M297.729,-862.899C323.254,-865.209 351.814,-867.793 376.396,-870.017"/>
<polygon fill="midnightblue" stroke="midnightblue" points="298.015,-859.411 287.741,-861.996 297.385,-866.383 298.015,-859.411"/>
</g>
<!-- Node28&#45;&gt;Node24 -->
<g id="edge38" class="edge"><title>Node28&#45;&gt;Node24</title>
<path fill="none" stroke="midnightblue" d="M308.614,-1443.18C327.251,-1437.86 346.923,-1432.24 365.118,-1427.04"/>
<polygon fill="midnightblue" stroke="midnightblue" points="307.63,-1439.82 298.976,-1445.94 309.553,-1446.55 307.63,-1439.82"/>
</g>
<!-- Node36&#45;&gt;Node35 -->
<g id="edge47" class="edge"><title>Node36&#45;&gt;Node35</title>
<path fill="none" stroke="midnightblue" d="M288.148,-276.906C315.002,-279.719 346.521,-283.021 373.625,-285.861"/>
<polygon fill="midnightblue" stroke="midnightblue" points="288.414,-273.415 278.103,-275.854 287.684,-280.377 288.414,-273.415"/>
</g>
</g>
</svg>
