<?xml version="1.0" encoding="UTF-8" standalone="no"?>
<!DOCTYPE svg PUBLIC "-//W3C//DTD SVG 1.1//EN"
 "http://www.w3.org/Graphics/SVG/1.1/DTD/svg11.dtd">
<!-- Generated by graphviz version 2.38.0 (20140413.2041)
 -->
<!-- Title: softwarecontainer::isError Pages: 1 -->
<svg width="612pt" height="526pt"
 viewBox="0.00 0.00 612.00 525.50" xmlns="http://www.w3.org/2000/svg" xmlns:xlink="http://www.w3.org/1999/xlink">
<g id="graph0" class="graph" transform="scale(1 1) rotate(0) translate(4 521.5)">
<title>softwarecontainer::isError</title>
<polygon fill="white" stroke="none" points="-4,4 -4,-521.5 608,-521.5 608,4 -4,4"/>
<!-- Node1 -->
<g id="node1" class="node"><title>Node1</title>
<polygon fill="#bfbfbf" stroke="black" points="0,-250.5 0,-280.5 100,-280.5 100,-250.5 0,-250.5"/>
<text text-anchor="start" x="8" y="-268.5" font-family="Helvetica,sans-Serif" font-size="10.00">softwarecontainer::</text>
<text text-anchor="middle" x="50" y="-257.5" font-family="Helvetica,sans-Serif" font-size="10.00">isError</text>
</g>
<!-- Node2 -->
<g id="node2" class="node"><title>Node2</title>
<g id="a_node2"><a xlink:href="classsoftwarecontainer_1_1_device_node_gateway.html#a9e912027cad4fff3ed4d9a9581f45227" target="_top" xlink:title="Implements Gateway::activateGateway. ">
<polygon fill="white" stroke="black" points="318,-476 318,-517 468,-517 468,-476 318,-476"/>
<text text-anchor="start" x="326" y="-505" font-family="Helvetica,sans-Serif" font-size="10.00">softwarecontainer::</text>
<text text-anchor="start" x="326" y="-494" font-family="Helvetica,sans-Serif" font-size="10.00">DeviceNodeGateway::activate</text>
<text text-anchor="middle" x="393" y="-483" font-family="Helvetica,sans-Serif" font-size="10.00">Gateway</text>
</a>
</g>
</g>
<!-- Node1&#45;&gt;Node2 -->
<g id="edge1" class="edge"><title>Node1&#45;&gt;Node2</title>
<path fill="none" stroke="midnightblue" d="M53.4898,-290.744C59.2996,-334.807 78.0111,-425.18 136,-468.5 187.668,-507.098 262.39,-511.088 317.781,-507.216"/>
<polygon fill="midnightblue" stroke="midnightblue" points="56.9389,-290.109 52.2746,-280.596 49.9885,-290.941 56.9389,-290.109"/>
</g>
<!-- Node3 -->
<g id="node3" class="node"><title>Node3</title>
<g id="a_node3"><a xlink:href="classsoftwarecontainer_1_1_file_toolkit_with_undo.html#aff5073fb683649d6753baae354d202b9" target="_top" xlink:title="createDirectory Create a directory, and if successful append it to a list of dirs to be deleted in th...">
<polygon fill="white" stroke="black" points="156.5,-392 156.5,-433 261.5,-433 261.5,-392 156.5,-392"/>
<text text-anchor="start" x="164.5" y="-421" font-family="Helvetica,sans-Serif" font-size="10.00">softwarecontainer::</text>
<text text-anchor="start" x="164.5" y="-410" font-family="Helvetica,sans-Serif" font-size="10.00">FileToolkitWithUndo</text>
<text text-anchor="middle" x="209" y="-399" font-family="Helvetica,sans-Serif" font-size="10.00">::createDirectory</text>
</a>
</g>
</g>
<!-- Node1&#45;&gt;Node3 -->
<g id="edge2" class="edge"><title>Node1&#45;&gt;Node3</title>
<path fill="none" stroke="midnightblue" d="M64.5242,-289.444C79.4235,-314.103 105.376,-352.377 136,-377.5 142.555,-382.877 150.074,-387.679 157.725,-391.875"/>
<polygon fill="midnightblue" stroke="midnightblue" points="67.468,-287.546 59.3685,-280.716 61.4409,-291.106 67.468,-287.546"/>
</g>
<!-- Node4 -->
<g id="node4" class="node"><title>Node4</title>
<g id="a_node4"><a xlink:href="classsoftwarecontainer_1_1_file_toolkit_with_undo.html#ab46eccba563b861f100d9ce7fa9ca4d6" target="_top" xlink:title="overlayMount Mount a directory with an overlay on top of it. ">
<polygon fill="white" stroke="black" points="340.5,-411 340.5,-452 445.5,-452 445.5,-411 340.5,-411"/>
<text text-anchor="start" x="348.5" y="-440" font-family="Helvetica,sans-Serif" font-size="10.00">softwarecontainer::</text>
<text text-anchor="start" x="348.5" y="-429" font-family="Helvetica,sans-Serif" font-size="10.00">FileToolkitWithUndo</text>
<text text-anchor="middle" x="393" y="-418" font-family="Helvetica,sans-Serif" font-size="10.00">::overlayMount</text>
</a>
</g>
</g>
<!-- Node1&#45;&gt;Node4 -->
<g id="edge12" class="edge"><title>Node1&#45;&gt;Node4</title>
<path fill="none" stroke="midnightblue" d="M54.6117,-290.721C61.8915,-331.024 82.478,-408.829 136,-442.5 197.658,-481.29 285.18,-465.955 340.25,-449.867"/>
<polygon fill="midnightblue" stroke="midnightblue" points="58.0284,-289.931 52.9298,-280.644 51.1239,-291.084 58.0284,-289.931"/>
</g>
<!-- Node6 -->
<g id="node6" class="node"><title>Node6</title>
<g id="a_node6"><a xlink:href="classsoftwarecontainer_1_1_container.html#a8461f293ef5db5ee5fbdeddd24f36214" target="_top" xlink:title="Setup the container for startup. ">
<polygon fill="white" stroke="black" points="343,-351.5 343,-381.5 443,-381.5 443,-351.5 343,-351.5"/>
<text text-anchor="start" x="351" y="-369.5" font-family="Helvetica,sans-Serif" font-size="10.00">softwarecontainer::</text>
<text text-anchor="middle" x="393" y="-358.5" font-family="Helvetica,sans-Serif" font-size="10.00">Container::initialize</text>
</a>
</g>
</g>
<!-- Node1&#45;&gt;Node6 -->
<g id="edge9" class="edge"><title>Node1&#45;&gt;Node6</title>
<path fill="none" stroke="midnightblue" d="M68.4341,-288.609C83.9317,-307.227 108.369,-332.251 136,-344.5 203.084,-374.239 289.659,-374.843 342.976,-371.475"/>
<polygon fill="midnightblue" stroke="midnightblue" points="70.9614,-286.167 61.9632,-280.574 65.5096,-290.557 70.9614,-286.167"/>
</g>
<!-- Node7 -->
<g id="node7" class="node"><title>Node7</title>
<g id="a_node7"><a xlink:href="classsoftwarecontainer_1_1_container.html#aaff4ed1ad7fbbe7e34b047fd9e80fdb7" target="_top" xlink:title="Executes a commandline. ">
<polygon fill="white" stroke="black" points="159,-304.5 159,-334.5 259,-334.5 259,-304.5 159,-304.5"/>
<text text-anchor="start" x="167" y="-322.5" font-family="Helvetica,sans-Serif" font-size="10.00">softwarecontainer::</text>
<text text-anchor="middle" x="209" y="-311.5" font-family="Helvetica,sans-Serif" font-size="10.00">Container::execute</text>
</a>
</g>
</g>
<!-- Node1&#45;&gt;Node7 -->
<g id="edge7" class="edge"><title>Node1&#45;&gt;Node7</title>
<path fill="none" stroke="midnightblue" d="M102.776,-283.937C113.734,-287.793 125.238,-291.808 136,-295.5 144.475,-298.408 153.527,-301.464 162.253,-304.385"/>
<polygon fill="midnightblue" stroke="midnightblue" points="103.915,-280.627 93.3198,-280.601 101.586,-287.228 103.915,-280.627"/>
</g>
<!-- Node8 -->
<g id="node8" class="node"><title>Node8</title>
<g id="a_node8"><a xlink:href="classsoftwarecontainer_1_1_software_container_agent.html#aef2eb474a1a8406815536cb7d10eefe6" target="_top" xlink:title="Launch the given command in a the given container. ">
<polygon fill="white" stroke="black" points="147.5,-245 147.5,-286 270.5,-286 270.5,-245 147.5,-245"/>
<text text-anchor="start" x="155.5" y="-274" font-family="Helvetica,sans-Serif" font-size="10.00">softwarecontainer::</text>
<text text-anchor="start" x="155.5" y="-263" font-family="Helvetica,sans-Serif" font-size="10.00">SoftwareContainerAgent</text>
<text text-anchor="middle" x="209" y="-252" font-family="Helvetica,sans-Serif" font-size="10.00">::execute</text>
</a>
</g>
</g>
<!-- Node1&#45;&gt;Node8 -->
<g id="edge8" class="edge"><title>Node1&#45;&gt;Node8</title>
<path fill="none" stroke="midnightblue" d="M110.25,-265.5C122.377,-265.5 135.157,-265.5 147.333,-265.5"/>
<polygon fill="midnightblue" stroke="midnightblue" points="110.245,-262 100.245,-265.5 110.245,-269 110.245,-262"/>
</g>
<!-- Node9 -->
<g id="node9" class="node"><title>Node9</title>
<g id="a_node9"><a xlink:href="namespacesoftwarecontainer.html#a7e308629b69d1bcc3bc5e8ceac9b5a2a" target="_top" xlink:title="isSuccess Check if ReturnCode indicates Success or not ">
<polygon fill="white" stroke="black" points="159,-196.5 159,-226.5 259,-226.5 259,-196.5 159,-196.5"/>
<text text-anchor="start" x="167" y="-214.5" font-family="Helvetica,sans-Serif" font-size="10.00">softwarecontainer::</text>
<text text-anchor="middle" x="209" y="-203.5" font-family="Helvetica,sans-Serif" font-size="10.00">isSuccess</text>
</a>
</g>
</g>
<!-- Node1&#45;&gt;Node9 -->
<g id="edge10" class="edge"><title>Node1&#45;&gt;Node9</title>
<path fill="none" stroke="midnightblue" d="M102.776,-247.063C113.734,-243.207 125.238,-239.192 136,-235.5 144.475,-232.592 153.527,-229.536 162.253,-226.615"/>
<polygon fill="midnightblue" stroke="midnightblue" points="101.586,-243.772 93.3198,-250.399 103.915,-250.373 101.586,-243.772"/>
</g>
<!-- Node11 -->
<g id="node11" class="node"><title>Node11</title>
<g id="a_node11"><a xlink:href="classsoftwarecontainer_1_1_software_container.html#ab85363f0b8f0b9cfc6800a94bc9d8443" target="_top" xlink:title="Resume a suspended container. ">
<polygon fill="white" stroke="black" points="141,-147.5 141,-177.5 277,-177.5 277,-147.5 141,-147.5"/>
<text text-anchor="start" x="149" y="-165.5" font-family="Helvetica,sans-Serif" font-size="10.00">softwarecontainer::</text>
<text text-anchor="middle" x="209" y="-154.5" font-family="Helvetica,sans-Serif" font-size="10.00">SoftwareContainer::resume</text>
</a>
</g>
</g>
<!-- Node1&#45;&gt;Node11 -->
<g id="edge13" class="edge"><title>Node1&#45;&gt;Node11</title>
<path fill="none" stroke="midnightblue" d="M70.7917,-242.866C86.8811,-225.655 110.948,-202.46 136,-187.5 142.248,-183.769 149.135,-180.487 156.098,-177.633"/>
<polygon fill="midnightblue" stroke="midnightblue" points="68.1557,-240.562 63.9857,-250.302 73.3193,-245.288 68.1557,-240.562"/>
</g>
<!-- Node12 -->
<g id="node12" class="node"><title>Node12</title>
<g id="a_node12"><a xlink:href="classsoftwarecontainer_1_1_software_container.html#a3dcbdceccb07db981aa4e9bf85daa5d7" target="_top" xlink:title="Shot down the container with an explicit timeout. ">
<polygon fill="white" stroke="black" points="136,-98.5 136,-128.5 282,-128.5 282,-98.5 136,-98.5"/>
<text text-anchor="start" x="144" y="-116.5" font-family="Helvetica,sans-Serif" font-size="10.00">softwarecontainer::</text>
<text text-anchor="middle" x="209" y="-105.5" font-family="Helvetica,sans-Serif" font-size="10.00">SoftwareContainer::shutdown</text>
</a>
</g>
</g>
<!-- Node1&#45;&gt;Node12 -->
<g id="edge14" class="edge"><title>Node1&#45;&gt;Node12</title>
<path fill="none" stroke="midnightblue" d="M61.4669,-240.995C74.8157,-212.511 100.498,-165.916 136,-138.5 141.027,-134.618 146.7,-131.313 152.6,-128.505"/>
<polygon fill="midnightblue" stroke="midnightblue" points="58.2104,-239.702 57.2637,-250.254 64.5844,-242.595 58.2104,-239.702"/>
</g>
<!-- Node13 -->
<g id="node13" class="node"><title>Node13</title>
<g id="a_node13"><a xlink:href="classsoftwarecontainer_1_1_container.html#a33340235226849d1f178e2f1d7efabe2" target="_top" xlink:title="Start the container. ">
<polygon fill="white" stroke="black" points="159,-49.5 159,-79.5 259,-79.5 259,-49.5 159,-49.5"/>
<text text-anchor="start" x="167" y="-67.5" font-family="Helvetica,sans-Serif" font-size="10.00">softwarecontainer::</text>
<text text-anchor="middle" x="209" y="-56.5" font-family="Helvetica,sans-Serif" font-size="10.00">Container::start</text>
</a>
</g>
</g>
<!-- Node1&#45;&gt;Node13 -->
<g id="edge15" class="edge"><title>Node1&#45;&gt;Node13</title>
<path fill="none" stroke="midnightblue" d="M56.6348,-240.199C66.3665,-202.225 89.8711,-130.577 136,-89.5 142.522,-83.6922 150.467,-79.2173 158.667,-75.7741"/>
<polygon fill="midnightblue" stroke="midnightblue" points="53.1164,-239.853 54.147,-250.398 59.9171,-241.512 53.1164,-239.853"/>
</g>
<!-- Node14 -->
<g id="node14" class="node"><title>Node14</title>
<g id="a_node14"><a xlink:href="classsoftwarecontainer_1_1_software_container.html#a99f3c698cc9b83d71a6c302737717e77" target="_top" xlink:title="Suspend the container. ">
<polygon fill="white" stroke="black" points="139,-0.5 139,-30.5 279,-30.5 279,-0.5 139,-0.5"/>
<text text-anchor="start" x="147" y="-18.5" font-family="Helvetica,sans-Serif" font-size="10.00">softwarecontainer::</text>
<text text-anchor="middle" x="209" y="-7.5" font-family="Helvetica,sans-Serif" font-size="10.00">SoftwareContainer::suspend</text>
</a>
</g>
</g>
<!-- Node1&#45;&gt;Node14 -->
<g id="edge16" class="edge"><title>Node1&#45;&gt;Node14</title>
<path fill="none" stroke="midnightblue" d="M53.5867,-240.235C59.6267,-194.175 78.7957,-96.1799 136,-40.5 139.982,-36.6237 144.596,-33.3464 149.527,-30.5759"/>
<polygon fill="midnightblue" stroke="midnightblue" points="50.1,-239.914 52.3743,-250.262 57.0494,-240.755 50.1,-239.914"/>
</g>
<!-- Node3&#45;&gt;Node2 -->
<g id="edge6" class="edge"><title>Node3&#45;&gt;Node2</title>
<path fill="none" stroke="midnightblue" d="M263.699,-437.284C290.302,-449.562 322.049,-464.215 347.307,-475.872"/>
<polygon fill="midnightblue" stroke="midnightblue" points="265.069,-434.061 254.522,-433.049 262.135,-440.417 265.069,-434.061"/>
</g>
<!-- Node3&#45;&gt;Node4 -->
<g id="edge3" class="edge"><title>Node3&#45;&gt;Node4</title>
<path fill="none" stroke="midnightblue" d="M271.694,-418.941C293.968,-421.266 318.864,-423.865 340.204,-426.093"/>
<polygon fill="midnightblue" stroke="midnightblue" points="271.976,-415.451 261.667,-417.894 271.25,-422.413 271.976,-415.451"/>
</g>
<!-- Node3&#45;&gt;Node6 -->
<g id="edge5" class="edge"><title>Node3&#45;&gt;Node6</title>
<path fill="none" stroke="midnightblue" d="M271.422,-396.976C294.642,-391.107 320.745,-384.509 342.711,-378.958"/>
<polygon fill="midnightblue" stroke="midnightblue" points="270.505,-393.598 261.667,-399.441 272.22,-400.384 270.505,-393.598"/>
</g>
<!-- Node5 -->
<g id="node5" class="node"><title>Node5</title>
<g id="a_node5"><a xlink:href="classsoftwarecontainer_1_1_container.html#a6c57689a4a21b8c9342c53c7e8743203" target="_top" xlink:title="create Creates a new lxc_container and creates it with all the initialization. ">
<polygon fill="white" stroke="black" points="504,-416.5 504,-446.5 604,-446.5 604,-416.5 504,-416.5"/>
<text text-anchor="start" x="512" y="-434.5" font-family="Helvetica,sans-Serif" font-size="10.00">softwarecontainer::</text>
<text text-anchor="middle" x="554" y="-423.5" font-family="Helvetica,sans-Serif" font-size="10.00">Container::create</text>
</a>
</g>
</g>
<!-- Node4&#45;&gt;Node5 -->
<g id="edge4" class="edge"><title>Node4&#45;&gt;Node5</title>
<path fill="none" stroke="midnightblue" d="M455.891,-431.5C471.777,-431.5 488.651,-431.5 503.799,-431.5"/>
<polygon fill="midnightblue" stroke="midnightblue" points="455.623,-428 445.623,-431.5 455.623,-435 455.623,-428"/>
</g>
<!-- Node10 -->
<g id="node10" class="node"><title>Node10</title>
<g id="a_node10"><a xlink:href="classsoftwarecontainer_1_1_software_container.html#a7bf541dc506ae1293441a3f734a8cde4" target="_top" xlink:title="Should only be called on containers in state &#39;READY&#39;. ">
<polygon fill="white" stroke="black" points="318.5,-196.5 318.5,-226.5 467.5,-226.5 467.5,-196.5 318.5,-196.5"/>
<text text-anchor="start" x="326.5" y="-214.5" font-family="Helvetica,sans-Serif" font-size="10.00">softwarecontainer::</text>
<text text-anchor="middle" x="393" y="-203.5" font-family="Helvetica,sans-Serif" font-size="10.00">SoftwareContainer::bindMount</text>
</a>
</g>
</g>
<!-- Node9&#45;&gt;Node10 -->
<g id="edge11" class="edge"><title>Node9&#45;&gt;Node10</title>
<path fill="none" stroke="midnightblue" d="M269.322,-211.5C284.996,-211.5 302.101,-211.5 318.43,-211.5"/>
<polygon fill="midnightblue" stroke="midnightblue" points="269.252,-208 259.252,-211.5 269.252,-215 269.252,-208"/>
</g>
</g>
</svg>
