<?xml version="1.0" encoding="UTF-8" standalone="no"?>
<!DOCTYPE svg PUBLIC "-//W3C//DTD SVG 1.1//EN"
 "http://www.w3.org/Graphics/SVG/1.1/DTD/svg11.dtd">
<!-- Generated by graphviz version 2.38.0 (20140413.2041)
 -->
<!-- Title: softwarecontainer::isDirectory Pages: 1 -->
<svg width="660pt" height="266pt"
 viewBox="0.00 0.00 660.00 266.45" xmlns="http://www.w3.org/2000/svg" xmlns:xlink="http://www.w3.org/1999/xlink">
<g id="graph0" class="graph" transform="scale(1 1) rotate(0) translate(4 262.454)">
<title>softwarecontainer::isDirectory</title>
<polygon fill="white" stroke="none" points="-4,4 -4,-262.454 656,-262.454 656,4 -4,4"/>
<!-- Node1 -->
<g id="node1" class="node"><title>Node1</title>
<polygon fill="#bfbfbf" stroke="black" points="0,-155 0,-185 100,-185 100,-155 0,-155"/>
<text text-anchor="start" x="8" y="-173" font-family="Helvetica,sans-Serif" font-size="10.00">softwarecontainer::</text>
<text text-anchor="middle" x="50" y="-162" font-family="Helvetica,sans-Serif" font-size="10.00">isDirectory</text>
</g>
<!-- Node2 -->
<g id="node2" class="node"><title>Node2</title>
<g id="a_node2"><a xlink:href="classsoftwarecontainer_1_1_container.html#ae5445d6a0c4b8b006ed38b3c01bb870c" target="_top" xlink:title="Tries to bind mount a path from host to container. ">
<polygon fill="white" stroke="black" points="492,-208 492,-238 652,-238 652,-208 492,-208"/>
<text text-anchor="start" x="500" y="-226" font-family="Helvetica,sans-Serif" font-size="10.00">softwarecontainer::</text>
<text text-anchor="middle" x="572" y="-215" font-family="Helvetica,sans-Serif" font-size="10.00">Container::bindMountInContainer</text>
</a>
</g>
</g>
<!-- Node1&#45;&gt;Node2 -->
<g id="edge1" class="edge"><title>Node1&#45;&gt;Node2</title>
<path fill="none" stroke="midnightblue" d="M74.864,-191.972C90.9111,-205.376 113.226,-221.516 136,-230 260.925,-276.537 420.366,-255.576 507.345,-238.07"/>
<polygon fill="midnightblue" stroke="midnightblue" points="76.9366,-189.138 67.0744,-185.266 72.3698,-194.443 76.9366,-189.138"/>
</g>
<!-- Node3 -->
<g id="node3" class="node"><title>Node3</title>
<g id="a_node3"><a xlink:href="classsoftwarecontainer_1_1_file_toolkit_with_undo.html#a35eb42bdace2695fb3e96cb84a535213" target="_top" xlink:title="createDirectory Create a directory, and if successful append it to a list of dirs to be deleted in th...">
<polygon fill="white" stroke="black" points="151.5,-114.5 151.5,-155.5 256.5,-155.5 256.5,-114.5 151.5,-114.5"/>
<text text-anchor="start" x="159.5" y="-143.5" font-family="Helvetica,sans-Serif" font-size="10.00">softwarecontainer::</text>
<text text-anchor="start" x="159.5" y="-132.5" font-family="Helvetica,sans-Serif" font-size="10.00">FileToolkitWithUndo</text>
<text text-anchor="middle" x="204" y="-121.5" font-family="Helvetica,sans-Serif" font-size="10.00">::createDirectory</text>
</a>
</g>
</g>
<!-- Node1&#45;&gt;Node3 -->
<g id="edge2" class="edge"><title>Node1&#45;&gt;Node3</title>
<path fill="none" stroke="midnightblue" d="M110.483,-156.303C123.958,-153.2 138.161,-149.93 151.285,-146.908"/>
<polygon fill="midnightblue" stroke="midnightblue" points="109.31,-152.982 100.35,-158.637 110.88,-159.803 109.31,-152.982"/>
</g>
<!-- Node7 -->
<g id="node7" class="node"><title>Node7</title>
<g id="a_node7"><a xlink:href="classsoftwarecontainer_1_1_software_container.html#aa699253aa7955f9d41c78324d5f49184" target="_top" xlink:title="Indicates if gateways have been configured previously. ">
<polygon fill="white" stroke="black" points="308,-0.5 308,-41.5 456,-41.5 456,-0.5 308,-0.5"/>
<text text-anchor="start" x="316" y="-29.5" font-family="Helvetica,sans-Serif" font-size="10.00">softwarecontainer::</text>
<text text-anchor="start" x="316" y="-18.5" font-family="Helvetica,sans-Serif" font-size="10.00">SoftwareContainer::previously</text>
<text text-anchor="middle" x="382" y="-7.5" font-family="Helvetica,sans-Serif" font-size="10.00">Configured</text>
</a>
</g>
</g>
<!-- Node1&#45;&gt;Node7 -->
<g id="edge8" class="edge"><title>Node1&#45;&gt;Node7</title>
<path fill="none" stroke="midnightblue" d="M75.363,-147.958C91.6123,-134.149 113.965,-116.798 136,-105 190.804,-75.6576 257.867,-53.5093 307.966,-39.3425"/>
<polygon fill="midnightblue" stroke="midnightblue" points="72.7226,-145.614 67.4559,-154.808 77.306,-150.905 72.7226,-145.614"/>
</g>
<!-- Node8 -->
<g id="node8" class="node"><title>Node8</title>
<g id="a_node8"><a xlink:href="namespacesoftwarecontainer.html#aee26a680bb2961627889d39c9f874b2c" target="_top" xlink:title="waitForProcessTermination Waits for a process to terminate and then returns the status of the process...">
<polygon fill="white" stroke="black" points="136,-191 136,-221 272,-221 272,-191 136,-191"/>
<text text-anchor="start" x="144" y="-209" font-family="Helvetica,sans-Serif" font-size="10.00">softwarecontainer::</text>
<text text-anchor="middle" x="204" y="-198" font-family="Helvetica,sans-Serif" font-size="10.00">waitForProcessTermination</text>
</a>
</g>
</g>
<!-- Node1&#45;&gt;Node8 -->
<g id="edge9" class="edge"><title>Node1&#45;&gt;Node8</title>
<path fill="none" stroke="midnightblue" d="M110.196,-184.02C119.802,-186.295 129.784,-188.659 139.488,-190.958"/>
<polygon fill="midnightblue" stroke="midnightblue" points="110.888,-180.587 100.35,-181.688 109.274,-187.399 110.888,-180.587"/>
</g>
<!-- Node3&#45;&gt;Node2 -->
<g id="edge6" class="edge"><title>Node3&#45;&gt;Node2</title>
<path fill="none" stroke="midnightblue" d="M266.697,-149.834C333.966,-166.008 441.022,-191.748 508.576,-207.991"/>
<polygon fill="midnightblue" stroke="midnightblue" points="267.204,-146.356 256.663,-147.422 265.567,-153.162 267.204,-146.356"/>
</g>
<!-- Node4 -->
<g id="node4" class="node"><title>Node4</title>
<g id="a_node4"><a xlink:href="classsoftwarecontainer_1_1_file_toolkit_with_undo.html#a14711e649249d7f0b7e264c7d426ea23" target="_top" xlink:title="overlayMount Mount a directory with an overlay on top of it. ">
<polygon fill="white" stroke="black" points="329.5,-60.5 329.5,-101.5 434.5,-101.5 434.5,-60.5 329.5,-60.5"/>
<text text-anchor="start" x="337.5" y="-89.5" font-family="Helvetica,sans-Serif" font-size="10.00">softwarecontainer::</text>
<text text-anchor="start" x="337.5" y="-78.5" font-family="Helvetica,sans-Serif" font-size="10.00">FileToolkitWithUndo</text>
<text text-anchor="middle" x="382" y="-67.5" font-family="Helvetica,sans-Serif" font-size="10.00">::overlayMount</text>
</a>
</g>
</g>
<!-- Node3&#45;&gt;Node4 -->
<g id="edge3" class="edge"><title>Node3&#45;&gt;Node4</title>
<path fill="none" stroke="midnightblue" d="M266.69,-116.072C287.111,-109.807 309.613,-102.903 329.213,-96.8892"/>
<polygon fill="midnightblue" stroke="midnightblue" points="265.387,-112.811 256.854,-119.09 267.441,-119.503 265.387,-112.811"/>
</g>
<!-- Node6 -->
<g id="node6" class="node"><title>Node6</title>
<g id="a_node6"><a xlink:href="classsoftwarecontainer_1_1_container.html#a25102e42007fb34a93d982b231ae6c78" target="_top" xlink:title="Setup the container for startup. ">
<polygon fill="white" stroke="black" points="332,-120 332,-150 432,-150 432,-120 332,-120"/>
<text text-anchor="start" x="340" y="-138" font-family="Helvetica,sans-Serif" font-size="10.00">softwarecontainer::</text>
<text text-anchor="middle" x="382" y="-127" font-family="Helvetica,sans-Serif" font-size="10.00">Container::initialize</text>
</a>
</g>
</g>
<!-- Node3&#45;&gt;Node6 -->
<g id="edge5" class="edge"><title>Node3&#45;&gt;Node6</title>
<path fill="none" stroke="midnightblue" d="M267.091,-135C288.357,-135 311.839,-135 331.93,-135"/>
<polygon fill="midnightblue" stroke="midnightblue" points="266.854,-131.5 256.854,-135 266.854,-138.5 266.854,-131.5"/>
</g>
<!-- Node3&#45;&gt;Node7 -->
<g id="edge7" class="edge"><title>Node3&#45;&gt;Node7</title>
<path fill="none" stroke="midnightblue" d="M233.924,-107.497C253.671,-89.7423 281.045,-67.0488 308,-51 313.651,-47.6353 319.75,-44.4777 325.929,-41.5678"/>
<polygon fill="midnightblue" stroke="midnightblue" points="231.516,-104.956 226.483,-114.279 236.232,-110.13 231.516,-104.956"/>
</g>
<!-- Node5 -->
<g id="node5" class="node"><title>Node5</title>
<g id="a_node5"><a xlink:href="classsoftwarecontainer_1_1_container.html#a67f48ee29e9294f4f42436e1297d34c7" target="_top" xlink:title="create Creates a new lxc_container and creates it with all the initialization. ">
<polygon fill="white" stroke="black" points="522,-66 522,-96 622,-96 622,-66 522,-66"/>
<text text-anchor="start" x="530" y="-84" font-family="Helvetica,sans-Serif" font-size="10.00">softwarecontainer::</text>
<text text-anchor="middle" x="572" y="-73" font-family="Helvetica,sans-Serif" font-size="10.00">Container::create</text>
</a>
</g>
</g>
<!-- Node4&#45;&gt;Node5 -->
<g id="edge4" class="edge"><title>Node4&#45;&gt;Node5</title>
<path fill="none" stroke="midnightblue" d="M444.979,-81C469.963,-81 498.373,-81 521.887,-81"/>
<polygon fill="midnightblue" stroke="midnightblue" points="444.87,-77.5001 434.869,-81 444.869,-84.5001 444.87,-77.5001"/>
</g>
<!-- Node9 -->
<g id="node9" class="node"><title>Node9</title>
<g id="a_node9"><a xlink:href="classsoftwarecontainer_1_1_container.html#a480d9a7d3a2c0ee9d1756a2bdfc29f59" target="_top" xlink:title="synchronous version of execute ">
<polygon fill="white" stroke="black" points="321,-208 321,-238 443,-238 443,-208 321,-208"/>
<text text-anchor="start" x="329" y="-226" font-family="Helvetica,sans-Serif" font-size="10.00">softwarecontainer::</text>
<text text-anchor="middle" x="382" y="-215" font-family="Helvetica,sans-Serif" font-size="10.00">Container::executeSync</text>
</a>
</g>
</g>
<!-- Node8&#45;&gt;Node9 -->
<g id="edge10" class="edge"><title>Node8&#45;&gt;Node9</title>
<path fill="none" stroke="midnightblue" d="M282.293,-213.466C295.188,-214.711 308.394,-215.987 320.782,-217.183"/>
<polygon fill="midnightblue" stroke="midnightblue" points="282.33,-209.953 272.04,-212.475 281.657,-216.921 282.33,-209.953"/>
</g>
<!-- Node9&#45;&gt;Node2 -->
<g id="edge11" class="edge"><title>Node9&#45;&gt;Node2</title>
<path fill="none" stroke="midnightblue" d="M453.339,-223C465.838,-223 478.934,-223 491.663,-223"/>
<polygon fill="midnightblue" stroke="midnightblue" points="453.001,-219.5 443.001,-223 453.001,-226.5 453.001,-219.5"/>
</g>
</g>
</svg>
