<?xml version="1.0" encoding="UTF-8" standalone="no"?>
<!DOCTYPE svg PUBLIC "-//W3C//DTD SVG 1.1//EN"
 "http://www.w3.org/Graphics/SVG/1.1/DTD/svg11.dtd">
<!-- Generated by graphviz version 2.38.0 (20140413.2041)
 -->
<!-- Title: softwarecontainer::existsInFileSystem Pages: 1 -->
<svg width="305pt" height="159pt"
 viewBox="0.00 0.00 305.00 158.50" xmlns="http://www.w3.org/2000/svg" xmlns:xlink="http://www.w3.org/1999/xlink">
<g id="graph0" class="graph" transform="scale(1 1) rotate(0) translate(4 154.5)">
<title>softwarecontainer::existsInFileSystem</title>
<polygon fill="white" stroke="none" points="-4,4 -4,-154.5 301,-154.5 301,4 -4,4"/>
<!-- Node1 -->
<g id="node1" class="node"><title>Node1</title>
<polygon fill="#bfbfbf" stroke="black" points="0,-54.5 0,-84.5 101,-84.5 101,-54.5 0,-54.5"/>
<text text-anchor="start" x="8" y="-72.5" font-family="Helvetica,sans-Serif" font-size="10.00">softwarecontainer::</text>
<text text-anchor="middle" x="50.5" y="-61.5" font-family="Helvetica,sans-Serif" font-size="10.00">existsInFileSystem</text>
</g>
<!-- Node2 -->
<g id="node2" class="node"><title>Node2</title>
<g id="a_node2"><a xlink:href="classsoftwarecontainer_1_1_device_node_gateway.html#a9e912027cad4fff3ed4d9a9581f45227" target="_top" xlink:title="Implements Gateway::activateGateway. ">
<polygon fill="white" stroke="black" points="142,-109 142,-150 292,-150 292,-109 142,-109"/>
<text text-anchor="start" x="150" y="-138" font-family="Helvetica,sans-Serif" font-size="10.00">softwarecontainer::</text>
<text text-anchor="start" x="150" y="-127" font-family="Helvetica,sans-Serif" font-size="10.00">DeviceNodeGateway::activate</text>
<text text-anchor="middle" x="217" y="-116" font-family="Helvetica,sans-Serif" font-size="10.00">Gateway</text>
</a>
</g>
</g>
<!-- Node1&#45;&gt;Node2 -->
<g id="edge1" class="edge"><title>Node1&#45;&gt;Node2</title>
<path fill="none" stroke="midnightblue" d="M102.762,-88.1975C120.795,-94.7749 141.156,-102.201 159.59,-108.925"/>
<polygon fill="midnightblue" stroke="midnightblue" points="103.604,-84.7791 93.0103,-84.6405 101.206,-91.3553 103.604,-84.7791"/>
</g>
<!-- Node3 -->
<g id="node3" class="node"><title>Node3</title>
<g id="a_node3"><a xlink:href="classsoftwarecontainer_1_1_file_toolkit_with_undo.html#a8f6b5cda214c9e412ab73313bc95d785" target="_top" xlink:title="bindMount Bind mount a src directory to another position dst. ">
<polygon fill="white" stroke="black" points="164.5,-49 164.5,-90 269.5,-90 269.5,-49 164.5,-49"/>
<text text-anchor="start" x="172.5" y="-78" font-family="Helvetica,sans-Serif" font-size="10.00">softwarecontainer::</text>
<text text-anchor="start" x="172.5" y="-67" font-family="Helvetica,sans-Serif" font-size="10.00">FileToolkitWithUndo</text>
<text text-anchor="middle" x="217" y="-56" font-family="Helvetica,sans-Serif" font-size="10.00">::bindMount</text>
</a>
</g>
</g>
<!-- Node1&#45;&gt;Node3 -->
<g id="edge2" class="edge"><title>Node1&#45;&gt;Node3</title>
<path fill="none" stroke="midnightblue" d="M111.341,-69.5C128.721,-69.5 147.545,-69.5 164.373,-69.5"/>
<polygon fill="midnightblue" stroke="midnightblue" points="111.302,-66.0001 101.302,-69.5 111.302,-73.0001 111.302,-66.0001"/>
</g>
<!-- Node4 -->
<g id="node4" class="node"><title>Node4</title>
<g id="a_node4"><a xlink:href="classsoftwarecontainer_1_1_container.html#ae5445d6a0c4b8b006ed38b3c01bb870c" target="_top" xlink:title="Tries to bind mount a path from host to container. ">
<polygon fill="white" stroke="black" points="137,-0.5 137,-30.5 297,-30.5 297,-0.5 137,-0.5"/>
<text text-anchor="start" x="145" y="-18.5" font-family="Helvetica,sans-Serif" font-size="10.00">softwarecontainer::</text>
<text text-anchor="middle" x="217" y="-7.5" font-family="Helvetica,sans-Serif" font-size="10.00">Container::bindMountInContainer</text>
</a>
</g>
</g>
<!-- Node1&#45;&gt;Node4 -->
<g id="edge3" class="edge"><title>Node1&#45;&gt;Node4</title>
<path fill="none" stroke="midnightblue" d="M102.808,-51.0992C114.045,-47.1809 125.899,-43.132 137,-39.5 146.128,-36.5136 155.889,-33.4465 165.327,-30.5455"/>
<polygon fill="midnightblue" stroke="midnightblue" points="101.405,-47.8823 93.1273,-54.4952 103.722,-54.4877 101.405,-47.8823"/>
</g>
</g>
</svg>
