<?xml version="1.0" encoding="UTF-8" standalone="no"?>
<!DOCTYPE svg PUBLIC "-//W3C//DTD SVG 1.1//EN"
 "http://www.w3.org/Graphics/SVG/1.1/DTD/svg11.dtd">
<!-- Generated by graphviz version 2.38.0 (20140413.2041)
 -->
<!-- Title: softwarecontainer::addProcessListener Pages: 1 -->
<svg width="270pt" height="50pt"
 viewBox="0.00 0.00 270.00 50.00" xmlns="http://www.w3.org/2000/svg" xmlns:xlink="http://www.w3.org/1999/xlink">
<g id="graph0" class="graph" transform="scale(1 1) rotate(0) translate(4 46)">
<title>softwarecontainer::addProcessListener</title>
<polygon fill="white" stroke="none" points="-4,4 -4,-46 266,-46 266,4 -4,4"/>
<!-- Node1 -->
<g id="node1" class="node"><title>Node1</title>
<polygon fill="#bfbfbf" stroke="black" points="0,-6 0,-36 103,-36 103,-6 0,-6"/>
<text text-anchor="start" x="8" y="-24" font-family="Helvetica,sans-Serif" font-size="10.00">softwarecontainer::</text>
<text text-anchor="middle" x="51.5" y="-13" font-family="Helvetica,sans-Serif" font-size="10.00">addProcessListener</text>
</g>
<!-- Node2 -->
<g id="node2" class="node"><title>Node2</title>
<g id="a_node2"><a xlink:href="classsoftwarecontainer_1_1_software_container_agent.html#aef2eb474a1a8406815536cb7d10eefe6" target="_top" xlink:title="Launch the given command in a the given container. ">
<polygon fill="white" stroke="black" points="139,-0.5 139,-41.5 262,-41.5 262,-0.5 139,-0.5"/>
<text text-anchor="start" x="147" y="-29.5" font-family="Helvetica,sans-Serif" font-size="10.00">softwarecontainer::</text>
<text text-anchor="start" x="147" y="-18.5" font-family="Helvetica,sans-Serif" font-size="10.00">SoftwareContainerAgent</text>
<text text-anchor="middle" x="200.5" y="-7.5" font-family="Helvetica,sans-Serif" font-size="10.00">::execute</text>
</a>
</g>
</g>
<!-- Node1&#45;&gt;Node2 -->
<g id="edge1" class="edge"><title>Node1&#45;&gt;Node2</title>
<path fill="none" stroke="midnightblue" d="M113.278,-21C121.752,-21 130.459,-21 138.929,-21"/>
<polygon fill="midnightblue" stroke="midnightblue" points="113.089,-17.5001 103.089,-21 113.089,-24.5001 113.089,-17.5001"/>
</g>
</g>
</svg>
