<?xml version="1.0" encoding="UTF-8" standalone="no"?>
<!DOCTYPE svg PUBLIC "-//W3C//DTD SVG 1.1//EN"
 "http://www.w3.org/Graphics/SVG/1.1/DTD/svg11.dtd">
<!-- Generated by graphviz version 2.38.0 (20140413.2041)
 -->
<!-- Title: softwarecontainer::isError Pages: 1 -->
<svg width="690pt" height="1485pt"
 viewBox="0.00 0.00 690.00 1485.00" xmlns="http://www.w3.org/2000/svg" xmlns:xlink="http://www.w3.org/1999/xlink">
<g id="graph0" class="graph" transform="scale(1 1) rotate(0) translate(4 1481)">
<title>softwarecontainer::isError</title>
<polygon fill="white" stroke="none" points="-4,4 -4,-1481 686,-1481 686,4 -4,4"/>
<!-- Node1 -->
<g id="node1" class="node"><title>Node1</title>
<polygon fill="#bfbfbf" stroke="black" points="0,-781.5 0,-811.5 100,-811.5 100,-781.5 0,-781.5"/>
<text text-anchor="start" x="8" y="-799.5" font-family="Helvetica,sans-Serif" font-size="10.00">softwarecontainer::</text>
<text text-anchor="middle" x="50" y="-788.5" font-family="Helvetica,sans-Serif" font-size="10.00">isError</text>
</g>
<!-- Node2 -->
<g id="node2" class="node"><title>Node2</title>
<g id="a_node2"><a xlink:href="classsoftwarecontainer_1_1_d_bus_gateway.html#a7ba4cdcf870915d57f9f36ed68f7c33a" target="_top" xlink:title="Activates both dbus session instances. ">
<polygon fill="white" stroke="black" points="165.5,-1446.5 165.5,-1476.5 286.5,-1476.5 286.5,-1446.5 165.5,-1446.5"/>
<text text-anchor="start" x="173.5" y="-1464.5" font-family="Helvetica,sans-Serif" font-size="10.00">softwarecontainer::</text>
<text text-anchor="middle" x="226" y="-1453.5" font-family="Helvetica,sans-Serif" font-size="10.00">DBusGateway::activate</text>
</a>
</g>
</g>
<!-- Node1&#45;&gt;Node2 -->
<g id="edge1" class="edge"><title>Node1&#45;&gt;Node2</title>
<path fill="none" stroke="midnightblue" d="M50.9437,-821.887C51.212,-928.156 57.423,-1336.17 136,-1431.5 143.571,-1440.68 154.061,-1447.07 165.19,-1451.51"/>
<polygon fill="midnightblue" stroke="midnightblue" points="54.4437,-821.762 50.9346,-811.765 47.4437,-821.768 54.4437,-821.762"/>
</g>
<!-- Node3 -->
<g id="node3" class="node"><title>Node3</title>
<g id="a_node3"><a xlink:href="classsoftwarecontainer_1_1_network_gateway.html#a8a08792ecd43b1694222ca286514ee21" target="_top" xlink:title="Implements Gateway::activateGateway. ">
<polygon fill="white" stroke="black" points="352,-1439.5 352,-1469.5 524,-1469.5 524,-1439.5 352,-1439.5"/>
<text text-anchor="start" x="360" y="-1457.5" font-family="Helvetica,sans-Serif" font-size="10.00">softwarecontainer::</text>
<text text-anchor="middle" x="438" y="-1446.5" font-family="Helvetica,sans-Serif" font-size="10.00">NetworkGateway::activateGateway</text>
</a>
</g>
</g>
<!-- Node1&#45;&gt;Node3 -->
<g id="edge2" class="edge"><title>Node1&#45;&gt;Node3</title>
<path fill="none" stroke="midnightblue" d="M50.8107,-821.848C50.5819,-925.304 55.1907,-1314.08 136,-1398.5 143.546,-1406.38 265.317,-1427.2 351.632,-1441.11"/>
<polygon fill="midnightblue" stroke="midnightblue" points="54.3111,-821.718 50.8515,-811.704 47.3112,-821.69 54.3111,-821.718"/>
</g>
<!-- Node4 -->
<g id="node4" class="node"><title>Node4</title>
<g id="a_node4"><a xlink:href="classsoftwarecontainer_1_1_software_container_agent.html#a97d427dada015dc9337ce5673f55ec9f" target="_top" xlink:title="Bind mount a folder into the container. ">
<polygon fill="white" stroke="black" points="164.5,-1239 164.5,-1280 287.5,-1280 287.5,-1239 164.5,-1239"/>
<text text-anchor="start" x="172.5" y="-1268" font-family="Helvetica,sans-Serif" font-size="10.00">softwarecontainer::</text>
<text text-anchor="start" x="172.5" y="-1257" font-family="Helvetica,sans-Serif" font-size="10.00">SoftwareContainerAgent</text>
<text text-anchor="middle" x="226" y="-1246" font-family="Helvetica,sans-Serif" font-size="10.00">::bindMount</text>
</a>
</g>
</g>
<!-- Node1&#45;&gt;Node4 -->
<g id="edge3" class="edge"><title>Node1&#45;&gt;Node4</title>
<path fill="none" stroke="midnightblue" d="M52.8812,-821.825C59.4622,-904.105 83.9322,-1162.19 136,-1224.5 143.452,-1233.42 153.484,-1240.08 164.126,-1245.04"/>
<polygon fill="midnightblue" stroke="midnightblue" points="56.3694,-821.536 52.1021,-811.839 49.3906,-822.081 56.3694,-821.536"/>
</g>
<!-- Node5 -->
<g id="node5" class="node"><title>Node5</title>
<g id="a_node5"><a xlink:href="classsoftwarecontainer_1_1_netlink.html#acf303ede6bab6850147376b9a0d3ea7b" target="_top" xlink:title="check for a kernel dump, and if not present, try to get one ">
<polygon fill="white" stroke="black" points="371,-1124.5 371,-1154.5 505,-1154.5 505,-1124.5 371,-1124.5"/>
<text text-anchor="start" x="379" y="-1142.5" font-family="Helvetica,sans-Serif" font-size="10.00">softwarecontainer::</text>
<text text-anchor="middle" x="438" y="-1131.5" font-family="Helvetica,sans-Serif" font-size="10.00">Netlink::checkKernelDump</text>
</a>
</g>
</g>
<!-- Node1&#45;&gt;Node5 -->
<g id="edge4" class="edge"><title>Node1&#45;&gt;Node5</title>
<path fill="none" stroke="midnightblue" d="M53.0964,-822.188C59.7831,-896.974 83.3321,-1111.9 136,-1153.5 213.383,-1214.62 340.004,-1178.14 401.396,-1154.65"/>
<polygon fill="midnightblue" stroke="midnightblue" points="56.5484,-821.481 52.1982,-811.821 49.5745,-822.086 56.5484,-821.481"/>
</g>
<!-- Node6 -->
<g id="node6" class="node"><title>Node6</title>
<g id="a_node6"><a xlink:href="classsoftwarecontainer_1_1_netlink.html#abaaa3af391069f8b624edd0c066eb958" target="_top" xlink:title="Bring the given interface up. ">
<polygon fill="white" stroke="black" points="571,-1156.5 571,-1186.5 671,-1186.5 671,-1156.5 571,-1156.5"/>
<text text-anchor="start" x="579" y="-1174.5" font-family="Helvetica,sans-Serif" font-size="10.00">softwarecontainer::</text>
<text text-anchor="middle" x="621" y="-1163.5" font-family="Helvetica,sans-Serif" font-size="10.00">Netlink::linkUp</text>
</a>
</g>
</g>
<!-- Node1&#45;&gt;Node6 -->
<g id="edge30" class="edge"><title>Node1&#45;&gt;Node6</title>
<path fill="none" stroke="midnightblue" d="M52.5581,-821.721C57.9815,-900.205 78.9151,-1137.59 136,-1183.5 201.664,-1236.31 461.361,-1199.04 570.877,-1180.39"/>
<polygon fill="midnightblue" stroke="midnightblue" points="56.0501,-821.484 51.8936,-811.738 49.0655,-821.948 56.0501,-821.484"/>
</g>
<!-- Node7 -->
<g id="node7" class="node"><title>Node7</title>
<g id="a_node7"><a xlink:href="classsoftwarecontainer_1_1_netlink.html#a07b353cd40aeffd94d9fb03d9cdd1119" target="_top" xlink:title="Check that the device given is a network bridge. ">
<polygon fill="white" stroke="black" points="571,-1091.5 571,-1121.5 671,-1121.5 671,-1091.5 571,-1091.5"/>
<text text-anchor="start" x="579" y="-1109.5" font-family="Helvetica,sans-Serif" font-size="10.00">softwarecontainer::</text>
<text text-anchor="middle" x="621" y="-1098.5" font-family="Helvetica,sans-Serif" font-size="10.00">Netlink::findLink</text>
</a>
</g>
</g>
<!-- Node1&#45;&gt;Node7 -->
<g id="edge19" class="edge"><title>Node1&#45;&gt;Node7</title>
<path fill="none" stroke="midnightblue" d="M53.327,-821.707C58.9112,-866.598 77.3209,-960.03 136,-1006.5 204.397,-1060.67 440.01,-1042.88 524,-1066.5 546.422,-1072.8 570.623,-1082.91 589.117,-1091.39"/>
<polygon fill="midnightblue" stroke="midnightblue" points="56.7911,-821.191 52.1919,-811.647 49.8352,-821.976 56.7911,-821.191"/>
</g>
<!-- Node8 -->
<g id="node8" class="node"><title>Node8</title>
<g id="a_node8"><a xlink:href="classsoftwarecontainer_1_1_netlink.html#aec31c67231b12f8a1702054e13029cbb" target="_top" xlink:title="Get all addresses associated with the given interface index. ">
<polygon fill="white" stroke="black" points="563,-1017.5 563,-1047.5 679,-1047.5 679,-1017.5 563,-1017.5"/>
<text text-anchor="start" x="571" y="-1035.5" font-family="Helvetica,sans-Serif" font-size="10.00">softwarecontainer::</text>
<text text-anchor="middle" x="621" y="-1024.5" font-family="Helvetica,sans-Serif" font-size="10.00">Netlink::findAddresses</text>
</a>
</g>
</g>
<!-- Node1&#45;&gt;Node8 -->
<g id="edge18" class="edge"><title>Node1&#45;&gt;Node8</title>
<path fill="none" stroke="midnightblue" d="M55.4947,-821.67C63.8721,-860.56 85.7956,-934.515 136,-970.5 203.305,-1018.74 450.078,-1029.46 562.958,-1031.83"/>
<polygon fill="midnightblue" stroke="midnightblue" points="58.8899,-820.801 53.4788,-811.692 52.0285,-822.187 58.8899,-820.801"/>
</g>
<!-- Node9 -->
<g id="node9" class="node"><title>Node9</title>
<g id="a_node9"><a xlink:href="classsoftwarecontainer_1_1_workspace.html#af9be59382096de97cfab692bc5c89114" target="_top" xlink:title="Check if the workspace is present and create it if needed. ">
<polygon fill="white" stroke="black" points="364,-911.5 364,-941.5 512,-941.5 512,-911.5 364,-911.5"/>
<text text-anchor="start" x="372" y="-929.5" font-family="Helvetica,sans-Serif" font-size="10.00">softwarecontainer::</text>
<text text-anchor="middle" x="438" y="-918.5" font-family="Helvetica,sans-Serif" font-size="10.00">Workspace::checkWorkspace</text>
</a>
</g>
</g>
<!-- Node1&#45;&gt;Node9 -->
<g id="edge8" class="edge"><title>Node1&#45;&gt;Node9</title>
<path fill="none" stroke="midnightblue" d="M63.7145,-820.824C77.832,-845.082 103.044,-881.158 136,-898.5 206.828,-935.771 300.084,-938.574 363.914,-934.747"/>
<polygon fill="midnightblue" stroke="midnightblue" points="66.6313,-818.87 58.6868,-811.86 60.526,-822.294 66.6313,-818.87"/>
</g>
<!-- Node10 -->
<g id="node10" class="node"><title>Node10</title>
<g id="a_node10"><a xlink:href="classsoftwarecontainer_1_1_workspace.html#a4cca8749e6f3bd90452511ede207f5e5" target="_top" xlink:title="Creates a workspace. ">
<polygon fill="white" stroke="black" points="560,-933.5 560,-963.5 682,-963.5 682,-933.5 560,-933.5"/>
<text text-anchor="start" x="568" y="-951.5" font-family="Helvetica,sans-Serif" font-size="10.00">softwarecontainer::</text>
<text text-anchor="middle" x="621" y="-940.5" font-family="Helvetica,sans-Serif" font-size="10.00">Workspace::Workspace</text>
</a>
</g>
</g>
<!-- Node1&#45;&gt;Node10 -->
<g id="edge47" class="edge"><title>Node1&#45;&gt;Node10</title>
<path fill="none" stroke="midnightblue" d="M59.1271,-821.536C70.7417,-852.878 95.305,-905.481 136,-930.5 269.235,-1012.41 464.363,-984.797 561.112,-963.571"/>
<polygon fill="midnightblue" stroke="midnightblue" points="62.315,-820.052 55.6801,-811.792 55.7158,-822.387 62.315,-820.052"/>
</g>
<!-- Node11 -->
<g id="node11" class="node"><title>Node11</title>
<g id="a_node11"><a xlink:href="classsoftwarecontainer_1_1_software_container_agent.html#aa5f19daf29d5fda482e657ac6e8fca5c" target="_top" xlink:title="Create a new container. ">
<polygon fill="white" stroke="black" points="164.5,-727 164.5,-768 287.5,-768 287.5,-727 164.5,-727"/>
<text text-anchor="start" x="172.5" y="-756" font-family="Helvetica,sans-Serif" font-size="10.00">softwarecontainer::</text>
<text text-anchor="start" x="172.5" y="-745" font-family="Helvetica,sans-Serif" font-size="10.00">SoftwareContainerAgent</text>
<text text-anchor="middle" x="226" y="-734" font-family="Helvetica,sans-Serif" font-size="10.00">::createContainer</text>
</a>
</g>
</g>
<!-- Node1&#45;&gt;Node11 -->
<g id="edge10" class="edge"><title>Node1&#45;&gt;Node11</title>
<path fill="none" stroke="midnightblue" d="M110.425,-779.765C127.823,-774.866 146.861,-769.505 164.334,-764.584"/>
<polygon fill="midnightblue" stroke="midnightblue" points="109.073,-776.51 100.396,-782.59 110.97,-783.248 109.073,-776.51"/>
</g>
<!-- Node12 -->
<g id="node12" class="node"><title>Node12</title>
<g id="a_node12"><a xlink:href="classsoftwarecontainer_1_1_file_toolkit_with_undo.html#aff5073fb683649d6753baae354d202b9" target="_top" xlink:title="createDirectory Create a directory, and if successful append it to a list of dirs to be deleted in th...">
<polygon fill="white" stroke="black" points="173.5,-825 173.5,-866 278.5,-866 278.5,-825 173.5,-825"/>
<text text-anchor="start" x="181.5" y="-854" font-family="Helvetica,sans-Serif" font-size="10.00">softwarecontainer::</text>
<text text-anchor="start" x="181.5" y="-843" font-family="Helvetica,sans-Serif" font-size="10.00">FileToolkitWithUndo</text>
<text text-anchor="middle" x="226" y="-832" font-family="Helvetica,sans-Serif" font-size="10.00">::createDirectory</text>
</a>
</g>
</g>
<!-- Node1&#45;&gt;Node12 -->
<g id="edge11" class="edge"><title>Node1&#45;&gt;Node12</title>
<path fill="none" stroke="midnightblue" d="M110.248,-813.185C130.74,-818.955 153.525,-825.372 173.357,-830.957"/>
<polygon fill="midnightblue" stroke="midnightblue" points="110.97,-809.752 100.396,-810.41 109.073,-816.49 110.97,-809.752"/>
</g>
<!-- Node13 -->
<g id="node13" class="node"><title>Node13</title>
<g id="a_node13"><a xlink:href="classsoftwarecontainer_1_1_file_toolkit_with_undo.html#ab46eccba563b861f100d9ce7fa9ca4d6" target="_top" xlink:title="overlayMount Mount a directory with an overlay on top of it. ">
<polygon fill="white" stroke="black" points="385.5,-841 385.5,-882 490.5,-882 490.5,-841 385.5,-841"/>
<text text-anchor="start" x="393.5" y="-870" font-family="Helvetica,sans-Serif" font-size="10.00">softwarecontainer::</text>
<text text-anchor="start" x="393.5" y="-859" font-family="Helvetica,sans-Serif" font-size="10.00">FileToolkitWithUndo</text>
<text text-anchor="middle" x="438" y="-848" font-family="Helvetica,sans-Serif" font-size="10.00">::overlayMount</text>
</a>
</g>
</g>
<!-- Node1&#45;&gt;Node13 -->
<g id="edge32" class="edge"><title>Node1&#45;&gt;Node13</title>
<path fill="none" stroke="midnightblue" d="M67.7056,-819.638C83.0163,-838.695 107.58,-864.332 136,-875.5 218.528,-907.93 323.726,-891.278 385.395,-876.322"/>
<polygon fill="midnightblue" stroke="midnightblue" points="70.4272,-817.436 61.5338,-811.678 64.8952,-821.725 70.4272,-817.436"/>
</g>
<!-- Node15 -->
<g id="node15" class="node"><title>Node15</title>
<g id="a_node15"><a xlink:href="classsoftwarecontainer_1_1_container.html#a8461f293ef5db5ee5fbdeddd24f36214" target="_top" xlink:title="Setup the container for startup. ">
<polygon fill="white" stroke="black" points="388,-786.5 388,-816.5 488,-816.5 488,-786.5 388,-786.5"/>
<text text-anchor="start" x="396" y="-804.5" font-family="Helvetica,sans-Serif" font-size="10.00">softwarecontainer::</text>
<text text-anchor="middle" x="438" y="-793.5" font-family="Helvetica,sans-Serif" font-size="10.00">Container::initialize</text>
</a>
</g>
</g>
<!-- Node1&#45;&gt;Node15 -->
<g id="edge23" class="edge"><title>Node1&#45;&gt;Node15</title>
<path fill="none" stroke="midnightblue" d="M110.646,-797.273C186.742,-798.258 316.949,-799.945 387.71,-800.862"/>
<polygon fill="midnightblue" stroke="midnightblue" points="110.324,-793.768 100.279,-797.138 110.233,-800.768 110.324,-793.768"/>
</g>
<!-- Node16 -->
<g id="node16" class="node"><title>Node16</title>
<g id="a_node16"><a xlink:href="classsoftwarecontainer_1_1_container.html#aaff4ed1ad7fbbe7e34b047fd9e80fdb7" target="_top" xlink:title="Executes a commandline. ">
<polygon fill="white" stroke="black" points="176,-678.5 176,-708.5 276,-708.5 276,-678.5 176,-678.5"/>
<text text-anchor="start" x="184" y="-696.5" font-family="Helvetica,sans-Serif" font-size="10.00">softwarecontainer::</text>
<text text-anchor="middle" x="226" y="-685.5" font-family="Helvetica,sans-Serif" font-size="10.00">Container::execute</text>
</a>
</g>
</g>
<!-- Node1&#45;&gt;Node16 -->
<g id="edge16" class="edge"><title>Node1&#45;&gt;Node16</title>
<path fill="none" stroke="midnightblue" d="M69.8824,-773.691C85.7768,-755.912 110.023,-731.898 136,-717.5 148.177,-710.75 162.357,-705.817 175.771,-702.244"/>
<polygon fill="midnightblue" stroke="midnightblue" points="67.1254,-771.528 63.191,-781.365 72.4013,-776.128 67.1254,-771.528"/>
</g>
<!-- Node17 -->
<g id="node17" class="node"><title>Node17</title>
<g id="a_node17"><a xlink:href="classsoftwarecontainer_1_1_software_container_agent.html#aef2eb474a1a8406815536cb7d10eefe6" target="_top" xlink:title="Launch the given command in a the given container. ">
<polygon fill="white" stroke="black" points="164.5,-619 164.5,-660 287.5,-660 287.5,-619 164.5,-619"/>
<text text-anchor="start" x="172.5" y="-648" font-family="Helvetica,sans-Serif" font-size="10.00">softwarecontainer::</text>
<text text-anchor="start" x="172.5" y="-637" font-family="Helvetica,sans-Serif" font-size="10.00">SoftwareContainerAgent</text>
<text text-anchor="middle" x="226" y="-626" font-family="Helvetica,sans-Serif" font-size="10.00">::execute</text>
</a>
</g>
</g>
<!-- Node1&#45;&gt;Node17 -->
<g id="edge17" class="edge"><title>Node1&#45;&gt;Node17</title>
<path fill="none" stroke="midnightblue" d="M61.4239,-771.939C74.7314,-743.401 100.374,-696.755 136,-669.5 144.418,-663.06 154.299,-657.957 164.357,-653.926"/>
<polygon fill="midnightblue" stroke="midnightblue" points="58.1602,-770.663 57.2352,-781.217 64.5401,-773.543 58.1602,-770.663"/>
</g>
<!-- Node18 -->
<g id="node18" class="node"><title>Node18</title>
<g id="a_node18"><a xlink:href="classsoftwarecontainer_1_1_netlink.html#a1756adb8382b2ed3c1518567862139c1" target="_top" xlink:title="get a dump of all links, addresses and routes from the kernel. ">
<polygon fill="white" stroke="black" points="165.5,-1113.5 165.5,-1143.5 286.5,-1143.5 286.5,-1113.5 165.5,-1113.5"/>
<text text-anchor="start" x="173.5" y="-1131.5" font-family="Helvetica,sans-Serif" font-size="10.00">softwarecontainer::</text>
<text text-anchor="middle" x="226" y="-1120.5" font-family="Helvetica,sans-Serif" font-size="10.00">Netlink::getKernelDump</text>
</a>
</g>
</g>
<!-- Node1&#45;&gt;Node18 -->
<g id="edge20" class="edge"><title>Node1&#45;&gt;Node18</title>
<path fill="none" stroke="midnightblue" d="M50.6475,-822.062C51.2709,-879.411 60.8919,-1019.48 136,-1098.5 143.976,-1106.89 154.373,-1112.94 165.236,-1117.29"/>
<polygon fill="midnightblue" stroke="midnightblue" points="54.1469,-821.73 50.626,-811.737 47.1469,-821.745 54.1469,-821.73"/>
</g>
<!-- Node19 -->
<g id="node19" class="node"><title>Node19</title>
<g id="a_node19"><a xlink:href="classsoftwarecontainer_1_1_netlink.html#a2a6160a9363a9660c82276342dcaf477" target="_top" xlink:title="Construct a new Netlink object. ">
<polygon fill="white" stroke="black" points="388,-1075.5 388,-1105.5 488,-1105.5 488,-1075.5 388,-1075.5"/>
<text text-anchor="start" x="396" y="-1093.5" font-family="Helvetica,sans-Serif" font-size="10.00">softwarecontainer::</text>
<text text-anchor="middle" x="438" y="-1082.5" font-family="Helvetica,sans-Serif" font-size="10.00">Netlink::Netlink</text>
</a>
</g>
</g>
<!-- Node1&#45;&gt;Node19 -->
<g id="edge31" class="edge"><title>Node1&#45;&gt;Node19</title>
<path fill="none" stroke="midnightblue" d="M50.6913,-821.853C51.5512,-875.531 61.8567,-1000.63 136,-1060.5 173.589,-1090.85 312.641,-1093.07 387.884,-1091.92"/>
<polygon fill="midnightblue" stroke="midnightblue" points="54.1895,-821.512 50.6316,-811.532 47.1896,-821.552 54.1895,-821.512"/>
</g>
<!-- Node20 -->
<g id="node20" class="node"><title>Node20</title>
<g id="a_node20"><a xlink:href="namespacesoftwarecontainer.html#a7e308629b69d1bcc3bc5e8ceac9b5a2a" target="_top" xlink:title="isSuccess Check if ReturnCode indicates Success or not ">
<polygon fill="white" stroke="black" points="176,-1358.5 176,-1388.5 276,-1388.5 276,-1358.5 176,-1358.5"/>
<text text-anchor="start" x="184" y="-1376.5" font-family="Helvetica,sans-Serif" font-size="10.00">softwarecontainer::</text>
<text text-anchor="middle" x="226" y="-1365.5" font-family="Helvetica,sans-Serif" font-size="10.00">isSuccess</text>
</a>
</g>
</g>
<!-- Node1&#45;&gt;Node20 -->
<g id="edge24" class="edge"><title>Node1&#45;&gt;Node20</title>
<path fill="none" stroke="midnightblue" d="M51.3485,-821.801C53.2095,-919.404 64.8212,-1269.96 136,-1349.5 146.138,-1360.83 161.008,-1367.06 175.702,-1370.41"/>
<polygon fill="midnightblue" stroke="midnightblue" points="54.8459,-821.611 51.174,-811.673 47.8469,-821.732 54.8459,-821.611"/>
</g>
<!-- Node24 -->
<g id="node24" class="node"><title>Node24</title>
<g id="a_node24"><a xlink:href="classsoftwarecontainer_1_1_netlink.html#ab6cfc59121b64f8cf5a89b706b77826b" target="_top" xlink:title="Bring a given interface down. ">
<polygon fill="white" stroke="black" points="176,-570.5 176,-600.5 276,-600.5 276,-570.5 176,-570.5"/>
<text text-anchor="start" x="184" y="-588.5" font-family="Helvetica,sans-Serif" font-size="10.00">softwarecontainer::</text>
<text text-anchor="middle" x="226" y="-577.5" font-family="Helvetica,sans-Serif" font-size="10.00">Netlink::linkDown</text>
</a>
</g>
</g>
<!-- Node1&#45;&gt;Node24 -->
<g id="edge29" class="edge"><title>Node1&#45;&gt;Node24</title>
<path fill="none" stroke="midnightblue" d="M55.3762,-771.201C63.7018,-730.868 85.6917,-652.201 136,-609.5 147.103,-600.076 161.558,-594.319 175.58,-590.814"/>
<polygon fill="midnightblue" stroke="midnightblue" points="51.8913,-770.787 53.4195,-781.271 58.7628,-772.122 51.8913,-770.787"/>
</g>
<!-- Node25 -->
<g id="node25" class="node"><title>Node25</title>
<g id="a_node25"><a xlink:href="classsoftwarecontainer_1_1_network_gateway_parser.html#a3139a32ac1978488b7a7f9e8474ecea4" target="_top" xlink:title="Parses NetworkGateway configuration into IPTableEntry. ">
<polygon fill="white" stroke="black" points="136,-1299 136,-1340 316,-1340 316,-1299 136,-1299"/>
<text text-anchor="start" x="144" y="-1328" font-family="Helvetica,sans-Serif" font-size="10.00">softwarecontainer::</text>
<text text-anchor="start" x="144" y="-1317" font-family="Helvetica,sans-Serif" font-size="10.00">NetworkGatewayParser</text>
<text text-anchor="middle" x="226" y="-1306" font-family="Helvetica,sans-Serif" font-size="10.00">::parseNetworkGatewayConfiguration</text>
</a>
</g>
</g>
<!-- Node1&#45;&gt;Node25 -->
<g id="edge33" class="edge"><title>Node1&#45;&gt;Node25</title>
<path fill="none" stroke="midnightblue" d="M52.0244,-821.815C56.1759,-912.25 74.5805,-1217.78 136,-1289.5 138.97,-1292.97 142.355,-1296.04 146.028,-1298.75"/>
<polygon fill="midnightblue" stroke="midnightblue" points="55.5136,-821.491 51.5772,-811.655 48.5203,-821.799 55.5136,-821.491"/>
</g>
<!-- Node26 -->
<g id="node26" class="node"><title>Node26</title>
<g id="a_node26"><a xlink:href="classsoftwarecontainer_1_1_environment_gateway.html#ad58a972633ebc7fed2d8d455900e7ed4" target="_top" xlink:title="Gateway specific parsing of config elements. ">
<polygon fill="white" stroke="black" points="168,-511 168,-552 284,-552 284,-511 168,-511"/>
<text text-anchor="start" x="176" y="-540" font-family="Helvetica,sans-Serif" font-size="10.00">softwarecontainer::</text>
<text text-anchor="start" x="176" y="-529" font-family="Helvetica,sans-Serif" font-size="10.00">EnvironmentGateway::</text>
<text text-anchor="middle" x="226" y="-518" font-family="Helvetica,sans-Serif" font-size="10.00">readConfigElement</text>
</a>
</g>
</g>
<!-- Node1&#45;&gt;Node26 -->
<g id="edge35" class="edge"><title>Node1&#45;&gt;Node26</title>
<path fill="none" stroke="midnightblue" d="M53.0374,-771.424C58.2342,-723.855 76.1549,-620.046 136,-561.5 144.742,-552.948 156,-546.832 167.551,-542.459"/>
<polygon fill="midnightblue" stroke="midnightblue" points="49.5453,-771.172 52.0408,-781.469 56.5111,-771.863 49.5453,-771.172"/>
</g>
<!-- Node27 -->
<g id="node27" class="node"><title>Node27</title>
<g id="a_node27"><a xlink:href="classsoftwarecontainer_1_1_file_gateway.html#af9355afbe0fa41df8309a55d08eda7f2" target="_top" xlink:title="Gateway specific parsing of config elements. ">
<polygon fill="white" stroke="black" points="145.5,-462.5 145.5,-492.5 306.5,-492.5 306.5,-462.5 145.5,-462.5"/>
<text text-anchor="start" x="153.5" y="-480.5" font-family="Helvetica,sans-Serif" font-size="10.00">softwarecontainer::</text>
<text text-anchor="middle" x="226" y="-469.5" font-family="Helvetica,sans-Serif" font-size="10.00">FileGateway::readConfigElement</text>
</a>
</g>
</g>
<!-- Node1&#45;&gt;Node27 -->
<g id="edge36" class="edge"><title>Node1&#45;&gt;Node27</title>
<path fill="none" stroke="midnightblue" d="M50.5089,-771.188C50.8475,-714.463 59.9214,-576.286 136,-501.5 139.424,-498.134 143.267,-495.228 147.385,-492.719"/>
<polygon fill="midnightblue" stroke="midnightblue" points="47.0095,-771.415 50.5404,-781.404 54.0095,-771.393 47.0095,-771.415"/>
</g>
<!-- Node28 -->
<g id="node28" class="node"><title>Node28</title>
<g id="a_node28"><a xlink:href="classsoftwarecontainer_1_1_d_bus_gateway_instance.html#a4cf958746ad9911ebb99b9eeb8392060" target="_top" xlink:title="Gateway specific parsing of config elements. ">
<polygon fill="white" stroke="black" points="167,-403 167,-444 285,-444 285,-403 167,-403"/>
<text text-anchor="start" x="175" y="-432" font-family="Helvetica,sans-Serif" font-size="10.00">softwarecontainer::</text>
<text text-anchor="start" x="175" y="-421" font-family="Helvetica,sans-Serif" font-size="10.00">DBusGatewayInstance</text>
<text text-anchor="middle" x="226" y="-410" font-family="Helvetica,sans-Serif" font-size="10.00">::readConfigElement</text>
</a>
</g>
</g>
<!-- Node1&#45;&gt;Node28 -->
<g id="edge37" class="edge"><title>Node1&#45;&gt;Node28</title>
<path fill="none" stroke="midnightblue" d="M54.1113,-771.139C63.3137,-700.008 92.5049,-500.726 136,-453.5 144.285,-444.505 155.354,-438.205 166.865,-433.794"/>
<polygon fill="midnightblue" stroke="midnightblue" points="50.5945,-771.051 52.8068,-781.412 57.5387,-771.933 50.5945,-771.051"/>
</g>
<!-- Node29 -->
<g id="node29" class="node"><title>Node29</title>
<g id="a_node29"><a xlink:href="classsoftwarecontainer_1_1_device_node_gateway.html#a0734b6ab0ccd33f80c3139962a55f114" target="_top" xlink:title="Gateway specific parsing of config elements. ">
<polygon fill="white" stroke="black" points="144.5,-343 144.5,-384 307.5,-384 307.5,-343 144.5,-343"/>
<text text-anchor="start" x="152.5" y="-372" font-family="Helvetica,sans-Serif" font-size="10.00">softwarecontainer::</text>
<text text-anchor="start" x="152.5" y="-361" font-family="Helvetica,sans-Serif" font-size="10.00">DeviceNodeGateway::readConfig</text>
<text text-anchor="middle" x="226" y="-350" font-family="Helvetica,sans-Serif" font-size="10.00">Element</text>
</a>
</g>
</g>
<!-- Node1&#45;&gt;Node29 -->
<g id="edge38" class="edge"><title>Node1&#45;&gt;Node29</title>
<path fill="none" stroke="midnightblue" d="M53.1077,-771.007C60.1621,-691.566 85.4037,-450.406 136,-393.5 139.142,-389.966 142.714,-386.848 146.579,-384.097"/>
<polygon fill="midnightblue" stroke="midnightblue" points="49.609,-770.842 52.2323,-781.107 56.5828,-771.447 49.609,-770.842"/>
</g>
<!-- Node30 -->
<g id="node30" class="node"><title>Node30</title>
<g id="a_node30"><a xlink:href="classsoftwarecontainer_1_1_d_bus_gateway.html#a2dafa9d879e1a694e30b17a067a9c504" target="_top" xlink:title="Sets config for both dbus session instances. ">
<polygon fill="white" stroke="black" points="374,-272.5 374,-302.5 502,-302.5 502,-272.5 374,-272.5"/>
<text text-anchor="start" x="382" y="-290.5" font-family="Helvetica,sans-Serif" font-size="10.00">softwarecontainer::</text>
<text text-anchor="middle" x="438" y="-279.5" font-family="Helvetica,sans-Serif" font-size="10.00">DBusGateway::setConfig</text>
</a>
</g>
</g>
<!-- Node1&#45;&gt;Node30 -->
<g id="edge39" class="edge"><title>Node1&#45;&gt;Node30</title>
<path fill="none" stroke="midnightblue" d="M51.1074,-771.341C52.0905,-677.373 60.9259,-349.118 136,-285.5 209.458,-223.252 333.097,-251.643 396.631,-272.447"/>
<polygon fill="midnightblue" stroke="midnightblue" points="47.6074,-771.34 51.024,-781.369 54.6072,-771.399 47.6074,-771.34"/>
</g>
<!-- Node31 -->
<g id="node31" class="node"><title>Node31</title>
<g id="a_node31"><a xlink:href="classsoftwarecontainer_1_1_gateway.html#a889e0f0ec4060e203972eefe9221f81a" target="_top" xlink:title="Configure this gateway according to the supplied JSON configuration string. ">
<polygon fill="white" stroke="black" points="174,-294.5 174,-324.5 278,-324.5 278,-294.5 174,-294.5"/>
<text text-anchor="start" x="182" y="-312.5" font-family="Helvetica,sans-Serif" font-size="10.00">softwarecontainer::</text>
<text text-anchor="middle" x="226" y="-301.5" font-family="Helvetica,sans-Serif" font-size="10.00">Gateway::setConfig</text>
</a>
</g>
</g>
<!-- Node1&#45;&gt;Node31 -->
<g id="edge40" class="edge"><title>Node1&#45;&gt;Node31</title>
<path fill="none" stroke="midnightblue" d="M52.1808,-771.18C56.7528,-684.064 76.1241,-398.488 136,-333.5 145.759,-322.907 159.657,-316.796 173.576,-313.325"/>
<polygon fill="midnightblue" stroke="midnightblue" points="48.6818,-771.072 51.6733,-781.236 55.6729,-771.425 48.6818,-771.072"/>
</g>
<!-- Node32 -->
<g id="node32" class="node"><title>Node32</title>
<g id="a_node32"><a xlink:href="classsoftwarecontainer_1_1_netlink.html#a53e313aa155f065c1d1ef6a4e20ccede" target="_top" xlink:title="Sets an IP address for a network link. ">
<polygon fill="white" stroke="black" points="176,-206.5 176,-236.5 276,-236.5 276,-206.5 176,-206.5"/>
<text text-anchor="start" x="184" y="-224.5" font-family="Helvetica,sans-Serif" font-size="10.00">softwarecontainer::</text>
<text text-anchor="middle" x="226" y="-213.5" font-family="Helvetica,sans-Serif" font-size="10.00">Netlink::setIP</text>
</a>
</g>
</g>
<!-- Node1&#45;&gt;Node32 -->
<g id="edge42" class="edge"><title>Node1&#45;&gt;Node32</title>
<path fill="none" stroke="midnightblue" d="M51.5676,-771.082C54.2225,-674.513 68.3343,-331.803 136,-251.5 146.087,-239.53 161.124,-232.318 175.98,-227.98"/>
<polygon fill="midnightblue" stroke="midnightblue" points="48.0615,-771.276 51.3035,-781.363 55.0592,-771.456 48.0615,-771.276"/>
</g>
<!-- Node33 -->
<g id="node33" class="node"><title>Node33</title>
<g id="a_node33"><a xlink:href="classsoftwarecontainer_1_1_software_container_agent.html#a24b59cd9982d4e2e51f999bedea60957" target="_top" xlink:title="shuts down a container ">
<polygon fill="white" stroke="black" points="164.5,-147 164.5,-188 287.5,-188 287.5,-147 164.5,-147"/>
<text text-anchor="start" x="172.5" y="-176" font-family="Helvetica,sans-Serif" font-size="10.00">softwarecontainer::</text>
<text text-anchor="start" x="172.5" y="-165" font-family="Helvetica,sans-Serif" font-size="10.00">SoftwareContainerAgent</text>
<text text-anchor="middle" x="226" y="-154" font-family="Helvetica,sans-Serif" font-size="10.00">::shutdownContainer</text>
</a>
</g>
</g>
<!-- Node1&#45;&gt;Node33 -->
<g id="edge43" class="edge"><title>Node1&#45;&gt;Node33</title>
<path fill="none" stroke="midnightblue" d="M51.1695,-771.243C52.3547,-668.974 61.7605,-286.845 136,-197.5 143.399,-188.596 153.539,-182.323 164.332,-177.907"/>
<polygon fill="midnightblue" stroke="midnightblue" points="47.6694,-771.245 51.0699,-781.279 54.669,-771.314 47.6694,-771.245"/>
</g>
<!-- Node34 -->
<g id="node34" class="node"><title>Node34</title>
<g id="a_node34"><a xlink:href="classsoftwarecontainer_1_1_container.html#a33340235226849d1f178e2f1d7efabe2" target="_top" xlink:title="Start the container. ">
<polygon fill="white" stroke="black" points="176,-98.5 176,-128.5 276,-128.5 276,-98.5 176,-98.5"/>
<text text-anchor="start" x="184" y="-116.5" font-family="Helvetica,sans-Serif" font-size="10.00">softwarecontainer::</text>
<text text-anchor="middle" x="226" y="-105.5" font-family="Helvetica,sans-Serif" font-size="10.00">Container::start</text>
</a>
</g>
</g>
<!-- Node1&#45;&gt;Node34 -->
<g id="edge44" class="edge"><title>Node1&#45;&gt;Node34</title>
<path fill="none" stroke="midnightblue" d="M50.6568,-771.431C49.6886,-662.869 51.3634,-234.422 136,-137.5 146,-126.049 160.834,-119.791 175.538,-116.45"/>
<polygon fill="midnightblue" stroke="midnightblue" points="47.1572,-771.495 50.7627,-781.457 54.1568,-771.421 47.1572,-771.495"/>
</g>
<!-- Node35 -->
<g id="node35" class="node"><title>Node35</title>
<g id="a_node35"><a xlink:href="classsoftwarecontainer_1_1_software_container.html#ac20c6d0cd340297ed80ae5684d9d64d3" target="_top" xlink:title="Starts the Gateways by setting the gateway configurations and activating the configured gateway...">
<polygon fill="white" stroke="black" points="142.5,-49.5 142.5,-79.5 309.5,-79.5 309.5,-49.5 142.5,-49.5"/>
<text text-anchor="start" x="150.5" y="-67.5" font-family="Helvetica,sans-Serif" font-size="10.00">softwarecontainer::</text>
<text text-anchor="middle" x="226" y="-56.5" font-family="Helvetica,sans-Serif" font-size="10.00">SoftwareContainer::startGateways</text>
</a>
</g>
</g>
<!-- Node1&#45;&gt;Node35 -->
<g id="edge45" class="edge"><title>Node1&#45;&gt;Node35</title>
<path fill="none" stroke="midnightblue" d="M52.3829,-771.364C59.187,-651.602 90.6194,-142.479 136,-89.5 139.237,-85.7214 142.995,-82.4914 147.1,-79.7324"/>
<polygon fill="midnightblue" stroke="midnightblue" points="48.8847,-771.236 51.818,-781.416 55.8736,-771.629 48.8847,-771.236"/>
</g>
<!-- Node36 -->
<g id="node36" class="node"><title>Node36</title>
<g id="a_node36"><a xlink:href="classsoftwarecontainer_1_1_d_bus_gateway.html#a003afe7ddc034ad69f0b6ecc7abe2fdc" target="_top" xlink:title="Restore system to the state prior to launching of gateway. ">
<polygon fill="white" stroke="black" points="163,-0.5 163,-30.5 289,-30.5 289,-0.5 163,-0.5"/>
<text text-anchor="start" x="171" y="-18.5" font-family="Helvetica,sans-Serif" font-size="10.00">softwarecontainer::</text>
<text text-anchor="middle" x="226" y="-7.5" font-family="Helvetica,sans-Serif" font-size="10.00">DBusGateway::teardown</text>
</a>
</g>
</g>
<!-- Node1&#45;&gt;Node36 -->
<g id="edge46" class="edge"><title>Node1&#45;&gt;Node36</title>
<path fill="none" stroke="midnightblue" d="M52.1837,-771.231C58.2573,-646.208 87.5312,-97.5261 136,-40.5 143.068,-32.1843 152.66,-26.5223 162.938,-22.6911"/>
<polygon fill="midnightblue" stroke="midnightblue" points="48.6807,-771.212 51.6973,-781.368 55.6726,-771.547 48.6807,-771.212"/>
</g>
<!-- Node5&#45;&gt;Node6 -->
<g id="edge5" class="edge"><title>Node5&#45;&gt;Node6</title>
<path fill="none" stroke="midnightblue" d="M515.158,-1152.96C533.976,-1156.29 553.643,-1159.77 570.793,-1162.8"/>
<polygon fill="midnightblue" stroke="midnightblue" points="515.57,-1149.48 505.113,-1151.19 514.351,-1156.38 515.57,-1149.48"/>
</g>
<!-- Node5&#45;&gt;Node7 -->
<g id="edge6" class="edge"><title>Node5&#45;&gt;Node7</title>
<path fill="none" stroke="midnightblue" d="M515.158,-1125.61C533.976,-1122.18 553.643,-1118.6 570.793,-1115.47"/>
<polygon fill="midnightblue" stroke="midnightblue" points="514.323,-1122.21 505.113,-1127.45 515.579,-1129.1 514.323,-1122.21"/>
</g>
<!-- Node5&#45;&gt;Node8 -->
<g id="edge7" class="edge"><title>Node5&#45;&gt;Node8</title>
<path fill="none" stroke="midnightblue" d="M513.79,-1120.59C517.304,-1119.02 520.727,-1117.32 524,-1115.5 542.958,-1104.93 543.658,-1096.78 560,-1082.5 573.68,-1070.54 589.478,-1057.4 601.428,-1047.6"/>
<polygon fill="midnightblue" stroke="midnightblue" points="512.239,-1117.45 504.316,-1124.48 514.896,-1123.92 512.239,-1117.45"/>
</g>
<!-- Node9&#45;&gt;Node10 -->
<g id="edge9" class="edge"><title>Node9&#45;&gt;Node10</title>
<path fill="none" stroke="midnightblue" d="M522.236,-936.617C534.953,-938.163 547.863,-939.732 559.952,-941.201"/>
<polygon fill="midnightblue" stroke="midnightblue" points="522.447,-933.117 512.098,-935.385 521.603,-940.066 522.447,-933.117"/>
</g>
<!-- Node12&#45;&gt;Node9 -->
<g id="edge15" class="edge"><title>Node12&#45;&gt;Node9</title>
<path fill="none" stroke="midnightblue" d="M288.407,-869.186C323.852,-882.857 367.356,-899.637 398.108,-911.499"/>
<polygon fill="midnightblue" stroke="midnightblue" points="289.23,-865.752 278.641,-865.419 286.711,-872.283 289.23,-865.752"/>
</g>
<!-- Node12&#45;&gt;Node13 -->
<g id="edge12" class="edge"><title>Node12&#45;&gt;Node13</title>
<path fill="none" stroke="midnightblue" d="M288.787,-850.208C319.436,-852.543 356.034,-855.331 385.195,-857.553"/>
<polygon fill="midnightblue" stroke="midnightblue" points="288.878,-846.704 278.641,-849.435 288.346,-853.684 288.878,-846.704"/>
</g>
<!-- Node12&#45;&gt;Node15 -->
<g id="edge14" class="edge"><title>Node12&#45;&gt;Node15</title>
<path fill="none" stroke="midnightblue" d="M288.649,-832.583C320.22,-825.968 358.132,-818.025 387.728,-811.824"/>
<polygon fill="midnightblue" stroke="midnightblue" points="287.71,-829.204 278.641,-834.68 289.146,-836.055 287.71,-829.204"/>
</g>
<!-- Node14 -->
<g id="node14" class="node"><title>Node14</title>
<g id="a_node14"><a xlink:href="classsoftwarecontainer_1_1_container.html#a6c57689a4a21b8c9342c53c7e8743203" target="_top" xlink:title="create Creates a new lxc_container and creates it with all the initialization. ">
<polygon fill="white" stroke="black" points="571,-846.5 571,-876.5 671,-876.5 671,-846.5 571,-846.5"/>
<text text-anchor="start" x="579" y="-864.5" font-family="Helvetica,sans-Serif" font-size="10.00">softwarecontainer::</text>
<text text-anchor="middle" x="621" y="-853.5" font-family="Helvetica,sans-Serif" font-size="10.00">Container::create</text>
</a>
</g>
</g>
<!-- Node13&#45;&gt;Node14 -->
<g id="edge13" class="edge"><title>Node13&#45;&gt;Node14</title>
<path fill="none" stroke="midnightblue" d="M501.134,-861.5C523.941,-861.5 549.422,-861.5 570.925,-861.5"/>
<polygon fill="midnightblue" stroke="midnightblue" points="500.867,-858 490.867,-861.5 500.867,-865 500.867,-858"/>
</g>
<!-- Node18&#45;&gt;Node5 -->
<g id="edge22" class="edge"><title>Node18&#45;&gt;Node5</title>
<path fill="none" stroke="midnightblue" d="M296.687,-1132.15C320.622,-1133.4 347.328,-1134.8 370.964,-1136.04"/>
<polygon fill="midnightblue" stroke="midnightblue" points="296.785,-1128.65 286.616,-1131.62 296.419,-1135.64 296.785,-1128.65"/>
</g>
<!-- Node18&#45;&gt;Node19 -->
<g id="edge21" class="edge"><title>Node18&#45;&gt;Node19</title>
<path fill="none" stroke="midnightblue" d="M296.569,-1115.91C326.457,-1110.5 360.683,-1104.31 387.864,-1099.39"/>
<polygon fill="midnightblue" stroke="midnightblue" points="295.833,-1112.49 286.616,-1117.71 297.079,-1119.38 295.833,-1112.49"/>
</g>
<!-- Node20&#45;&gt;Node3 -->
<g id="edge27" class="edge"><title>Node20&#45;&gt;Node3</title>
<path fill="none" stroke="midnightblue" d="M285.638,-1390.29C295.997,-1394.09 306.498,-1398.5 316,-1403.5 333.7,-1412.81 334.073,-1421.63 352,-1430.5 358.872,-1433.9 366.302,-1436.89 373.811,-1439.49"/>
<polygon fill="midnightblue" stroke="midnightblue" points="286.793,-1386.99 276.198,-1386.98 284.475,-1393.59 286.793,-1386.99"/>
</g>
<!-- Node21 -->
<g id="node21" class="node"><title>Node21</title>
<g id="a_node21"><a xlink:href="classsoftwarecontainer_1_1_device_node_gateway.html#a9e912027cad4fff3ed4d9a9581f45227" target="_top" xlink:title="Implements Gateway::activateGateway. ">
<polygon fill="white" stroke="black" points="363,-1380 363,-1421 513,-1421 513,-1380 363,-1380"/>
<text text-anchor="start" x="371" y="-1409" font-family="Helvetica,sans-Serif" font-size="10.00">softwarecontainer::</text>
<text text-anchor="start" x="371" y="-1398" font-family="Helvetica,sans-Serif" font-size="10.00">DeviceNodeGateway::activate</text>
<text text-anchor="middle" x="438" y="-1387" font-family="Helvetica,sans-Serif" font-size="10.00">Gateway</text>
</a>
</g>
</g>
<!-- Node20&#45;&gt;Node21 -->
<g id="edge25" class="edge"><title>Node20&#45;&gt;Node21</title>
<path fill="none" stroke="midnightblue" d="M286.197,-1381.11C310.045,-1384.18 337.813,-1387.75 362.975,-1390.98"/>
<polygon fill="midnightblue" stroke="midnightblue" points="286.6,-1377.63 276.236,-1379.83 285.708,-1384.58 286.6,-1377.63"/>
</g>
<!-- Node22 -->
<g id="node22" class="node"><title>Node22</title>
<g id="a_node22"><a xlink:href="classsoftwarecontainer_1_1_network_gateway.html#ad67674d2ce8d329188446e71c14e3a88" target="_top" xlink:title="Gateway specific parsing of config elements. ">
<polygon fill="white" stroke="black" points="365,-1272 365,-1313 511,-1313 511,-1272 365,-1272"/>
<text text-anchor="start" x="373" y="-1301" font-family="Helvetica,sans-Serif" font-size="10.00">softwarecontainer::</text>
<text text-anchor="start" x="373" y="-1290" font-family="Helvetica,sans-Serif" font-size="10.00">NetworkGateway::readConfig</text>
<text text-anchor="middle" x="438" y="-1279" font-family="Helvetica,sans-Serif" font-size="10.00">Element</text>
</a>
</g>
</g>
<!-- Node20&#45;&gt;Node22 -->
<g id="edge26" class="edge"><title>Node20&#45;&gt;Node22</title>
<path fill="none" stroke="midnightblue" d="M286.004,-1360.99C296.254,-1357.87 306.624,-1354.07 316,-1349.5 333.979,-1340.74 334.367,-1331.94 352,-1322.5 358.347,-1319.1 365.157,-1315.96 372.06,-1313.09"/>
<polygon fill="midnightblue" stroke="midnightblue" points="284.9,-1357.67 276.249,-1363.78 286.826,-1364.4 284.9,-1357.67"/>
</g>
<!-- Node23 -->
<g id="node23" class="node"><title>Node23</title>
<g id="a_node23"><a xlink:href="classsoftwarecontainer_1_1_pulse_gateway.html#a0cd0a00ca7590d7c9c3c961e20de56df" target="_top" xlink:title="Implements Gateway::activateGateway. ">
<polygon fill="white" stroke="black" points="358,-1331.5 358,-1361.5 518,-1361.5 518,-1331.5 358,-1331.5"/>
<text text-anchor="start" x="366" y="-1349.5" font-family="Helvetica,sans-Serif" font-size="10.00">softwarecontainer::</text>
<text text-anchor="middle" x="438" y="-1338.5" font-family="Helvetica,sans-Serif" font-size="10.00">PulseGateway::activateGateway</text>
</a>
</g>
</g>
<!-- Node20&#45;&gt;Node23 -->
<g id="edge28" class="edge"><title>Node20&#45;&gt;Node23</title>
<path fill="none" stroke="midnightblue" d="M286.173,-1365.89C308.363,-1363.04 333.95,-1359.75 357.673,-1356.7"/>
<polygon fill="midnightblue" stroke="midnightblue" points="285.708,-1362.42 276.236,-1367.17 286.6,-1369.37 285.708,-1362.42"/>
</g>
<!-- Node25&#45;&gt;Node22 -->
<g id="edge34" class="edge"><title>Node25&#45;&gt;Node22</title>
<path fill="none" stroke="midnightblue" d="M326.056,-1306.76C339.179,-1305.08 352.426,-1303.37 364.973,-1301.76"/>
<polygon fill="midnightblue" stroke="midnightblue" points="325.531,-1303.3 316.059,-1308.05 326.424,-1310.25 325.531,-1303.3"/>
</g>
<!-- Node31&#45;&gt;Node30 -->
<g id="edge41" class="edge"><title>Node31&#45;&gt;Node30</title>
<path fill="none" stroke="midnightblue" d="M288.148,-303.094C315.002,-300.281 346.521,-296.979 373.625,-294.139"/>
<polygon fill="midnightblue" stroke="midnightblue" points="287.684,-299.623 278.103,-304.146 288.414,-306.585 287.684,-299.623"/>
</g>
</g>
</svg>
