<?xml version="1.0" encoding="UTF-8" standalone="no"?>
<!DOCTYPE svg PUBLIC "-//W3C//DTD SVG 1.1//EN"
 "http://www.w3.org/Graphics/SVG/1.1/DTD/svg11.dtd">
<!-- Generated by graphviz version 2.38.0 (20140413.2041)
 -->
<!-- Title: softwarecontainer::existsInFileSystem Pages: 1 -->
<svg width="635pt" height="138pt"
 viewBox="0.00 0.00 635.00 137.50" xmlns="http://www.w3.org/2000/svg" xmlns:xlink="http://www.w3.org/1999/xlink">
<g id="graph0" class="graph" transform="scale(1 1) rotate(0) translate(4 133.5)">
<title>softwarecontainer::existsInFileSystem</title>
<polygon fill="white" stroke="none" points="-4,4 -4,-133.5 631,-133.5 631,4 -4,4"/>
<!-- Node1 -->
<g id="node1" class="node"><title>Node1</title>
<polygon fill="#bfbfbf" stroke="black" points="0,-44.5 0,-74.5 101,-74.5 101,-44.5 0,-44.5"/>
<text text-anchor="start" x="8" y="-62.5" font-family="Helvetica,sans-Serif" font-size="10.00">softwarecontainer::</text>
<text text-anchor="middle" x="50.5" y="-51.5" font-family="Helvetica,sans-Serif" font-size="10.00">existsInFileSystem</text>
</g>
<!-- Node2 -->
<g id="node2" class="node"><title>Node2</title>
<g id="a_node2"><a xlink:href="classsoftwarecontainer_1_1_file_toolkit_with_undo.html#a8f6b5cda214c9e412ab73313bc95d785" target="_top" xlink:title="bindMount Bind mount a src directory to another position dst. ">
<polygon fill="white" stroke="black" points="317.5,-88 317.5,-129 422.5,-129 422.5,-88 317.5,-88"/>
<text text-anchor="start" x="325.5" y="-117" font-family="Helvetica,sans-Serif" font-size="10.00">softwarecontainer::</text>
<text text-anchor="start" x="325.5" y="-106" font-family="Helvetica,sans-Serif" font-size="10.00">FileToolkitWithUndo</text>
<text text-anchor="middle" x="370" y="-95" font-family="Helvetica,sans-Serif" font-size="10.00">::bindMount</text>
</a>
</g>
</g>
<!-- Node1&#45;&gt;Node2 -->
<g id="edge1" class="edge"><title>Node1&#45;&gt;Node2</title>
<path fill="none" stroke="midnightblue" d="M111.251,-69.3821C119.888,-70.7819 128.67,-72.1897 137,-73.5 198.968,-83.2473 270.336,-93.9331 317.37,-100.901"/>
<polygon fill="midnightblue" stroke="midnightblue" points="111.648,-65.9006 101.215,-67.7489 110.523,-72.8097 111.648,-65.9006"/>
</g>
<!-- Node3 -->
<g id="node3" class="node"><title>Node3</title>
<g id="a_node3"><a xlink:href="classsoftwarecontainer_1_1_container.html#ae5445d6a0c4b8b006ed38b3c01bb870c" target="_top" xlink:title="Tries to bind mount a path from host to container. ">
<polygon fill="white" stroke="black" points="467,-44.5 467,-74.5 627,-74.5 627,-44.5 467,-44.5"/>
<text text-anchor="start" x="475" y="-62.5" font-family="Helvetica,sans-Serif" font-size="10.00">softwarecontainer::</text>
<text text-anchor="middle" x="547" y="-51.5" font-family="Helvetica,sans-Serif" font-size="10.00">Container::bindMountInContainer</text>
</a>
</g>
</g>
<!-- Node1&#45;&gt;Node3 -->
<g id="edge3" class="edge"><title>Node1&#45;&gt;Node3</title>
<path fill="none" stroke="midnightblue" d="M111.374,-59.5C200.381,-59.5 367.716,-59.5 466.77,-59.5"/>
<polygon fill="midnightblue" stroke="midnightblue" points="111.179,-56.0001 101.179,-59.5 111.179,-63.0001 111.179,-56.0001"/>
</g>
<!-- Node4 -->
<g id="node4" class="node"><title>Node4</title>
<g id="a_node4"><a xlink:href="namespacesoftwarecontainer.html#aee26a680bb2961627889d39c9f874b2c" target="_top" xlink:title="waitForProcessTermination Waits for a process to terminate and then returns the status of the process...">
<polygon fill="white" stroke="black" points="137,-0.5 137,-30.5 273,-30.5 273,-0.5 137,-0.5"/>
<text text-anchor="start" x="145" y="-18.5" font-family="Helvetica,sans-Serif" font-size="10.00">softwarecontainer::</text>
<text text-anchor="middle" x="205" y="-7.5" font-family="Helvetica,sans-Serif" font-size="10.00">waitForProcessTermination</text>
</a>
</g>
</g>
<!-- Node1&#45;&gt;Node4 -->
<g id="edge4" class="edge"><title>Node1&#45;&gt;Node4</title>
<path fill="none" stroke="midnightblue" d="M110.728,-42.4112C124.291,-38.498 138.611,-34.3663 151.851,-30.5464"/>
<polygon fill="midnightblue" stroke="midnightblue" points="109.65,-39.0794 101.012,-45.2145 111.591,-45.8051 109.65,-39.0794"/>
</g>
<!-- Node2&#45;&gt;Node3 -->
<g id="edge2" class="edge"><title>Node2&#45;&gt;Node3</title>
<path fill="none" stroke="midnightblue" d="M432.297,-91.3368C451.878,-85.8541 473.388,-79.8314 492.379,-74.5137"/>
<polygon fill="midnightblue" stroke="midnightblue" points="431.245,-87.9967 422.559,-94.0634 433.133,-94.7374 431.245,-87.9967"/>
</g>
<!-- Node5 -->
<g id="node5" class="node"><title>Node5</title>
<g id="a_node5"><a xlink:href="classsoftwarecontainer_1_1_container.html#a480d9a7d3a2c0ee9d1756a2bdfc29f59" target="_top" xlink:title="synchronous version of execute ">
<polygon fill="white" stroke="black" points="309,-0.5 309,-30.5 431,-30.5 431,-0.5 309,-0.5"/>
<text text-anchor="start" x="317" y="-18.5" font-family="Helvetica,sans-Serif" font-size="10.00">softwarecontainer::</text>
<text text-anchor="middle" x="370" y="-7.5" font-family="Helvetica,sans-Serif" font-size="10.00">Container::executeSync</text>
</a>
</g>
</g>
<!-- Node4&#45;&gt;Node5 -->
<g id="edge5" class="edge"><title>Node4&#45;&gt;Node5</title>
<path fill="none" stroke="midnightblue" d="M283.304,-15.5C291.921,-15.5 300.601,-15.5 308.958,-15.5"/>
<polygon fill="midnightblue" stroke="midnightblue" points="283.239,-12.0001 273.239,-15.5 283.239,-19.0001 283.239,-12.0001"/>
</g>
<!-- Node5&#45;&gt;Node3 -->
<g id="edge6" class="edge"><title>Node5&#45;&gt;Node3</title>
<path fill="none" stroke="midnightblue" d="M440.544,-32.9855C455.665,-36.7873 471.534,-40.777 486.237,-44.4738"/>
<polygon fill="midnightblue" stroke="midnightblue" points="441.287,-29.5634 430.736,-30.5192 439.58,-36.3521 441.287,-29.5634"/>
</g>
</g>
</svg>
