<?xml version="1.0" encoding="UTF-8" standalone="no"?>
<!DOCTYPE svg PUBLIC "-//W3C//DTD SVG 1.1//EN"
 "http://www.w3.org/Graphics/SVG/1.1/DTD/svg11.dtd">
<!-- Generated by graphviz version 2.38.0 (20140413.2041)
 -->
<!-- Title: libsoftwarecontainer/include/softwarecontainerabstractinterface.h Pages: 1 -->
<svg width="582pt" height="375pt"
 viewBox="0.00 0.00 582.00 375.00" xmlns="http://www.w3.org/2000/svg" xmlns:xlink="http://www.w3.org/1999/xlink">
<g id="graph0" class="graph" transform="scale(1 1) rotate(0) translate(4 371)">
<title>libsoftwarecontainer/include/softwarecontainerabstractinterface.h</title>
<polygon fill="white" stroke="none" points="-4,4 -4,-371 578,-371 578,4 -4,4"/>
<!-- Node1 -->
<g id="node1" class="node"><title>Node1</title>
<polygon fill="#bfbfbf" stroke="black" points="194,-336.5 194,-366.5 406,-366.5 406,-336.5 194,-336.5"/>
<text text-anchor="start" x="202" y="-354.5" font-family="Helvetica,sans-Serif" font-size="10.00">libsoftwarecontainer</text>
<text text-anchor="middle" x="300" y="-343.5" font-family="Helvetica,sans-Serif" font-size="10.00">/include/softwarecontainerabstractinterface.h</text>
</g>
<!-- Node2 -->
<g id="node2" class="node"><title>Node2</title>
<g id="a_node2"><a xlink:href="commandjob_8h_source.html" target="_top" xlink:title="commandjob.h">
<polygon fill="white" stroke="black" points="223,-280.5 223,-299.5 303,-299.5 303,-280.5 223,-280.5"/>
<text text-anchor="middle" x="263" y="-287.5" font-family="Helvetica,sans-Serif" font-size="10.00">commandjob.h</text>
</a>
</g>
</g>
<!-- Node1&#45;&gt;Node2 -->
<g id="edge1" class="edge"><title>Node1&#45;&gt;Node2</title>
<path fill="none" stroke="midnightblue" d="M291.232,-336.399C286.021,-328.021 279.371,-317.327 273.834,-308.423"/>
<polygon fill="midnightblue" stroke="midnightblue" points="276.637,-306.302 268.384,-299.658 270.692,-309.998 276.637,-306.302"/>
</g>
<!-- Node11 -->
<g id="node11" class="node"><title>Node11</title>
<g id="a_node11"><a xlink:href="gatewayconfig_8h_source.html" target="_top" xlink:title="gatewayconfig.h">
<polygon fill="white" stroke="black" points="302,-168.5 302,-187.5 390,-187.5 390,-168.5 302,-168.5"/>
<text text-anchor="middle" x="346" y="-175.5" font-family="Helvetica,sans-Serif" font-size="10.00">gatewayconfig.h</text>
</a>
</g>
</g>
<!-- Node1&#45;&gt;Node11 -->
<g id="edge11" class="edge"><title>Node1&#45;&gt;Node11</title>
<path fill="none" stroke="midnightblue" d="M303.764,-336.465C312.051,-305.57 331.867,-231.69 341.105,-197.251"/>
<polygon fill="midnightblue" stroke="midnightblue" points="344.494,-198.125 343.704,-187.56 337.733,-196.312 344.494,-198.125"/>
</g>
<!-- Node3 -->
<g id="node3" class="node"><title>Node3</title>
<g id="a_node3"><a xlink:href="jobabstract_8h_source.html" target="_top" xlink:title="jobabstract.h">
<polygon fill="white" stroke="black" points="211.5,-224.5 211.5,-243.5 284.5,-243.5 284.5,-224.5 211.5,-224.5"/>
<text text-anchor="middle" x="248" y="-231.5" font-family="Helvetica,sans-Serif" font-size="10.00">jobabstract.h</text>
</a>
</g>
</g>
<!-- Node2&#45;&gt;Node3 -->
<g id="edge2" class="edge"><title>Node2&#45;&gt;Node3</title>
<path fill="none" stroke="midnightblue" d="M260.523,-280.083C258.514,-272.849 255.614,-262.409 253.11,-253.397"/>
<polygon fill="midnightblue" stroke="midnightblue" points="256.48,-252.449 250.431,-243.751 249.735,-254.323 256.48,-252.449"/>
</g>
<!-- Node4 -->
<g id="node4" class="node"><title>Node4</title>
<g id="a_node4"><a xlink:href="softwarecontainer-common_8h_source.html" target="_top" xlink:title="softwarecontainer&#45;common.h">
<polygon fill="white" stroke="black" points="136.5,-112.5 136.5,-131.5 279.5,-131.5 279.5,-112.5 136.5,-112.5"/>
<text text-anchor="middle" x="208" y="-119.5" font-family="Helvetica,sans-Serif" font-size="10.00">softwarecontainer&#45;common.h</text>
</a>
</g>
</g>
<!-- Node3&#45;&gt;Node4 -->
<g id="edge3" class="edge"><title>Node3&#45;&gt;Node4</title>
<path fill="none" stroke="midnightblue" d="M234.936,-224.436C224.086,-216.471 209.427,-203.515 203,-188 196.909,-173.296 199.019,-155.132 202.157,-141.747"/>
<polygon fill="midnightblue" stroke="midnightblue" points="205.613,-142.378 204.878,-131.808 198.862,-140.529 205.613,-142.378"/>
</g>
<!-- Node10 -->
<g id="node10" class="node"><title>Node10</title>
<g id="a_node10"><a xlink:href="executable_8h_source.html" target="_top" xlink:title="executable.h">
<polygon fill="white" stroke="black" points="212,-168.5 212,-187.5 284,-187.5 284,-168.5 212,-168.5"/>
<text text-anchor="middle" x="248" y="-175.5" font-family="Helvetica,sans-Serif" font-size="10.00">executable.h</text>
</a>
</g>
</g>
<!-- Node3&#45;&gt;Node10 -->
<g id="edge9" class="edge"><title>Node3&#45;&gt;Node10</title>
<path fill="none" stroke="midnightblue" d="M248,-224.083C248,-217.006 248,-206.861 248,-197.986"/>
<polygon fill="midnightblue" stroke="midnightblue" points="251.5,-197.751 248,-187.751 244.5,-197.751 251.5,-197.751"/>
</g>
<!-- Node5 -->
<g id="node5" class="node"><title>Node5</title>
<g id="a_node5"><a xlink:href="softwarecontainer-log_8h_source.html" target="_top" xlink:title="softwarecontainer&#45;log.h">
<polygon fill="white" stroke="black" points="0,-56.5 0,-75.5 118,-75.5 118,-56.5 0,-56.5"/>
<text text-anchor="middle" x="59" y="-63.5" font-family="Helvetica,sans-Serif" font-size="10.00">softwarecontainer&#45;log.h</text>
</a>
</g>
</g>
<!-- Node4&#45;&gt;Node5 -->
<g id="edge4" class="edge"><title>Node4&#45;&gt;Node5</title>
<path fill="none" stroke="midnightblue" d="M184.391,-112.444C159.542,-103.438 120.226,-89.1891 92.2464,-79.049"/>
<polygon fill="midnightblue" stroke="midnightblue" points="93.0932,-75.6332 82.499,-75.5164 90.7081,-82.2144 93.0932,-75.6332"/>
</g>
<!-- Node7 -->
<g id="node7" class="node"><title>Node7</title>
<polygon fill="white" stroke="#bfbfbf" points="290.5,-56.5 290.5,-75.5 325.5,-75.5 325.5,-56.5 290.5,-56.5"/>
<text text-anchor="middle" x="308" y="-63.5" font-family="Helvetica,sans-Serif" font-size="10.00">map</text>
</g>
<!-- Node4&#45;&gt;Node7 -->
<g id="edge6" class="edge"><title>Node4&#45;&gt;Node7</title>
<path fill="none" stroke="midnightblue" d="M224.067,-112.324C239.958,-103.743 264.507,-90.486 282.958,-80.5224"/>
<polygon fill="midnightblue" stroke="midnightblue" points="284.837,-83.4857 291.973,-75.6545 281.511,-77.3264 284.837,-83.4857"/>
</g>
<!-- Node8 -->
<g id="node8" class="node"><title>Node8</title>
<polygon fill="white" stroke="#bfbfbf" points="136,-56.5 136,-75.5 192,-75.5 192,-56.5 136,-56.5"/>
<text text-anchor="middle" x="164" y="-63.5" font-family="Helvetica,sans-Serif" font-size="10.00">glibmm.h</text>
</g>
<!-- Node4&#45;&gt;Node8 -->
<g id="edge7" class="edge"><title>Node4&#45;&gt;Node8</title>
<path fill="none" stroke="midnightblue" d="M200.734,-112.083C194.455,-104.377 185.212,-93.0333 177.569,-83.6531"/>
<polygon fill="midnightblue" stroke="midnightblue" points="180.161,-81.2926 171.131,-75.7511 174.734,-85.7143 180.161,-81.2926"/>
</g>
<!-- Node9 -->
<g id="node9" class="node"><title>Node9</title>
<polygon fill="white" stroke="#bfbfbf" points="210,-56.5 210,-75.5 272,-75.5 272,-56.5 210,-56.5"/>
<text text-anchor="middle" x="241" y="-63.5" font-family="Helvetica,sans-Serif" font-size="10.00">sys/wait.h</text>
</g>
<!-- Node4&#45;&gt;Node9 -->
<g id="edge8" class="edge"><title>Node4&#45;&gt;Node9</title>
<path fill="none" stroke="midnightblue" d="M213.449,-112.083C218.014,-104.613 224.668,-93.7244 230.293,-84.5199"/>
<polygon fill="midnightblue" stroke="midnightblue" points="233.424,-86.109 235.652,-75.7511 227.451,-82.4588 233.424,-86.109"/>
</g>
<!-- Node6 -->
<g id="node6" class="node"><title>Node6</title>
<polygon fill="white" stroke="#bfbfbf" points="25,-0.5 25,-19.5 93,-19.5 93,-0.5 25,-0.5"/>
<text text-anchor="middle" x="59" y="-7.5" font-family="Helvetica,sans-Serif" font-size="10.00">ivi&#45;logging.h</text>
</g>
<!-- Node5&#45;&gt;Node6 -->
<g id="edge5" class="edge"><title>Node5&#45;&gt;Node6</title>
<path fill="none" stroke="midnightblue" d="M59,-56.083C59,-49.0059 59,-38.8611 59,-29.9865"/>
<polygon fill="midnightblue" stroke="midnightblue" points="62.5001,-29.751 59,-19.7511 55.5001,-29.7511 62.5001,-29.751"/>
</g>
<!-- Node10&#45;&gt;Node4 -->
<g id="edge10" class="edge"><title>Node10&#45;&gt;Node4</title>
<path fill="none" stroke="midnightblue" d="M241.395,-168.083C235.745,-160.455 227.455,-149.264 220.549,-139.941"/>
<polygon fill="midnightblue" stroke="midnightblue" points="223.247,-137.703 214.482,-131.751 217.622,-141.87 223.247,-137.703"/>
</g>
<!-- Node11&#45;&gt;Node4 -->
<g id="edge15" class="edge"><title>Node11&#45;&gt;Node4</title>
<path fill="none" stroke="midnightblue" d="M324.133,-168.444C301.221,-159.478 265.025,-145.314 239.134,-135.183"/>
<polygon fill="midnightblue" stroke="midnightblue" points="240.352,-131.901 229.764,-131.516 237.801,-138.42 240.352,-131.901"/>
</g>
<!-- Node11&#45;&gt;Node7 -->
<g id="edge13" class="edge"><title>Node11&#45;&gt;Node7</title>
<path fill="none" stroke="midnightblue" d="M343.018,-168.368C336.858,-150.537 322.611,-109.295 314.312,-85.2717"/>
<polygon fill="midnightblue" stroke="midnightblue" points="317.541,-83.9005 310.968,-75.5914 310.925,-86.1862 317.541,-83.9005"/>
</g>
<!-- Node12 -->
<g id="node12" class="node"><title>Node12</title>
<polygon fill="white" stroke="#bfbfbf" points="383.5,-56.5 383.5,-75.5 424.5,-75.5 424.5,-56.5 383.5,-56.5"/>
<text text-anchor="middle" x="404" y="-63.5" font-family="Helvetica,sans-Serif" font-size="10.00">string</text>
</g>
<!-- Node11&#45;&gt;Node12 -->
<g id="edge12" class="edge"><title>Node11&#45;&gt;Node12</title>
<path fill="none" stroke="midnightblue" d="M347.351,-168.128C349.591,-155.167 354.868,-130.58 365,-112 370.791,-101.381 379.435,-91.0685 387.114,-83.0009"/>
<polygon fill="midnightblue" stroke="midnightblue" points="389.755,-85.3092 394.331,-75.7534 384.795,-80.37 389.755,-85.3092"/>
</g>
<!-- Node13 -->
<g id="node13" class="node"><title>Node13</title>
<polygon fill="white" stroke="#bfbfbf" points="374.5,-112.5 374.5,-131.5 433.5,-131.5 433.5,-112.5 374.5,-112.5"/>
<text text-anchor="middle" x="404" y="-119.5" font-family="Helvetica,sans-Serif" font-size="10.00">jansson.h</text>
</g>
<!-- Node11&#45;&gt;Node13 -->
<g id="edge14" class="edge"><title>Node11&#45;&gt;Node13</title>
<path fill="none" stroke="midnightblue" d="M355.319,-168.324C363.893,-160.341 376.812,-148.313 387.188,-138.653"/>
<polygon fill="midnightblue" stroke="midnightblue" points="389.578,-141.21 394.512,-131.834 384.808,-136.086 389.578,-141.21"/>
</g>
<!-- Node14 -->
<g id="node14" class="node"><title>Node14</title>
<g id="a_node14"><a xlink:href="softwarecontainererror_8h_source.html" target="_top" xlink:title="softwarecontainererror.h">
<polygon fill="white" stroke="black" points="452,-112.5 452,-131.5 574,-131.5 574,-112.5 452,-112.5"/>
<text text-anchor="middle" x="513" y="-119.5" font-family="Helvetica,sans-Serif" font-size="10.00">softwarecontainererror.h</text>
</a>
</g>
</g>
<!-- Node11&#45;&gt;Node14 -->
<g id="edge16" class="edge"><title>Node11&#45;&gt;Node14</title>
<path fill="none" stroke="midnightblue" d="M372.462,-168.444C400.678,-159.32 445.54,-144.813 476.968,-134.651"/>
<polygon fill="midnightblue" stroke="midnightblue" points="478.224,-137.923 486.662,-131.516 476.07,-131.263 478.224,-137.923"/>
</g>
<!-- Node14&#45;&gt;Node12 -->
<g id="edge18" class="edge"><title>Node14&#45;&gt;Node12</title>
<path fill="none" stroke="midnightblue" d="M495.487,-112.324C477.928,-103.625 450.669,-90.1202 430.469,-80.113"/>
<polygon fill="midnightblue" stroke="midnightblue" points="431.984,-76.9575 421.469,-75.6545 428.876,-83.23 431.984,-76.9575"/>
</g>
<!-- Node15 -->
<g id="node15" class="node"><title>Node15</title>
<polygon fill="white" stroke="#bfbfbf" points="483.5,-56.5 483.5,-75.5 542.5,-75.5 542.5,-56.5 483.5,-56.5"/>
<text text-anchor="middle" x="513" y="-63.5" font-family="Helvetica,sans-Serif" font-size="10.00">exception</text>
</g>
<!-- Node14&#45;&gt;Node15 -->
<g id="edge17" class="edge"><title>Node14&#45;&gt;Node15</title>
<path fill="none" stroke="midnightblue" d="M513,-112.083C513,-105.006 513,-94.8611 513,-85.9865"/>
<polygon fill="midnightblue" stroke="midnightblue" points="516.5,-85.751 513,-75.7511 509.5,-85.7511 516.5,-85.751"/>
</g>
</g>
</svg>
