<?xml version="1.0" encoding="UTF-8" standalone="no"?>
<!DOCTYPE svg PUBLIC "-//W3C//DTD SVG 1.1//EN"
 "http://www.w3.org/Graphics/SVG/1.1/DTD/svg11.dtd">
<!-- Generated by graphviz version 2.38.0 (20140413.2041)
 -->
<!-- Title: agent/src/softwarecontainerfactory.h Pages: 1 -->
<svg width="1216pt" height="476pt"
 viewBox="0.00 0.00 1216.00 476.00" xmlns="http://www.w3.org/2000/svg" xmlns:xlink="http://www.w3.org/1999/xlink">
<g id="graph0" class="graph" transform="scale(1 1) rotate(0) translate(4 472)">
<title>agent/src/softwarecontainerfactory.h</title>
<polygon fill="white" stroke="none" points="-4,4 -4,-472 1212,-472 1212,4 -4,4"/>
<!-- Node1 -->
<g id="node1" class="node"><title>Node1</title>
<polygon fill="#bfbfbf" stroke="black" points="651,-448.5 651,-467.5 827,-467.5 827,-448.5 651,-448.5"/>
<text text-anchor="middle" x="739" y="-455.5" font-family="Helvetica,sans-Serif" font-size="10.00">agent/src/softwarecontainerfactory.h</text>
</g>
<!-- Node2 -->
<g id="node2" class="node"><title>Node2</title>
<g id="a_node2"><a xlink:href="softwarecontainer_8h_source.html" target="_top" xlink:title="softwarecontainer.h">
<polygon fill="white" stroke="black" points="688,-392.5 688,-411.5 790,-411.5 790,-392.5 688,-392.5"/>
<text text-anchor="middle" x="739" y="-399.5" font-family="Helvetica,sans-Serif" font-size="10.00">softwarecontainer.h</text>
</a>
</g>
</g>
<!-- Node1&#45;&gt;Node2 -->
<g id="edge1" class="edge"><title>Node1&#45;&gt;Node2</title>
<path fill="none" stroke="midnightblue" d="M739,-448.083C739,-441.006 739,-430.861 739,-421.986"/>
<polygon fill="midnightblue" stroke="midnightblue" points="742.5,-421.751 739,-411.751 735.5,-421.751 742.5,-421.751"/>
</g>
<!-- Node10 -->
<g id="node10" class="node"><title>Node10</title>
<g id="a_node10"><a xlink:href="softwarecontainer-common_8h_source.html" target="_top" xlink:title="softwarecontainer&#45;common.h">
<polygon fill="white" stroke="black" points="912.5,-112.5 912.5,-131.5 1055.5,-131.5 1055.5,-112.5 912.5,-112.5"/>
<text text-anchor="middle" x="984" y="-119.5" font-family="Helvetica,sans-Serif" font-size="10.00">softwarecontainer&#45;common.h</text>
</a>
</g>
</g>
<!-- Node1&#45;&gt;Node10 -->
<g id="edge50" class="edge"><title>Node1&#45;&gt;Node10</title>
<path fill="none" stroke="midnightblue" d="M827.272,-455.492C912.334,-449.495 1039.89,-427.939 1122,-356 1166.37,-317.123 1170.5,-271.856 1136,-224 1115.77,-195.942 1096.07,-206.742 1067,-188 1043.16,-172.63 1017.76,-152.047 1001.43,-138.196"/>
<polygon fill="midnightblue" stroke="midnightblue" points="1003.65,-135.482 993.778,-131.629 999.091,-140.796 1003.65,-135.482"/>
</g>
<!-- Node20 -->
<g id="node20" class="node"><title>Node20</title>
<g id="a_node20"><a xlink:href="softwarecontainerconfig_8h_source.html" target="_top" xlink:title="config/softwarecontainerconfig.h">
<polygon fill="white" stroke="black" points="0,-336.5 0,-355.5 158,-355.5 158,-336.5 0,-336.5"/>
<text text-anchor="middle" x="79" y="-343.5" font-family="Helvetica,sans-Serif" font-size="10.00">config/softwarecontainerconfig.h</text>
</a>
</g>
</g>
<!-- Node1&#45;&gt;Node20 -->
<g id="edge49" class="edge"><title>Node1&#45;&gt;Node20</title>
<path fill="none" stroke="midnightblue" d="M687.76,-448.46C567.889,-428.482 269.579,-378.763 140.329,-357.222"/>
<polygon fill="midnightblue" stroke="midnightblue" points="140.647,-353.726 130.207,-355.535 139.496,-360.631 140.647,-353.726"/>
</g>
<!-- Node3 -->
<g id="node3" class="node"><title>Node3</title>
<g id="a_node3"><a xlink:href="observableproperty_8h_source.html" target="_top" xlink:title="observableproperty.h">
<polygon fill="white" stroke="black" points="944.5,-336.5 944.5,-355.5 1051.5,-355.5 1051.5,-336.5 944.5,-336.5"/>
<text text-anchor="middle" x="998" y="-343.5" font-family="Helvetica,sans-Serif" font-size="10.00">observableproperty.h</text>
</a>
</g>
</g>
<!-- Node2&#45;&gt;Node3 -->
<g id="edge2" class="edge"><title>Node2&#45;&gt;Node3</title>
<path fill="none" stroke="midnightblue" d="M780.039,-392.444C825.316,-383.004 898.227,-367.802 947.106,-357.611"/>
<polygon fill="midnightblue" stroke="midnightblue" points="948.078,-360.984 957.153,-355.516 946.649,-354.131 948.078,-360.984"/>
</g>
<!-- Node5 -->
<g id="node5" class="node"><title>Node5</title>
<polygon fill="white" stroke="#bfbfbf" points="976,-280.5 976,-299.5 1020,-299.5 1020,-280.5 976,-280.5"/>
<text text-anchor="middle" x="998" y="-287.5" font-family="Helvetica,sans-Serif" font-size="10.00">vector</text>
</g>
<!-- Node2&#45;&gt;Node5 -->
<g id="edge40" class="edge"><title>Node2&#45;&gt;Node5</title>
<path fill="none" stroke="midnightblue" d="M790.173,-401.604C871.766,-401.352 1025.66,-395.492 1060,-356 1076.08,-337.508 1049.06,-317.226 1025.79,-304.32"/>
<polygon fill="midnightblue" stroke="midnightblue" points="1027.31,-301.165 1016.83,-299.592 1024.04,-307.355 1027.31,-301.165"/>
</g>
<!-- Node6 -->
<g id="node6" class="node"><title>Node6</title>
<g id="a_node6"><a xlink:href="gatewayconfig_8h_source.html" target="_top" xlink:title="gatewayconfig.h">
<polygon fill="white" stroke="black" points="285,-280.5 285,-299.5 373,-299.5 373,-280.5 285,-280.5"/>
<text text-anchor="middle" x="329" y="-287.5" font-family="Helvetica,sans-Serif" font-size="10.00">gatewayconfig.h</text>
</a>
</g>
</g>
<!-- Node2&#45;&gt;Node6 -->
<g id="edge5" class="edge"><title>Node2&#45;&gt;Node6</title>
<path fill="none" stroke="midnightblue" d="M687.83,-400.178C567.138,-397.712 272.594,-388.4 243,-356 223.211,-334.335 259.917,-314.827 291.341,-302.96"/>
<polygon fill="midnightblue" stroke="midnightblue" points="292.636,-306.214 300.856,-299.528 290.261,-299.629 292.636,-306.214"/>
</g>
<!-- Node13 -->
<g id="node13" class="node"><title>Node13</title>
<polygon fill="white" stroke="#bfbfbf" points="564,-56.5 564,-75.5 620,-75.5 620,-56.5 564,-56.5"/>
<text text-anchor="middle" x="592" y="-63.5" font-family="Helvetica,sans-Serif" font-size="10.00">glibmm.h</text>
</g>
<!-- Node2&#45;&gt;Node13 -->
<g id="edge39" class="edge"><title>Node2&#45;&gt;Node13</title>
<path fill="none" stroke="midnightblue" d="M687.894,-396.556C627.464,-390.406 531.48,-377.551 503,-356 480.81,-339.209 481.393,-327.082 475,-300 454.213,-211.944 537.214,-119.349 574.602,-82.9859"/>
<polygon fill="midnightblue" stroke="midnightblue" points="577.402,-85.1535 582.238,-75.7266 572.579,-80.0803 577.402,-85.1535"/>
</g>
<!-- Node14 -->
<g id="node14" class="node"><title>Node14</title>
<polygon fill="white" stroke="#bfbfbf" points="1146,-56.5 1146,-75.5 1208,-75.5 1208,-56.5 1146,-56.5"/>
<text text-anchor="middle" x="1177" y="-63.5" font-family="Helvetica,sans-Serif" font-size="10.00">sys/wait.h</text>
</g>
<!-- Node2&#45;&gt;Node14 -->
<g id="edge42" class="edge"><title>Node2&#45;&gt;Node14</title>
<path fill="none" stroke="midnightblue" d="M790.337,-398.824C880.677,-394.361 1064,-382.297 1122,-356 1161.26,-338.199 1194,-334.111 1194,-291 1194,-291 1194,-291 1194,-177 1194,-144.583 1186.7,-107.415 1181.67,-85.6439"/>
<polygon fill="midnightblue" stroke="midnightblue" points="1185.03,-84.6736 1179.29,-75.769 1178.23,-86.3102 1185.03,-84.6736"/>
</g>
<!-- Node15 -->
<g id="node15" class="node"><title>Node15</title>
<g id="a_node15"><a xlink:href="softwarecontainererror_8h_source.html" target="_top" xlink:title="softwarecontainererror.h">
<polygon fill="white" stroke="black" points="173,-224.5 173,-243.5 295,-243.5 295,-224.5 173,-224.5"/>
<text text-anchor="middle" x="234" y="-231.5" font-family="Helvetica,sans-Serif" font-size="10.00">softwarecontainererror.h</text>
</a>
</g>
</g>
<!-- Node2&#45;&gt;Node15 -->
<g id="edge31" class="edge"><title>Node2&#45;&gt;Node15</title>
<path fill="none" stroke="midnightblue" d="M687.809,-400.267C565.508,-397.987 264.227,-389.04 234,-356 208.452,-328.074 218.866,-279.52 227.276,-253.207"/>
<polygon fill="midnightblue" stroke="midnightblue" points="230.6,-254.305 230.539,-243.71 223.98,-252.03 230.6,-254.305"/>
</g>
<!-- Node17 -->
<g id="node17" class="node"><title>Node17</title>
<g id="a_node17"><a xlink:href="signalconnectionshandler_8h_source.html" target="_top" xlink:title="signalconnectionshandler.h">
<polygon fill="white" stroke="black" points="522,-336.5 522,-355.5 656,-355.5 656,-336.5 522,-336.5"/>
<text text-anchor="middle" x="589" y="-343.5" font-family="Helvetica,sans-Serif" font-size="10.00">signalconnectionshandler.h</text>
</a>
</g>
</g>
<!-- Node2&#45;&gt;Node17 -->
<g id="edge18" class="edge"><title>Node2&#45;&gt;Node17</title>
<path fill="none" stroke="midnightblue" d="M715.232,-392.444C690.107,-383.399 650.289,-369.064 622.1,-358.916"/>
<polygon fill="midnightblue" stroke="midnightblue" points="623.251,-355.611 612.657,-355.516 620.88,-362.197 623.251,-355.611"/>
</g>
<!-- Node2&#45;&gt;Node20 -->
<g id="edge24" class="edge"><title>Node2&#45;&gt;Node20</title>
<path fill="none" stroke="midnightblue" d="M687.764,-397.232C588.294,-389.85 362.093,-372.74 172,-356 170.728,-355.888 169.445,-355.774 168.155,-355.659"/>
<polygon fill="midnightblue" stroke="midnightblue" points="168.414,-352.168 158.139,-354.752 167.783,-359.14 168.414,-352.168"/>
</g>
<!-- Node21 -->
<g id="node21" class="node"><title>Node21</title>
<g id="a_node21"><a xlink:href="filetoolkitwithundo_8h_source.html" target="_top" xlink:title="filetoolkitwithundo.h">
<polygon fill="white" stroke="black" points="1024.5,-224.5 1024.5,-243.5 1127.5,-243.5 1127.5,-224.5 1024.5,-224.5"/>
<text text-anchor="middle" x="1076" y="-231.5" font-family="Helvetica,sans-Serif" font-size="10.00">filetoolkitwithundo.h</text>
</a>
</g>
</g>
<!-- Node2&#45;&gt;Node21 -->
<g id="edge26" class="edge"><title>Node2&#45;&gt;Node21</title>
<path fill="none" stroke="midnightblue" d="M790.156,-400.081C876.617,-397.634 1047.03,-388.685 1096,-356 1126.48,-335.655 1143.24,-313.333 1128,-280 1122.22,-267.36 1110.95,-256.911 1100.37,-249.274"/>
<polygon fill="midnightblue" stroke="midnightblue" points="1102.04,-246.182 1091.78,-243.533 1098.15,-252.001 1102.04,-246.182"/>
</g>
<!-- Node23 -->
<g id="node23" class="node"><title>Node23</title>
<g id="a_node23"><a xlink:href="softwarecontainerabstractinterface_8h.html" target="_top" xlink:title="Contains the softwarecontainer::SoftwareContainerAbstractInterface class. ">
<polygon fill="white" stroke="black" points="252.5,-336.5 252.5,-355.5 427.5,-355.5 427.5,-336.5 252.5,-336.5"/>
<text text-anchor="middle" x="340" y="-343.5" font-family="Helvetica,sans-Serif" font-size="10.00">softwarecontainerabstractinterface.h</text>
</a>
</g>
</g>
<!-- Node2&#45;&gt;Node23 -->
<g id="edge32" class="edge"><title>Node2&#45;&gt;Node23</title>
<path fill="none" stroke="midnightblue" d="M687.655,-394.051C617.817,-384.599 492.488,-367.637 412.922,-356.869"/>
<polygon fill="midnightblue" stroke="midnightblue" points="413.351,-353.395 402.972,-355.522 412.412,-360.332 413.351,-353.395"/>
</g>
<!-- Node24 -->
<g id="node24" class="node"><title>Node24</title>
<g id="a_node24"><a xlink:href="commandjob_8h_source.html" target="_top" xlink:title="commandjob.h">
<polygon fill="white" stroke="black" points="484,-280.5 484,-299.5 564,-299.5 564,-280.5 484,-280.5"/>
<text text-anchor="middle" x="524" y="-287.5" font-family="Helvetica,sans-Serif" font-size="10.00">commandjob.h</text>
</a>
</g>
</g>
<!-- Node2&#45;&gt;Node24 -->
<g id="edge48" class="edge"><title>Node2&#45;&gt;Node24</title>
<path fill="none" stroke="midnightblue" d="M687.975,-398.157C628.245,-393.638 534.697,-382.443 513,-356 502.251,-342.9 507.615,-323.21 514.05,-308.935"/>
<polygon fill="midnightblue" stroke="midnightblue" points="517.343,-310.176 518.709,-299.669 511.09,-307.031 517.343,-310.176"/>
</g>
<!-- Node27 -->
<g id="node27" class="node"><title>Node27</title>
<polygon fill="white" stroke="#bfbfbf" points="674,-336.5 674,-355.5 734,-355.5 734,-336.5 674,-336.5"/>
<text text-anchor="middle" x="704" y="-343.5" font-family="Helvetica,sans-Serif" font-size="10.00">sys/stat.h</text>
</g>
<!-- Node2&#45;&gt;Node27 -->
<g id="edge41" class="edge"><title>Node2&#45;&gt;Node27</title>
<path fill="none" stroke="midnightblue" d="M733.22,-392.083C728.328,-384.534 721.173,-373.495 715.167,-364.23"/>
<polygon fill="midnightblue" stroke="midnightblue" points="718.048,-362.239 709.672,-355.751 712.174,-366.046 718.048,-362.239"/>
</g>
<!-- Node28 -->
<g id="node28" class="node"><title>Node28</title>
<polygon fill="white" stroke="#bfbfbf" points="752,-336.5 752,-355.5 796,-355.5 796,-336.5 752,-336.5"/>
<text text-anchor="middle" x="774" y="-343.5" font-family="Helvetica,sans-Serif" font-size="10.00">fcntl.h</text>
</g>
<!-- Node2&#45;&gt;Node28 -->
<g id="edge43" class="edge"><title>Node2&#45;&gt;Node28</title>
<path fill="none" stroke="midnightblue" d="M744.78,-392.083C749.672,-384.534 756.827,-373.495 762.833,-364.23"/>
<polygon fill="midnightblue" stroke="midnightblue" points="765.826,-366.046 768.328,-355.751 759.952,-362.239 765.826,-366.046"/>
</g>
<!-- Node29 -->
<g id="node29" class="node"><title>Node29</title>
<polygon fill="white" stroke="#bfbfbf" points="814,-336.5 814,-355.5 860,-355.5 860,-336.5 814,-336.5"/>
<text text-anchor="middle" x="837" y="-343.5" font-family="Helvetica,sans-Serif" font-size="10.00">stdio.h</text>
</g>
<!-- Node2&#45;&gt;Node29 -->
<g id="edge44" class="edge"><title>Node2&#45;&gt;Node29</title>
<path fill="none" stroke="midnightblue" d="M754.745,-392.324C770.319,-383.743 794.377,-370.486 812.459,-360.522"/>
<polygon fill="midnightblue" stroke="midnightblue" points="814.224,-363.546 821.294,-355.655 810.846,-357.415 814.224,-363.546"/>
</g>
<!-- Node30 -->
<g id="node30" class="node"><title>Node30</title>
<polygon fill="white" stroke="#bfbfbf" points="878,-336.5 878,-355.5 926,-355.5 926,-336.5 878,-336.5"/>
<text text-anchor="middle" x="902" y="-343.5" font-family="Helvetica,sans-Serif" font-size="10.00">stdlib.h</text>
</g>
<!-- Node2&#45;&gt;Node30 -->
<g id="edge45" class="edge"><title>Node2&#45;&gt;Node30</title>
<path fill="none" stroke="midnightblue" d="M764.828,-392.444C792.733,-383.199 837.319,-368.428 868.043,-358.25"/>
<polygon fill="midnightblue" stroke="midnightblue" points="869.495,-361.456 877.887,-354.988 867.294,-354.811 869.495,-361.456"/>
</g>
<!-- Node31 -->
<g id="node31" class="node"><title>Node31</title>
<g id="a_node31"><a xlink:href="functionjob_8h_source.html" target="_top" xlink:title="functionjob.h">
<polygon fill="white" stroke="black" points="1047,-280.5 1047,-299.5 1119,-299.5 1119,-280.5 1047,-280.5"/>
<text text-anchor="middle" x="1083" y="-287.5" font-family="Helvetica,sans-Serif" font-size="10.00">functionjob.h</text>
</a>
</g>
</g>
<!-- Node2&#45;&gt;Node31 -->
<g id="edge46" class="edge"><title>Node2&#45;&gt;Node31</title>
<path fill="none" stroke="midnightblue" d="M790.053,-401.656C874.673,-401.575 1038.5,-396.08 1077,-356 1088.64,-343.886 1088.81,-324.01 1086.89,-309.421"/>
<polygon fill="midnightblue" stroke="midnightblue" points="1090.33,-308.767 1085.17,-299.512 1083.43,-309.963 1090.33,-308.767"/>
</g>
<!-- Node4 -->
<g id="node4" class="node"><title>Node4</title>
<polygon fill="white" stroke="#bfbfbf" points="855.5,-280.5 855.5,-299.5 914.5,-299.5 914.5,-280.5 855.5,-280.5"/>
<text text-anchor="middle" x="885" y="-287.5" font-family="Helvetica,sans-Serif" font-size="10.00">functional</text>
</g>
<!-- Node3&#45;&gt;Node4 -->
<g id="edge3" class="edge"><title>Node3&#45;&gt;Node4</title>
<path fill="none" stroke="midnightblue" d="M980.095,-336.444C961.746,-327.675 932.995,-313.935 911.906,-303.858"/>
<polygon fill="midnightblue" stroke="midnightblue" points="913.353,-300.67 902.821,-299.516 910.335,-306.986 913.353,-300.67"/>
</g>
<!-- Node3&#45;&gt;Node5 -->
<g id="edge4" class="edge"><title>Node3&#45;&gt;Node5</title>
<path fill="none" stroke="midnightblue" d="M998,-336.083C998,-329.006 998,-318.861 998,-309.986"/>
<polygon fill="midnightblue" stroke="midnightblue" points="1001.5,-309.751 998,-299.751 994.5,-309.751 1001.5,-309.751"/>
</g>
<!-- Node7 -->
<g id="node7" class="node"><title>Node7</title>
<polygon fill="white" stroke="#bfbfbf" points="124.5,-168.5 124.5,-187.5 165.5,-187.5 165.5,-168.5 124.5,-168.5"/>
<text text-anchor="middle" x="145" y="-175.5" font-family="Helvetica,sans-Serif" font-size="10.00">string</text>
</g>
<!-- Node6&#45;&gt;Node7 -->
<g id="edge6" class="edge"><title>Node6&#45;&gt;Node7</title>
<path fill="none" stroke="midnightblue" d="M284.641,-288.354C247.647,-285.426 195.989,-275.414 164,-244 151.821,-232.04 147.345,-212.739 145.752,-198.27"/>
<polygon fill="midnightblue" stroke="midnightblue" points="149.217,-197.656 145.001,-187.936 142.235,-198.163 149.217,-197.656"/>
</g>
<!-- Node8 -->
<g id="node8" class="node"><title>Node8</title>
<polygon fill="white" stroke="#bfbfbf" points="411.5,-56.5 411.5,-75.5 446.5,-75.5 446.5,-56.5 411.5,-56.5"/>
<text text-anchor="middle" x="429" y="-63.5" font-family="Helvetica,sans-Serif" font-size="10.00">map</text>
</g>
<!-- Node6&#45;&gt;Node8 -->
<g id="edge7" class="edge"><title>Node6&#45;&gt;Node8</title>
<path fill="none" stroke="midnightblue" d="M330.952,-280.411C333.942,-267.802 340.144,-243.65 348,-224 369.084,-171.266 402.045,-112.679 418.671,-84.2954"/>
<polygon fill="midnightblue" stroke="midnightblue" points="421.75,-85.9644 423.824,-75.5745 415.723,-82.4032 421.75,-85.9644"/>
</g>
<!-- Node9 -->
<g id="node9" class="node"><title>Node9</title>
<polygon fill="white" stroke="#bfbfbf" points="357.5,-224.5 357.5,-243.5 416.5,-243.5 416.5,-224.5 357.5,-224.5"/>
<text text-anchor="middle" x="387" y="-231.5" font-family="Helvetica,sans-Serif" font-size="10.00">jansson.h</text>
</g>
<!-- Node6&#45;&gt;Node9 -->
<g id="edge8" class="edge"><title>Node6&#45;&gt;Node9</title>
<path fill="none" stroke="midnightblue" d="M338.319,-280.324C346.893,-272.341 359.812,-260.313 370.188,-250.653"/>
<polygon fill="midnightblue" stroke="midnightblue" points="372.578,-253.21 377.512,-243.834 367.808,-248.086 372.578,-253.21"/>
</g>
<!-- Node6&#45;&gt;Node10 -->
<g id="edge9" class="edge"><title>Node6&#45;&gt;Node10</title>
<path fill="none" stroke="midnightblue" d="M362.836,-280.425C472.528,-252.625 818.264,-165.003 940.589,-134.002"/>
<polygon fill="midnightblue" stroke="midnightblue" points="941.532,-137.374 950.366,-131.524 939.812,-130.588 941.532,-137.374"/>
</g>
<!-- Node6&#45;&gt;Node15 -->
<g id="edge15" class="edge"><title>Node6&#45;&gt;Node15</title>
<path fill="none" stroke="midnightblue" d="M313.737,-280.324C298.779,-271.822 275.745,-258.729 258.273,-248.797"/>
<polygon fill="midnightblue" stroke="midnightblue" points="259.649,-245.553 249.226,-243.655 256.19,-251.639 259.649,-245.553"/>
</g>
<!-- Node10&#45;&gt;Node8 -->
<g id="edge12" class="edge"><title>Node10&#45;&gt;Node8</title>
<path fill="none" stroke="midnightblue" d="M912.296,-114.023C788.495,-101.978 539.935,-77.7937 456.802,-69.7051"/>
<polygon fill="midnightblue" stroke="midnightblue" points="457.14,-66.2216 446.849,-68.7366 456.463,-73.1887 457.14,-66.2216"/>
</g>
<!-- Node11 -->
<g id="node11" class="node"><title>Node11</title>
<g id="a_node11"><a xlink:href="softwarecontainer-log_8h_source.html" target="_top" xlink:title="softwarecontainer&#45;log.h">
<polygon fill="white" stroke="black" points="953,-56.5 953,-75.5 1071,-75.5 1071,-56.5 953,-56.5"/>
<text text-anchor="middle" x="1012" y="-63.5" font-family="Helvetica,sans-Serif" font-size="10.00">softwarecontainer&#45;log.h</text>
</a>
</g>
</g>
<!-- Node10&#45;&gt;Node11 -->
<g id="edge10" class="edge"><title>Node10&#45;&gt;Node11</title>
<path fill="none" stroke="midnightblue" d="M988.624,-112.083C992.456,-104.691 998.024,-93.9533 1002.76,-84.8111"/>
<polygon fill="midnightblue" stroke="midnightblue" points="1005.97,-86.2398 1007.46,-75.7511 999.752,-83.0175 1005.97,-86.2398"/>
</g>
<!-- Node10&#45;&gt;Node13 -->
<g id="edge13" class="edge"><title>Node10&#45;&gt;Node13</title>
<path fill="none" stroke="midnightblue" d="M921.886,-112.444C839.917,-101.152 698.104,-81.6164 630.283,-72.2737"/>
<polygon fill="midnightblue" stroke="midnightblue" points="630.438,-68.7621 620.054,-70.8646 629.483,-75.6966 630.438,-68.7621"/>
</g>
<!-- Node10&#45;&gt;Node14 -->
<g id="edge14" class="edge"><title>Node10&#45;&gt;Node14</title>
<path fill="none" stroke="midnightblue" d="M1014.58,-112.444C1047.61,-103.201 1100.39,-88.4356 1136.77,-78.2572"/>
<polygon fill="midnightblue" stroke="midnightblue" points="1137.87,-81.5815 1146.56,-75.5164 1135.99,-74.8404 1137.87,-81.5815"/>
</g>
<!-- Node12 -->
<g id="node12" class="node"><title>Node12</title>
<polygon fill="white" stroke="#bfbfbf" points="978,-0.5 978,-19.5 1046,-19.5 1046,-0.5 978,-0.5"/>
<text text-anchor="middle" x="1012" y="-7.5" font-family="Helvetica,sans-Serif" font-size="10.00">ivi&#45;logging.h</text>
</g>
<!-- Node11&#45;&gt;Node12 -->
<g id="edge11" class="edge"><title>Node11&#45;&gt;Node12</title>
<path fill="none" stroke="midnightblue" d="M1012,-56.083C1012,-49.0059 1012,-38.8611 1012,-29.9865"/>
<polygon fill="midnightblue" stroke="midnightblue" points="1015.5,-29.751 1012,-19.7511 1008.5,-29.7511 1015.5,-29.751"/>
</g>
<!-- Node15&#45;&gt;Node7 -->
<g id="edge17" class="edge"><title>Node15&#45;&gt;Node7</title>
<path fill="none" stroke="midnightblue" d="M219.701,-224.324C205.817,-215.9 184.508,-202.971 168.196,-193.074"/>
<polygon fill="midnightblue" stroke="midnightblue" points="169.629,-189.85 159.264,-187.655 165.998,-195.834 169.629,-189.85"/>
</g>
<!-- Node16 -->
<g id="node16" class="node"><title>Node16</title>
<polygon fill="white" stroke="#bfbfbf" points="204.5,-168.5 204.5,-187.5 263.5,-187.5 263.5,-168.5 204.5,-168.5"/>
<text text-anchor="middle" x="234" y="-175.5" font-family="Helvetica,sans-Serif" font-size="10.00">exception</text>
</g>
<!-- Node15&#45;&gt;Node16 -->
<g id="edge16" class="edge"><title>Node15&#45;&gt;Node16</title>
<path fill="none" stroke="midnightblue" d="M234,-224.083C234,-217.006 234,-206.861 234,-197.986"/>
<polygon fill="midnightblue" stroke="midnightblue" points="237.5,-197.751 234,-187.751 230.5,-197.751 237.5,-197.751"/>
</g>
<!-- Node17&#45;&gt;Node4 -->
<g id="edge22" class="edge"><title>Node17&#45;&gt;Node4</title>
<path fill="none" stroke="midnightblue" d="M635.902,-336.444C693.791,-325.883 791.208,-308.111 845.474,-298.211"/>
<polygon fill="midnightblue" stroke="midnightblue" points="846.197,-301.637 855.406,-296.399 844.94,-294.75 846.197,-301.637"/>
</g>
<!-- Node17&#45;&gt;Node5 -->
<g id="edge21" class="edge"><title>Node17&#45;&gt;Node5</title>
<path fill="none" stroke="midnightblue" d="M653.807,-336.444C742.538,-324.728 898.479,-304.14 965.684,-295.267"/>
<polygon fill="midnightblue" stroke="midnightblue" points="966.229,-298.725 975.685,-293.946 965.313,-291.785 966.229,-298.725"/>
</g>
<!-- Node17&#45;&gt;Node13 -->
<g id="edge20" class="edge"><title>Node17&#45;&gt;Node13</title>
<path fill="none" stroke="midnightblue" d="M589.392,-336.444C590.205,-317.943 592,-272.827 592,-235 592,-235 592,-235 592,-177 592,-144.948 592,-107.643 592,-85.7489"/>
<polygon fill="midnightblue" stroke="midnightblue" points="595.5,-85.5577 592,-75.5578 588.5,-85.5578 595.5,-85.5577"/>
</g>
<!-- Node18 -->
<g id="node18" class="node"><title>Node18</title>
<polygon fill="white" stroke="#bfbfbf" points="620,-280.5 620,-299.5 708,-299.5 708,-280.5 620,-280.5"/>
<text text-anchor="middle" x="664" y="-287.5" font-family="Helvetica,sans-Serif" font-size="10.00">sigc++/sigc++.h</text>
</g>
<!-- Node17&#45;&gt;Node18 -->
<g id="edge19" class="edge"><title>Node17&#45;&gt;Node18</title>
<path fill="none" stroke="midnightblue" d="M601.05,-336.324C612.463,-328.107 629.831,-315.602 643.435,-305.807"/>
<polygon fill="midnightblue" stroke="midnightblue" points="645.66,-308.517 651.731,-299.834 641.57,-302.837 645.66,-308.517"/>
</g>
<!-- Node19 -->
<g id="node19" class="node"><title>Node19</title>
<polygon fill="white" stroke="#bfbfbf" points="726,-280.5 726,-299.5 794,-299.5 794,-280.5 726,-280.5"/>
<text text-anchor="middle" x="760" y="-287.5" font-family="Helvetica,sans-Serif" font-size="10.00">sys/types.h</text>
</g>
<!-- Node17&#45;&gt;Node19 -->
<g id="edge23" class="edge"><title>Node17&#45;&gt;Node19</title>
<path fill="none" stroke="midnightblue" d="M616.095,-336.444C644.988,-327.32 690.925,-312.813 723.105,-302.651"/>
<polygon fill="midnightblue" stroke="midnightblue" points="724.549,-305.865 733.031,-299.516 722.441,-299.19 724.549,-305.865"/>
</g>
<!-- Node20&#45;&gt;Node7 -->
<g id="edge25" class="edge"><title>Node20&#45;&gt;Node7</title>
<path fill="none" stroke="midnightblue" d="M82.5484,-336.075C92.9824,-309.832 123.711,-232.545 137.797,-197.117"/>
<polygon fill="midnightblue" stroke="midnightblue" points="141.151,-198.154 141.593,-187.568 134.646,-195.567 141.151,-198.154"/>
</g>
<!-- Node21&#45;&gt;Node10 -->
<g id="edge30" class="edge"><title>Node21&#45;&gt;Node10</title>
<path fill="none" stroke="midnightblue" d="M1067.38,-224.263C1058.7,-215.359 1045.06,-201.041 1034,-188 1020.53,-172.119 1006.13,-153.169 996.264,-139.84"/>
<polygon fill="midnightblue" stroke="midnightblue" points="998.964,-137.602 990.221,-131.617 993.323,-141.748 998.964,-137.602"/>
</g>
<!-- Node22 -->
<g id="node22" class="node"><title>Node22</title>
<g id="a_node22"><a xlink:href="cleanuphandler_8h_source.html" target="_top" xlink:title="cleanuphandler.h">
<polygon fill="white" stroke="black" points="1076,-168.5 1076,-187.5 1166,-187.5 1166,-168.5 1076,-168.5"/>
<text text-anchor="middle" x="1121" y="-175.5" font-family="Helvetica,sans-Serif" font-size="10.00">cleanuphandler.h</text>
</a>
</g>
</g>
<!-- Node21&#45;&gt;Node22 -->
<g id="edge27" class="edge"><title>Node21&#45;&gt;Node22</title>
<path fill="none" stroke="midnightblue" d="M1083.43,-224.083C1089.85,-216.377 1099.31,-205.033 1107.12,-195.653"/>
<polygon fill="midnightblue" stroke="midnightblue" points="1109.99,-197.674 1113.71,-187.751 1104.62,-193.193 1109.99,-197.674"/>
</g>
<!-- Node22&#45;&gt;Node10 -->
<g id="edge28" class="edge"><title>Node22&#45;&gt;Node10</title>
<path fill="none" stroke="midnightblue" d="M1099.29,-168.444C1076.65,-159.517 1040.93,-145.439 1015.25,-135.317"/>
<polygon fill="midnightblue" stroke="midnightblue" points="1016.19,-131.927 1005.61,-131.516 1013.63,-138.44 1016.19,-131.927"/>
</g>
<!-- Node22&#45;&gt;Node11 -->
<g id="edge29" class="edge"><title>Node22&#45;&gt;Node11</title>
<path fill="none" stroke="midnightblue" d="M1113.98,-168.25C1103.56,-155.44 1083.17,-131.041 1064,-112 1053.41,-101.482 1040.77,-90.5068 1030.6,-82.0284"/>
<polygon fill="midnightblue" stroke="midnightblue" points="1032.68,-79.211 1022.74,-75.5586 1028.23,-84.6159 1032.68,-79.211"/>
</g>
<!-- Node23&#45;&gt;Node6 -->
<g id="edge38" class="edge"><title>Node23&#45;&gt;Node6</title>
<path fill="none" stroke="midnightblue" d="M338.184,-336.083C336.726,-328.927 334.629,-318.635 332.807,-309.691"/>
<polygon fill="midnightblue" stroke="midnightblue" points="336.208,-308.851 330.783,-299.751 329.349,-310.248 336.208,-308.851"/>
</g>
<!-- Node23&#45;&gt;Node24 -->
<g id="edge33" class="edge"><title>Node23&#45;&gt;Node24</title>
<path fill="none" stroke="midnightblue" d="M369.155,-336.444C400.513,-327.241 450.531,-312.562 485.197,-302.388"/>
<polygon fill="midnightblue" stroke="midnightblue" points="486.371,-305.691 494.981,-299.516 484.4,-298.974 486.371,-305.691"/>
</g>
<!-- Node25 -->
<g id="node25" class="node"><title>Node25</title>
<g id="a_node25"><a xlink:href="jobabstract_8h_source.html" target="_top" xlink:title="jobabstract.h">
<polygon fill="white" stroke="black" points="902.5,-224.5 902.5,-243.5 975.5,-243.5 975.5,-224.5 902.5,-224.5"/>
<text text-anchor="middle" x="939" y="-231.5" font-family="Helvetica,sans-Serif" font-size="10.00">jobabstract.h</text>
</a>
</g>
</g>
<!-- Node24&#45;&gt;Node25 -->
<g id="edge34" class="edge"><title>Node24&#45;&gt;Node25</title>
<path fill="none" stroke="midnightblue" d="M564.169,-283.773C641.418,-273.722 810.283,-251.749 892.361,-241.069"/>
<polygon fill="midnightblue" stroke="midnightblue" points="892.937,-244.523 902.402,-239.762 892.034,-237.582 892.937,-244.523"/>
</g>
<!-- Node25&#45;&gt;Node10 -->
<g id="edge35" class="edge"><title>Node25&#45;&gt;Node10</title>
<path fill="none" stroke="midnightblue" d="M942.531,-224.368C949.859,-206.456 966.85,-164.923 976.658,-140.948"/>
<polygon fill="midnightblue" stroke="midnightblue" points="979.938,-142.172 980.485,-131.591 973.46,-139.522 979.938,-142.172"/>
</g>
<!-- Node26 -->
<g id="node26" class="node"><title>Node26</title>
<g id="a_node26"><a xlink:href="executable_8h_source.html" target="_top" xlink:title="executable.h">
<polygon fill="white" stroke="black" points="872,-168.5 872,-187.5 944,-187.5 944,-168.5 872,-168.5"/>
<text text-anchor="middle" x="908" y="-175.5" font-family="Helvetica,sans-Serif" font-size="10.00">executable.h</text>
</a>
</g>
</g>
<!-- Node25&#45;&gt;Node26 -->
<g id="edge36" class="edge"><title>Node25&#45;&gt;Node26</title>
<path fill="none" stroke="midnightblue" d="M933.881,-224.083C929.592,-216.613 923.342,-205.724 918.058,-196.52"/>
<polygon fill="midnightblue" stroke="midnightblue" points="921.038,-194.681 913.024,-187.751 914.967,-198.166 921.038,-194.681"/>
</g>
<!-- Node26&#45;&gt;Node10 -->
<g id="edge37" class="edge"><title>Node26&#45;&gt;Node10</title>
<path fill="none" stroke="midnightblue" d="M920.211,-168.324C931.776,-160.107 949.375,-147.602 963.161,-137.807"/>
<polygon fill="midnightblue" stroke="midnightblue" points="965.443,-140.479 971.567,-131.834 961.388,-134.773 965.443,-140.479"/>
</g>
<!-- Node31&#45;&gt;Node25 -->
<g id="edge47" class="edge"><title>Node31&#45;&gt;Node25</title>
<path fill="none" stroke="midnightblue" d="M1060.18,-280.444C1036.17,-271.438 998.171,-257.189 971.131,-247.049"/>
<polygon fill="midnightblue" stroke="midnightblue" points="972.303,-243.751 961.71,-243.516 969.845,-250.305 972.303,-243.751"/>
</g>
</g>
</svg>
