<?xml version="1.0" encoding="UTF-8" standalone="no"?>
<!DOCTYPE svg PUBLIC "-//W3C//DTD SVG 1.1//EN"
 "http://www.w3.org/Graphics/SVG/1.1/DTD/svg11.dtd">
<!-- Generated by graphviz version 2.38.0 (20140413.2041)
 -->
<!-- Title: libsoftwarecontainer/include/softwarecontainerabstractinterface.h Pages: 1 -->
<svg width="683pt" height="341pt"
 viewBox="0.00 0.00 683.00 341.00" xmlns="http://www.w3.org/2000/svg" xmlns:xlink="http://www.w3.org/1999/xlink">
<g id="graph0" class="graph" transform="scale(1 1) rotate(0) translate(4 337)">
<title>libsoftwarecontainer/include/softwarecontainerabstractinterface.h</title>
<polygon fill="white" stroke="none" points="-4,4 -4,-337 679,-337 679,4 -4,4"/>
<!-- Node1 -->
<g id="node1" class="node"><title>Node1</title>
<polygon fill="#bfbfbf" stroke="black" points="331,-302.5 331,-332.5 543,-332.5 543,-302.5 331,-302.5"/>
<text text-anchor="start" x="339" y="-320.5" font-family="Helvetica,sans-Serif" font-size="10.00">libsoftwarecontainer</text>
<text text-anchor="middle" x="437" y="-309.5" font-family="Helvetica,sans-Serif" font-size="10.00">/include/softwarecontainerabstractinterface.h</text>
</g>
<!-- Node2 -->
<g id="node2" class="node"><title>Node2</title>
<g id="a_node2"><a xlink:href="softwarecontainer_8h_source.html" target="_top" xlink:title="libsoftwarecontainer\l/include/softwarecontainer.h">
<polygon fill="white" stroke="black" points="367.5,-235.5 367.5,-265.5 506.5,-265.5 506.5,-235.5 367.5,-235.5"/>
<text text-anchor="start" x="375.5" y="-253.5" font-family="Helvetica,sans-Serif" font-size="10.00">libsoftwarecontainer</text>
<text text-anchor="middle" x="437" y="-242.5" font-family="Helvetica,sans-Serif" font-size="10.00">/include/softwarecontainer.h</text>
</a>
</g>
</g>
<!-- Node1&#45;&gt;Node2 -->
<g id="edge1" class="edge"><title>Node1&#45;&gt;Node2</title>
<path fill="none" stroke="midnightblue" d="M437,-292.108C437,-283.154 437,-273.323 437,-265.577"/>
<polygon fill="midnightblue" stroke="midnightblue" points="433.5,-292.396 437,-302.396 440.5,-292.396 433.5,-292.396"/>
</g>
<!-- Node3 -->
<g id="node3" class="node"><title>Node3</title>
<g id="a_node3"><a xlink:href="softwarecontaineragent_8h.html" target="_top" xlink:title="Contains the softwarecontainer::SoftwareContainerAgent class. ">
<polygon fill="white" stroke="black" points="236,-112.5 236,-131.5 406,-131.5 406,-112.5 236,-112.5"/>
<text text-anchor="middle" x="321" y="-119.5" font-family="Helvetica,sans-Serif" font-size="10.00">agent/src/softwarecontaineragent.h</text>
</a>
</g>
</g>
<!-- Node2&#45;&gt;Node3 -->
<g id="edge2" class="edge"><title>Node2&#45;&gt;Node3</title>
<path fill="none" stroke="midnightblue" d="M382.719,-231.167C366.939,-223.459 351.009,-212.956 340,-199 323.996,-178.711 321.282,-146.675 320.946,-131.504"/>
<polygon fill="midnightblue" stroke="midnightblue" points="381.404,-234.414 391.954,-235.388 384.314,-228.048 381.404,-234.414"/>
</g>
<!-- Node8 -->
<g id="node8" class="node"><title>Node8</title>
<g id="a_node8"><a xlink:href="softwarecontainerfactory_8h.html" target="_top" xlink:title="Contains the softwarecontainer::SoftwareContainerFactory class. ">
<polygon fill="white" stroke="black" points="349,-174 349,-193 525,-193 525,-174 349,-174"/>
<text text-anchor="middle" x="437" y="-181" font-family="Helvetica,sans-Serif" font-size="10.00">agent/src/softwarecontainerfactory.h</text>
</a>
</g>
</g>
<!-- Node2&#45;&gt;Node8 -->
<g id="edge7" class="edge"><title>Node2&#45;&gt;Node8</title>
<path fill="none" stroke="midnightblue" d="M437,-225.25C437,-214.017 437,-201.377 437,-193.195"/>
<polygon fill="midnightblue" stroke="midnightblue" points="433.5,-225.396 437,-235.396 440.5,-225.396 433.5,-225.396"/>
</g>
<!-- Node10 -->
<g id="node10" class="node"><title>Node10</title>
<g id="a_node10"><a xlink:href="softwarecontainer_8cpp_source.html" target="_top" xlink:title="libsoftwarecontainer\l/src/softwarecontainer.cpp">
<polygon fill="white" stroke="black" points="543,-168.5 543,-198.5 675,-198.5 675,-168.5 543,-168.5"/>
<text text-anchor="start" x="551" y="-186.5" font-family="Helvetica,sans-Serif" font-size="10.00">libsoftwarecontainer</text>
<text text-anchor="middle" x="609" y="-175.5" font-family="Helvetica,sans-Serif" font-size="10.00">/src/softwarecontainer.cpp</text>
</a>
</g>
</g>
<!-- Node2&#45;&gt;Node10 -->
<g id="edge10" class="edge"><title>Node2&#45;&gt;Node10</title>
<path fill="none" stroke="midnightblue" d="M483.788,-231.819C511.435,-221.371 545.96,-208.323 571.751,-198.577"/>
<polygon fill="midnightblue" stroke="midnightblue" points="482.438,-228.587 474.321,-235.396 484.913,-235.135 482.438,-228.587"/>
</g>
<!-- Node4 -->
<g id="node4" class="node"><title>Node4</title>
<g id="a_node4"><a xlink:href="softwarecontaineragentadaptor_8h_source.html" target="_top" xlink:title="agent/src/dbus/softwarecontaineragentadaptor.h">
<polygon fill="white" stroke="black" points="98,-56.5 98,-75.5 324,-75.5 324,-56.5 98,-56.5"/>
<text text-anchor="middle" x="211" y="-63.5" font-family="Helvetica,sans-Serif" font-size="10.00">agent/src/dbus/softwarecontaineragentadaptor.h</text>
</a>
</g>
</g>
<!-- Node3&#45;&gt;Node4 -->
<g id="edge3" class="edge"><title>Node3&#45;&gt;Node4</title>
<path fill="none" stroke="midnightblue" d="M294.238,-107.862C273.841,-97.8492 246.334,-84.3458 228.63,-75.6545"/>
<polygon fill="midnightblue" stroke="midnightblue" points="292.808,-111.059 303.327,-112.324 295.892,-104.775 292.808,-111.059"/>
</g>
<!-- Node7 -->
<g id="node7" class="node"><title>Node7</title>
<g id="a_node7"><a xlink:href="softwarecontaineragent_8cpp_source.html" target="_top" xlink:title="agent/src/softwarecontaineragent.cpp">
<polygon fill="white" stroke="black" points="342,-56.5 342,-75.5 522,-75.5 522,-56.5 342,-56.5"/>
<text text-anchor="middle" x="432" y="-63.5" font-family="Helvetica,sans-Serif" font-size="10.00">agent/src/softwarecontaineragent.cpp</text>
</a>
</g>
</g>
<!-- Node3&#45;&gt;Node7 -->
<g id="edge6" class="edge"><title>Node3&#45;&gt;Node7</title>
<path fill="none" stroke="midnightblue" d="M348.005,-107.862C368.588,-97.8492 396.345,-84.3458 414.21,-75.6545"/>
<polygon fill="midnightblue" stroke="midnightblue" points="346.295,-104.802 338.834,-112.324 349.358,-111.097 346.295,-104.802"/>
</g>
<!-- Node5 -->
<g id="node5" class="node"><title>Node5</title>
<g id="a_node5"><a xlink:href="softwarecontaineragentadaptor_8cpp_source.html" target="_top" xlink:title="agent/src/dbus/softwarecontaineragentadaptor.cpp">
<polygon fill="white" stroke="black" points="0,-0.5 0,-19.5 236,-19.5 236,-0.5 0,-0.5"/>
<text text-anchor="middle" x="118" y="-7.5" font-family="Helvetica,sans-Serif" font-size="10.00">agent/src/dbus/softwarecontaineragentadaptor.cpp</text>
</a>
</g>
</g>
<!-- Node4&#45;&gt;Node5 -->
<g id="edge4" class="edge"><title>Node4&#45;&gt;Node5</title>
<path fill="none" stroke="midnightblue" d="M187.194,-51.1774C170.081,-41.2407 147.535,-28.1492 132.905,-19.6545"/>
<polygon fill="midnightblue" stroke="midnightblue" points="185.653,-54.3293 196.058,-56.324 189.168,-48.2758 185.653,-54.3293"/>
</g>
<!-- Node6 -->
<g id="node6" class="node"><title>Node6</title>
<g id="a_node6"><a xlink:href="main_8cpp_source.html" target="_top" xlink:title="agent/src/main.cpp">
<polygon fill="white" stroke="black" points="254,-0.5 254,-19.5 354,-19.5 354,-0.5 254,-0.5"/>
<text text-anchor="middle" x="304" y="-7.5" font-family="Helvetica,sans-Serif" font-size="10.00">agent/src/main.cpp</text>
</a>
</g>
</g>
<!-- Node4&#45;&gt;Node6 -->
<g id="edge5" class="edge"><title>Node4&#45;&gt;Node6</title>
<path fill="none" stroke="midnightblue" d="M234.806,-51.1774C251.919,-41.2407 274.465,-28.1492 289.095,-19.6545"/>
<polygon fill="midnightblue" stroke="midnightblue" points="232.832,-48.2758 225.942,-56.324 236.347,-54.3293 232.832,-48.2758"/>
</g>
<!-- Node8&#45;&gt;Node3 -->
<g id="edge8" class="edge"><title>Node8&#45;&gt;Node3</title>
<path fill="none" stroke="midnightblue" d="M411.395,-169.367C388.913,-157.835 356.871,-141.399 337.589,-131.509"/>
<polygon fill="midnightblue" stroke="midnightblue" points="409.885,-172.525 420.38,-173.975 413.08,-166.297 409.885,-172.525"/>
</g>
<!-- Node9 -->
<g id="node9" class="node"><title>Node9</title>
<g id="a_node9"><a xlink:href="softwarecontainerfactory_8cpp_source.html" target="_top" xlink:title="agent/src/softwarecontainerfactory.cpp">
<polygon fill="white" stroke="black" points="424,-112.5 424,-131.5 610,-131.5 610,-112.5 424,-112.5"/>
<text text-anchor="middle" x="517" y="-119.5" font-family="Helvetica,sans-Serif" font-size="10.00">agent/src/softwarecontainerfactory.cpp</text>
</a>
</g>
</g>
<!-- Node8&#45;&gt;Node9 -->
<g id="edge9" class="edge"><title>Node8&#45;&gt;Node9</title>
<path fill="none" stroke="midnightblue" d="M456.773,-167.794C472.119,-156.38 492.855,-140.958 505.559,-131.509"/>
<polygon fill="midnightblue" stroke="midnightblue" points="454.397,-165.199 448.462,-173.975 458.575,-170.816 454.397,-165.199"/>
</g>
</g>
</svg>
