<?xml version="1.0" encoding="UTF-8" standalone="no"?>
<!DOCTYPE svg PUBLIC "-//W3C//DTD SVG 1.1//EN"
 "http://www.w3.org/Graphics/SVG/1.1/DTD/svg11.dtd">
<!-- Generated by graphviz version 2.38.0 (20140413.2041)
 -->
<!-- Title: agent/src/softwarecontainerfactory.h Pages: 1 -->
<svg width="1500pt" height="476pt"
 viewBox="0.00 0.00 1500.00 476.00" xmlns="http://www.w3.org/2000/svg" xmlns:xlink="http://www.w3.org/1999/xlink">
<g id="graph0" class="graph" transform="scale(1 1) rotate(0) translate(4 472)">
<title>agent/src/softwarecontainerfactory.h</title>
<polygon fill="white" stroke="none" points="-4,4 -4,-472 1496,-472 1496,4 -4,4"/>
<!-- Node1 -->
<g id="node1" class="node"><title>Node1</title>
<polygon fill="#bfbfbf" stroke="black" points="651,-448.5 651,-467.5 827,-467.5 827,-448.5 651,-448.5"/>
<text text-anchor="middle" x="739" y="-455.5" font-family="Helvetica,sans-Serif" font-size="10.00">agent/src/softwarecontainerfactory.h</text>
</g>
<!-- Node2 -->
<g id="node2" class="node"><title>Node2</title>
<g id="a_node2"><a xlink:href="softwarecontainer_8h_source.html" target="_top" xlink:title="softwarecontainer.h">
<polygon fill="white" stroke="black" points="688,-392.5 688,-411.5 790,-411.5 790,-392.5 688,-392.5"/>
<text text-anchor="middle" x="739" y="-399.5" font-family="Helvetica,sans-Serif" font-size="10.00">softwarecontainer.h</text>
</a>
</g>
</g>
<!-- Node1&#45;&gt;Node2 -->
<g id="edge1" class="edge"><title>Node1&#45;&gt;Node2</title>
<path fill="none" stroke="midnightblue" d="M739,-448.083C739,-441.006 739,-430.861 739,-421.986"/>
<polygon fill="midnightblue" stroke="midnightblue" points="742.5,-421.751 739,-411.751 735.5,-421.751 742.5,-421.751"/>
</g>
<!-- Node10 -->
<g id="node10" class="node"><title>Node10</title>
<g id="a_node10"><a xlink:href="softwarecontainer-common_8h_source.html" target="_top" xlink:title="softwarecontainer&#45;common.h">
<polygon fill="white" stroke="black" points="973.5,-112.5 973.5,-131.5 1116.5,-131.5 1116.5,-112.5 973.5,-112.5"/>
<text text-anchor="middle" x="1045" y="-119.5" font-family="Helvetica,sans-Serif" font-size="10.00">softwarecontainer&#45;common.h</text>
</a>
</g>
</g>
<!-- Node1&#45;&gt;Node10 -->
<g id="edge54" class="edge"><title>Node1&#45;&gt;Node10</title>
<path fill="none" stroke="midnightblue" d="M827.222,-453.197C1026.06,-443.45 1492,-413.512 1492,-347 1492,-347 1492,-347 1492,-233 1492,-158.689 1256.12,-134.295 1127.06,-126.509"/>
<polygon fill="midnightblue" stroke="midnightblue" points="1127,-123 1116.82,-125.912 1126.6,-129.988 1127,-123"/>
</g>
<!-- Node20 -->
<g id="node20" class="node"><title>Node20</title>
<g id="a_node20"><a xlink:href="softwarecontainerconfig_8h_source.html" target="_top" xlink:title="config/softwarecontainerconfig.h">
<polygon fill="white" stroke="black" points="0,-336.5 0,-355.5 158,-355.5 158,-336.5 0,-336.5"/>
<text text-anchor="middle" x="79" y="-343.5" font-family="Helvetica,sans-Serif" font-size="10.00">config/softwarecontainerconfig.h</text>
</a>
</g>
</g>
<!-- Node1&#45;&gt;Node20 -->
<g id="edge53" class="edge"><title>Node1&#45;&gt;Node20</title>
<path fill="none" stroke="midnightblue" d="M687.76,-448.46C567.889,-428.482 269.579,-378.763 140.329,-357.222"/>
<polygon fill="midnightblue" stroke="midnightblue" points="140.647,-353.726 130.207,-355.535 139.496,-360.631 140.647,-353.726"/>
</g>
<!-- Node3 -->
<g id="node3" class="node"><title>Node3</title>
<g id="a_node3"><a xlink:href="observableproperty_8h_source.html" target="_top" xlink:title="observableproperty.h">
<polygon fill="white" stroke="black" points="944.5,-336.5 944.5,-355.5 1051.5,-355.5 1051.5,-336.5 944.5,-336.5"/>
<text text-anchor="middle" x="998" y="-343.5" font-family="Helvetica,sans-Serif" font-size="10.00">observableproperty.h</text>
</a>
</g>
</g>
<!-- Node2&#45;&gt;Node3 -->
<g id="edge2" class="edge"><title>Node2&#45;&gt;Node3</title>
<path fill="none" stroke="midnightblue" d="M780.039,-392.444C825.316,-383.004 898.227,-367.802 947.106,-357.611"/>
<polygon fill="midnightblue" stroke="midnightblue" points="948.078,-360.984 957.153,-355.516 946.649,-354.131 948.078,-360.984"/>
</g>
<!-- Node5 -->
<g id="node5" class="node"><title>Node5</title>
<polygon fill="white" stroke="#bfbfbf" points="972,-280.5 972,-299.5 1016,-299.5 1016,-280.5 972,-280.5"/>
<text text-anchor="middle" x="994" y="-287.5" font-family="Helvetica,sans-Serif" font-size="10.00">vector</text>
</g>
<!-- Node2&#45;&gt;Node5 -->
<g id="edge44" class="edge"><title>Node2&#45;&gt;Node5</title>
<path fill="none" stroke="midnightblue" d="M790.173,-401.604C871.766,-401.352 1025.66,-395.492 1060,-356 1076.56,-336.953 1048.01,-316.829 1023.43,-304.108"/>
<polygon fill="midnightblue" stroke="midnightblue" points="1024.83,-300.894 1014.31,-299.613 1021.74,-307.173 1024.83,-300.894"/>
</g>
<!-- Node6 -->
<g id="node6" class="node"><title>Node6</title>
<g id="a_node6"><a xlink:href="gatewayconfig_8h_source.html" target="_top" xlink:title="gatewayconfig.h">
<polygon fill="white" stroke="black" points="337,-280.5 337,-299.5 425,-299.5 425,-280.5 337,-280.5"/>
<text text-anchor="middle" x="381" y="-287.5" font-family="Helvetica,sans-Serif" font-size="10.00">gatewayconfig.h</text>
</a>
</g>
</g>
<!-- Node2&#45;&gt;Node6 -->
<g id="edge5" class="edge"><title>Node2&#45;&gt;Node6</title>
<path fill="none" stroke="midnightblue" d="M687.973,-399.768C574.266,-396.495 307.932,-385.708 281,-356 259.58,-332.372 300.131,-313.647 335.838,-302.478"/>
<polygon fill="midnightblue" stroke="midnightblue" points="337.142,-305.742 345.726,-299.53 335.142,-299.033 337.142,-305.742"/>
</g>
<!-- Node13 -->
<g id="node13" class="node"><title>Node13</title>
<polygon fill="white" stroke="#bfbfbf" points="530,-56.5 530,-75.5 586,-75.5 586,-56.5 530,-56.5"/>
<text text-anchor="middle" x="558" y="-63.5" font-family="Helvetica,sans-Serif" font-size="10.00">glibmm.h</text>
</g>
<!-- Node2&#45;&gt;Node13 -->
<g id="edge43" class="edge"><title>Node2&#45;&gt;Node13</title>
<path fill="none" stroke="midnightblue" d="M687.797,-399.362C570.719,-395.174 290.985,-382.486 258,-356 191.461,-302.572 167.996,-236.415 219,-168 255.401,-119.173 438.895,-85.3774 519.7,-72.6314"/>
<polygon fill="midnightblue" stroke="midnightblue" points="520.595,-76.0345 529.94,-71.0425 519.522,-69.1173 520.595,-76.0345"/>
</g>
<!-- Node14 -->
<g id="node14" class="node"><title>Node14</title>
<polygon fill="white" stroke="#bfbfbf" points="1028,-56.5 1028,-75.5 1090,-75.5 1090,-56.5 1028,-56.5"/>
<text text-anchor="middle" x="1059" y="-63.5" font-family="Helvetica,sans-Serif" font-size="10.00">sys/wait.h</text>
</g>
<!-- Node2&#45;&gt;Node14 -->
<g id="edge46" class="edge"><title>Node2&#45;&gt;Node14</title>
<path fill="none" stroke="midnightblue" d="M790.305,-400.938C877.39,-399.808 1049.16,-392.82 1095,-356 1180.18,-287.573 1176.05,-208.6 1125,-112 1117.58,-97.9533 1103.58,-87.4667 1090.38,-80.167"/>
<polygon fill="midnightblue" stroke="midnightblue" points="1091.96,-77.0428 1081.46,-75.6178 1088.78,-83.2788 1091.96,-77.0428"/>
</g>
<!-- Node15 -->
<g id="node15" class="node"><title>Node15</title>
<g id="a_node15"><a xlink:href="softwarecontainererror_8h_source.html" target="_top" xlink:title="softwarecontainererror.h">
<polygon fill="white" stroke="black" points="231,-224.5 231,-243.5 353,-243.5 353,-224.5 231,-224.5"/>
<text text-anchor="middle" x="292" y="-231.5" font-family="Helvetica,sans-Serif" font-size="10.00">softwarecontainererror.h</text>
</a>
</g>
</g>
<!-- Node2&#45;&gt;Node15 -->
<g id="edge35" class="edge"><title>Node2&#45;&gt;Node15</title>
<path fill="none" stroke="midnightblue" d="M687.837,-399.868C572.394,-396.786 299.553,-386.335 272,-356 245.978,-327.35 266.995,-278.379 281.369,-252.391"/>
<polygon fill="midnightblue" stroke="midnightblue" points="284.451,-254.053 286.441,-243.646 278.396,-250.541 284.451,-254.053"/>
</g>
<!-- Node17 -->
<g id="node17" class="node"><title>Node17</title>
<g id="a_node17"><a xlink:href="signalconnectionshandler_8h_source.html" target="_top" xlink:title="signalconnectionshandler.h">
<polygon fill="white" stroke="black" points="522,-336.5 522,-355.5 656,-355.5 656,-336.5 522,-336.5"/>
<text text-anchor="middle" x="589" y="-343.5" font-family="Helvetica,sans-Serif" font-size="10.00">signalconnectionshandler.h</text>
</a>
</g>
</g>
<!-- Node2&#45;&gt;Node17 -->
<g id="edge18" class="edge"><title>Node2&#45;&gt;Node17</title>
<path fill="none" stroke="midnightblue" d="M715.232,-392.444C690.107,-383.399 650.289,-369.064 622.1,-358.916"/>
<polygon fill="midnightblue" stroke="midnightblue" points="623.251,-355.611 612.657,-355.516 620.88,-362.197 623.251,-355.611"/>
</g>
<!-- Node2&#45;&gt;Node20 -->
<g id="edge24" class="edge"><title>Node2&#45;&gt;Node20</title>
<path fill="none" stroke="midnightblue" d="M687.764,-397.232C588.294,-389.85 362.093,-372.74 172,-356 170.728,-355.888 169.445,-355.774 168.155,-355.659"/>
<polygon fill="midnightblue" stroke="midnightblue" points="168.414,-352.168 158.139,-354.752 167.783,-359.14 168.414,-352.168"/>
</g>
<!-- Node21 -->
<g id="node21" class="node"><title>Node21</title>
<g id="a_node21"><a xlink:href="filetoolkitwithundo_8h_source.html" target="_top" xlink:title="filetoolkitwithundo.h">
<polygon fill="white" stroke="black" points="1197.5,-336.5 1197.5,-355.5 1300.5,-355.5 1300.5,-336.5 1197.5,-336.5"/>
<text text-anchor="middle" x="1249" y="-343.5" font-family="Helvetica,sans-Serif" font-size="10.00">filetoolkitwithundo.h</text>
</a>
</g>
</g>
<!-- Node2&#45;&gt;Node21 -->
<g id="edge26" class="edge"><title>Node2&#45;&gt;Node21</title>
<path fill="none" stroke="midnightblue" d="M790.103,-395.821C870.821,-387.606 1032.76,-370.981 1170,-356 1175.49,-355.401 1181.19,-354.769 1186.91,-354.13"/>
<polygon fill="midnightblue" stroke="midnightblue" points="1187.62,-357.572 1197.16,-352.976 1186.84,-350.616 1187.62,-357.572"/>
</g>
<!-- Node26 -->
<g id="node26" class="node"><title>Node26</title>
<g id="a_node26"><a xlink:href="softwarecontainerabstractinterface_8h.html" target="_top" xlink:title="Contains the softwarecontainer::SoftwareContainerAbstractInterface class. ">
<polygon fill="white" stroke="black" points="290.5,-336.5 290.5,-355.5 465.5,-355.5 465.5,-336.5 290.5,-336.5"/>
<text text-anchor="middle" x="378" y="-343.5" font-family="Helvetica,sans-Serif" font-size="10.00">softwarecontainerabstractinterface.h</text>
</a>
</g>
</g>
<!-- Node2&#45;&gt;Node26 -->
<g id="edge36" class="edge"><title>Node2&#45;&gt;Node26</title>
<path fill="none" stroke="midnightblue" d="M687.661,-393.32C624.022,-383.801 515.402,-367.553 445.189,-357.05"/>
<polygon fill="midnightblue" stroke="midnightblue" points="445.526,-353.562 435.118,-355.544 444.49,-360.485 445.526,-353.562"/>
</g>
<!-- Node27 -->
<g id="node27" class="node"><title>Node27</title>
<g id="a_node27"><a xlink:href="commandjob_8h_source.html" target="_top" xlink:title="commandjob.h">
<polygon fill="white" stroke="black" points="450,-280.5 450,-299.5 530,-299.5 530,-280.5 450,-280.5"/>
<text text-anchor="middle" x="490" y="-287.5" font-family="Helvetica,sans-Serif" font-size="10.00">commandjob.h</text>
</a>
</g>
</g>
<!-- Node2&#45;&gt;Node27 -->
<g id="edge52" class="edge"><title>Node2&#45;&gt;Node27</title>
<path fill="none" stroke="midnightblue" d="M687.809,-396.661C629.398,-390.726 538.632,-378.194 513,-356 499.587,-344.386 493.996,-324.432 491.665,-309.688"/>
<polygon fill="midnightblue" stroke="midnightblue" points="495.126,-309.156 490.443,-299.653 488.178,-310.003 495.126,-309.156"/>
</g>
<!-- Node30 -->
<g id="node30" class="node"><title>Node30</title>
<polygon fill="white" stroke="#bfbfbf" points="674,-336.5 674,-355.5 734,-355.5 734,-336.5 674,-336.5"/>
<text text-anchor="middle" x="704" y="-343.5" font-family="Helvetica,sans-Serif" font-size="10.00">sys/stat.h</text>
</g>
<!-- Node2&#45;&gt;Node30 -->
<g id="edge45" class="edge"><title>Node2&#45;&gt;Node30</title>
<path fill="none" stroke="midnightblue" d="M733.22,-392.083C728.328,-384.534 721.173,-373.495 715.167,-364.23"/>
<polygon fill="midnightblue" stroke="midnightblue" points="718.048,-362.239 709.672,-355.751 712.174,-366.046 718.048,-362.239"/>
</g>
<!-- Node31 -->
<g id="node31" class="node"><title>Node31</title>
<polygon fill="white" stroke="#bfbfbf" points="752,-336.5 752,-355.5 796,-355.5 796,-336.5 752,-336.5"/>
<text text-anchor="middle" x="774" y="-343.5" font-family="Helvetica,sans-Serif" font-size="10.00">fcntl.h</text>
</g>
<!-- Node2&#45;&gt;Node31 -->
<g id="edge47" class="edge"><title>Node2&#45;&gt;Node31</title>
<path fill="none" stroke="midnightblue" d="M744.78,-392.083C749.672,-384.534 756.827,-373.495 762.833,-364.23"/>
<polygon fill="midnightblue" stroke="midnightblue" points="765.826,-366.046 768.328,-355.751 759.952,-362.239 765.826,-366.046"/>
</g>
<!-- Node32 -->
<g id="node32" class="node"><title>Node32</title>
<polygon fill="white" stroke="#bfbfbf" points="814,-336.5 814,-355.5 860,-355.5 860,-336.5 814,-336.5"/>
<text text-anchor="middle" x="837" y="-343.5" font-family="Helvetica,sans-Serif" font-size="10.00">stdio.h</text>
</g>
<!-- Node2&#45;&gt;Node32 -->
<g id="edge48" class="edge"><title>Node2&#45;&gt;Node32</title>
<path fill="none" stroke="midnightblue" d="M754.745,-392.324C770.319,-383.743 794.377,-370.486 812.459,-360.522"/>
<polygon fill="midnightblue" stroke="midnightblue" points="814.224,-363.546 821.294,-355.655 810.846,-357.415 814.224,-363.546"/>
</g>
<!-- Node33 -->
<g id="node33" class="node"><title>Node33</title>
<polygon fill="white" stroke="#bfbfbf" points="878,-336.5 878,-355.5 926,-355.5 926,-336.5 878,-336.5"/>
<text text-anchor="middle" x="902" y="-343.5" font-family="Helvetica,sans-Serif" font-size="10.00">stdlib.h</text>
</g>
<!-- Node2&#45;&gt;Node33 -->
<g id="edge49" class="edge"><title>Node2&#45;&gt;Node33</title>
<path fill="none" stroke="midnightblue" d="M764.828,-392.444C792.733,-383.199 837.319,-368.428 868.043,-358.25"/>
<polygon fill="midnightblue" stroke="midnightblue" points="869.495,-361.456 877.887,-354.988 867.294,-354.811 869.495,-361.456"/>
</g>
<!-- Node34 -->
<g id="node34" class="node"><title>Node34</title>
<g id="a_node34"><a xlink:href="functionjob_8h_source.html" target="_top" xlink:title="functionjob.h">
<polygon fill="white" stroke="black" points="1034,-280.5 1034,-299.5 1106,-299.5 1106,-280.5 1034,-280.5"/>
<text text-anchor="middle" x="1070" y="-287.5" font-family="Helvetica,sans-Serif" font-size="10.00">functionjob.h</text>
</a>
</g>
</g>
<!-- Node2&#45;&gt;Node34 -->
<g id="edge50" class="edge"><title>Node2&#45;&gt;Node34</title>
<path fill="none" stroke="midnightblue" d="M790.057,-397.859C879.862,-391.81 1058.4,-377.238 1077,-356 1088.07,-343.357 1083.99,-323.596 1078.59,-309.179"/>
<polygon fill="midnightblue" stroke="midnightblue" points="1081.74,-307.645 1074.61,-299.804 1075.29,-310.377 1081.74,-307.645"/>
</g>
<!-- Node4 -->
<g id="node4" class="node"><title>Node4</title>
<polygon fill="white" stroke="#bfbfbf" points="840.5,-280.5 840.5,-299.5 899.5,-299.5 899.5,-280.5 840.5,-280.5"/>
<text text-anchor="middle" x="870" y="-287.5" font-family="Helvetica,sans-Serif" font-size="10.00">functional</text>
</g>
<!-- Node3&#45;&gt;Node4 -->
<g id="edge3" class="edge"><title>Node3&#45;&gt;Node4</title>
<path fill="none" stroke="midnightblue" d="M977.718,-336.444C956.653,-327.557 923.483,-313.563 899.514,-303.451"/>
<polygon fill="midnightblue" stroke="midnightblue" points="900.761,-300.179 890.187,-299.516 898.04,-306.628 900.761,-300.179"/>
</g>
<!-- Node3&#45;&gt;Node5 -->
<g id="edge4" class="edge"><title>Node3&#45;&gt;Node5</title>
<path fill="none" stroke="midnightblue" d="M997.339,-336.083C996.815,-329.006 996.064,-318.861 995.406,-309.986"/>
<polygon fill="midnightblue" stroke="midnightblue" points="998.877,-309.465 994.648,-299.751 991.897,-309.982 998.877,-309.465"/>
</g>
<!-- Node7 -->
<g id="node7" class="node"><title>Node7</title>
<polygon fill="white" stroke="#bfbfbf" points="305.5,-168.5 305.5,-187.5 346.5,-187.5 346.5,-168.5 305.5,-168.5"/>
<text text-anchor="middle" x="326" y="-175.5" font-family="Helvetica,sans-Serif" font-size="10.00">string</text>
</g>
<!-- Node6&#45;&gt;Node7 -->
<g id="edge6" class="edge"><title>Node6&#45;&gt;Node7</title>
<path fill="none" stroke="midnightblue" d="M379.552,-280.179C377.191,-267.283 371.764,-242.775 362,-224 356.587,-213.591 348.579,-203.276 341.49,-195.153"/>
<polygon fill="midnightblue" stroke="midnightblue" points="343.903,-192.605 334.581,-187.569 338.728,-197.319 343.903,-192.605"/>
</g>
<!-- Node8 -->
<g id="node8" class="node"><title>Node8</title>
<polygon fill="white" stroke="#bfbfbf" points="796.5,-56.5 796.5,-75.5 831.5,-75.5 831.5,-56.5 796.5,-56.5"/>
<text text-anchor="middle" x="814" y="-63.5" font-family="Helvetica,sans-Serif" font-size="10.00">map</text>
</g>
<!-- Node6&#45;&gt;Node8 -->
<g id="edge7" class="edge"><title>Node6&#45;&gt;Node8</title>
<path fill="none" stroke="midnightblue" d="M399.884,-280.454C419.331,-271.582 450.458,-257.182 477,-244 595.092,-185.348 733.811,-110.605 789.272,-80.48"/>
<polygon fill="midnightblue" stroke="midnightblue" points="791.226,-83.4016 798.339,-75.5495 787.882,-77.252 791.226,-83.4016"/>
</g>
<!-- Node9 -->
<g id="node9" class="node"><title>Node9</title>
<polygon fill="white" stroke="#bfbfbf" points="409.5,-224.5 409.5,-243.5 468.5,-243.5 468.5,-224.5 409.5,-224.5"/>
<text text-anchor="middle" x="439" y="-231.5" font-family="Helvetica,sans-Serif" font-size="10.00">jansson.h</text>
</g>
<!-- Node6&#45;&gt;Node9 -->
<g id="edge8" class="edge"><title>Node6&#45;&gt;Node9</title>
<path fill="none" stroke="midnightblue" d="M390.319,-280.324C398.893,-272.341 411.812,-260.313 422.188,-250.653"/>
<polygon fill="midnightblue" stroke="midnightblue" points="424.578,-253.21 429.512,-243.834 419.808,-248.086 424.578,-253.21"/>
</g>
<!-- Node6&#45;&gt;Node10 -->
<g id="edge9" class="edge"><title>Node6&#45;&gt;Node10</title>
<path fill="none" stroke="midnightblue" d="M415.301,-280.425C526.5,-252.625 876.986,-165.003 1000.99,-134.002"/>
<polygon fill="midnightblue" stroke="midnightblue" points="1002.05,-137.345 1010.9,-131.524 1000.35,-130.554 1002.05,-137.345"/>
</g>
<!-- Node6&#45;&gt;Node15 -->
<g id="edge15" class="edge"><title>Node6&#45;&gt;Node15</title>
<path fill="none" stroke="midnightblue" d="M366.701,-280.324C352.817,-271.9 331.508,-258.971 315.196,-249.074"/>
<polygon fill="midnightblue" stroke="midnightblue" points="316.629,-245.85 306.264,-243.655 312.998,-251.834 316.629,-245.85"/>
</g>
<!-- Node10&#45;&gt;Node8 -->
<g id="edge12" class="edge"><title>Node10&#45;&gt;Node8</title>
<path fill="none" stroke="midnightblue" d="M1008.4,-112.444C962.053,-101.61 883.246,-83.1874 841.632,-73.4595"/>
<polygon fill="midnightblue" stroke="midnightblue" points="842.19,-69.9957 831.656,-71.1274 840.597,-76.8119 842.19,-69.9957"/>
</g>
<!-- Node11 -->
<g id="node11" class="node"><title>Node11</title>
<g id="a_node11"><a xlink:href="softwarecontainer-log_8h_source.html" target="_top" xlink:title="softwarecontainer&#45;log.h">
<polygon fill="white" stroke="black" points="1135,-56.5 1135,-75.5 1253,-75.5 1253,-56.5 1135,-56.5"/>
<text text-anchor="middle" x="1194" y="-63.5" font-family="Helvetica,sans-Serif" font-size="10.00">softwarecontainer&#45;log.h</text>
</a>
</g>
</g>
<!-- Node10&#45;&gt;Node11 -->
<g id="edge10" class="edge"><title>Node10&#45;&gt;Node11</title>
<path fill="none" stroke="midnightblue" d="M1068.61,-112.444C1093.46,-103.438 1132.77,-89.1891 1160.75,-79.049"/>
<polygon fill="midnightblue" stroke="midnightblue" points="1162.29,-82.2144 1170.5,-75.5164 1159.91,-75.6332 1162.29,-82.2144"/>
</g>
<!-- Node10&#45;&gt;Node13 -->
<g id="edge13" class="edge"><title>Node10&#45;&gt;Node13</title>
<path fill="none" stroke="midnightblue" d="M973.403,-113.061C868.775,-101.46 677.723,-80.2753 596.349,-71.2522"/>
<polygon fill="midnightblue" stroke="midnightblue" points="596.394,-67.7359 586.069,-70.1124 595.623,-74.6932 596.394,-67.7359"/>
</g>
<!-- Node10&#45;&gt;Node14 -->
<g id="edge14" class="edge"><title>Node10&#45;&gt;Node14</title>
<path fill="none" stroke="midnightblue" d="M1047.31,-112.083C1049.17,-104.927 1051.84,-94.6353 1054.15,-85.6911"/>
<polygon fill="midnightblue" stroke="midnightblue" points="1057.61,-86.3094 1056.73,-75.7511 1050.83,-84.5527 1057.61,-86.3094"/>
</g>
<!-- Node12 -->
<g id="node12" class="node"><title>Node12</title>
<polygon fill="white" stroke="#bfbfbf" points="1160,-0.5 1160,-19.5 1228,-19.5 1228,-0.5 1160,-0.5"/>
<text text-anchor="middle" x="1194" y="-7.5" font-family="Helvetica,sans-Serif" font-size="10.00">ivi&#45;logging.h</text>
</g>
<!-- Node11&#45;&gt;Node12 -->
<g id="edge11" class="edge"><title>Node11&#45;&gt;Node12</title>
<path fill="none" stroke="midnightblue" d="M1194,-56.083C1194,-49.0059 1194,-38.8611 1194,-29.9865"/>
<polygon fill="midnightblue" stroke="midnightblue" points="1197.5,-29.751 1194,-19.7511 1190.5,-29.7511 1197.5,-29.751"/>
</g>
<!-- Node15&#45;&gt;Node7 -->
<g id="edge17" class="edge"><title>Node15&#45;&gt;Node7</title>
<path fill="none" stroke="midnightblue" d="M297.614,-224.083C302.367,-216.534 309.318,-205.495 315.152,-196.23"/>
<polygon fill="midnightblue" stroke="midnightblue" points="318.124,-198.078 320.49,-187.751 312.2,-194.349 318.124,-198.078"/>
</g>
<!-- Node16 -->
<g id="node16" class="node"><title>Node16</title>
<polygon fill="white" stroke="#bfbfbf" points="228.5,-168.5 228.5,-187.5 287.5,-187.5 287.5,-168.5 228.5,-168.5"/>
<text text-anchor="middle" x="258" y="-175.5" font-family="Helvetica,sans-Serif" font-size="10.00">exception</text>
</g>
<!-- Node15&#45;&gt;Node16 -->
<g id="edge16" class="edge"><title>Node15&#45;&gt;Node16</title>
<path fill="none" stroke="midnightblue" d="M286.386,-224.083C281.633,-216.534 274.682,-205.495 268.848,-196.23"/>
<polygon fill="midnightblue" stroke="midnightblue" points="271.8,-194.349 263.51,-187.751 265.876,-198.078 271.8,-194.349"/>
</g>
<!-- Node17&#45;&gt;Node4 -->
<g id="edge22" class="edge"><title>Node17&#45;&gt;Node4</title>
<path fill="none" stroke="midnightblue" d="M633.525,-336.444C687.786,-326.016 778.63,-308.559 830.504,-298.59"/>
<polygon fill="midnightblue" stroke="midnightblue" points="831.177,-302.025 840.337,-296.7 829.856,-295.15 831.177,-302.025"/>
</g>
<!-- Node17&#45;&gt;Node5 -->
<g id="edge21" class="edge"><title>Node17&#45;&gt;Node5</title>
<path fill="none" stroke="midnightblue" d="M653.173,-336.444C740.856,-324.753 894.817,-304.224 961.589,-295.322"/>
<polygon fill="midnightblue" stroke="midnightblue" points="962.453,-298.737 971.903,-293.946 961.528,-291.799 962.453,-298.737"/>
</g>
<!-- Node17&#45;&gt;Node13 -->
<g id="edge20" class="edge"><title>Node17&#45;&gt;Node13</title>
<path fill="none" stroke="midnightblue" d="M584.819,-336.393C576.358,-318.156 558,-274.087 558,-235 558,-235 558,-235 558,-177 558,-144.948 558,-107.643 558,-85.7489"/>
<polygon fill="midnightblue" stroke="midnightblue" points="561.5,-85.5577 558,-75.5578 554.5,-85.5578 561.5,-85.5577"/>
</g>
<!-- Node18 -->
<g id="node18" class="node"><title>Node18</title>
<polygon fill="white" stroke="#bfbfbf" points="586,-280.5 586,-299.5 674,-299.5 674,-280.5 586,-280.5"/>
<text text-anchor="middle" x="630" y="-287.5" font-family="Helvetica,sans-Serif" font-size="10.00">sigc++/sigc++.h</text>
</g>
<!-- Node17&#45;&gt;Node18 -->
<g id="edge19" class="edge"><title>Node17&#45;&gt;Node18</title>
<path fill="none" stroke="midnightblue" d="M595.77,-336.083C601.562,-328.455 610.058,-317.264 617.138,-307.941"/>
<polygon fill="midnightblue" stroke="midnightblue" points="620.096,-309.832 623.356,-299.751 614.521,-305.599 620.096,-309.832"/>
</g>
<!-- Node19 -->
<g id="node19" class="node"><title>Node19</title>
<polygon fill="white" stroke="#bfbfbf" points="692,-280.5 692,-299.5 760,-299.5 760,-280.5 692,-280.5"/>
<text text-anchor="middle" x="726" y="-287.5" font-family="Helvetica,sans-Serif" font-size="10.00">sys/types.h</text>
</g>
<!-- Node17&#45;&gt;Node19 -->
<g id="edge23" class="edge"><title>Node17&#45;&gt;Node19</title>
<path fill="none" stroke="midnightblue" d="M610.708,-336.444C633.355,-327.517 669.072,-313.439 694.752,-303.317"/>
<polygon fill="midnightblue" stroke="midnightblue" points="696.374,-306.44 704.394,-299.516 693.807,-299.927 696.374,-306.44"/>
</g>
<!-- Node20&#45;&gt;Node7 -->
<g id="edge25" class="edge"><title>Node20&#45;&gt;Node7</title>
<path fill="none" stroke="midnightblue" d="M87.3255,-336.38C108.291,-315.046 165.625,-258.977 222,-224 245.379,-209.495 274.252,-197.408 295.639,-189.426"/>
<polygon fill="midnightblue" stroke="midnightblue" points="296.987,-192.66 305.185,-185.95 294.591,-186.083 296.987,-192.66"/>
</g>
<!-- Node21&#45;&gt;Node10 -->
<g id="edge34" class="edge"><title>Node21&#45;&gt;Node10</title>
<path fill="none" stroke="midnightblue" d="M1241,-336.297C1210.41,-303.01 1100.52,-183.421 1060.08,-139.408"/>
<polygon fill="midnightblue" stroke="midnightblue" points="1062.51,-136.879 1053.16,-131.884 1057.35,-141.615 1062.51,-136.879"/>
</g>
<!-- Node22 -->
<g id="node22" class="node"><title>Node22</title>
<g id="a_node22"><a xlink:href="mountcleanuphandler_8h_source.html" target="_top" xlink:title="mountcleanuphandler.h">
<polygon fill="white" stroke="black" points="1200.5,-224.5 1200.5,-243.5 1317.5,-243.5 1317.5,-224.5 1200.5,-224.5"/>
<text text-anchor="middle" x="1259" y="-231.5" font-family="Helvetica,sans-Serif" font-size="10.00">mountcleanuphandler.h</text>
</a>
</g>
</g>
<!-- Node21&#45;&gt;Node22 -->
<g id="edge27" class="edge"><title>Node21&#45;&gt;Node22</title>
<path fill="none" stroke="midnightblue" d="M1249.78,-336.368C1251.4,-318.617 1255.12,-277.666 1257.31,-253.597"/>
<polygon fill="midnightblue" stroke="midnightblue" points="1260.8,-253.867 1258.22,-243.591 1253.83,-253.233 1260.8,-253.867"/>
</g>
<!-- Node24 -->
<g id="node24" class="node"><title>Node24</title>
<g id="a_node24"><a xlink:href="createdir_8h_source.html" target="_top" xlink:title="createdir.h">
<polygon fill="white" stroke="black" points="1328,-280.5 1328,-299.5 1390,-299.5 1390,-280.5 1328,-280.5"/>
<text text-anchor="middle" x="1359" y="-287.5" font-family="Helvetica,sans-Serif" font-size="10.00">createdir.h</text>
</a>
</g>
</g>
<!-- Node21&#45;&gt;Node24 -->
<g id="edge31" class="edge"><title>Node21&#45;&gt;Node24</title>
<path fill="none" stroke="midnightblue" d="M1266.67,-336.324C1284.39,-327.625 1311.9,-314.12 1332.29,-304.113"/>
<polygon fill="midnightblue" stroke="midnightblue" points="1333.94,-307.203 1341.37,-299.655 1330.85,-300.919 1333.94,-307.203"/>
</g>
<!-- Node23 -->
<g id="node23" class="node"><title>Node23</title>
<g id="a_node23"><a xlink:href="cleanuphandler_8h_source.html" target="_top" xlink:title="cleanuphandler.h">
<polygon fill="white" stroke="black" points="1188,-168.5 1188,-187.5 1278,-187.5 1278,-168.5 1188,-168.5"/>
<text text-anchor="middle" x="1233" y="-175.5" font-family="Helvetica,sans-Serif" font-size="10.00">cleanuphandler.h</text>
</a>
</g>
</g>
<!-- Node22&#45;&gt;Node23 -->
<g id="edge28" class="edge"><title>Node22&#45;&gt;Node23</title>
<path fill="none" stroke="midnightblue" d="M1254.71,-224.083C1251.15,-216.691 1245.98,-205.953 1241.58,-196.811"/>
<polygon fill="midnightblue" stroke="midnightblue" points="1244.71,-195.243 1237.21,-187.751 1238.4,-198.279 1244.71,-195.243"/>
</g>
<!-- Node23&#45;&gt;Node10 -->
<g id="edge29" class="edge"><title>Node23&#45;&gt;Node10</title>
<path fill="none" stroke="midnightblue" d="M1203.21,-168.444C1171.17,-159.241 1120.07,-144.562 1084.65,-134.388"/>
<polygon fill="midnightblue" stroke="midnightblue" points="1085.23,-130.913 1074.65,-131.516 1083.29,-137.641 1085.23,-130.913"/>
</g>
<!-- Node23&#45;&gt;Node11 -->
<g id="edge30" class="edge"><title>Node23&#45;&gt;Node11</title>
<path fill="none" stroke="midnightblue" d="M1229.94,-168.368C1223.62,-150.537 1209,-109.295 1200.48,-85.2717"/>
<polygon fill="midnightblue" stroke="midnightblue" points="1203.69,-83.847 1197.05,-75.5914 1197.09,-86.1862 1203.69,-83.847"/>
</g>
<!-- Node25 -->
<g id="node25" class="node"><title>Node25</title>
<g id="a_node25"><a xlink:href="directorycleanuphandler_8h_source.html" target="_top" xlink:title="directorycleanuphandler.h">
<polygon fill="white" stroke="black" points="1336,-224.5 1336,-243.5 1464,-243.5 1464,-224.5 1336,-224.5"/>
<text text-anchor="middle" x="1400" y="-231.5" font-family="Helvetica,sans-Serif" font-size="10.00">directorycleanuphandler.h</text>
</a>
</g>
</g>
<!-- Node24&#45;&gt;Node25 -->
<g id="edge32" class="edge"><title>Node24&#45;&gt;Node25</title>
<path fill="none" stroke="midnightblue" d="M1365.77,-280.083C1371.56,-272.455 1380.06,-261.264 1387.14,-251.941"/>
<polygon fill="midnightblue" stroke="midnightblue" points="1390.1,-253.832 1393.36,-243.751 1384.52,-249.599 1390.1,-253.832"/>
</g>
<!-- Node25&#45;&gt;Node23 -->
<g id="edge33" class="edge"><title>Node25&#45;&gt;Node23</title>
<path fill="none" stroke="midnightblue" d="M1373.54,-224.444C1345.32,-215.32 1300.46,-200.813 1269.03,-190.651"/>
<polygon fill="midnightblue" stroke="midnightblue" points="1269.93,-187.263 1259.34,-187.516 1267.78,-193.923 1269.93,-187.263"/>
</g>
<!-- Node26&#45;&gt;Node6 -->
<g id="edge42" class="edge"><title>Node26&#45;&gt;Node6</title>
<path fill="none" stroke="midnightblue" d="M378.495,-336.083C378.889,-329.006 379.452,-318.861 379.945,-309.986"/>
<polygon fill="midnightblue" stroke="midnightblue" points="383.454,-309.93 380.514,-299.751 376.464,-309.542 383.454,-309.93"/>
</g>
<!-- Node26&#45;&gt;Node27 -->
<g id="edge37" class="edge"><title>Node26&#45;&gt;Node27</title>
<path fill="none" stroke="midnightblue" d="M395.995,-336.324C414.038,-327.625 442.047,-314.12 462.803,-304.113"/>
<polygon fill="midnightblue" stroke="midnightblue" points="464.562,-307.15 472.05,-299.655 461.522,-300.845 464.562,-307.15"/>
</g>
<!-- Node28 -->
<g id="node28" class="node"><title>Node28</title>
<g id="a_node28"><a xlink:href="jobabstract_8h_source.html" target="_top" xlink:title="jobabstract.h">
<polygon fill="white" stroke="black" points="988.5,-224.5 988.5,-243.5 1061.5,-243.5 1061.5,-224.5 988.5,-224.5"/>
<text text-anchor="middle" x="1025" y="-231.5" font-family="Helvetica,sans-Serif" font-size="10.00">jobabstract.h</text>
</a>
</g>
</g>
<!-- Node27&#45;&gt;Node28 -->
<g id="edge38" class="edge"><title>Node27&#45;&gt;Node28</title>
<path fill="none" stroke="midnightblue" d="M530.28,-284.808C544.982,-283.284 561.742,-281.555 577,-280 723.244,-265.091 896.383,-247.803 977.984,-239.676"/>
<polygon fill="midnightblue" stroke="midnightblue" points="978.807,-243.112 988.411,-238.638 978.114,-236.146 978.807,-243.112"/>
</g>
<!-- Node28&#45;&gt;Node10 -->
<g id="edge39" class="edge"><title>Node28&#45;&gt;Node10</title>
<path fill="none" stroke="midnightblue" d="M1027.94,-224.482C1030.93,-215.513 1035.46,-200.926 1038,-188 1041.02,-172.668 1042.81,-155.028 1043.83,-141.997"/>
<polygon fill="midnightblue" stroke="midnightblue" points="1047.33,-142.124 1044.53,-131.905 1040.35,-141.637 1047.33,-142.124"/>
</g>
<!-- Node29 -->
<g id="node29" class="node"><title>Node29</title>
<g id="a_node29"><a xlink:href="executable_8h_source.html" target="_top" xlink:title="executable.h">
<polygon fill="white" stroke="black" points="957,-168.5 957,-187.5 1029,-187.5 1029,-168.5 957,-168.5"/>
<text text-anchor="middle" x="993" y="-175.5" font-family="Helvetica,sans-Serif" font-size="10.00">executable.h</text>
</a>
</g>
</g>
<!-- Node28&#45;&gt;Node29 -->
<g id="edge40" class="edge"><title>Node28&#45;&gt;Node29</title>
<path fill="none" stroke="midnightblue" d="M1019.72,-224.083C1015.29,-216.613 1008.84,-205.724 1003.38,-196.52"/>
<polygon fill="midnightblue" stroke="midnightblue" points="1006.29,-194.57 998.186,-187.751 1000.27,-198.138 1006.29,-194.57"/>
</g>
<!-- Node29&#45;&gt;Node10 -->
<g id="edge41" class="edge"><title>Node29&#45;&gt;Node10</title>
<path fill="none" stroke="midnightblue" d="M1001.59,-168.083C1009.16,-160.22 1020.38,-148.569 1029.51,-139.081"/>
<polygon fill="midnightblue" stroke="midnightblue" points="1032.16,-141.382 1036.57,-131.751 1027.12,-136.527 1032.16,-141.382"/>
</g>
<!-- Node34&#45;&gt;Node28 -->
<g id="edge51" class="edge"><title>Node34&#45;&gt;Node28</title>
<path fill="none" stroke="midnightblue" d="M1062.57,-280.083C1056.15,-272.377 1046.69,-261.033 1038.88,-251.653"/>
<polygon fill="midnightblue" stroke="midnightblue" points="1041.38,-249.193 1032.29,-243.751 1036.01,-253.674 1041.38,-249.193"/>
</g>
</g>
</svg>
