<?xml version="1.0" encoding="UTF-8" standalone="no"?>
<!DOCTYPE svg PUBLIC "-//W3C//DTD SVG 1.1//EN"
 "http://www.w3.org/Graphics/SVG/1.1/DTD/svg11.dtd">
<!-- Generated by graphviz version 2.38.0 (20140413.2041)
 -->
<!-- Title: agent/src/softwarecontainerfactory.h Pages: 1 -->
<svg width="618pt" height="196pt"
 viewBox="0.00 0.00 618.00 196.00" xmlns="http://www.w3.org/2000/svg" xmlns:xlink="http://www.w3.org/1999/xlink">
<g id="graph0" class="graph" transform="scale(1 1) rotate(0) translate(4 192)">
<title>agent/src/softwarecontainerfactory.h</title>
<polygon fill="white" stroke="none" points="-4,4 -4,-192 614,-192 614,4 -4,4"/>
<!-- Node1 -->
<g id="node1" class="node"><title>Node1</title>
<polygon fill="#bfbfbf" stroke="black" points="331,-168.5 331,-187.5 507,-187.5 507,-168.5 331,-168.5"/>
<text text-anchor="middle" x="419" y="-175.5" font-family="Helvetica,sans-Serif" font-size="10.00">agent/src/softwarecontainerfactory.h</text>
</g>
<!-- Node2 -->
<g id="node2" class="node"><title>Node2</title>
<g id="a_node2"><a xlink:href="softwarecontaineragent_8h.html" target="_top" xlink:title="Contains the softwarecontainer::SoftwareContainerAgent class. ">
<polygon fill="white" stroke="black" points="236,-112.5 236,-131.5 406,-131.5 406,-112.5 236,-112.5"/>
<text text-anchor="middle" x="321" y="-119.5" font-family="Helvetica,sans-Serif" font-size="10.00">agent/src/softwarecontaineragent.h</text>
</a>
</g>
</g>
<!-- Node1&#45;&gt;Node2 -->
<g id="edge1" class="edge"><title>Node1&#45;&gt;Node2</title>
<path fill="none" stroke="midnightblue" d="M394.414,-163.453C376.322,-153.483 352.265,-140.228 336.706,-131.655"/>
<polygon fill="midnightblue" stroke="midnightblue" points="392.807,-166.563 403.255,-168.324 396.185,-160.432 392.807,-166.563"/>
</g>
<!-- Node7 -->
<g id="node7" class="node"><title>Node7</title>
<g id="a_node7"><a xlink:href="softwarecontainerfactory_8cpp_source.html" target="_top" xlink:title="agent/src/softwarecontainerfactory.cpp">
<polygon fill="white" stroke="black" points="424,-112.5 424,-131.5 610,-131.5 610,-112.5 424,-112.5"/>
<text text-anchor="middle" x="517" y="-119.5" font-family="Helvetica,sans-Serif" font-size="10.00">agent/src/softwarecontainerfactory.cpp</text>
</a>
</g>
</g>
<!-- Node1&#45;&gt;Node7 -->
<g id="edge6" class="edge"><title>Node1&#45;&gt;Node7</title>
<path fill="none" stroke="midnightblue" d="M443.586,-163.453C461.678,-153.483 485.735,-140.228 501.294,-131.655"/>
<polygon fill="midnightblue" stroke="midnightblue" points="441.815,-160.432 434.745,-168.324 445.193,-166.563 441.815,-160.432"/>
</g>
<!-- Node3 -->
<g id="node3" class="node"><title>Node3</title>
<g id="a_node3"><a xlink:href="softwarecontaineragentadaptor_8h_source.html" target="_top" xlink:title="agent/src/dbus/softwarecontaineragentadaptor.h">
<polygon fill="white" stroke="black" points="98,-56.5 98,-75.5 324,-75.5 324,-56.5 98,-56.5"/>
<text text-anchor="middle" x="211" y="-63.5" font-family="Helvetica,sans-Serif" font-size="10.00">agent/src/dbus/softwarecontaineragentadaptor.h</text>
</a>
</g>
</g>
<!-- Node2&#45;&gt;Node3 -->
<g id="edge2" class="edge"><title>Node2&#45;&gt;Node3</title>
<path fill="none" stroke="midnightblue" d="M294.238,-107.862C273.841,-97.8492 246.334,-84.3458 228.63,-75.6545"/>
<polygon fill="midnightblue" stroke="midnightblue" points="292.808,-111.059 303.327,-112.324 295.892,-104.775 292.808,-111.059"/>
</g>
<!-- Node6 -->
<g id="node6" class="node"><title>Node6</title>
<g id="a_node6"><a xlink:href="softwarecontaineragent_8cpp_source.html" target="_top" xlink:title="agent/src/softwarecontaineragent.cpp">
<polygon fill="white" stroke="black" points="342,-56.5 342,-75.5 522,-75.5 522,-56.5 342,-56.5"/>
<text text-anchor="middle" x="432" y="-63.5" font-family="Helvetica,sans-Serif" font-size="10.00">agent/src/softwarecontaineragent.cpp</text>
</a>
</g>
</g>
<!-- Node2&#45;&gt;Node6 -->
<g id="edge5" class="edge"><title>Node2&#45;&gt;Node6</title>
<path fill="none" stroke="midnightblue" d="M348.005,-107.862C368.588,-97.8492 396.345,-84.3458 414.21,-75.6545"/>
<polygon fill="midnightblue" stroke="midnightblue" points="346.295,-104.802 338.834,-112.324 349.358,-111.097 346.295,-104.802"/>
</g>
<!-- Node4 -->
<g id="node4" class="node"><title>Node4</title>
<g id="a_node4"><a xlink:href="softwarecontaineragentadaptor_8cpp_source.html" target="_top" xlink:title="agent/src/dbus/softwarecontaineragentadaptor.cpp">
<polygon fill="white" stroke="black" points="0,-0.5 0,-19.5 236,-19.5 236,-0.5 0,-0.5"/>
<text text-anchor="middle" x="118" y="-7.5" font-family="Helvetica,sans-Serif" font-size="10.00">agent/src/dbus/softwarecontaineragentadaptor.cpp</text>
</a>
</g>
</g>
<!-- Node3&#45;&gt;Node4 -->
<g id="edge3" class="edge"><title>Node3&#45;&gt;Node4</title>
<path fill="none" stroke="midnightblue" d="M187.194,-51.1774C170.081,-41.2407 147.535,-28.1492 132.905,-19.6545"/>
<polygon fill="midnightblue" stroke="midnightblue" points="185.653,-54.3293 196.058,-56.324 189.168,-48.2758 185.653,-54.3293"/>
</g>
<!-- Node5 -->
<g id="node5" class="node"><title>Node5</title>
<g id="a_node5"><a xlink:href="main_8cpp_source.html" target="_top" xlink:title="agent/src/main.cpp">
<polygon fill="white" stroke="black" points="254,-0.5 254,-19.5 354,-19.5 354,-0.5 254,-0.5"/>
<text text-anchor="middle" x="304" y="-7.5" font-family="Helvetica,sans-Serif" font-size="10.00">agent/src/main.cpp</text>
</a>
</g>
</g>
<!-- Node3&#45;&gt;Node5 -->
<g id="edge4" class="edge"><title>Node3&#45;&gt;Node5</title>
<path fill="none" stroke="midnightblue" d="M234.806,-51.1774C251.919,-41.2407 274.465,-28.1492 289.095,-19.6545"/>
<polygon fill="midnightblue" stroke="midnightblue" points="232.832,-48.2758 225.942,-56.324 236.347,-54.3293 232.832,-48.2758"/>
</g>
</g>
</svg>
