<?xml version="1.0" encoding="UTF-8" standalone="no"?>
<!DOCTYPE svg PUBLIC "-//W3C//DTD SVG 1.1//EN"
 "http://www.w3.org/Graphics/SVG/1.1/DTD/svg11.dtd">
<!-- Generated by graphviz version 2.38.0 (20140413.2041)
 -->
<!-- Title: softwarecontainer::IPTableEntry::Rule Pages: 1 -->
<svg width="126pt" height="117pt"
 viewBox="0.00 0.00 126.00 117.00" xmlns="http://www.w3.org/2000/svg" xmlns:xlink="http://www.w3.org/1999/xlink">
<g id="graph0" class="graph" transform="scale(1 1) rotate(0) translate(4 113)">
<title>softwarecontainer::IPTableEntry::Rule</title>
<polygon fill="white" stroke="none" points="-4,4 -4,-113 122,-113 122,4 -4,4"/>
<!-- Node1 -->
<g id="node1" class="node"><title>Node1</title>
<polygon fill="#bfbfbf" stroke="black" points="9,-0.5 9,-30.5 109,-30.5 109,-0.5 9,-0.5"/>
<text text-anchor="start" x="17" y="-18.5" font-family="Helvetica,sans-Serif" font-size="10.00">softwarecontainer::</text>
<text text-anchor="middle" x="59" y="-7.5" font-family="Helvetica,sans-Serif" font-size="10.00">IPTableEntry::Rule</text>
</g>
<!-- Node2 -->
<g id="node2" class="node"><title>Node2</title>
<g id="a_node2"><a xlink:href="structsoftwarecontainer_1_1_i_p_table_entry_1_1port_filter.html" target="_top" xlink:title="container for port filtering options. ">
<polygon fill="white" stroke="black" points="0,-78.5 0,-108.5 118,-108.5 118,-78.5 0,-78.5"/>
<text text-anchor="start" x="8" y="-96.5" font-family="Helvetica,sans-Serif" font-size="10.00">softwarecontainer::</text>
<text text-anchor="middle" x="59" y="-85.5" font-family="Helvetica,sans-Serif" font-size="10.00">IPTableEntry::portFilter</text>
</a>
</g>
</g>
<!-- Node2&#45;&gt;Node1 -->
<g id="edge1" class="edge"><title>Node2&#45;&gt;Node1</title>
<path fill="none" stroke="#9a32cd" stroke-dasharray="5,2" d="M59,-68.0898C59,-55.7565 59,-41.2237 59,-30.7309"/>
<polygon fill="#9a32cd" stroke="#9a32cd" points="55.5001,-68.2049 59,-78.205 62.5001,-68.205 55.5001,-68.2049"/>
<text text-anchor="middle" x="71.5" y="-52" font-family="Helvetica,sans-Serif" font-size="10.00"> ports</text>
</g>
</g>
</svg>
